<svg width="70" height="70" viewBox="0 0 70 70" fill="none" xmlns="http://www.w3.org/2000/svg">
<g clip-path="url(#clip0_3430_12200)">
<path d="M34.8213 20.8098C41.1238 20.8098 48.0531 25.2503 48.9845 33.7604C55.2566 30.7058 62.3042 29.4122 69.2883 30.0259C66.877 13.1519 52.3673 0.179535 34.8283 0.179535C18.3373 0.179535 4.52578 11.6476 0.929699 27.0444C7.93392 26.9929 14.8211 28.8413 20.8583 32.3928C22.4757 24.6174 28.9489 20.8089 34.8205 20.8089L34.8213 20.8098ZM0.173224 31.6781C-1.60262 49.1989 10.4818 65.2868 27.0642 68.936V68.741C27.054 62.323 28.6417 56.0034 31.684 50.3523C25.8855 38.7501 13.1665 31.1523 0.173224 31.6781ZM31.7336 69.6707C51.9504 71.5632 69.7489 55.3169 69.6409 34.9939C69.6409 34.8947 69.6409 34.7972 69.6392 34.6997C49.2222 32.3162 30.9919 49.1293 31.7336 69.6707Z" fill="#054449"/>
</g>
<defs>
<clipPath id="clip0_3430_12200">
<rect width="70" height="70" fill="white"/>
</clipPath>
</defs>
</svg>
