<svg width="400" height="70" viewBox="0 0 400 70" fill="none" xmlns="http://www.w3.org/2000/svg">
<g clip-path="url(#clip0_3430_12190)">
<path d="M196.037 50.8999L196.216 50.8642V57.0553L196.124 57.0962C195.521 57.353 194.138 57.7848 191.669 57.7848C185.996 57.7848 182.477 54.3088 182.477 48.7114V33.1798H176.902V27.2794H178.601C181.456 27.2794 183.096 25.6281 183.096 22.7536V17.9745H189.899V27.1402H196.154V33.1763H189.899V47.5371C189.899 50.0598 191.003 51.1367 193.588 51.1367C194.605 51.1367 195.778 50.946 196.037 50.8947V50.8999ZM219.143 50.8973H219.142V50.8947C218.884 50.946 217.706 51.1367 216.692 51.1367C214.108 51.1367 213.006 50.059 213.006 47.5371V33.1763H219.261V27.1402H213.006V17.9745H206.203V22.7536C206.203 25.6272 204.563 27.2794 201.708 27.2794H200.01V33.1798H205.584V48.7114C205.584 54.3088 209.104 57.7848 214.778 57.7848C217.245 57.7848 218.628 57.3521 219.232 57.0962L219.325 57.0553V50.8642L219.143 50.8999V50.8973ZM173.076 57.151L173.112 57.3338H166.148L166.112 57.2276C166.046 57.0431 165.83 55.961 165.797 53.8631C164.675 55.4527 161.946 58.2575 156.674 58.2575C153.648 58.2575 151.035 57.2964 149.11 55.4727C147.319 53.7734 146.33 51.4971 146.33 49.0649C146.33 44.1369 149.774 40.7018 155.539 39.8714L163.261 38.7005C165.137 38.4368 165.355 37.4331 165.355 36.6984C165.355 33.9423 163.145 32.2971 159.818 32.2971C156.491 32.2971 154.208 34.2575 153.814 37.4165L146.968 35.874C147.574 31.1532 151.795 26.1495 159.76 26.1495C171.438 26.1495 172.699 34.0851 172.699 37.4966V52.3815C172.699 55.2847 173.05 57.0753 173.065 57.151H173.076ZM165.355 43.5728H165.351L157.678 44.7184C156.228 44.9595 153.792 45.7848 153.792 48.627C153.792 50.4211 155.118 52.3519 158.027 52.3519C161.368 52.3519 165.353 51.0339 165.353 44.7532H165.355V43.5719V43.5728ZM225.959 57.4261H233.424V27.0966H225.959V57.4261ZM34.8213 20.8098C41.1238 20.8098 48.0531 25.2503 48.9845 33.7604C55.2566 30.7058 62.3042 29.4122 69.2884 30.0259C66.877 13.1519 52.3673 0.179542 34.8283 0.179542C18.3373 0.179542 4.52578 11.6477 0.929699 27.0444C7.93392 26.9929 14.8211 28.8413 20.8583 32.3928C22.4757 24.6174 28.9489 20.8089 34.8205 20.8089L34.8213 20.8098ZM0.173224 31.6781C-1.60262 49.1989 10.4818 65.2868 27.0642 68.936V68.741C27.054 62.323 28.6417 56.0034 31.684 50.3523C25.8855 38.7502 13.1665 31.1523 0.173224 31.6781ZM115.321 46.5456L101.189 13.561L101.148 13.4714H90.9684V57.4261H98.528V26.0033L111.782 57.225H118.61L131.988 25.8779V57.427H139.672V13.474H129.309L115.321 46.5456ZM31.7336 69.6707C51.9504 71.5632 69.7489 55.3169 69.6409 34.9939C69.6409 34.8947 69.6409 34.7972 69.6392 34.6997C49.2222 32.3162 30.9919 49.1293 31.7336 69.6707ZM378.183 41.8614C378.183 43.7765 377.995 44.2884 377.995 44.2884H355.942C356.193 48.5835 359.646 51.7991 364.023 51.7991C367.254 51.7991 369.544 50.5291 370.855 48.035V48.0394H377.968C377.607 49.2801 377.108 50.4764 376.48 51.6059C374.354 55.1758 370.311 58.2557 364.019 58.2557C359.839 58.2557 355.968 56.7402 353.132 53.9902C350.063 51.0183 348.439 46.8868 348.439 42.0503C348.439 37.5671 350.047 33.4705 352.971 30.5151C355.709 27.7408 359.469 26.1495 363.279 26.1495C372.474 26.1495 378.183 32.1578 378.183 41.8631V41.8614ZM370.621 38.7545C370.372 34.0781 366.554 32.4128 363.343 32.4128C360.131 32.4128 356.542 34.6361 356.134 38.7545H370.621ZM332.258 26.2662C328.56 26.2662 325.323 27.9332 323.48 30.7467V27.1262H316.177V57.4218H323.666V39.9654C323.666 35.7547 326.065 33.037 329.776 33.037C335.038 33.037 335.824 37.1092 335.824 39.5354V57.4244H343.314V38.3036C343.314 30.8773 339.078 26.2662 332.258 26.2653V26.2662ZM296.857 45.8057L288.311 27.1845L288.269 27.0949H279.797L292.783 53.6141L285.644 69.0326V69.0361H293.667L312.857 27.0958H304.891L296.857 45.8057ZM399.823 50.899V50.8947C399.56 50.946 398.385 51.1367 397.374 51.1367C394.785 51.1367 393.68 50.059 393.68 47.5371V33.1763H399.94V27.1402H393.68V17.9745H386.879V22.7536C386.879 25.6272 385.236 27.2794 382.383 27.2794H380.684V33.1798H386.255V48.7114C386.255 54.3088 389.782 57.7848 395.452 57.7848C398.013 57.7848 399.424 57.3051 399.908 57.0962L400 57.0553V50.8642L399.823 50.899ZM230.077 11.9314C229.442 11.9295 228.813 12.0531 228.226 12.2951C227.64 12.5371 227.106 12.8927 226.657 13.3416C226.208 13.7904 225.853 14.3236 225.611 14.9105C225.368 15.4973 225.245 16.1262 225.247 16.761C225.247 19.4239 227.337 21.528 230.077 21.528C232.817 21.528 234.964 19.4353 234.964 16.761C234.964 14.0868 232.77 11.9314 230.077 11.9314ZM241.9 57.427H249.367V12.5243H241.9V57.427ZM270.269 39.2533H270.262L270.269 39.2551V39.2533ZM270.255 39.2533H270.262L265.683 38.3323C263.856 37.9711 262.767 36.8516 262.767 35.3447C262.767 33.4966 264.607 32.049 266.953 32.049C271.52 32.049 272.274 35.6807 272.383 36.4102L272.408 36.5791L278.777 34.7728L278.755 34.6396C278.597 33.7099 278.005 31.3177 275.862 29.2668C273.703 27.1993 270.702 26.1495 266.953 26.1495C260.751 26.1495 255.706 30.5491 255.706 35.9576C255.706 40.3876 258.784 43.7121 263.941 44.8385L268.408 45.8239C270.641 46.2783 271.82 47.3752 271.82 48.9961C271.82 50.617 270.467 52.2918 267.445 52.2918C263.361 52.2918 261.669 49.6141 261.456 47.3238L261.441 47.141L254.88 48.9473L254.891 49.0753C255.117 51.1445 256.29 53.3425 258.028 54.9617C260.345 57.1127 263.62 58.2575 267.499 58.2575C275.087 58.2575 279.055 53.3547 279.055 48.5077C279.055 43.6607 275.849 40.459 270.255 39.2542V39.2533Z" fill="#054449"/>
</g>
<defs>
<clipPath id="clip0_3430_12190">
<rect width="400" height="70" fill="white"/>
</clipPath>
</defs>
</svg>
