<svg xmlns="http://www.w3.org/2000/svg" viewBox="0 0 44 39"><path d="M41 16.6c.7-.8 1.1-1.6 1-2.5-.1-1.3-1-2.1-1.1-2.2l-3.5-3.3c-1.6-1.5-3.1-1.9-4.6-1.2-1 .5-1.7.7-4.6 0-2.9-.6-5.5 1-6.2 1.5-.6-.4-3.2-2.2-6.3-1.5-2.9.7-3.6.4-4.6 0-1.5-.6-3-.2-4.5 1.3-1 1-3.5 3.3-3.5 3.3-.1 0-1.1.8-1.1 2.1-.1.9.3 1.7 1 2.5l5.2 5.2-.2.1c-.6.5-.9 1.2-1 1.9 0 .8.2 1.6.7 2.2.4.4.8.7 1.3.9-.2.9-.1 1.8.6 2.6.5.6 1.2.9 1.9 1h.3c.2 0 .4 0 .6-.1.1.4.3.9.6 1.2.5.6 1.2.9 1.9 1h.3c.7 0 1.3-.2 1.8-.7l.6-.5c.1.3.3.6.5.9.5.6 1.2.9 1.9 1h.3c.7 0 1.3-.2 1.8-.7l2.1-1.7 1.5 1.5c.5.5 1.1.7 1.8.7s1.4-.3 1.8-.8l.3-.3c.2-.2.4-.5.5-.8.3.1.6.2 1 .2.7 0 1.4-.3 1.8-.8l.3-.3c.3-.3.5-.7.6-1.1h.4c.7 0 1.4-.3 1.8-.8l.3-.3c.8-.8.9-1.9.5-2.8.3-.1.6-.3.9-.6l.3-.3c.5-.5.8-1.2.7-1.9 0-.7-.3-1.4-.8-1.9l-.7-.7c1.6-1.1 2.9-2.4 3.8-3.3zM4.3 15.3c-.4-.4-.6-.8-.5-1.1 0-.5.5-.9.5-.9s2.5-2.4 3.5-3.3c.9-.8 1.5-1 1.9-1 .2 0 .4.1.6.1 1.5.7 2.7.8 5.8.1 2.5-.6 4.8 1.2 4.8 1.3l4.9 2.9c.5.3.6.9.4 1.4-.1.2-.4.4-.6.5-.3.1-.5 0-.8-.1l-2.5-1.3c-2.7-1.4-5 .4-5.2.5l-7.6 6.4c-.9-1.3-3.7-4-5.2-5.5zm24.1 15.4l-.3.3c-.1.2-.3.2-.6.2s-.4-.1-.6-.2l-2-1.9c-.3-.3-.3-.8 0-1.1l.3-.3c.2-.2.4-.2.6-.2s.4.1.5.2l2.1 2c.1.1.2.3.2.5.1.2 0 .4-.2.5zm3.7-1.7l-.3.3c-.1.2-.3.2-.6.2s-.4-.1-.6-.2l-.9-.9-.1-.1-2-1.9c-.3-.3-.3-.8 0-1.1l.3-.3c.3-.3.8-.3 1.1 0l3 3c.2.1.2.3.2.6.2 0 .1.2-.1.4zm3.3-2.2l-.3.3c-.1.2-.3.2-.6.2-.2 0-.4-.1-.6-.2l-4.3-4.2c-.3-.3-.3-.8 0-1.1l.3-.3c.1-.2.3-.2.6-.2.2 0 .4.1.6.2l.3.3 2.4 2.3 1.6 1.6c.3.3.3.8 0 1.1zm1.7-3.7l-.3.3c-.1.2-.3.2-.6.2-.2 0-.4-.1-.6-.2l-2.3-2.2-.8-.8c-.3-.3-.3-.8 0-1.1l.3-.3c.3-.3.8-.3 1.1 0l3 3c.2.1.2.3.2.6.2.1.1.3 0 .5zm-.8-4.4l-1-1c-1-1-2.7-1-3.7.1l-.3.2c-.4.4-.6.9-.7 1.4h-.1c-.7 0-1.4.3-1.9.8l-.3.3c-.7.7-.9 1.6-.7 2.5-.4.1-.7.3-1 .6l-.3.3c-.5.5-.7 1.1-.7 1.7-.6.1-1.2.3-1.7.8l-.3.3c-.7.8-.9 1.8-.6 2.8l-2 1.7c-.2.2-.5.3-.7.2-.3 0-.5-.1-.7-.4-.2-.2-.3-.5-.2-.7 0-.3.1-.5.4-.7l5.9-5-1.2-1.4-2.6 2.2-5.9 5c-.4.4-1.1.3-1.4-.1-.2-.2-.3-.5-.2-.7 0-.3.1-.5.4-.7l1-.9 4-3.3 2.8-2.4-1.4-1.3-4.2 3.5-4.6 3.8c-.2.2-.5.3-.7.2-.3 0-.5-.1-.7-.4-.4-.4-.3-1.1.1-1.4l.6-.5 3.4-2.8 2-1.6 1.9-1.6-1.2-1.4-7.3 6.1c-.2.2-.5.3-.7.2-.3 0-.5-.1-.7-.4-.1-.1-.2-.4-.2-.7s.1-.5.4-.7l9.1-7.7c.1 0 1.5-1.2 3.1-.3l2.5 1.3c1.4.8 3.1.3 3.9-1 .8-1.4.3-3.1-1-3.9l-3-1.8c.9-.5 2.4-1.1 4-.7 3.1.7 4.2.5 5.8-.2.5-.2 1.2-.3 2.5.9l3.6 3.4s.5.4.5.9c0 .3-.2.7-.5 1.1-1 .9-2.3 2.2-3.5 3.4z"/></svg>
