<svg id="Hdir_logo" data-name="Hdir logo" xmlns="http://www.w3.org/2000/svg" viewBox="0 0 680.79 451.81"><defs><style>.cls-1{fill:#025169;}.cls-2{fill:#047fa4;}.cls-3{fill:#f12891;}.cls-4{fill:#fff;}</style></defs><title>Hdir symbol rgb</title><path class="cls-1" d="M407.91,230.32l1,.45a21.55,21.55,0,0,0,28.39-10.83L446.8,200A21.56,21.56,0,0,0,436,171.64l-1-.45A21.55,21.55,0,0,0,406.58,182l-9.5,19.92A21.54,21.54,0,0,0,407.91,230.32Z" transform="translate(-254.88 -169.33)"/><path class="cls-1" d="M483.71,298.75c-.64-.33-1.31-.69-1.91-1-65.31-33.34-187.35-98-201.69-105.13-13.43-6.76-16.5-2.71-21.42,5.57s-6.48,13.3,3.63,20.61c6.59,4.77,36.67,23.3,56.64,38.28,15.2,11.37,29.78,26.79,33.69,42.63l53.47,223.07c3.28,13.2,10.6,12.84,17.93,11.75,7.95-1.2,14.9-1.83,14.31-18.15L431.09,344.3c-.73-16.34,10.72-23.36,25.31-15.7l27.31,13.53,21.68,10.75a2.53,2.53,0,0,0,.12-.23,216.37,216.37,0,0,1,11.59-35.27v-.06h0C508.51,312.61,494,304.14,483.71,298.75Z" transform="translate(-254.88 -169.33)"/><path class="cls-2" d="M717.63,185.05a218.31,218.31,0,0,0-56,7.28c.07,1.86.15,3.72.22,5.58.76,25.88,3.18,63.44,5.57,82.15,1.8,13.82,4.42,26.34,14.54,38.14,8.62,10,17.8,14.86,32.69,21.85s66.53,27.4,81.31,33.38,13.63,11.07,10.26,20.8-6.59,11.86-20.94,7.69-78.15-25-93.18-28.81c-8.67-2.19-13.55-2.08-20.23,6.05-14.89,19.4-14.27,56.8-3.44,88.69,4.81,14,12.54,38.34,17.55,53.85s-3,17.64-8.07,19.84c-9.89,4.27-15.09,4.25-21.22-8.26-6.23-12.8-21.77-55.78-39.23-89.49S581,395.27,544.85,373.94h0l-6.77-3.61-32.63-17.42a220.81,220.81,0,0,0-4.73,28.85c-.7,7-1.14,14.13-1.14,21.33,0,120.43,97.62,218.05,218.05,218.05s218-97.62,218-218S838.05,185.05,717.63,185.05Zm35.22,98-14.71,15a20.53,20.53,0,0,1-28.92,1l-.77-.71a20.53,20.53,0,0,1-1-28.93l14.71-15a20.53,20.53,0,0,1,28.93-1l.76.71A20.52,20.52,0,0,1,752.85,283Z" transform="translate(-254.88 -169.33)"/><path class="cls-2" d="M529.88,292.29a216.55,216.55,0,0,0-12.76,25h0c4.89,2.5,14.43,7.34,20.94,10.63l6.77,3.43c-.11,0,35.14,16.47,46.19,20.93,26.05,10.54,38.67-29.4,38.67-60.13,0-17.88.5-75.79.5-83.36v-5.51A218.91,218.91,0,0,0,529.88,292.29Z" transform="translate(-254.88 -169.33)"/><path class="cls-3" d="M517.12,317.33Z" transform="translate(-254.88 -169.33)"/><polygon class="cls-3" points="250.51 183.55 250.51 183.55 250.57 183.58 250.57 183.58 250.51 183.55"/><path class="cls-3" d="M505.51,352.65a2.53,2.53,0,0,1-.12.23l.06,0Z" transform="translate(-254.88 -169.33)"/><path class="cls-3" d="M517.1,317.32v.06l0-.05Z" transform="translate(-254.88 -169.33)"/><path class="cls-4" d="M751.1,253.38a20.53,20.53,0,0,0-28.93,1l-14.71,15a20.53,20.53,0,0,0,1,28.93l.77.71a20.53,20.53,0,0,0,28.92-1l14.71-15a20.52,20.52,0,0,0-1-28.93Z" transform="translate(-254.88 -169.33)"/><path class="cls-4" d="M796,373.43c-14.78-6-66.34-26.27-81.31-33.38S690.61,328.18,682,318.2c-10.12-11.8-12.74-24.32-14.54-38.14-2.39-18.71-4.81-56.27-5.57-82.15-.07-1.86-.15-3.72-.22-5.58a216.27,216.27,0,0,0-31.45,11v5.51c0,7.57-.5,65.48-.5,83.36,0,30.73-12.62,70.67-38.67,60.13-11-4.46-46.3-20.93-46.19-20.93L538.08,328c-6.51-3.29-16.05-8.13-20.94-10.63h0l0,.05a216.37,216.37,0,0,0-11.59,35.27l-.06.26h0l32.63,17.42,6.77,3.61h0C581,395.27,600.06,410,617.49,443.79s33,76.69,39.23,89.49c6.13,12.51,11.33,12.53,21.22,8.26,5-2.2,13.12-4.42,8.07-19.84s-12.74-39.82-17.55-53.85C657.63,436,657,398.56,671.9,379.16c6.68-8.13,11.56-8.24,20.23-6.05,15,3.81,78.83,24.59,93.18,28.81s17.55,2.07,20.94-7.69S810.73,379.4,796,373.43Z" transform="translate(-254.88 -169.33)"/></svg>