<svg width="1057" height="1057" viewBox="0 0 1057 1057" fill="none" xmlns="http://www.w3.org/2000/svg">
<path fill-rule="evenodd" clip-rule="evenodd" d="M528.531 1056.64C236.895 1056.64 0.420761 820.113 0.420761 528.356C0.420761 236.568 236.895 0 528.531 0C820.274 0 1056.77 236.568 1056.77 528.356C1056.77 820.113 820.274 1056.64 528.531 1056.64Z" fill="#C30000"/>
<path fill-rule="evenodd" clip-rule="evenodd" d="M979.053 491.785H885.161C885.161 491.785 878.689 491.785 876.401 497.502L824.44 656.608L772.523 497.502C770.235 491.785 763.725 491.785 763.725 491.785H583.195C579.287 491.785 576.011 495.05 576.011 498.934V552.966C576.011 510.104 530.415 491.785 503.716 491.785C443.927 491.785 403.903 531.176 391.441 591.062C390.765 551.334 387.464 537.099 376.765 522.519C371.851 515.377 364.748 509.373 357.013 504.407C341.087 495.075 326.787 491.785 296.054 491.785H259.97C259.97 491.785 253.448 491.785 251.147 497.502L218.314 578.891V498.934C218.314 495.05 215.062 491.785 211.16 491.785H127.661C127.661 491.785 121.214 491.785 118.869 497.502L84.7352 582.131C84.7352 582.131 81.3275 590.593 89.1184 590.593H121.214V751.857C121.214 755.86 124.365 759.031 128.386 759.031H211.16C215.062 759.031 218.314 755.86 218.314 751.857V590.593H250.578C269.092 590.593 273.013 591.099 280.216 594.458C284.556 596.097 288.464 599.412 290.596 603.233C294.96 611.451 296.054 621.321 296.054 650.423V751.857C296.054 755.86 299.268 759.031 303.239 759.031H382.574C382.574 759.031 391.541 759.031 395.086 750.175L412.669 706.706C436.048 739.461 474.528 759.031 522.349 759.031H532.798C532.798 759.031 541.82 759.031 545.391 750.175L576.011 674.321V751.857C576.011 755.86 579.287 759.031 583.195 759.031H664.181C664.181 759.031 673.116 759.031 676.705 750.175C676.705 750.175 709.095 669.736 709.22 669.13H709.27C710.514 662.438 702.06 662.438 702.06 662.438H673.154V524.415L764.101 750.175C767.652 759.031 776.606 759.031 776.606 759.031H872.28C872.28 759.031 881.284 759.031 884.836 750.175L985.662 500.441C989.151 491.785 979.053 491.785 979.053 491.785ZM576.011 662.438H521.611C499.958 662.438 482.344 644.9 482.344 623.216C482.344 601.569 499.958 583.919 521.611 583.919H536.824C558.421 583.919 576.011 601.569 576.011 623.216V662.438Z" fill="#FEFEFE"/>
</svg>
