<?xml version="1.0" encoding="UTF-8"?>
<svg id="Layer_1" xmlns="http://www.w3.org/2000/svg" xmlns:xlink="http://www.w3.org/1999/xlink" version="1.1" viewBox="0 0 253.4 203.4">
  <!-- Generator: Adobe Illustrator 29.2.1, SVG Export Plug-In . SVG Version: 2.1.0 Build 116)  -->
  <defs>
    <style>
      .st0 {
        fill: #62924e;
      }

      .st1 {
        fill: #afaba9;
      }
    </style>
  </defs>
  <g id="Layer_11">
    <path class="st1" d="M102.7,43.5c53.2,0,78.7,17.2,103.2,36.6,29.3,23.2,43,50.8,46.6,58.2-2.5-34.9-13.2-68.7-36.2-95.6C196.4,19.4,167.3,0,116.1,0H24.4c.8,15.2,3.3,29.9,8,43.5h70.3Z"/>
    <path class="st0" d="M244.6,159.8c-1-2.8-2.1-5.5-3.3-8.2-1.2-2.8-2.5-5.5-3.9-8.2-25-49.4-76.2-83.3-135.3-83.3H0c4.3,79.7,70.5,143.3,151.3,143.3h102.1c-.8-15.2-3.9-29.8-8.9-43.5"/>
  </g>
</svg>