<?xml version="1.0" encoding="UTF-8"?>
<svg xmlns="http://www.w3.org/2000/svg" width="170" height="37" viewBox="0 0 170 37" fill="none">
  <g clip-path="url(#clip0_4764_1221)">
    <path d="M59.9809 16.4868H63.9509L70.4235 34.573H66.3274L65.1139 30.9507H58.4642L57.225 34.573H53.4321L59.9809 16.4868ZM64.1025 27.7592L61.8264 20.8433H61.7772L59.4765 27.7592H64.1025Z" fill="#333B42"/>
    <path d="M69.396 21.4261H73.2907L75.9974 30.1652H76.0732L78.8046 21.4261H82.2682L77.6914 34.6238H74.0496L69.396 21.4261Z" fill="#333B42"/>
    <path d="M85.8475 24.2123H84.0518V21.5005H85.8475V19.9558C85.8475 17.3467 87.4145 16.1052 89.8166 16.1052C90.4234 16.1052 91.1316 16.1545 91.7133 16.2832V19.0684C91.3029 19.0083 90.8892 18.9744 90.4746 18.9668C89.8924 18.9668 89.4372 19.2202 89.4372 19.9292V21.5H91.7379V24.2118H89.4372V34.5725H85.8475V24.2123Z" fill="#333B42"/>
    <path d="M93.031 30.9255C93.031 28.1152 95.8125 26.7707 98.3908 26.7707H101.274V25.6564C101.274 24.4405 100.464 23.8321 98.9976 23.8321C97.658 23.8321 96.8485 24.3898 96.8485 25.1747V25.5805H93.6122V25.1747C93.6122 22.315 96.3932 21.1727 99.1241 21.1727C102.107 21.1727 104.888 22.2618 104.888 25.5297V31.7104C104.888 32.521 105.015 34.294 105.116 34.573H101.603L101.476 33.2305H101.4C100.288 34.573 98.9981 34.8516 97.4814 34.8516C94.8765 34.8516 93.031 33.4075 93.031 30.9255ZM101.274 29.76V29.0771H98.7697C97.4809 29.0771 96.6211 29.4829 96.6211 30.5971C96.6211 31.5601 97.3549 32.1172 98.7196 32.1172C100.717 32.1157 101.274 31.0774 101.274 29.76Z" fill="#333B42"/>
    <path d="M107.627 31.1277V16.512H111.242V30.6968C111.242 31.2795 111.496 31.7356 112.33 31.7356C112.81 31.7356 113.14 31.6863 113.645 31.6345V34.3956C112.936 34.5982 111.926 34.7757 111.066 34.7757C108.133 34.7757 107.627 32.6226 107.627 31.1277Z" fill="#333B42"/>
    <path d="M115.645 31.1277V16.512H119.261V30.6968C119.261 31.2795 119.514 31.7356 120.348 31.7356C120.829 31.7356 121.157 31.6863 121.663 31.6345V34.3956C120.955 34.5982 119.944 34.7757 119.084 34.7757C116.151 34.7757 115.645 32.6226 115.645 31.1277Z" fill="#333B42"/>
    <path d="M128.891 31L131.85 29.1264C132.634 30.6464 134.353 31.6345 136.299 31.6345C137.892 31.6345 139.485 31.0517 139.485 29.5825C139.485 28.3666 138.499 27.8603 137.235 27.5053L134.15 26.7199C131.748 26.1119 129.852 24.8463 129.852 21.8062C129.852 18.4116 132.786 16.2077 136.527 16.2077C139.612 16.2077 141.659 17.0952 143.05 19.4248L140.218 21.2742C139.41 19.9312 137.968 19.4007 136.401 19.4007C135.01 19.4007 133.72 19.9578 133.72 21.3763C133.72 22.5418 134.883 22.9974 136.249 23.3775L139.233 24.1373C141.583 24.7201 143.455 26.1386 143.455 29.1525C143.455 32.7754 140.193 34.8526 136.35 34.8526C133.113 34.8516 130.206 33.7368 128.891 31Z" fill="#333B42"/>
    <path d="M147.208 35.7632L148.143 33.9143C146.778 33.0786 145.843 31.6853 145.843 29.6584V26.7455C145.843 23.0477 148.927 21.1741 151.911 21.1741C152.775 21.1686 153.632 21.3233 154.44 21.6302L155.4 19.7567L156.867 20.4661L155.906 22.3658C157.221 23.278 158.106 24.7216 158.106 26.672V29.3838C158.106 33.0816 154.945 34.8802 152.012 34.8802C151.219 34.8839 150.428 34.7818 149.661 34.5765L148.675 36.4727L147.208 35.7632ZM149.762 30.7732L153.075 24.3143C152.715 24.1612 152.328 24.0837 151.937 24.0865C150.698 24.0865 149.535 24.7955 149.535 26.4674V29.7097C149.527 30.0771 149.604 30.4413 149.762 30.7732ZM154.415 29.6584V26.391C154.419 26.1044 154.367 25.8198 154.263 25.5528L151.052 31.8598C151.366 31.9442 151.688 31.9868 152.013 31.9865C153.252 31.989 154.415 31.2795 154.415 29.6584Z" fill="#333B42"/>
    <path d="M161.125 21.4261H164.664V23.6043H164.714C165.446 22.2869 167.242 21.1983 168.835 21.1983C169.189 21.1983 169.644 21.1983 169.998 21.2742V24.4918C169.512 24.4246 169.022 24.3916 168.532 24.3932C166.508 24.3932 164.739 25.4321 164.739 27.7878V34.5765H161.123L161.125 21.4261Z" fill="#333B42"/>
    <path d="M41.8441 23.5551C40.8377 10.377 31.1013 0.00247192 19.2779 0.00247192H4.04492C4.16138 2.52145 4.60813 5.01412 5.37368 7.41633H16.8748C27.8419 7.41633 37.3421 14.0103 41.8441 23.5551Z" fill="#A4A4A5"/>
    <path d="M40.4006 27.2085C40.2332 26.7352 40.0516 26.2682 39.8592 25.8082C39.6624 25.3333 39.4503 24.8664 39.2229 24.4075C35.0939 15.9952 26.6273 10.2138 16.8747 10.2138H0C0.708178 23.7951 11.6483 34.6194 24.9944 34.6194H41.8691C41.7385 32.0906 41.2439 29.594 40.4006 27.207" fill="#62914E"/>
  </g>
  <defs>
    <clipPath id="clip0_4764_1221">
      <rect width="170" height="36.4727" fill="white"/>
    </clipPath>
  </defs>
</svg>
