<?xml version="1.0" encoding="UTF-8"?>
<svg id="Layer_2" data-name="Layer 2" xmlns="http://www.w3.org/2000/svg" viewBox="0 0 1179.27 388.14">
  <defs>
    <style>
      .cls-1 {
        fill: #ea0029;
      }

      .cls-2 {
        fill: #fff;
      }

      .cls-3 {
        fill: #e54447;
      }

      .cls-4 {
        fill: #f7e01d;
      }

      .cls-5 {
        fill: #ffcd00;
      }
    </style>
  </defs>
  <g id="Layer_1-2" data-name="Layer 1">
    <g>
      <g>
        <path d="M276.89,165.81h5.47c.47-1.72,1.3-3.89,2.5-6.52,1.2-2.63,2.58-5.12,4.14-7.46s3.27-4.44,5.12-6.29c1.85-1.85,3.63-2.88,5.35-3.09,2.19-.26,4.48-.43,6.88-.51,2.39-.08,4.4-.12,6.02-.12h4.53v89.38c0,2.14-.4,3.84-1.21,5.12-.81,1.28-2.07,2.25-3.79,2.93-1.15.47-3.22.86-6.21,1.17-3,.31-5.22.52-6.68.62v5.55h52.34v-5.55c-1.67-.05-4-.39-6.99-1.02-3-.62-4.96-1.12-5.9-1.48-1.82-.78-3.1-1.89-3.83-3.32-.73-1.43-1.09-3.01-1.09-4.73v-88.67h4.54c2.09,0,4.36.05,6.81.16,2.45.1,4.49.26,6.11.47,1.72.26,3.51,1.29,5.36,3.09,1.85,1.8,3.56,3.89,5.13,6.29,1.51,2.29,2.88,4.73,4.11,7.3s2.08,4.8,2.54,6.68h5.39v-30.08h-96.64v30.08Z"/>
        <path d="M428.22,167.68c-3.28,0-6.9,1.09-10.86,3.28-3.96,2.19-7.55,5.39-10.78,9.61h-.39v-10.86l-1.09-1.09-25.62,1.72v5.16c1.56.1,3.02.3,4.38.59,1.35.29,2.53.74,3.52,1.36,1.35.94,2.41,2.19,3.16,3.75.75,1.56,1.13,3.15,1.13,4.76v47.52c0,1.87-.35,3.39-1.05,4.57s-1.79,1.99-3.24,2.46c-.94.31-2.04.52-3.32.62-1.28.1-2.51.21-3.71.31v5.16h40.62v-5.16c-1.51-.1-3.29-.29-5.35-.55-2.06-.26-3.74-.65-5.04-1.17-1.51-.57-2.62-1.43-3.32-2.58-.7-1.15-1.05-2.63-1.05-4.45v-44.84c2.29-3.65,5.08-6.46,8.36-8.44,3.28-1.98,6.14-2.97,8.59-2.97-.16.94-.33,1.88-.51,2.81-.18.94-.27,1.98-.27,3.12,0,1.82.77,3.49,2.3,5,1.54,1.51,3.76,2.27,6.68,2.27,2.71,0,4.71-1.03,6.02-3.09,1.3-2.06,1.95-4.41,1.95-7.07,0-3.59-1.03-6.46-3.09-8.59-2.06-2.13-4.73-3.2-8.01-3.2Z"/>
        <path d="M525.83,169.56h-28.61v5c2.13.26,4.39.98,6.76,2.15,2.37,1.17,3.55,2.43,3.55,3.79,0,1.25-.34,2.75-1.02,4.49-.68,1.74-1.2,3.11-1.57,4.1-3.13,8.12-5.96,15.16-8.49,21.12-2.53,5.96-4.97,11.72-7.31,17.29-2.23-5.83-5.38-13.59-9.43-23.3s-7.06-17.13-9.04-22.29c-.31-.78-.59-1.54-.82-2.26s-.35-1.25-.35-1.56c0-.78,1.09-1.47,3.28-2.07,2.19-.6,4.06-.92,5.63-.98v-5.47h-35.17v5.16c2.34.37,4.69,1.21,7.03,2.54s4.01,3.19,5,5.59c4.37,10.41,8.56,20.49,12.57,30.23,4.01,9.74,8.49,20.78,13.43,33.11-1.61,4.47-4.23,9.67-7.85,15.59-3.62,5.92-6.73,9.59-9.33,10.99-.52-.88-1.22-1.99-2.11-3.33-.89-1.34-1.72-2.4-2.5-3.18-.94-.98-2.01-1.78-3.2-2.4-1.2-.62-2.63-.93-4.3-.93-2.14,0-3.92.82-5.35,2.46-1.43,1.64-2.15,3.76-2.15,6.37s1.16,4.71,3.48,6.64c2.32,1.93,5.51,2.89,9.57,2.89,2.08,0,4.1-.38,6.05-1.13,1.95-.76,4.13-2.23,6.52-4.41,2.45-2.34,4.96-5.56,7.54-9.65,2.58-4.09,5.51-9.78,8.79-17.07,2.5-5.57,6.16-14.27,10.98-26.09,4.82-11.82,10.32-24.92,16.52-39.3,1.25-2.81,3.15-4.99,5.7-6.52,2.55-1.54,4.61-2.43,6.17-2.7v-4.84Z"/>
        <path d="M593.2,238.62c-1.98-1.82-4.18-3.25-6.6-4.3-2.42-1.04-4.83-1.61-7.23-1.72-1.67-.05-4.49-.21-8.48-.47-3.98-.26-7.12-.42-9.41-.47-2.14-.05-4.21-.13-6.21-.23-2.01-.1-3.76-.36-5.27-.78-1.56-.36-2.89-1.05-3.98-2.07s-1.64-2.49-1.64-4.41.65-3.36,1.95-4.45c1.3-1.09,2.55-1.85,3.75-2.27h9.45c7.29,0,13.68-2.34,19.18-7.03,5.49-4.69,8.24-10.42,8.24-17.19,0-2.6-.47-5.26-1.41-7.97-.94-2.71-2.37-5.18-4.3-7.42v-.47h18.12v-7.5h-26.88c-2.4-.73-4.75-1.33-7.07-1.8-2.32-.47-4.65-.7-6.99-.7-8.49,0-15.46,2.34-20.9,7.03-5.44,4.69-8.16,10.68-8.16,17.97,0,4.84,1.38,9.1,4.14,12.77,2.76,3.67,6.64,6.68,11.64,9.02v1.17c-3.96,1.67-6.91,3.66-8.87,5.98-1.95,2.32-2.93,4.86-2.93,7.62,0,2.19.42,4.02,1.25,5.51.83,1.48,1.93,2.77,3.28,3.87,1.2.94,2.63,1.76,4.3,2.46,1.67.7,3.28,1.29,4.84,1.76v1.09c-6.46.26-11.77,1.93-15.94,5-4.17,3.07-6.25,7.27-6.25,12.58,0,6.56,2.89,11.55,8.67,14.96,5.78,3.41,14.5,5.12,26.17,5.12,7.13,0,13.12-.68,17.97-2.03,4.84-1.36,9.01-3.26,12.5-5.7,3.28-2.4,5.73-5.22,7.34-8.48,1.61-3.26,2.42-6.73,2.42-10.43s-.6-6.8-1.8-9.3c-1.2-2.5-2.84-4.74-4.92-6.72ZM544.53,192.45c0-2.55.22-5.04.66-7.46.44-2.42,1.18-4.49,2.23-6.21,1.09-1.88,2.51-3.32,4.26-4.34,1.74-1.02,3.84-1.52,6.29-1.52,4.48,0,7.96,1.81,10.43,5.43,2.47,3.62,3.71,8.48,3.71,14.57,0,5.52-1.21,10.09-3.63,13.71-2.42,3.62-5.87,5.43-10.35,5.43-4.01,0-7.28-1.82-9.8-5.47-2.53-3.65-3.79-8.36-3.79-14.14ZM580.51,270.93c-4.4,2.94-10.43,4.41-18.09,4.41-4.43,0-8.18-.43-11.25-1.29-3.07-.86-5.52-1.97-7.34-3.32-1.93-1.41-3.28-2.94-4.06-4.61-.78-1.67-1.17-3.41-1.17-5.23,0-4.06,1.18-7.38,3.55-9.96,2.37-2.58,6.37-4.41,11.99-5.51,5.99,0,11.25.13,15.78.39,4.53.26,7.53.5,8.98.7,2.76.68,4.82,1.95,6.17,3.83,1.35,1.88,2.03,4.27,2.03,7.19,0,5.99-2.2,10.46-6.6,13.4Z"/>
        <path d="M679.59,238.54c-1.36-.88-2.38-1.96-3.09-3.24-.7-1.27-1.05-2.82-1.05-4.65v-103.84l-1.17-1.17-31.56,1.72v4.84c2.86.21,5.53.53,8.01.98,2.47.44,4.44,1.16,5.9,2.15,1.3.94,2.32,2.31,3.05,4.11.73,1.8,1.09,3.8,1.09,5.99v26.85c-2.5-1.41-5.47-2.56-8.93-3.48-3.46-.91-6.98-1.37-10.57-1.37-4.79,0-9.48,1.04-14.08,3.12-4.6,2.08-8.49,4.87-11.66,8.36-3.38,3.75-6.04,8.12-7.96,13.12s-2.89,10.29-2.89,15.86c0,6.09.9,11.67,2.69,16.72,1.79,5.05,4.23,9.38,7.29,12.97,3.02,3.54,6.57,6.29,10.65,8.24s8.31,2.93,12.68,2.93,8.31-.96,12.29-2.89c3.98-1.93,7.32-4.4,10.03-7.42l.62.16v7.19l1.18,1.09,26.95-1.72v-5.16c-1.56-.05-3.28-.16-5.16-.31s-3.31-.55-4.3-1.17ZM660.76,231.67c-1.87,2.19-4.17,4.19-6.9,6.02-2.73,1.82-6.17,2.73-10.33,2.73-3.9,0-7.27-.88-10.1-2.66-2.83-1.77-5.16-4.11-6.98-7.03-1.98-3.07-3.38-6.39-4.21-9.96-.83-3.57-1.25-7.54-1.25-11.91,0-5.47.56-10.46,1.68-14.96,1.12-4.5,2.64-8.22,4.56-11.13,2.03-3.02,4.35-5.34,6.98-6.95,2.62-1.61,5.5-2.42,8.62-2.42,2.7,0,5.07.43,7.09,1.29,2.03.86,3.8,1.94,5.3,3.24,1.4,1.3,2.57,2.73,3.51,4.3.93,1.56,1.61,3.02,2.03,4.38v45.08Z"/>
        <path d="M748.83,236.85c-3.36,2.17-7.36,3.26-11.99,3.26s-8.44-.87-11.72-2.62c-3.28-1.75-5.94-4.14-7.97-7.17-2.08-3.13-3.61-6.76-4.57-10.88-.96-4.12-1.45-8.72-1.45-13.78h51.02v-5.16c0-4.63-.59-8.93-1.76-12.89-1.17-3.96-2.96-7.4-5.35-10.31-2.5-3.07-5.76-5.49-9.77-7.27-4.01-1.77-8.83-2.66-14.45-2.66s-10.4,1.13-14.8,3.4c-4.4,2.27-8.09,5.25-11.05,8.95-3.07,3.85-5.4,8.19-6.99,13.01-1.59,4.82-2.38,9.73-2.38,14.73,0,5.57.74,10.86,2.23,15.86s3.74,9.38,6.76,13.12c3.02,3.75,6.86,6.72,11.52,8.91,4.66,2.19,10.09,3.28,16.29,3.28,7.03,0,13.25-1.82,18.67-5.47,5.42-3.65,9.74-8.54,12.97-14.69l-5.47-3.36c-3.12,5.65-6.37,9.57-9.73,11.74ZM717.03,180.12c3.62-4.54,8.16-6.82,13.63-6.82,3.28,0,5.96.75,8.05,2.26,2.08,1.51,3.72,3.45,4.92,5.84,1.09,2.23,1.89,5.01,2.38,8.33.49,3.32.74,6.44.74,9.35h-35.62c.31-8.1,2.28-14.42,5.9-18.97Z"/>
        <path d="M820.82,167.68c-3.28,0-6.9,1.09-10.86,3.28-3.96,2.19-7.55,5.39-10.78,9.61h-.39v-10.86l-1.09-1.09-25.62,1.72v5.16c1.56.1,3.02.3,4.38.59,1.35.29,2.53.74,3.52,1.36,1.35.94,2.41,2.19,3.16,3.75.75,1.56,1.13,3.15,1.13,4.76v47.52c0,1.87-.35,3.39-1.05,4.57s-1.79,1.99-3.24,2.46c-.94.31-2.04.52-3.32.62-1.28.1-2.51.21-3.71.31v5.16h40.62v-5.16c-1.51-.1-3.29-.29-5.35-.55-2.06-.26-3.74-.65-5.04-1.17-1.51-.57-2.62-1.43-3.32-2.58-.7-1.15-1.05-2.63-1.05-4.45v-44.84c2.29-3.65,5.08-6.46,8.36-8.44,3.28-1.98,6.14-2.97,8.59-2.97-.16.94-.33,1.88-.51,2.81-.18.94-.27,1.98-.27,3.12,0,1.82.77,3.49,2.3,5,1.54,1.51,3.76,2.27,6.68,2.27,2.71,0,4.71-1.03,6.02-3.09,1.3-2.06,1.95-4.41,1.95-7.07,0-3.59-1.03-6.46-3.09-8.59-2.06-2.13-4.73-3.2-8.01-3.2Z"/>
        <path d="M891.08,236.85c-3.36,2.17-7.36,3.26-11.99,3.26s-8.44-.87-11.72-2.62c-3.28-1.75-5.94-4.14-7.97-7.17-2.08-3.13-3.61-6.76-4.57-10.88-.96-4.12-1.45-8.72-1.45-13.78h51.02v-5.16c0-4.63-.59-8.93-1.76-12.89-1.17-3.96-2.96-7.4-5.35-10.31-2.5-3.07-5.76-5.49-9.77-7.27-4.01-1.77-8.83-2.66-14.45-2.66s-10.4,1.13-14.8,3.4c-4.4,2.27-8.09,5.25-11.05,8.95-3.07,3.85-5.4,8.19-6.99,13.01-1.59,4.82-2.38,9.73-2.38,14.73,0,5.57.74,10.86,2.23,15.86s3.74,9.38,6.76,13.12c3.02,3.75,6.86,6.72,11.52,8.91,4.66,2.19,10.09,3.28,16.29,3.28,7.03,0,13.25-1.82,18.67-5.47,5.42-3.65,9.74-8.54,12.97-14.69l-5.47-3.36c-3.12,5.65-6.37,9.57-9.73,11.74ZM859.28,180.12c3.62-4.54,8.16-6.82,13.63-6.82,3.28,0,5.96.75,8.05,2.26,2.08,1.51,3.72,3.45,4.92,5.84,1.09,2.23,1.89,5.01,2.38,8.33.49,3.32.74,6.44.74,9.35h-35.62c.31-8.1,2.28-14.42,5.9-18.97Z"/>
        <path d="M1001.78,238.78c-2.81,0-5.05-.39-6.72-1.17-1.67-.78-2.92-1.93-3.75-3.44-.89-1.61-1.45-3.5-1.68-5.66-.23-2.16-.35-4.86-.35-8.09v-43.05h21.95v-7.5h-22.11v-23.98h-14.22v23.98h-35.9v-23.98h-14.22v23.98h-14.22v7.5h13.91v52.19c0,5.94,1.31,10.53,3.95,13.79,2.63,3.25,7.17,4.88,13.63,4.88,4.38,0,8.07-.48,11.09-1.45,3.02-.96,6.22-2.15,9.61-3.55v-5.7c-1.04.37-2.83.66-5.35.9-2.53.23-4.44.35-5.74.35-2.81,0-5.05-.39-6.72-1.17-1.67-.78-2.92-1.93-3.75-3.44-.89-1.61-1.45-3.5-1.68-5.66-.23-2.16-.35-4.86-.35-8.09v-43.05h35.43v52.19c0,5.94,1.31,10.53,3.95,13.79,2.63,3.25,7.17,4.88,13.63,4.88,4.38,0,8.07-.48,11.09-1.45,3.02-.96,6.22-2.15,9.61-3.55v-5.7c-1.04.37-2.83.66-5.35.9-2.53.23-4.44.35-5.74.35Z"/>
        <path d="M1070.57,236.85c-3.36,2.17-7.36,3.26-11.99,3.26s-8.44-.87-11.72-2.62c-3.28-1.75-5.94-4.14-7.97-7.17-2.08-3.13-3.61-6.76-4.57-10.88-.96-4.12-1.45-8.72-1.45-13.78h51.02v-5.16c0-4.63-.59-8.93-1.76-12.89-1.17-3.96-2.96-7.4-5.35-10.31-2.5-3.07-5.76-5.49-9.77-7.27-4.01-1.77-8.83-2.66-14.45-2.66s-10.4,1.13-14.8,3.4c-4.4,2.27-8.09,5.25-11.05,8.95-3.07,3.85-5.4,8.19-6.99,13.01-1.59,4.82-2.38,9.73-2.38,14.73,0,5.57.74,10.86,2.23,15.86s3.74,9.38,6.76,13.12c3.02,3.75,6.86,6.72,11.52,8.91,4.66,2.19,10.09,3.28,16.29,3.28,7.03,0,13.25-1.82,18.67-5.47,5.42-3.65,9.74-8.54,12.97-14.69l-5.47-3.36c-3.12,5.65-6.37,9.57-9.73,11.74ZM1038.77,180.12c3.62-4.54,8.16-6.82,13.63-6.82,3.28,0,5.96.75,8.05,2.26,2.08,1.51,3.72,3.45,4.92,5.84,1.09,2.23,1.89,5.01,2.38,8.33.49,3.32.74,6.44.74,9.35h-35.62c.31-8.1,2.28-14.42,5.9-18.97Z"/>
        <path d="M1175.48,240.97c-.91-.21-1.99-.57-3.24-1.09-1.51-.62-2.58-1.5-3.2-2.62-.62-1.12-.94-2.59-.94-4.41v-40.08c0-7.66-1.79-13.79-5.35-18.4-3.57-4.61-9.05-6.91-16.45-6.91-3.33,0-6.33.42-8.98,1.25-2.66.83-4.95,1.88-6.88,3.12-1.67,1.09-3.44,2.51-5.31,4.26-1.88,1.75-3.44,3.24-4.69,4.49h-.39v-10.86l-1.09-1.09-25.62,1.72v5.16c1.56.1,3.02.3,4.38.59,1.35.29,2.53.74,3.52,1.36,1.35.94,2.41,2.15,3.16,3.63.75,1.48,1.13,3.11,1.13,4.88v47.52c0,1.87-.35,3.39-1.05,4.57s-1.79,1.99-3.24,2.46c-.94.31-2.04.52-3.32.62-1.28.1-2.51.21-3.71.31v5.16h37.73v-5.16c-1.36-.1-2.67-.29-3.95-.55-1.28-.26-2.46-.65-3.55-1.17-1.46-.62-2.55-1.51-3.28-2.66-.73-1.15-1.09-2.6-1.09-4.38v-44.3c.47-.83,1.21-1.94,2.23-3.32,1.02-1.38,2.39-2.67,4.11-3.87,1.77-1.25,3.81-2.3,6.11-3.16,2.3-.86,4.83-1.29,7.6-1.29,3.71,0,6.85,1.48,9.44,4.45s3.88,7.19,3.88,12.66v39.61c0,1.88-.35,3.4-1.05,4.57s-1.79,1.99-3.24,2.46c-.94.31-2.12.52-3.55.62-1.43.1-2.75.21-3.95.31v5.16h37.66v-5.16c-1.62-.1-2.88-.26-3.79-.47Z"/>
      </g>
      <g>
        <path d="M183.04,70.44c-7.28-.73-14.17-.59-21.55-.24l-1.42,10.85c10.55,2.2,20.91,5.52,29.51,12.61.2-1.42.78-2.93,2.05-3.91.64-3.18,1.27-6.45,1.71-9.67.19-1.52.54-2.98.39-4.54-.34-1.27-1.42-2.54-2.64-3.13-2.49-1.17-5.38-1.56-8.06-1.95M35.43,69.9c-2.98.44-6.11.83-8.7,2.25-1.27.73-2.25,2.05-2.25,3.52.34,4.64,1.22,9.09,2.05,13.58,1.32.93,1.81,2.49,2.05,3.86,8.5-7.04,18.62-10.21,29.17-12.41l.05-.1c-.49-3.47-.88-7.09-1.42-10.8-7.09-.34-13.83-.44-20.96.1ZM136.33,67.36c-7.38.44-14.12,1.22-21.26,2.54l-.29,6.99c11.58-.05,22.97.68,34.3,2.1.29-1.81.49-3.61.64-5.47.15-.78.05-1.66-.19-2.39-1.47-3.18-5.18-3.76-8.36-3.76-1.66-.1-3.32.2-4.84,0ZM81.5,67.21c-3.66.05-7.87-.64-11,1.27-1.32.88-2.35,2.1-2.39,3.71l.49,6.25.15.34c10.99-1.52,23.01-1.91,34.35-1.95l-.19-6.84-.15-.19c-7.04-1.22-14.07-2.3-21.26-2.59ZM114.1,0v9.7h9.55v9.65h-9.68v13.17c.54.44,1.3.44,1.88.83,6.11,2.78,10.26,9.24,9.87,16.03-.24,4.74-2.3,9.09-6.01,12.31,8.21-1.03,16.66-2,25.26-2,4.79.15,9.38.68,13.44,2.83,2.78-.15,5.28-.39,8.01-.49,10.46-.39,21.01,0,30.64,2.79,3.13.98,6.74,3.22,7.18,6.84.29,3.27-.69,6.35-1.22,9.53-.44,2.49-1.12,4.89-1.56,7.33.93.44,2.1.54,3.08.98.29.24,1.32.15.78.88-4.25,14.9-8.21,29.68-10.46,45.42h22.87c.05,5.13-.39,10.24-.49,15.27-.49,12.61-1.17,25.31-2.15,37.87l-1.32,15.34c-3.91,38.6-10.7,76.76-30.49,109.16-8.84,14.9-20.57,27.41-32.93,40.26-12.9,12.75-26.83,25.07-42.07,34.45-6.3-3.91-12.07-8.5-17.93-13-12.95-10.02-24.53-21.99-35.57-34.16-12.07-13.44-21.89-27.9-29.07-43.59-6.74-14.56-11.48-29.95-14.9-45.83l-2.59-13.1-1.86-11.97-1.95-16.17-1.27-13.29c-.68-7.72-1.12-15.25-1.61-23.16l-.98-20.43-.54-18.2h22.82s.29-.12.15-.22c-.93-6.7-2.2-13.29-3.57-19.79l-3.18-13.34c-1.08-4.2-2.25-8.4-3.47-12.61,1.17-.59,2.64-.93,3.96-1.32-1.03-4.94-2.1-9.97-2.74-15-.34-2.93,1.37-5.67,3.81-7.23,5.28-2.88,11.68-3.27,17.69-3.96,8.11-.49,16.13-.24,24.14.44,8.11-4.11,18.37-2.59,27.41-2,3.81.39,7.62.98,11.34,1.42-5.33-4.49-7.33-12.07-5.03-18.52,1.52-4.69,6.11-9.04,10.7-10.55l.15-.24v-13.09h-9.43c-.05-2.98-.05-6.28,0-9.55h9.55V0h9.8Z"/>
        <path class="cls-5" d="M112.73,1.49c-.05,3.08-.05,6.47,0,9.65h9.58v6.72c-3.08.05-6.5,0-9.63,0v14.46c-1.32-.05-2.83-.24-4.25-.24-.98,0-1.9.2-2.88.34l-.05-.34v-14.17h-9.33v-6.79c2.93-.1,6.28.15,9.41-.05V1.44c2.35.05,4.86,0,7.16.05"/>
        <path class="cls-5" d="M112.68,33.74c-.34.93-1.03,1.81-1.47,2.74l-.05,11.73h13.1c.05,1.27-.1,2.56-.29,3.79h-29.81c-.2-1.17-.34-2.52-.29-3.79h12.83v-11.83c-.44-.88-1-1.71-1.34-2.69,2.35-.59,4.93-.49,7.33.05"/>
        <path class="cls-5" d="M105.79,36.96l-.05,10.16c-3.86.05-7.97.05-11.78,0,.39-5.37,4.35-10.65,9.38-12.66.34-.05.88-.78,1.08-.15l1.37,2.64"/>
        <path class="cls-5" d="M123.97,45.56l.29,1.61c-4.01.1-8.11-.05-12.07,0l.05-10.46,1.61-2.64c4.94,1.61,9.24,6.35,10.12,11.48"/>
        <path class="cls-5" d="M123.67,53.01c-1.27,5.23-6.2,9.7-11.34,10.78-5.13,1.27-10.7-.44-14.27-4.45-1.61-1.91-3.08-3.93-3.57-6.33l29.12.02.05-.02"/>
        <path class="cls-5" d="M102.91,64.33c-.05,1.42.05,2.74.05,4.15-9.48-1.56-19.1-3.13-28.73-2.59-2.79.44-5.91,1.47-7.13,4.35-.64,1.76.05,3.81,0,5.62l.93,9.68c-2.64-.2-5.57-.24-7.72,1.27l-.15-.29c-.78-5.81-1.86-11.58-2.49-17.44-.1-2.05,1.02-4.1,2.88-5.23,5.03-3.18,11.87-2.74,17.79-2.59,8.36.24,16.56,1.42,24.58,3.08"/>
        <path class="cls-5" d="M151.33,61.93c2.39.34,4.74,1.12,6.74,2.69,1.81,1.37,2.54,3.62,2.1,5.91l-2.49,16.71c-.59-.24-1.07-.59-1.61-.83-1.76-.73-4.3-.68-6.25-.44.39-4.79,1.07-9.33,1.32-14.12-.2-2.79-2.93-4.59-5.33-5.33-2.49-.69-5.28-.49-8.01-.54-7.87.1-15.3,1.37-22.77,2.49-.24-.54.1-1.27,0-2,.05-.73,0-1.42.05-2.1,10.75-2.2,21.65-3.32,33.03-2.93,1.03.15,2.2.24,3.23.49"/>
        <path class="cls-5" d="M58,63.99c-.83,1.42-1.66,2.79-1.56,4.54-5.67-.19-11.34-.49-17.1-.19-3.86.1-7.87.64-11.43,1.71-2.15.73-4.45,2.35-4.79,4.74,0,3.42.78,6.89,1.37,10.16l.59,3.27c-2-.88-4.35-.88-6.5-.64-1.12-4.84-2.1-9.92-2.79-14.85,0-2.83,2.3-5.23,4.84-6.3,6.45-2.64,13.54-2.83,20.62-3.18,5.72-.1,11.14.29,16.76.73"/>
        <path class="cls-5" d="M195.6,66.23c2.93.83,6.65,3.03,6.84,6.5.19,1.56-.34,2.98-.49,4.45-.64,3.76-1.52,7.43-2.3,11.14-2.1-.39-4.74-.24-6.55.54.68-4.35,1.76-8.7,2.1-13.19-.24-2.59-2.78-4.5-5.08-5.13-8.31-2.4-17.2-1.96-25.8-1.76l-2.83.1c.05-1.76-.69-3.18-1.56-4.54,10.7-1.03,21.89-1.03,32.1.93l3.57.98"/>
        <path class="cls-5" d="M113.56,64.82c.24,1.61-.2,3.27-.05,5.13-.1,4.84-.34,9.63-.73,14.46-2.44-.73-5.38-.73-7.87.05-.54-6.65-.73-13.14-.64-19.74,3.08.78,6.16.78,9.29.1"/>
        <path class="cls-5" d="M115.32,88.22c2.39,4.4-2,7.82-3.91,11.29.34.78.83,1.56,1.32,2.3,1.37-.93,2.35-2.3,3.86-3.18,1.76-1.27,3.76-2.74,6.06-2,3.03,1.76,3.81,5.33,3.47,8.7-.24,2.3-1.32,4.74-3.57,5.62-3.96,1.03-6.89-2.69-9.53-5.13l-.69-.64c-.68.69-1.07,1.61-1.61,2.4,2.15,4.2,3.96,8.55,6.99,12.36,2.44,1.47,5.33,1.56,8.16,1.95,3.91.24,8.06.29,11.87-.15,2.05-.24,4.11-.64,5.86-1.71,2.25-2.64,3.42-5.81,5.03-8.79l1.27-2.79c-.54-.78-1.03-1.71-1.61-2.49-2.25,2.64-4.98,5.28-8.6,5.42-1.32,0-2.49-.88-3.27-1.91-1.61-2.83-1.52-6.74-.49-9.82.69-1.95,2.79-2.93,4.79-2.88,3.08.88,5.57,3.47,7.92,5.72l.15-.05,1.12-2.64c-2.15-3.13-6.01-6.6-3.52-10.7,1.86-2.59,5.57-2.49,8.4-2,1.71.49,3.66,1.81,4.06,3.66.64,3.47-1.71,6.45-4.06,8.94l1.12,2.74h.24c2.98-2.35,6.11-5.37,10.11-4.35,2.64,1.32,3.18,4.35,3.23,7.04-.05,2.78-1.76,5.37-4.3,6.5-3.86,1.32-6.45-2.35-8.89-4.84-.24-.29-.44-.64-.78-.93-.64.68-1.08,1.61-1.56,2.39,1.95,3.81,3.81,7.57,6.35,11.09,1.52,1.71,3.76,1.91,5.91,2.3,6.11.93,12.85.88,18.81-.54.98-.39,2.2-.54,2.83-1.56,2.2-3.03,3.91-6.21,5.67-9.38-.34-.88-.88-1.61-1.32-2.44h-.24c-2.3,2.1-4.79,3.91-7.67,4.64-2.1.24-4.11-.54-5.18-2.3-1.61-3.18-1.27-7.43.39-10.51,1.37-1.95,3.96-2,5.96-1.42,2.83,1.03,5.03,3.47,6.99,5.82.69-.73,1.32-1.47,2-2.25-2-2.83-4.74-6.35-2.83-9.97,1.95-2.93,6.16-2.69,9.14-1.95.98.2,1.95.59,2.88.93l-2.69,8.99-3.71,14.32c-1.66,7.13-3.03,14.32-4.15,21.45H24.77c-.39-1.76-.59-3.86-.93-5.52-2.2-13.49-5.33-26.92-9.28-39.87,3.52-1.27,8.11-2.44,11.29.34,1.03,1.12,1.56,2.54,1.27,4.11-.49,2.54-1.95,4.54-3.52,6.55l1.91,2.35h.15c1.95-2.35,4.01-4.54,6.69-5.77,1.52-.49,3.52-.59,4.89.34,2.59,1.95,2.59,5.52,2.49,8.45-.24,2.05-1.22,4.25-3.23,5.03-1.76.83-3.76.39-5.33-.49-1.86-1.03-3.66-2.44-5.18-3.91l-.15.05-1.47,2.35c1.52,3.08,3.27,6.06,5.13,8.94.93,2.1,3.27,2.05,5.03,2.59,6.45,1.22,13.78,1.22,20.23-.49,3.18-.88,4.06-4.4,5.91-6.79l3.08-5.67c-.44-.88-.98-1.66-1.47-2.49-2.69,2.74-5.47,6.74-9.67,5.86-2.54-.93-4.3-3.76-4.35-6.45-.05-2.59.44-5.18,2.49-6.94,1.56-.88,3.47-.44,4.98.1,2.2,1.03,4.06,2.64,5.96,4.11l.15-.1,1.07-2.64c-2.39-2.83-5.57-6.5-3.42-10.31,1.9-2.69,5.57-2.93,8.5-2.35,1.37.24,2.78,1.03,3.47,2.39.54,1.27.93,3.08.19,4.4-.88,2.15-2.54,3.96-3.91,5.91.39.88.64,1.91,1.17,2.74,2.3-2.15,4.5-4.49,7.33-5.57.98-.29,2,.1,2.93.29,3.03,1.22,3.27,4.74,3.23,7.72-.2,2.35-.73,4.98-3.08,6.06-4.15,1.47-7.43-2.1-9.97-5.08h-.1l-1.56,2.54c1.66,3.66,3.32,7.38,5.47,10.85,1.03,1.37,2.64,1.66,4.15,2.05,6.79,1.27,14.66,1.12,21.35-.59,2.39-.83,2.98-3.57,4.3-5.42l3.76-7.57c-.44-.83-.98-1.61-1.47-2.4-2.74,2.54-5.57,6.4-9.72,5.82-2.49-.78-3.81-3.37-4.01-5.86-.29-3.13.44-6.65,3.27-8.45,2.25-1.03,4.5.54,6.3,1.86,1.42.98,2.44,2.2,3.76,3.27.49-.78.98-1.56,1.27-2.39-2.05-3.57-6.45-7.53-3.27-11.87,2.3-2.74,6.45-2.74,9.67-1.66,1.12.49,2.05,1.32,2.74,2.35"/>
        <path class="cls-1" d="M103.1,78.55l.1.15c.05,2.25.2,4.25.29,6.4-2.05,1.66-3.42,3.96-2.98,6.65.68,2.83,2.49,5.23,4.25,7.57-.1.2-.1.39-.24.49-2.35-2.2-4.79-4.3-7.87-4.84-1.95-.29-3.66,1.07-4.69,2.69-2,3.18-2.35,8.26-.29,11.58.88,1.66,2.59,3.13,4.49,3.18,3.57-.05,6.25-2.98,8.84-5.28.2.1.24.34.39.54-1.71,3.52-3.27,7.13-5.52,10.46-1.17,1.61-3.23,1.37-4.89,1.9-6.06,1.03-12.22.93-18.08-.29-3.32-.54-4.01-4.2-5.47-6.55l-2.25-5.18c.05-.15.15-.29.29-.44,2.44,2.78,5.62,5.33,9.53,4.64,2.69-.78,4.2-3.57,4.54-6.25.34-3.66.15-8.06-3.42-10.07-1.71-.98-4.15-.78-5.77.29-1.91,1.12-3.37,2.69-5.03,4.25-.68-.59.15-.98.39-1.47,2-2.69,4.59-5.72,3.37-9.28-.54-1.61-2.05-3.03-3.62-3.62-.29-.24-.15-.64-.24-.93-.15-1.47-.29-3.13-.39-4.69,11.04-1.42,22.33-2.15,33.77-1.95l.49.05"/>
        <path class="cls-1" d="M148.93,80.7c-.19,1.86-.15,3.71-.59,5.52-1.76.59-3.52,2.35-4.01,4.15-.78,3.96,2.2,6.84,4.25,9.77-.1.19-.1.39-.24.54-3.03-2.74-6.5-6.84-10.9-4.64-3.76,2.25-3.71,6.99-3.23,10.95.39,2.25,1.86,4.59,4.15,5.37,3.91.78,7.23-1.76,9.72-4.54.29.19.39.68.15.98-1.47,2.98-2.69,6.11-4.45,8.89-1.17,2.05-3.47,2.25-5.52,2.69-3.91.44-7.82.68-11.78.29-2.59-.29-5.42-.64-7.82-1.71-2.25-2.39-3.42-5.28-4.98-8.01l-1.52-3.23c.05-.24.2-.44.39-.59,3.13,2.59,6.5,6.74,10.95,4.79,2.93-1.86,4.01-5.28,3.86-8.6-.15-3.18-1.27-6.55-4.3-8.06-3.23-.78-6.01,1.32-8.45,3.23l-1.42,1.37-.34-.49c2.25-3.08,5.52-6.35,4.3-10.55-.54-1.42-1.61-2.64-2.83-3.62.1-2.15.29-4.35.34-6.6,5.13-.24,10.26.05,15.25.24,6.21.39,12.85,1.07,19.01,1.86"/>
        <path class="cls-1" d="M58.93,87.78c-1.56,1.71-1.9,4.1-1.17,6.2.73,2.2,2.35,4.15,3.86,5.82l-.29.68c-2.93-2.39-6.6-5.52-10.65-3.91-3.18,1.86-3.42,5.62-3.47,8.99.1.54.1,1.03.24,1.56.49,2.05,1.81,4.45,4.06,5.23,4.35,1.86,7.92-2,10.6-5.03.24.1.19.39.34.54-1.86,3.57-3.66,7.23-6.3,10.41-1.76,1.47-4.2,1.56-6.3,2-4.69.49-9.63.49-14.42-.29-1.81-.49-4.06-.59-5.13-2.59-1.66-2.44-2.98-5.08-4.4-7.67-.05-.29.15-.44.29-.68h.2c2.69,2.39,5.77,4.89,9.58,3.96,2.15-.44,4.15-2.59,4.59-4.69.73-3.03.49-6.25-.73-9.04-1.12-2.15-3.47-3.52-5.96-3.23-3.37.39-5.91,3.03-8.26,5.52-.2,0-.2-.24-.34-.39,1.17-1.86,2.49-3.62,3.13-5.77,8.45-7.43,18.81-11.09,29.66-13.05l.88,5.42"/>
        <path class="cls-1" d="M189.59,95.84c.68,2.1,1.95,3.96,3.23,5.81-.05.15-.1.34-.29.44-2.83-2.93-6.25-6.65-10.65-5.42-.93.24-1.66.73-2.44,1.27-2.64,2.98-2.93,7.28-2.05,11.04.54,2.05,2.35,4.01,4.4,4.49,3.81.98,7.18-1.66,10.07-3.96.64.49-.05,1.12-.19,1.61-1.61,2.79-2.98,5.72-5.33,8.11-3.32,1.47-6.84,1.66-10.55,1.76-4.59-.05-9.53-.1-13.63-1.81-2.1-1.56-2.98-4.01-4.3-6.11l-2.54-4.79.24-.73c2.64,2.83,5.72,6.69,9.92,5.37,2.93-.73,4.79-3.76,5.03-6.6.2-3.47-.1-7.52-3.37-9.38-4.01-1.66-7.67,1.32-10.6,3.81-.98-1.03.98-1.76,1.27-2.64,1.71-2.15,3.18-4.94,2.35-7.77-.19-.88-.78-1.56-1.27-2.25.24-1.81.64-3.67.98-5.42,10.9,2.05,21.16,5.72,29.76,13.14"/>
        <path class="cls-1" d="M216.22,137.01s-3.23,76.35-10.41,111.92c-5.52,26.78-14.81,52.09-30.88,74.42-15,19.74-33.72,38.46-53.31,53.75-4.45,3.32-8.7,6.45-13.34,9.19-4.54-2.54-8.65-6.16-12.9-9.09-14.02-10.51-27.12-23.41-38.99-36.65-11.19-12.46-20.77-25.9-27.71-40.41-11.48-23.75-17.64-49.64-21.16-76.57l-1.91-16.27c-2.39-23.26-3.42-47.18-4.01-70.29h214.61"/>
        <path d="M115.71,144.61c1.07-.78,2.54-.64,3.62,0,.78.83,1.52,1.91,1.17,3.18-.2.98-1.07,1.76-1.91,2.1-.39.2-.88.1-1.27.1-.1.68.34,1.37.93,1.81,1.47.59,3.18.78,4.74.98.64-.05,1.12-.49,1.56-.98-.59-.68-1.56-.98-1.95-1.86-.59-1.22-.05-2.59.78-3.52.88-.64,2.15-.54,3.13-.24.73-.64,1.66-1.22,2.64-1.22,1.17,0,2.25.59,2.88,1.51.39.44.2,1.47,1.12,1.27.68.19,1.47.54,1.76,1.22.44.69.39,1.47.24,2.25-.29.93-.93,1.86-1.9,2.1-.44.29-1.42-.44-1.32.49.34,1.86,2.49,1.37,3.81,1.91.88.1,1.95.49,2.59-.49l.05-.15c-.98-.73-1.66-1.81-1.42-3.03.1-.78.49-1.42,1.03-2,.93-.54,2.2-.88,3.23-.34.54.34.78.98,1.27,1.22,1.42-.59,3.32-.59,4.64-.05l-.1.34c-2.05,3.03-4.3,6.11-6.2,9.19,1.07.68,2.25,1.27,3.18,2.2-.05,1.95.29,4.35-1.51,5.67l-2.15,2.39c.1,9.87-2.59,18.96-6.89,27.22l-6.6,11.73c-1.42,2.59-1.81,5.72-1.86,8.7-1.02-.29-1.9-.98-2.98-1.22-.15,3.47-.29,6.6-.29,9.97l-.29,13.83c-.1,5.91-.2,11.53-.29,17.54,2.49,2.74,4.1,5.91,5.57,9.14l5.52,12.17c4.06,8.36,7.57,17.15,13.68,24.63,3.23,3.27,7.38,4.45,11.92,4.54,5.38-.34,10.41-3.42,13.05-8.21,3.32-7.72-1.56-14.95-4.94-21.45l-9.38-15.98c-4.89-9.28-10.8-21.11-4.79-31.66,3.18-5.57,8.84-9.97,13.78-13.92l19.3-14.81c6.99-5.62,13.29-13,13.19-22.28-.2-4.59-.68-8.94-3.96-12.22-3.57-3.71-8.6-5.28-13.59-4.25-3.81.98-7.77,4.25-8.36,8.31,0,.98.05,2.15.39,3.13,2,.39,4.25.39,6.11,1.22,2.2,2.69,3.52,5.91,4.54,9.19-.15,5.03-.88,9.97-2.35,14.61-.49.1-1.07.2-1.61.15-.2-.93-.05-2-.2-2.98-.44-2.98-.83-6.16-3.08-8.41.15,2.69.64,5.47-.68,7.92-1.95,2.54-4.79,4.74-7.28,6.65-6.69,5.23-13.78,9.63-19.1,16.47l-.39.59c-.68.05-1.12.1-1.76.05.54-4.1,2.54-7.67,4.54-11.24,3.66-5.96,8.21-11.73,12.61-17.25.1-1.12-.24-2.1-.44-3.08l-.2.05c-2.69,1.95-5.18,4.45-7.33,7.09-.39.1-.88.15-1.32.1.54-2.1,1.32-4.15,2.1-6.16,1.76-4.15,3.76-8.21,6.6-11.92-.29-4.74.78-9.33,3.52-13.05,4.4-5.91,11.19-8.21,18.37-8.01,7.58.73,15.3,5.52,17.69,13,2.35,6.65,2.39,14.41-.05,21.01-2,5.42-5.13,10.51-9.09,14.95v.15l-.49.34c-4.64,5.33-10.9,10.17-14.76,16.03l.15.1,3.08-.34c2.98.39,5.77,1.02,8.75,1.47,1.76-.1,3.52-.34,5.33-.44.19.34.34.78.29,1.12l-15.54,7.38c-3.08,1.51-6.16,3.08-9.24,4.45-.34.44-.39.98-.49,1.52,2.4-.39,4.84-.98,7.33-1.27l8.89,1.81,4.15-.29c.19.39.39.78.44,1.22-1.71.93-3.52,1.76-5.28,2.64-5.52,2.59-10.95,5.52-16.51,7.87-.24.39,0,.83-.1,1.27l.24.1,3.27-.34,8.31,1.86,4.06-.44c.44.24.49.83.54,1.32l-14.9,7.28-.1.24c.98,6.45,3.62,12.36,5.62,18.47,2.69,7.72,3.91,17.2-.39,24.63-4.4,7.62-12.9,11.58-21.5,11.48-8.31-.49-15.44-5.57-20.23-12.31l-10.55-15.44-.1.24c.15,4.49.24,9.04.44,13.58.39,4.64.59,9.28,2.1,13.54l2.54,3.37c.1,3.18-.2,6.3-1.27,9.04-.44.83-1.56,1.22-1.71,2.2-.54,8.99-2.44,18.23-1.81,27.46.15,1.37.24,2.69.64,3.96l-1.71,1.37-.2-.05c-1.27-1.32-2.69-2.54-4.3-3.42-.78-.34-1.42.24-2.05.49-1.27.98-2.59,1.61-3.47,2.98.73,1.9,1.27,3.91,1.86,5.81-.39.88-1.32,1.17-1.86,1.81l-2.3,1.47c-.29,2.25.24,4.4.88,6.45-.68.05-1.47.05-2.1-.29-1.86-3.03-4.06-5.96-4.11-9.77.2-2.05.73-4.15,1.12-6.16l-.05-.1c-1.86,1.9-3.62,3.71-5.57,5.23-1.66-.24-3.13-1.12-4.35-2.4-1.91.44-3.81.98-5.28,2.44h-.1l-.29-1.81c1.56-2.59,3.66-5.13,6.21-6.94,2.64-.59,5.33-1.03,8.06-1.37-2.44-1.66-5.38-2.54-7.87-4.2-.24-2,.24-4.01.68-5.91-1.17-1.91-3.22-2.93-4.93-4.2l2-1.08c3.52.29,6.45,1.95,9.28,3.91,1.66,2.4,2.88,5.03,4.2,7.62.39.78,1.37.15,2,.15.88-.24,1.71-.59,2.49-1.12.73-10.6-.49-21.84-2.64-32.1-1.81-2.88-4.35-5.52-6.55-8.21-2.73-3.08-5.47-6.4-8.4-9.14-2.1,2.64-4.3,5.33-5.57,8.36-.1,1.22-.05,2.49-.1,3.76-2.83,1.86-6.01,2.83-9.19,3.86-1.61-1.12-3.08-2.4-4.74-3.52-7.67-1.51-14.85-3.61-22.53-5.13-1.42-.15-3.03,0-4.4.44-.49-.54-1.07-1.22-1.12-1.95,1.17-1.03,2.25-1.81,3.13-3.03.15-2.25-1.37-3.86-2.39-5.67-1.52.24-2.83,1.12-4.35,1.42-3.37.05-6.89-.64-9.87-2.25l-.34-1.81c1.47.34,3.03.49,4.54.24.88-.49.78-1.51,1.17-2.3.2-.59.39-1.32,1.12-1.52l4.69-.1,2.05-.19v-.1c-2.4-1.71-5.23-2.35-7.82-3.57-.1-1.42.39-2.74,1.17-3.91-.39-1.03-1.47-1.56-2.34-2.25l-3.47-.78c.19-.64.83-1.12,1.32-1.56l6.35.34c1.76.78,3.66,1.37,5.18,2.64,1.66,2.15,2.88,4.35,4.35,6.55l.15-.34c.24-2.3.39-4.64.88-6.84,1.07-.73,2.59-.69,3.86-.98,1.12-1.81,1.47-4.15.98-6.35.68.2,1.42.59,1.95,1.08,1.52,3.71,1.91,8.4.44,12.17-1.22,1.95-2.83,3.52-4.3,5.28.39,2.15.98,4.15,1.56,6.21,1.86.24,4.01.34,5.96.59l13.44,1.17c-.39-1.61-1.61-3.13-1.51-4.94.78-8.5,2.49-16.42,5.13-24.19,5.37-3.91,11.53-6.11,17.59-8.5l.15-.2c-.34-4.3-1.52-8.5-2.54-12.66-1.71-3.08-4.69-5.47-6.89-8.16-.93-1.95-1.76-4.01-2.64-5.96l-2.39,2.59-13.09,14.95c-1.76,2.2-3.71,4.3-5.33,6.55-.59-.2-1.17-.69-1.56-1.17.29-1.17.29-2.44-.1-3.62-1.47-1.61-3.52-1.95-5.37-2.79-1.95,2.69-4.15,5.57-6.79,7.67-.78-.1-1.42-.39-2.25-.34l-.1.24-.39,13.83-.24.1c-2.05,0-3.62.1-5.67-.1,0-4.35.15-8.8.05-13-1.02.83-2.25,1.47-3.18,2.44h-.15l-.73-1.52c.44-1.61,1.17-3.08,1.95-4.54l2.3-2.74c.05-2.39.2-4.79.15-7.23-.54-.29-1.22-.29-1.81-.49l-1.9-4.74c-1.37-.49-2.93-.05-4.35.05-.29.1-.68.1-1.03.15.15-.73.44-1.42.69-2.15,1.51-.83,3.03-1.81,4.74-2.25l3.71-.05.15-.2.24-13.24c.05-3.91.1-8.01.19-11.97l.24-14.07-.05-.1c-.83.34-1.47.93-2.25,1.32-1.22-.44-2.44-.83-3.47-1.66-1.22.19-2.2,1.32-3.13,2.1l-.98,1.61h-.1l-.78-1.71c.69-2.98,2.25-5.72,4.2-8.11,2-1.52,4.3-2.4,6.6-3.32.2-.44.1-1.07.15-1.66-2-.49-4.54,0-6.16-1.52l-1.52-4.11c-1.76-.54-3.71-.88-5.67-.64.29-.68.83-1.42,1.37-2,2-.78,3.86-1.66,6.2-1.56,1.91.34,4.06.29,5.82,1.07l.15-.24.05-7.82v-3.03c-2.44-.24-4.98-.24-7.38.34-3.91,1.22-7.04,4.59-9.97,7.48-1.61,1.76-3.32,3.62-4.94,5.52-3.91-6.55-6.74-13.68-8.11-21.35-.93-5.62-1.61-11.63-.88-17.59l.05-.15c9.28,6.74,18.32,14.8,30.54,14.27.34-.05.83.2,1.03-.1v-4.25l.78-.05c1.76,0,3.57.1,5.37.05.1,1.42.15,2.93-.05,4.3l.19.19,2.3.1c-.05,3.57,0,7.53-.15,11.09-.88.1-1.61.1-2.49.15-.1,4.59-.2,8.7-.2,13.44.73-1.47,1.07-3.27,1.86-4.79.93-.98,2.49-.88,3.71-1.27.64-1.07,1.17-2.15,1.61-3.32l.24-2.64,1.56,1.47c.83,3.13.73,6.65.1,9.77-1.32,2-2.88,3.86-4.25,5.77.49.54,1.22.88,1.86,1.22.83.59,1.9.88,2.93.73.54.05,1.07-.2,1.56.05.34.68.59,1.42.78,2.2,5.33,2.88,10.75,5.47,16.17,8.11.49-.49.59-1.32,1.12-1.86,5.33-6.25,12.02-10.7,18.67-15.15,3.18-1.66,6.55-2.88,10.16-3.57l6.84-1.22c.44-.34.44-.88.59-1.37l-.29-.19c-3.52-.24-6.94-.29-10.46-.78.98-1.66,1.91-3.47,2.93-5.23-1.07-1.56-2.3-2.88-3.13-4.59l-.49-5.57c2.35-2.2,4.84-4.01,7.28-6.16.05-3.91-.59-7.92-.64-11.83,1.42.19,2.54,1.17,3.76,1.86"/>
        <path class="cls-5" d="M115.32,145.88c.44,0,.68-.59,1.12-.68.88-.15,1.9-.05,2.49.68.29.54.59,1.17.34,1.86-.24.64-.83,1.03-1.37,1.42-.59.05-1.12.05-1.61-.24-.24,0-.29.24-.39.39.34,1.12.34,2.39,1.22,3.27,2.1.73,4.45,1.37,6.65,1.27,1.22-.64,1.91-1.71,2.88-2.69.05-.19.1-.49-.15-.64-.54.24-1.32.44-1.86.1-.78-.44-1.22-1.32-1.12-2.2.29-.73.83-1.51,1.71-1.51.64-.05,1.12.39,1.66.59.64-.83,1.42-1.52,2.49-1.42.83.24,1.81.88,2,1.76.1.19-.05.49.15.59.83.05,1.76-.19,2.25.64.49.59.49,1.47.24,2.1-.24.73-1.03,1.07-1.71,1.37-.88.1-1.52-.54-1.95-1.12-.24.05-.39.29-.49.49.15,1.27.54,2.44,1.07,3.52,1.91.98,4.11,1.22,6.25,1.56,1.22-.2,2.1-1.32,3.13-2,.1-.05.05-.24.05-.39-.29-.29-.83,0-1.17-.24-.59-.2-1.02-.69-1.17-1.27-.1-.54,0-1.12.19-1.56.64-.54,1.12-1.12,2-1.03.88.15,1.61.88,1.86,1.66.49.15.88-.39,1.32-.44.54-.24,1.17-.29,1.76-.15-1.71,2.79-3.61,5.67-5.57,8.31-1.66.54-3.52.64-4.99,1.56.1.39.54.64.83.93,1.61-.24,3.03-1.51,4.74-.83.88.68,2.59,1.03,2.39,2.49.54,2.74-2.1,4.01-3.52,6.01.2,12.95-4.64,24.38-11.29,34.79-1.86,3.57-4.06,7.08-4.11,11.34-1.03-.29-1.95-1.03-2.93-1.27-.39,15.2-.59,29.22-.88,44.22,4.54,4.59,6.16,10.5,8.8,15.88l6.4,13.49c2.83,5.47,5.37,10.99,9.38,15.98,4.54,5.37,12.21,6.99,18.62,4.4,4.49-1.81,9.04-5.62,9.77-10.65.34-1.08.1-2.4.19-3.62-.1-.64-.19-1.42-.29-2.05-1.56-8.21-6.79-14.95-10.65-22.23-4.3-7.23-8.7-14.47-10.9-22.62-.49-2.2-.73-4.11-.73-6.55.19-.64,0-1.42.19-2.1,1.12-9.92,11.04-16.47,18.13-22.38l12.95-9.92c6.6-5.13,13.93-11.29,16.37-19.45,1.37-5.28,1.56-11.82-1.12-16.66-3.18-5.33-8.94-8.84-15.3-7.82-4.35.83-8.99,3.71-10.41,8.11-.54,1.81-.44,3.81.05,5.57,2.25.44,4.84.49,6.89,1.47,1.86,2.83,3.57,5.72,3.96,9.14-.39,4.1-.88,8.26-1.91,12.12-.1-4.59-1.32-8.99-4.45-12.36-.49-.1-.98-.24-1.47-.15l-.05.24c.64,3.03,1.07,6.35.15,9.38-3.42,4.4-8.11,7.23-12.26,10.41-4.79,3.57-10.02,7.62-13.63,12.21,1.81-6.5,6.06-12.12,10.12-17.69,2-2.83,4.3-5.52,6.3-8.36.34-2-.15-3.66-.54-5.52-2.98,1.56-5.57,4.3-7.82,6.79,1.86-5.47,4.25-10.8,8.11-15.49-.78-5.81,1.12-11.48,5.67-15.29,5.33-4.54,13.34-6.25,19.94-3.52,4.98,1.76,9.97,6.06,11.58,11.29,2.2,6.4,2.25,14.51-.44,20.72-2.49,6.99-7.67,13.14-13.14,18.57-4.59,4.74-9.33,8.89-12.66,14.37,1.91-.19,3.81-.68,5.62-.83,3.52.29,6.89,1.17,10.26,1.86l-3.23,1.52-17.98,8.55c-.44,1.32-1.07,2.59-1.12,4.01,2.83-.44,5.77-1.37,8.65-1.66l1.12.1,8.94,1.91-19.4,9.28c-.19,1.07,0,2.25.2,3.37,1.66.15,3.18-.73,4.98-.29,2.88.59,5.67,1.27,8.6,1.9-4.06,2.05-8.21,4.06-12.31,5.96,0,1.27.29,2.54.54,3.76,2.25,10.12,7.67,18.96,7.62,29.9-.54,7.43-4.4,14.76-11.58,18.08-5.96,3.03-13.68,3.62-19.84.59-4.69-2.1-8.84-6.16-11.68-10.55-3.67-5.47-7.48-10.75-10.95-16.37-.15-5.47-.15-10.75-1.61-15.98-.29-.88-.59-1.71-1.03-2.49h-.1l-.78,1.61c2.44,6.4,1.76,14.46,2.2,21.4.05,7.82.19,15.83,1.61,23.36.49,2.2,1.91,4.06,3.37,5.77.19,2.35-.34,4.59-.64,6.89-.44,1.17-1.56,1.86-2.25,2.88-.83,7.23-1.17,14.12-1.86,21.4-.24,3.66,0,7.08.34,10.65-1.71-1.22-3.32-3.03-5.37-3.37-2.25.93-4.2,2.64-6.21,4.25l.05.64c.49,2,1.42,3.76,1.81,5.77-1.07,1.27-2.54,1.86-3.96,2.64-.29,1.56-.05,3.08,0,4.64-1.42-2.05-2.69-4.2-2.93-6.74.19-2.2.54-4.4,1.02-6.55-.39-.64-1.02-1.56-1.9-1.42-1.56,1.71-3.23,3.47-4.98,4.94-1.66-.19-2.83-1.42-4.06-2.49-1.27.15-2.35.83-3.52,1.27,1.17-1.91,2.88-4.06,4.94-5.13,2.44-.59,4.84-.93,7.33-1.27.34-.68.44-1.52.29-2.2-2.3-1.32-4.79-2.25-6.99-3.76-.39-1.95.54-3.66.78-5.52-.98-1.27-2.2-2.59-3.47-3.47,2.88.24,5.42,1.81,7.62,3.66,1.47,2.59,2.83,5.23,4.35,7.82l.29.29c2.05-.1,3.91-.88,5.67-1.81l.29-.49c.73-11.43-.49-22.38-2.59-33.03-.49-1.32-1.56-2.35-2.44-3.52l-15-16.91c-1.22-1.57-2.49-3.13-3.13-4.94-1.03-4.3-1.27-9.14-1.12-13.68,4.1-6.25,11.29-10.12,15.2-16.61.88-1.56,1.81-3.13,2.2-4.89-.34-.29-.88-.15-1.37-.24-.39.59-.44,1.37-.78,2-3.08,7.33-10.6,11.29-15.44,17.4l-1.27,1.95c-.24,4.49.39,9.24,1.07,13.53.49,3.03,2.93,5.33,4.59,7.82-1.86,2.98-4.06,5.82-5.67,8.89-.39,1.17-.15,2.44-.2,3.71-.98.93-2.3,1.17-3.42,1.76-1.37.44-2.64,1.03-4.06,1.32-1.42-.88-2.64-2.05-3.86-3.18l-6.6-1.37-15.15-3.66c-1.86-.39-3.81-.64-5.67-.05,1.12-1.32,2.88-2.2,2.93-4.11-.88-2.3-1.76-4.59-3.22-6.6-2.1.2-3.81,1.76-6.01,1.76s-4.2-.49-6.2-1.17c1.03-.24,2.1-.24,3.03-.68.54-.98.49-2.05,1.03-3.03,2.1-.54,4.4-.34,6.69-.54.44-.73.73-1.47,1.03-2.25-2.39-1.52-5.18-2.1-7.62-3.57,0-1.27.64-2.4,1.47-3.32-.54-.88-1.52-1.37-2.25-2-.39-.2-.68-.59-1.03-.78l.24-.1c1.37.1,2.83.1,4.01.68l2.88,1.81c1.76,2.15,3.61,4.35,4.79,6.79.78.15,1.52-.15,2.25-.29.64-2.3.24-4.74.88-6.99,1.27-.34,2.54-.68,3.81-.68l.29-.34.93-3.18c1.03,2.69.68,5.82-.24,8.45-1.32,2.05-2.93,3.91-4.64,5.77.78,2.4,1.42,4.89,1.86,7.38,1.95.29,3.76.39,5.81.59,5.77.49,11.24,1.08,16.86,1.52l.1-.1c-.88-1.86-1.66-3.71-2.05-5.72.64-8.26,2.15-16.42,4.94-23.94,5.52-3.66,11.73-5.91,17.74-8.41.24-1.03.1-2.2-.1-3.18-.68-3.86-1.37-7.82-2.64-11.48-1.76-3.13-4.64-5.47-6.84-8.26-.83-2.1-2-4.01-2.39-6.25l.1-.29,12.8-14.51,1.32-1.56c-.1-.44-.64-.78-.88-1.12l-.39.34-17.35,19.64-17.39,20.28-.34.39-.1-.1c.1-1.51-.24-2.98-1.27-4.1-2-1.03-4.06-2-6.25-2.59-1.86,2.74-3.91,5.77-6.6,7.87-1.07-.1-2.15-.44-3.18-.68l-.29,14.71-3.57-.05c.05-4.69,0-9.09.19-13.88-.63-.05-1.32.39-1.9.68-.64.29-1.12.93-1.76,1.32.34-2.3,2.4-3.86,3.76-5.67.05-2.35,0-4.69.15-6.99-.1-.59.15-1.32-.1-1.9l-1.95-.44c-.83-1.61-1.27-3.47-2.15-5.08-1.22-.29-2.44-.34-3.71-.39,1.22-.49,2.44-.98,3.76-1.27,1.52-.19,2.79.05,4.25-.1l.1-.24.05-6.94.34-17.84c.1-6.45.19-11.97.29-18.28l-.24.05-3.42,2.3c-1.17-.54-2.39-1.02-3.47-1.81-1.17.44-2.2,1.37-3.18,2.25.68-2.05,2-3.91,3.27-5.72,2.05-1.81,4.64-2.64,7.04-3.71.39-1.07.05-2.3.15-3.42-2.05-.15-4.1-.24-5.91-.98-.98-1.27-1.27-2.93-1.61-4.54-.39-.29-.93-.24-1.42-.39l-2.49-.54c.98-.64,2.35-.78,3.57-1.03,2.78.1,5.67.29,7.82,2.1l.15-.1c0-4.4.29-8.84.29-13.14,1.22-.05,2.39-.05,3.52,0,0,4.94-.1,10.12-.19,15.39.39.2,1.02.24,1.42.1,1.12-1.95,1.86-4.06,2.79-6.11,1.07-.34,2.2-.54,3.32-.73.83-1.03,1.32-2.2,1.86-3.32.83,1.66.1,3.57.05,5.42l-.44,1.76c-1.56,2.1-2.98,4.2-4.69,6.16v.24c1.51.93,3.03,1.81,4.59,2.54.88.15,1.76,0,2.69.1l.73,1.81c5.47,3.08,11.14,5.62,16.61,8.65-.83,4.01-1.17,8.21-1.76,12.31l-2.15-1.61-16.91-13.24c-1.03-.24-2.25,0-3.37-.1-.34-.15-.68-.39-.83-.73.24-.93.98-1.81,1.12-2.78-1.12-.93-2.49-1.42-3.76-2.1-.54.39-.98.88-1.37,1.37l-.15,1.86-.2,13.14c-.24,10.6-.34,22.43-.54,33.13,1.47,1.17,3.18,2.1,4.79,3.03.49-.59,1.95-.73,1.51-1.76l-2.05-5.42c.19-1.71,1.37-2.98,2.44-4.25.15-1.27-.49-2.44-.73-3.66,1.86,1.12,2.83,3.27,3.66,5.13l.19.73c.1,3.52.15,7.18.34,10.46,1.66,1.03,3.27,2,5.03,2.83l1.9-2.83,10.31-16.56,7.53-11.97v-.1c-2.3,0-4.2.69-6.45.34,1.47-5.91,1.47-12.61,3.47-18.32,2.79-4.64,7.77-8.01,12.02-11.24,4.4-2.93,8.45-6.5,13.63-7.57,3.47-.73,7.04-1.32,10.51-1.95.34-.24.64-.73.83-1.17.29-.93.64-1.81.78-2.83l-.24-.1c-3.32-.24-6.94-.1-10.11-.78l2.05-3.86c-1.12-1.61-2.15-3.32-3.22-4.94l-.15-1.52c.59-.54,1.32-1.07,1.9-1.66-.1-.29-.39-.59-.64-.78l-1.42.98c-.15-.54-.24-1.22-.15-1.91,2.25-1.9,4.59-3.96,7.04-5.67l5.33,1.12,13.93,3.18c.68-.15,1.27-.44,1.91-.68l-.29-.2c-7.04-1.42-13.68-3.13-20.72-4.54-.19-3.47-.44-6.65-.49-10.07.83.29,1.51.78,2,1.52"/>
        <path class="cls-2" d="M41.34,159.22c3.76.2,7.62.15,11.43.34l.1.05c-.1,2.69-.1,5.86-.24,8.65-4.49.05-9.14,0-13.29.05-5.57.68-9.28,5.13-13.34,9.04-1.03,1.12-1.95,2.25-3.03,3.27-4.3-8.11-7.28-16.86-7.91-26.44-.15-2.49-.39-5.37-.05-7.87,8.11,5.77,16.03,12.46,26.34,12.9"/>
        <path class="cls-4" d="M50.23,155.02c.15.98-.05,2,0,3.03l-3.66-.05c-.05-.98.05-1.95.05-2.93l.1-.15,3.52.1"/>
        <path d="M127.14,160.59v1.37l-5.91-1.61c-.24.98-.44,2.05-1.37,2.59-1.22.19-2.49.44-3.71.05-1.17-.78-.93-2.3-1.42-3.52-.98-.05-1.86.64-2.69,1.07-.34-.19-.64-.49-.59-.88l2.49-1.86c4.54.54,8.75,1.91,13.19,2.79"/>
        <path class="cls-3" d="M119.86,160.1c-.05.59-.1,1.22-.39,1.66-.78.44-1.81.44-2.54,0-.59-.59-.69-1.47-.59-2.2.05-.2.34-.05.49-.15l3.03.68"/>
        <path d="M140.24,164.3c.39,1.27-.73,2.1-1.51,2.83-.29-.54-.24-1.22-.44-1.86l-1.47-1.17c.05-.34.59-.24.83-.39l1.02-.24c.54.19,1.17.29,1.56.83"/>
        <path d="M98.02,167.92l8.26.78.88,1.37c-.93.1-1.91-.15-2.88-.19l-7.82-.73c-1.22-.29-2.3-1.07-3.37-1.76-.05-.39,0-.73.29-.98.29-.19.59-.05.83.1,1.17.78,2.35,1.42,3.81,1.42"/>
        <path d="M121.38,168.02c.44,1.32.68,2.74.88,4.15-3.47-.2-6.79-.34-10.21-.59l-1.12-3.91c.05-.15-.1-.29.1-.44,3.37.34,6.84.44,10.36.78"/>
        <path class="cls-3" d="M120.01,169.19c.34.44.39,1.03.49,1.56-2.64,0-4.69-.29-7.33-.39l-.49-1.47.15-.19,7.18.49"/>
        <path d="M104.81,194.16c0,.44-.15.88-.29,1.27l-11.04,1.71c-1.52.34-2.35,1.86-3.13,3.03l-5.42,8.65c-.39,0-.68-.39-1.12-.49l6.55-10.55c1.91-2.49,5.23-2.1,7.87-2.74,2.1-.34,4.4-.59,6.6-.88"/>
        <path class="cls-3" d="M53.26,196.01c0,.93-.83,1.61-1.07,2.44.29.88,1.22,1.17,1.76,1.91l3.13.05c3.76,2.49,7.04,5.38,10.65,8.06l8.84,7.23c-.2,1.61-.68,3.08-1.07,4.59l.15.19c1.66.05,3.57-.1,5.23-.19-1.61,3.03-3.52,5.91-5.33,8.79l-8.75,14.02c-1.12,1.61-2.05,3.37-3.23,4.94-1.17-.34-2.25-1.03-3.27-1.66l-.44-10.16c-.69-1.66-1.32-3.42-2.49-4.89l-2.93-2.69-1.76.15-.1.15c.83,1.52,1.47,3.08,1.66,4.79-1.37,1.42-2.05,3.08-2.54,4.89l.05.54c.83,1.86,1.56,3.76,2.3,5.67-1.27-.88-2.69-1.66-3.81-2.59l.19-14.61c.1-10.21.34-21.79.49-32.25l.54-.24,1.81.88"/>
        <path d="M53.31,250.06c.34.69.24,1.52.34,2.25v.24c-1.66.98-3.32,1.95-4.94,2.88-.15-1.95.1-3.71.05-5.77l.1-.1c1.56.1,2.98.34,4.45.49"/>
        <path class="cls-3" d="M52.14,251.13c.1.39.1.88-.1,1.17-.69.34-1.37.73-2.05,1.02-.05-.83-.05-1.61,0-2.39l.19-.1,1.95.29"/>
      </g>
    </g>
  </g>
</svg>