<svg id="Layer_2" data-name="Layer 2" xmlns="http://www.w3.org/2000/svg" height="109" width="329" viewBox="0 0 1179.27 388.14">
  <g id="Layer_1-2" data-name="Layer 1">
    <g>
      <g>
        <path d="M276.89,165.81h5.47c.47-1.72,1.3-3.89,2.5-6.52,1.2-2.63,2.58-5.12,4.14-7.46s3.27-4.44,5.12-6.29c1.85-1.85,3.63-2.88,5.35-3.09,2.19-.26,4.48-.43,6.88-.51,2.39-.08,4.4-.12,6.02-.12h4.53v89.38c0,2.14-.4,3.84-1.21,5.12-.81,1.28-2.07,2.25-3.79,2.93-1.15.47-3.22.86-6.21,1.17-3,.31-5.22.52-6.68.62v5.55h52.34v-5.55c-1.67-.05-4-.39-6.99-1.02-3-.62-4.96-1.12-5.9-1.48-1.82-.78-3.1-1.89-3.83-3.32-.73-1.43-1.09-3.01-1.09-4.73v-88.67h4.54c2.09,0,4.36.05,6.81.16,2.45.1,4.49.26,6.11.47,1.72.26,3.51,1.29,5.36,3.09,1.85,1.8,3.56,3.89,5.13,6.29,1.51,2.29,2.88,4.73,4.11,7.3s2.08,4.8,2.54,6.68h5.39v-30.08h-96.64v30.08Z"></path>
        <path d="M428.22,167.68c-3.28,0-6.9,1.09-10.86,3.28-3.96,2.19-7.55,5.39-10.78,9.61h-.39v-10.86l-1.09-1.09-25.62,1.72v5.16c1.56.1,3.02.3,4.38.59,1.35.29,2.53.74,3.52,1.36,1.35.94,2.41,2.19,3.16,3.75.75,1.56,1.13,3.15,1.13,4.76v47.52c0,1.87-.35,3.39-1.05,4.57s-1.79,1.99-3.24,2.46c-.94.31-2.04.52-3.32.62-1.28.1-2.51.21-3.71.31v5.16h40.62v-5.16c-1.51-.1-3.29-.29-5.35-.55-2.06-.26-3.74-.65-5.04-1.17-1.51-.57-2.62-1.43-3.32-2.58-.7-1.15-1.05-2.63-1.05-4.45v-44.84c2.29-3.65,5.08-6.46,8.36-8.44,3.28-1.98,6.14-2.97,8.59-2.97-.16.94-.33,1.88-.51,2.81-.18.94-.27,1.98-.27,3.12,0,1.82.77,3.49,2.3,5,1.54,1.51,3.76,2.27,6.68,2.27,2.71,0,4.71-1.03,6.02-3.09,1.3-2.06,1.95-4.41,1.95-7.07,0-3.59-1.03-6.46-3.09-8.59-2.06-2.13-4.73-3.2-8.01-3.2Z"></path>
        <path d="M525.83,169.56h-28.61v5c2.13.26,4.39.98,6.76,2.15,2.37,1.17,3.55,2.43,3.55,3.79,0,1.25-.34,2.75-1.02,4.49-.68,1.74-1.2,3.11-1.57,4.1-3.13,8.12-5.96,15.16-8.49,21.12-2.53,5.96-4.97,11.72-7.31,17.29-2.23-5.83-5.38-13.59-9.43-23.3s-7.06-17.13-9.04-22.29c-.31-.78-.59-1.54-.82-2.26s-.35-1.25-.35-1.56c0-.78,1.09-1.47,3.28-2.07,2.19-.6,4.06-.92,5.63-.98v-5.47h-35.17v5.16c2.34.37,4.69,1.21,7.03,2.54s4.01,3.19,5,5.59c4.37,10.41,8.56,20.49,12.57,30.23,4.01,9.74,8.49,20.78,13.43,33.11-1.61,4.47-4.23,9.67-7.85,15.59-3.62,5.92-6.73,9.59-9.33,10.99-.52-.88-1.22-1.99-2.11-3.33-.89-1.34-1.72-2.4-2.5-3.18-.94-.98-2.01-1.78-3.2-2.4-1.2-.62-2.63-.93-4.3-.93-2.14,0-3.92.82-5.35,2.46-1.43,1.64-2.15,3.76-2.15,6.37s1.16,4.71,3.48,6.64c2.32,1.93,5.51,2.89,9.57,2.89,2.08,0,4.1-.38,6.05-1.13,1.95-.76,4.13-2.23,6.52-4.41,2.45-2.34,4.96-5.56,7.54-9.65,2.58-4.09,5.51-9.78,8.79-17.07,2.5-5.57,6.16-14.27,10.98-26.09,4.82-11.82,10.32-24.92,16.52-39.3,1.25-2.81,3.15-4.99,5.7-6.52,2.55-1.54,4.61-2.43,6.17-2.7v-4.84Z"></path>
        <path d="M593.2,238.62c-1.98-1.82-4.18-3.25-6.6-4.3-2.42-1.04-4.83-1.61-7.23-1.72-1.67-.05-4.49-.21-8.48-.47-3.98-.26-7.12-.42-9.41-.47-2.14-.05-4.21-.13-6.21-.23-2.01-.1-3.76-.36-5.27-.78-1.56-.36-2.89-1.05-3.98-2.07s-1.64-2.49-1.64-4.41.65-3.36,1.95-4.45c1.3-1.09,2.55-1.85,3.75-2.27h9.45c7.29,0,13.68-2.34,19.18-7.03,5.49-4.69,8.24-10.42,8.24-17.19,0-2.6-.47-5.26-1.41-7.97-.94-2.71-2.37-5.18-4.3-7.42v-.47h18.12v-7.5h-26.88c-2.4-.73-4.75-1.33-7.07-1.8-2.32-.47-4.65-.7-6.99-.7-8.49,0-15.46,2.34-20.9,7.03-5.44,4.69-8.16,10.68-8.16,17.97,0,4.84,1.38,9.1,4.14,12.77,2.76,3.67,6.64,6.68,11.64,9.02v1.17c-3.96,1.67-6.91,3.66-8.87,5.98-1.95,2.32-2.93,4.86-2.93,7.62,0,2.19.42,4.02,1.25,5.51.83,1.48,1.93,2.77,3.28,3.87,1.2.94,2.63,1.76,4.3,2.46,1.67.7,3.28,1.29,4.84,1.76v1.09c-6.46.26-11.77,1.93-15.94,5-4.17,3.07-6.25,7.27-6.25,12.58,0,6.56,2.89,11.55,8.67,14.96,5.78,3.41,14.5,5.12,26.17,5.12,7.13,0,13.12-.68,17.97-2.03,4.84-1.36,9.01-3.26,12.5-5.7,3.28-2.4,5.73-5.22,7.34-8.48,1.61-3.26,2.42-6.73,2.42-10.43s-.6-6.8-1.8-9.3c-1.2-2.5-2.84-4.74-4.92-6.72ZM544.53,192.45c0-2.55.22-5.04.66-7.46.44-2.42,1.18-4.49,2.23-6.21,1.09-1.88,2.51-3.32,4.26-4.34,1.74-1.02,3.84-1.52,6.29-1.52,4.48,0,7.96,1.81,10.43,5.43,2.47,3.62,3.71,8.48,3.71,14.57,0,5.52-1.21,10.09-3.63,13.71-2.42,3.62-5.87,5.43-10.35,5.43-4.01,0-7.28-1.82-9.8-5.47-2.53-3.65-3.79-8.36-3.79-14.14ZM580.51,270.93c-4.4,2.94-10.43,4.41-18.09,4.41-4.43,0-8.18-.43-11.25-1.29-3.07-.86-5.52-1.97-7.34-3.32-1.93-1.41-3.28-2.94-4.06-4.61-.78-1.67-1.17-3.41-1.17-5.23,0-4.06,1.18-7.38,3.55-9.96,2.37-2.58,6.37-4.41,11.99-5.51,5.99,0,11.25.13,15.78.39,4.53.26,7.53.5,8.98.7,2.76.68,4.82,1.95,6.17,3.83,1.35,1.88,2.03,4.27,2.03,7.19,0,5.99-2.2,10.46-6.6,13.4Z"></path>
        <path d="M679.59,238.54c-1.36-.88-2.38-1.96-3.09-3.24-.7-1.27-1.05-2.82-1.05-4.65v-103.84l-1.17-1.17-31.56,1.72v4.84c2.86.21,5.53.53,8.01.98,2.47.44,4.44,1.16,5.9,2.15,1.3.94,2.32,2.31,3.05,4.11.73,1.8,1.09,3.8,1.09,5.99v26.85c-2.5-1.41-5.47-2.56-8.93-3.48-3.46-.91-6.98-1.37-10.57-1.37-4.79,0-9.48,1.04-14.08,3.12-4.6,2.08-8.49,4.87-11.66,8.36-3.38,3.75-6.04,8.12-7.96,13.12s-2.89,10.29-2.89,15.86c0,6.09.9,11.67,2.69,16.72,1.79,5.05,4.23,9.38,7.29,12.97,3.02,3.54,6.57,6.29,10.65,8.24s8.31,2.93,12.68,2.93,8.31-.96,12.29-2.89c3.98-1.93,7.32-4.4,10.03-7.42l.62.16v7.19l1.18,1.09,26.95-1.72v-5.16c-1.56-.05-3.28-.16-5.16-.31s-3.31-.55-4.3-1.17ZM660.76,231.67c-1.87,2.19-4.17,4.19-6.9,6.02-2.73,1.82-6.17,2.73-10.33,2.73-3.9,0-7.27-.88-10.1-2.66-2.83-1.77-5.16-4.11-6.98-7.03-1.98-3.07-3.38-6.39-4.21-9.96-.83-3.57-1.25-7.54-1.25-11.91,0-5.47.56-10.46,1.68-14.96,1.12-4.5,2.64-8.22,4.56-11.13,2.03-3.02,4.35-5.34,6.98-6.95,2.62-1.61,5.5-2.42,8.62-2.42,2.7,0,5.07.43,7.09,1.29,2.03.86,3.8,1.94,5.3,3.24,1.4,1.3,2.57,2.73,3.51,4.3.93,1.56,1.61,3.02,2.03,4.38v45.08Z"></path>
        <path d="M748.83,236.85c-3.36,2.17-7.36,3.26-11.99,3.26s-8.44-.87-11.72-2.62c-3.28-1.75-5.94-4.14-7.97-7.17-2.08-3.13-3.61-6.76-4.57-10.88-.96-4.12-1.45-8.72-1.45-13.78h51.02v-5.16c0-4.63-.59-8.93-1.76-12.89-1.17-3.96-2.96-7.4-5.35-10.31-2.5-3.07-5.76-5.49-9.77-7.27-4.01-1.77-8.83-2.66-14.45-2.66s-10.4,1.13-14.8,3.4c-4.4,2.27-8.09,5.25-11.05,8.95-3.07,3.85-5.4,8.19-6.99,13.01-1.59,4.82-2.38,9.73-2.38,14.73,0,5.57.74,10.86,2.23,15.86s3.74,9.38,6.76,13.12c3.02,3.75,6.86,6.72,11.52,8.91,4.66,2.19,10.09,3.28,16.29,3.28,7.03,0,13.25-1.82,18.67-5.47,5.42-3.65,9.74-8.54,12.97-14.69l-5.47-3.36c-3.12,5.65-6.37,9.57-9.73,11.74ZM717.03,180.12c3.62-4.54,8.16-6.82,13.63-6.82,3.28,0,5.96.75,8.05,2.26,2.08,1.51,3.72,3.45,4.92,5.84,1.09,2.23,1.89,5.01,2.38,8.33.49,3.32.74,6.44.74,9.35h-35.62c.31-8.1,2.28-14.42,5.9-18.97Z"></path>
        <path d="M820.82,167.68c-3.28,0-6.9,1.09-10.86,3.28-3.96,2.19-7.55,5.39-10.78,9.61h-.39v-10.86l-1.09-1.09-25.62,1.72v5.16c1.56.1,3.02.3,4.38.59,1.35.29,2.53.74,3.52,1.36,1.35.94,2.41,2.19,3.16,3.75.75,1.56,1.13,3.15,1.13,4.76v47.52c0,1.87-.35,3.39-1.05,4.57s-1.79,1.99-3.24,2.46c-.94.31-2.04.52-3.32.62-1.28.1-2.51.21-3.71.31v5.16h40.62v-5.16c-1.51-.1-3.29-.29-5.35-.55-2.06-.26-3.74-.65-5.04-1.17-1.51-.57-2.62-1.43-3.32-2.58-.7-1.15-1.05-2.63-1.05-4.45v-44.84c2.29-3.65,5.08-6.46,8.36-8.44,3.28-1.98,6.14-2.97,8.59-2.97-.16.94-.33,1.88-.51,2.81-.18.94-.27,1.98-.27,3.12,0,1.82.77,3.49,2.3,5,1.54,1.51,3.76,2.27,6.68,2.27,2.71,0,4.71-1.03,6.02-3.09,1.3-2.06,1.95-4.41,1.95-7.07,0-3.59-1.03-6.46-3.09-8.59-2.06-2.13-4.73-3.2-8.01-3.2Z"></path>
        <path d="M891.08,236.85c-3.36,2.17-7.36,3.26-11.99,3.26s-8.44-.87-11.72-2.62c-3.28-1.75-5.94-4.14-7.97-7.17-2.08-3.13-3.61-6.76-4.57-10.88-.96-4.12-1.45-8.72-1.45-13.78h51.02v-5.16c0-4.63-.59-8.93-1.76-12.89-1.17-3.96-2.96-7.4-5.35-10.31-2.5-3.07-5.76-5.49-9.77-7.27-4.01-1.77-8.83-2.66-14.45-2.66s-10.4,1.13-14.8,3.4c-4.4,2.27-8.09,5.25-11.05,8.95-3.07,3.85-5.4,8.19-6.99,13.01-1.59,4.82-2.38,9.73-2.38,14.73,0,5.57.74,10.86,2.23,15.86s3.74,9.38,6.76,13.12c3.02,3.75,6.86,6.72,11.52,8.91,4.66,2.19,10.09,3.28,16.29,3.28,7.03,0,13.25-1.82,18.67-5.47,5.42-3.65,9.74-8.54,12.97-14.69l-5.47-3.36c-3.12,5.65-6.37,9.57-9.73,11.74ZM859.28,180.12c3.62-4.54,8.16-6.82,13.63-6.82,3.28,0,5.96.75,8.05,2.26,2.08,1.51,3.72,3.45,4.92,5.84,1.09,2.23,1.89,5.01,2.38,8.33.49,3.32.74,6.44.74,9.35h-35.62c.31-8.1,2.28-14.42,5.9-18.97Z"></path>
        <path d="M1001.78,238.78c-2.81,0-5.05-.39-6.72-1.17-1.67-.78-2.92-1.93-3.75-3.44-.89-1.61-1.45-3.5-1.68-5.66-.23-2.16-.35-4.86-.35-8.09v-43.05h21.95v-7.5h-22.11v-23.98h-14.22v23.98h-35.9v-23.98h-14.22v23.98h-14.22v7.5h13.91v52.19c0,5.94,1.31,10.53,3.95,13.79,2.63,3.25,7.17,4.88,13.63,4.88,4.38,0,8.07-.48,11.09-1.45,3.02-.96,6.22-2.15,9.61-3.55v-5.7c-1.04.37-2.83.66-5.35.9-2.53.23-4.44.35-5.74.35-2.81,0-5.05-.39-6.72-1.17-1.67-.78-2.92-1.93-3.75-3.44-.89-1.61-1.45-3.5-1.68-5.66-.23-2.16-.35-4.86-.35-8.09v-43.05h35.43v52.19c0,5.94,1.31,10.53,3.95,13.79,2.63,3.25,7.17,4.88,13.63,4.88,4.38,0,8.07-.48,11.09-1.45,3.02-.96,6.22-2.15,9.61-3.55v-5.7c-1.04.37-2.83.66-5.35.9-2.53.23-4.44.35-5.74.35Z"></path>
        <path d="M1070.57,236.85c-3.36,2.17-7.36,3.26-11.99,3.26s-8.44-.87-11.72-2.62c-3.28-1.75-5.94-4.14-7.97-7.17-2.08-3.13-3.61-6.76-4.57-10.88-.96-4.12-1.45-8.72-1.45-13.78h51.02v-5.16c0-4.63-.59-8.93-1.76-12.89-1.17-3.96-2.96-7.4-5.35-10.31-2.5-3.07-5.76-5.49-9.77-7.27-4.01-1.77-8.83-2.66-14.45-2.66s-10.4,1.13-14.8,3.4c-4.4,2.27-8.09,5.25-11.05,8.95-3.07,3.85-5.4,8.19-6.99,13.01-1.59,4.82-2.38,9.73-2.38,14.73,0,5.57.74,10.86,2.23,15.86s3.74,9.38,6.76,13.12c3.02,3.75,6.86,6.72,11.52,8.91,4.66,2.19,10.09,3.28,16.29,3.28,7.03,0,13.25-1.82,18.67-5.47,5.42-3.65,9.74-8.54,12.97-14.69l-5.47-3.36c-3.12,5.65-6.37,9.57-9.73,11.74ZM1038.77,180.12c3.62-4.54,8.16-6.82,13.63-6.82,3.28,0,5.96.75,8.05,2.26,2.08,1.51,3.72,3.45,4.92,5.84,1.09,2.23,1.89,5.01,2.38,8.33.49,3.32.74,6.44.74,9.35h-35.62c.31-8.1,2.28-14.42,5.9-18.97Z"></path>
        <path d="M1175.48,240.97c-.91-.21-1.99-.57-3.24-1.09-1.51-.62-2.58-1.5-3.2-2.62-.62-1.12-.94-2.59-.94-4.41v-40.08c0-7.66-1.79-13.79-5.35-18.4-3.57-4.61-9.05-6.91-16.45-6.91-3.33,0-6.33.42-8.98,1.25-2.66.83-4.95,1.88-6.88,3.12-1.67,1.09-3.44,2.51-5.31,4.26-1.88,1.75-3.44,3.24-4.69,4.49h-.39v-10.86l-1.09-1.09-25.62,1.72v5.16c1.56.1,3.02.3,4.38.59,1.35.29,2.53.74,3.52,1.36,1.35.94,2.41,2.15,3.16,3.63.75,1.48,1.13,3.11,1.13,4.88v47.52c0,1.87-.35,3.39-1.05,4.57s-1.79,1.99-3.24,2.46c-.94.31-2.04.52-3.32.62-1.28.1-2.51.21-3.71.31v5.16h37.73v-5.16c-1.36-.1-2.67-.29-3.95-.55-1.28-.26-2.46-.65-3.55-1.17-1.46-.62-2.55-1.51-3.28-2.66-.73-1.15-1.09-2.6-1.09-4.38v-44.3c.47-.83,1.21-1.94,2.23-3.32,1.02-1.38,2.39-2.67,4.11-3.87,1.77-1.25,3.81-2.3,6.11-3.16,2.3-.86,4.83-1.29,7.6-1.29,3.71,0,6.85,1.48,9.44,4.45s3.88,7.19,3.88,12.66v39.61c0,1.88-.35,3.4-1.05,4.57s-1.79,1.99-3.24,2.46c-.94.31-2.12.52-3.55.62-1.43.1-2.75.21-3.95.31v5.16h37.66v-5.16c-1.62-.1-2.88-.26-3.79-.47Z"></path>
      </g>
    </g>
  </g>
</svg>
