<?xml version="1.0" encoding="UTF-8"?>
<svg id="Layer_2" xmlns="http://www.w3.org/2000/svg" version="1.1" viewBox="0 0 222.9 391.2">
  <!-- Generator: Adobe Illustrator 30.0.0, SVG Export Plug-In . SVG Version: 2.1.1 Build 123)  -->
  <defs>
    <style>
      .st0 {
        fill: #ea0029;
      }

      .st1 {
        fill: #fff;
      }

      .st2 {
        fill: #e54447;
      }

      .st3 {
        fill: #f7e01d;
      }

      .st4 {
        fill: #ffcd00;
      }
    </style>
  </defs>
  <path d="M185.6,70.4c-7.3-.7-14.2-.6-21.5-.2l-1.4,10.8c10.5,2.2,20.9,5.5,29.5,12.6.2-1.4.8-2.9,2-3.9.6-3.2,1.3-6.4,1.7-9.7.2-1.5.5-3,.4-4.5-.3-1.3-1.4-2.5-2.6-3.1-2.5-1.2-5.4-1.6-8.1-1.9M38,69.9c-3,.4-6.1.8-8.7,2.2-1.3.7-2.2,2.1-2.2,3.5.3,4.6,1.2,9.1,2.1,13.6,1.3.9,1.8,2.5,2.1,3.9,8.5-7,18.6-10.2,29.2-12.4h0c-.5-3.6-.9-7.2-1.4-10.9-7.1-.3-13.8-.4-21,0h0ZM138.9,67.4c-7.4.4-14.1,1.2-21.3,2.5l-.3,7c11.6,0,23,.7,34.3,2.1.3-1.8.5-3.6.6-5.5.1-.8,0-1.7-.2-2.4-1.5-3.2-5.2-3.8-8.4-3.8-1.7,0-3.3.2-4.8,0h0ZM84.1,67.2c-3.7,0-7.9-.6-11,1.3-1.3.9-2.4,2.1-2.4,3.7l.5,6.2v.3c11.1-1.5,23.2-1.9,34.5-1.9l-.2-6.8v-.2c-7.2-1.2-14.2-2.3-21.4-2.6h0ZM116.7,0v9.7h9.5v9.6h-9.7v13.2c.5.4,1.3.4,1.9.8,6.1,2.8,10.3,9.2,9.9,16-.2,4.7-2.3,9.1-6,12.3,8.2-1,16.7-2,25.3-2,4.8.2,9.4.7,13.4,2.8,2.8-.2,5.3-.4,8-.5,10.5-.4,21,0,30.6,2.8,3.1,1,6.7,3.2,7.2,6.8.3,3.3-.7,6.3-1.2,9.5-.4,2.5-1.1,4.9-1.6,7.3.9.4,2.1.5,3.1,1,.3.2,1.3.2.8.9-4.2,14.9-8.2,29.7-10.5,45.4h22.9c0,5.1-.4,10.2-.5,15.3-.5,12.6-1.2,25.3-2.1,37.9l-1.3,15.3c-3.9,38.6-10.7,76.8-30.5,109.2-8.8,14.9-20.6,27.4-32.9,40.3-12.9,12.8-26.8,25.1-42.1,34.5-6.3-3.9-12.1-8.5-17.9-13-12.9-10-24.5-22-35.6-34.2-12.1-13.4-21.9-27.9-29.1-43.6-6.7-14.6-11.5-30-14.9-45.8l-2.6-13.1-1.9-12-1.9-16.2-1.3-13.3c-.7-7.7-1.1-15.2-1.6-23.2l-1-20.4-.5-18.2h22.8s.3-.1.1-.2c-.9-6.7-2.2-13.3-3.6-19.8l-3.2-13.3c-1.1-4.2-2.2-8.4-3.5-12.6,1.2-.6,2.6-.9,4-1.3-1-4.9-2.1-10-2.7-15-.3-2.9,1.4-5.7,3.8-7.2,5.3-2.9,11.7-3.3,17.7-4,8.1-.5,16.1-.2,24.1.4,8.1-4.1,18.4-2.6,27.4-2,3.8.4,7.6,1,11.3,1.4-5.3-4.5-7.3-12.1-5-18.5,1.5-4.7,6.1-9,10.7-10.5v-.2c.1,0,.1-13.1.1-13.1h-9.4c0-3,0-6.3,0-9.6h9.5V0h9.8,0Z"/>
  <path class="st4" d="M115.3,1.5c0,3.1,0,6.5,0,9.6h9.6v6.7c-3.1,0-6.5,0-9.6,0v14.5c-1.3,0-2.8-.2-4.2-.2s-1.9.2-2.9.3v-.3s0-14.2,0-14.2h-9.3v-6.8c2.9-.1,6.3.1,9.4,0V1.4c2.4,0,4.9,0,7.2,0"/>
  <path class="st4" d="M115.2,33.7c-.3.9-1,1.8-1.5,2.7v11.7s13.1,0,13.1,0c0,1.3-.1,2.6-.3,3.8h-29.8c-.2-1.2-.3-2.5-.3-3.8h12.8v-11.8c-.4-.9-1-1.7-1.3-2.7,2.4-.6,4.9-.5,7.3,0"/>
  <path class="st4" d="M108.4,37v10.2c-3.9,0-8,0-11.8,0,.4-5.4,4.4-10.6,9.4-12.7.3,0,.9-.8,1.1-.2l1.4,2.6"/>
  <path class="st4" d="M126.5,45.6l.3,1.6c-4,0-8.1,0-12.1,0v-10.5s1.7-2.6,1.7-2.6c4.9,1.6,9.2,6.3,10.1,11.5"/>
  <path class="st4" d="M126.2,53c-1.3,5.2-6.2,9.7-11.3,10.8-5.1,1.3-10.7-.4-14.3-4.5-1.6-1.9-3.1-3.9-3.6-6.3h29.1s0,0,0,0"/>
  <path class="st4" d="M105.5,64.3c0,1.4,0,2.7,0,4.2-9.5-1.6-19.1-3.1-28.7-2.6-2.8.4-5.9,1.5-7.1,4.3-.6,1.8,0,3.8,0,5.6l.9,9.7c-2.6-.2-5.6-.2-7.7,1.3v-.3c-.9-5.8-2-11.6-2.6-17.4-.1-2.1,1-4.1,2.9-5.2,5-3.2,11.9-2.7,17.8-2.6,8.4.2,16.6,1.4,24.6,3.1"/>
  <path class="st4" d="M153.9,61.9c2.4.3,4.7,1.1,6.7,2.7,1.8,1.4,2.5,3.6,2.1,5.9l-2.5,16.7c-.6-.2-1.1-.6-1.6-.8-1.8-.7-4.3-.7-6.2-.4.4-4.8,1.1-9.3,1.3-14.1-.2-2.8-2.9-4.6-5.3-5.3-2.5-.7-5.3-.5-8-.5-7.9,0-15.3,1.4-22.8,2.5-.2-.5.1-1.3,0-2,0-.7,0-1.4,0-2.1,10.8-2.2,21.6-3.3,33-2.9,1,.2,2.2.2,3.2.5"/>
  <path class="st4" d="M60.6,64c-.8,1.4-1.7,2.8-1.6,4.5-5.7-.2-11.3-.5-17.1-.2-3.9,0-7.9.6-11.4,1.7-2.1.7-4.4,2.3-4.8,4.7,0,3.4.8,6.9,1.4,10.2l.6,3.3c-2-.9-4.4-.9-6.5-.6-1.1-4.8-2.1-9.9-2.8-14.8,0-2.8,2.3-5.2,4.8-6.3,6.4-2.6,13.5-2.8,20.6-3.2,5.7,0,11.1.3,16.8.7"/>
  <path class="st4" d="M198.2,66.2c2.9.8,6.6,3,6.8,6.5.2,1.6-.3,3-.5,4.4-.6,3.8-1.5,7.4-2.3,11.1-2.1-.4-4.7-.2-6.5.5.7-4.3,1.8-8.7,2.1-13.2-.2-2.6-2.8-4.5-5.1-5.1-8.3-2.4-17.2-2-25.8-1.8h-2.8c0-1.7-.7-3.1-1.6-4.4,10.7-1,21.9-1,32.1.9l3.6,1"/>
  <path class="st4" d="M116.1,64.8c.2,1.6-.2,3.3,0,5.1-.1,4.8-.3,9.6-.7,14.5-2.4-.7-5.4-.7-7.9,0-.5-6.7-.7-13.1-.6-19.7,3.1.8,6.2.8,9.3,0"/>
  <path class="st4" d="M117.9,88.2c2.4,4.4-2,7.8-3.9,11.3.3.8.8,1.6,1.3,2.3,1.4-.9,2.4-2.3,3.9-3.2,1.8-1.3,3.8-2.7,6.1-2,3,1.8,3.8,5.3,3.5,8.7-.2,2.3-1.3,4.7-3.6,5.6-4,1-6.9-2.7-9.5-5.1l-.7-.6c-.7.7-1.1,1.6-1.6,2.4,2.1,4.2,4,8.6,7,12.4,2.4,1.5,5.3,1.6,8.2,1.9,3.9.2,8.1.3,11.9-.2,2-.2,4.1-.6,5.9-1.7,2.2-2.6,3.4-5.8,5-8.8l1.3-2.8c-.5-.8-1-1.7-1.6-2.5-2.2,2.6-5,5.3-8.6,5.4-1.3,0-2.5-.9-3.3-1.9-1.6-2.8-1.5-6.7-.5-9.8.7-1.9,2.8-2.9,4.8-2.9,3.1.9,5.6,3.5,7.9,5.7h.1c0,0,1.1-2.7,1.1-2.7-2.1-3.1-6-6.6-3.5-10.7,1.9-2.6,5.6-2.5,8.4-2,1.7.5,3.7,1.8,4.1,3.7.6,3.5-1.7,6.4-4.1,8.9l1.1,2.7h.2c3-2.3,6.1-5.4,10.1-4.3,2.6,1.3,3.2,4.3,3.2,7,0,2.8-1.8,5.4-4.3,6.5-3.9,1.3-6.5-2.3-8.9-4.8-.2-.3-.4-.6-.8-.9-.6.7-1.1,1.6-1.6,2.4,2,3.8,3.8,7.6,6.4,11.1,1.5,1.7,3.8,1.9,5.9,2.3,6.1.9,12.9.9,18.8-.5,1-.4,2.2-.5,2.8-1.6,2.2-3,3.9-6.2,5.7-9.4-.3-.9-.9-1.6-1.3-2.4h-.2c-2.3,2.1-4.8,3.9-7.7,4.6-2.1.2-4.1-.5-5.2-2.3-1.6-3.2-1.3-7.4.4-10.5,1.4-1.9,4-2,6-1.4,2.8,1,5,3.5,7,5.8.7-.7,1.3-1.5,2-2.2-2-2.8-4.7-6.3-2.8-10,2-2.9,6.2-2.7,9.1-1.9,1,.2,2,.6,2.9.9l-2.7,9-3.7,14.3c-1.7,7.1-3,14.3-4.1,21.5H27.3c-.4-1.8-.6-3.9-.9-5.5-2.2-13.5-5.3-26.9-9.3-39.9,3.5-1.3,8.1-2.4,11.3.3,1,1.1,1.6,2.5,1.3,4.1-.5,2.5-1.9,4.5-3.5,6.6l1.9,2.3h.1c1.9-2.3,4-4.5,6.7-5.8,1.5-.5,3.5-.6,4.9.3,2.6,1.9,2.6,5.5,2.5,8.4-.2,2.1-1.2,4.2-3.2,5-1.8.8-3.8.4-5.3-.5-1.9-1-3.7-2.4-5.2-3.9h-.1c0,0-1.5,2.4-1.5,2.4,1.5,3.1,3.3,6.1,5.1,8.9.9,2.1,3.3,2.1,5,2.6,6.4,1.2,13.8,1.2,20.2-.5,3.2-.9,4.1-4.4,5.9-6.8l3.1-5.7c-.4-.9-1-1.7-1.5-2.5-2.7,2.7-5.5,6.7-9.7,5.9-2.5-.9-4.3-3.8-4.4-6.4,0-2.6.4-5.2,2.5-6.9,1.6-.9,3.5-.4,5,0,2.2,1,4.1,2.6,6,4.1h.1c0,0,1.1-2.7,1.1-2.7-2.4-2.8-5.6-6.5-3.4-10.3,1.9-2.7,5.6-2.9,8.5-2.3,1.4.2,2.8,1,3.5,2.4.5,1.3.9,3.1.2,4.4-.9,2.2-2.5,4-3.9,5.9.4.9.6,1.9,1.2,2.7,2.3-2.2,4.5-4.5,7.3-5.6,1-.3,2,0,2.9.3,3,1.2,3.3,4.7,3.2,7.7-.2,2.3-.7,5-3.1,6.1-4.1,1.5-7.4-2.1-10-5.1h-.1l-1.6,2.5c1.7,3.7,3.3,7.4,5.5,10.8,1,1.4,2.6,1.7,4.1,2.1,6.8,1.3,14.7,1.1,21.3-.6,2.4-.8,3-3.6,4.3-5.4l3.8-7.6c-.4-.8-1-1.6-1.5-2.4-2.7,2.5-5.6,6.4-9.7,5.8-2.5-.8-3.8-3.4-4-5.9-.3-3.1.4-6.7,3.3-8.4,2.2-1,4.5.5,6.3,1.9,1.4,1,2.4,2.2,3.8,3.3.5-.8,1-1.6,1.3-2.4-2-3.6-6.5-7.5-3.3-11.9,2.3-2.7,6.5-2.7,9.7-1.7,1.1.5,2,1.3,2.7,2.3"/>
  <path class="st0" d="M105.7,78.6v.2c.1,2.2.3,4.2.4,6.4-2,1.7-3.4,4-3,6.7.7,2.8,2.5,5.2,4.2,7.6-.1.2-.1.4-.2.5-2.4-2.2-4.8-4.3-7.9-4.8-2-.3-3.7,1.1-4.7,2.7-2,3.2-2.4,8.3-.3,11.6.9,1.7,2.6,3.1,4.5,3.2,3.6,0,6.2-3,8.8-5.3.2,0,.2.3.4.5-1.7,3.5-3.3,7.1-5.5,10.5-1.2,1.6-3.2,1.4-4.9,1.9-6.1,1-12.2.9-18.1-.3-3.3-.5-4-4.2-5.5-6.6l-2.2-5.2c0-.2.1-.3.3-.4,2.4,2.8,5.6,5.3,9.5,4.6,2.7-.8,4.2-3.6,4.5-6.2.3-3.7.1-8.1-3.4-10.1-1.7-1-4.1-.8-5.8.3-1.9,1.1-3.4,2.7-5,4.2-.7-.6.1-1,.4-1.5,2-2.7,4.6-5.7,3.4-9.3-.5-1.6-2.1-3-3.6-3.6-.3-.2-.1-.6-.2-.9-.1-1.5-.3-3.1-.4-4.7,11-1.4,22.3-2.2,33.8-1.9h.5"/>
  <path class="st0" d="M151.5,80.7c-.2,1.9-.1,3.7-.6,5.5-1.8.6-3.5,2.3-4,4.2-.8,4,2.2,6.8,4.2,9.8-.1.2-.1.4-.2.5-3-2.7-6.5-6.8-10.9-4.6-3.8,2.2-3.7,7-3.2,10.9.4,2.2,1.9,4.6,4.1,5.4,3.9.8,7.2-1.8,9.7-4.5.3.2.4.7.1,1-1.5,3-2.7,6.1-4.5,8.9-1.2,2.1-3.5,2.2-5.5,2.7-3.9.4-7.8.7-11.8.3-2.6-.3-5.4-.6-7.8-1.7-2.2-2.4-3.4-5.3-5-8l-1.5-3.2c0-.2.2-.4.4-.6,3.1,2.6,6.5,6.7,11,4.8,2.9-1.9,4-5.3,3.9-8.6-.1-3.2-1.3-6.6-4.3-8.1-3.2-.8-6,1.3-8.5,3.2l-1.4,1.4-.3-.5c2.2-3.1,5.5-6.3,4.3-10.6-.5-1.4-1.6-2.6-2.8-3.6.1-2.2.3-4.3.3-6.6,5.1-.2,10.3,0,15.2.2,6.2.4,12.9,1.1,19,1.9"/>
  <path class="st0" d="M61.5,87.8c-1.6,1.7-1.9,4.1-1.2,6.2.7,2.2,2.4,4.2,3.9,5.8l-.3.7c-2.9-2.4-6.6-5.5-10.6-3.9-3.2,1.9-3.4,5.6-3.5,9,.1.5.1,1,.2,1.6.5,2.1,1.8,4.4,4.1,5.2,4.4,1.9,7.9-2,10.6-5,.2,0,.2.4.3.5-1.9,3.6-3.7,7.2-6.3,10.4-1.8,1.5-4.2,1.6-6.3,2-4.7.5-9.6.5-14.4-.3-1.8-.5-4.1-.6-5.1-2.6-1.7-2.4-3-5.1-4.4-7.7,0-.3.1-.4.3-.7h.2c2.7,2.4,5.8,4.9,9.6,4,2.1-.4,4.1-2.6,4.6-4.7.7-3,.5-6.2-.7-9-1.1-2.2-3.5-3.5-6-3.2-3.4.4-5.9,3-8.3,5.5-.2,0-.2-.2-.3-.4,1.2-1.9,2.5-3.6,3.1-5.8,8.4-7.4,18.8-11.1,29.7-13.1l.9,5.4"/>
  <path class="st0" d="M192.2,95.8c.7,2.1,2,4,3.2,5.8,0,.2-.1.3-.3.4-2.8-2.9-6.2-6.7-10.6-5.4-.9.2-1.7.7-2.4,1.3-2.6,3-2.9,7.3-2,11,.5,2.1,2.4,4,4.4,4.5,3.8,1,7.2-1.7,10.1-4,.6.5,0,1.1-.2,1.6-1.6,2.8-3,5.7-5.3,8.1-3.3,1.5-6.8,1.7-10.5,1.8-4.6,0-9.5,0-13.6-1.8-2.1-1.6-3-4-4.3-6.1l-2.5-4.8.2-.7c2.6,2.8,5.7,6.7,9.9,5.4,2.9-.7,4.8-3.8,5-6.6.2-3.5-.1-7.5-3.4-9.4-4-1.7-7.7,1.3-10.6,3.8-1-1,1-1.8,1.3-2.6,1.7-2.2,3.2-4.9,2.4-7.8-.2-.9-.8-1.6-1.3-2.2.2-1.8.6-3.7,1-5.4,10.9,2.1,21.2,5.7,29.8,13.1"/>
  <path class="st0" d="M218.8,137s-3.2,76.3-10.4,111.9c-5.5,26.8-14.8,52.1-30.9,74.4-15,19.7-33.7,38.5-53.3,53.8-4.5,3.3-8.7,6.5-13.3,9.2-4.5-2.5-8.6-6.2-12.9-9.1-14-10.5-27.1-23.4-39-36.6-11.2-12.5-20.8-25.9-27.7-40.4-11.5-23.8-17.6-49.6-21.2-76.6l-1.9-16.3c-2.4-23.3-3.4-47.2-4-70.3h214.6"/>
  <path d="M118.3,144.6c1.1-.8,2.5-.6,3.6,0,.8.8,1.5,1.9,1.2,3.2-.2,1-1.1,1.8-1.9,2.1-.4.2-.9.1-1.3.1-.1.7.3,1.4.9,1.8,1.5.6,3.2.8,4.7,1,.6,0,1.1-.5,1.6-1-.6-.7-1.6-1-2-1.9-.6-1.2,0-2.6.8-3.5.9-.6,2.1-.5,3.1-.2.7-.6,1.7-1.2,2.6-1.2s2.2.6,2.9,1.5c.4.4.2,1.5,1.1,1.3.7.2,1.5.5,1.8,1.2.4.7.4,1.5.2,2.2-.3.9-.9,1.9-1.9,2.1-.4.3-1.4-.4-1.3.5.3,1.9,2.5,1.4,3.8,1.9.9.1,2,.5,2.6-.5h0c-1-.9-1.7-2-1.4-3.2.1-.8.5-1.4,1-2,.9-.5,2.2-.9,3.2-.3.5.3.8,1,1.3,1.2,1.4-.6,3.3-.6,4.6,0v.3c-2.1,3-4.4,6.1-6.3,9.2,1.1.7,2.2,1.3,3.2,2.2,0,1.9.3,4.4-1.5,5.7l-2.1,2.4c.1,9.9-2.6,19-6.9,27.2l-6.6,11.7c-1.4,2.6-1.8,5.7-1.9,8.7-1-.3-1.9-1-3-1.2-.1,3.5-.3,6.6-.3,10l-.3,13.8c-.1,5.9-.2,11.5-.3,17.5,2.5,2.7,4.1,5.9,5.6,9.1l5.5,12.2c4.1,8.4,7.6,17.1,13.7,24.6,3.2,3.3,7.4,4.5,11.9,4.5,5.4-.3,10.4-3.4,13-8.2,3.3-7.7-1.6-15-4.9-21.5l-9.4-16c-4.9-9.3-10.8-21.1-4.8-31.7,3.2-5.6,8.8-10,13.8-13.9l19.3-14.8c7-5.6,13.3-13,13.2-22.3-.2-4.6-.7-8.9-4-12.2-3.6-3.7-8.6-5.3-13.6-4.2-3.8,1-7.8,4.2-8.4,8.3,0,1,0,2.1.4,3.1,2,.4,4.2.4,6.1,1.2,2.2,2.7,3.5,5.9,4.5,9.2-.1,5-.9,10-2.4,14.6-.5.1-1.1.2-1.6.1-.2-.9,0-2-.2-3-.4-3-.8-6.2-3.1-8.4.1,2.7.6,5.5-.7,7.9-2,2.5-4.8,4.7-7.3,6.6-6.7,5.2-13.8,9.6-19.1,16.5l-.4.6c-.7,0-1.1.1-1.8,0,.5-4.1,2.5-7.7,4.5-11.2,3.7-6,8.2-11.7,12.6-17.2.1-1.1-.2-2.1-.4-3.1h-.2c-2.7,2-5.2,4.5-7.3,7.1-.4.1-.9.1-1.3.1.5-2.1,1.3-4.1,2.1-6.2,1.8-4.1,3.8-8.2,6.6-11.9-.3-4.7.8-9.3,3.5-13.1,4.4-5.9,11.2-8.2,18.4-8,7.6.7,15.3,5.5,17.7,13,2.4,6.6,2.4,14.4,0,21-2,5.4-5.1,10.5-9.1,14.9h0c0,.1-.5.5-.5.5-4.6,5.3-10.9,10.2-14.8,16h.1c0,.1,3.1-.2,3.1-.2,3,.4,5.8,1,8.8,1.5,1.8-.1,3.5-.3,5.3-.4.2.3.3.8.3,1.1l-15.5,7.4c-3.1,1.5-6.2,3.1-9.2,4.4-.3.4-.4,1-.5,1.5,2.4-.4,4.8-1,7.3-1.3l8.9,1.8,4.1-.3c.2.4.4.8.4,1.2-1.7.9-3.5,1.8-5.3,2.6-5.5,2.6-11,5.5-16.5,7.9-.2.4,0,.8-.1,1.3h.2c0,.1,3.3-.2,3.3-.2l8.3,1.9,4.1-.4c.4.2.5.8.5,1.3l-14.9,7.3v.2c.9,6.5,3.5,12.4,5.5,18.5,2.7,7.7,3.9,17.2-.4,24.6-4.4,7.6-12.9,11.6-21.5,11.5-8.3-.5-15.4-5.6-20.2-12.3l-10.5-15.4v.2c0,4.5.1,9,.3,13.6.4,4.6.6,9.3,2.1,13.5l2.5,3.4c.1,3.2-.2,6.3-1.3,9-.4.8-1.6,1.2-1.7,2.2-.5,9-2.4,18.2-1.8,27.5.1,1.4.2,2.7.6,4l-1.7,1.4h-.2c-1.3-1.4-2.7-2.6-4.3-3.5-.8-.3-1.4.2-2,.5-1.3,1-2.6,1.6-3.5,3,.7,1.9,1.3,3.9,1.9,5.8-.4.9-1.3,1.2-1.9,1.8l-2.3,1.5c-.3,2.2.2,4.4.9,6.5-.7,0-1.5,0-2.1-.3-1.9-3-4.1-6-4.1-9.8.2-2,.7-4.1,1.1-6.2h0c-1.9,1.8-3.6,3.6-5.6,5.1-1.7-.2-3.1-1.1-4.4-2.4-1.9.4-3.8,1-5.3,2.4h-.1l-.3-1.8c1.6-2.6,3.7-5.1,6.2-6.9,2.6-.6,5.3-1,8.1-1.4-2.4-1.7-5.4-2.5-7.9-4.2-.2-2,.2-4,.7-5.9-1.2-1.9-3.2-2.9-4.9-4.2l2-1.1c3.5.3,6.5,2,9.3,3.9,1.7,2.4,2.9,5,4.2,7.6.4.8,1.4.1,2,.1.9-.2,1.7-.6,2.5-1.1.7-10.6-.5-21.8-2.6-32.1-1.8-2.9-4.4-5.5-6.5-8.2-2.7-3.1-5.5-6.4-8.4-9.1-2.1,2.6-4.3,5.3-5.6,8.4-.1,1.2,0,2.5-.1,3.8-2.8,1.9-6,2.8-9.2,3.9-1.6-1.1-3.1-2.4-4.7-3.5-7.7-1.5-14.9-3.6-22.5-5.1-1.4-.1-3,0-4.4.4-.5-.5-1.1-1.2-1.1-2,1.2-1,2.2-1.8,3.1-3,.1-2.2-1.4-3.9-2.4-5.7-1.5.2-2.8,1.1-4.4,1.4-3.4,0-6.9-.6-9.9-2.2l-.3-1.8c1.5.3,3,.5,4.5.2.9-.5.8-1.5,1.2-2.3.2-.6.4-1.3,1.1-1.5h4.7c0-.1,2.1-.3,2.1-.3h0c-2.4-1.8-5.2-2.5-7.8-3.7-.1-1.4.4-2.7,1.2-3.9-.4-1-1.5-1.6-2.3-2.2l-3.5-.8c.2-.6.8-1.1,1.3-1.6l6.4.3c1.8.8,3.7,1.4,5.2,2.6,1.7,2.1,2.9,4.4,4.4,6.5v-.3c.4-2.3.5-4.6,1-6.8,1.1-.7,2.6-.7,3.9-1,1.1-1.8,1.5-4.1,1-6.4.7.2,1.4.6,1.9,1.1,1.5,3.7,1.9,8.4.4,12.2-1.2,2-2.8,3.5-4.3,5.3.4,2.1,1,4.1,1.6,6.2,1.9.2,4,.3,6,.6l13.4,1.2c-.4-1.6-1.6-3.1-1.5-4.9.8-8.5,2.5-16.4,5.1-24.2,5.4-3.9,11.5-6.1,17.6-8.5v-.2c-.2-4.3-1.4-8.5-2.4-12.7-1.7-3.1-4.7-5.5-6.9-8.2-.9-1.9-1.8-4-2.6-6l-2.4,2.6-13.1,14.9c-1.8,2.2-3.7,4.3-5.3,6.5-.6-.2-1.2-.7-1.6-1.2.3-1.2.3-2.4-.1-3.6-1.5-1.6-3.5-1.9-5.4-2.8-1.9,2.7-4.1,5.6-6.8,7.7-.8-.1-1.4-.4-2.2-.3v.2c-.1,0-.5,13.8-.5,13.8h-.2c-2.1.1-3.6.2-5.7,0,0-4.4.1-8.8,0-13-1,.8-2.2,1.5-3.2,2.4h-.1l-.7-1.5c.4-1.6,1.2-3.1,1.9-4.5l2.3-2.7c0-2.4.2-4.8.1-7.2-.5-.3-1.2-.3-1.8-.5l-1.9-4.7c-1.4-.5-2.9,0-4.4,0-.3.1-.7.1-1,.1.1-.7.4-1.4.7-2.1,1.5-.8,3-1.8,4.7-2.2h3.7c0,0,.1-.2.1-.2l.2-13.2c0-3.9.1-8,.2-12l.2-14.1h0c-.8.2-1.5.8-2.2,1.2-1.2-.4-2.4-.8-3.5-1.7-1.2.2-2.2,1.3-3.1,2.1l-1,1.6h-.1l-.8-1.7c.7-3,2.2-5.7,4.2-8.1,2-1.5,4.3-2.4,6.6-3.3.2-.4.1-1.1.1-1.7-2-.5-4.5,0-6.2-1.5l-1.5-4.1c-1.8-.5-3.7-.9-5.7-.6.3-.7.8-1.4,1.4-2,2-.8,3.9-1.7,6.2-1.6,1.9.3,4.1.3,5.8,1.1v-.2c.1,0,.2-7.8.2-7.8v-3c-2.4-.2-5-.2-7.4.3-3.9,1.2-7,4.6-10,7.5-1.6,1.8-3.3,3.6-4.9,5.5-3.9-6.6-6.7-13.7-8.1-21.4-.9-5.6-1.6-11.6-.9-17.6h0c9.3,6.6,18.3,14.7,30.5,14.1.3,0,.8.2,1-.1v-4.2h.8c1.8,0,3.6,0,5.4,0,.1,1.4.1,2.9,0,4.3l.2.2h2.3c0,3.7,0,7.6-.1,11.2-.9.1-1.6.1-2.5.1-.1,4.6-.2,8.7-.2,13.4.7-1.5,1.1-3.3,1.9-4.8.9-1,2.5-.9,3.7-1.3.6-1.1,1.2-2.1,1.6-3.3l.2-2.6,1.6,1.5c.8,3.1.7,6.6.1,9.8-1.3,2-2.9,3.9-4.2,5.8.5.5,1.2.9,1.9,1.2.8.6,1.9.9,2.9.7.5,0,1.1-.2,1.6,0,.3.7.6,1.4.8,2.2,5.3,2.9,10.8,5.5,16.2,8.1.5-.5.6-1.3,1.1-1.9,5.3-6.2,12-10.7,18.7-15.1,3.2-1.7,6.5-2.9,10.2-3.6l6.8-1.2c.4-.3.4-.9.6-1.4l-.3-.2c-3.5-.2-6.9-.3-10.5-.8,1-1.7,1.9-3.5,2.9-5.2-1.1-1.6-2.3-2.9-3.1-4.6l-.5-5.6c2.4-2.2,4.8-4,7.3-6.2,0-3.9-.6-7.9-.6-11.8,1.4.2,2.5,1.2,3.8,1.9"/>
  <path class="st4" d="M117.9,145.9c.4,0,.7-.6,1.1-.7.9-.1,1.9,0,2.5.7.3.5.6,1.2.3,1.9-.2.6-.8,1-1.4,1.4-.6,0-1.1,0-1.6-.2-.2,0-.3.2-.4.4.3,1.1.3,2.4,1.2,3.3,2.1.7,4.5,1.4,6.6,1.3,1.2-.6,1.9-1.7,2.9-2.7,0-.2.1-.5-.1-.6-.5.2-1.3.4-1.9.1-.8-.4-1.2-1.3-1.1-2.2.3-.7.8-1.5,1.7-1.5.6,0,1.1.4,1.7.6.6-.8,1.4-1.5,2.5-1.4.8.2,1.8.9,2,1.8.1.2,0,.5.1.6.8,0,1.8-.2,2.2.6.5.6.5,1.5.2,2.1-.2.7-1,1.1-1.7,1.4-.9.1-1.5-.5-2-1.1-.2,0-.4.3-.5.5.1,1.3.5,2.4,1.1,3.5,1.9,1,4.1,1.2,6.2,1.6,1.2-.2,2.1-1.3,3.1-2,.1,0,0-.2,0-.4-.3-.3-.8,0-1.2-.2-.6-.2-1-.7-1.2-1.3-.1-.5,0-1.1.2-1.6.6-.5,1.1-1.1,2-1,.9.1,1.6.9,1.9,1.7.5.1.9-.4,1.3-.4.5-.2,1.2-.3,1.8-.1-1.7,2.8-3.6,5.7-5.6,8.3-1.7.5-3.5.6-5,1.6.1.4.5.6.8.9,1.6-.2,3-1.5,4.7-.8.9.7,2.6,1,2.4,2.5.5,2.7-2.1,4-3.5,6,.2,12.9-4.6,24.4-11.3,34.8-1.9,3.6-4.1,7.1-4.1,11.3-1-.3-2-1-2.9-1.3-.4,15.2-.6,29.2-.9,44.2,4.5,4.6,6.2,10.5,8.8,15.9l6.4,13.5c2.8,5.5,5.4,11,9.4,16,4.5,5.4,12.2,7,18.6,4.4,4.5-1.8,9-5.6,9.8-10.6.3-1.1.1-2.4.2-3.6-.1-.6-.2-1.4-.3-2-1.6-8.2-6.8-15-10.6-22.2-4.3-7.2-8.7-14.5-10.9-22.6-.5-2.2-.7-4.1-.7-6.6.2-.6,0-1.4.2-2.1,1.1-9.9,11-16.5,18.1-22.4l13-9.9c6.6-5.1,13.9-11.3,16.4-19.4,1.4-5.3,1.6-11.8-1.1-16.7-3.2-5.3-8.9-8.8-15.3-7.8-4.4.8-9,3.7-10.4,8.1-.5,1.8-.4,3.8,0,5.6,2.2.4,4.8.5,6.9,1.5,1.9,2.8,3.6,5.7,4,9.1-.4,4.1-.9,8.3-1.9,12.1-.1-4.6-1.3-9-4.5-12.4-.5-.1-1-.2-1.5-.1v.2c.6,3,1,6.4.1,9.4-3.4,4.4-8.1,7.2-12.3,10.4-4.8,3.6-10,7.6-13.6,12.2,1.8-6.5,6.1-12.1,10.1-17.7,2-2.8,4.3-5.5,6.3-8.4.3-2-.1-3.7-.5-5.5-3,1.6-5.6,4.3-7.8,6.8,1.9-5.5,4.2-10.8,8.1-15.5-.8-5.8,1.1-11.5,5.7-15.3,5.3-4.5,13.3-6.2,19.9-3.5,5,1.8,10,6.1,11.6,11.3,2.2,6.4,2.2,14.5-.4,20.7-2.5,7-7.7,13.1-13.1,18.6-4.6,4.7-9.3,8.9-12.7,14.4,1.9-.2,3.8-.7,5.6-.8,3.5.3,6.9,1.2,10.3,1.9l-3.2,1.5-18,8.6c-.4,1.3-1.1,2.6-1.1,4,2.8-.4,5.8-1.4,8.6-1.7h1.1c0,.1,8.9,2,8.9,2l-19.4,9.3c-.2,1.1,0,2.2.2,3.4,1.7.1,3.2-.7,5-.3,2.9.6,5.7,1.3,8.6,1.9-4.1,2-8.2,4.1-12.3,6,0,1.3.3,2.5.5,3.8,2.2,10.1,7.7,19,7.6,29.9-.5,7.4-4.4,14.8-11.6,18.1-6,3-13.7,3.6-19.8.6-4.7-2.1-8.8-6.2-11.7-10.5-3.7-5.5-7.5-10.8-11-16.4-.1-5.5-.1-10.8-1.6-16-.3-.9-.6-1.7-1-2.5h-.1l-.8,1.6c2.4,6.4,1.8,14.5,2.2,21.4,0,7.8.2,15.8,1.6,23.4.5,2.2,1.9,4.1,3.4,5.8.2,2.4-.3,4.6-.6,6.9-.4,1.2-1.6,1.9-2.2,2.9-.8,7.2-1.2,14.1-1.9,21.4-.2,3.7,0,7.1.3,10.6-1.7-1.2-3.3-3-5.4-3.4-2.2.9-4.2,2.6-6.2,4.2v.6c.5,2,1.5,3.8,1.9,5.8-1.1,1.3-2.5,1.9-4,2.6-.3,1.6,0,3.1,0,4.6-1.4-2-2.7-4.2-2.9-6.7.2-2.2.5-4.4,1-6.5-.4-.6-1-1.6-1.9-1.4-1.6,1.7-3.2,3.5-5,4.9-1.7-.2-2.8-1.4-4.1-2.5-1.3.1-2.4.8-3.5,1.3,1.2-1.9,2.9-4.1,4.9-5.1,2.4-.6,4.8-.9,7.3-1.3.3-.7.4-1.5.3-2.2-2.3-1.3-4.8-2.2-7-3.8-.4-2,.5-3.7.8-5.5-1-1.3-2.2-2.6-3.5-3.5,2.9.2,5.4,1.8,7.6,3.7,1.5,2.6,2.8,5.2,4.4,7.8l.3.3c2-.1,3.9-.9,5.7-1.8l.3-.5c.7-11.4-.5-22.4-2.6-33-.5-1.3-1.6-2.4-2.4-3.5l-15-16.9c-1.2-1.6-2.5-3.1-3.1-4.9-1-4.3-1.3-9.1-1.1-13.7,4.1-6.2,11.3-10.1,15.2-16.6.9-1.6,1.8-3.1,2.2-4.9-.3-.3-.9-.1-1.4-.2-.4.6-.4,1.4-.8,2-3.1,7.3-10.6,11.3-15.4,17.4l-1.3,2c-.2,4.5.4,9.2,1.1,13.5.5,3,2.9,5.3,4.6,7.8-1.9,3-4.1,5.8-5.7,8.9-.4,1.2-.1,2.4-.2,3.7-1,.9-2.3,1.2-3.4,1.8-1.4.4-2.6,1-4.1,1.3-1.4-.9-2.6-2-3.9-3.2l-6.6-1.4-15.1-3.7c-1.9-.4-3.8-.6-5.7,0,1.1-1.3,2.9-2.2,2.9-4.1-.9-2.3-1.8-4.6-3.2-6.6-2.1.2-3.8,1.8-6,1.8s-4.2-.5-6.2-1.2c1-.2,2.1-.2,3-.7.5-1,.5-2,1-3,2.1-.5,4.4-.3,6.7-.5.4-.7.7-1.5,1-2.2-2.4-1.5-5.2-2.1-7.6-3.6,0-1.3.6-2.4,1.5-3.3-.5-.9-1.5-1.4-2.2-2-.4-.2-.7-.6-1-.8h.2c1.4,0,2.8,0,4,.6l2.9,1.8c1.8,2.1,3.6,4.4,4.8,6.8.8.1,1.5-.1,2.2-.3.6-2.3.2-4.7.9-7,1.3-.3,2.5-.7,3.8-.7l.3-.3.9-3.2c1,2.7.7,5.8-.2,8.5-1.3,2-2.9,3.9-4.6,5.8.8,2.4,1.4,4.9,1.9,7.4,1.9.3,3.8.4,5.8.6,5.8.5,11.2,1.1,16.9,1.5h.1c-.9-2-1.7-3.8-2.1-5.8.6-8.3,2.1-16.4,4.9-23.9,5.5-3.7,11.7-5.9,17.7-8.4.2-1,.1-2.2-.1-3.2-.7-3.9-1.4-7.8-2.6-11.5-1.8-3.1-4.6-5.5-6.8-8.3-.8-2.1-2-4-2.4-6.2v-.3c.1,0,12.9-14.5,12.9-14.5l1.3-1.6c-.1-.4-.6-.8-.9-1.1l-.4.3-17.4,19.6-17.4,20.3-.3.4h-.1c.1-1.6-.2-3.1-1.3-4.2-2-1-4.1-2-6.2-2.6-1.9,2.7-3.9,5.8-6.6,7.9-1.1-.1-2.1-.4-3.2-.7l-.3,14.7h-3.6c0-4.7,0-9.1.2-13.9-.6,0-1.3.4-1.9.7-.6.3-1.1.9-1.8,1.3.3-2.3,2.4-3.9,3.8-5.7,0-2.4,0-4.7.1-7-.1-.6.1-1.3-.1-1.9l-1.9-.4c-.8-1.6-1.3-3.5-2.1-5.1-1.2-.3-2.4-.3-3.7-.4,1.2-.5,2.4-1,3.8-1.3,1.5-.2,2.8,0,4.2-.1v-.2c.1,0,.2-6.9.2-6.9l.3-17.8c.1-6.4.2-12,.3-18.3h-.2c0,0-3.4,2.4-3.4,2.4-1.2-.5-2.4-1-3.5-1.8-1.2.4-2.2,1.4-3.2,2.2.7-2.1,2-3.9,3.3-5.7,2.1-1.8,4.6-2.6,7-3.7.4-1.1,0-2.3.1-3.4-2.1-.1-4.1-.2-5.9-1-1-1.3-1.3-2.9-1.6-4.5-.4-.3-.9-.2-1.4-.4l-2.5-.5c1-.6,2.4-.8,3.6-1,2.8.1,5.7.3,7.8,2.1h.1c0-4.5.3-8.9.3-13.2,1.2,0,2.4,0,3.5,0,0,4.9-.1,10.1-.2,15.4.4.2,1,.2,1.4.1,1.1-1.9,1.9-4.1,2.8-6.1,1.1-.3,2.2-.5,3.3-.7.8-1,1.3-2.2,1.9-3.3.8,1.7.1,3.6,0,5.4l-.4,1.8c-1.6,2.1-3,4.2-4.7,6.2v.2c1.5.9,3,1.8,4.6,2.5.9.1,1.8,0,2.7.1l.7,1.8c5.5,3.1,11.1,5.6,16.6,8.6-.8,4-1.2,8.2-1.8,12.3l-2.1-1.6-16.9-13.2c-1-.2-2.2,0-3.4-.1-.3-.1-.7-.4-.8-.7.2-.9,1-1.8,1.1-2.8-1.1-.9-2.5-1.4-3.8-2.1-.5.4-1,.9-1.4,1.4v1.9c-.1,0-.3,13.1-.3,13.1-.2,10.6-.3,22.4-.5,33.1,1.5,1.2,3.2,2.1,4.8,3,.5-.6,1.9-.7,1.5-1.8l-2.1-5.4c.2-1.7,1.4-3,2.4-4.2.1-1.3-.5-2.4-.7-3.7,1.9,1.1,2.8,3.3,3.7,5.1l.2.7c.1,3.5.1,7.2.3,10.5,1.7,1,3.3,2,5,2.8l1.9-2.8,10.3-16.6,7.5-12h0c-2.3-.1-4.2.6-6.4.2,1.5-5.9,1.5-12.6,3.5-18.3,2.8-4.6,7.8-8,12-11.2,4.4-2.9,8.5-6.5,13.6-7.6,3.5-.7,7-1.3,10.5-1.9.3-.2.6-.7.8-1.2.3-.9.6-1.8.8-2.8h-.2c-3.3-.3-6.9-.2-10.1-.9l2-3.9c-1.1-1.6-2.1-3.3-3.2-4.9v-1.5c.4-.5,1.2-1.1,1.8-1.7-.1-.3-.4-.6-.6-.8l-1.4,1c-.1-.5-.2-1.2-.1-1.9,2.2-1.9,4.6-4,7-5.7l5.3,1.1,13.9,3.2c.7-.1,1.3-.4,1.9-.7l-.3-.2c-7-1.4-13.7-3.1-20.7-4.5-.2-3.5-.4-6.6-.5-10.1.8.3,1.5.8,2,1.5"/>
  <path class="st1" d="M43.9,159.2c3.8.2,7.6.1,11.4.3h.1c-.1,2.7-.1,5.9-.2,8.7-4.5,0-9.1,0-13.3,0-5.6.7-9.3,5.1-13.3,9-1,1.1-1.9,2.2-3,3.3-4.3-8.1-7.3-16.9-7.9-26.4-.1-2.5-.4-5.4,0-7.9,8.1,5.8,16,12.5,26.3,12.9"/>
  <path class="st3" d="M52.8,155c.1,1,0,2,0,3h-3.7c0-1,0-2,0-3h.1c0-.1,3.5,0,3.5,0"/>
  <path d="M129.7,160.6v1.4l-5.9-1.6c-.2,1-.4,2.1-1.4,2.6-1.2.2-2.5.4-3.7,0-1.2-.8-.9-2.3-1.4-3.5-1,0-1.9.6-2.7,1.1-.3-.2-.6-.5-.6-.9l2.5-1.9c4.5.5,8.8,1.9,13.2,2.8"/>
  <path class="st2" d="M122.4,160.1c0,.6-.1,1.2-.4,1.7-.8.4-1.8.4-2.5,0-.6-.6-.7-1.5-.6-2.2,0-.2.3,0,.5-.1l3,.7"/>
  <path d="M142.8,164.3c.4,1.3-.7,2.1-1.5,2.8-.3-.5-.2-1.2-.4-1.9l-1.5-1.2c0-.3.6-.2.8-.4l1-.2c.5.2,1.2.3,1.6.8"/>
  <path d="M100.6,167.9l8.3.8.9,1.4c-.9.1-1.9-.1-2.9-.2l-7.8-.7c-1.2-.3-2.3-1.1-3.4-1.8,0-.4,0-.7.3-1,.3-.2.6,0,.8.1,1.2.8,2.4,1.4,3.8,1.4"/>
  <path d="M123.9,168c.4,1.3.7,2.7.9,4.1-3.5-.2-6.8-.3-10.2-.6l-1.1-3.9c0-.1-.1-.3.1-.4,3.4.3,6.8.4,10.4.8"/>
  <path class="st2" d="M122.6,169.2c.3.4.4,1,.5,1.6-2.6,0-4.7-.3-7.3-.4l-.5-1.5v-.2c.1,0,7.3.5,7.3.5"/>
  <path d="M107.4,194.2c0,.4-.1.9-.3,1.3l-11,1.7c-1.5.3-2.4,1.9-3.1,3l-5.4,8.6c-.4,0-.7-.4-1.1-.5l6.6-10.6c1.9-2.5,5.2-2.1,7.9-2.7,2.1-.3,4.4-.6,6.6-.9"/>
  <path class="st2" d="M55.8,196c0,.9-.8,1.6-1.1,2.4.3.9,1.2,1.2,1.8,1.9h3.1c3.8,2.5,7,5.4,10.6,8.1l8.8,7.2c-.2,1.6-.7,3.1-1.1,4.6v.2c1.8,0,3.7-.1,5.4-.2-1.6,3-3.5,5.9-5.3,8.8l-8.8,14c-1.1,1.6-2.1,3.4-3.2,4.9-1.2-.3-2.2-1-3.3-1.7l-.4-10.2c-.7-1.7-1.3-3.4-2.5-4.9l-2.9-2.7h-1.8c0,.1-.1.3-.1.3.8,1.5,1.5,3.1,1.7,4.8-1.4,1.4-2.1,3.1-2.5,4.9v.5c.9,1.9,1.6,3.8,2.4,5.7-1.3-.9-2.7-1.7-3.8-2.6l.2-14.6c.1-10.2.3-21.8.5-32.2l.5-.2,1.8.9"/>
  <path d="M55.9,250.1c.3.7.2,1.5.3,2.2v.2c-1.7,1-3.3,1.9-4.9,2.9-.1-1.9.1-3.7,0-5.8h.1c1.6,0,3,.2,4.4.4"/>
  <path class="st2" d="M54.7,251.1c.1.4.1.9-.1,1.2-.7.3-1.4.7-2.1,1,0-.8,0-1.6,0-2.4h.2c0-.1,1.9.2,1.9.2"/>
</svg>