<svg xmlns="http://www.w3.org/2000/svg" viewBox="0 0 44 39"><path d="M40.4 16.8c.7-.7 1-1.5.9-2.2-.1-1.2-1-1.9-1-1.9s-2.5-2.3-3.5-3.3C35.4 8 34 7.6 32.7 8.2c-1.2.5-2 .7-4.8.1-3.1-.7-5.9 1.4-6.1 1.6l-.1-.1c-.1-.1-2.9-2.3-6.1-1.5-2.8.6-3.6.5-4.8 0-1.2-.7-2.6-.3-4.1 1l-3.5 3.3s-.9.8-1 2c0 .8.3 1.5 1 2.2 1.5 1.5 4.5 4.4 5.4 5.4l-.4.4c-.5.4-.8 1-.9 1.7s.1 1.3.6 1.8c.4.5.9.7 1.5.8-.4.8-.2 1.8.4 2.6.5.6 1.2.9 1.9.9.3 0 .6-.1.9-.2 0 .5.2 1 .6 1.4.4.5 1 .8 1.7.9h.2c.6 0 1.2-.2 1.6-.6l1-.8c.1.4.2.9.6 1.3.5.6 1.2.9 1.9.9.6 0 1.1-.2 1.6-.6l2.3-1.9 1.7 1.6c.4.4 1 .6 1.6.6.6 0 1.2-.3 1.6-.7l.3-.3c.3-.3.5-.7.6-1.1.3.2.7.3 1.2.3.6 0 1.2-.3 1.6-.7l.3-.3c.4-.4.6-.8.6-1.3.2.1.4.1.7.1.6 0 1.2-.3 1.6-.7l.3-.3c.4-.4.7-1 .6-1.6 0-.4-.1-.8-.3-1.1.4-.1.8-.3 1.1-.6l.3-.3c.9-.9.9-2.4 0-3.2l-.9-.9c1-1.1 2.5-2.6 3.4-3.5zM4 16c-.4-.5-.6-.9-.6-1.3.1-.7.6-1.2.6-1.2l3.5-3.3c.9-.9 1.6-1.1 2.1-1.1.3 0 .5.1.7.2 1.4.6 2.5.8 5.5.1 2.6-.6 5 1.3 5.1 1.4l4.8 2.8c.3.2.5.5.6.8s0 .7-.1 1c-.4.6-1.2.8-1.8.5L22 14.5c-2.5-1.3-4.6.4-4.8.5l-7.7 6.5c-.8-.9-3.9-3.9-5.5-5.5zm24.4 15.3l-.3.3c-.2.2-.5.3-.8.3s-.6-.1-.8-.3l-2-1.9c-.2-.2-.3-.5-.3-.8s.1-.6.3-.8l.3-.3c.2-.2.5-.3.8-.3.3 0 .5.1.7.3l2 2c.5.4.5 1.1.1 1.5zm3.7-1.8l-.3.3c-.2.2-.5.3-.8.3s-.6-.1-.8-.3l-.9-.8-.1-.1-2-1.9c-.2-.2-.3-.5-.3-.7 0-.3.1-.6.3-.8l.3-.3c.2-.2.5-.3.8-.3.3 0 .6.1.8.3l3 2.9c.4.3.4 1 0 1.4zm3.2-2.1l-.3.3c-.2.2-.5.3-.8.3s-.6-.1-.8-.3l-.6-.6-3-2.9-.7-.7c-.2-.2-.3-.5-.3-.8s.1-.6.3-.8l.3-.3c.2-.2.5-.3.8-.3.3 0 .6.1.8.3l.3.3 1.3 1.2 2.7 2.6c.2.2.3.5.3.8 0 .4-.1.7-.3.9zm1.7-3.7l-.3.3c-.4.4-1.1.4-1.6 0l-1.6-1.5-1.4-1.4c-.2-.2-.3-.5-.3-.8s.1-.6.3-.8l.3-.3c.2-.2.5-.3.8-.3.3 0 .6.1.8.3l3 2.9c.4.4.4 1.1 0 1.6zm-1-4.2l-1.2-1.2c-.4-.4-1-.6-1.6-.6-.6 0-1.2.3-1.6.7l-.3.3c-.4.4-.6.9-.6 1.5h-.4c-.6 0-1.2.3-1.6.7l-.3.3c-.4.4-.7 1-.6 1.6 0 .3.1.6.2.8-.5.1-.9.3-1.2.6l-.3.3c-.4.4-.7 1-.6 1.6v.1h-.1c-.6 0-1.2.3-1.6.7l-.3.3c-.4.4-.7 1-.6 1.6 0 .3.1.7.2 1l-2.5 2c-.6.5-1.4.4-1.9-.2-.5-.6-.4-1.4.2-1.9l5.9-4.9-.8-.9-2.6 2.2-5.9 4.9c-.3.2-.6.3-1 .3s-.7-.2-.9-.5-.3-.6-.3-1 .2-.7.5-.9l4.9-4.2 2.8-2.4-.8-.9-7.8 6.5-.9.8c-.6.5-1.4.4-1.9-.2s-.4-1.4.2-1.9l.6-.5 7.2-6.1-.8-.9-7.2 6.1c-.6.5-1.4.4-1.9-.2-.2-.3-.3-.6-.3-1s.2-.7.5-.9l9.1-7.6c.1-.1 1.7-1.3 3.5-.3l2.4 1.3c1.2.7 2.7.3 3.4-.9.3-.6.4-1.2.3-1.9-.2-.6-.6-1.2-1.2-1.5l-3.5-2c.8-.5 2.7-1.5 4.7-1.1 3 .7 4.1.5 5.5-.1.5-.2 1.4-.4 2.9 1 1 1 3.5 3.3 3.5 3.3s.5.5.6 1.1c0 .4-.2.9-.6 1.3-.8 1.2-2.2 2.7-3.4 3.8z"/></svg>
