<svg xmlns="http://www.w3.org/2000/svg" viewBox="0 0 24 36"><g fill="#022F51" fill-rule="nonzero"><path d="M19.2 29.6H5c-2.7 0-4.9-2.2-4.9-4.9V10.8C.1 8.1 2.3 5.9 5 5.9h14.2c2.7 0 4.9 2.2 4.9 4.9v13.9c.1 2.7-2.2 4.9-4.9 4.9zM5 6.9c-2.2 0-3.9 1.8-3.9 3.9v13.9c0 2.2 1.8 3.9 3.9 3.9h14.2c2.2 0 3.9-1.8 3.9-3.9V10.8c0-2.2-1.8-3.9-3.9-3.9H5z"/><path d="M12.3 25.2H10.4c-1.1 0-2-.3-2.7-1l-.1-.1c-.1-.1-.3-.2-.4-.3-1-.9-1.5-2-1.4-3.4.1-1.5 0-3 0-4.5v-1.2c0-.8.2-1.4.7-2 .7-.8 1.4-1.4 2-1.7.4-.2.8-.4 1.5-.4.1 0 3.3 0 5 .1 1 0 1.7.7 2.4 1.3l.3.3c.8.8 1.2 1.8 1.2 2.9v3.1c0 1-.3 1.2-1.2 1.2H9.5v.7c0 .9.7 1.6 1.6 1.6h2.5c.8 0 1.3-.3 1.7-.9.4-.5.8-.7 1.4-.4l.9.3.5.2c.4.1.5.4.6.5 0 .1.1.4-.1.7-.8 1.2-1.6 2.3-3.2 2.7-.3.1-.7.1-1.1.1-.8.2-1.4.2-2 .2zM9.9 11.5c-.4 0-.7.2-1 .3-.5.3-1.1.8-1.7 1.5-.3.4-.5.8-.5 1.4v5.8c0 1.1.3 1.9 1.1 2.6.1.1.3.2.4.4l.1.1c.5.5 1.2.7 2 .7H14c.3 0 .6 0 .9-.1 1.1-.3 1.8-1.1 2.4-2.1L17 22c-.3-.1-.6-.2-.9-.4H16l-.1.1c-.6.9-1.4 1.3-2.5 1.3h-2.5c-1.5 0-2.6-1.1-2.6-2.6v-.3-.5c0-.3.1-.6.2-.7.3-.3.7-.3.8-.3H17.7V15.2c0-.9-.2-1.6-.9-2.2l-.3-.3c-.5-.5-1-1-1.7-1-1.6-.2-4.8-.2-4.9-.2zm-.7 5.7c-.1 0-.5 0-.7-.3-.2-.2-.2-.4-.2-.7v-1.1c0-1.1 1.1-2.3 2.2-2.4H14c1.1 0 2.2 1.3 2.2 2.4v1.1c0 .3-.1.5-.2.7-.3.3-.6.3-.7.3H9.2zm4.6-1h1.3v-1.1c0-.6-.7-1.4-1.3-1.4h-3.4c-.5 0-1.2.8-1.2 1.4v1.1H13.8z"/></g></svg>
