<svg xmlns="http://www.w3.org/2000/svg" viewBox="0 0 36 36" fill="none"><path d="M21.218 15.242c0-1.926-1.476-3.276-3.366-3.276-1.944 0-3.384 1.458-3.384 3.294h1.296c0-1.134.81-2.142 2.088-2.142 1.206 0 2.07.918 2.07 2.124 0 .612-.252 1.026-.594 1.53l-1.458 2.106c-.378.54-.558.99-.558 1.692v.72h1.296v-.702c0-.288.108-.72.324-1.044l1.476-2.124c.468-.684.81-1.332.81-2.178zm-2.484 9.648v-1.512h-1.548v1.512h1.548z" fill="#000"/><path fill-rule="evenodd" clip-rule="evenodd" d="M17.96 6.48c-6.351 0-11.5 5.149-11.5 11.5s5.149 11.5 11.5 11.5 11.5-5.149 11.5-11.5-5.149-11.5-11.5-11.5zm-12.5 11.5c0-6.904 5.596-12.5 12.5-12.5s12.5 5.596 12.5 12.5-5.596 12.5-12.5 12.5-12.5-5.596-12.5-12.5z" fill="#000"/></svg>
