<svg xmlns="http://www.w3.org/2000/svg" viewBox="0 0 36 36" fill="none"><path fill-rule="evenodd" clip-rule="evenodd" d="M17.96 5.48c-6.904 0-12.5 5.596-12.5 12.5s5.596 12.5 12.5 12.5 12.5-5.596 12.5-12.5-5.596-12.5-12.5-12.5zm-.108 6.486c1.89 0 3.366 1.35 3.366 3.276 0 .846-.342 1.494-.81 2.178l-1.476 2.124a2.064 2.064 0 0 0-.324 1.044v.702h-1.296v-.72c0-.702.18-1.152.558-1.692l1.458-2.106c.342-.504.594-.918.594-1.53 0-1.206-.864-2.124-2.07-2.124-1.278 0-2.088 1.008-2.088 2.142h-1.296c0-1.836 1.44-3.294 3.384-3.294zm.882 11.412v1.512h-1.548v-1.512h1.548z" fill="#000"/></svg>
