<svg xmlns="http://www.w3.org/2000/svg" viewBox="0 0 35 36" fill="none"><path d="M8.544 7.433l-.122.123a4.926 4.926 0 0 0-.007 6.917l4.819 4.872c.203.205.433.397.67.568a6.158 6.158 0 0 1 .014-1.526l-4.684-4.735a3.721 3.721 0 0 1-1.076-2.634c0-.999.386-1.936 1.076-2.634l.122-.123a3.64 3.64 0 0 1 2.605-1.088c.989 0 1.916.39 2.606 1.088l4.818 4.864a3.72 3.72 0 0 1 1.076 2.635c0 .999-.385 1.936-1.076 2.634l-.121.123c-.494.5-1.11.842-1.794.999.054.397.197.766.42 1.095a4.853 4.853 0 0 0 2.186-1.266l.122-.123a4.88 4.88 0 0 0 1.414-3.462c0-1.307-.5-2.539-1.414-3.463l-4.819-4.871a4.8 4.8 0 0 0-6.835.007z" fill="#000"/><path d="M27.817 27.567l.122-.123a4.926 4.926 0 0 0 .007-6.917l-4.819-4.872a5.388 5.388 0 0 0-.67-.568 6.158 6.158 0 0 1-.014 1.526l4.684 4.735a3.721 3.721 0 0 1 1.076 2.634c0 .999-.386 1.936-1.076 2.634l-.122.123a3.64 3.64 0 0 1-2.605 1.088c-.988 0-1.915-.39-2.606-1.088l-4.818-4.864A3.72 3.72 0 0 1 15.9 19.24c0-.999.385-1.936 1.076-2.634l.122-.123c.494-.5 1.11-.842 1.793-.999a2.545 2.545 0 0 0-.42-1.095 4.853 4.853 0 0 0-2.186 1.266l-.121.123a4.88 4.88 0 0 0-1.415 3.462c0 1.307.501 2.539 1.415 3.463l4.818 4.871a4.8 4.8 0 0 0 6.835-.007z" fill="#000"/></svg>
