<svg xmlns="http://www.w3.org/2000/svg" viewBox="0 0 23 36" fill="none"><g clip-path="url(#clip0)" fill="#000"><path d="M16.04 19.95h-5.345v-8.18h.966v7.213h4.38v.966z"/><path d="M11.532 28C6.251 28 2 23.75 2 18.532 2 13.315 6.25 9 11.532 9a9.51 9.51 0 0 1 9.532 9.532c0 5.282-4.315 9.468-9.532 9.468zm0-18.034a8.521 8.521 0 0 0-8.566 8.566c0 4.766 3.8 8.502 8.566 8.502 4.766 0 8.502-3.8 8.502-8.502 0-4.701-3.8-8.566-8.502-8.566z"/></g><defs><clipPath id="clip0"><path fill="#fff" transform="translate(2 9)" d="M0 0h19v19H0z"/></clipPath></defs></svg>
