<svg xmlns="http://www.w3.org/2000/svg" data-name="Layer 1" viewBox="0 0 22 36"><path d="M20.9 7.81a11.67 11.67 0 0 0-4-4.6 10.31 10.31 0 0 0-5.4-1.63 11 11 0 0 0-6.4 1.71 10 10 0 0 0-2.48 2.2 9.36 9.36 0 0 0-1.3 1.91 11.2 11.2 0 0 0-1 2.76 10 10 0 0 0-.21 3.74 11.36 11.36 0 0 0 1.73 4.66c.1.15.18.29.26.43L11 34.45l9-15.56a11.37 11.37 0 0 0 1.93-5 10 10 0 0 0-1.03-6.08zm-.4 5.92a10.34 10.34 0 0 1-1.85 4.63L11 31.64 3.18 18.05l-.13-.23a9.86 9.86 0 0 1-1.56-4.15 9 9 0 0 1 .17-3.23 9.57 9.57 0 0 1 .9-2.4 8.39 8.39 0 0 1 1.15-1.67 8.42 8.42 0 0 1 2.15-1.89A9.59 9.59 0 0 1 11.37 3a9 9 0 0 1 4.74 1.43 10.23 10.23 0 0 1 3.54 4 8.88 8.88 0 0 1 .85 5.3z"/><path d="M10.88 7.59a5.18 5.18 0 1 0 5.17 5.18 5.19 5.19 0 0 0-5.17-5.18zm0 9a3.77 3.77 0 1 1 3.77-3.77 3.77 3.77 0 0 1-3.77 3.72z"/></svg>
