<svg xmlns="http://www.w3.org/2000/svg" data-name="Layer 1" viewBox="0 0 22 36"><path d="M10.7 12.33a3.47 3.47 0 0 0-2.38.81 2.69 2.69 0 0 0-.93 2.1h1.49a1.48 1.48 0 0 1 .5-1.17 1.93 1.93 0 0 1 1.32-.43 1.65 1.65 0 0 1 1.29.48 1.85 1.85 0 0 1 .44 1.32 2.44 2.44 0 0 1-.67 1.64l-1.06 1.09a3.85 3.85 0 0 0-.82 1.23 4.93 4.93 0 0 0-.22 1.51h1.49a2.71 2.71 0 0 1 .59-1.91l.88-.87a4 4 0 0 0 1.3-2.78 2.94 2.94 0 0 0-.85-2.24 3.24 3.24 0 0 0-2.37-.78zM10.48 22.61a.81.81 0 0 0-.88.86.84.84 0 0 0 .22.6.86.86 0 0 0 .66.24.86.86 0 0 0 .66-.24.84.84 0 0 0 .22-.6.81.81 0 0 0-.88-.86z"/><path d="M11 7a11 11 0 1 0 11 11A11 11 0 0 0 11 7zm0 21a10 10 0 1 1 10-10 10 10 0 0 1-10 10z"/></svg>
