<svg xmlns="http://www.w3.org/2000/svg" viewBox="0 0 96 39" fill="none" class="w-16.5 lg:w-[81px] aspect-[2.61/1] text-neutral-000"><path d="M93.5759 19.7352C91.6669 17.2589 88.8542 15.9495 85.4434 15.9495C82.7516 15.9495 80.2571 17.8618 79.2644 19.6704V0.411079L79.1816 0.424044C77.4953 0.741683 75.5099 0.897262 73.1045 0.897262H71.7872V2.25857H74.8863V36.3043H67.8928V15.9171L67.8037 15.9365C65.7992 16.4227 63.6165 16.4681 61.7329 16.4681H60.4156V17.8294H63.5147V29.6663C63.5147 33.5946 60.7147 36.5571 57.0048 36.5571C54.8285 36.5571 53.7658 35.2995 53.7594 32.713V21.3234C53.7594 16.6366 49.6613 15.9365 47.2241 15.9365C43.7178 15.9365 41.3569 17.6738 39.5751 21.5568V0.411079L39.4924 0.424044C37.8061 0.741683 35.8207 0.897262 33.4216 0.897262H32.2062V2.25857H35.197V36.2978H28.1844V0.411079L28.1017 0.424044C26.4154 0.748166 24.4236 0.903744 22.0245 0.903744H19.6191V2.27154H23.8063V36.3043H20.8282V37.6656H42.5405V36.3043H39.5688V26.4899C39.5688 22.4773 42.4451 17.6284 46.0214 17.6284C48.2486 17.6284 49.3749 18.6202 49.3749 22.0235V33.4715L49.394 33.5428C49.534 36.8229 51.6467 38.4176 55.8594 38.4176C59.3848 38.4176 62.3438 36.6738 63.7819 33.7502V37.6721H79.048V36.2395V34.4309C80.5307 36.8229 83.057 38.3657 85.5006 38.3657C88.3706 38.3657 91.0178 37.2572 92.9523 35.2347C94.925 33.1733 96.0068 30.2951 96.0068 27.1317C96.0068 24.435 95.1223 21.7448 93.5823 19.7417L93.5759 19.7352ZM85.4943 37.1016C84.8388 37.1016 79.0989 36.8877 79.0989 29.569C79.0989 27.6827 78.9207 24.1497 79.4426 22.1207C79.9389 20.2019 81.9561 17.1487 85.4943 17.1487C90.916 17.1487 90.916 23.5015 90.916 26.9113C90.916 30.9693 90.916 37.1016 85.4943 37.1016Z" fill="currentColor"></path><path d="M20.5923 30.6582H19.256L19.2433 30.7165C18.4606 34.4698 14.6997 37.0822 11.8107 37.0822C9.11255 37.0822 7.31804 36.1488 6.33806 34.2235C5.38353 32.3565 5.2499 29.7701 5.2499 27.2484V25.0508H20.6305V24.9795C20.6051 22.043 19.6187 19.5408 17.7797 17.7387C16.0106 16.0079 13.5288 15.0549 10.7798 15.0549C7.72531 15.0549 4.94445 16.4163 2.94631 18.8861C1.04998 21.2327 0 24.3443 0 27.6373C0 34.0744 5.65716 38.3917 10.9389 38.3917C16.2206 38.3917 19.5487 35.6042 20.5732 30.7489L20.5923 30.6646V30.6582ZM5.84171 19.7353C5.98807 19.2037 7.50895 16.2996 10.6143 16.2996C12.8607 16.2996 15.5461 17.2006 15.5461 21.4855V23.2941H5.30717C5.37081 21.8356 5.54898 20.6363 5.84807 19.7288L5.84171 19.7353Z" fill="currentColor"></path></svg>