<?xml version="1.0" encoding="UTF-8"?>
<svg id="strek" xmlns="http://www.w3.org/2000/svg" viewBox="0 0 353.74 73.73">
  <defs>
    <style>
      .cls-1 {
        fill: #231f20;
      }
    </style>
  </defs>
  <path class="cls-1" d="M33.82,44.69h-6.59l-1.27,4.43h-5.32l7.18-21.11h5.43l7.18,21.11h-5.32l-1.3-4.43ZM30.52,32.81s-.47,2.3-.86,3.63l-1.21,4.11h4.16l-1.18-4.11c-.38-1.33-.86-3.63-.86-3.63h-.06Z"/>
  <path class="cls-1" d="M45.17,28h7.5c6.64,0,10.9,3.87,10.9,10.51s-4.25,10.6-10.9,10.6h-7.5v-21.11ZM52.46,44.69c3.57,0,5.76-2.13,5.76-6.17s-2.27-6.08-5.76-6.08h-2.13v12.26h2.13Z"/>
  <path class="cls-1" d="M65.79,28h5.61l3.72,12.02c.41,1.33.8,3.4.8,3.4h.06s.38-2.07.8-3.4l3.78-12.02h5.52l-7.44,21.11h-5.37l-7.47-21.11Z"/>
  <path class="cls-1" d="M99.23,27.65c6.38,0,11.04,4.72,11.04,10.78s-4.67,11.04-11.04,11.04-11.04-4.84-11.04-11.04,4.67-10.78,11.04-10.78ZM99.23,44.74c3.16,0,5.7-2.72,5.7-6.32s-2.54-6.05-5.7-6.05-5.7,2.6-5.7,6.05,2.54,6.32,5.7,6.32Z"/>
  <path class="cls-1" d="M115.15,28h5.17v8.15h2.13l4.37-8.15h5.55l-5.7,10.1v.06l6.02,10.96h-5.79l-4.46-8.56h-2.13v8.56h-5.17v-21.11Z"/>
  <path class="cls-1" d="M149.52,44.69h-6.59l-1.27,4.43h-5.32l7.18-21.11h5.43l7.18,21.11h-5.32l-1.3-4.43ZM146.22,32.81s-.47,2.3-.86,3.63l-1.21,4.11h4.16l-1.18-4.11c-.38-1.33-.86-3.63-.86-3.63h-.06Z"/>
  <path class="cls-1" d="M163.79,32.43h-6.41v-4.43h17.98v4.43h-6.41v16.68h-5.17v-16.68Z"/>
  <path class="cls-1" d="M185.23,32.43h-6.41v-4.43h17.98v4.43h-6.41v16.68h-5.17v-16.68Z"/>
  <path class="cls-1" d="M201.78,28h5.17v21.11h-5.17v-21.11Z"/>
  <path class="cls-1" d="M214.27,28h5.17v16.68h8.62v4.43h-13.79v-21.11Z"/>
  <path class="cls-1" d="M234.41,42.53s2.39,2.19,5.05,2.19c1.06,0,2.22-.41,2.22-1.68,0-2.51-9.51-2.42-9.51-8.92,0-3.9,3.28-6.47,7.47-6.47,4.55,0,6.79,2.39,6.79,2.39l-2.18,4.22s-2.13-1.86-4.67-1.86c-1.06,0-2.24.47-2.24,1.65,0,2.66,9.51,2.19,9.51,8.86,0,3.51-2.69,6.56-7.44,6.56s-7.71-3.01-7.71-3.01l2.72-3.93Z"/>
  <path class="cls-1" d="M257.12,40.46l-6.97-12.46h5.88l2.39,5.08c.68,1.45,1.27,3.04,1.27,3.04h.06s.59-1.59,1.27-3.04l2.36-5.08h5.88l-6.97,12.46v8.65h-5.17v-8.65Z"/>
  <path class="cls-1" d="M273.99,28h5.23l5.85,9.86c.83,1.39,1.77,3.6,1.77,3.6h.06s-.24-2.27-.24-3.6v-9.86h5.17v21.11h-5.2l-5.88-9.83c-.83-1.39-1.77-3.6-1.77-3.6h-.06s.24,2.27.24,3.6v9.83h-5.17v-21.11Z"/>
  <path class="cls-1" d="M299.15,28h13.23v4.43h-8.06v3.84h6.44v4.43h-6.44v3.99h8.48v4.43h-13.64v-21.11Z"/>
  <path class="cls-1" d="M322.93,32.43h-6.41v-4.43h17.98v4.43h-6.41v16.68h-5.17v-16.68Z"/>
</svg>