<?xml version="1.0" encoding="utf-8"?>
<!-- Generator: Adobe Illustrator 23.0.1, SVG Export Plug-In . SVG Version: 6.00 Build 0)  -->
<svg version="1.1" id="NO__x2F__Blue" xmlns="http://www.w3.org/2000/svg" xmlns:xlink="http://www.w3.org/1999/xlink" x="0px"
	 y="0px" viewBox="0 0 82 80" style="enable-background:new 0 0 82 80;" xml:space="preserve">
<style type="text/css">
	.st0{fill:#1775F8;}
	.st1{opacity:0.9;fill:#1775F8;}
	.st2{opacity:0.7;}
	.st3{opacity:0.4;}
	.st4{opacity:0.25;}
	.st5{opacity:0.15;}
</style>
<g>
	<rect x="36.09" y="38.02" class="st0" width="2" height="4"/>
	<rect x="36.09" y="34.02" class="st0" width="2" height="4"/>
	<rect x="36.09" y="42.02" class="st0" width="2" height="4"/>
	<rect x="40.09" y="38.02" class="st0" width="2" height="4"/>
	<rect x="40.09" y="34.02" class="st0" width="2" height="4"/>
	<rect x="40.09" y="42.02" class="st0" width="2" height="4"/>
	<rect x="44.09" y="38.02" class="st0" width="2" height="4"/>
	<rect x="44.09" y="34.02" class="st0" width="2" height="4"/>
	<rect x="44.09" y="42.02" class="st0" width="2" height="4"/>
</g>
<g>
	<rect x="32.09" y="38.02" class="st1" width="2" height="4"/>
	<rect x="32.09" y="34.02" class="st1" width="2" height="4"/>
	<rect x="32.09" y="42.02" class="st1" width="2" height="4"/>
	<rect x="36.09" y="30.02" class="st1" width="2" height="4"/>
	<rect x="36.09" y="46.02" class="st1" width="2" height="4"/>
	<rect x="40.09" y="30.02" class="st1" width="2" height="4"/>
	<rect x="40.09" y="46.02" class="st1" width="2" height="4"/>
	<rect x="44.09" y="30.02" class="st1" width="2" height="4"/>
	<rect x="44.09" y="46.02" class="st1" width="2" height="4"/>
	<rect x="48.09" y="38.02" class="st1" width="2" height="4"/>
	<rect x="48.09" y="34.02" class="st1" width="2" height="4"/>
	<rect x="48.09" y="42.02" class="st1" width="2" height="4"/>
</g>
<g class="st2">
	<rect x="28.09" y="38.02" class="st0" width="2" height="4"/>
	<rect x="28.09" y="34.02" class="st0" width="2" height="4"/>
	<rect x="28.09" y="42.02" class="st0" width="2" height="4"/>
	<rect x="32.09" y="30.02" class="st0" width="2" height="4"/>
	<rect x="32.09" y="46.02" class="st0" width="2" height="4"/>
	<rect x="36.09" y="26.02" class="st0" width="2" height="4"/>
	<rect x="36.09" y="50.02" class="st0" width="2" height="4"/>
	<rect x="40.09" y="26.02" class="st0" width="2" height="4"/>
	<rect x="40.09" y="50.02" class="st0" width="2" height="4"/>
	<rect x="44.09" y="26.02" class="st0" width="2" height="4"/>
	<rect x="44.09" y="50.02" class="st0" width="2" height="4"/>
	<rect x="48.09" y="30.02" class="st0" width="2" height="4"/>
	<rect x="48.09" y="46.02" class="st0" width="2" height="4"/>
	<rect x="52.09" y="38.02" class="st0" width="2" height="4"/>
	<rect x="52.09" y="34.02" class="st0" width="2" height="4"/>
	<rect x="52.09" y="42.02" class="st0" width="2" height="4"/>
</g>
<g class="st3">
	<rect x="24.09" y="38.02" class="st0" width="2" height="4"/>
	<rect x="24.09" y="34.02" class="st0" width="2" height="4"/>
	<rect x="24.09" y="30.02" class="st0" width="2" height="4"/>
	<rect x="24.09" y="42.02" class="st0" width="2" height="4"/>
	<rect x="24.09" y="46.02" class="st0" width="2" height="4"/>
	<rect x="28.09" y="30.02" class="st0" width="2" height="4"/>
	<rect x="28.09" y="26.02" class="st0" width="2" height="4"/>
	<rect x="28.09" y="46.02" class="st0" width="2" height="4"/>
	<rect x="28.09" y="50.02" class="st0" width="2" height="4"/>
	<rect x="32.09" y="26.02" class="st0" width="2" height="4"/>
	<rect x="32.09" y="50.02" class="st0" width="2" height="4"/>
	<rect x="36.09" y="22.02" class="st0" width="2" height="4"/>
	<rect x="36.09" y="54.02" class="st0" width="2" height="4"/>
	<rect x="40.09" y="22.02" class="st0" width="2" height="4"/>
	<rect x="40.09" y="54.02" class="st0" width="2" height="4"/>
	<rect x="44.09" y="22.02" class="st0" width="2" height="4"/>
	<rect x="44.09" y="54.02" class="st0" width="2" height="4"/>
	<rect x="48.09" y="26.02" class="st0" width="2" height="4"/>
	<rect x="48.09" y="50.02" class="st0" width="2" height="4"/>
	<rect x="52.09" y="30.02" class="st0" width="2" height="4"/>
	<rect x="52.09" y="26.02" class="st0" width="2" height="4"/>
	<rect x="52.09" y="46.02" class="st0" width="2" height="4"/>
	<rect x="52.09" y="50.02" class="st0" width="2" height="4"/>
	<rect x="56.09" y="38.02" class="st0" width="2" height="4"/>
	<rect x="56.09" y="34.02" class="st0" width="2" height="4"/>
	<rect x="56.09" y="30.02" class="st0" width="2" height="4"/>
	<rect x="56.09" y="42.02" class="st0" width="2" height="4"/>
	<rect x="56.09" y="46.02" class="st0" width="2" height="4"/>
</g>
<g class="st4">
	<rect x="56.09" y="26.02" class="st0" width="2" height="4"/>
	<rect x="56.09" y="50.02" class="st0" width="2" height="4"/>
	<rect x="20.09" y="38.02" class="st0" width="2" height="4"/>
	<rect x="20.09" y="34.02" class="st0" width="2" height="4"/>
	<rect x="20.09" y="42.02" class="st0" width="2" height="4"/>
	<rect x="24.09" y="26.02" class="st0" width="2" height="4"/>
	<rect x="24.09" y="50.02" class="st0" width="2" height="4"/>
	<rect x="28.09" y="22.02" class="st0" width="2" height="4"/>
	<rect x="28.09" y="54.02" class="st0" width="2" height="4"/>
	<rect x="32.09" y="22.02" class="st0" width="2" height="4"/>
	<rect x="32.09" y="54.02" class="st0" width="2" height="4"/>
	<rect x="36.09" y="18.02" class="st0" width="2" height="4"/>
	<rect x="36.09" y="58.02" class="st0" width="2" height="4"/>
	<rect x="40.09" y="18.02" class="st0" width="2" height="4"/>
	<rect x="40.09" y="58.02" class="st0" width="2" height="4"/>
	<rect x="44.09" y="18.02" class="st0" width="2" height="4"/>
	<rect x="44.09" y="58.02" class="st0" width="2" height="4"/>
	<rect x="48.09" y="22.02" class="st0" width="2" height="4"/>
	<rect x="48.09" y="54.02" class="st0" width="2" height="4"/>
	<rect x="52.09" y="22.02" class="st0" width="2" height="4"/>
	<rect x="52.09" y="54.02" class="st0" width="2" height="4"/>
	<rect x="60.09" y="38.02" class="st0" width="2" height="4"/>
	<rect x="60.09" y="34.02" class="st0" width="2" height="4"/>
	<rect x="60.09" y="42.02" class="st0" width="2" height="4"/>
</g>
<g class="st5">
	<rect x="20.09" y="30.02" class="st0" width="2" height="4"/>
	<rect x="20.09" y="46.02" class="st0" width="2" height="4"/>
	<rect x="60.09" y="30.02" class="st0" width="2" height="4"/>
	<rect x="60.09" y="46.02" class="st0" width="2" height="4"/>
	<rect x="16.09" y="38.02" class="st0" width="2" height="4"/>
	<rect x="16.09" y="34.02" class="st0" width="2" height="4"/>
	<rect x="16.09" y="42.02" class="st0" width="2" height="4"/>
	<rect x="24.09" y="22.02" class="st0" width="2" height="4"/>
	<rect x="24.09" y="54.02" class="st0" width="2" height="4"/>
	<rect x="28.09" y="18.02" class="st0" width="2" height="4"/>
	<rect x="28.09" y="58.02" class="st0" width="2" height="4"/>
	<rect x="32.09" y="18.02" class="st0" width="2" height="4"/>
	<rect x="32.09" y="58.02" class="st0" width="2" height="4"/>
	<rect x="36.09" y="14.02" class="st0" width="2" height="4"/>
	<rect x="36.09" y="62.02" class="st0" width="2" height="4"/>
	<rect x="40.09" y="14.02" class="st0" width="2" height="4"/>
	<rect x="40.09" y="62.02" class="st0" width="2" height="4"/>
	<rect x="44.09" y="14.02" class="st0" width="2" height="4"/>
	<rect x="44.09" y="62.02" class="st0" width="2" height="4"/>
	<rect x="48.09" y="18.02" class="st0" width="2" height="4"/>
	<rect x="48.09" y="58.02" class="st0" width="2" height="4"/>
	<rect x="52.09" y="18.02" class="st0" width="2" height="4"/>
	<rect x="52.09" y="58.02" class="st0" width="2" height="4"/>
	<rect x="56.09" y="22.02" class="st0" width="2" height="4"/>
	<rect x="56.09" y="54.02" class="st0" width="2" height="4"/>
	<rect x="20.09" y="26.02" class="st0" width="2" height="4"/>
	<rect x="60.09" y="26.02" class="st0" width="2" height="4"/>
	<rect x="20.09" y="50.02" class="st0" width="2" height="4"/>
	<rect x="60.09" y="50.02" class="st0" width="2" height="4"/>
	<rect x="64.09" y="38.02" class="st0" width="2" height="4"/>
	<rect x="64.09" y="34.02" class="st0" width="2" height="4"/>
	<rect x="64.09" y="42.02" class="st0" width="2" height="4"/>
</g>
</svg>
