<?xml version="1.0" encoding="utf-8"?>
<!-- Generator: Adobe Illustrator 23.0.1, SVG Export Plug-In . SVG Version: 6.00 Build 0)  -->
<svg version="1.1" id="NO__x2F__Blue" xmlns="http://www.w3.org/2000/svg" xmlns:xlink="http://www.w3.org/1999/xlink" x="0px"
	 y="0px" viewBox="0 0 387 80" style="enable-background:new 0 0 387 80;" xml:space="preserve">
<style type="text/css">
	.st0{fill:#1775F8;}
	.st1{opacity:0.1;fill:#1775F8;}
	.st2{opacity:0.05;fill:#1775F8;}
	.st3{opacity:0.15;fill:#1775F8;}
	.st4{opacity:0.12;fill:#1775F8;}
	.st5{opacity:0.35;fill:#1775F8;}
	.st6{opacity:0.3;fill:#1775F8;}
	.st7{opacity:0.2;fill:#1775F8;}
	.st8{opacity:0.18;fill:#1775F8;}
	.st9{opacity:0.6;fill:#1775F8;}
	.st10{opacity:0.08;fill:#1775F8;}
	.st11{opacity:0.85;fill:#1775F8;}
	.st12{opacity:0.25;fill:#1775F8;}
</style>
<g>
	<path class="st0" d="M91.55,26.04H81.02v28.05h10.53c8.25,0,12.98-5.11,12.98-14.02S99.8,26.04,91.55,26.04z M91.55,50.55h-6.68
		V29.58h6.68c3.39,0,9.09,1.36,9.09,10.49C100.64,46.73,97.33,50.55,91.55,50.55z"/>
	<path class="st0" d="M121.99,38.23L121.99,38.23c-1.51-0.33-4.32-0.87-5.24-1.05c-2.36-0.5-4.55-1.32-4.55-3.86
		c0-1.96,1.56-4.24,5.95-4.24c3.7,0,5.74,1.32,6.42,4.17l0.03,0.14h3.88l-0.03-0.2c-0.66-4.71-4.57-7.64-10.22-7.64
		c-5.93,0-9.91,3.16-9.91,7.86c0,3.79,2.37,6.28,6.85,7.2l0.59,0.12c1.47,0.29,3.69,0.74,4.87,1.01c3.15,0.67,4.55,2.08,4.55,4.56
		c0,2.91-2.59,4.78-6.61,4.78c-3.07,0-6.87-0.85-7.58-4.89l-0.03-0.15h-3.88l0.02,0.2c0.49,5.09,4.93,8.38,11.31,8.38
		c5.3,0,10.65-2.6,10.65-8.4C129.07,41.91,126.75,39.31,121.99,38.23z"/>
	<path class="st0" d="M146.33,26.04h-6.15l-9.7,28.05h3.95l2.87-8.49h11.88l2.87,8.49h4.03L146.33,26.04z M143.86,29.97l4.1,12.09
		h-9.5l4.11-12.09H143.86z"/>
</g>
<g>
	<g>
		<rect x="23.01" y="38.02" class="st1" width="2" height="4"/>
		<rect x="23.01" y="34.02" class="st2" width="2" height="4"/>
		<rect x="23.01" y="42.02" class="st2" width="2" height="4"/>
	</g>
	<g>
		<rect x="27.01" y="38.02" class="st3" width="2" height="4"/>
		<rect x="27.01" y="34.02" class="st4" width="2" height="4"/>
		<rect x="27.01" y="30.02" class="st2" width="2" height="4"/>
		<rect x="27.01" y="42.02" class="st4" width="2" height="4"/>
		<rect x="27.01" y="46.02" class="st2" width="2" height="4"/>
	</g>
	<g>
		<rect x="31.01" y="38.02" class="st5" width="2" height="4"/>
		<rect x="31.01" y="34.02" class="st6" width="2" height="4"/>
		<rect x="31.01" y="30.02" class="st7" width="2" height="4"/>
		<rect x="31.01" y="26.02" class="st8" width="2" height="4"/>
		<rect x="31.01" y="22.02" class="st2" width="2" height="4"/>
		<rect x="31.01" y="42.02" class="st6" width="2" height="4"/>
		<rect x="31.01" y="46.02" class="st7" width="2" height="4"/>
		<rect x="31.01" y="50.02" class="st8" width="2" height="4"/>
		<rect x="31.01" y="54.02" class="st2" width="2" height="4"/>
	</g>
	<g>
		<rect x="35.01" y="38.02" class="st9" width="2" height="4"/>
		<rect x="35.01" y="34.02" class="st9" width="2" height="4"/>
		<rect x="35.01" y="30.02" class="st6" width="2" height="4"/>
		<rect x="35.01" y="26.02" class="st6" width="2" height="4"/>
		<rect x="35.01" y="22.02" class="st7" width="2" height="4"/>
		<rect x="35.01" y="18.02" class="st10" width="2" height="4"/>
		<rect x="35.01" y="42.02" class="st9" width="2" height="4"/>
		<rect x="35.01" y="46.02" class="st6" width="2" height="4"/>
		<rect x="35.01" y="50.02" class="st6" width="2" height="4"/>
		<rect x="35.01" y="54.02" class="st7" width="2" height="4"/>
		<rect x="35.01" y="58.02" class="st10" width="2" height="4"/>
	</g>
	<g>
		<rect x="39.01" y="38.02" class="st11" width="2" height="4"/>
		<rect x="39.01" y="34.02" class="st11" width="2" height="4"/>
		<rect x="39.01" y="30.02" class="st9" width="2" height="4"/>
		<rect x="39.01" y="26.02" class="st6" width="2" height="4"/>
		<rect x="39.01" y="22.02" class="st12" width="2" height="4"/>
		<rect x="39.01" y="18.02" class="st4" width="2" height="4"/>
		<rect x="39.01" y="42.02" class="st11" width="2" height="4"/>
		<rect x="39.01" y="46.02" class="st9" width="2" height="4"/>
		<rect x="39.01" y="50.02" class="st6" width="2" height="4"/>
		<rect x="39.01" y="54.02" class="st12" width="2" height="4"/>
		<rect x="39.01" y="58.02" class="st4" width="2" height="4"/>
	</g>
	<g>
		<rect x="43.01" y="38.02" class="st0" width="2" height="4"/>
		<rect x="43.01" y="34.02" class="st0" width="2" height="4"/>
		<rect x="43.01" y="30.02" class="st11" width="2" height="4"/>
		<rect x="43.01" y="26.02" class="st9" width="2" height="4"/>
		<rect x="43.01" y="22.02" class="st6" width="2" height="4"/>
		<rect x="43.01" y="18.02" class="st8" width="2" height="4"/>
		<rect x="43.01" y="14.02" class="st2" width="2" height="4"/>
		<rect x="43.01" y="42.02" class="st0" width="2" height="4"/>
		<rect x="43.01" y="46.02" class="st11" width="2" height="4"/>
		<rect x="43.01" y="50.02" class="st9" width="2" height="4"/>
		<rect x="43.01" y="54.02" class="st6" width="2" height="4"/>
		<rect x="43.01" y="58.02" class="st8" width="2" height="4"/>
		<rect x="43.01" y="62.02" class="st2" width="2" height="4"/>
	</g>
	<g>
		<rect x="47.01" y="38.02" class="st0" width="2" height="4"/>
		<rect x="47.01" y="34.02" class="st0" width="2" height="4"/>
		<rect x="47.01" y="30.02" class="st11" width="2" height="4"/>
		<rect x="47.01" y="26.02" class="st9" width="2" height="4"/>
		<rect x="47.01" y="22.02" class="st6" width="2" height="4"/>
		<rect x="47.01" y="18.02" class="st7" width="2" height="4"/>
		<rect x="47.01" y="14.02" class="st1" width="2" height="4"/>
		<rect x="47.01" y="42.02" class="st0" width="2" height="4"/>
		<rect x="47.01" y="46.02" class="st11" width="2" height="4"/>
		<rect x="47.01" y="50.02" class="st9" width="2" height="4"/>
		<rect x="47.01" y="54.02" class="st6" width="2" height="4"/>
		<rect x="47.01" y="58.02" class="st7" width="2" height="4"/>
		<rect x="47.01" y="62.02" class="st1" width="2" height="4"/>
	</g>
	<g>
		<rect x="51.01" y="38.02" class="st0" width="2" height="4"/>
		<rect x="51.01" y="34.02" class="st0" width="2" height="4"/>
		<rect x="51.01" y="30.02" class="st11" width="2" height="4"/>
		<rect x="51.01" y="26.02" class="st9" width="2" height="4"/>
		<rect x="51.01" y="22.02" class="st6" width="2" height="4"/>
		<rect x="51.01" y="18.02" class="st8" width="2" height="4"/>
		<rect x="51.01" y="14.02" class="st2" width="2" height="4"/>
		<rect x="51.01" y="42.02" class="st0" width="2" height="4"/>
		<rect x="51.01" y="46.02" class="st11" width="2" height="4"/>
		<rect x="51.01" y="50.02" class="st9" width="2" height="4"/>
		<rect x="51.01" y="54.02" class="st6" width="2" height="4"/>
		<rect x="51.01" y="58.02" class="st8" width="2" height="4"/>
		<rect x="51.01" y="62.02" class="st2" width="2" height="4"/>
	</g>
	<g>
		<rect x="55.01" y="38.02" class="st11" width="2" height="4"/>
		<rect x="55.01" y="34.02" class="st11" width="2" height="4"/>
		<rect x="55.01" y="30.02" class="st9" width="2" height="4"/>
		<rect x="55.01" y="26.02" class="st6" width="2" height="4"/>
		<rect x="55.01" y="22.02" class="st12" width="2" height="4"/>
		<rect x="55.01" y="18.02" class="st4" width="2" height="4"/>
		<rect x="55.01" y="42.02" class="st11" width="2" height="4"/>
		<rect x="55.01" y="46.02" class="st9" width="2" height="4"/>
		<rect x="55.01" y="50.02" class="st6" width="2" height="4"/>
		<rect x="55.01" y="54.02" class="st12" width="2" height="4"/>
		<rect x="55.01" y="58.02" class="st4" width="2" height="4"/>
	</g>
	<g>
		<rect x="59.01" y="38.02" class="st9" width="2" height="4"/>
		<rect x="59.01" y="34.02" class="st9" width="2" height="4"/>
		<rect x="59.01" y="30.02" class="st6" width="2" height="4"/>
		<rect x="59.01" y="26.02" class="st6" width="2" height="4"/>
		<rect x="59.01" y="22.02" class="st7" width="2" height="4"/>
		<rect x="59.01" y="18.02" class="st10" width="2" height="4"/>
		<rect x="59.01" y="42.02" class="st9" width="2" height="4"/>
		<rect x="59.01" y="46.02" class="st6" width="2" height="4"/>
		<rect x="59.01" y="50.02" class="st6" width="2" height="4"/>
		<rect x="59.01" y="54.02" class="st7" width="2" height="4"/>
		<rect x="59.01" y="58.02" class="st10" width="2" height="4"/>
	</g>
	<g>
		<rect x="63.01" y="38.02" class="st5" width="2" height="4"/>
		<rect x="63.01" y="34.02" class="st6" width="2" height="4"/>
		<rect x="63.01" y="30.02" class="st7" width="2" height="4"/>
		<rect x="63.01" y="26.02" class="st8" width="2" height="4"/>
		<rect x="63.01" y="22.02" class="st2" width="2" height="4"/>
		<rect x="63.01" y="42.02" class="st6" width="2" height="4"/>
		<rect x="63.01" y="46.02" class="st7" width="2" height="4"/>
		<rect x="63.01" y="50.02" class="st8" width="2" height="4"/>
		<rect x="63.01" y="54.02" class="st2" width="2" height="4"/>
	</g>
	<g>
		<rect x="67.01" y="38.02" class="st3" width="2" height="4"/>
		<rect x="67.01" y="34.02" class="st4" width="2" height="4"/>
		<rect x="67.01" y="30.02" class="st2" width="2" height="4"/>
		<rect x="27.01" y="26.02" class="st2" width="2" height="4"/>
		<rect x="67.01" y="26.02" class="st2" width="2" height="4"/>
		<rect x="67.01" y="42.02" class="st4" width="2" height="4"/>
		<rect x="67.01" y="46.02" class="st2" width="2" height="4"/>
		<rect x="27.01" y="50.02" class="st2" width="2" height="4"/>
		<rect x="67.01" y="50.02" class="st2" width="2" height="4"/>
	</g>
	<g>
		<rect x="71.01" y="38.02" class="st1" width="2" height="4"/>
		<rect x="71.01" y="34.02" class="st2" width="2" height="4"/>
		<rect x="71.01" y="42.02" class="st2" width="2" height="4"/>
	</g>
</g>
<g>
	<path d="M174.3,31.59c0,3.3-1.71,5.51-5.1,5.51h-4.12V26.08h4.12C172.59,26.08,174.3,28.27,174.3,31.59z M172.9,31.59
		c0-2.32-1-4.25-3.69-4.25h-2.73v8.49h2.73C171.89,35.84,172.9,33.9,172.9,31.59z"/>
	<path d="M176.32,27.43v-1.54h1.51v1.54H176.32z M177.73,37.11h-1.31v-7.78h1.31V37.11z"/>
	<path d="M184.52,30.56h-0.6c-1.53,0-2.46,0.96-2.46,2.66v3.89h-1.31v-7.78h1.27v0.94h0.31c0.39-0.48,1.13-0.94,2.25-0.94h0.54
		V30.56z"/>
	<path d="M192.84,33.2h-5.93c0.03,1.84,0.88,2.96,2.49,2.96c1.08,0,1.75-0.46,1.98-1.2h1.33c-0.26,1.33-1.37,2.35-3.3,2.35
		c-2.42,0-3.78-1.79-3.78-4.17c0-2.39,1.39-4.01,3.75-4.01c2.3,0,3.44,1.71,3.47,3.63V33.2z M186.98,32.1h4.49
		c-0.09-0.97-0.82-1.84-2.15-1.84C187.91,30.27,187.17,31.12,186.98,32.1z"/>
	<path d="M200.46,37.11l-2.24-4.23h-0.31l-1.81,1.99v2.24h-1.31V25.88h1.31v7.37l3.67-3.92h1.56l-2.24,2.41l2.76,5.37H200.46z"/>
	<path d="M207.67,29.32v1.14h-2.1v4.31c0,0.77,0.34,1.16,1.37,1.16h0.73v1.17h-0.82c-1.7,0-2.59-0.43-2.59-2.07v-4.57h-1.58v-1.14
		h1.58v-2.35h1.31v2.35H207.67z"/>
	<path d="M216.58,33.22c0,2.32-1.41,4.09-3.83,4.09c-2.44,0-3.83-1.78-3.83-4.09s1.39-4.09,3.83-4.09
		C215.17,29.12,216.58,30.9,216.58,33.22z M215.27,33.22c0-1.51-0.8-2.95-2.52-2.95c-1.73,0-2.52,1.44-2.52,2.95
		c0,1.53,0.79,2.95,2.52,2.95C214.46,36.16,215.27,34.74,215.27,33.22z"/>
	<path d="M222.92,30.56h-0.6c-1.53,0-2.46,0.96-2.46,2.66v3.89h-1.31v-7.78h1.27v0.94h0.31c0.39-0.48,1.13-0.94,2.25-0.94h0.54
		V30.56z"/>
	<path d="M231.48,37.11h-1.27v-0.85h-0.31c-0.43,0.54-1.19,1.05-2.41,1.05c-2.16,0-3.46-1.78-3.46-4.09s1.3-4.09,3.46-4.09
		c1.22,0,1.98,0.51,2.41,1.05h0.31v-0.85h1.27V37.11z M227.74,30.27c-1.57,0-2.39,1.22-2.39,2.95s0.82,2.95,2.39,2.95
		c1.73,0,2.44-1.44,2.44-2.95C230.18,31.7,229.47,30.27,227.74,30.27z"/>
	<path d="M238.09,29.32v1.14H236v4.31c0,0.77,0.34,1.16,1.37,1.16h0.73v1.17h-0.82c-1.7,0-2.59-0.43-2.59-2.07v-4.57h-1.58v-1.14
		h1.58v-2.35H236v2.35H238.09z"/>
	<path d="M246.59,33.2h-5.93c0.03,1.84,0.88,2.96,2.49,2.96c1.08,0,1.74-0.46,1.98-1.2h1.33c-0.26,1.33-1.37,2.35-3.3,2.35
		c-2.42,0-3.78-1.79-3.78-4.17c0-2.39,1.39-4.01,3.75-4.01c2.3,0,3.44,1.71,3.47,3.63V33.2z M240.74,32.1h4.49
		c-0.09-0.97-0.82-1.84-2.15-1.84C241.66,30.27,240.92,31.12,240.74,32.1z"/>
	<path d="M252.66,29.32v1.14h-2.1v4.31c0,0.77,0.34,1.16,1.37,1.16h0.73v1.17h-0.82c-1.7,0-2.59-0.43-2.59-2.07v-4.57h-1.58v-1.14
		h1.58v-2.35h1.31v2.35H252.66z"/>
	<path d="M261.1,30.47v6.64h-1.31v-6.64h-1.53v-1.14h1.53v-0.9c0-1.79,0.88-2.55,2.61-2.55h0.99v1.14h-0.93
		c-1.05,0-1.36,0.6-1.36,1.45v0.85h2.16v1.14H261.1z"/>
	<path d="M272.02,33.22c0,2.32-1.41,4.09-3.83,4.09c-2.44,0-3.83-1.78-3.83-4.09s1.39-4.09,3.83-4.09
		C270.62,29.12,272.02,30.9,272.02,33.22z M270.71,33.22c0-1.51-0.8-2.95-2.52-2.95c-1.73,0-2.52,1.44-2.52,2.95
		c0,1.53,0.79,2.95,2.52,2.95C269.91,36.16,270.71,34.74,270.71,33.22z"/>
	<path d="M278.36,30.56h-0.6c-1.53,0-2.46,0.96-2.46,2.66v3.89h-1.31v-7.78h1.27v0.94h0.31c0.39-0.48,1.13-0.94,2.25-0.94h0.54
		V30.56z"/>
	<path d="M168.67,49.35c1.42,0.25,2.29,0.91,2.29,2.33c0,1.27-1.11,2.42-3.2,2.42c-2.18,0-3.26-0.96-3.46-2.44h1.31
		c0.17,0.88,0.96,1.3,2.08,1.3c1.16,0,1.95-0.4,1.95-1.25c0-0.7-0.4-1.05-1.44-1.24l-1.56-0.28c-1.19-0.22-2.02-0.79-2.02-1.98
		c0-1.28,0.99-2.3,3.06-2.3c1.79,0,2.9,0.9,3.06,2.22h-1.3c-0.09-0.74-0.94-1.08-1.84-1.08c-0.94,0-1.67,0.36-1.67,1.05
		c0,0.59,0.39,0.82,1.24,0.97L168.67,49.35z"/>
	<path d="M177.05,46.12v1.14h-2.1v4.31c0,0.77,0.34,1.16,1.37,1.16h0.73v1.17h-0.82c-1.7,0-2.59-0.43-2.59-2.07v-4.57h-1.58v-1.14
		h1.58v-2.35h1.31v2.35H177.05z"/>
	<path d="M183.26,47.36h-0.6c-1.53,0-2.46,0.96-2.46,2.66v3.89h-1.31v-7.78h1.27v0.94h0.31c0.39-0.48,1.13-0.94,2.25-0.94h0.54
		V47.36z"/>
	<path d="M191.81,53.91h-1.27v-0.85h-0.31c-0.43,0.54-1.19,1.05-2.41,1.05c-2.16,0-3.46-1.78-3.46-4.09s1.3-4.09,3.46-4.09
		c1.22,0,1.98,0.51,2.41,1.05h0.31v-0.85h1.27V53.91z M188.07,47.07c-1.57,0-2.39,1.22-2.39,2.95s0.82,2.95,2.39,2.95
		c1.73,0,2.44-1.44,2.44-2.95C190.51,48.5,189.8,47.07,188.07,47.07z M188.1,41.63c0.93,0,1.68,0.74,1.68,1.67s-0.76,1.67-1.68,1.67
		s-1.68-0.74-1.68-1.67S187.18,41.63,188.1,41.63z M188.1,44.15c0.46,0,0.85-0.39,0.85-0.85c0-0.46-0.39-0.85-0.85-0.85
		s-0.85,0.39-0.85,0.85C187.26,43.76,187.64,44.15,188.1,44.15z"/>
	<path d="M195.55,42.68v11.23h-1.31V42.68H195.55z"/>
	<path d="M204.74,50h-5.93c0.03,1.84,0.88,2.96,2.49,2.96c1.08,0,1.74-0.46,1.98-1.2h1.33c-0.26,1.33-1.37,2.35-3.3,2.35
		c-2.42,0-3.78-1.79-3.78-4.17c0-2.39,1.39-4.01,3.75-4.01c2.3,0,3.44,1.71,3.47,3.63V50z M198.89,48.9h4.49
		c-0.09-0.97-0.82-1.84-2.15-1.84C199.82,47.07,199.08,47.91,198.89,48.9z"/>
	<path d="M205.66,46.12h1.39l2.18,6.55h0.57l2.1-6.55h1.41l-2.64,7.78h-2.39L205.66,46.12z"/>
	<path d="M221.41,50h-5.93c0.03,1.84,0.88,2.96,2.49,2.96c1.08,0,1.74-0.46,1.98-1.2h1.33c-0.26,1.33-1.37,2.35-3.3,2.35
		c-2.42,0-3.78-1.79-3.78-4.17c0-2.39,1.39-4.01,3.75-4.01c2.3,0,3.44,1.71,3.47,3.63V50z M215.56,48.9h4.49
		c-0.09-0.97-0.82-1.84-2.15-1.84C216.48,47.07,215.74,47.91,215.56,48.9z"/>
	<path d="M227.74,47.36h-0.6c-1.53,0-2.46,0.96-2.46,2.66v3.89h-1.31v-7.78h1.27v0.94h0.31c0.39-0.48,1.13-0.94,2.25-0.94h0.54
		V47.36z"/>
	<path d="M236.27,49.01v4.9h-1.31v-4.66c0-1.42-0.68-2.15-1.99-2.15c-1.39,0-2.3,1.22-2.3,2.58v4.23h-1.31v-7.78h1.27v0.85h0.29
		c0.4-0.59,1.24-1.05,2.3-1.05C235.16,45.92,236.27,47.14,236.27,49.01z"/>
	<path d="M249.54,50.01c0,2.32-1.41,4.09-3.83,4.09c-2.44,0-3.83-1.78-3.83-4.09s1.39-4.09,3.83-4.09
		C248.13,45.92,249.54,47.7,249.54,50.01z M248.22,50.01c0-1.51-0.8-2.95-2.52-2.95c-1.73,0-2.52,1.44-2.52,2.95
		c0,1.53,0.79,2.95,2.52,2.95C247.42,52.96,248.22,51.54,248.22,50.01z"/>
	<path d="M258.53,46.12v7.4c0,2.19-1.37,3.58-3.63,3.58c-1.98,0-3.29-0.85-3.52-2.38h1.3c0.22,0.93,1.04,1.27,2.21,1.27
		c1.61,0,2.33-0.97,2.33-2.53v-0.63h-0.31c-0.4,0.54-1.14,1.05-2.32,1.05c-2.15,0-3.51-1.7-3.51-3.97c0-2.29,1.36-3.98,3.51-3.98
		c1.2,0,1.96,0.53,2.36,1.05h0.31v-0.85H258.53z M257.25,49.91c0-1.5-0.79-2.84-2.46-2.84c-1.51,0-2.39,1.14-2.39,2.84
		c0,1.68,0.88,2.83,2.39,2.83C256.47,52.73,257.25,51.39,257.25,49.91z"/>
	<path d="M272.32,53.91h-1.27v-0.85h-0.31c-0.43,0.54-1.19,1.05-2.41,1.05c-2.16,0-3.46-1.78-3.46-4.09s1.3-4.09,3.46-4.09
		c1.22,0,1.98,0.51,2.41,1.05h0.31v-0.85h1.27V53.91z M268.59,47.07c-1.57,0-2.39,1.22-2.39,2.95s0.82,2.95,2.39,2.95
		c1.73,0,2.44-1.44,2.44-2.95C271.03,48.5,270.32,47.07,268.59,47.07z"/>
	<path d="M278.94,46.12v1.14h-2.1v4.31c0,0.77,0.34,1.16,1.37,1.16h0.73v1.17h-0.82c-1.7,0-2.59-0.43-2.59-2.07v-4.57h-1.58v-1.14
		h1.58v-2.35h1.31v2.35H278.94z"/>
	<path d="M287.85,50.01c0,2.32-1.41,4.09-3.83,4.09c-2.44,0-3.83-1.78-3.83-4.09s1.39-4.09,3.83-4.09
		C286.45,45.92,287.85,47.7,287.85,50.01z M286.54,50.01c0-1.51-0.8-2.95-2.52-2.95c-1.73,0-2.52,1.44-2.52,2.95
		c0,1.53,0.79,2.95,2.52,2.95C285.74,52.96,286.54,51.54,286.54,50.01z"/>
	<path d="M300.55,48.89v5.02h-1.31v-4.9c0-1.27-0.49-1.91-1.48-1.91c-1.24,0-1.91,0.91-1.91,2.22v4.59h-1.31v-4.86
		c0-1.27-0.56-1.95-1.51-1.95c-1.24,0-1.88,1.16-1.88,2.56v4.25h-1.31v-7.78h1.27v0.76h0.29c0.37-0.57,1.02-0.96,1.98-0.96
		c0.9,0,1.61,0.34,2.07,1.05h0.31c0.49-0.66,1.2-1.05,2.18-1.05C299.72,45.92,300.55,47.08,300.55,48.89z"/>
	<path d="M306.65,49.35c1.42,0.25,2.29,0.91,2.29,2.33c0,1.27-1.11,2.42-3.2,2.42c-2.18,0-3.26-0.96-3.46-2.44h1.31
		c0.17,0.88,0.96,1.3,2.08,1.3c1.16,0,1.95-0.4,1.95-1.25c0-0.7-0.4-1.05-1.44-1.24l-1.56-0.28c-1.19-0.22-2.02-0.79-2.02-1.98
		c0-1.28,0.99-2.3,3.06-2.3c1.79,0,2.9,0.9,3.06,2.22h-1.3c-0.09-0.74-0.94-1.08-1.84-1.08c-0.94,0-1.67,0.36-1.67,1.05
		c0,0.59,0.39,0.82,1.24,0.97L306.65,49.35z"/>
	<path d="M310.76,44.22v-1.54h1.51v1.54H310.76z M312.16,53.91h-1.31v-7.78h1.31V53.91z"/>
	<path d="M320.25,53.91l-2.24-4.23h-0.31l-1.81,1.99v2.24h-1.31V42.68h1.31v7.37l3.67-3.92h1.56l-2.24,2.41l2.76,5.37H320.25z"/>
	<path d="M328.82,53.91l-2.24-4.23h-0.31l-1.81,1.99v2.24h-1.31V42.68h1.31v7.37l3.67-3.92h1.56l-2.24,2.41l2.76,5.37H328.82z"/>
	<path d="M338.14,50h-5.93c0.03,1.84,0.88,2.96,2.49,2.96c1.08,0,1.74-0.46,1.98-1.2H338c-0.26,1.33-1.37,2.35-3.3,2.35
		c-2.42,0-3.78-1.79-3.78-4.17c0-2.39,1.39-4.01,3.75-4.01c2.3,0,3.44,1.71,3.47,3.63V50z M332.29,48.9h4.49
		c-0.09-0.97-0.82-1.84-2.15-1.84C333.22,47.07,332.47,47.91,332.29,48.9z"/>
	<path d="M344.47,47.36h-0.6c-1.53,0-2.46,0.96-2.46,2.66v3.89h-1.31v-7.78h1.27v0.94h0.31c0.39-0.48,1.13-0.94,2.25-0.94h0.54
		V47.36z"/>
	<path d="M353.01,49.01v4.9h-1.31v-4.66c0-1.42-0.68-2.15-1.99-2.15c-1.39,0-2.3,1.22-2.3,2.58v4.23h-1.31V42.68h1.31v4.29h0.29
		c0.39-0.59,1.19-1.05,2.25-1.05C351.9,45.92,353.01,47.14,353.01,49.01z"/>
	<path d="M362.12,50h-5.93c0.03,1.84,0.88,2.96,2.49,2.96c1.08,0,1.75-0.46,1.98-1.2h1.33c-0.26,1.33-1.37,2.35-3.3,2.35
		c-2.42,0-3.78-1.79-3.78-4.17c0-2.39,1.39-4.01,3.75-4.01c2.3,0,3.44,1.71,3.47,3.63V50z M356.26,48.9h4.49
		c-0.09-0.97-0.82-1.84-2.15-1.84C357.19,47.07,356.45,47.91,356.26,48.9z"/>
	<path d="M368.19,46.12v1.14h-2.1v4.31c0,0.77,0.34,1.16,1.37,1.16h0.73v1.17h-0.82c-1.7,0-2.59-0.43-2.59-2.07v-4.57h-1.58v-1.14
		h1.58v-2.35h1.31v2.35H368.19z"/>
</g>
</svg>
