<?xml version="1.0" encoding="UTF-8" standalone="no"?>
<!-- Created with Inkscape (http://www.inkscape.org/) -->

<svg
   xmlns:dc="http://purl.org/dc/elements/1.1/"
   xmlns:cc="http://creativecommons.org/ns#"
   xmlns:rdf="http://www.w3.org/1999/02/22-rdf-syntax-ns#"
   xmlns:svg="http://www.w3.org/2000/svg"
   xmlns="http://www.w3.org/2000/svg"
   xmlns:sodipodi="http://sodipodi.sourceforge.net/DTD/sodipodi-0.dtd"
   xmlns:inkscape="http://www.inkscape.org/namespaces/inkscape"
   id="svg4136"
   version="1.1"
   inkscape:version="0.92.2 (5c3e80d, 2017-08-06)"
   xml:space="preserve"
   width="324.35086"
   height="495.56134"
   viewBox="0 0 324.35087 495.56132"
   sodipodi:docname="Emblem of the Norwegian Directorate of Mining.svg"><metadata
     id="metadata4142"><rdf:RDF><cc:Work
         rdf:about=""><dc:format>image/svg+xml</dc:format><dc:type
           rdf:resource="http://purl.org/dc/dcmitype/StillImage" /><dc:title></dc:title></cc:Work></rdf:RDF></metadata><defs
     id="defs4140" /><sodipodi:namedview
     pagecolor="#ffffff"
     bordercolor="#666666"
     borderopacity="1"
     objecttolerance="10"
     gridtolerance="10"
     guidetolerance="10"
     inkscape:pageopacity="0"
     inkscape:pageshadow="2"
     inkscape:window-width="1920"
     inkscape:window-height="1017"
     id="namedview4138"
     showgrid="false"
     fit-margin-top="2"
     fit-margin-left="2"
     fit-margin-right="2"
     fit-margin-bottom="2"
     inkscape:zoom="0.70710678"
     inkscape:cx="687.70858"
     inkscape:cy="48.397874"
     inkscape:window-x="-8"
     inkscape:window-y="-8"
     inkscape:window-maximized="1"
     inkscape:current-layer="g378" /><g
     id="g4144"
     inkscape:groupmode="layer"
     inkscape:label="grafisk profil 2015"
     transform="matrix(1.25,0,0,-1.25,-147.38787,954.72621)"><g
       id="g3875"><path
         d="m 242.45536,762.18097 v -10.65 h -10.525 c -0.0558,-3.60896 -0.0558,-7.26659 0,-10.55 h 10.375 v -14.425 l -0.15,-0.275 c -5.06928,-1.67426 -10.13504,-6.4534 -11.8,-11.625 -2.52999,-7.10629 -0.3192,-15.46734 5.55,-20.425 -4.09263,0.48367 -8.30506,1.14713 -12.5,1.575 -9.96183,0.6511 -21.28632,2.2955 -30.225,-2.225 -8.82706,0.75342 -17.66132,1.03948 -26.6,0.5 -6.63192,-0.75342 -13.66161,-1.19391 -19.475,-4.375 -2.69742,-1.72076 -4.60636,-4.7474 -4.225,-7.975 0.69761,-5.55295 1.89023,-11.08366 3.025,-16.525 -1.45102,-0.42786 -3.0821,-0.8082 -4.375,-1.45 1.34871,-4.63211 2.64372,-9.26789 3.825,-13.9 l 3.525,-14.7 c 1.23716,-5.88032 3.17027,-16.14318 4.4,-23.725 h 188.49021 c 2.61797,16.47484 7.826,36.37754 12.03479,51.125 0.58599,0.80922 -0.52445,0.70526 -0.85,0.975 -1.07897,0.48367 -2.37684,0.59133 -3.4,1.075 0.48367,2.69742 1.24133,5.33108 1.725,8.075 0.59529,3.49734 1.67555,6.89105 1.35,10.5 -0.48367,3.99031 -4.47417,6.47103 -7.925,7.55 -10.61294,3.06947 -22.24122,3.50287 -33.775,3.075 -3.01366,-0.11162 -5.75553,-0.39188 -8.825,-0.55 -4.47399,2.37186 -9.54178,2.96688 -14.825,3.125 -9.47816,0 -18.78401,-1.06523 -27.825,-2.2 4.09263,3.56245 6.35526,8.3476 6.625,13.575 0.42786,7.48765 -4.16576,14.60553 -10.9,17.675 -0.6418,0.42787 -1.47971,0.41633 -2.075,0.9 v 14.525 h 10.675 v 10.65 h -10.525 v 10.675 z m -29.825,-74 c 1.58754,-0.0148 3.18619,-0.0924 4.7,-0.075 7.92482,-0.31625 15.66761,-1.52629 23.425,-2.875 l 0.15,-0.2 0.225,-7.55 c -12.50112,-0.0465 -25.75523,-0.48504 -37.875,-2.15 l -0.15,0.375 -0.55,6.9 c 0.0465,1.77657 1.19898,3.13265 2.65,4.1 2.15677,1.31383 4.77909,1.49962 7.425,1.475 z m 69.1,-0.225 c 0.45562,0.0115 0.8919,0.003 1.35,-0.025 3.49734,0 7.60655,-0.65266 9.225,-4.15 0.26974,-0.80922 0.35813,-1.75997 0.2,-2.625 -0.15813,-2.04631 -0.37445,-4.0345 -0.7,-6.025 -12.50112,1.56264 -25.03844,2.3465 -37.8,2.3 l 0.325,7.7 c 7.86901,1.45102 15.29555,2.31633 23.425,2.8 1.2557,-0.16045 2.60813,-0.009 3.975,0.025 z m -103.625,-2.4 c 3.81708,-10e-4 7.6184,-0.13432 11.525,-0.325 0.59529,-4.09263 1.03552,-8.07711 1.575,-11.9 l -0.05,-0.1 c -11.63609,-2.41838 -22.79916,-5.91761 -32.175,-13.675 -0.26974,1.50683 -0.79898,3.22684 -2.25,4.25 -0.92084,4.94836 -1.87794,9.85922 -2.25,14.975 0,1.61845 1.07048,3.06578 2.475,3.875 2.85554,1.56264 6.29159,1.99133 9.575,2.475 3.92985,0.29765 7.75792,0.42616 11.575,0.425 z m 139.3,-0.425 c 3.91706,-0.014 7.83643,-0.19539 11.85,-0.6 2.96716,-0.42787 6.12178,-0.8571 8.875,-2.15 1.33941,-0.6418 2.52794,-2.05478 2.9,-3.45 0.16742,-1.73006 -0.21106,-3.32574 -0.425,-5 -0.48367,-3.55314 -1.16809,-7.15266 -1.875,-10.65 -1.39522,-1.07897 -2.06106,-2.77166 -2.275,-4.325 -9.47816,7.8039 -20.89821,11.47233 -32.525,13.9 l 1.575,11.95 c 4.06473,0.19068 7.98294,0.33895 11.9,0.325 z"
         id="path3214"
         inkscape:connector-curvature="0"
         sodipodi:nodetypes="cccccccccccccccccccccccccccccccccccccccsccccccccsscccccccssccccccccssccccccccs" /><path
         d="m 251.74422,760.53461 c -0.0558,-3.38572 -0.0558,-7.1342 0,-10.63154 h 10.55713 v -7.40394 c -3.39503,-0.0558 -7.17141,0 -10.61294,0 v -15.94265 c -1.46032,0.0465 -3.12528,0.26974 -4.68792,0.26974 -1.07896,0 -2.10212,-0.22323 -3.18109,-0.38136 l -0.0465,0.38136 v 15.61711 h -10.28739 v 7.48765 c 3.2276,0.10231 6.92027,-0.16743 10.3618,0.0558 v 10.60363 c 2.58579,-0.0558 5.35762,0 7.89691,-0.0558"
         id="path3216"
         inkscape:connector-curvature="0"
         style="fill:#fceb66" /><path
         d="m 251.68841,724.99384 c -0.38136,-1.02316 -1.13477,-1.99051 -1.61845,-3.01366 l -0.0558,-12.92899 h 14.43582 c 0.0558,-1.40452 -0.10232,-2.82764 -0.32555,-4.17635 h -32.85266 c -0.21393,1.2929 -0.37206,2.77183 -0.32555,4.17635 h 14.13818 v 13.0313 c -0.48368,0.96735 -1.09757,1.88819 -1.47893,2.96716 2.5858,0.6418 5.44134,0.53018 8.08294,-0.0558"
         id="path3218"
         inkscape:connector-curvature="0"
         style="fill:#fceb66" /><path
         d="m 244.08914,721.44069 -0.0465,-11.20822 c -4.26006,-0.0558 -8.78055,-0.0558 -12.9848,0 0.42786,5.92501 4.79024,11.74771 10.34319,13.95215 0.37206,0.0558 0.96735,0.86503 1.18128,0.15812 l 1.50683,-2.90205"
         id="path3220"
         inkscape:connector-curvature="0"
         style="fill:#fceb66" /><path
         d="m 264.12443,711.95323 0.32555,-1.77657 c -4.41818,-0.10232 -8.93868,0.0558 -13.30105,0 l 0.0558,11.53378 1.77657,2.90204 c 5.44134,-1.77657 10.17577,-6.99467 11.14312,-12.65925"
         id="path3222"
         inkscape:connector-curvature="0"
         style="fill:#fceb66" /><path
         d="m 263.80818,703.74937 c -1.40452,-5.76689 -6.84586,-10.69664 -12.50113,-11.87793 -5.65527,-1.40451 -11.79421,0.48368 -15.72872,4.89256 -1.77657,2.10212 -3.38572,4.34376 -3.9252,6.98537 l 32.09924,-0.0279 0.0558,0.0279"
         id="path3224"
         inkscape:connector-curvature="0"
         style="fill:#fceb66" /><path
         d="m 240.91736,691.27615 c -0.0558,-1.56264 0.0465,-3.01366 0.0465,-4.5763 -10.4455,1.72076 -21.05844,3.44153 -31.66207,2.85554 -3.07877,-0.48368 -6.5203,-1.61845 -7.86901,-4.79954 -0.69761,-1.9347 0.0558,-4.20425 0,-6.19475 l 1.02316,-10.65945 c -2.90205,0.21394 -6.13895,0.26975 -8.51081,-1.40451 l -0.15813,0.32555 c -0.86503,6.40869 -2.04631,12.76156 -2.74392,19.22606 -0.11162,2.26025 1.12547,4.52979 3.17179,5.76689 5.55295,3.49733 13.08711,3.01366 19.60742,2.85553 9.20841,-0.26974 18.25871,-1.56264 27.09507,-3.39502"
         id="path3226"
         inkscape:connector-curvature="0"
         style="fill:#fceb66" /><path
         d="m 294.28897,693.91776 c 2.64161,-0.38136 5.2274,-1.24639 7.43184,-2.96716 1.99051,-1.50683 2.79973,-3.98101 2.31606,-6.5203 l -2.74392,-18.41684 c -0.6511,0.26975 -1.19059,0.6511 -1.77658,0.92085 -1.944,0.79992 -4.74373,0.75341 -6.89236,0.48367 0.42787,5.27391 1.18128,10.28738 1.45103,15.5613 -0.21394,3.06947 -3.2276,5.06928 -5.86921,5.8692 -2.75322,0.75341 -5.82269,0.53948 -8.83636,0.59529 -8.66893,-0.11162 -16.85419,-1.50683 -25.09526,-2.74392 -0.26974,0.58599 0.10232,1.39521 0,2.20444 0.0465,0.80922 0,1.56264 0.0465,2.31605 11.85002,2.42768 23.86747,3.66477 36.4151,3.2276 1.13478,-0.15812 2.42768,-0.26974 3.55315,-0.53018"
         id="path3228"
         inkscape:connector-curvature="0"
         style="fill:#fceb66" /><path
         d="m 191.41514,691.64821 c -0.91154,-1.55334 -1.83238,-3.06947 -1.72077,-5.00417 -6.25056,0.21393 -12.50112,0.53948 -18.854,0.21393 -4.25075,-0.10231 -8.66893,-0.69761 -12.60344,-1.88819 -2.37186,-0.79992 -4.90185,-2.5858 -5.27391,-5.2181 0,-3.77638 0.85573,-7.59927 1.50683,-11.20823 l 0.6418,-3.60895 c -2.20444,0.97665 -4.79024,0.97665 -7.1621,0.70691 -1.23709,5.32972 -2.31606,10.92918 -3.06947,16.37052 0,3.12528 2.52999,5.76688 5.32972,6.94817 7.11559,2.91134 14.91949,3.12528 22.7327,3.49733 6.29706,0.11162 12.27788,-0.32555 18.47264,-0.80922"
         id="path3230"
         inkscape:connector-curvature="0"
         style="fill:#fceb66" /><path
         d="m 343.08428,689.17403 c 3.2369,-0.91154 7.32953,-3.33922 7.54346,-7.1621 0.21393,-1.72077 -0.38136,-3.28341 -0.53948,-4.90186 -0.69761,-4.14844 -1.66496,-8.18526 -2.52999,-12.27789 -2.31606,0.42787 -5.22741,0.26974 -7.21791,-0.59529 0.75341,4.79024 1.944,9.58978 2.31605,14.53814 -0.26974,2.85554 -3.06947,4.95766 -5.59946,5.65527 -9.16191,2.6416 -18.96562,2.15793 -28.44378,1.944 l -3.11598,-0.11162 c 0.0465,1.944 -0.76271,3.50664 -1.73006,5.01347 11.79421,1.12548 24.12791,1.12548 35.39194,-1.02316 l 3.92521,-1.07896"
         id="path3232"
         inkscape:connector-curvature="0"
         style="fill:#fceb66" /><path
         d="m 252.65576,690.73667 c 0.26974,-1.77657 -0.21393,-3.60896 -0.0558,-5.65527 -0.10231,-5.32972 -0.37205,-10.61293 -0.80922,-15.94265 -2.68811,0.80922 -5.92501,0.80922 -8.66894,-0.0558 -0.59529,7.32952 -0.80922,14.49163 -0.6976,21.76535 3.39502,-0.86504 6.78074,-0.86504 10.23157,-0.11162"
         id="path3234"
         inkscape:connector-curvature="0"
         style="fill:#fceb66" /><path
         d="m 254.59046,664.9345 c 2.64161,-4.84605 -2.20444,-8.61313 -4.30656,-12.43602 0.38136,-0.86503 0.92084,-1.73006 1.46032,-2.52998 1.50683,1.02315 2.5765,2.52998 4.25076,3.49733 1.93469,1.40452 4.14843,3.01367 6.67842,2.20444 3.33922,-1.9347 4.20425,-5.8692 3.82289,-9.58047 -0.26974,-2.53929 -1.45102,-5.22741 -3.9252,-6.19476 -4.37167,-1.13477 -7.59927,2.95786 -10.51062,5.65528 l -0.75342,0.6976 c -0.75341,-0.75341 -1.18128,-1.77657 -1.77657,-2.6416 2.37187,-4.63212 4.36237,-9.42235 7.70159,-13.6266 2.69741,-1.61845 5.8692,-1.72077 8.99448,-2.15793 4.30656,-0.26044 8.89217,-0.31625 13.08711,0.16742 2.26955,0.26974 4.5298,0.69761 6.4645,1.88819 2.48348,2.90205 3.76708,6.40869 5.55295,9.69209 l 1.39522,3.06948 c -0.58599,0.86503 -1.12547,1.88819 -1.77657,2.74392 -2.47419,-2.90205 -5.49715,-5.8134 -9.47816,-5.97152 -1.45103,0 -2.74393,0.96735 -3.60896,2.09282 -1.77657,3.12528 -1.67426,7.43185 -0.53948,10.82687 0.75341,2.15793 3.06947,3.2369 5.28321,3.18109 3.38572,-0.96735 6.13895,-3.82289 8.72474,-6.30637 l 0.15813,0.0558 1.23709,2.91134 c -2.37187,3.45084 -6.62262,7.27372 -3.8787,11.79422 2.04632,2.85554 6.13895,2.74392 9.26423,2.20444 1.88819,-0.53018 4.03682,-1.99051 4.47399,-4.03682 0.6976,-3.82289 -1.88819,-7.1063 -4.47399,-9.85022 l 1.23709,-3.02296 h 0.26974 c 3.29271,2.58579 6.73424,5.92501 11.15242,4.79953 2.91134,-1.46032 3.49733,-4.79953 3.55314,-7.75739 -0.0558,-3.06947 -1.9347,-5.92501 -4.73443,-7.1621 -4.26005,-1.46033 -7.11559,2.5858 -9.8037,5.32972 -0.26975,0.32555 -0.48368,0.69761 -0.86504,1.02316 -0.69761,-0.75342 -1.18128,-1.77658 -1.72076,-2.64161 2.14863,-4.19495 4.19494,-8.34338 6.99467,-12.22208 1.67426,-1.88819 4.14844,-2.10212 6.52031,-2.53929 6.73423,-1.02316 14.16608,-0.96735 20.74219,0.59529 1.06966,0.42787 2.41837,0.59529 3.11598,1.72076 2.42767,3.34852 4.31586,6.84586 6.25056,10.3432 -0.37206,0.97665 -0.96735,1.77657 -1.45102,2.69741 h -0.26974 c -2.52999,-2.31605 -5.28322,-4.30656 -8.45501,-5.11579 -2.31605,-0.26974 -4.52979,0.5953 -5.71107,2.52999 -1.77658,3.49734 -1.40452,8.18526 0.42786,11.58029 1.50683,2.15793 4.36237,2.20444 6.57611,1.56264 3.11598,-1.13478 5.54366,-3.82289 7.70159,-6.40869 0.75341,0.80922 1.45102,1.60915 2.20444,2.47418 -2.20444,3.12528 -5.22741,7.00398 -3.12528,10.98499 2.15793,3.2369 6.79004,2.96716 10.07345,2.15793 1.07896,-0.21393 2.15793,-0.6511 3.18109,-1.02315 l -2.96716,-9.90603 -4.09263,-15.78453 c -1.83238,-7.86901 -3.33921,-15.78453 -4.5763,-23.64424 H 154.7861 c -0.42786,1.9347 -0.6418,4.25076 -1.02316,6.08314 -2.41837,14.86369 -5.8692,29.68087 -10.23157,43.94926 3.8787,1.40452 8.94798,2.69742 12.44531,-0.37205 1.12548,-1.2464 1.72077,-2.79973 1.39522,-4.5298 -0.53018,-2.79973 -2.14863,-5.00417 -3.8787,-7.21791 l 2.10213,-2.5858 h 0.16742 c 2.14863,2.5858 4.41818,5.01347 7.37604,6.36218 1.67425,0.53948 3.87869,0.6418 5.38553,-0.38136 2.85553,-2.14863 2.85553,-6.08314 2.74392,-9.32003 -0.26974,-2.26025 -1.33941,-4.67862 -3.55315,-5.54366 -1.9347,-0.91154 -4.14844,-0.42786 -5.8692,0.53949 -2.04632,1.13477 -4.03682,2.68811 -5.71108,4.30656 l -0.15813,-0.0558 -1.61844,-2.5858 c 1.67425,-3.38572 3.60895,-6.67843 5.65527,-9.85021 1.02315,-2.31606 3.60895,-2.26955 5.55295,-2.85554 7.10629,-1.34871 15.18924,-1.34871 22.29553,0.53948 3.49734,0.96735 4.47399,4.84605 6.5203,7.48765 l 3.39503,6.24126 c -0.49298,0.96735 -1.07897,1.83239 -1.61845,2.75323 -2.96716,-3.02297 -6.03663,-7.43185 -10.66874,-6.4645 -2.79973,1.02316 -4.73443,4.14844 -4.79024,7.1063 -0.0558,2.85553 0.48367,5.71107 2.74392,7.64577 1.72077,0.97665 3.82289,0.49298 5.49715,-0.10231 2.41837,-1.13478 4.46468,-2.91135 6.56681,-4.5298 l 0.16742,0.11162 1.18129,2.91134 c -2.64161,3.12529 -6.13895,7.16211 -3.76708,11.35705 2.09282,2.96716 6.13894,3.2369 9.36654,2.5858 1.50683,-0.26974 3.06947,-1.12547 3.82289,-2.6323 0.59529,-1.40452 1.02315,-3.39503 0.21393,-4.84605 -0.96735,-2.37187 -2.79973,-4.36237 -4.30656,-6.5203 0.42786,-0.96735 0.6976,-2.10213 1.29289,-3.01367 2.52999,2.36257 4.95767,4.94836 8.08295,6.13895 1.07896,0.32555 2.20444,-0.11162 3.22759,-0.32555 3.33922,-1.34871 3.60896,-5.22741 3.55315,-8.51081 -0.21393,-2.5858 -0.79992,-5.49715 -3.38572,-6.67843 -4.5856,-1.61845 -8.19456,2.31606 -10.99429,5.59946 h -0.10232 l -1.73006,-2.79973 c 1.83238,-4.03682 3.66476,-8.12945 6.03663,-11.95234 1.13477,-1.51613 2.91134,-1.83238 4.5763,-2.26955 7.48765,-1.39521 16.15659,-1.23709 23.54192,0.6511 2.63231,0.91154 3.28341,3.93451 4.73443,5.98082 l 4.14844,8.34339 c -0.48367,0.92084 -1.07897,1.77657 -1.61845,2.6416 -3.01366,-2.79973 -6.13894,-7.05978 -10.71525,-6.40868 -2.74392,0.86503 -4.20425,3.71127 -4.41818,6.46449 -0.31625,3.44153 0.48368,7.32023 3.60896,9.32004 2.48348,1.12547 4.95766,-0.5953 6.94817,-2.04632 1.56264,-1.07897 2.69741,-2.42767 4.14843,-3.60895 0.53949,0.85573 1.07897,1.72076 1.40452,2.6323 -2.26955,3.93451 -7.11559,8.29688 -3.60895,13.08711 2.52999,3.02297 7.10629,3.02297 10.65944,1.83239 1.23709,-0.53949 2.26024,-1.45103 3.01366,-2.5858"
         id="path3236"
         inkscape:connector-curvature="0"
         style="fill:#fceb66" /><path
         d="m 241.13129,675.60324 0.10231,-0.16743 c 0.0558,-2.47418 0.22324,-4.67862 0.32555,-7.05048 -2.26024,-1.83238 -3.76708,-4.36237 -3.2834,-7.32953 0.75342,-3.11598 2.74392,-5.75758 4.68792,-8.34338 -0.11162,-0.21394 -0.11162,-0.42787 -0.26974,-0.53949 -2.5858,2.42768 -5.28321,4.74373 -8.67824,5.32972 -2.14863,0.32555 -4.03682,-1.18128 -5.16229,-2.95785 -2.21374,-3.50664 -2.5858,-9.1061 -0.32555,-12.77087 0.96735,-1.82308 2.85554,-3.44153 4.95766,-3.49733 3.92521,0.0558 6.89236,3.2834 9.7479,5.81339 0.21394,-0.10232 0.26974,-0.37206 0.42787,-0.58599 -1.88819,-3.8787 -3.60896,-7.86901 -6.08314,-11.53377 -1.2929,-1.77658 -3.56245,-1.50684 -5.38553,-2.09283 -6.67842,-1.13477 -13.46847,-1.02315 -19.93296,0.31625 -3.66477,0.59529 -4.41818,4.63211 -6.03663,7.21791 l -2.47418,5.71108 c 0.0558,0.15813 0.15812,0.32555 0.32555,0.48368 2.68811,-3.06948 6.19475,-5.86921 10.50131,-5.11579 2.96716,0.86503 4.63211,3.9345 5.01347,6.89236 0.37206,4.04612 0.15813,8.89217 -3.77638,11.09661 -1.87889,1.07896 -4.5763,0.86503 -6.35288,-0.32555 -2.10212,-1.23709 -3.72057,-2.95786 -5.55295,-4.67862 -0.75342,0.6418 0.16743,1.06966 0.43717,1.60914 2.20444,2.96716 5.05998,6.30638 3.71127,10.23158 -0.58599,1.78587 -2.26025,3.34851 -3.98101,3.99031 -0.32555,0.26974 -0.16743,0.69761 -0.26975,1.02316 -0.16742,1.61845 -0.32555,3.45083 -0.42786,5.1716 12.16627,1.56264 24.61159,2.37186 37.21503,2.15793 l 0.53948,-0.0558"
         id="path3238"
         inkscape:connector-curvature="0"
         style="fill:#e4474a" /><path
         d="m 291.64736,673.23138 c -0.21393,-2.04632 -0.15812,-4.09263 -0.6418,-6.08314 -1.944,-0.6511 -3.87869,-2.5858 -4.41818,-4.58561 -0.86503,-4.36237 2.42768,-7.53416 4.68793,-10.77105 -0.11162,-0.21394 -0.11162,-0.42787 -0.26975,-0.58599 -3.33921,3.01366 -7.1621,7.53415 -12.00814,5.11578 -4.14844,-2.48348 -4.09263,-7.70158 -3.56245,-12.06395 0.43716,-2.48349 2.05561,-5.06928 4.5856,-5.92502 4.30657,-0.86503 7.97133,1.9347 10.71525,5.00417 0.32555,-0.21393 0.42787,-0.75341 0.15813,-1.07896 -1.60915,-3.28341 -2.95786,-6.72494 -4.90186,-9.79441 -1.2929,-2.26955 -3.82289,-2.48348 -6.08313,-2.96716 -4.30657,-0.48367 -8.62243,-0.75341 -12.9848,-0.32555 -2.84624,0.32555 -5.97152,0.70691 -8.61313,1.8882 -2.47418,2.6416 -3.76708,5.81339 -5.49714,8.83635 l -1.66496,3.55315 c 0.0558,0.26974 0.21393,0.48368 0.42787,0.6418 3.45083,-2.85554 7.1621,-7.43184 12.06395,-5.27391 3.2369,2.04631 4.41818,5.81339 4.26006,9.47816 -0.16743,3.49734 -1.40452,7.21791 -4.74373,8.88286 -3.55315,0.86504 -6.62262,-1.45102 -9.32004,-3.55314 l -1.56264,-1.50683 -0.37205,0.53948 c 2.47418,3.39502 6.08313,7.00398 4.73442,11.63609 -0.58599,1.56264 -1.77657,2.90205 -3.11597,3.98101 0.10231,2.37187 0.31624,4.79954 0.37205,7.27372 5.65527,0.26974 11.31054,-0.0558 16.80769,-0.26974 6.83655,-0.42787 14.16608,-1.18128 20.94682,-2.04631"
         id="path3240"
         inkscape:connector-curvature="0"
         style="fill:#e4474a" /><path
         d="m 192.4383,665.41817 c -1.72077,-1.87889 -2.10213,-4.52049 -1.2929,-6.83655 0.80922,-2.42767 2.58579,-4.5763 4.26005,-6.40869 l -0.32555,-0.75341 c -3.2369,2.6416 -7.27372,6.08313 -11.7384,4.30656 -3.50664,-2.04631 -3.77639,-6.19475 -3.83219,-9.90602 0.11161,-0.59529 0.11161,-1.13478 0.26974,-1.73007 0.53948,-2.26025 1.9998,-4.90185 4.47399,-5.75759 4.79023,-2.04631 8.72474,2.20444 11.69189,5.54366 0.26975,-0.10232 0.21394,-0.42787 0.37206,-0.59529 -2.04631,-3.92521 -4.03682,-7.97133 -6.94817,-11.46867 -1.93469,-1.61845 -4.63211,-1.72076 -6.94817,-2.20444 -5.17159,-0.53948 -10.61293,-0.53948 -15.88684,0.31625 -1.99051,0.53948 -4.47399,0.6511 -5.65527,2.85554 -1.83238,2.69742 -3.28341,5.60876 -4.84605,8.455 -0.0558,0.32555 0.15813,0.49298 0.31625,0.75342 h 0.22324 c 2.95785,-2.63231 6.35287,-5.38553 10.55712,-4.35307 2.36256,0.48367 4.5763,2.84624 5.05998,5.16229 0.80922,3.33922 0.53948,6.90166 -0.80923,9.97114 -1.23709,2.37186 -3.82288,3.87869 -6.56681,3.55314 -3.72057,-0.42786 -6.5203,-3.33921 -9.1061,-6.09243 -0.21393,0 -0.21393,0.26974 -0.38136,0.43716 1.2929,2.04632 2.75323,3.98102 3.45084,6.35288 9.32003,8.18526 20.73289,12.23138 32.69453,14.38001 l 0.96735,-5.98082"
         id="path3242"
         inkscape:connector-curvature="0"
         style="fill:#e4474a" /><path
         d="m 336.46166,656.53531 c 0.75342,-2.31606 2.15793,-4.36238 3.55315,-6.40869 -0.0465,-0.15812 -0.10232,-0.38136 -0.31625,-0.48367 -3.12528,3.22759 -6.90166,7.32022 -11.74771,5.98082 -1.02316,-0.26975 -1.83238,-0.80923 -2.68811,-1.40452 -2.91135,-3.28341 -3.2369,-8.02714 -2.26955,-12.17557 0.59529,-2.26025 2.58579,-4.40888 4.85534,-4.94837 4.19495,-1.07896 7.91552,1.83239 11.08731,4.36238 0.70691,-0.53949 -0.0465,-1.2464 -0.21393,-1.77658 -1.77658,-3.07877 -3.28341,-6.30637 -5.86921,-8.94798 -3.65546,-1.61844 -7.53416,-1.83238 -11.63609,-1.93469 -5.05998,0.0558 -10.50131,0.10231 -15.02181,1.9905 -2.31606,1.72077 -3.2834,4.41818 -4.74373,6.73424 l -2.79973,5.27391 0.26974,0.80923 c 2.91135,-3.12528 6.30637,-7.37604 10.93849,-5.92502 3.22759,0.80923 5.27391,4.14844 5.54365,7.27372 0.21393,3.82289 -0.11162,8.29688 -3.71127,10.3432 -4.41818,1.83238 -8.46431,-1.46033 -11.6919,-4.20425 -1.07897,1.13477 1.07896,1.944 1.39521,2.91135 1.88819,2.37186 3.50664,5.44133 2.5858,8.55731 -0.21393,0.97665 -0.85573,1.73007 -1.39521,2.48349 0.26974,1.9905 0.6976,4.03682 1.07896,5.98082 12.00815,-2.26955 23.31869,-6.30637 32.79685,-14.49163"
         id="path3244"
         inkscape:connector-curvature="0"
         style="fill:#e4474a" /></g><g
       transform="matrix(0.85140269,0,0,-0.85140269,113.92719,382.08474)"
       id="layer1-5"
       inkscape:label="Layer 1"
       style="fill:#fceb66;fill-opacity:1;stroke:#000000;stroke-width:1.87925172;stroke-miterlimit:4;stroke-dasharray:none;stroke-opacity:1"><g
         transform="matrix(23.847062,0,0,-23.847062,306.63818,-141.52246)"
         id="g378"
         style="fill:#fceb66;fill-opacity:1;stroke:#000000;stroke-width:0.07880433;stroke-miterlimit:4;stroke-dasharray:none;stroke-opacity:1"><path
           inkscape:connector-curvature="0"
           id="path380"
           style="fill:#fceb66;fill-opacity:1;fill-rule:nonzero;stroke:#000000;stroke-width:0.07880433;stroke-miterlimit:4;stroke-dasharray:none;stroke-opacity:1"
           d="m 0,0 c 0,0 -0.203,1.359 -1.06,2.472 0.444,0.5 0.445,0.54 0.445,0.54 0,0 -0.129,0.183 -0.463,0.506 -0.335,0.322 -0.49,0.43 -0.49,0.43 0,0 -0.337,-0.198 -0.558,-0.413 -0.679,0.63 -1.536,1.005 -1.536,1.005 0,0 -0.17,-0.08 -0.514,-0.398 -0.405,-0.372 -0.559,-0.598 -0.559,-0.598 0,0 0.397,-0.705 1.105,-1.502 -0.794,-0.775 -1.78,-1.836 -2.66,-2.72 -0.969,0.975 -1.941,1.931 -2.786,2.754 0.542,0.59 1.04,1.299 1.04,1.299 0,0 -0.143,0.25 -0.514,0.657 -0.37,0.406 -0.561,0.466 -0.561,0.466 0,0 -0.774,-0.417 -1.426,-1.006 -0.368,0.356 -0.474,0.456 -0.474,0.456 0,0 -0.155,-0.108 -0.49,-0.43 -0.334,-0.323 -0.463,-0.506 -0.463,-0.506 0,0 0.092,-0.105 0.434,-0.492 -0.601,-0.667 -1.01,-1.499 -1.01,-1.499 0,0 0.096,-0.213 0.454,-0.572 0.358,-0.358 0.609,-0.456 0.609,-0.456 0,0 0.683,0.498 1.282,1.027 0.793,-0.888 1.734,-1.931 2.675,-2.95 -0.129,-0.133 -0.255,-0.264 -0.377,-0.391 -2.84,-2.972 -2.835,-3.062 -2.835,-3.062 0,0 0.113,-0.26 0.484,-0.63 0.37,-0.371 0.704,-0.53 0.704,-0.53 0,0 0.09,-10e-4 2.937,2.964 0.104,0.108 0.21,0.219 0.317,0.332 0.108,-0.113 0.214,-0.224 0.318,-0.332 2.847,-2.965 2.937,-2.964 2.937,-2.964 0,0 0.328,0.143 0.698,0.513 0.371,0.37 0.49,0.647 0.49,0.647 0,0 0.005,0.09 -2.835,3.062 -0.122,0.127 -0.248,0.258 -0.377,0.391 0.85,0.921 1.843,2.09 2.59,2.923 C -1.332,0.172 0,0 0,0" /><path
           d="m -5.059,-1.93 c -0.3921317,0.3991317 -0.7873108,0.8013108 -1.231,1.252 M -7.52,-1.93 c 0.3835681,-0.4398387 0.7938961,-0.8771788 1.23,-1.317"
           style="fill:none;fill-opacity:1;fill-rule:nonzero;stroke:#000000;stroke-width:0.07880433;stroke-miterlimit:4;stroke-dasharray:none;stroke-opacity:1"
           id="path2393"
           inkscape:connector-curvature="0"
           sodipodi:nodetypes="cccc" /></g></g></g></svg>