<?xml version="1.0" encoding="UTF-8" standalone="no"?>
<svg
   id="Logo"
   viewBox="0 0 519.07207 257.85932"
   version="1.1"
   sodipodi:docname="AT_hovedlogo_RGB.svg"
   width="519.07208"
   height="257.85931"
   inkscape:version="1.3 (0e150ed, 2023-07-21)"
   xmlns:inkscape="http://www.inkscape.org/namespaces/inkscape"
   xmlns:sodipodi="http://sodipodi.sourceforge.net/DTD/sodipodi-0.dtd"
   xmlns="http://www.w3.org/2000/svg"
   xmlns:svg="http://www.w3.org/2000/svg">
  <sodipodi:namedview
     id="namedview18"
     pagecolor="#ffffff"
     bordercolor="#000000"
     borderopacity="0.25"
     inkscape:showpageshadow="2"
     inkscape:pageopacity="0.0"
     inkscape:pagecheckerboard="0"
     inkscape:deskcolor="#d1d1d1"
     inkscape:zoom="0.45939551"
     inkscape:cx="377.67021"
     inkscape:cy="132.78319"
     inkscape:window-width="1312"
     inkscape:window-height="449"
     inkscape:window-x="0"
     inkscape:window-y="30"
     inkscape:window-maximized="0"
     inkscape:current-layer="Logo" />
  <defs
     id="defs1">
    <style
       id="style1">.cls-1{fill:#fff;}.cls-2{fill:#11c1b0;}</style>
  </defs>
  <circle
     class="cls-1"
     cx="83.366188"
     cy="78.132637"
     r="68.120003"
     id="circle1" />
  <path
     d="m 6.4761827,232.88264 21.6600003,-50.54 h 6.86 l 21.66,50.54 h -10.18 l -4.77,-11.19 h -20.29 l -4.76,11.19 z m 18.6300003,-19.85 h 12.85 l -6.43,-14.95 -6.43,14.95 z"
     id="path1" />
  <path
     d="m 81.916183,206.17264 c -0.65,-0.22 -2.02,-0.36 -3.39,-0.36 -4.12,0 -7.36,2.96 -8.52,5.06 v 22.02 h -9.39 v -35.02 h 9.03 v 3.54 c 2.09,-2.6 5.92,-4.26 10.18,-4.26 1.37,0 2.17,0.14 3.18,0.29 l -1.08,8.74 z"
     id="path2" />
  <path
     d="m 88.776183,232.88264 v -51.26 h 9.39 v 18.77 c 2.739997,-2.17 6.059997,-3.25 9.889997,-3.25 9.53,0 17.18,7.94 17.18,18.27 0,4.76 -1.73,9.1 -4.48,12.27 -3.1,3.61 -8.01,5.92 -13.21,5.92 -3.54,0 -6.86,-1.08 -9.749997,-3.54 v 2.82 z m 9.38,-12.27 c 1.8,2.6 4.909997,4.33 8.449997,4.33 5.27,0 9.24,-4.04 9.24,-9.53 0,-5.06 -3.54,-9.6 -9.03,-9.6 -3.61,0 -6.72,1.73 -8.659997,4.33 z"
     id="path3" />
  <path
     d="m 162.26618,227.32264 c -3.39,4.04 -8.95,6.28 -14.37,6.28 -10.47,0 -18.34,-7.22 -18.34,-18.19 0,-9.75 6.64,-18.27 17.04,-18.27 9.68,0 16.53,8.16 16.53,17.91 0,0.94 -0.07,1.88 -0.22,2.67 h -24.26 c 0.51,4.91 4.48,8.3 9.46,8.3 3.97,0 7.15,-2.24 8.81,-4.04 l 5.34,5.34 z m -8.73,-16.46 c -0.29,-3.1 -3.1,-6.14 -6.93,-6.14 -3.83,0 -7.08,2.96 -7.51,6.14 z"
     id="path4" />
  <path
     d="m 174.31618,179.45264 c 3.39,0 6.14,2.6 6.14,5.99 0,3.39 -2.74,5.99 -6.14,5.99 -3.4,0 -6.14,-2.6 -6.14,-5.99 0,-3.39 2.74,-5.99 6.14,-5.99 z m 4.7,53.43 h -9.39 v -35.02 h 9.39 z"
     id="path5" />
  <path
     d="m 212.94618,232.88264 v -2.82 c -2.89,2.45 -6.21,3.54 -9.75,3.54 -5.2,0 -10.11,-2.31 -13.21,-5.92 -2.74,-3.18 -4.48,-7.51 -4.48,-12.27 0,-10.33 7.65,-18.27 17.19,-18.27 3.83,0 7.15,1.08 9.89,3.25 v -18.77 h 9.39 v 51.26 z m -0.36,-22.74 c -1.95,-2.6 -5.05,-4.33 -8.66,-4.33 -5.49,0 -9.03,4.55 -9.03,9.6 0,5.49 3.97,9.53 9.24,9.53 3.54,0 6.64,-1.73 8.45,-4.33 z"
     id="path6" />
  <path
     d="m 232.42618,222.20264 c 2.38,2.17 6.06,3.46 9.6,3.46 2.53,0 4.48,-1.23 4.48,-2.96 0,-5.27 -16.97,-3.39 -16.97,-14.66 0,-6.71 6.5,-10.9 13.43,-10.9 4.55,0 9.53,1.73 11.84,3.54 l -4.4,6.79 c -1.8,-1.3 -4.19,-2.38 -6.71,-2.38 -2.52,0 -4.77,1.01 -4.77,2.82 0,4.55 16.97,2.75 16.97,14.87 0,6.71 -6.57,10.83 -13.94,10.83 -4.84,0 -9.96,-1.66 -14.08,-4.69 l 4.55,-6.71 z"
     id="path7" />
  <path
     d="m 288.02618,232.88264 c -1.23,0.43 -4.04,0.72 -5.85,0.72 -5.63,0 -9.75,-1.88 -12.13,-5.05 -1.8,-2.38 -2.6,-5.49 -2.6,-10.47 v -12.27 h -9.75 v -7.94 h 9.75 v -9.75 h 9.39 v 9.75 h 11.55 v 7.94 h -11.55 v 13.36 c 0,2.17 0.36,3.46 1.16,4.4 0.94,1.08 2.45,1.73 4.76,1.73 1.37,0 3.18,-0.22 3.83,-0.36 z"
     id="path8" />
  <path
     d="m 300.65618,179.45264 c 3.39,0 6.14,2.6 6.14,5.99 0,3.39 -2.74,5.99 -6.14,5.99 -3.4,0 -6.14,-2.6 -6.14,-5.99 0,-3.39 2.74,-5.99 6.14,-5.99 z m 4.69,53.43 h -9.39 v -35.02 h 9.39 z"
     id="path9" />
  <path
     d="m 324.11618,232.88264 h -9.39 v -51.26 h 9.39 z"
     id="path10" />
  <path
     d="m 334.57618,222.20264 c 2.38,2.17 6.06,3.46 9.6,3.46 2.53,0 4.48,-1.23 4.48,-2.96 0,-5.27 -16.97,-3.39 -16.97,-14.66 0,-6.71 6.5,-10.9 13.43,-10.9 4.55,0 9.53,1.73 11.84,3.54 l -4.4,6.79 c -1.8,-1.3 -4.19,-2.38 -6.71,-2.38 -2.52,0 -4.77,1.01 -4.77,2.82 0,4.55 16.97,2.75 16.97,14.87 0,6.71 -6.57,10.83 -13.94,10.83 -4.84,0 -9.96,-1.66 -14.08,-4.69 l 4.55,-6.71 z"
     id="path11" />
  <path
     d="m 366.55618,250.21264 9.67,-20.87 -15.67,-31.48 h 10.32 l 10.25,21.01 9.46,-21.01 h 9.89 l -24.12,52.35 h -9.82 z"
     id="path12" />
  <path
     d="m 405.17618,232.88264 v -35.02 h 9.03 v 2.82 c 2.67,-2.17 5.99,-3.54 9.89,-3.54 4.84,0 9.24,2.17 12.13,5.63 2.31,2.75 3.61,6.28 3.61,12.27 v 17.83 h -9.39 v -18.56 c 0,-3.46 -0.79,-5.27 -2.09,-6.57 -1.23,-1.23 -3.1,-1.95 -5.27,-1.95 -3.97,0 -7.22,2.53 -8.52,4.33 v 22.74 h -9.39 z"
     id="path13" />
  <path
     d="m 478.31618,227.32264 c -3.39,4.04 -8.95,6.28 -14.37,6.28 -10.47,0 -18.34,-7.22 -18.34,-18.19 0,-9.75 6.64,-18.27 17.04,-18.27 9.68,0 16.53,8.16 16.53,17.91 0,0.94 -0.07,1.88 -0.22,2.67 h -24.26 c 0.51,4.91 4.48,8.3 9.46,8.3 3.97,0 7.15,-2.24 8.81,-4.04 l 5.34,5.34 z m -8.74,-16.46 c -0.29,-3.1 -3.1,-6.14 -6.93,-6.14 -3.83,0 -7.08,2.96 -7.51,6.14 z"
     id="path14" />
  <path
     d="m 511.30618,232.88264 c -1.23,0.43 -4.04,0.72 -5.85,0.72 -5.63,0 -9.75,-1.88 -12.13,-5.05 -1.8,-2.38 -2.6,-5.49 -2.6,-10.47 v -12.27 h -9.75 v -7.94 h 9.75 v -9.75 h 9.39 v 9.75 h 11.55 v 7.94 h -11.55 v 13.36 c 0,2.17 0.36,3.46 1.16,4.4 0.94,1.08 2.45,1.73 4.76,1.73 1.37,0 3.18,-0.22 3.83,-0.36 z"
     id="path15" />
  <path
     class="cls-2"
     d="m 91.166183,33.132637 c 0.52,1.69 -0.05,3.34 -1.25,3.74 -0.46,0.16 -0.86,0.25 -1.21,0.29 0.23,0.08 0.48,0.14 0.73,0.17 2.16,0.28 4.13,-1.21 4.4,-3.32 0.27,-2.11 -1.26,-4.04 -3.43,-4.32 -1.49,-0.19 -2.9,0.46 -3.71,1.58 0.35,-0.19 0.78,-0.37 1.32,-0.53 1.22,-0.35 2.62,0.69 3.14,2.39 z"
     id="path16" />
  <path
     class="cls-2"
     d="m 75.606183,32.312637 c -1.33,0.07 -2.86,0.96 -4.72,2.84 -0.14,0.14 2.56,-1.41 3.24,-0.69 0.6,0.64 1.22,0.79 1.91,0.73 1.01,-0.08 1.56,-0.58 1.5,-1.44 -0.06,-0.86 -0.92,-1.49 -1.93,-1.44 z"
     id="path17" />
  <path
     class="cls-2"
     d="m 82.386183,2.1226366 c -41.92,0 -75.9100003,33.9900004 -75.9100003,75.9100004 V 153.94264 H 82.386183 c 41.919997,0 75.909997,-33.99 75.909997,-75.910003 0,-41.92 -33.99,-75.9100004 -75.909997,-75.9100004 z M 132.67618,79.572637 c -0.47,-5.58 -2.41,-6.54 -2.19,-5.26 0.22,1.28 0.77,3.76 0.3,7.45 -0.48,3.69 -5.49,9.02 -5.49,9.02 0,0 -2.9,-4.41 -2.5,-8.31 0.4,-3.9 4.75,-7.76 2.27,-6.45 -2.11,1.12 -3.52,4.84 -3.52,4.84 0,0 -1.08,-1.29 -0.59,-4.41 0.5,-3.11 5.31,-6.95 5.87,-7.55 0.48,-0.52 0.61,-1.57 0.34,-2.46 -1.03,-2.41 -3.06,-4.17 -6.18,-4.57 -5.35,-0.68 -10.24,2.91 -10.89,8.02 -0.25,2 0.16,3.99 1.2,5.75 1.47,2.5 3.09,4.49 4.51,6.24 1.6,1.98 3.11,3.84 4.1,6.01 0.68,1.49 0.89,3.23 0.65,5.16 -0.74,5.79 -6.16,9.890003 -12.08,9.130003 -0.95,-0.12 -1.89,-0.27 -2.8,-0.45 0.46,1.69 1.15,3.4 3.35,5.1 2.4,1.85 4.95,1.25 7.19,2.47 2.24,1.22 2.6,2.11 2.6,2.11 0,0 -2.94,-0.61 -3.05,0.23 -0.1,0.84 1.89,0.94 3.09,1.32 1.19,0.38 1.79,1.7 1.79,1.7 0,0 -1.83,-0.78 -1.55,0.03 0.02,0.06 0.94,1.42 1.76,2.62 0.81,1.2 1.46,2.43 0.27,4.2 -4.49,4 -9.59,7.31 -15.16,9.78 -0.55,-1.6 -1.33,-3.63 -0.82,-6.66 0.4,-2.4 1.7,-3.3 3.51,-3.36 1.81,-0.06 3.41,0.31 4.52,-0.98 0.29,-0.34 0.37,-0.79 0.34,-1.25 -1.02,-1.08 -2.59,-2.64 -3.9,-3.47 -2.15,-1.36 -2.93,-2.54 -6.89,-2.43 -3.959997,0.11 -12.089997,1.94 -16.339997,-2.95 -1.17,-1.34 -1.92,-2.8 -2.41,-4.25 -0.51,0.37 -1.05,0.7 -1.58,0.98 v 0 c -0.42,0.24 -2.38,1.1 -2.38,1.1 -2.61,1.01 -5.64,1.74 -7.6,2.29 -2.61,0.74 -3.66,1.51 -4.25,3.04 -0.66,1.71 0.58,4.31 0.58,4.31 0,0 -0.55,1.37 -2.12,3.21 -1.35,1.58 -4.42,3.13 -4.42,3.13 0,0 2.35,-5 -0.04,-2.2 -2.39,2.8 -4.61,3.37 -4.61,3.37 1.2,-1.4 1.45,-3.4 -0.04,-1.72 -1.5,1.69 -4.82,2.49 -4.82,2.49 1.48,-1.04 2.78,-2.91 1.25,-2.25 -1.35,0.59 -3.57,1.01 -5.01,1.02 -0.5,0.06 -1.07,-0.01 -1.75,-0.3 -4.82,-3.66 -9.04,-8.06 -12.52,-13.02 1.54,-0.85 4.15,-2 7.21,-2.09 2.43,-0.07 2.61,0.75 3.44,2.36 0.91,1.76 1.21,5.99 1.21,5.99 0,0 2.21,1.35 6.52,0.82 3.04,-0.73 4.7,-1.91 4.86,-2.42 0.18,-0.56 -2.33,-7.71 0.6,-12.09 0.85,-1.27 1.8,-2.17 2.75,-2.86 v 0 c 0,0 1.94,-1.390003 3.96,-2.130003 -7.61,-2.83 -9.26,-7.62 -9.78,-8.79 -0.85,-1.91 -0.5,3.96 -0.5,3.96 0,0 -1.88,-2.41 -1.86,-6.72 v 0 c 0,0 0.06,-1.85 0.32,-3.3 -5.03,-0.28 -7.11,-1.07 -7.11,-1.07 0,0 5.58,-2.23 -0.18,-1.29 -5.51,0.9 -8.45,-0.85 -8.45,-0.85 0.95,-0.22 4.32,-2.32 0.82,-1.5 -5.25,1.23 -7.85,-1.47 -7.85,-1.47 1.46,0.24 4.47,-0.35 2.5,-1.17 -1.19,-0.5 -2.86,-1.55 -3.98,-2.29 -0.27,-0.16 -4.17,-2.83 -4.29,-5.63 0.82,-5.16 2.32,-10.09 4.4,-14.71 1.48,0.84 3.45,2.01 5.09,4.6 1.31,2.06 0.66,3.75 -0.64,5.01 -1.3,1.25 -2.68,2.14 -2.68,3.42 0,0.76 0.67,1.37 1.35,1.83 0.35,0.23 0.69,0.42 0.94,0.57 5.63,2.37 12.96,3.9 17.7,4.56 0.59,-2.75 2.01,-5.23 3.66,-7.34 -0.03,-0.03 -0.06,-0.06 -0.08,-0.09 -3.43,-3.24 -5.04,-8.09 -5.04,-8.09 0,0 5.39,2.66 0.84,-0.99 -4.36,-3.5 -5.02,-6.85 -5.02,-6.85 0.8,0.55 4.61,1.66 1.67,-0.39 -4.43,-3.08 -4.16,-6.82 -4.16,-6.82 0.8,1.25 3.25,3.09 2.55,1.08 -0.37,-1.07 -0.75,-2.93 -1.02,-4.45 -0.07,-0.28 -0.13,-0.58 -0.2,-0.92 -0.32,-1.77 -0.73,-3.8 0.69,-5.81 3.85,-3.25 8.13,-6.01 12.74,-8.18 0.59,1.6 1.46,3.76 1.02,6.81 -0.35,2.41 -1.9,3.19 -3.71,3.29 -1.8,0.1 -3.2,-0.25 -4.29,1.07 -0.76,0.93 0.04,2.63 0.23,3.44 v 0.03 c 2.26,6.55 6.82,14.02 9.47,17.71 2.28,-1.59 4.67,-2.4 6.96,-2.62 1.55,-0.15 4.24,-0.51 1.9,-1.08 -2.56,-0.62 -5.82,0.14 -2.79,-1.16 3.69,-1.59 8.6,0.33 10.13,-0.02 1.54,-0.36 1.85,-3.17 1.91,-4.53 -0.11,0 -0.22,0 -0.34,-0.01 -1.77,0.15 -6.48,0.61 -8.17,1.36 0,0 -1.08,-2.13 -1.12,-4.29 0,0 0.28,0.35 0.69,0.56 0.59,0.18 1.62,0.15 3,-0.12 1.47,-0.29 2.21,-1 2.51,-1.77 0.4,-1.01 -0.38,-2.44 -1.09,-2.67 -0.87,-0.28 -2.13,-0.09 -3.22,0.44 -0.23,0.14 -0.44,0.28 -0.65,0.41 -1.72,1.09 -1.35,2.31 -1.35,2.31 0,0 -1.64,-1 -2.81,-4.88 0,0 -2.16,-1.55 -2.13,-2.53 0,0 2.16,-2.28 5.93,-4.15 0,0 2.72,-3.58 7.06,-4.5 0,0 2.44,-5.39 10.08,-5.88 3.07,-0.2 -3.35,1.53 -4.14,2.42 -1.49,1.68 3.29,-1.94 10.53,-0.91 0.13,0.02 0.38,0.05 0.38,0.05 0.33,0.05 1.27,0.27 1.41,0.31 0.06,0.02 0.55,0.16 0.73,0.22 7.149997,2.4 13.449997,10.61 12.399997,21.12 -0.65,-2.85 -1.6,-4.55 -3.15,-6.76 -2.3,-3.26 -2.99,-2.83 -1.07,0.77 1.79,3.37 3.76,10.13 1.57,15.47 -0.76,1.64 -1.68,3.24 -2.74,4.79 0.63,-3.34 0.39,-5.24 -0.32,-7.94 -0.91,-3.48 -1.64,-3.33 -1.16,0.3 0.45,3.41 -0.03,9.75 -3.599997,13.54 -1.14,1.06 -2.36,2.07 -3.67,3.02 1.44,-2.52 1.81,-4.2 2.02,-6.67 0.3,-3.29 -0.38,-3.39 -1.09,-0.1 -0.64,2.95 -2.85,7.96 -6.78,10.29 -1.91,0.94 -3.95,1.77 -6.11,2.45 v 0 c 0,0 0.22,4.72 2.39,8.53 1.29,2.28 3.22,4.05 4.41,5.02 0.35,0.27 0.7,0.54 1.08,0.81 0,0 3.02,0.59 5.59,1.07 2.57,0.48 7.099997,2.61 9.349997,6.23 0,0 0,0 -0.03,0 1.12,0.62 2.38,1.07 3.78,1.25 3.86,0.5 7.59,-1.6 8.07,-5.38 0.16,-1.22 0.04,-2.33 -0.35,-3.18 -0.78,-1.72 -2.06,-3.31 -3.54,-5.16 -1.47,-1.83 -3.14,-3.9 -4.71,-6.58 -1.42,-2.42 -1.98,-5.16 -1.63,-7.92 0.89,-6.98 7.46,-11.9 14.65,-10.98 4.37,0.56 7.97,3.15 9.93,6.67 3.96,6.24 1.66,14.3 1.66,14.3 z m -70.129997,-35.6 c 2.89,-1.75 5.1,0.86 5.1,0.86 v 0.03 c -1.89,-0.72 -2.95,0.15 -5.7,2.12 -2.81,2 -5.24,-1.04 -5.24,-1.04 v -0.03 c 1.89,0.73 2.96,-0.18 5.85,-1.94 z"
     id="path18" />
  <rect
     style="fill:none;stroke:none;stroke-width:0.973834;stroke-opacity:1"
     id="rect36"
     width="518.09827"
     height="256.88547"
     x="0.48691699"
     y="0.48691699" />
</svg>
