<?xml version="1.0" encoding="UTF-8"?><svg id="Logo" xmlns="http://www.w3.org/2000/svg" viewBox="0 0 808.83 551.73"><defs><style>.cls-1{fill:#fff;}.cls-2{fill:#11c1b0;}</style></defs><circle class="cls-1" cx="228.71" cy="227.83" r="68.12"/><path d="M151.82,382.58l21.66-50.54h6.86l21.66,50.54h-10.18l-4.77-11.19h-20.29l-4.76,11.19h-10.18ZM170.45,362.73h12.85l-6.43-14.95-6.43,14.95Z"/><path d="M227.26,355.87c-.65-.22-2.02-.36-3.39-.36-4.12,0-7.36,2.96-8.52,5.06v22.02h-9.39v-35.02h9.03v3.54c2.09-2.6,5.92-4.26,10.18-4.26,1.37,0,2.17.14,3.18.29l-1.08,8.74Z"/><path d="M234.12,382.58v-51.26h9.39v18.77c2.74-2.17,6.06-3.25,9.89-3.25,9.53,0,17.18,7.94,17.18,18.27,0,4.76-1.73,9.1-4.48,12.27-3.1,3.61-8.01,5.92-13.21,5.92-3.54,0-6.86-1.08-9.75-3.54v2.82h-9.02ZM243.5,370.31c1.8,2.6,4.91,4.33,8.45,4.33,5.27,0,9.24-4.04,9.24-9.53,0-5.06-3.54-9.6-9.03-9.6-3.61,0-6.72,1.73-8.66,4.33v10.47Z"/><path d="M307.61,377.02c-3.39,4.04-8.95,6.28-14.37,6.28-10.47,0-18.34-7.22-18.34-18.19,0-9.75,6.64-18.27,17.04-18.27,9.68,0,16.53,8.16,16.53,17.91,0,.94-.07,1.88-.22,2.67h-24.26c.51,4.91,4.48,8.3,9.46,8.3,3.97,0,7.15-2.24,8.81-4.04l5.34,5.34ZM298.88,360.56c-.29-3.1-3.1-6.14-6.93-6.14s-7.08,2.96-7.51,6.14h14.44Z"/><path d="M319.66,329.15c3.39,0,6.14,2.6,6.14,5.99s-2.74,5.99-6.14,5.99-6.14-2.6-6.14-5.99,2.74-5.99,6.14-5.99ZM324.36,382.58h-9.39v-35.02h9.39v35.02Z"/><path d="M358.29,382.58v-2.82c-2.89,2.45-6.21,3.54-9.75,3.54-5.2,0-10.11-2.31-13.21-5.92-2.74-3.18-4.48-7.51-4.48-12.27,0-10.33,7.65-18.27,17.19-18.27,3.83,0,7.15,1.08,9.89,3.25v-18.77h9.39v51.26h-9.03ZM357.93,359.84c-1.95-2.6-5.05-4.33-8.66-4.33-5.49,0-9.03,4.55-9.03,9.6,0,5.49,3.97,9.53,9.24,9.53,3.54,0,6.64-1.73,8.45-4.33v-10.47Z"/><path d="M377.77,371.9c2.38,2.17,6.06,3.46,9.6,3.46,2.53,0,4.48-1.23,4.48-2.96,0-5.27-16.97-3.39-16.97-14.66,0-6.71,6.5-10.9,13.43-10.9,4.55,0,9.53,1.73,11.84,3.54l-4.4,6.79c-1.8-1.3-4.19-2.38-6.71-2.38s-4.77,1.01-4.77,2.82c0,4.55,16.97,2.75,16.97,14.87,0,6.71-6.57,10.83-13.94,10.83-4.84,0-9.96-1.66-14.08-4.69l4.55-6.71Z"/><path d="M433.37,382.58c-1.23.43-4.04.72-5.85.72-5.63,0-9.75-1.88-12.13-5.05-1.8-2.38-2.6-5.49-2.6-10.47v-12.27h-9.75v-7.94h9.75v-9.75h9.39v9.75h11.55v7.94h-11.55v13.36c0,2.17.36,3.46,1.16,4.4.94,1.08,2.45,1.73,4.76,1.73,1.37,0,3.18-.22,3.83-.36l1.44,7.94Z"/><path d="M446,329.15c3.39,0,6.14,2.6,6.14,5.99s-2.74,5.99-6.14,5.99-6.14-2.6-6.14-5.99,2.74-5.99,6.14-5.99ZM450.69,382.58h-9.39v-35.02h9.39v35.02Z"/><path d="M469.46,382.58h-9.39v-51.26h9.39v51.26Z"/><path d="M479.92,371.9c2.38,2.17,6.06,3.46,9.6,3.46,2.53,0,4.48-1.23,4.48-2.96,0-5.27-16.97-3.39-16.97-14.66,0-6.71,6.5-10.9,13.43-10.9,4.55,0,9.53,1.73,11.84,3.54l-4.4,6.79c-1.8-1.3-4.19-2.38-6.71-2.38s-4.77,1.01-4.77,2.82c0,4.55,16.97,2.75,16.97,14.87,0,6.71-6.57,10.83-13.94,10.83-4.84,0-9.96-1.66-14.08-4.69l4.55-6.71Z"/><path d="M511.9,399.91l9.67-20.87-15.67-31.48h10.32l10.25,21.01,9.46-21.01h9.89l-24.12,52.35h-9.82Z"/><path d="M550.52,382.58v-35.02h9.03v2.82c2.67-2.17,5.99-3.54,9.89-3.54,4.84,0,9.24,2.17,12.13,5.63,2.31,2.75,3.61,6.28,3.61,12.27v17.83h-9.39v-18.56c0-3.46-.79-5.27-2.09-6.57-1.23-1.23-3.1-1.95-5.27-1.95-3.97,0-7.22,2.53-8.52,4.33v22.74h-9.39Z"/><path d="M623.66,377.02c-3.39,4.04-8.95,6.28-14.37,6.28-10.47,0-18.34-7.22-18.34-18.19,0-9.75,6.64-18.27,17.04-18.27,9.68,0,16.53,8.16,16.53,17.91,0,.94-.07,1.88-.22,2.67h-24.26c.51,4.91,4.48,8.3,9.46,8.3,3.97,0,7.15-2.24,8.81-4.04l5.34,5.34ZM614.92,360.56c-.29-3.1-3.1-6.14-6.93-6.14s-7.08,2.96-7.51,6.14h14.44Z"/><path d="M656.65,382.58c-1.23.43-4.04.72-5.85.72-5.63,0-9.75-1.88-12.13-5.05-1.8-2.38-2.6-5.49-2.6-10.47v-12.27h-9.75v-7.94h9.75v-9.75h9.39v9.75h11.55v7.94h-11.55v13.36c0,2.17.36,3.46,1.16,4.4.94,1.08,2.45,1.73,4.76,1.73,1.37,0,3.18-.22,3.83-.36l1.44,7.94Z"/><path class="cls-2" d="M236.51,182.83c.52,1.69-.05,3.34-1.25,3.74-.46.16-.86.25-1.21.29.23.08.48.14.73.17,2.16.28,4.13-1.21,4.4-3.32.27-2.11-1.26-4.04-3.43-4.32-1.49-.19-2.9.46-3.71,1.58.35-.19.78-.37,1.32-.53,1.22-.35,2.62.69,3.14,2.39Z"/><path class="cls-2" d="M220.95,182.01c-1.33.07-2.86.96-4.72,2.84-.14.14,2.56-1.41,3.24-.69.6.64,1.22.79,1.91.73,1.01-.08,1.56-.58,1.5-1.44-.06-.86-.92-1.49-1.93-1.44Z"/><path class="cls-2" d="M227.73,151.82c-41.92,0-75.91,33.99-75.91,75.91v75.91h75.91c41.92,0,75.91-33.99,75.91-75.91s-33.99-75.91-75.91-75.91ZM278.02,229.27c-.47-5.58-2.41-6.54-2.19-5.26.22,1.28.77,3.76.3,7.45-.48,3.69-5.49,9.02-5.49,9.02,0,0-2.9-4.41-2.5-8.31.4-3.9,4.75-7.76,2.27-6.45-2.11,1.12-3.52,4.84-3.52,4.84,0,0-1.08-1.29-.59-4.41.5-3.11,5.31-6.95,5.87-7.55.48-.52.61-1.57.34-2.46-1.03-2.41-3.06-4.17-6.18-4.57-5.35-.68-10.24,2.91-10.89,8.02-.25,2,.16,3.99,1.2,5.75,1.47,2.5,3.09,4.49,4.51,6.24,1.6,1.98,3.11,3.84,4.1,6.01.68,1.49.89,3.23.65,5.16-.74,5.79-6.16,9.89-12.08,9.13-.95-.12-1.89-.27-2.8-.45.46,1.69,1.15,3.4,3.35,5.1,2.4,1.85,4.95,1.25,7.19,2.47,2.24,1.22,2.6,2.11,2.6,2.11,0,0-2.94-.61-3.05.23-.1.84,1.89.94,3.09,1.32,1.19.38,1.79,1.7,1.79,1.7,0,0-1.83-.78-1.55.03.02.06.94,1.42,1.76,2.62.81,1.2,1.46,2.43.27,4.2-4.49,4-9.59,7.31-15.16,9.78-.55-1.6-1.33-3.63-.82-6.66.4-2.4,1.7-3.3,3.51-3.36,1.81-.06,3.41.31,4.52-.98.29-.34.37-.79.34-1.25-1.02-1.08-2.59-2.64-3.9-3.47-2.15-1.36-2.93-2.54-6.89-2.43-3.96.11-12.09,1.94-16.34-2.95-1.17-1.34-1.92-2.8-2.41-4.25-.51.37-1.05.7-1.58.98h0c-.42.24-2.38,1.1-2.38,1.1-2.61,1.01-5.64,1.74-7.6,2.29-2.61.74-3.66,1.51-4.25,3.04-.66,1.71.58,4.31.58,4.31,0,0-.55,1.37-2.12,3.21-1.35,1.58-4.42,3.13-4.42,3.13,0,0,2.35-5-.04-2.2-2.39,2.8-4.61,3.37-4.61,3.37,1.2-1.4,1.45-3.4-.04-1.72-1.5,1.69-4.82,2.49-4.82,2.49,1.48-1.04,2.78-2.91,1.25-2.25-1.35.59-3.57,1.01-5.01,1.02-.5.06-1.07-.01-1.75-.3-4.82-3.66-9.04-8.06-12.52-13.02,1.54-.85,4.15-2,7.21-2.09,2.43-.07,2.61.75,3.44,2.36.91,1.76,1.21,5.99,1.21,5.99,0,0,2.21,1.35,6.52.82,3.04-.73,4.7-1.91,4.86-2.42.18-.56-2.33-7.71.6-12.09.85-1.27,1.8-2.17,2.75-2.86h0s1.94-1.39,3.96-2.13c-7.61-2.83-9.26-7.62-9.78-8.79-.85-1.91-.5,3.96-.5,3.96,0,0-1.88-2.41-1.86-6.72h0s.06-1.85.32-3.3c-5.03-.28-7.11-1.07-7.11-1.07,0,0,5.58-2.23-.18-1.29-5.51.9-8.45-.85-8.45-.85.95-.22,4.32-2.32.82-1.5-5.25,1.23-7.85-1.47-7.85-1.47,1.46.24,4.47-.35,2.5-1.17-1.19-.5-2.86-1.55-3.98-2.29-.27-.16-4.17-2.83-4.29-5.63.82-5.16,2.32-10.09,4.4-14.71,1.48.84,3.45,2.01,5.09,4.6,1.31,2.06.66,3.75-.64,5.01-1.3,1.25-2.68,2.14-2.68,3.42,0,.76.67,1.37,1.35,1.83.35.23.69.42.94.57,5.63,2.37,12.96,3.9,17.7,4.56.59-2.75,2.01-5.23,3.66-7.34-.03-.03-.06-.06-.08-.09-3.43-3.24-5.04-8.09-5.04-8.09,0,0,5.39,2.66.84-.99-4.36-3.5-5.02-6.85-5.02-6.85.8.55,4.61,1.66,1.67-.39-4.43-3.08-4.16-6.82-4.16-6.82.8,1.25,3.25,3.09,2.55,1.08-.37-1.07-.75-2.93-1.02-4.45-.07-.28-.13-.58-.2-.92-.32-1.77-.73-3.8.69-5.81,3.85-3.25,8.13-6.01,12.74-8.18.59,1.6,1.46,3.76,1.02,6.81-.35,2.41-1.9,3.19-3.71,3.29-1.8.1-3.2-.25-4.29,1.07-.76.93.04,2.63.23,3.44v.03c2.26,6.55,6.82,14.02,9.47,17.71,2.28-1.59,4.67-2.4,6.96-2.62,1.55-.15,4.24-.51,1.9-1.08-2.56-.62-5.82.14-2.79-1.16,3.69-1.59,8.6.33,10.13-.02,1.54-.36,1.85-3.17,1.91-4.53-.11,0-.22,0-.34-.01-1.77.15-6.48.61-8.17,1.36,0,0-1.08-2.13-1.12-4.29,0,0,.28.35.69.56.59.18,1.62.15,3-.12,1.47-.29,2.21-1,2.51-1.77.4-1.01-.38-2.44-1.09-2.67-.87-.28-2.13-.09-3.22.44-.23.14-.44.28-.65.41-1.72,1.09-1.35,2.31-1.35,2.31,0,0-1.64-1-2.81-4.88,0,0-2.16-1.55-2.13-2.53,0,0,2.16-2.28,5.93-4.15,0,0,2.72-3.58,7.06-4.5,0,0,2.44-5.39,10.08-5.88,3.07-.2-3.35,1.53-4.14,2.42-1.49,1.68,3.29-1.94,10.53-.91.13.02.38.05.38.05.33.05,1.27.27,1.41.31.06.02.55.16.73.22,7.15,2.4,13.45,10.61,12.4,21.12-.65-2.85-1.6-4.55-3.15-6.76-2.3-3.26-2.99-2.83-1.07.77,1.79,3.37,3.76,10.13,1.57,15.47-.76,1.64-1.68,3.24-2.74,4.79.63-3.34.39-5.24-.32-7.94-.91-3.48-1.64-3.33-1.16.3.45,3.41-.03,9.75-3.6,13.54-1.14,1.06-2.36,2.07-3.67,3.02,1.44-2.52,1.81-4.2,2.02-6.67.3-3.29-.38-3.39-1.09-.1-.64,2.95-2.85,7.96-6.78,10.29-1.91.94-3.95,1.77-6.11,2.45h0s.22,4.72,2.39,8.53c1.29,2.28,3.22,4.05,4.41,5.02.35.27.7.54,1.08.81,0,0,3.02.59,5.59,1.07,2.57.48,7.1,2.61,9.35,6.23,0,0,0,0-.03,0,1.12.62,2.38,1.07,3.78,1.25,3.86.5,7.59-1.6,8.07-5.38.16-1.22.04-2.33-.35-3.18-.78-1.72-2.06-3.31-3.54-5.16-1.47-1.83-3.14-3.9-4.71-6.58-1.42-2.42-1.98-5.16-1.63-7.92.89-6.98,7.46-11.9,14.65-10.98,4.37.56,7.97,3.15,9.93,6.67,3.96,6.24,1.66,14.3,1.66,14.3ZM207.89,193.67c2.89-1.75,5.1.86,5.1.86v.03c-1.89-.72-2.95.15-5.7,2.12-2.81,2-5.24-1.04-5.24-1.04v-.03c1.89.73,2.96-.18,5.85-1.94Z"/></svg>