<svg width="150" height="74" viewBox="0 0 150 74" fill="none" xmlns="http://www.w3.org/2000/svg">
<path d="M22.7093 42.7469C33.8741 42.7469 42.925 33.696 42.925 22.5312C42.925 11.3663 33.8741 2.31545 22.7093 2.31545C11.5445 2.31545 2.49358 11.3663 2.49358 22.5312C2.49358 33.696 11.5445 42.7469 22.7093 42.7469Z" fill="white"/>
<path d="M0 68.5137L6.44172 53.5227H8.49001L14.9317 68.5137H11.9038L10.4789 65.189H4.4528L3.02791 68.5137H0ZM5.52147 62.6064H9.35088L7.45102 58.1833L5.52147 62.6064Z" fill="black"/>
<path d="M22.3827 60.5581C22.1749 60.4987 21.789 60.4393 21.3734 60.4393C20.1563 60.4393 19.1767 61.3299 18.8502 61.9533V68.4841H16.0598V58.0942H18.7314V59.1332C19.3548 58.3614 20.4829 57.8567 21.7593 57.8567C22.1749 57.8567 22.4124 57.8864 22.7093 57.9458L22.3827 60.5581Z" fill="black"/>
<path d="M24.4013 68.5137V53.2852H27.1917V58.866C27.9933 58.2129 29.0026 57.9161 30.1306 57.9161C32.9507 57.9161 35.2365 60.2612 35.2365 63.3485C35.2365 64.7734 34.7318 66.0499 33.9006 66.9998C32.9804 68.0685 31.5258 68.7512 29.9822 68.7512C28.9432 68.7512 27.9339 68.4247 27.1027 67.7122V68.5434H24.4013V68.5137ZM27.1917 64.8625C27.7261 65.6343 28.6463 66.1389 29.6853 66.1389C31.2586 66.1389 32.4164 64.9515 32.4164 63.3188C32.4164 61.8049 31.3774 60.469 29.7447 60.469C28.676 60.469 27.7558 60.9737 27.1621 61.7455V64.8625H27.1917Z" fill="black"/>
<path d="M46.2201 66.8514C45.2108 68.0388 43.5484 68.7215 41.9454 68.7215C38.8284 68.7215 36.513 66.5842 36.513 63.3188C36.513 60.4393 38.4722 57.8864 41.5595 57.8864C44.4389 57.8864 46.4575 60.3206 46.4575 63.2001C46.4575 63.4672 46.4279 63.7641 46.3982 64.0016H39.1846C39.3331 65.4562 40.5205 66.4655 42.0047 66.4655C43.1922 66.4655 44.1124 65.8124 44.6171 65.278L46.2201 66.8514ZM43.6374 61.9533C43.5484 61.033 42.7172 60.1425 41.5892 60.1425C40.4314 60.1425 39.4815 61.033 39.3628 61.9533H43.6374Z" fill="black"/>
<path d="M49.812 52.6321C50.8213 52.6321 51.6228 53.4039 51.6228 54.4132C51.6228 55.4225 50.8213 56.1943 49.812 56.1943C48.8027 56.1943 48.0012 55.4225 48.0012 54.4132C48.0012 53.4039 48.8027 52.6321 49.812 52.6321ZM51.2072 68.5137H48.4168V58.1239H51.2072V68.5137Z" fill="black"/>
<path d="M61.2705 68.5137V67.6826C60.4097 68.4247 59.43 68.7215 58.3911 68.7215C56.8474 68.7215 55.3928 68.0388 54.4726 66.9701C53.6711 66.0202 53.1367 64.7437 53.1367 63.3188C53.1367 60.2612 55.4225 57.8864 58.2426 57.8864C59.3707 57.8864 60.3503 58.2129 61.1815 58.8363V53.2555H63.9719V68.4841H61.2705V68.5137ZM61.1815 61.7455C60.6175 60.9737 59.6675 60.469 58.5988 60.469C56.9662 60.469 55.9272 61.8049 55.9272 63.3188C55.9272 64.9515 57.1146 66.1389 58.6582 66.1389C59.6972 66.1389 60.6175 65.6343 61.1518 64.8625V61.7455H61.1815Z" fill="black"/>
<path d="M67.0592 65.3374C67.7716 65.9905 68.87 66.3764 69.909 66.3764C70.6511 66.3764 71.2448 66.0202 71.2448 65.4858C71.2448 63.9125 66.1983 64.4765 66.1983 61.1221C66.1983 59.1332 68.1278 57.8864 70.1761 57.8864C71.512 57.8864 72.9962 58.391 73.679 58.9254L72.3729 60.944C71.8385 60.5581 71.1261 60.2315 70.3839 60.2315C69.6121 60.2315 68.959 60.5284 68.959 61.0627C68.959 62.4282 74.0056 61.8642 74.0056 65.4858C74.0056 67.4748 72.0463 68.6919 69.8793 68.6919C68.4544 68.6919 66.9108 68.1872 65.6937 67.2966L67.0592 65.3374Z" fill="black"/>
<path d="M83.5642 68.5137C83.208 68.6325 82.3768 68.7215 81.8425 68.7215C80.1801 68.7215 78.963 68.1575 78.2506 67.2076C77.7162 66.4951 77.4787 65.5749 77.4787 64.0906V60.4393H74.5993V58.0942H77.4787V55.2147H80.2691V58.0942H83.7127V60.4393H80.2691V64.4172C80.2691 65.0703 80.3879 65.4562 80.6254 65.7233C80.8925 66.0499 81.3675 66.228 82.0503 66.228C82.4659 66.228 83.0002 66.1686 83.1783 66.1092L83.5642 68.5137Z" fill="black"/>
<path d="M87.3046 52.6321C88.3139 52.6321 89.1154 53.4039 89.1154 54.4132C89.1154 55.4225 88.3139 56.1943 87.3046 56.1943C86.2953 56.1943 85.4938 55.4225 85.4938 54.4132C85.4938 53.4039 86.2953 52.6321 87.3046 52.6321ZM88.6998 68.5137H85.9094V58.1239H88.6998V68.5137Z" fill="black"/>
<path d="M94.2806 68.5137H91.4902V53.2852H94.2806V68.5137Z" fill="black"/>
<path d="M97.3976 65.3374C98.11 65.9905 99.2084 66.3764 100.247 66.3764C100.99 66.3764 101.583 66.0202 101.583 65.4858C101.583 63.9125 96.5367 64.4765 96.5367 61.1221C96.5367 59.1332 98.4663 57.8864 100.515 57.8864C101.85 57.8864 103.335 58.391 104.017 58.9254L102.711 60.944C102.177 60.5581 101.464 60.2315 100.722 60.2315C99.9505 60.2315 99.2974 60.5284 99.2974 61.0627C99.2974 62.4282 104.344 61.8642 104.344 65.4858C104.344 67.4748 102.385 68.6919 100.218 68.6919C98.7928 68.6919 97.2492 68.1872 96.0321 67.2966L97.3976 65.3374Z" fill="black"/>
<path d="M106.867 73.6493L109.747 67.4451L105.086 58.0942H108.144L111.201 64.3281L114.021 58.0942H116.96L109.806 73.6196H106.867V73.6493Z" fill="black"/>
<path d="M118.355 68.5138V58.1239H121.027V58.9551C121.829 58.302 122.808 57.9161 123.966 57.9161C125.391 57.9161 126.697 58.5692 127.558 59.5785C128.241 60.38 128.627 61.4486 128.627 63.2298V68.5138H125.836V62.9923C125.836 61.9533 125.599 61.419 125.213 61.0331C124.857 60.6768 124.292 60.4393 123.639 60.4393C122.452 60.4393 121.502 61.1815 121.116 61.7158V68.4544H118.355V68.5138Z" fill="black"/>
<path d="M140.055 66.8514C139.046 68.0388 137.384 68.7215 135.781 68.7215C132.664 68.7215 130.348 66.5842 130.348 63.3188C130.348 60.4393 132.308 57.8864 135.395 57.8864C138.274 57.8864 140.293 60.3206 140.293 63.2001C140.293 63.4672 140.263 63.7641 140.234 64.0016H133.02C133.168 65.4562 134.356 66.4655 135.84 66.4655C137.027 66.4655 137.948 65.8124 138.452 65.278L140.055 66.8514ZM137.473 61.9533C137.384 61.033 136.553 60.1425 135.424 60.1425C134.267 60.1425 133.317 61.033 133.198 61.9533H137.473Z" fill="black"/>
<path d="M149.852 68.5137C149.495 68.6325 148.664 68.7215 148.13 68.7215C146.467 68.7215 145.25 68.1575 144.538 67.2076C144.004 66.4951 143.766 65.5749 143.766 64.0906V60.4393H140.887V58.0942H143.766V55.2147H146.556V58.0942H150V60.4393H146.527V64.4172C146.527 65.0703 146.646 65.4562 146.883 65.7233C147.15 66.0499 147.625 66.228 148.308 66.228C148.724 66.228 149.258 66.1686 149.436 66.1092L149.852 68.5137Z" fill="black"/>
<path d="M25.1138 9.20245C25.2622 9.7071 25.1138 10.1821 24.7279 10.3008C24.5794 10.3602 24.4607 10.3602 24.3717 10.3899C24.431 10.4196 24.5201 10.4196 24.5794 10.4492C25.2325 10.5383 25.7966 10.093 25.8856 9.46962C25.9747 8.84623 25.4997 8.28221 24.8763 8.19315C24.431 8.13378 24.0154 8.34158 23.7779 8.66812C23.8967 8.60875 24.0154 8.54938 24.1639 8.51969C24.5498 8.40095 24.9654 8.6978 25.1138 9.20245Z" fill="#11C1B0"/>
<path d="M20.5126 8.96497C20.1267 8.99466 19.6517 9.26183 19.1174 9.79616C19.0877 9.82585 19.8892 9.38056 20.0673 9.58836C20.2454 9.76647 20.4235 9.82585 20.6313 9.79616C20.9282 9.76648 21.1063 9.61805 21.0766 9.38056C21.0766 9.14308 20.8094 8.93529 20.5126 8.96497Z" fill="#11C1B0"/>
<path d="M22.5312 0C10.093 0 0 10.093 0 22.5312V45.0623H22.5312C34.9693 45.0623 45.0623 34.9693 45.0623 22.5312C45.0623 10.093 34.9693 0 22.5312 0ZM37.4629 22.9764C37.3145 21.3141 36.7504 21.0469 36.8098 21.4031C36.8692 21.789 37.0473 22.5312 36.8989 23.6295C36.7504 24.7279 35.2662 26.3012 35.2662 26.3012C35.2662 26.3012 34.4053 24.995 34.524 23.8373C34.6428 22.6796 35.9489 21.5219 35.2068 21.9375C34.5834 22.264 34.1678 23.3624 34.1678 23.3624C34.1678 23.3624 33.8413 22.9764 33.9897 22.0562C34.1381 21.136 35.563 19.9782 35.7411 19.8001C35.8896 19.6517 35.9193 19.3252 35.8302 19.058C35.5333 18.3455 34.91 17.8112 33.9897 17.6925C32.3867 17.4847 30.9618 18.5533 30.754 20.0673C30.665 20.661 30.8134 21.2547 31.1102 21.789C31.5555 22.5312 32.0305 23.1249 32.4461 23.6295C32.921 24.2232 33.3663 24.7576 33.6632 25.4106C33.871 25.8559 33.9303 26.3606 33.8413 26.9543C33.6335 28.676 32.0008 29.8931 30.2494 29.6556C29.9822 29.626 29.6853 29.5666 29.4182 29.5369C29.5666 30.0416 29.7744 30.5462 30.4275 31.0509C31.1399 31.6149 31.9117 31.4368 32.5648 31.793C33.2179 32.1492 33.3366 32.4164 33.3366 32.4164C33.3366 32.4164 32.4758 32.2383 32.4164 32.4758C32.3867 32.7132 32.9804 32.7429 33.3366 32.8617C33.6929 32.9804 33.871 33.3663 33.871 33.3663C33.871 33.3663 33.3366 33.1288 33.396 33.3663C33.396 33.396 33.6632 33.7819 33.9303 34.1381C34.1678 34.4944 34.3756 34.8506 34.0194 35.3849C32.6836 36.5723 31.1696 37.5519 29.5072 38.2941C29.3291 37.8191 29.1213 37.2254 29.2697 36.3052C29.3885 35.5927 29.7744 35.3255 30.3087 35.2959C30.8431 35.2662 31.318 35.3849 31.6446 34.999C31.7336 34.91 31.7633 34.7615 31.7336 34.6131C31.4368 34.2866 30.9618 33.8413 30.5759 33.5741C29.9525 33.1585 29.715 32.832 28.5276 32.8617C27.3402 32.8913 24.9357 33.4257 23.6889 32.0008C23.3327 31.6149 23.1249 31.1696 22.9764 30.754C22.828 30.8727 22.6499 30.9618 22.5015 31.0509C22.3827 31.1102 21.789 31.3774 21.789 31.3774C21.0172 31.6742 20.1267 31.882 19.5329 32.0602C18.7611 32.268 18.4346 32.5054 18.2565 32.9507C18.0487 33.4554 18.4346 34.2272 18.4346 34.2272C18.4346 34.2272 18.2862 34.6428 17.8112 35.1771C17.3956 35.6521 16.505 36.0974 16.505 36.0974C16.505 36.0974 17.2175 34.6131 16.505 35.4443C15.7926 36.2755 15.1395 36.4536 15.1395 36.4536C15.4957 36.038 15.5848 35.4443 15.1395 35.9489C14.6942 36.4536 13.7146 36.6911 13.7146 36.6911C14.1599 36.3942 14.5458 35.8302 14.1005 36.038C13.6849 36.2161 13.0319 36.3348 12.6163 36.3348C12.4678 36.3645 12.2897 36.3349 12.0819 36.2458C10.657 35.1474 9.41025 33.8413 8.37127 32.3867C8.81655 32.1195 9.61805 31.793 10.5086 31.7633C11.2211 31.7336 11.2804 31.9711 11.5179 32.4758C11.7851 33.0101 11.8741 34.2569 11.8741 34.2569C11.8741 34.2569 12.5272 34.6428 13.8037 34.4944C14.6942 34.2866 15.1989 33.9303 15.2583 33.7819C15.3176 33.6038 14.5755 31.4961 15.4364 30.19C15.7035 29.8041 15.9707 29.5369 16.2379 29.3291C16.2379 29.3291 16.8019 28.9135 17.4253 28.7057C15.1692 27.8745 14.6646 26.4496 14.5161 26.0934C14.2786 25.5294 14.3677 27.2808 14.3677 27.2808C14.3677 27.2808 13.8037 26.5684 13.8037 25.2919C13.8037 25.2919 13.8334 24.7576 13.8927 24.3123C12.4085 24.2232 11.7851 23.9857 11.7851 23.9857C11.7851 23.9857 13.4475 23.3327 11.7257 23.5998C10.093 23.867 9.23214 23.3327 9.23214 23.3327C9.49931 23.2733 10.5086 22.6499 9.46962 22.8874C7.8963 23.2436 7.12448 22.4421 7.12448 22.4421C7.56976 22.5015 8.46032 22.3531 7.86661 22.0859C7.51039 21.9375 7.00574 21.6406 6.6792 21.4031C6.59014 21.3438 5.43242 20.5719 5.40273 19.7407C5.64022 18.1971 6.08549 16.7425 6.70889 15.377C7.15417 15.6145 7.71819 15.9707 8.22284 16.7425C8.60875 17.3659 8.43064 17.8706 8.04473 18.2268C7.65882 18.6127 7.24322 18.8502 7.24322 19.2361C7.24322 19.4736 7.45102 19.6517 7.62913 19.7704C7.71819 19.8298 7.83693 19.8892 7.8963 19.9485C9.55868 20.661 11.7554 21.1063 13.1506 21.3141C13.3287 20.4829 13.7443 19.7704 14.249 19.147L14.2193 19.1174C13.21 18.1674 12.735 16.7128 12.735 16.7128C12.735 16.7128 14.338 17.5143 12.9725 16.416C11.6663 15.377 11.4882 14.3677 11.4882 14.3677C11.7257 14.5458 12.8538 14.8724 11.9929 14.249C10.6867 13.3287 10.7461 12.2304 10.7461 12.2304C10.9836 12.5866 11.696 13.1506 11.4882 12.5569C11.3695 12.2304 11.2507 11.696 11.1914 11.2507C11.1617 11.1617 11.1617 11.0726 11.132 10.9836C11.0429 10.4492 10.9242 9.85553 11.3398 9.26182C12.4975 8.31189 13.7443 7.4807 15.1098 6.82763C15.2879 7.30259 15.5551 7.95567 15.4067 8.84623C15.2879 9.55867 14.8427 9.79616 14.3083 9.82584C13.774 9.85553 13.3584 9.73679 13.0319 10.1524C12.7944 10.4196 13.0319 10.9242 13.0912 11.1617C13.774 13.0912 15.1098 15.3176 15.9113 16.416C16.5941 15.941 17.3066 15.7035 17.9893 15.6442C18.4346 15.5848 19.2361 15.4957 18.5533 15.3176C17.7815 15.1395 16.8316 15.3473 17.7221 14.9614C18.8205 14.4864 20.2751 15.0505 20.7204 14.9614C21.1656 14.8427 21.2547 14.0115 21.2844 13.6256C21.2547 13.6256 21.225 13.6256 21.1953 13.6256C20.661 13.6849 19.2658 13.8037 18.7611 14.0412C18.7611 14.0412 18.4346 13.4178 18.4346 12.7647C18.4346 12.7647 18.5236 12.8537 18.6424 12.9428C18.8205 13.0022 19.1174 12.9725 19.5329 12.9131C19.9782 12.8241 20.186 12.6163 20.2751 12.3788C20.3938 12.0819 20.1563 11.6663 19.9485 11.5773C19.6814 11.4882 19.3252 11.5476 18.9986 11.696C18.9392 11.7257 18.8799 11.7851 18.7908 11.8148C18.2862 12.1413 18.3752 12.4975 18.3752 12.4975C18.3752 12.4975 17.9003 12.2007 17.544 11.0429C17.544 11.0429 16.891 10.568 16.9206 10.3008C16.9206 10.3008 17.5737 9.61805 18.6721 9.05403C18.6721 9.05403 19.4736 7.98535 20.7797 7.71819C20.7797 7.71819 21.4922 6.11518 23.778 5.96675C24.6982 5.90738 22.7983 6.41203 22.5609 6.6792C22.1156 7.18385 23.5405 6.11518 25.6778 6.41203C25.7075 6.41203 25.7966 6.44172 25.7966 6.44172C25.8856 6.4714 26.1825 6.53077 26.2122 6.53077C26.2418 6.53077 26.3903 6.59014 26.4199 6.59014C28.5276 7.30259 30.3978 9.73679 30.1009 12.8537C29.9228 12.0226 29.626 11.4882 29.151 10.8351C28.4682 9.85553 28.2604 10.004 28.8245 11.0726C29.3588 12.0819 29.9525 14.0708 29.2994 15.6739C29.0619 16.1488 28.7948 16.6238 28.4979 17.0987C28.676 16.1191 28.6167 15.5551 28.4089 14.7536C28.1417 13.7146 27.9339 13.774 28.0526 14.8427C28.2011 15.852 28.0526 17.7221 26.984 18.8502C26.6574 19.1767 26.2715 19.4736 25.8856 19.7407C26.3012 18.9986 26.42 18.494 26.4793 17.7518C26.5684 16.7722 26.3606 16.7425 26.1528 17.7221C25.9747 18.6127 25.2919 20.097 24.1342 20.7797C23.5702 21.0469 22.9468 21.3141 22.3234 21.5219C22.3234 21.5219 22.3827 22.9171 23.0358 24.0451C23.4217 24.7279 23.9858 25.2325 24.342 25.5294C24.431 25.6184 24.5498 25.6778 24.6685 25.7669C24.6685 25.7669 25.5591 25.945 26.3309 26.0934C27.1027 26.2418 28.4385 26.8652 29.0916 27.9339C29.4182 28.112 29.8041 28.2604 30.2197 28.2901C31.3774 28.4385 32.4758 27.8152 32.6242 26.6871C32.6836 26.3309 32.6242 26.0043 32.5351 25.7372C32.2976 25.2325 31.9117 24.7576 31.4961 24.1935C31.0509 23.6592 30.5759 23.0358 30.1009 22.2343C29.6853 21.5219 29.5072 20.6907 29.626 19.8892C29.8931 17.8112 31.8524 16.3566 33.96 16.6238C35.2662 16.8019 36.3349 17.5737 36.8989 18.6127C38.116 20.6016 37.4629 22.9764 37.4629 22.9764ZM16.6238 12.4085C17.4847 11.8741 18.1377 12.6756 18.1377 12.6756C17.5737 12.4678 17.2769 12.7053 16.4457 13.299C15.6145 13.8927 14.902 13.0022 14.902 13.0022C15.4661 13.21 15.7629 12.9428 16.6238 12.4085Z" fill="#11C1B0"/>
</svg>
