<svg width="842" height="596" viewBox="0 0 842 596" fill="none" xmlns="http://www.w3.org/2000/svg">
<path d="M244.9 317.6C282.51 317.6 313 287.111 313 249.5C313 211.889 282.51 181.4 244.9 181.4C207.289 181.4 176.8 211.889 176.8 249.5C176.8 287.111 207.289 317.6 244.9 317.6Z" fill="white"/>
<path d="M168.4 404.4L190.1 353.9H197L218.7 404.4H208.5L203.7 393.2H183.4L178.6 404.4H168.4ZM187 384.5H199.9L193.5 369.6L187 384.5Z" fill="black"/>
<path d="M243.8 377.6C243.1 377.4 241.8 377.2 240.4 377.2C236.3 377.2 233 380.2 231.9 382.3V404.3H222.5V369.3H231.5V372.8C233.6 370.2 237.4 368.5 241.7 368.5C243.1 368.5 243.9 368.6 244.9 368.8L243.8 377.6Z" fill="black"/>
<path d="M250.6 404.4V353.1H260V371.9C262.7 369.7 266.1 368.7 269.9 368.7C279.4 368.7 287.1 376.6 287.1 387C287.1 391.8 285.4 396.1 282.6 399.3C279.5 402.9 274.6 405.2 269.4 405.2C265.9 405.2 262.5 404.1 259.7 401.7V404.5H250.6V404.4ZM260 392.1C261.8 394.7 264.9 396.4 268.4 396.4C273.7 396.4 277.6 392.4 277.6 386.9C277.6 381.8 274.1 377.3 268.6 377.3C265 377.3 261.9 379 259.9 381.6V392.1H260Z" fill="black"/>
<path d="M324.1 398.8C320.7 402.8 315.1 405.1 309.7 405.1C299.2 405.1 291.4 397.9 291.4 386.9C291.4 377.2 298 368.6 308.4 368.6C318.1 368.6 324.9 376.8 324.9 386.5C324.9 387.4 324.8 388.4 324.7 389.2H300.4C300.9 394.1 304.9 397.5 309.9 397.5C313.9 397.5 317 395.3 318.7 393.5L324.1 398.8ZM315.4 382.3C315.1 379.2 312.3 376.2 308.5 376.2C304.6 376.2 301.4 379.2 301 382.3H315.4Z" fill="black"/>
<path d="M336.2 350.9C339.6 350.9 342.3 353.5 342.3 356.9C342.3 360.3 339.6 362.9 336.2 362.9C332.8 362.9 330.1 360.3 330.1 356.9C330.1 353.5 332.8 350.9 336.2 350.9ZM340.9 404.4H331.5V369.4H340.9V404.4Z" fill="black"/>
<path d="M374.8 404.4V401.6C371.9 404.1 368.6 405.1 365.1 405.1C359.9 405.1 355 402.8 351.9 399.2C349.2 396 347.4 391.7 347.4 386.9C347.4 376.6 355.1 368.6 364.6 368.6C368.4 368.6 371.7 369.7 374.5 371.8V353H383.9V404.3H374.8V404.4ZM374.5 381.6C372.6 379 369.4 377.3 365.8 377.3C360.3 377.3 356.8 381.8 356.8 386.9C356.8 392.4 360.8 396.4 366 396.4C369.5 396.4 372.6 394.7 374.4 392.1V381.6H374.5Z" fill="black"/>
<path d="M394.3 393.7C396.7 395.9 400.4 397.2 403.9 397.2C406.4 397.2 408.4 396 408.4 394.2C408.4 388.9 391.4 390.8 391.4 379.5C391.4 372.8 397.9 368.6 404.8 368.6C409.3 368.6 414.3 370.3 416.6 372.1L412.2 378.9C410.4 377.6 408 376.5 405.5 376.5C402.9 376.5 400.7 377.5 400.7 379.3C400.7 383.9 417.7 382 417.7 394.2C417.7 400.9 411.1 405 403.8 405C399 405 393.8 403.3 389.7 400.3L394.3 393.7Z" fill="black"/>
<path d="M449.9 404.4C448.7 404.8 445.9 405.1 444.1 405.1C438.5 405.1 434.4 403.2 432 400C430.2 397.6 429.4 394.5 429.4 389.5V377.2H419.7V369.3H429.4V359.6H438.8V369.3H450.4V377.2H438.8V390.6C438.8 392.8 439.2 394.1 440 395C440.9 396.1 442.5 396.7 444.8 396.7C446.2 396.7 448 396.5 448.6 396.3L449.9 404.4Z" fill="black"/>
<path d="M462.5 350.9C465.9 350.9 468.6 353.5 468.6 356.9C468.6 360.3 465.9 362.9 462.5 362.9C459.1 362.9 456.4 360.3 456.4 356.9C456.4 353.5 459.1 350.9 462.5 350.9ZM467.2 404.4H457.8V369.4H467.2V404.4Z" fill="black"/>
<path d="M486 404.4H476.6V353.1H486V404.4Z" fill="black"/>
<path d="M496.5 393.7C498.9 395.9 502.6 397.2 506.1 397.2C508.6 397.2 510.6 396 510.6 394.2C510.6 388.9 493.6 390.8 493.6 379.5C493.6 372.8 500.1 368.6 507 368.6C511.5 368.6 516.5 370.3 518.8 372.1L514.4 378.9C512.6 377.6 510.2 376.5 507.7 376.5C505.1 376.5 502.9 377.5 502.9 379.3C502.9 383.9 519.9 382 519.9 394.2C519.9 400.9 513.3 405 506 405C501.2 405 496 403.3 491.9 400.3L496.5 393.7Z" fill="black"/>
<path d="M528.4 421.7L538.1 400.8L522.4 369.3H532.7L543 390.3L552.5 369.3H562.4L538.3 421.6H528.4V421.7Z" fill="black"/>
<path d="M567.1 404.4V369.4H576.1V372.2C578.8 370 582.1 368.7 586 368.7C590.8 368.7 595.2 370.9 598.1 374.3C600.4 377 601.7 380.6 601.7 386.6V404.4H592.3V385.8C592.3 382.3 591.5 380.5 590.2 379.2C589 378 587.1 377.2 584.9 377.2C580.9 377.2 577.7 379.7 576.4 381.5V404.2H567.1V404.4Z" fill="black"/>
<path d="M640.2 398.8C636.8 402.8 631.2 405.1 625.8 405.1C615.3 405.1 607.5 397.9 607.5 386.9C607.5 377.2 614.1 368.6 624.5 368.6C634.2 368.6 641 376.8 641 386.5C641 387.4 640.9 388.4 640.8 389.2H616.5C617 394.1 621 397.5 626 397.5C630 397.5 633.1 395.3 634.8 393.5L640.2 398.8ZM631.5 382.3C631.2 379.2 628.4 376.2 624.6 376.2C620.7 376.2 617.5 379.2 617.1 382.3H631.5Z" fill="black"/>
<path d="M673.2 404.4C672 404.8 669.2 405.1 667.4 405.1C661.8 405.1 657.7 403.2 655.3 400C653.5 397.6 652.7 394.5 652.7 389.5V377.2H643V369.3H652.7V359.6H662.1V369.3H673.7V377.2H662V390.6C662 392.8 662.4 394.1 663.2 395C664.1 396.1 665.7 396.7 668 396.7C669.4 396.7 671.2 396.5 671.8 396.3L673.2 404.4Z" fill="black"/>
<path d="M253 204.6C253.5 206.3 253 207.9 251.7 208.3C251.2 208.5 250.8 208.5 250.5 208.6C250.7 208.7 251 208.7 251.2 208.8C253.4 209.1 255.3 207.6 255.6 205.5C255.9 203.4 254.3 201.5 252.2 201.2C250.7 201 249.3 201.7 248.5 202.8C248.9 202.6 249.3 202.4 249.8 202.3C251.1 201.9 252.5 202.9 253 204.6Z" fill="#11C1B0"/>
<path d="M237.5 203.8C236.2 203.9 234.6 204.8 232.8 206.6C232.7 206.7 235.4 205.2 236 205.9C236.6 206.5 237.2 206.7 237.9 206.6C238.9 206.5 239.5 206 239.4 205.2C239.4 204.4 238.5 203.7 237.5 203.8Z" fill="#11C1B0"/>
<path d="M244.3 173.6C202.4 173.6 168.4 207.6 168.4 249.5V325.4H244.3C286.2 325.4 320.2 291.4 320.2 249.5C320.2 207.6 286.2 173.6 244.3 173.6ZM294.6 251C294.1 245.4 292.2 244.5 292.4 245.7C292.6 247 293.2 249.5 292.7 253.2C292.2 256.9 287.2 262.2 287.2 262.2C287.2 262.2 284.3 257.8 284.7 253.9C285.1 250 289.5 246.1 287 247.5C284.9 248.6 283.5 252.3 283.5 252.3C283.5 252.3 282.4 251 282.9 247.9C283.4 244.8 288.2 240.9 288.8 240.3C289.3 239.8 289.4 238.7 289.1 237.8C288.1 235.4 286 233.6 282.9 233.2C277.5 232.5 272.7 236.1 272 241.2C271.7 243.2 272.2 245.2 273.2 247C274.7 249.5 276.3 251.5 277.7 253.2C279.3 255.2 280.8 257 281.8 259.2C282.5 260.7 282.7 262.4 282.4 264.4C281.7 270.2 276.2 274.3 270.3 273.5C269.4 273.4 268.4 273.2 267.5 273.1C268 274.8 268.7 276.5 270.9 278.2C273.3 280.1 275.9 279.5 278.1 280.7C280.3 281.9 280.7 282.8 280.7 282.8C280.7 282.8 277.8 282.2 277.6 283C277.5 283.8 279.5 283.9 280.7 284.3C281.9 284.7 282.5 286 282.5 286C282.5 286 280.7 285.2 280.9 286C280.9 286.1 281.8 287.4 282.7 288.6C283.5 289.8 284.2 291 283 292.8C278.5 296.8 273.4 300.1 267.8 302.6C267.2 301 266.5 299 267 295.9C267.4 293.5 268.7 292.6 270.5 292.5C272.3 292.4 273.9 292.8 275 291.5C275.3 291.2 275.4 290.7 275.3 290.2C274.3 289.1 272.7 287.6 271.4 286.7C269.3 285.3 268.5 284.2 264.5 284.3C260.5 284.4 252.4 286.2 248.2 281.4C247 280.1 246.3 278.6 245.8 277.2C245.3 277.6 244.7 277.9 244.2 278.2C243.8 278.4 241.8 279.3 241.8 279.3C239.2 280.3 236.2 281 234.2 281.6C231.6 282.3 230.5 283.1 229.9 284.6C229.2 286.3 230.5 288.9 230.5 288.9C230.5 288.9 230 290.3 228.4 292.1C227 293.7 224 295.2 224 295.2C224 295.2 226.4 290.2 224 293C221.6 295.8 219.4 296.4 219.4 296.4C220.6 295 220.9 293 219.4 294.7C217.9 296.4 214.6 297.2 214.6 297.2C216.1 296.2 217.4 294.3 215.9 295C214.5 295.6 212.3 296 210.9 296C210.4 296.1 209.8 296 209.1 295.7C204.3 292 200.1 287.6 196.6 282.7C198.1 281.8 200.8 280.7 203.8 280.6C206.2 280.5 206.4 281.3 207.2 283C208.1 284.8 208.4 289 208.4 289C208.4 289 210.6 290.3 214.9 289.8C217.9 289.1 219.6 287.9 219.8 287.4C220 286.8 217.5 279.7 220.4 275.3C221.3 274 222.2 273.1 223.1 272.4C223.1 272.4 225 271 227.1 270.3C219.5 267.5 217.8 262.7 217.3 261.5C216.5 259.6 216.8 265.5 216.8 265.5C216.8 265.5 214.9 263.1 214.9 258.8C214.9 258.8 215 257 215.2 255.5C210.2 255.2 208.1 254.4 208.1 254.4C208.1 254.4 213.7 252.2 207.9 253.1C202.4 254 199.5 252.2 199.5 252.2C200.4 252 203.8 249.9 200.3 250.7C195 251.9 192.4 249.2 192.4 249.2C193.9 249.4 196.9 248.9 194.9 248C193.7 247.5 192 246.5 190.9 245.7C190.6 245.5 186.7 242.9 186.6 240.1C187.4 234.9 188.9 230 191 225.4C192.5 226.2 194.4 227.4 196.1 230C197.4 232.1 196.8 233.8 195.5 235C194.2 236.3 192.8 237.1 192.8 238.4C192.8 239.2 193.5 239.8 194.1 240.2C194.4 240.4 194.8 240.6 195 240.8C200.6 243.2 208 244.7 212.7 245.4C213.3 242.6 214.7 240.2 216.4 238.1L216.3 238C212.9 234.8 211.3 229.9 211.3 229.9C211.3 229.9 216.7 232.6 212.1 228.9C207.7 225.4 207.1 222 207.1 222C207.9 222.6 211.7 223.7 208.8 221.6C204.4 218.5 204.6 214.8 204.6 214.8C205.4 216 207.8 217.9 207.1 215.9C206.7 214.8 206.3 213 206.1 211.5C206 211.2 206 210.9 205.9 210.6C205.6 208.8 205.2 206.8 206.6 204.8C210.5 201.6 214.7 198.8 219.3 196.6C219.9 198.2 220.8 200.4 220.3 203.4C219.9 205.8 218.4 206.6 216.6 206.7C214.8 206.8 213.4 206.4 212.3 207.8C211.5 208.7 212.3 210.4 212.5 211.2C214.8 217.7 219.3 225.2 222 228.9C224.3 227.3 226.7 226.5 229 226.3C230.5 226.1 233.2 225.8 230.9 225.2C228.3 224.6 225.1 225.3 228.1 224C231.8 222.4 236.7 224.3 238.2 224C239.7 223.6 240 220.8 240.1 219.5C240 219.5 239.9 219.5 239.8 219.5C238 219.7 233.3 220.1 231.6 220.9C231.6 220.9 230.5 218.8 230.5 216.6C230.5 216.6 230.8 216.9 231.2 217.2C231.8 217.4 232.8 217.3 234.2 217.1C235.7 216.8 236.4 216.1 236.7 215.3C237.1 214.3 236.3 212.9 235.6 212.6C234.7 212.3 233.5 212.5 232.4 213C232.2 213.1 232 213.3 231.7 213.4C230 214.5 230.3 215.7 230.3 215.7C230.3 215.7 228.7 214.7 227.5 210.8C227.5 210.8 225.3 209.2 225.4 208.3C225.4 208.3 227.6 206 231.3 204.1C231.3 204.1 234 200.5 238.4 199.6C238.4 199.6 240.8 194.2 248.5 193.7C251.6 193.5 245.2 195.2 244.4 196.1C242.9 197.8 247.7 194.2 254.9 195.2C255 195.2 255.3 195.3 255.3 195.3C255.6 195.4 256.6 195.6 256.7 195.6C256.8 195.6 257.3 195.8 257.4 195.8C264.5 198.2 270.8 206.4 269.8 216.9C269.2 214.1 268.2 212.3 266.6 210.1C264.3 206.8 263.6 207.3 265.5 210.9C267.3 214.3 269.3 221 267.1 226.4C266.3 228 265.4 229.6 264.4 231.2C265 227.9 264.8 226 264.1 223.3C263.2 219.8 262.5 220 262.9 223.6C263.4 227 262.9 233.3 259.3 237.1C258.2 238.2 256.9 239.2 255.6 240.1C257 237.6 257.4 235.9 257.6 233.4C257.9 230.1 257.2 230 256.5 233.3C255.9 236.3 253.6 241.3 249.7 243.6C247.8 244.5 245.7 245.4 243.6 246.1C243.6 246.1 243.8 250.8 246 254.6C247.3 256.9 249.2 258.6 250.4 259.6C250.7 259.9 251.1 260.1 251.5 260.4C251.5 260.4 254.5 261 257.1 261.5C259.7 262 264.2 264.1 266.4 267.7C267.5 268.3 268.8 268.8 270.2 268.9C274.1 269.4 277.8 267.3 278.3 263.5C278.5 262.3 278.3 261.2 278 260.3C277.2 258.6 275.9 257 274.5 255.1C273 253.3 271.4 251.2 269.8 248.5C268.4 246.1 267.8 243.3 268.2 240.6C269.1 233.6 275.7 228.7 282.8 229.6C287.2 230.2 290.8 232.8 292.7 236.3C296.8 243 294.6 251 294.6 251ZM224.4 215.4C227.3 213.6 229.5 216.3 229.5 216.3C227.6 215.6 226.6 216.4 223.8 218.4C221 220.4 218.6 217.4 218.6 217.4C220.5 218.1 221.5 217.2 224.4 215.4Z" fill="#11C1B0"/>
</svg>
