<svg width="48" height="48" viewBox="0 0 48 48" fill="none" xmlns="http://www.w3.org/2000/svg">
<path d="M23.9999 45.5335C35.8926 45.5335 45.5335 35.8926 45.5335 23.9999C45.5335 12.1072 35.8926 2.46631 23.9999 2.46631C12.1072 2.46631 2.46631 12.1072 2.46631 23.9999C2.46631 35.8926 12.1072 45.5335 23.9999 45.5335Z" fill="white"/>
<path d="M26.751 9.80242C26.9091 10.34 26.751 10.8459 26.34 10.9724C26.1819 11.0356 26.0554 11.0356 25.9605 11.0672C26.0238 11.0989 26.1186 11.0989 26.1819 11.1305C26.8775 11.2253 27.4783 10.751 27.5732 10.087C27.668 9.42297 27.1621 8.82218 26.4981 8.72732C26.0238 8.66408 25.5811 8.88543 25.3281 9.23325C25.4546 9.17001 25.5811 9.10677 25.7392 9.07515C26.1503 8.91705 26.5929 9.26487 26.751 9.80242Z" fill="#11C1B0"/>
<path d="M21.8498 9.54946C21.4387 9.58108 20.9328 9.86566 20.3636 10.4348C20.332 10.4664 21.1858 9.99214 21.3755 10.2135C21.5652 10.4032 21.755 10.4664 21.9763 10.4348C22.2925 10.4032 22.4822 10.2451 22.4506 9.99214C22.4506 9.70756 22.166 9.51784 21.8498 9.54946Z" fill="#11C1B0"/>
<path d="M24 0C10.751 0 0 10.751 0 24V48H24C37.249 48 48 37.249 48 24C48 10.751 37.249 0 24 0ZM39.9051 24.4743C39.747 22.7036 39.1462 22.419 39.2095 22.7984C39.2727 23.2095 39.4625 24 39.3043 25.17C39.1462 26.3399 37.5652 28.0158 37.5652 28.0158C37.5652 28.0158 36.6482 26.6245 36.7747 25.3913C36.9012 24.1581 38.2925 22.9249 37.502 23.3676C36.8379 23.7154 36.3953 24.8854 36.3953 24.8854C36.3953 24.8854 36.0474 24.4743 36.2055 23.4941C36.3636 22.5138 37.8814 21.2806 38.0711 21.0909C38.2293 20.9328 38.2609 20.585 38.166 20.3004C37.8498 19.5415 37.1858 18.9723 36.2055 18.8458C34.498 18.6245 32.9802 19.7628 32.7589 21.3755C32.664 22.0079 32.8221 22.6403 33.1383 23.2095C33.6126 24 34.1186 24.6324 34.5613 25.17C35.0672 25.8024 35.5415 26.3715 35.8577 27.0672C36.0791 27.5415 36.1423 28.0791 36.0474 28.7115C35.8261 30.5455 34.087 31.8419 32.2213 31.5889C31.9368 31.5573 31.6206 31.4941 31.336 31.4624C31.4941 32 31.7154 32.5375 32.4111 33.0751C33.17 33.6759 33.9921 33.4862 34.6877 33.8656C35.3834 34.2451 35.5099 34.5296 35.5099 34.5296C35.5099 34.5296 34.5929 34.3399 34.5296 34.5929C34.498 34.8458 35.1304 34.8775 35.5099 35.004C35.8893 35.1304 36.079 35.5415 36.079 35.5415C36.079 35.5415 35.5099 35.2885 35.5731 35.5415C35.5731 35.5731 35.8577 35.9842 36.1423 36.3636C36.3953 36.7431 36.6166 37.1225 36.2372 37.6917C34.8142 38.9565 33.2016 40 31.4308 40.7905C31.2411 40.2846 31.0198 39.6522 31.1779 38.6719C31.3043 37.913 31.7154 37.6285 32.2846 37.5968C32.8538 37.5652 33.3597 37.6917 33.7075 37.2806C33.8024 37.1858 33.834 37.0277 33.8024 36.8696C33.4862 36.5217 32.9802 36.0474 32.5692 35.7628C31.9051 35.3202 31.6522 34.9723 30.3873 35.004C29.1225 35.0356 26.5613 35.6047 25.2332 34.087C24.8538 33.6759 24.6324 33.2016 24.4743 32.7589C24.3162 32.8854 24.1265 32.9802 23.9684 33.0751C23.8419 33.1383 23.2095 33.4229 23.2095 33.4229C22.3874 33.7391 21.4387 33.9605 20.8063 34.1502C19.9842 34.3715 19.6364 34.6245 19.4466 35.0988C19.2253 35.6364 19.6364 36.4585 19.6364 36.4585C19.6364 36.4585 19.4783 36.9012 18.9723 37.4704C18.5296 37.9763 17.581 38.4506 17.581 38.4506C17.581 38.4506 18.3399 36.8696 17.581 37.7549C16.8221 38.6403 16.1265 38.83 16.1265 38.83C16.5059 38.3874 16.6008 37.7549 16.1265 38.2925C15.6522 38.83 14.6087 39.083 14.6087 39.083C15.083 38.7668 15.4941 38.166 15.0198 38.3873C14.5771 38.5771 13.8814 38.7036 13.4387 38.7036C13.2806 38.7352 13.0909 38.7036 12.8696 38.6087C11.3518 37.4387 10.0237 36.0474 8.917 34.498C9.3913 34.2134 10.2451 33.8656 11.1937 33.834C11.9526 33.8024 12.0158 34.0553 12.2688 34.5929C12.5534 35.162 12.6482 36.4901 12.6482 36.4901C12.6482 36.4901 13.3439 36.9012 14.7036 36.7431C15.6522 36.5217 16.1897 36.1423 16.253 35.9842C16.3162 35.7945 15.5257 33.5494 16.4427 32.1581C16.7273 31.747 17.0119 31.4625 17.2964 31.2411C17.2964 31.2411 17.8972 30.7984 18.5613 30.5771C16.1581 29.6917 15.6206 28.1739 15.4625 27.7945C15.2095 27.1937 15.3044 29.0593 15.3044 29.0593C15.3044 29.0593 14.7036 28.3004 14.7036 26.9407C14.7036 26.9407 14.7352 26.3715 14.7984 25.8972C13.2174 25.8024 12.5534 25.5494 12.5534 25.5494C12.5534 25.5494 14.3241 24.8538 12.4901 25.1383C10.751 25.4229 9.83399 24.8538 9.83399 24.8538C10.1186 24.7905 11.1937 24.1265 10.087 24.3794C8.41107 24.7589 7.58893 23.9051 7.58893 23.9051C8.06324 23.9684 9.01186 23.8103 8.37945 23.5257C8 23.3676 7.46245 23.0514 7.11462 22.7984C7.01976 22.7352 5.78656 21.913 5.75494 21.0277C6.0079 19.3834 6.48222 17.834 7.14625 16.3794C7.62056 16.6324 8.22134 17.0119 8.75889 17.834C9.16996 18.498 8.98024 19.0356 8.56917 19.415C8.1581 19.8261 7.71542 20.0791 7.71542 20.4901C7.71542 20.7431 7.93676 20.9328 8.12648 21.0593C8.22134 21.1225 8.34783 21.1858 8.41107 21.249C10.1818 22.0079 12.5217 22.4822 14.0079 22.7036C14.1976 21.8182 14.6403 21.0593 15.1779 20.3953L15.1462 20.3636C14.0711 19.3518 13.5652 17.8024 13.5652 17.8024C13.5652 17.8024 15.2727 18.6561 13.8182 17.4862C12.4269 16.3794 12.2372 15.3043 12.2372 15.3043C12.4901 15.4941 13.6917 15.8419 12.7747 15.1779C11.3834 14.1976 11.4466 13.0277 11.4466 13.0277C11.6996 13.4071 12.4585 14.0079 12.2372 13.3755C12.1107 13.0277 11.9842 12.4585 11.9209 11.9842C11.8893 11.8893 11.8893 11.7945 11.8577 11.6996C11.7628 11.1304 11.6364 10.498 12.0791 9.86562C13.3123 8.85376 14.6403 7.96838 16.0949 7.27273C16.2846 7.77866 16.5692 8.47431 16.4111 9.42293C16.2846 10.1818 15.8103 10.4348 15.2411 10.4664C14.6719 10.498 14.2293 10.3715 13.8814 10.8142C13.6285 11.0988 13.8814 11.6364 13.9447 11.8893C14.6719 13.9447 16.0949 16.3162 16.9486 17.4862C17.6759 16.9802 18.4348 16.7273 19.1621 16.664C19.6364 16.6008 20.4901 16.5059 19.7628 16.3162C18.9407 16.1265 17.9289 16.3478 18.8775 15.9368C20.0474 15.4308 21.5968 16.0316 22.0711 15.9368C22.5455 15.8103 22.6403 14.9249 22.6719 14.5138C22.6403 14.5138 22.6087 14.5138 22.5771 14.5138C22.0079 14.5771 20.5217 14.7036 19.9842 14.9565C19.9842 14.9565 19.6364 14.2925 19.6364 13.5968C19.6364 13.5968 19.7312 13.6917 19.8577 13.7866C20.0474 13.8498 20.3636 13.8182 20.8063 13.7549C21.2806 13.6601 21.502 13.4387 21.5968 13.1858C21.7233 12.8696 21.4704 12.4269 21.249 12.332C20.9644 12.2372 20.585 12.3004 20.2372 12.4585C20.1739 12.4901 20.1107 12.5534 20.0158 12.585C19.4783 12.9328 19.5731 13.3123 19.5731 13.3123C19.5731 13.3123 19.0672 12.996 18.6877 11.7628C18.6877 11.7628 17.9921 11.2569 18.0237 10.9723C18.0237 10.9723 18.7194 10.2451 19.8893 9.64427C19.8893 9.64427 20.7431 8.50593 22.1344 8.22134C22.1344 8.22134 22.8933 6.51384 25.3281 6.35573C26.3083 6.29249 24.2846 6.83004 24.0316 7.11462C23.5573 7.65217 25.0751 6.51384 27.3518 6.83004C27.3834 6.83004 27.4783 6.86166 27.4783 6.86166C27.5731 6.89328 27.8893 6.95652 27.9209 6.95652C27.9526 6.95652 28.1107 7.01977 28.1423 7.01977C30.3874 7.77866 32.3794 10.3715 32.0632 13.6917C31.8735 12.8063 31.5573 12.2372 31.0514 11.5415C30.3241 10.498 30.1028 10.6561 30.7036 11.7945C31.2727 12.8696 31.9051 14.9881 31.2095 16.6957C30.9565 17.2016 30.6719 17.7075 30.3557 18.2134C30.5455 17.17 30.4822 16.5692 30.2609 15.7154C29.9763 14.6087 29.7549 14.6719 29.8814 15.8103C30.0395 16.8854 29.8814 18.8775 28.7431 20.0791C28.3953 20.4269 27.9842 20.7431 27.5731 21.0277C28.0158 20.2372 28.1423 19.6996 28.2055 18.9091C28.3004 17.8656 28.079 17.834 27.8577 18.8775C27.668 19.8261 26.9407 21.4071 25.7075 22.1344C25.1067 22.419 24.4427 22.7036 23.7787 22.9249C23.7787 22.9249 23.8419 24.4111 24.5376 25.6126C24.9486 26.3399 25.5494 26.8775 25.9289 27.1937C26.0237 27.2885 26.1502 27.3518 26.2767 27.4466C26.2767 27.4466 27.2253 27.6364 28.0474 27.7945C28.8696 27.9526 30.2925 28.6166 30.9881 29.7549C31.336 29.9447 31.747 30.1028 32.1897 30.1344C33.4229 30.2925 34.5929 29.6285 34.751 28.4269C34.8142 28.0474 34.751 27.6996 34.6561 27.415C34.4032 26.8775 33.9921 26.3715 33.5494 25.7707C33.0751 25.2016 32.5692 24.5375 32.0632 23.6838C31.6206 22.9249 31.4308 22.0395 31.5573 21.1858C31.8419 18.9723 33.9289 17.4229 36.1739 17.7075C37.5652 17.8972 38.7036 18.7194 39.3043 19.8261C40.6324 21.9447 39.9051 24.4743 39.9051 24.4743ZM17.7075 13.2174C18.6245 12.6482 19.3202 13.502 19.3202 13.502C18.7194 13.2806 18.4032 13.5336 17.5178 14.166C16.6324 14.7984 15.8735 13.8498 15.8735 13.8498C16.4743 14.0712 16.7905 13.7866 17.7075 13.2174Z" fill="#11C1B0"/>
</svg>
