<svg id="Mellom_typo" data-name="Mellom typo" xmlns="http://www.w3.org/2000/svg" viewBox="0 0 311.81 311.81"><defs><style>.cls-1{fill:none;}.cls-2{fill:#00205b;}</style></defs><rect class="cls-1" width="311.81" height="311.81"/><polygon class="cls-2" points="238.39 73.42 253.92 57.89 281.08 85.04 297.64 85.04 262.2 49.61 297.64 14.17 281.08 14.17 238.39 56.86 238.39 14.17 226.77 14.17 226.77 85.04 238.39 85.04 238.39 73.42"/><polygon class="cls-2" points="25.8 36.73 85.04 87.87 85.04 85.04 85.04 14.17 73.42 14.17 73.42 62.48 14.17 11.34 14.17 14.17 14.17 85.04 25.8 85.04 25.8 36.73"/><path class="cls-2" d="M49.61,223.94a38.27,38.27,0,1,0,38.26,38.27A38.26,38.26,0,0,0,49.61,223.94Zm0,64.91a26.65,26.65,0,1,1,26.64-26.64A26.65,26.65,0,0,1,49.61,288.85Z"/><path class="cls-2" d="M142.38,109.13a6.75,6.75,0,0,0,4.06,1.56c1.77.18,3.9.42,5.07.56l-1.5-2.17-3.37-.36a4.86,4.86,0,0,1-3-1.16l-.33-.25a1,1,0,0,0-1.18,1.6Z"/><path class="cls-2" d="M209.79,121.28c5.74-9.52,2.12-15.51,1.48-16.58A12.42,12.42,0,0,0,197,99c-7.58,2.45-7.85,10-7.93,11.61-2.71,3-6.11,9-6.11,10.83,1.25-1.12,5.44-4.69,5.44-4.69a14.4,14.4,0,0,1-.76,4.83s-2,2.87-2.72,4c-1.55,2.33-5.76,9-6,12.92,4.13-5.94,13.85-12.14,14.28-12.52,1.95-1.7.74-7.33.52-8.51a5.31,5.31,0,0,1,1.52.7c.82,1.67,1.47,5.7.78,7.92,1.63-.81,3.08-5.16,3-9.63-.4-3.67-.71-4.38-1.94-5.58-1.44-.81-3.48-1.66-3.48-1.66-.72-3.94,2.57-6.34,4.56-6.9,5.08-1.43,8.77,2.14,10,4.69,3.36,7-3.84,15.18-5.09,16.49-7.21,7.53-14.46,12.14-17.74,18-4.62,8.24-.83,13.24,12.48,24.78,3,2.58,5.37,5.92,5.74,7.32,2.09,8-6.11,9.5-9.27,8.76-6.86-1.6-17.4-10.41-19.12-11.57-5.11-3.43-8.38-3.85-8.38-3.85a190.37,190.37,0,0,1-1.21-21.2c0-.53,0-1,0-1.57l2.27,1.33s0-3.75.11-5c0,0,4-8.63,5.73-12.46a32.19,32.19,0,0,0,2.51-7.29,48.81,48.81,0,0,0,.07-8.72,32.59,32.59,0,0,0,2.77-3.83,10.25,10.25,0,0,0-.07-3.86,7.81,7.81,0,0,0-2.6-.88l4.77-7.18a2.68,2.68,0,0,0-3,.4,3.12,3.12,0,0,0-1.75-1,1.94,1.94,0,0,0-2.27,1.51,1.91,1.91,0,0,0,1.6,2.21,2.06,2.06,0,0,0,.86-.12l.08.19-1.35,1.51-6.31-1.14-.73-1.89.25-.25a3.18,3.18,0,0,0,1.22.61,1.89,1.89,0,1,0,.67-3.71,3.21,3.21,0,0,0-1,.06,1.84,1.84,0,0,0-3.61-.65,3.1,3.1,0,0,0-.92-.41,1.89,1.89,0,1,0-.67,3.71,3.29,3.29,0,0,0,1.36-.15l.14.32-1.35,1.52-6.3-1.14-.74-1.89.14-.15a2,2,0,0,0,.76.41,1.89,1.89,0,0,0,2.27-1.51,1.92,1.92,0,0,0-1.59-2.2,3.12,3.12,0,0,0-2,.35,2.7,2.7,0,0,0-2.67-1.43l1.95,8.39s-4.88,5.11-5,5.5a7.36,7.36,0,0,0,.77,3.36l2,2.92-1.71,2.62,8.86,1.08-1,2.7s-10.23,2.27-12.5,3.61a35.62,35.62,0,0,0-8.16,8.1L136,141.12l-2.38,4.8h5.52l-9.94,20-1.74-.63a36.67,36.67,0,0,0,1.08-7.19,14.43,14.43,0,0,0-1.91-3.25,9.47,9.47,0,0,0-4.26-2.12,16.62,16.62,0,0,1,2.17,3.81,7.41,7.41,0,0,0-1.91,2.86,15.2,15.2,0,0,0,1.89,4l.62,1h0l-1.15,1h0c-.66-.55-1.47-1.21-2.27-1.82h0v-36l2.3,1.34-1,1.91,3.45.67,8,7.27,2.56-8.51L129.55,126l-1.17-2.16-2.52.5-.66-.76a29.66,29.66,0,0,0,3.58-4.76,14.69,14.69,0,0,0-.07-3.77,9.48,9.48,0,0,0-2.67-3.93,17,17,0,0,1,0,4.39,7.28,7.28,0,0,0-3.07,1.55,12.78,12.78,0,0,0-.31,3.71h0l-.91.22V109.22h1.87v-7.16h-1.87v-2.9h-3.2v2.9H115c-3.59,0-11.5-5.31-16.16-9.37h0a53.88,53.88,0,0,0,5.73,27.21h0a74.75,74.75,0,0,1,8.4-9.12c2.17-1.74,3.16-1.56,5.63-1.56v9.44h0a9.52,9.52,0,0,0-1.41-1,14.27,14.27,0,0,0-3.78-.1,9.35,9.35,0,0,0-4,2.5,16.81,16.81,0,0,1,4.38.16,7.35,7.35,0,0,0,1.43,3.15,12.15,12.15,0,0,0,3.4.45h0v1.67a22.31,22.31,0,0,0-4.52,1,14.45,14.45,0,0,0-2.43,2.89,9.28,9.28,0,0,0-.56,4.72,16.56,16.56,0,0,1,2.86-3.33,7.36,7.36,0,0,0,3.34.85,6.42,6.42,0,0,0,1.29-1.08V161.7l-.13-.06a14.32,14.32,0,0,0-3.76.33,9.34,9.34,0,0,0-3.73,2.95,17,17,0,0,1,4.37-.34,7.37,7.37,0,0,0,1.77,3,6.42,6.42,0,0,0,1.48.15v3.42h0a14.58,14.58,0,0,0-1.92,3.25,9.37,9.37,0,0,0,.21,4.75,17,17,0,0,1,1.72-3v9.36h3.2v-9.71a5,5,0,0,0,.8-.09,15.24,15.24,0,0,0,2.55-3.57l1-1.79,2.57.32,1.86,5,22.12-31.17,1.64,1.39-9.08,12.8a44,44,0,0,1,3,3.94,40.19,40.19,0,0,1,2.24,7.77c-3.71,2.07-12.22,8.51-14.64,11.51-1,4.12-1.57,13.1-1.35,18.36.3.63,1.85,2.91,1.85,2.91l-13.67,13-3.68-.32a36.6,36.6,0,0,0-.73-7.22,14.8,14.8,0,0,0-2.66-2.69,9.41,9.41,0,0,0-4.65-1,16.91,16.91,0,0,1,3,3.15,7.24,7.24,0,0,0-1.15,3.25,17,17,0,0,0,2.81,3.37l-.79,1h0a27.76,27.76,0,0,0-4.72-2.43,15,15,0,0,0-3.71.71,8.91,8.91,0,0,0-3.33,3.27,15.23,15.23,0,0,1,4.24-.73,7.39,7.39,0,0,0,2,2.76,20.69,20.69,0,0,0,5-.59h0l.51,1.05h0a14.12,14.12,0,0,0-2.85,2.39,7.14,7.14,0,0,0,.49,3.4,15.69,15.69,0,0,1-3.51,2.49,9,9,0,0,0,4.67-.06,14.74,14.74,0,0,0,3.12-2.12,28.09,28.09,0,0,0,1.67-5.26l3.89.63,1.05,5.33,4.28-5.49,14.26-10a7.42,7.42,0,0,0,2.93-.33c.82-.57,3.48-3.2,3.48-3.2l-.3-4.57c.69-2.33,3.5-5.91,5.21-7.24-2.3-2.36-4.54-5.22-5.09-7l0-.29c0-2.78,1.92-9.11,3.8-14.94l.14-.41c1.08-3.37,1.22-6.48.39-8.77l2.42,1.68a18.06,18.06,0,0,1-.92,7.7l-.14.41c-1,3.09-3.61,11.2-3.7,14.18.92,2.6,6.34,8.24,8.48,9.45,3.93,1,18.75.45,22.46,2.15,3.77,3.36,10.59,11.39,12.82,15.64l-2.55,1a28.6,28.6,0,0,0-6.4-5.14,14.59,14.59,0,0,0-3.77.13,8.88,8.88,0,0,0-3.8,2.7,16,16,0,0,1,4.3-.06,7.36,7.36,0,0,0,1.6,3.05,9.94,9.94,0,0,0,2.62.25h0l0,1.09a29.22,29.22,0,0,0-5.35.84,14.31,14.31,0,0,0-2.57,2.76,9,9,0,0,0-.77,4.61,15.24,15.24,0,0,1,3-3.09,7.37,7.37,0,0,0,3.29,1,21.12,21.12,0,0,0,3.78-3.53h0l.89.75h0a13.19,13.19,0,0,0-1.56,2,14.85,14.85,0,0,0-.14,3.77,8.93,8.93,0,0,0,2.44,4,15.57,15.57,0,0,1,.24-4.3,7.3,7.3,0,0,0,3.15-1.39,20.07,20.07,0,0,0,.55-4.89h0l5.27-1.46,7.3,1.46-12.48-22.71a21,21,0,0,0-.05-2.26,15.12,15.12,0,0,0-3.91-5.19,17.13,17.13,0,0,0-3.48-.9c-5-2.57-13.55-13.3-20.71-18.59l2.31-.74s4.62,3.88,5.47,4.55c2,1.61,5.44,3.61,6.65,4.38,9.85,6.28,14.68,6.51,15.39,6.58,7.22.7,10.2-3.44,10.59-3.88,1.81-2.06,4.43-7.3.22-13.65-1.06-1.59-5.64-8.36-5.64-8.36l10.79-6-5,.24-5.58-.66-2.81.73h0c-.12-.37-.24-.74-.34-1.1l14.56-8.11s-5.18.6-5.67.68-6.09-.75-6.09-.75l-3.67.9c0-.46.06-.89.11-1.34l16.16-9-5.69.8-4.13-.77-3.74.62c.33-1.12,5.25-7.46,5.7-8A71.37,71.37,0,0,0,209.79,121.28Zm-88,48.45v-2l1.45-.07.26,1.47C122.93,169.32,122.34,169.52,121.77,169.73Zm31-41.63c-.65.16-2.76.69-3.72,1-1.73.53-2,1-2.47,1.92l-2.9,5.82H141.5l3.34-6.71a5,5,0,0,1,3.66-2.93c1.19-.36,3.91-1,4-1.05l1.43-.35Zm23.42-22.7a3.52,3.52,0,0,1,1.29.46,3.7,3.7,0,0,1,0,1.45,7.4,7.4,0,0,1-1.54,2.12,5.6,5.6,0,0,0-1.69-2.89S175.65,105.37,176.22,105.4Zm-20.94,6.34-.37-2.46,7.94,1,.49,2.31Zm7.15-8.75a2.93,2.93,0,0,1,.45.85,4.85,4.85,0,0,1-3.5,2.14c-1.11-.27-1.55-1.67-1.53-2.53a9.23,9.23,0,0,0-2.92,1.3l-.34-1.28,3.08-3,17.51,3-2.75,1.78A27.36,27.36,0,0,0,162.43,103Z"/><polygon class="cls-2" points="226.77 223.94 226.77 225 226.77 297.64 238.39 297.64 238.39 252.12 262.2 275.93 286.02 252.12 286.02 297.64 297.64 297.64 297.64 225 297.64 223.94 262.2 259.37 226.77 223.94"/></svg>