<?xml version="1.0" encoding="utf-8"?>
<!-- Generator: Adobe Illustrator 16.0.0, SVG Export Plug-In . SVG Version: 6.00 Build 0)  -->
<!DOCTYPE svg PUBLIC "-//W3C//DTD SVG 1.1//EN" "http://www.w3.org/Graphics/SVG/1.1/DTD/svg11.dtd">
<svg version="1.1" xmlns="http://www.w3.org/2000/svg" xmlns:xlink="http://www.w3.org/1999/xlink" x="0px" y="0px"
	 width="495.375px" height="170.079px" viewBox="0 0 495.375 170.079" enable-background="new 0 0 495.375 170.079"
	 xml:space="preserve">
<g id="Symbol">
	<rect fill="none" width="170.079" height="170.079"/>
	<g>
		<g>
			<polygon fill="#00205B" points="130.034,40.046 138.504,31.575 153.315,46.386 162.348,46.386 143.02,27.058 162.348,7.731 
				153.314,7.731 130.034,31.013 130.034,7.731 123.694,7.731 123.694,46.386 130.034,46.386 			"/>
			<polygon fill="#00205B" points="14.07,20.034 46.385,47.932 46.385,46.386 46.385,7.731 40.046,7.731 40.046,34.083 7.731,6.185 
				7.731,46.386 14.07,46.386 			"/>
			<path fill="#00205B" d="M27.058,122.147c-11.528,0-20.873,9.346-20.873,20.875c0,11.527,9.345,20.871,20.873,20.871
				s20.874-9.344,20.874-20.871C47.932,131.493,38.586,122.147,27.058,122.147z M27.058,157.556
				c-8.027,0-14.534-6.506-14.534-14.533s6.507-14.535,14.534-14.535s14.534,6.508,14.534,14.535S35.085,157.556,27.058,157.556z"/>
			<path fill="#00205B" d="M77.662,59.527c0.461,0.354,0.938,0.719,2.212,0.849c0.965,0.098,2.127,0.23,2.769,0.304l-0.82-1.182
				c-0.577-0.065-1.245-0.138-1.839-0.198c-0.969-0.1-1.26-0.322-1.664-0.631l-0.176-0.134c-0.24-0.177-0.579-0.127-0.757,0.113
				c-0.178,0.24-0.127,0.579,0.113,0.757L77.662,59.527z"/>
			<path fill="#00205B" d="M114.432,66.151c3.131-5.191,1.154-8.457,0.808-9.041c-2.347-3.955-6.438-3.564-7.77-3.135
				c-4.137,1.333-4.28,5.453-4.321,6.332c-1.484,1.607-3.334,4.914-3.334,5.904c0.678-0.607,2.963-2.557,2.963-2.557
				s0.05,1.381-0.413,2.635c0,0-1.069,1.564-1.481,2.183c-0.845,1.271-3.143,4.889-3.254,7.046c2.253-3.24,7.559-6.621,7.793-6.826
				c1.061-0.93,0.401-4.002,0.282-4.645c0.33,0.053,0.827,0.381,0.827,0.381c0.445,0.914,0.804,3.112,0.426,4.318
				c0.893-0.441,1.679-2.814,1.644-5.25c-0.222-2.002-0.388-2.387-1.06-3.047c-0.786-0.438-1.896-0.902-1.896-0.902
				c-0.394-2.149,1.401-3.461,2.484-3.765c2.773-0.779,4.784,1.165,5.454,2.558c1.831,3.826-2.091,8.28-2.777,8.998
				c-3.932,4.105-7.887,6.621-9.674,9.808c-2.519,4.491-0.45,7.219,6.806,13.513c1.623,1.406,2.933,3.229,3.13,3.992
				c1.141,4.385-3.33,5.184-5.052,4.781c-3.743-0.873-9.493-5.682-10.432-6.311c-2.789-1.871-4.569-2.105-4.569-2.105
				c-0.428-3.758-0.662-7.688-0.662-11.563c0-0.285,0.001-0.569,0.005-0.854l1.241,0.723c0,0-0.011-2.045,0.06-2.716
				c0,0,2.188-4.705,3.126-6.792c0.693-1.543,1.245-3.072,1.368-3.977c0.271-1.948,0.035-4.756,0.035-4.756
				c0.438-0.496,1.396-1.834,1.513-2.094c0.133-0.297,0.09-2.006-0.037-2.102c-0.438-0.324-1.418-0.483-1.418-0.483l2.602-3.917
				c-0.625-0.34-1.193-0.094-1.639,0.223c-0.235-0.295-0.623-0.502-0.951-0.563c-0.549-0.1-1.131,0.234-1.238,0.822
				c-0.105,0.587,0.319,1.133,0.871,1.203c0.14,0.018,0.304-0.009,0.471-0.061l0.044,0.1l-0.739,0.825l-3.438-0.622l-0.401-1.033
				l0.137-0.135c0.207,0.162,0.449,0.284,0.664,0.336c0.543,0.127,1.131-0.236,1.237-0.823c0.105-0.586-0.318-1.133-0.87-1.203
				c-0.166-0.021-0.357-0.007-0.55,0.032c0.03-0.49-0.305-0.975-0.823-1.068c-0.518-0.094-1.002,0.242-1.146,0.713
				c-0.167-0.104-0.343-0.185-0.503-0.223c-0.543-0.128-1.131,0.235-1.236,0.822s0.316,1.133,0.869,1.203
				c0.221,0.027,0.49-0.003,0.741-0.082l0.079,0.175l-0.736,0.827l-3.438-0.621l-0.404-1.032l0.076-0.078
				c0.139,0.107,0.283,0.188,0.42,0.222c0.542,0.127,1.129-0.236,1.235-0.822c0.107-0.587-0.32-1.105-0.869-1.203
				c-0.328-0.059-0.765,0-1.089,0.193c-0.306-0.452-0.751-0.881-1.457-0.781l1.066,4.579c0,0-2.666,2.784-2.75,3
				c-0.073,0.188,0.106,1.266,0.418,1.827l1.093,1.598l-0.937,1.428l4.833,0.588l-0.572,1.477c0,0-5.58,1.236-6.817,1.966
				c-1.535,1.017-3.738,3.261-4.448,4.415l-1.847,6.266l-1.297,2.615h3.01l-5.421,10.9l-0.95-0.344
				c0.226-0.941,0.658-3.139,0.589-3.92c-0.17-0.443-0.587-1.199-1.042-1.777c-0.77-0.66-1.807-1.106-2.32-1.152
				c0.472,0.6,0.974,1.519,1.184,2.078c-0.576,0.58-0.902,1.098-1.047,1.563c0.082,0.484,0.529,1.324,1.031,2.16
				c0.129,0.217,0.243,0.404,0.339,0.564l0,0l-0.627,0.533h0c-0.358-0.301-0.8-0.662-1.236-0.994h0.006L66.418,69.54l1.257,0.73
				l-0.571,1.041l1.878,0.368l4.383,3.964l1.395-4.643l-4.097-2.275l-0.638-1.176l-1.375,0.27l-0.36-0.413
				c0.718-0.821,1.697-2.021,1.952-2.593c0.069-0.469,0.076-1.332-0.036-2.058c-0.348-0.952-1.034-1.851-1.459-2.144
				c0.118,0.755,0.106,1.801,0.014,2.391c-0.787,0.226-1.324,0.518-1.678,0.852c-0.146,0.402-0.179,1.181-0.167,2.02h0l-0.495,0.119
				v-6.419h1.017v-3.905h-1.017v-1.581h-1.747v1.581l-1.951-0.002c-1.957,0-6.268-2.896-8.813-5.105l-0.003,0.002h-0.003
				c-0.275,5.328,0.879,10.398,3.126,14.841v-0.003c1.008-1.367,3.563-4.152,4.584-4.975c1.182-0.953,1.722-0.853,3.07-0.853v5.148
				h-0.002c-0.302-0.239-0.572-0.431-0.769-0.53c-0.465-0.088-1.328-0.133-2.059-0.054c-0.967,0.306-1.895,0.952-2.205,1.365
				c0.759-0.087,1.804-0.028,2.39,0.089c0.189,0.797,0.458,1.346,0.776,1.714c0.372,0.152,1.078,0.222,1.857,0.251h0.011v0.912
				c-0.958,0.15-2.015,0.359-2.466,0.566c-0.358,0.309-0.932,0.955-1.325,1.576c-0.363,0.947-0.436,2.074-0.307,2.574
				c0.407-0.646,1.103-1.428,1.56-1.813c0.74,0.348,1.338,0.48,1.824,0.461c0.197-0.109,0.439-0.318,0.704-0.585v16.948
				c-0.023-0.01-0.051-0.025-0.073-0.033c-0.474-0.037-1.336,0.02-2.051,0.184c-0.926,0.416-1.773,1.162-2.033,1.607
				c0.742-0.17,1.788-0.232,2.384-0.184c0.28,0.768,0.609,1.283,0.965,1.613c0.198,0.055,0.479,0.08,0.808,0.082v0.32l0-0.055
				l0,1.598c-0.001,0-0.003,0.002-0.004,0.004c-0.305,0.363-0.765,1.094-1.05,1.77c-0.206,0.992-0.093,2.117,0.113,2.592
				c0.225-0.535,0.603-1.174,0.941-1.648v5.109h1.743v-5.299c0.156-0.006,0.303-0.02,0.437-0.047
				c0.385-0.307,0.902-1.104,1.391-1.947l0.566-0.98l1.404,0.178l1.016,2.715l12.065-17.001l0.896,0.76l-4.958,6.978
				c0,0,1.134,1.305,1.664,2.152c0.654,1.52,1.034,3.264,1.224,4.234c-2.021,1.129-6.667,4.645-7.986,6.281
				c-0.544,2.246-0.858,7.146-0.736,10.016c0.166,0.344,1.009,1.584,1.009,1.584l-7.458,7.094l-2.006-0.174
				c-0.014-0.965-0.14-3.201-0.401-3.941c-0.275-0.389-0.865-1.016-1.448-1.465c-0.91-0.449-2.026-0.625-2.536-0.543
				c0.608,0.465,1.321,1.23,1.663,1.721c-0.413,0.705-0.603,1.287-0.627,1.773c0.199,0.449,0.993,1.293,1.533,1.838l-0.433,0.57h0
				c-0.845-0.504-2.047-1.186-2.571-1.322c-0.475,0.014-1.327,0.154-2.023,0.389c-0.879,0.504-1.605,1.309-1.82,1.777
				c0.724-0.246,1.715-0.387,2.312-0.396c0.356,0.734,0.733,1.217,1.123,1.508c0.565,0.1,2.053-0.182,2.738-0.322l0,0.002
				l0.278,0.568h0c-0.601,0.42-1.323,0.963-1.559,1.305c-0.072,0.48,0.003,1.09,0.271,1.857c-0.431,0.418-1.232,1.016-1.918,1.355
				c0.484,0.18,1.568,0.238,2.547-0.031c0.659-0.328,1.36-0.83,1.705-1.156c0.281-0.477,0.639-1.787,0.911-2.869l2.123,0.346
				l0.572,2.902l2.333-2.992l7.779-5.471c0.259,0.066,1.213-0.016,1.6-0.18c0.442-0.313,1.894-1.746,1.894-1.746l-0.165-2.492
				c0.382-1.27,1.912-3.223,2.843-3.949c-1.25-1.289-2.476-2.848-2.773-3.824l-0.023-0.156c0-1.52,1.049-4.973,2.075-8.148
				l0.073-0.227c0.592-1.836,0.667-3.535,0.213-4.783l1.323,0.918c0.157,1.24-0.012,2.664-0.506,4.197l-0.073,0.227
				c-0.543,1.684-1.972,6.107-2.021,7.732c0.503,1.416,3.459,4.494,4.628,5.156c2.141,0.537,10.226,0.24,12.252,1.174
				c2.052,1.83,5.772,6.209,6.994,8.529l-1.395,0.545c-0.931-1-2.683-2.453-3.488-2.801c-0.471-0.063-1.333-0.057-2.059,0.066
				c-0.948,0.361-1.788,1.043-2.075,1.473c0.752-0.131,1.754-0.115,2.346-0.033c0.237,0.783,0.536,1.318,0.874,1.666
				c0.29,0.1,0.857,0.133,1.428,0.139l0,0l0.016,0.594c-0.982,0.092-2.406,0.252-2.921,0.455c-0.375,0.293-0.979,0.908-1.403,1.508
				c-0.413,0.928-0.523,2.006-0.42,2.512c0.439-0.627,1.155-1.326,1.633-1.688c0.721,0.383,1.31,0.551,1.795,0.555
				c0.532-0.262,1.616-1.428,2.063-1.922l-0.001,0.002l0.483,0.41h-0.001c-0.386,0.438-0.718,0.852-0.852,1.111
				c-0.093,0.465-0.147,1.326-0.076,2.059c0.294,0.971,0.916,1.857,1.326,2.174c-0.077-0.762,0.005-1.76,0.132-2.346
				c0.792-0.18,1.349-0.439,1.719-0.756c0.218-0.51,0.281-1.941,0.3-2.668l0,0l2.876-0.799l3.979,0.799l-6.804-12.389
				c0.034-0.404-0.03-1.23-0.03-1.23c-0.299-0.932-1.657-2.521-2.132-2.834c-0.582-0.242-1.289-0.379-1.897-0.492
				c-2.713-1.396-7.389-7.252-11.294-10.139l1.256-0.404c0,0,2.521,2.119,2.987,2.486c1.108,0.875,2.966,1.965,3.627,2.385
				c5.37,3.426,8.007,3.555,8.394,3.592c3.94,0.379,5.564-1.875,5.774-2.115c0.987-1.123,2.42-3.986,0.12-7.449
				c-0.575-0.867-3.076-4.561-3.076-4.561l5.888-3.285l-2.753,0.131l-3.038-0.365l-1.535,0.404l0.001,0.002
				c-0.069-0.201-0.131-0.4-0.188-0.6l7.94-4.422c0,0-2.82,0.326-3.089,0.37c-0.27,0.046-3.325-0.407-3.325-0.407l-2.001,0.489
				c0.013-0.251,0.034-0.485,0.062-0.731l8.813-4.918l-3.101,0.442l-2.255-0.425l-2.037,0.338c0.18-0.609,2.861-4.066,3.106-4.344
				C112.776,68.681,114.22,66.506,114.432,66.151z M66.418,92.579v-1.076c0.315-0.018,0.58-0.029,0.794-0.041l0.143,0.801
				C67.054,92.358,66.733,92.466,66.418,92.579z M83.343,69.875c-0.352,0.087-1.5,0.372-2.027,0.532
				c-0.943,0.287-1.093,0.541-1.344,1.047c-0.28,0.563-0.853,1.715-1.582,3.178h-1.208c0.856-1.721,1.524-3.061,1.822-3.66
				c0.391-0.791,0.79-1.232,1.997-1.6c0.647-0.197,2.131-0.561,2.194-0.574l0.781-0.191C83.768,69.022,83.558,69.444,83.343,69.875z
				 M96.119,57.492c0.312,0.018,0.703,0.252,0.703,0.252c0.073,0.056,0.049,0.699,0.017,0.79C96.647,59.062,96,59.689,96,59.689
				c-0.12-0.628-0.613-1.353-0.92-1.574C95.081,58.115,95.808,57.476,96.119,57.492z M84.696,60.948l-0.201-1.344l4.329,0.57
				l0.27,1.262L84.696,60.948z M88.596,56.179c0.116,0.154,0.203,0.313,0.246,0.464c-0.257,0.54-1.229,1.144-1.908,1.163
				c-0.606-0.147-0.843-0.908-0.834-1.375c-0.59,0.153-1.131,0.383-1.591,0.704l-0.184-0.696l1.679-1.654l9.548,1.664l-1.496,0.971
				C92.638,56.771,90.567,56.231,88.596,56.179z"/>
			<polygon fill="#00205B" points="123.694,122.147 123.694,162.349 130.034,162.349 130.034,137.521 143.02,150.509 
				156.009,137.521 156.009,162.349 162.348,162.349 162.348,122.147 143.02,141.476 			"/>
		</g>
	</g>
</g>
<g id="Bokmål">
	<g>
		<polygon points="203.908,36.14 203.908,57.128 200.998,57.128 200.998,58.545 208.734,58.545 208.734,57.128 205.823,57.128 
			205.823,38.745 220.53,58.966 221.716,58.966 221.716,34.685 224.589,34.685 224.589,33.268 216.891,33.268 216.891,34.685 
			219.802,34.685 219.802,52.494 205.785,33.268 200.231,33.268 200.231,34.685 202.874,34.685 		"/>
		<path d="M229.24,50.656c-1.839,0.421-3.104,2.03-3.104,3.983c0,2.565,1.954,4.404,4.597,4.404c2.03,0,3.485-0.805,5.094-2.796
			c0,0.153,0,0.268,0,0.383c0,1.417,0.689,2.26,1.877,2.26c0.306,0,0.843-0.115,1.341-0.269l2.565-0.804v-1.072h-2.949V44.949
			c0-2.527-2.222-4.213-5.591-4.213c-3.486,0-6.052,1.647-6.052,3.868c0,0.422,0.038,0.613,0.306,1.073l3.409-0.996v-1.839
			c1.11-0.536,1.608-0.65,2.374-0.65c1.533,0,2.682,1.11,2.682,2.643v4.327L229.24,50.656z M235.789,54.753
			c-1.686,1.494-2.682,2.03-3.906,2.03c-1.609,0-2.643-1.034-2.643-2.643v-1.915l6.549-1.532V54.753z"/>
		<path d="M249.248,51c4.021,1.57,5.094,2.413,5.094,3.944c0,1.532-1.57,2.644-3.678,2.644c-2.374,0-4.52-1.456-4.52-3.103v-1.034
			h-1.762v5.438h1.533v-1.379c1.109,1.034,2.719,1.532,4.863,1.532c3.408,0,5.783-2.145,5.783-5.209c0-2.451-1.188-3.715-4.94-5.209
			c-4.634-1.876-4.902-2.067-4.902-3.715c0-1.646,1.302-2.719,3.294-2.719c2.068,0,3.791,1.226,3.791,2.719
			c0,0.345-0.076,0.843-0.229,1.264h1.647l0.919-5.515h-1.647l-0.229,1.379c-1.072-0.881-2.374-1.303-4.06-1.303
			c-3.523,0-5.937,2.03-5.937,5.018C244.268,48.167,245.57,49.583,249.248,51z"/>
		<path d="M263.233,36.255c1.11,0,2.03-0.881,2.03-2.03c0-1.11-0.92-1.991-2.03-1.991s-2.03,0.881-2.03,1.991
			C261.203,35.375,262.123,36.255,263.233,36.255z"/>
		<path d="M262.007,59.809c0,3.218-0.307,4.137-2.49,7.813l0.92,0.728c2.412-2.72,3.025-3.677,4.404-7.009V40.813h-0.728
			l-5.515,1.493v1.034h3.408V59.809z"/>
		<path d="M277.449,59.043c4.635,0,8.388-4.099,8.388-9.153c0-5.056-3.753-9.154-8.388-9.154c-4.634,0-8.389,4.099-8.389,9.154
			C269.06,54.945,272.815,59.043,277.449,59.043z M277.449,42.344c2.873,0,5.132,3.294,5.132,7.546c0,4.251-2.259,7.545-5.132,7.545
			c-2.872,0-5.094-3.332-5.094-7.545C272.355,45.638,274.577,42.344,277.449,42.344z"/>
		<path d="M291.059,57.128h-2.911v1.417h8.694v-1.417h-2.911V47.17c3.332-3.83,4.29-4.558,5.937-4.558
			c1.686,0,2.72,1.264,2.72,3.294v11.222h-2.873v1.417h8.656v-1.417h-2.873V45.524c0-2.949-1.762-4.788-4.596-4.788
			c-2.451,0-4.098,1.034-6.971,4.366v-4.289h-0.689l-5.515,1.493v1.034h3.332V57.128z"/>
		<path d="M313.446,50.656c-1.839,0.421-3.103,2.03-3.103,3.983c0,2.565,1.953,4.404,4.596,4.404c2.03,0,3.485-0.805,5.095-2.796
			c0,0.153,0,0.268,0,0.383c0,1.417,0.688,2.26,1.876,2.26c0.307,0,0.843-0.115,1.341-0.269l2.566-0.804v-1.072h-2.949V44.949
			c0-2.527-2.222-4.213-5.592-4.213c-3.485,0-6.052,1.647-6.052,3.868c0,0.422,0.038,0.613,0.307,1.073l3.408-0.996v-1.839
			c1.111-0.536,1.609-0.65,2.375-0.65c1.532,0,2.681,1.11,2.681,2.643v4.327L313.446,50.656z M319.995,54.753
			c-1.685,1.494-2.681,2.03-3.906,2.03c-1.608,0-2.643-1.034-2.643-2.643v-1.915l6.549-1.532V54.753z"/>
		<polygon points="330.258,57.128 327.347,57.128 327.347,58.545 336.003,58.545 336.003,57.128 333.13,57.128 333.13,30.319 
			332.403,30.319 326.888,31.812 326.888,32.846 330.258,32.846 		"/>
		<polygon points="203.91,96.249 200.999,96.249 200.999,97.666 209.655,97.666 209.655,96.249 206.782,96.249 206.782,69.439 
			206.054,69.439 200.54,70.932 200.54,71.966 203.91,71.966 		"/>
		<polygon points="214.94,97.666 219.689,97.666 219.689,96.249 217.506,96.249 210.191,87.401 216.127,81.733 219.077,81.733 
			219.077,80.316 211.455,80.316 211.455,81.733 213.944,81.733 207.088,88.244 		"/>
		<path d="M228.919,79.856c-4.634,0-8.388,4.099-8.388,9.154c0,5.055,3.754,9.153,8.388,9.153s8.388-4.099,8.388-9.153
			C237.307,83.955,233.553,79.856,228.919,79.856z M228.919,96.555c-2.872,0-5.094-3.332-5.094-7.545
			c0-4.252,2.222-7.546,5.094-7.546s5.132,3.294,5.132,7.546C234.051,93.261,231.792,96.555,228.919,96.555z"/>
		<path d="M252.435,79.856c-2.451,0-4.099,1.034-6.971,4.366v-4.289h-0.688l-5.516,1.493v1.034h3.332v13.788h-2.911v1.417h8.694
			v-1.417h-2.911v-9.958c3.333-3.83,4.29-4.558,5.937-4.558c1.686,0,2.719,1.264,2.719,3.294v11.222h-2.871v1.417h8.654v-1.417
			h-2.871v-9.958l2.029-2.183c1.646-1.763,2.643-2.337,3.906-2.337c1.686,0,2.72,1.188,2.72,3.256v11.222h-2.911v1.417h8.656v-1.417
			h-2.873V84.605c0-2.91-1.762-4.749-4.596-4.749c-2.413,0-4.061,1.034-6.932,4.366C256.648,81.273,255.155,79.856,252.435,79.856z"
			/>
		<path d="M301.841,84.605c0-2.91-1.762-4.749-4.596-4.749c-2.413,0-4.06,1.034-6.933,4.366c-0.383-2.949-1.877-4.366-4.596-4.366
			c-2.451,0-4.098,1.034-6.971,4.366v-4.289h-0.689l-5.515,1.493v1.034h3.332v13.788h-2.911v1.417h8.694v-1.417h-2.911v-9.958
			c3.332-3.83,4.29-4.558,5.937-4.558c1.686,0,2.72,1.264,2.72,3.294v11.222h-2.873v1.417h8.656v-1.417h-2.873v-9.958l2.03-2.183
			c1.647-1.763,2.643-2.337,3.906-2.337c1.686,0,2.72,1.188,2.72,3.256v11.222h-2.911v1.417h8.655v-1.417h-2.872V84.605z"/>
		<path d="M321.221,97.972l5.516-1.379v-1.072h-3.332V79.933h-0.728l-5.056,1.34v1.188h2.91v9.192
			c-0.804,0.881-1.379,1.531-1.762,1.953c-1.723,2.029-2.681,2.643-4.098,2.643c-1.877,0-2.796-1.149-2.796-3.485v-12.83h-0.728
			l-5.516,1.493v1.034h3.332v10.763c0,3.063,1.762,4.94,4.635,4.94c2.375,0,4.175-1.188,6.932-4.52v4.328H321.221z"/>
		<path d="M334.167,84.222v-4.289h-0.689l-5.515,1.493v1.034h3.332v13.788h-2.911v1.417h8.694v-1.417h-2.911v-9.958
			c3.332-3.83,4.29-4.558,5.937-4.558c1.686,0,2.72,1.264,2.72,3.294v11.222h-2.873v1.417h8.656v-1.417h-2.873V84.644
			c0-2.949-1.762-4.788-4.596-4.788C338.686,79.856,337.04,80.89,334.167,84.222z"/>
		<path d="M354.427,75.375c1.149,0,2.03-0.881,2.03-2.03c0-1.11-0.881-1.991-2.03-1.991c-1.11,0-1.991,0.881-1.991,1.991
			C352.436,74.495,353.317,75.375,354.427,75.375z"/>
		<polygon points="353.164,96.249 350.252,96.249 350.252,97.666 358.947,97.666 358.947,96.249 356.036,96.249 356.036,79.933 
			355.346,79.933 349.832,81.426 349.832,82.46 353.164,82.46 		"/>
		<polygon points="369.748,87.401 375.684,81.733 378.633,81.733 378.633,80.316 371.011,80.316 371.011,81.733 373.5,81.733 
			366.645,88.244 374.497,97.666 379.246,97.666 379.246,96.249 377.063,96.249 		"/>
		<polygon points="363.466,96.249 360.555,96.249 360.555,97.666 369.211,97.666 369.211,96.249 366.338,96.249 366.338,69.439 
			365.611,69.439 360.096,70.932 360.096,71.966 363.466,71.966 		"/>
		<path d="M393.034,84.069c0-2.527-2.222-4.213-5.592-4.213c-3.485,0-6.052,1.647-6.052,3.868c0,0.422,0.038,0.613,0.307,1.072
			l3.408-0.995v-1.839c1.111-0.536,1.609-0.65,2.375-0.65c1.532,0,2.681,1.11,2.681,2.643v4.327l-6.549,1.494
			c-1.839,0.421-3.103,2.03-3.103,3.983c0,2.565,1.953,4.404,4.596,4.404c2.03,0,3.485-0.805,5.095-2.796c0,0.153,0,0.268,0,0.383
			c0,1.417,0.689,2.26,1.876,2.26c0.307,0,0.843-0.115,1.341-0.269l2.566-0.804v-1.072h-2.949V84.069z M390.161,93.874
			c-1.685,1.494-2.681,2.03-3.906,2.03c-1.608,0-2.643-1.034-2.643-2.643v-1.915l6.549-1.532V93.874z"/>
		<path d="M406.016,87.746c-4.635-1.876-4.902-2.067-4.902-3.715c0-1.646,1.302-2.719,3.294-2.719c2.068,0,3.791,1.226,3.791,2.719
			c0,0.345-0.076,0.843-0.229,1.264h1.646l0.92-5.515h-1.647l-0.229,1.379c-1.072-0.881-2.375-1.303-4.06-1.303
			c-3.523,0-5.937,2.03-5.937,5.018c0,2.413,1.302,3.83,4.979,5.247c4.021,1.57,5.094,2.413,5.094,3.944
			c0,1.532-1.57,2.644-3.677,2.644c-2.374,0-4.519-1.456-4.519-3.103v-1.034h-1.762v5.438h1.531v-1.379
			c1.111,1.034,2.72,1.532,4.864,1.532c3.409,0,5.783-2.145,5.783-5.209C410.957,90.503,409.769,89.24,406.016,87.746z"/>
		<path d="M412.795,81.426v1.034h3.408v16.469c0,3.218-0.306,4.137-2.489,7.813l0.919,0.728c2.413-2.72,3.026-3.677,4.405-7.009
			V79.933h-0.729L412.795,81.426z"/>
		<path d="M417.429,71.354c-1.11,0-2.029,0.881-2.029,1.991c0,1.149,0.919,2.03,2.029,2.03c1.111,0,2.03-0.881,2.03-2.03
			C419.459,72.235,418.541,71.354,417.429,71.354z"/>
		<path d="M431.868,79.856c-4.634,0-8.388,4.099-8.388,9.154c0,5.055,3.754,9.153,8.388,9.153c4.635,0,8.388-4.099,8.388-9.153
			C440.255,83.955,436.502,79.856,431.868,79.856z M431.868,96.555c-2.872,0-5.094-3.332-5.094-7.545
			c0-4.252,2.222-7.546,5.094-7.546c2.873,0,5.132,3.294,5.132,7.546C437,93.261,434.741,96.555,431.868,96.555z"/>
		<path d="M459.788,84.644c0-2.949-1.762-4.788-4.596-4.788c-2.451,0-4.098,1.034-6.971,4.366v-4.289h-0.689l-5.515,1.493v1.034
			h3.332v13.788h-2.911v1.417h8.694v-1.417h-2.911v-9.958c3.332-3.83,4.29-4.558,5.937-4.558c1.686,0,2.72,1.264,2.72,3.294v11.222
			h-2.873v1.417h8.656v-1.417h-2.873V84.644z"/>
		<path d="M472.695,87.746c-4.635-1.876-4.902-2.067-4.902-3.715c0-1.646,1.302-2.719,3.294-2.719c2.068,0,3.791,1.226,3.791,2.719
			c0,0.345-0.076,0.843-0.229,1.264h1.647l0.919-5.515h-1.647l-0.229,1.379c-1.072-0.881-2.375-1.303-4.06-1.303
			c-3.523,0-5.937,2.03-5.937,5.018c0,2.413,1.302,3.83,4.979,5.247c4.021,1.57,5.094,2.413,5.094,3.944
			c0,1.532-1.569,2.644-3.677,2.644c-2.374,0-4.519-1.456-4.519-3.103v-1.034h-1.762v5.438h1.531v-1.379
			c1.111,1.034,2.72,1.532,4.864,1.532c3.409,0,5.783-2.145,5.783-5.209C477.635,90.503,476.448,89.24,472.695,87.746z"/>
		<rect x="480.619" y="87.478" width="6.22" height="2.91"/>
		<path d="M229.882,123.739c0-2.91-1.762-4.749-4.596-4.749c-2.412,0-4.06,1.034-6.932,4.366c-0.383-2.949-1.877-4.366-4.596-4.366
			c-2.451,0-4.099,1.034-6.971,4.366v-4.289h-0.689l-5.516,1.493v1.034h3.332v13.788h-2.91v1.417h8.693v-1.417h-2.91v-9.958
			c3.332-3.83,4.289-4.558,5.936-4.558c1.686,0,2.72,1.264,2.72,3.294v11.222h-2.872v1.417h8.655v-1.417h-2.872v-9.958l2.029-2.183
			c1.647-1.762,2.643-2.337,3.906-2.337c1.686,0,2.72,1.188,2.72,3.256v11.222h-2.911v1.417h8.656v-1.417h-2.873V123.739z"/>
		<path d="M244.361,120.867h2.566l-4.29,11.299l-4.634-11.299h2.719v-1.417h-7.43v1.417h1.607l6.205,15.205
			c-0.919,2.335-1.417,3.255-2.489,4.673c-1.188,1.531-1.915,2.105-4.021,3.293l2.489,2.566c0.689-0.92,1.188-1.609,1.532-2.068
			c1.264-1.838,2.681-4.559,3.562-6.855l6.473-16.814h1.609v-1.417h-5.898V120.867z"/>
		<path d="M268.873,123.778c0-2.949-1.763-4.788-4.597-4.788c-2.451,0-4.099,1.034-6.971,4.366v-4.289h-0.688l-5.516,1.493v1.034
			h3.332v13.788h-2.911v1.417h8.694v-1.417h-2.911v-9.958c3.333-3.83,4.29-4.558,5.937-4.558c1.686,0,2.719,1.264,2.719,3.294
			v11.222h-2.871v1.417h8.654v-1.417h-2.871V123.778z"/>
		<path d="M289.209,108.573h-0.728l-5.516,1.493v1.034h3.332v8.848c-1.455-0.767-2.145-0.958-3.447-0.958
			c-5.017,0-9.076,4.252-9.076,9.537c0,4.902,3.141,8.771,7.123,8.771c1.953,0,3.294-0.689,5.4-2.796v2.681h0.728l5.512-1.456
			v-1.072h-3.328V108.573z M286.298,132.663c-0.498,0.384-0.881,0.689-1.11,0.881c-1.341,1.034-1.915,1.265-3.103,1.265
			c-3.141,0-5.018-2.566-5.018-6.856c0-4.404,2.49-7.354,6.205-7.354c2.26,0,3.025,0.805,3.025,3.18V132.663z"/>
		<polygon points="299.929,119.067 299.24,119.067 293.725,120.561 293.725,121.595 297.057,121.595 297.057,135.383 
			294.146,135.383 294.146,136.8 302.84,136.8 302.84,135.383 299.929,135.383 		"/>
		<path d="M300.351,112.479c0-1.11-0.881-1.991-2.03-1.991c-1.11,0-1.991,0.881-1.991,1.991c0,1.149,0.881,2.03,1.991,2.03
			C299.47,114.51,300.351,113.629,300.351,112.479z"/>
		<path d="M317.165,120.14c-2.068-0.996-2.604-1.149-4.175-1.149c-4.366,0-7.2,2.604-7.2,6.703c0,2.412,1.034,4.136,3.294,5.438
			c-2.145,1.8-2.72,2.489-4.021,4.787c1.188,1.34,1.762,1.686,2.872,1.915c-1.838,2.299-2.145,2.834-2.987,4.902
			c2.106,2.797,4.175,3.869,7.469,3.869c5.4,0,9.767-3.523,9.767-7.852c0-2.222-1.072-3.524-2.911-3.524h-9.575
			c-0.728,0-1.11-0.345-1.11-0.996c0-0.689,0.46-1.417,1.608-2.604c1.149,0.384,1.57,0.46,2.72,0.46c4.52,0,7.314-2.566,7.314-6.626
			c0-1.57-0.306-2.489-1.225-3.562h3.332v-2.413l-2.72,0.651H317.165z M309.351,138.025h8.694c0.881,0,1.455,0.766,1.455,1.992
			c0,2.719-2.834,5.055-6.204,5.055c-3.064,0-5.209-1.607-5.209-3.867C308.087,140.169,308.356,139.443,309.351,138.025z
			 M313.028,130.596c-2.565,0-4.174-1.992-4.174-5.095c0-3.102,1.608-5.055,4.174-5.055c2.528,0,4.175,1.953,4.175,5.055
			C317.203,128.604,315.556,130.596,313.028,130.596z"/>
		<path d="M341.177,123.778c0-2.949-1.762-4.788-4.596-4.788c-2.413,0-4.06,1.034-6.933,4.366v-14.783h-0.728l-5.515,1.493v1.034
			h3.37v24.282h-2.911v1.417h8.656v-1.417h-2.873v-9.958c3.332-3.83,4.252-4.558,5.937-4.558c1.686,0,2.72,1.264,2.72,3.294v11.222
			h-2.911v1.417h8.694v-1.417h-2.911V123.778z"/>
		<path d="M354.276,118.99c-4.749,0-8.234,3.907-8.234,9.269c0,5.285,3.447,9.04,8.312,9.04c2.221,0,3.562-0.461,6.434-2.107
			l-0.728-1.417c-2.145,1.379-3.179,1.762-4.711,1.762c-3.638,0-6.166-3.332-6.166-8.12v-0.421h12.064v-1.034
			C361.247,121.824,358.413,118.99,354.276,118.99z M358.106,125.463h-8.886c0.345-2.987,2.299-4.864,5.094-4.864
			c2.222,0,3.792,1.647,3.792,3.945V125.463z"/>
		<path d="M370.784,135.076c-1.264,0-1.762-0.536-1.762-1.991v-11.49h4.749v-1.762h-4.749v-5.4h-2.758v5.285l-3.332,0.843v1.034
			h3.332v11.835c0,2.336,1.341,3.714,3.562,3.714c1.417,0,2.184-0.344,4.213-1.953l-0.65-1.034
			C372.085,134.923,371.587,135.076,370.784,135.076z"/>
	</g>
</g>
</svg>
