<?xml version="1.0" encoding="UTF-8"?> <svg xmlns="http://www.w3.org/2000/svg" xmlns:xlink="http://www.w3.org/1999/xlink" version="1.1" id="Layer_1" x="0px" y="0px" viewBox="0 0 476.9 141.7" style="enable-background:new 0 0 476.9 141.7;" xml:space="preserve"> <style type="text/css"> .st0{fill:#BCBEC0;} .st1{fill:#E31B23;} </style> <g> <g> <g> <g> <path d="M168,38c0,1.5-0.2,2.8-0.6,4c-0.4,1.2-0.9,2.3-1.5,3.2c-0.7,0.9-1.4,1.7-2.3,2.4c-0.9,0.7-1.9,1.2-3,1.6 c-1.1,0.4-2.3,0.7-3.5,0.9c-1.2,0.2-2.6,0.3-4.1,0.3h-10.1c-0.6,0-1.2-0.2-1.6-0.6c-0.4-0.4-0.7-1.1-0.7-2V11.4 c0-0.9,0.2-1.6,0.7-2c0.4-0.4,1-0.6,1.6-0.6h9.5c2.3,0,4.3,0.2,5.9,0.6c1.6,0.4,3,1.1,4.1,2c1.1,0.9,2,2,2.5,3.3 c0.6,1.3,0.9,2.9,0.9,4.7c0,1-0.1,2-0.4,2.9c-0.2,0.9-0.6,1.7-1,2.4c-0.4,0.7-1,1.4-1.7,1.9c-0.7,0.6-1.4,1-2.2,1.4 c1.1,0.2,2.1,0.6,3,1.1c0.9,0.5,1.7,1.2,2.4,2.1c0.7,0.8,1.2,1.8,1.6,3C167.8,35.3,168,36.5,168,38z M158.1,20.4 c0-0.8-0.1-1.6-0.4-2.3c-0.2-0.7-0.6-1.2-1.1-1.7c-0.5-0.4-1.1-0.8-1.8-1c-0.7-0.2-1.7-0.4-2.9-0.4h-3.9v10.8h4.3 c1.1,0,2-0.1,2.7-0.4c0.7-0.3,1.2-0.7,1.7-1.2s0.8-1.1,1-1.8C158,21.9,158.1,21.1,158.1,20.4z M160,38.2c0-1-0.1-1.8-0.4-2.6 c-0.3-0.8-0.7-1.4-1.3-1.9c-0.6-0.5-1.3-0.9-2.2-1.2c-0.9-0.3-2-0.4-3.4-0.4h-4.6V44h5.6c1.1,0,2-0.1,2.7-0.4 c0.7-0.2,1.4-0.6,1.9-1.1c0.5-0.5,1-1.1,1.3-1.8C159.9,40,160,39.2,160,38.2z"></path> <path d="M190.6,23.3c0,0.8,0,1.4-0.1,1.9c0,0.5-0.1,0.9-0.2,1.2c-0.1,0.3-0.2,0.5-0.3,0.6c-0.1,0.1-0.3,0.2-0.5,0.2 c-0.2,0-0.3,0-0.5-0.1c-0.2-0.1-0.4-0.2-0.7-0.2c-0.2-0.1-0.5-0.2-0.8-0.2c-0.3-0.1-0.6-0.1-1-0.1c-0.4,0-0.8,0.1-1.2,0.3 c-0.4,0.2-0.8,0.5-1.3,0.9c-0.4,0.4-0.9,0.9-1.4,1.5c-0.5,0.6-1,1.4-1.5,2.4v17.9c0,0.2-0.1,0.4-0.2,0.6 c-0.1,0.2-0.3,0.3-0.6,0.4c-0.3,0.1-0.7,0.2-1.1,0.2c-0.5,0.1-1.1,0.1-1.8,0.1c-0.7,0-1.3,0-1.8-0.1c-0.5-0.1-0.8-0.1-1.1-0.2 c-0.3-0.1-0.5-0.2-0.6-0.4c-0.1-0.2-0.2-0.3-0.2-0.6V20.6c0-0.2,0-0.4,0.1-0.6c0.1-0.2,0.3-0.3,0.5-0.4c0.3-0.1,0.6-0.2,1-0.2 c0.4-0.1,0.9-0.1,1.5-0.1c0.6,0,1.1,0,1.6,0.1c0.4,0.1,0.7,0.1,1,0.2c0.2,0.1,0.4,0.2,0.5,0.4c0.1,0.2,0.1,0.3,0.1,0.6v3.6 c0.7-1.1,1.3-2,1.9-2.7c0.6-0.7,1.2-1.2,1.7-1.7c0.5-0.4,1.1-0.7,1.6-0.9c0.5-0.2,1.1-0.2,1.6-0.2c0.3,0,0.5,0,0.8,0 c0.3,0,0.6,0.1,0.9,0.2c0.3,0.1,0.6,0.2,0.8,0.3c0.2,0.1,0.4,0.2,0.5,0.3c0.1,0.1,0.2,0.2,0.2,0.4c0,0.1,0.1,0.3,0.1,0.5 c0,0.2,0.1,0.6,0.1,1C190.6,21.9,190.6,22.5,190.6,23.3z"></path> <path d="M216.1,49.5c0,0.3-0.1,0.5-0.3,0.7c-0.2,0.2-0.5,0.3-0.9,0.4c-0.4,0.1-1,0.1-1.9,0.1c-0.9,0-1.5,0-1.9-0.1 c-0.4-0.1-0.7-0.2-0.9-0.4c-0.2-0.2-0.2-0.4-0.2-0.7v-2.3c-1.1,1.3-2.3,2.3-3.7,3c-1.4,0.7-2.9,1.1-4.6,1.1 c-1.4,0-2.7-0.2-3.8-0.6c-1.2-0.4-2.2-1-3-1.8c-0.9-0.8-1.5-1.8-2-2.9c-0.5-1.2-0.7-2.5-0.7-4.1c0-1.7,0.3-3.1,0.9-4.4 c0.6-1.2,1.5-2.3,2.7-3.1c1.2-0.8,2.7-1.4,4.4-1.8c1.8-0.4,3.8-0.6,6.1-0.6h2.6v-1.7c0-0.9-0.1-1.7-0.2-2.4 c-0.2-0.7-0.4-1.2-0.8-1.7c-0.4-0.5-0.9-0.8-1.5-1c-0.6-0.2-1.4-0.3-2.4-0.3c-1.2,0-2.3,0.2-3.3,0.5c-1,0.3-1.8,0.6-2.6,1 c-0.7,0.4-1.4,0.7-1.9,1c-0.5,0.3-0.9,0.5-1.2,0.5c-0.2,0-0.4-0.1-0.6-0.2c-0.2-0.2-0.3-0.4-0.4-0.6c-0.1-0.3-0.2-0.6-0.2-1 c-0.1-0.4-0.1-0.9-0.1-1.4c0-0.7,0-1.2,0.1-1.6c0.1-0.4,0.3-0.7,0.6-1c0.3-0.3,0.8-0.7,1.4-1c0.7-0.4,1.5-0.7,2.4-1 c0.9-0.3,1.9-0.6,3-0.8c1.1-0.2,2.2-0.3,3.4-0.3c2.1,0,3.8,0.2,5.3,0.7c1.5,0.4,2.7,1.1,3.6,2c0.9,0.9,1.6,2.1,2.1,3.5 c0.4,1.4,0.6,3.1,0.6,5.1V49.5z M208.9,37.1H206c-1.2,0-2.2,0.1-3.1,0.3c-0.8,0.2-1.5,0.5-2.1,0.9c-0.5,0.4-0.9,0.9-1.2,1.4 c-0.2,0.5-0.4,1.2-0.4,1.9c0,1.2,0.3,2.1,1,2.8c0.7,0.7,1.7,1,2.9,1c1,0,2-0.3,2.9-0.9c0.9-0.6,1.8-1.4,2.7-2.5V37.1z"></path> <path d="M248.5,49.4c0,0.2-0.1,0.4-0.2,0.6c-0.1,0.2-0.3,0.3-0.6,0.4c-0.3,0.1-0.6,0.2-1.1,0.2c-0.5,0.1-1.1,0.1-1.8,0.1 c-0.7,0-1.3,0-1.8-0.1c-0.5-0.1-0.9-0.1-1.1-0.2c-0.3-0.1-0.5-0.2-0.6-0.4c-0.1-0.2-0.2-0.3-0.2-0.6V33c0-1.4-0.1-2.5-0.3-3.3 c-0.2-0.8-0.5-1.5-0.8-2c-0.4-0.6-0.8-1-1.4-1.3c-0.6-0.3-1.2-0.5-2-0.5c-0.9,0-1.9,0.4-2.8,1.1c-1,0.8-2,1.8-3,3.3v19.1 c0,0.2-0.1,0.4-0.2,0.6c-0.1,0.2-0.3,0.3-0.6,0.4c-0.3,0.1-0.7,0.2-1.1,0.2c-0.5,0.1-1.1,0.1-1.8,0.1c-0.7,0-1.3,0-1.8-0.1 c-0.5-0.1-0.8-0.1-1.1-0.2c-0.3-0.1-0.5-0.2-0.6-0.4c-0.1-0.2-0.2-0.3-0.2-0.6V20.6c0-0.2,0-0.4,0.1-0.6 c0.1-0.2,0.3-0.3,0.5-0.4c0.3-0.1,0.6-0.2,1-0.2c0.4-0.1,0.9-0.1,1.5-0.1c0.6,0,1.1,0,1.6,0.1c0.4,0.1,0.7,0.1,1,0.2 c0.2,0.1,0.4,0.2,0.5,0.4c0.1,0.2,0.1,0.3,0.1,0.6v3.3c1.4-1.7,2.9-3,4.4-3.9c1.5-0.9,3.1-1.3,4.7-1.3c1.8,0,3.3,0.3,4.5,1 c1.2,0.6,2.2,1.5,3,2.6c0.8,1.1,1.3,2.4,1.6,3.9c0.3,1.5,0.5,3.3,0.5,5.3V49.4z"></path> <path d="M280.7,49.4c0,0.2-0.1,0.4-0.2,0.6c-0.1,0.2-0.3,0.3-0.6,0.4c-0.3,0.1-0.7,0.2-1.1,0.2c-0.5,0.1-1.1,0.1-1.8,0.1 c-0.7,0-1.3,0-1.8-0.1c-0.5-0.1-0.9-0.1-1.1-0.2c-0.3-0.1-0.5-0.2-0.6-0.4c-0.1-0.2-0.2-0.3-0.2-0.6V33c0-1.4-0.1-2.5-0.3-3.3 c-0.2-0.8-0.5-1.5-0.8-2c-0.4-0.6-0.8-1-1.4-1.3c-0.6-0.3-1.2-0.5-2-0.5c-0.9,0-1.9,0.4-2.8,1.1c-1,0.8-2,1.8-3,3.3v19.1 c0,0.2-0.1,0.4-0.2,0.6c-0.1,0.2-0.3,0.3-0.6,0.4c-0.3,0.1-0.7,0.2-1.1,0.2c-0.5,0.1-1.1,0.1-1.8,0.1c-0.7,0-1.3,0-1.8-0.1 c-0.5-0.1-0.8-0.1-1.1-0.2c-0.3-0.1-0.5-0.2-0.6-0.4c-0.1-0.2-0.2-0.3-0.2-0.6V20.6c0-0.2,0-0.4,0.1-0.6 c0.1-0.2,0.3-0.3,0.5-0.4c0.3-0.1,0.6-0.2,1-0.2c0.4-0.1,0.9-0.1,1.5-0.1c0.6,0,1.1,0,1.6,0.1c0.4,0.1,0.7,0.1,1,0.2 c0.2,0.1,0.4,0.2,0.5,0.4c0.1,0.2,0.1,0.3,0.1,0.6v3.3c1.4-1.7,2.9-3,4.4-3.9c1.5-0.9,3.1-1.3,4.7-1.3c1.8,0,3.3,0.3,4.5,1 c1.2,0.6,2.2,1.5,3,2.6c0.8,1.1,1.3,2.4,1.6,3.9c0.3,1.5,0.5,3.3,0.5,5.3V49.4z"></path> <path d="M311.2,20.6c0,0.1,0,0.2,0,0.4c0,0.2,0,0.3-0.1,0.5c0,0.2-0.1,0.4-0.1,0.6c0,0.2-0.1,0.5-0.2,0.8l-7.9,26 c-0.1,0.4-0.2,0.7-0.4,0.9c-0.2,0.2-0.4,0.4-0.8,0.5c-0.4,0.1-0.9,0.2-1.6,0.3c-0.7,0-1.5,0.1-2.6,0.1c-1,0-1.9,0-2.5-0.1 c-0.7-0.1-1.2-0.1-1.5-0.3c-0.4-0.1-0.6-0.3-0.8-0.5c-0.2-0.2-0.3-0.5-0.4-0.9l-7.9-26c-0.1-0.4-0.2-0.8-0.3-1.2 c-0.1-0.3-0.1-0.6-0.1-0.7c0-0.2,0-0.3,0-0.4c0-0.2,0.1-0.4,0.2-0.6c0.1-0.2,0.3-0.3,0.6-0.4c0.3-0.1,0.6-0.2,1.1-0.2 c0.5,0,1.1-0.1,1.8-0.1c0.8,0,1.4,0,1.9,0.1c0.5,0.1,0.9,0.1,1.2,0.2c0.3,0.1,0.5,0.2,0.6,0.4c0.1,0.2,0.2,0.4,0.3,0.7l6,21.1 l0.2,0.8l0.2-0.8l5.9-21.1c0.1-0.3,0.2-0.5,0.3-0.7s0.3-0.3,0.6-0.4c0.3-0.1,0.6-0.2,1.1-0.2c0.5-0.1,1.1-0.1,1.8-0.1 c0.7,0,1.3,0,1.8,0.1c0.5,0,0.8,0.1,1.1,0.2c0.3,0.1,0.4,0.2,0.5,0.4C311.1,20.2,311.2,20.4,311.2,20.6z"></path> <path d="M339.1,34.1c0,1-0.2,1.7-0.6,2.2c-0.4,0.5-1,0.7-1.7,0.7h-15.9c0,1.2,0.1,2.3,0.4,3.3c0.3,1,0.7,1.8,1.3,2.5 c0.6,0.7,1.3,1.2,2.2,1.6c0.9,0.4,2,0.5,3.3,0.5c1.3,0,2.4-0.1,3.4-0.3c1-0.2,1.8-0.4,2.5-0.7c0.7-0.2,1.3-0.5,1.8-0.7 c0.5-0.2,0.9-0.3,1.1-0.3c0.2,0,0.3,0,0.4,0.1c0.1,0.1,0.2,0.2,0.3,0.4c0.1,0.2,0.1,0.5,0.2,0.8s0,0.8,0,1.3c0,0.5,0,0.9,0,1.2 c0,0.3,0,0.6-0.1,0.9c0,0.2-0.1,0.4-0.2,0.6c-0.1,0.2-0.2,0.3-0.3,0.5c-0.1,0.2-0.5,0.4-1,0.6c-0.6,0.3-1.3,0.5-2.2,0.8 c-0.9,0.2-1.9,0.5-3,0.6c-1.1,0.2-2.3,0.3-3.6,0.3c-2.3,0-4.4-0.3-6.1-1c-1.8-0.6-3.2-1.6-4.4-2.9c-1.2-1.3-2-3-2.6-5 c-0.6-2-0.9-4.3-0.9-7c0-2.6,0.3-4.9,0.9-6.9c0.6-2.1,1.5-3.8,2.6-5.2c1.2-1.4,2.6-2.5,4.2-3.3c1.7-0.8,3.5-1.1,5.6-1.1 c2.2,0,4.1,0.4,5.6,1.1c1.6,0.7,2.8,1.7,3.8,2.9c1,1.3,1.7,2.7,2.2,4.5c0.5,1.7,0.7,3.6,0.7,5.6V34.1z M331.9,31.8 c0.1-2.3-0.4-4.1-1.2-5.4c-0.9-1.3-2.3-1.9-4.1-1.9c-0.9,0-1.8,0.2-2.4,0.6c-0.7,0.4-1.3,0.9-1.7,1.6c-0.5,0.7-0.8,1.4-1.1,2.3 c-0.2,0.9-0.4,1.8-0.4,2.9H331.9z"></path> <path d="M363.6,41.2c0,1.6-0.3,3.1-0.8,4.3c-0.6,1.2-1.3,2.3-2.4,3.1c-1,0.8-2.2,1.5-3.6,1.9c-1.4,0.4-2.9,0.6-4.5,0.6 c-1,0-1.9-0.1-2.8-0.2c-0.9-0.2-1.7-0.4-2.4-0.6c-0.7-0.2-1.3-0.5-1.8-0.8c-0.5-0.3-0.8-0.5-1-0.7c-0.2-0.2-0.4-0.6-0.5-1.1 c-0.1-0.5-0.2-1.2-0.2-2.1c0-0.6,0-1.1,0.1-1.5c0-0.4,0.1-0.7,0.2-0.9c0.1-0.2,0.2-0.4,0.3-0.5c0.1-0.1,0.3-0.1,0.4-0.1 c0.2,0,0.5,0.1,1,0.4c0.4,0.3,0.9,0.6,1.6,0.9c0.6,0.3,1.4,0.6,2.2,0.9c0.8,0.3,1.8,0.4,2.8,0.4c0.7,0,1.3-0.1,1.8-0.2 c0.5-0.2,1-0.4,1.3-0.6c0.4-0.3,0.7-0.6,0.9-1.1c0.2-0.4,0.3-0.9,0.3-1.5c0-0.6-0.2-1.2-0.5-1.7c-0.4-0.5-0.8-0.9-1.4-1.2 c-0.6-0.3-1.3-0.7-2-1c-0.8-0.3-1.5-0.6-2.3-1c-0.8-0.4-1.6-0.8-2.3-1.3c-0.8-0.5-1.4-1.1-2-1.7c-0.6-0.7-1.1-1.5-1.4-2.5 c-0.4-1-0.5-2.1-0.5-3.5c0-1.4,0.2-2.6,0.7-3.8c0.5-1.1,1.2-2.1,2.1-2.9c0.9-0.8,2-1.5,3.4-1.9c1.3-0.5,2.8-0.7,4.4-0.7 c0.8,0,1.6,0.1,2.4,0.2c0.8,0.1,1.5,0.3,2.1,0.5c0.6,0.2,1.2,0.4,1.6,0.6c0.4,0.2,0.7,0.4,0.9,0.6c0.2,0.2,0.3,0.3,0.4,0.5 c0.1,0.2,0.1,0.4,0.2,0.6c0,0.2,0.1,0.5,0.1,0.8c0,0.3,0,0.7,0,1.2c0,0.6,0,1.1,0,1.4c0,0.4-0.1,0.7-0.1,0.9 c-0.1,0.2-0.2,0.4-0.3,0.4c-0.1,0.1-0.3,0.1-0.4,0.1c-0.2,0-0.5-0.1-0.8-0.3c-0.4-0.2-0.8-0.5-1.4-0.7c-0.6-0.3-1.2-0.5-1.9-0.7 c-0.7-0.2-1.6-0.3-2.5-0.3c-0.7,0-1.2,0.1-1.7,0.2c-0.5,0.2-0.9,0.4-1.2,0.6c-0.3,0.3-0.5,0.6-0.7,1c-0.2,0.4-0.2,0.8-0.2,1.2 c0,0.7,0.2,1.2,0.6,1.7c0.4,0.5,0.9,0.9,1.5,1.2c0.6,0.3,1.3,0.7,2.1,1c0.8,0.3,1.6,0.6,2.3,1c0.8,0.4,1.6,0.8,2.3,1.2 c0.8,0.5,1.5,1.1,2.1,1.7c0.6,0.7,1.1,1.5,1.5,2.5C363.4,38.8,363.6,39.9,363.6,41.2z"></path> <path d="M393.3,34.1c0,1-0.2,1.7-0.6,2.2c-0.4,0.5-1,0.7-1.7,0.7h-15.9c0,1.2,0.1,2.3,0.4,3.3c0.3,1,0.7,1.8,1.3,2.5 c0.6,0.7,1.3,1.2,2.2,1.6c0.9,0.4,2,0.5,3.3,0.5c1.3,0,2.4-0.1,3.4-0.3c1-0.2,1.8-0.4,2.5-0.7c0.7-0.2,1.3-0.5,1.8-0.7 c0.5-0.2,0.9-0.3,1.1-0.3c0.2,0,0.3,0,0.4,0.1c0.1,0.1,0.2,0.2,0.3,0.4c0.1,0.2,0.1,0.5,0.2,0.8c0,0.4,0,0.8,0,1.3 c0,0.5,0,0.9,0,1.2c0,0.3,0,0.6-0.1,0.9c0,0.2-0.1,0.4-0.2,0.6c-0.1,0.2-0.2,0.3-0.3,0.5c-0.1,0.2-0.5,0.4-1,0.6 c-0.6,0.3-1.3,0.5-2.2,0.8c-0.9,0.2-1.9,0.5-3,0.6c-1.1,0.2-2.3,0.3-3.6,0.3c-2.3,0-4.4-0.3-6.1-1c-1.7-0.6-3.2-1.6-4.4-2.9 c-1.2-1.3-2-3-2.6-5c-0.6-2-0.9-4.3-0.9-7c0-2.6,0.3-4.9,0.9-6.9c0.6-2.1,1.5-3.8,2.6-5.2c1.2-1.4,2.6-2.5,4.2-3.3 c1.7-0.8,3.5-1.1,5.6-1.1c2.2,0,4.1,0.4,5.6,1.1c1.6,0.7,2.8,1.7,3.8,2.9c1,1.3,1.7,2.7,2.2,4.5c0.5,1.7,0.7,3.6,0.7,5.6V34.1z M386.1,31.8c0.1-2.3-0.4-4.1-1.2-5.4c-0.9-1.3-2.3-1.9-4.1-1.9c-0.9,0-1.8,0.2-2.4,0.6c-0.7,0.4-1.3,0.9-1.7,1.6 c-0.5,0.7-0.8,1.4-1.1,2.3c-0.2,0.9-0.4,1.8-0.4,2.9H386.1z"></path> <path d="M424.3,49.4c0,0.2-0.1,0.4-0.2,0.6c-0.1,0.2-0.3,0.3-0.6,0.4c-0.3,0.1-0.7,0.2-1.1,0.2c-0.5,0.1-1.1,0.1-1.8,0.1 c-0.7,0-1.3,0-1.8-0.1c-0.5-0.1-0.9-0.1-1.1-0.2c-0.3-0.1-0.5-0.2-0.6-0.4c-0.1-0.2-0.2-0.3-0.2-0.6V33c0-1.4-0.1-2.5-0.3-3.3 c-0.2-0.8-0.5-1.5-0.8-2c-0.4-0.6-0.8-1-1.4-1.3c-0.6-0.3-1.2-0.5-2-0.5c-0.9,0-1.9,0.4-2.8,1.1c-1,0.8-2,1.8-3,3.3v19.1 c0,0.2-0.1,0.4-0.2,0.6c-0.1,0.2-0.3,0.3-0.6,0.4c-0.3,0.1-0.7,0.2-1.1,0.2c-0.5,0.1-1.1,0.1-1.8,0.1c-0.7,0-1.3,0-1.8-0.1 c-0.5-0.1-0.8-0.1-1.1-0.2c-0.3-0.1-0.5-0.2-0.6-0.4c-0.1-0.2-0.2-0.3-0.2-0.6V20.6c0-0.2,0.1-0.4,0.1-0.6 c0.1-0.2,0.3-0.3,0.5-0.4c0.3-0.1,0.6-0.2,1-0.2c0.4-0.1,0.9-0.1,1.5-0.1c0.6,0,1.1,0,1.6,0.1c0.4,0.1,0.7,0.1,1,0.2 c0.2,0.1,0.4,0.2,0.5,0.4c0.1,0.2,0.1,0.3,0.1,0.6v3.3c1.4-1.7,2.9-3,4.4-3.9c1.5-0.9,3.1-1.3,4.7-1.3c1.8,0,3.3,0.3,4.5,1 c1.2,0.6,2.2,1.5,3,2.6c0.8,1.1,1.3,2.4,1.6,3.9c0.3,1.5,0.5,3.3,0.5,5.3V49.4z"></path> <path d="M455.8,34.1c0,1-0.2,1.7-0.6,2.2c-0.4,0.5-1,0.7-1.7,0.7h-15.9c0,1.2,0.1,2.3,0.4,3.3c0.3,1,0.7,1.8,1.3,2.5 c0.6,0.7,1.3,1.2,2.2,1.6c0.9,0.4,2,0.5,3.3,0.5c1.3,0,2.4-0.1,3.4-0.3c1-0.2,1.8-0.4,2.5-0.7c0.7-0.2,1.3-0.5,1.8-0.7 c0.5-0.2,0.9-0.3,1.1-0.3c0.2,0,0.3,0,0.4,0.1s0.2,0.2,0.3,0.4c0.1,0.2,0.1,0.5,0.2,0.8c0,0.4,0,0.8,0,1.3c0,0.5,0,0.9,0,1.2 c0,0.3,0,0.6-0.1,0.9c0,0.2-0.1,0.4-0.2,0.6c-0.1,0.2-0.2,0.3-0.3,0.5c-0.1,0.2-0.5,0.4-1,0.6c-0.6,0.3-1.3,0.5-2.2,0.8 c-0.9,0.2-1.9,0.5-3,0.6c-1.1,0.2-2.3,0.3-3.6,0.3c-2.3,0-4.4-0.3-6.1-1c-1.7-0.6-3.2-1.6-4.4-2.9c-1.2-1.3-2-3-2.6-5 c-0.6-2-0.9-4.3-0.9-7c0-2.6,0.3-4.9,0.9-6.9c0.6-2.1,1.5-3.8,2.6-5.2c1.2-1.4,2.6-2.5,4.2-3.3c1.7-0.8,3.5-1.1,5.6-1.1 c2.2,0,4.1,0.4,5.6,1.1c1.6,0.7,2.8,1.7,3.8,2.9c1,1.3,1.7,2.7,2.2,4.5c0.5,1.7,0.7,3.6,0.7,5.6V34.1z M448.6,31.8 c0.1-2.3-0.4-4.1-1.2-5.4c-0.9-1.3-2.3-1.9-4.1-1.9c-0.9,0-1.8,0.2-2.4,0.6c-0.7,0.4-1.3,0.9-1.7,1.6c-0.5,0.7-0.8,1.4-1.1,2.3 c-0.2,0.9-0.4,1.8-0.4,2.9H448.6z"></path> <path d="M476.9,46.5c0,0.9-0.1,1.7-0.2,2.2c-0.1,0.5-0.2,0.9-0.4,1.1c-0.2,0.2-0.4,0.4-0.8,0.5c-0.3,0.2-0.7,0.3-1.2,0.4 c-0.5,0.1-1,0.2-1.5,0.3c-0.5,0.1-1.1,0.1-1.6,0.1c-1.5,0-2.7-0.2-3.8-0.6c-1.1-0.4-2-1-2.7-1.9c-0.7-0.8-1.2-1.9-1.6-3.2 c-0.3-1.3-0.5-2.8-0.5-4.6V26.1h-3.1c-0.4,0-0.7-0.3-0.9-0.8c-0.2-0.5-0.3-1.3-0.3-2.5c0-0.6,0-1.1,0.1-1.6c0-0.4,0.1-0.8,0.2-1 c0.1-0.2,0.2-0.4,0.4-0.5c0.1-0.1,0.3-0.2,0.5-0.2h3.1v-6.4c0-0.2,0.1-0.4,0.2-0.6c0.1-0.2,0.3-0.3,0.6-0.4 c0.3-0.1,0.7-0.2,1.1-0.3c0.5-0.1,1.1-0.1,1.8-0.1c0.7,0,1.3,0,1.8,0.1c0.5,0.1,0.9,0.1,1.1,0.3c0.3,0.1,0.5,0.3,0.6,0.4 c0.1,0.2,0.2,0.4,0.2,0.6v6.4h5.7c0.2,0,0.4,0.1,0.5,0.2c0.1,0.1,0.3,0.3,0.4,0.5c0.1,0.2,0.2,0.6,0.2,1c0,0.4,0.1,1,0.1,1.6 c0,1.2-0.1,2-0.3,2.5c-0.2,0.5-0.5,0.8-0.8,0.8H470v13.5c0,1.6,0.2,2.7,0.7,3.5c0.4,0.8,1.3,1.2,2.4,1.2c0.4,0,0.7,0,1.1-0.1 c0.3-0.1,0.6-0.2,0.8-0.3c0.2-0.1,0.5-0.2,0.6-0.3c0.2-0.1,0.3-0.1,0.5-0.1c0.1,0,0.2,0,0.3,0.1c0.1,0.1,0.2,0.2,0.2,0.5 c0.1,0.2,0.1,0.5,0.2,0.9C476.9,45.4,476.9,45.9,476.9,46.5z"></path> <path d="M184.8,106.5c0,0.2-0.1,0.4-0.2,0.6c-0.1,0.2-0.3,0.3-0.6,0.4c-0.3,0.1-0.7,0.2-1.1,0.3c-0.5,0.1-1.1,0.1-1.8,0.1 c-0.7,0-1.3,0-1.8-0.1c-0.5-0.1-0.8-0.2-1.1-0.3c-0.3-0.1-0.5-0.2-0.6-0.4c-0.1-0.2-0.2-0.4-0.2-0.6V72.6h-0.1l-11,33.9 c-0.1,0.3-0.2,0.5-0.4,0.7c-0.2,0.2-0.4,0.3-0.7,0.4c-0.3,0.1-0.7,0.2-1.2,0.2c-0.5,0-1,0-1.7,0c-0.7,0-1.2,0-1.7-0.1 c-0.5-0.1-0.9-0.1-1.2-0.3c-0.3-0.1-0.5-0.3-0.7-0.4c-0.2-0.2-0.3-0.4-0.4-0.6l-10.6-33.9h-0.1v33.9c0,0.2-0.1,0.4-0.2,0.6 c-0.1,0.2-0.3,0.3-0.6,0.4c-0.3,0.1-0.7,0.2-1.1,0.3c-0.5,0.1-1.1,0.1-1.8,0.1c-0.7,0-1.3,0-1.8-0.1c-0.5-0.1-0.8-0.2-1.1-0.3 c-0.3-0.1-0.5-0.2-0.6-0.4c-0.1-0.2-0.2-0.4-0.2-0.6V69.3c0-1.1,0.3-1.9,0.8-2.5c0.5-0.6,1.2-0.9,2.1-0.9h5 c0.9,0,1.7,0.1,2.3,0.2c0.6,0.2,1.2,0.4,1.7,0.8c0.5,0.4,0.9,0.9,1.2,1.5c0.3,0.6,0.6,1.4,0.8,2.3l8.2,24.8h0.1l8.5-24.8 c0.3-0.9,0.5-1.7,0.8-2.3c0.3-0.6,0.7-1.1,1.1-1.5c0.4-0.4,0.9-0.7,1.4-0.8c0.5-0.2,1.2-0.2,1.9-0.2h5.2c0.5,0,1,0.1,1.4,0.2 c0.4,0.2,0.7,0.4,0.9,0.7c0.2,0.3,0.4,0.6,0.6,1.1c0.1,0.4,0.2,0.9,0.2,1.4V106.5z"></path> <path d="M200.6,68.1c0,1.6-0.3,2.8-0.9,3.4c-0.6,0.6-1.7,0.9-3.4,0.9c-1.7,0-2.8-0.3-3.4-0.9c-0.6-0.6-0.9-1.7-0.9-3.3 c0-1.6,0.3-2.8,0.9-3.4c0.6-0.6,1.7-1,3.4-1c1.6,0,2.8,0.3,3.3,0.9C200.3,65.4,200.6,66.5,200.6,68.1z M200,106.6 c0,0.2-0.1,0.4-0.2,0.6c-0.1,0.2-0.3,0.3-0.6,0.4c-0.3,0.1-0.7,0.2-1.1,0.2c-0.5,0.1-1.1,0.1-1.8,0.1c-0.7,0-1.3,0-1.8-0.1 c-0.5-0.1-0.8-0.1-1.1-0.2c-0.3-0.1-0.5-0.2-0.6-0.4c-0.1-0.2-0.2-0.4-0.2-0.6V77.9c0-0.2,0.1-0.4,0.2-0.6 c0.1-0.2,0.3-0.3,0.6-0.4c0.3-0.1,0.7-0.2,1.1-0.3c0.5-0.1,1.1-0.1,1.8-0.1c0.7,0,1.3,0,1.8,0.1c0.5,0.1,0.8,0.2,1.1,0.3 c0.3,0.1,0.5,0.3,0.6,0.4c0.1,0.2,0.2,0.3,0.2,0.6V106.6z"></path> <path d="M232.2,106.6c0,0.2,0,0.4-0.1,0.6c-0.1,0.2-0.3,0.3-0.5,0.4c-0.2,0.1-0.6,0.2-1,0.2c-0.4,0-0.9,0.1-1.5,0.1 c-0.6,0-1.1,0-1.5-0.1c-0.4,0-0.7-0.1-1-0.2c-0.2-0.1-0.4-0.2-0.5-0.4c-0.1-0.2-0.2-0.4-0.2-0.6v-3.2c-1.3,1.6-2.8,2.8-4.2,3.7 c-1.5,0.9-3.1,1.3-4.9,1.3c-2,0-3.7-0.4-5.1-1.3c-1.4-0.9-2.5-2-3.4-3.4c-0.9-1.4-1.5-3.1-1.9-5c-0.4-1.9-0.6-3.9-0.6-6.1 c0-2.6,0.2-4.9,0.7-6.9c0.5-2,1.2-3.8,2.2-5.2c1-1.4,2.2-2.5,3.6-3.3c1.4-0.8,3.1-1.2,4.9-1.2c1.5,0,2.8,0.3,4,1 c1.2,0.7,2.4,1.6,3.5,2.9V64.3c0-0.2,0.1-0.4,0.2-0.6c0.1-0.2,0.3-0.3,0.6-0.4c0.3-0.1,0.7-0.2,1.1-0.3c0.5-0.1,1.1-0.1,1.8-0.1 c0.7,0,1.3,0,1.8,0.1c0.5,0.1,0.8,0.2,1.1,0.3c0.3,0.1,0.5,0.3,0.6,0.4c0.1,0.2,0.2,0.4,0.2,0.6V106.6z M224.8,87.4 c-1.1-1.5-2.1-2.6-3-3.4c-1-0.8-2-1.2-3-1.2c-1,0-1.8,0.3-2.5,0.8c-0.7,0.5-1.2,1.2-1.7,2.1c-0.4,0.9-0.7,1.9-0.9,3 c-0.2,1.1-0.3,2.2-0.3,3.3c0,1.2,0.1,2.4,0.3,3.5c0.2,1.1,0.5,2.2,0.9,3c0.4,0.9,0.9,1.6,1.6,2.1c0.7,0.5,1.5,0.8,2.5,0.8 c0.5,0,1-0.1,1.5-0.2c0.5-0.2,1-0.4,1.5-0.8c0.5-0.4,1-0.8,1.5-1.4c0.5-0.6,1.1-1.3,1.7-2.2V87.4z"></path> <path d="M255.1,103.7c0,0.9-0.1,1.7-0.2,2.2c-0.1,0.5-0.2,0.9-0.4,1.1c-0.2,0.2-0.4,0.4-0.8,0.5c-0.3,0.2-0.7,0.3-1.2,0.4 c-0.5,0.1-1,0.2-1.5,0.3c-0.5,0.1-1.1,0.1-1.6,0.1c-1.5,0-2.7-0.2-3.8-0.6c-1.1-0.4-2-1-2.7-1.9c-0.7-0.8-1.2-1.9-1.6-3.2 c-0.3-1.3-0.5-2.8-0.5-4.6V83.3h-3.1c-0.4,0-0.7-0.2-0.9-0.8c-0.2-0.5-0.3-1.3-0.3-2.5c0-0.6,0-1.1,0.1-1.6c0-0.4,0.1-0.8,0.2-1 c0.1-0.2,0.2-0.4,0.4-0.5c0.1-0.1,0.3-0.2,0.5-0.2h3.1v-6.4c0-0.2,0.1-0.4,0.2-0.6c0.1-0.2,0.3-0.3,0.6-0.4 c0.3-0.1,0.7-0.2,1.1-0.3c0.5-0.1,1.1-0.1,1.8-0.1c0.7,0,1.3,0,1.8,0.1c0.5,0.1,0.9,0.1,1.1,0.3c0.3,0.1,0.5,0.3,0.6,0.4 c0.1,0.2,0.2,0.4,0.2,0.6v6.4h5.7c0.2,0,0.4,0.1,0.5,0.2c0.1,0.1,0.3,0.3,0.4,0.5c0.1,0.2,0.2,0.6,0.2,1c0,0.4,0.1,1,0.1,1.6 c0,1.2-0.1,2-0.3,2.5c-0.2,0.5-0.5,0.8-0.9,0.8h-5.7v13.5c0,1.6,0.2,2.7,0.7,3.5c0.5,0.8,1.2,1.2,2.4,1.2c0.4,0,0.7,0,1.1-0.1 c0.3-0.1,0.6-0.2,0.8-0.3c0.2-0.1,0.5-0.2,0.6-0.3c0.2-0.1,0.3-0.1,0.5-0.1c0.1,0,0.2,0,0.3,0.1c0.1,0.1,0.2,0.2,0.2,0.5 c0.1,0.2,0.1,0.5,0.2,0.9C255.1,102.6,255.1,103.1,255.1,103.7z"></path> <path d="M282.2,106.5c0,0.2-0.1,0.4-0.2,0.6c-0.1,0.2-0.3,0.3-0.6,0.4c-0.3,0.1-0.7,0.2-1.2,0.3c-0.5,0.1-1.1,0.1-1.9,0.1 c-0.7,0-1.4,0-1.9-0.1c-0.5-0.1-0.9-0.2-1.2-0.3c-0.3-0.1-0.5-0.2-0.6-0.4c-0.1-0.2-0.2-0.4-0.2-0.6V67.1c0-0.2,0.1-0.4,0.2-0.6 c0.1-0.2,0.3-0.3,0.6-0.4c0.3-0.1,0.7-0.2,1.2-0.3c0.5-0.1,1.1-0.1,1.8-0.1c0.8,0,1.4,0,1.9,0.1c0.5,0.1,0.9,0.2,1.2,0.3 c0.3,0.1,0.5,0.2,0.6,0.4c0.1,0.2,0.2,0.4,0.2,0.6V106.5z"></path> <path d="M318.2,106.4c0,0.2-0.1,0.4-0.2,0.6c-0.1,0.2-0.3,0.3-0.6,0.5c-0.3,0.1-0.7,0.2-1.2,0.3c-0.5,0.1-1.2,0.1-2,0.1 c-1.3,0-2.2-0.1-2.7-0.2c-0.6-0.1-1-0.3-1.2-0.5c-0.2-0.2-0.4-0.5-0.6-0.8l-11.5-19.8v19.8c0,0.2-0.1,0.4-0.2,0.6 c-0.1,0.2-0.3,0.3-0.6,0.4c-0.3,0.1-0.7,0.2-1.2,0.3c-0.5,0.1-1.1,0.1-1.9,0.1c-0.7,0-1.4,0-1.9-0.1c-0.5-0.1-0.9-0.2-1.2-0.3 c-0.3-0.1-0.5-0.3-0.6-0.4c-0.1-0.2-0.2-0.4-0.2-0.6V67.1c0-0.2,0.1-0.4,0.2-0.6c0.1-0.2,0.3-0.3,0.6-0.4 c0.3-0.1,0.7-0.2,1.2-0.3c0.5-0.1,1.1-0.1,1.9-0.1c0.8,0,1.4,0,1.9,0.1c0.5,0.1,0.9,0.2,1.2,0.3c0.3,0.1,0.5,0.2,0.6,0.4 c0.1,0.2,0.2,0.4,0.2,0.6v17.8l11.1-17.7c0.1-0.3,0.3-0.5,0.5-0.7c0.2-0.2,0.4-0.3,0.8-0.4c0.3-0.1,0.7-0.2,1.2-0.2 c0.5,0,1.1-0.1,1.9-0.1c0.8,0,1.4,0,1.9,0.1c0.5,0.1,0.9,0.2,1.2,0.3c0.3,0.1,0.5,0.3,0.6,0.4c0.1,0.2,0.2,0.4,0.2,0.6 c0,0.4-0.1,0.7-0.3,1.1c-0.2,0.4-0.5,1-1,1.8l-10.4,15l11.3,18.9c0.4,0.9,0.7,1.5,0.8,1.8C318.1,106,318.2,106.2,318.2,106.4z"></path> <path d="M345.3,95.2c0,2.2-0.4,4.1-1.1,5.8c-0.7,1.7-1.7,3-3,4.1c-1.3,1.1-2.8,1.9-4.5,2.5c-1.7,0.6-3.5,0.8-5.5,0.8 c-1.3,0-2.5-0.1-3.7-0.4c-1.1-0.2-2.1-0.5-3-0.9c-0.9-0.3-1.6-0.7-2.2-1c-0.6-0.4-1-0.7-1.2-1c-0.3-0.3-0.4-0.7-0.5-1.2 c-0.1-0.5-0.2-1.3-0.2-2.3c0-0.7,0-1.2,0.1-1.7c0-0.5,0.1-0.8,0.2-1.1c0.1-0.3,0.2-0.5,0.4-0.6c0.1-0.1,0.3-0.2,0.5-0.2 c0.3,0,0.7,0.2,1.2,0.5c0.5,0.4,1.1,0.7,1.9,1.2c0.8,0.4,1.7,0.8,2.8,1.2c1.1,0.4,2.3,0.5,3.8,0.5c0.9,0,1.8-0.1,2.5-0.4 c0.7-0.2,1.4-0.6,1.9-1c0.5-0.5,0.9-1,1.2-1.7c0.3-0.7,0.4-1.4,0.4-2.2c0-0.9-0.2-1.8-0.7-2.4c-0.5-0.7-1.1-1.3-1.8-1.8 c-0.8-0.5-1.6-1-2.6-1.5c-1-0.5-1.9-0.9-3-1.5c-1-0.5-2-1.1-3-1.8c-1-0.7-1.8-1.4-2.6-2.4c-0.8-0.9-1.4-2-1.8-3.2 c-0.5-1.2-0.7-2.7-0.7-4.5c0-2,0.3-3.8,1-5.3c0.7-1.5,1.6-2.8,2.7-3.8c1.1-1,2.5-1.7,4-2.2c1.6-0.5,3.2-0.7,4.9-0.7 c0.9,0,1.8,0.1,2.7,0.2c0.9,0.2,1.7,0.4,2.5,0.6c0.8,0.3,1.5,0.5,2.1,0.9c0.6,0.3,1,0.6,1.2,0.8c0.2,0.2,0.3,0.4,0.4,0.5 c0.1,0.2,0.1,0.4,0.2,0.6c0,0.2,0.1,0.6,0.1,0.9c0,0.4,0,0.8,0,1.4c0,0.6,0,1.1,0,1.6c0,0.4-0.1,0.8-0.2,1.1 c-0.1,0.3-0.2,0.5-0.3,0.6c-0.1,0.1-0.3,0.2-0.5,0.2c-0.2,0-0.6-0.2-1-0.5c-0.5-0.3-1-0.6-1.7-1c-0.7-0.4-1.5-0.7-2.4-1 c-0.9-0.3-1.9-0.4-3-0.4c-0.8,0-1.6,0.1-2.2,0.3c-0.6,0.2-1.1,0.5-1.6,0.9c-0.4,0.4-0.7,0.9-0.9,1.4c-0.2,0.6-0.3,1.2-0.3,1.8 c0,0.9,0.2,1.7,0.7,2.4c0.5,0.7,1.1,1.3,1.8,1.8c0.8,0.5,1.6,1,2.6,1.5c1,0.5,2,1,3,1.5c1,0.5,2,1.1,3,1.8 c1,0.7,1.8,1.4,2.6,2.4c0.8,0.9,1.4,2,1.8,3.2C345.1,92,345.3,93.5,345.3,95.2z"></path> </g> </g> </g> <g> <path class="st0" d="M111,8.9l0-8.9H10.1l0,8.9l-10,0c0,0,0.6,44.3,3,58.4l0,0.1c2.3,12.9,5.6,26.4,13.7,38 c4.9,7.4,12.2,15.3,18.5,20.2c12.7,9.9,25,16.2,25,16.2s16.6-8.2,25.6-15.7c5.3-4.4,13.7-13.3,18.5-20.7 c8.1-11.5,11.3-25.1,13.7-38l0-0.1c2.3-14.1,3-58.4,3-58.4L111,8.9z"></path> <g> <g> <path class="st1" d="M72.5,19.1c-1.2,4.4-2.9,8.4-5.2,11.9l0,0c-2.7,4.1-7.6,10.8-7.6,18.7c0,7.3,4.5,15.7,11.2,23.8 c2.7,3,13.7,12.1,13.7,25.2c0,0.4-5,5.7-4.9,5.7C76.7,100,64,83.5,64,83.5c-2.9-3.9-10.9-13-10.9-24.3c0-2.7,0.6-5,1.4-7.9 c1.2-3.8,1.8-7.6,1.8-11.2c0-1.3-0.1-2.6-0.4-3.7l-0.2-0.7l-0.2,0.7c-1.7,5-8.1,15.5-10.5,19.1c-2.1,3-5.2,10.1-5.2,18.5 c0,1.9,0.1,4,0.6,6c2.2,9.9,6.9,15.9,15.6,21.7c3.3,2,9.8,5.8,14.1,9.8c-4.3,3.2-8.5,5.8-9.5,6.5c-17.2-11-26.1-23.4-26.2-23.5 c-6.3-8.8-9.1-18.7-11.2-30.2c-1.6-9.8-2.5-20.7-2.7-35c0.4,0,10.2,0,10.2,0s0.1-9.7,0.1-10.1C31.2,19.1,71.9,19.1,72.5,19.1z"></path> <path class="st1" d="M84.4,114.8c0.3-1,0.7-13.3,0.7-13.3l-4.3,4.8C80.8,106.3,84.1,114.3,84.4,114.8z"></path> <path class="st1" d="M20.1,8.8c0,0,53.4,0,53.8,0c0,2.7-0.3,5.4-0.9,8.1c-0.4,0-44.5,0-44.5,0s0,9.6,0,10.1 c-0.4,0-10.3,0-10.3,0l0,2c0.2,14.6,1.3,26.5,2.8,35.9C22.5,74.4,25.8,87,32.4,96c0.4,0.5,8.8,12.7,26.6,23.9l1.5,0.9 c0,0,5.7-3.4,11.3-7.4c2.5,3.2,4,5,4.9,8.2c-8,5.1-16.2,9.3-16.4,9.5c-14.1-8.5-28.3-20-35.3-30.7C18,90.3,15.1,77.9,12.9,66 c-2.2-13.4-2.7-26.8-2.8-37l0-10.4l10,0L20.1,8.8z"></path> <path class="st1" d="M101.1,8.8v10l10,0L110.9,30c0,1.8-0.2,14.4-1,23.9c-0.7,8.3-3.7,22.8-4.9,26.6c-0.3-7.2-0.4-16.9-3.2-23.6 c0.7-4.7,0.3-29.2,0.3-29.2l-9.7-0.1l0-10.6c0,0-8,0-8.3,0c-1.7-3-2.7-5.8-5.2-8.1C80,8.8,101.1,8.8,101.1,8.8z"></path> <path class="st1" d="M98.9,78.4c0.9,3.1,1.4,6.2,1.4,8.9c0,5.1-2.1,10.8-5.2,15.3c0.1-0.6,0.1-1.2,0.1-1.9 c0-2.8-0.4-6.1-1.3-9.8C95.7,87.5,97.6,82.4,98.9,78.4z"></path> <path class="st1" d="M90.3,19.1c0,0.4,0,10.6,0,10.6l9.3,0.1l0.1,22.7l-4.2-11.9c-1.8,2.7-4.8,8.5-4.8,15.6 c0,3.6,0.8,7.5,2.8,11.6c1.6,3.2,2.8,4.9,3.7,7.3c-1.1,4-2.6,8.7-4.3,12.3c-1.3-4.5-2.5-7.6-4.4-10.3c-1.9-2.8-5-8.4-4.9-17 c0.1-5.2,2.3-10.6,3.3-14.7c1.2-4.8,1.7-8,1.7-12.3c0-4.8-1.1-8.9-3.5-14C85.9,19.1,90,19.1,90.3,19.1z"></path> </g> <rect x="10" y="8.9" class="st1" width="7.9" height="8"></rect> <rect x="103.1" y="8.9" class="st1" width="7.9" height="8"></rect> </g> </g> </g> </svg> 