<?xml version="1.0" encoding="UTF-8"?>
<svg id="Layer_1" xmlns="http://www.w3.org/2000/svg" version="1.1" viewBox="0 0 151 168">
  <!-- Generator: Adobe Illustrator 29.1.0, SVG Export Plug-In . SVG Version: 2.1.0 Build 142)  -->
  <defs>
    <style>
      .st0 {
        fill: #dc0814;
      }

      .st1 {
        fill: #c6c6c6;
      }
    </style>
  </defs>
  <path class="st1" d="M127.51,23.54l-.04-8.87H26.53l-.04,8.87h-10.04s.64,44.28,2.98,58.36l.02.13c2.32,12.91,5.59,26.43,13.65,37.96,4.89,7.36,12.25,15.26,18.54,20.17,12.67,9.9,25.05,16.17,25.05,16.17,0,0,16.58-8.18,25.65-15.68,5.28-4.36,13.65-13.29,18.54-20.65,8.07-11.53,11.33-25.06,13.65-37.96l.02-.13c2.34-14.08,2.98-58.37,2.98-58.37h-10.04Z"/>
  <g>
    <g>
      <path class="st0" d="M88.99,33.82c-1.17,4.41-2.92,8.44-5.23,11.93h0c-2.71,4.05-7.6,10.78-7.6,18.68,0,7.33,4.52,15.67,11.24,23.83,2.73,3.04,13.71,12.08,13.71,25.17,0,.43-5.03,5.65-4.92,5.67-2.98-4.44-15.69-20.89-15.69-20.89-2.92-3.89-10.9-13-10.9-24.32,0-2.71.57-4.95,1.35-7.88,1.18-3.85,1.82-7.6,1.82-11.18,0-1.33-.12-2.59-.4-3.72l-.19-.75-.24.73c-1.65,4.95-8.11,15.52-10.53,19.08-2.05,3.03-5.22,10.13-5.22,18.46,0,1.94.11,3.96.57,5.99,2.24,9.87,6.93,15.91,15.59,21.73,3.31,2.01,9.81,5.78,14.11,9.84-4.29,3.2-8.46,5.81-9.52,6.47-17.2-10.96-26.08-23.36-26.16-23.48-6.28-8.81-9.07-18.7-11.22-30.21-1.64-9.84-2.46-20.65-2.68-34.99h10.24s.07-9.73.07-10.15h41.79Z"/>
      <path class="st0" d="M100.86,129.51c.26-1,.7-13.33.7-13.33l-4.26,4.84s3.28,7.98,3.56,8.49Z"/>
      <path class="st0" d="M36.58,23.47s53.35.04,53.82.04c-.03,2.68-.33,5.42-.9,8.15-.38,0-44.48-.01-44.48-.01,0,0-.02,9.63-.03,10.06-.42,0-10.27-.04-10.27-.04l-.02,1.98c.2,14.64,1.29,26.46,2.76,35.95,1.47,9.49,4.77,22.09,11.44,31.07.37.5,8.79,12.72,26.58,23.9l1.52.94s5.69-3.44,11.31-7.42c2.53,3.16,3.99,5.01,4.93,8.17-7.96,5.13-16.18,9.35-16.39,9.49-14.13-8.52-28.33-19.98-35.28-30.72-7.07-10.06-10.02-22.44-12.16-34.31-2.23-13.43-2.69-26.82-2.83-36.98v-10.36s10.03.01,10.03.01v-9.92Z"/>
      <path class="st0" d="M117.58,23.51v10l9.98.03-.15,11.11c-.04,1.8-.22,14.41-1.01,23.87-.7,8.33-3.75,22.78-4.86,26.65-.28-7.22-.43-16.94-3.21-23.57.7-4.72.34-29.22.34-29.22l-9.69-.15v-10.57s-8.03,0-8.26,0c-1.67-3.04-2.68-5.75-5.18-8.15h22.05Z"/>
      <path class="st0" d="M115.35,93.06c.9,3.06,1.38,6.16,1.38,8.93,0,5.11-2.07,10.79-5.21,15.29.05-.6.12-1.17.12-1.86,0-2.76-.43-6.14-1.25-9.81,1.75-3.47,3.72-8.49,4.97-12.55Z"/>
      <path class="st0" d="M106.8,33.82c0,.42.03,10.58.03,10.58l9.34.09.1,22.71-4.22-11.88c-1.77,2.73-4.8,8.47-4.8,15.64,0,3.58.76,7.53,2.81,11.64,1.61,3.21,2.82,4.95,3.72,7.31-1.11,4.03-2.61,8.7-4.25,12.33-1.26-4.46-2.53-7.61-4.37-10.31-1.93-2.83-5.03-8.41-4.89-17,.1-5.23,2.3-10.62,3.35-14.72,1.23-4.79,1.67-7.95,1.67-12.35,0-4.76-1.09-8.86-3.5-14.05h5.02Z"/>
    </g>
    <rect class="st0" x="26.47" y="23.55" width="7.94" height="8"/>
    <rect class="st0" x="119.56" y="23.55" width="7.93" height="8"/>
  </g>
</svg>