<?xml version="1.0" encoding="UTF-8" standalone="no"?>
<svg
   width="275"
   height="65"
   viewBox="80 80 248.68421 116.59375"
   fill="none"
   version="1.1"
   id="svg7"
   sodipodi:docname="TFF logo - med logo - krympet canvas.svg"
   inkscape:version="1.4.3 (0d15f75042, 2025-12-25)"
   xmlns:inkscape="http://www.inkscape.org/namespaces/inkscape"
   xmlns:sodipodi="http://sodipodi.sourceforge.net/DTD/sodipodi-0.dtd"
   xmlns="http://www.w3.org/2000/svg"
   xmlns:svg="http://www.w3.org/2000/svg">
  <defs
     id="defs7" />
  <sodipodi:namedview
     id="namedview7"
     pagecolor="#ffffff"
     bordercolor="#000000"
     borderopacity="0.25"
     inkscape:showpageshadow="2"
     inkscape:pageopacity="0.0"
     inkscape:pagecheckerboard="0"
     inkscape:deskcolor="#d1d1d1"
     inkscape:zoom="2.1881978"
     inkscape:cx="313.5"
     inkscape:cy="80.202988"
     inkscape:window-width="1920"
     inkscape:window-height="1008"
     inkscape:window-x="0"
     inkscape:window-y="0"
     inkscape:window-maximized="1"
     inkscape:current-layer="svg7" />
  <path
     d="m -21.444506,83.376114 v 18.478496 c 0,10.861 8.8049,19.666 19.6659004,19.666 H 16.699394"
     stroke="#181714"
     stroke-width="28.8434"
     id="path1" />
  <path
     d="m -21.444506,135.64561 v 18.478 c 0,10.861 8.8049,19.666 19.6659004,19.666 H 16.699394"
     stroke="#181714"
     stroke-width="28.8434"
     id="path2" />
  <path
     d="m 39.712394,187.91361 v -18.478 c 0,-10.861 8.805,-19.666 19.665997,-19.666 h 18.478"
     stroke="#181714"
     stroke-width="28.8434"
     id="path3" />
  <path
     d="m 39.712394,135.64561 v -18.478 c 0,-10.862 8.805,-19.665996 19.665997,-19.665996 h 18.478"
     stroke="#181714"
     stroke-width="28.8434"
     id="path4" />
  <path
     d="m 100.86439,187.91361 v -18.478 c 0,-10.861 8.805,-19.666 19.666,-19.666 h 18.478"
     stroke="#181714"
     stroke-width="28.8434"
     id="path5" />
  <path
     d="m 100.86439,135.64561 v -18.478 c 0,-10.862 8.805,-19.665996 19.666,-19.665996 h 18.478"
     stroke="#181714"
     stroke-width="28.8434"
     id="path6" />
  <path
     d="m 180.07639,144.04361 v -19.859 h -6.425 v -2.791 h 15.998 v 2.791 h -6.425 v 19.859 z m 11.139,0 v -16.063 h 2.888 v 2.661 c 0.876,-1.914 2.531,-2.985 4.575,-2.985 h 1.071 v 3.245 h -1.979 c -2.726,0 -3.57,0.876 -3.57,3.699 v 9.443 z m 15.856,0.324 c -3.245,0 -5.387,-1.849 -5.387,-4.672 0,-2.466 1.558,-3.862 5.257,-4.705 l 2.434,-0.552 c 2.271,-0.519 2.92,-0.974 2.92,-2.012 0,-1.428 -1.233,-2.239 -3.31,-2.239 -2.239,0 -3.602,1.038 -3.667,3.05 h -2.952 c 0.097,-3.31 2.888,-5.581 6.717,-5.581 3.894,0 6.198,2.012 6.198,5.451 v 10.936 h -2.791 v -2.823 c -0.617,1.817 -2.953,3.147 -5.419,3.147 z m 0.681,-2.531 c 2.726,0 4.608,-1.525 4.608,-3.796 v -3.44 c -0.552,1.071 -1.525,1.59 -2.628,1.882 l -2.077,0.552 c -2.207,0.584 -2.985,1.233 -2.985,2.563 0,1.493 1.038,2.239 3.082,2.239 z m 18.759,-18.691 c -1.363,0 -1.882,0.487 -1.882,1.818 v 3.017 h 3.634 v 2.596 h -3.634 v 13.467 h -2.986 v -13.467 h -3.472 v -2.596 h 3.472 v -3.504 c 0,-2.693 1.428,-3.991 4.381,-3.991 h 2.239 v 2.66 z m 4.596,1.818 v -3.667 h 3.31 v 3.667 z m 0.194,19.08 v -16.063 h 2.986 v 16.063 z m 7.859,0 v -23.364 h 3.018 v 14.311 h 0.13 l 6.782,-7.01 h 3.537 l -7.334,7.399 7.658,8.664 h -3.894 l -6.814,-8.015 h -0.065 v 8.015 z m 16.479,0 v -23.364 h 3.017 v 14.311 h 0.13 l 6.782,-7.01 h 3.537 l -7.333,7.399 7.658,8.664 h -3.894 l -6.815,-8.015 h -0.065 v 8.015 z m 23,-20.898 c -1.363,0 -1.882,0.487 -1.882,1.818 v 3.017 h 3.635 v 2.596 h -3.635 v 13.467 h -2.985 v -13.467 h -3.472 v -2.596 h 3.472 v -3.504 c 0,-2.693 1.428,-3.991 4.381,-3.991 h 2.239 v 2.66 z m 11.638,21.222 c -4.576,0 -7.788,-3.374 -7.788,-8.112 v -0.519 c 0,-4.77 3.212,-8.08 7.788,-8.08 4.575,0 7.755,3.342 7.755,8.08 v 0.519 c 0,4.738 -3.212,8.112 -7.755,8.112 z m 0,-2.66 c 2.823,0 4.705,-2.045 4.705,-5.095 v -1.233 c 0,-3.018 -1.915,-5.062 -4.705,-5.062 -2.823,0 -4.738,2.044 -4.738,5.062 v 1.233 c 0,3.05 1.882,5.095 4.738,5.095 z m 11.691,2.336 v -16.063 h 2.888 v 2.661 c 0.876,-1.914 2.531,-2.985 4.575,-2.985 h 1.071 v 3.245 h -1.979 c -2.726,0 -3.57,0.876 -3.57,3.699 v 9.443 z m 17.765,0.324 c -4.543,0 -7.269,-2.303 -7.269,-6.165 h 2.953 c 0,2.401 1.59,3.732 4.381,3.732 2.369,0 3.732,-0.876 3.732,-2.369 0,-1.331 -1.168,-1.947 -2.823,-2.207 l -2.239,-0.357 c -3.635,-0.584 -5.257,-1.947 -5.257,-4.38 0,-3.018 2.498,-4.965 6.295,-4.965 3.926,0 6.62,2.142 6.685,5.419 h -2.986 c 0,-1.915 -1.428,-3.018 -3.829,-3.018 -2.141,0 -3.375,0.779 -3.375,2.207 0,1.168 0.779,1.752 2.629,2.044 l 2.726,0.422 c 3.439,0.519 5.094,2.012 5.094,4.478 0,3.115 -2.661,5.159 -6.717,5.159 z m 10.592,-19.404 v -3.667 h 3.31 v 3.667 z m 0.195,19.08 v -16.063 h 2.985 v 16.063 z m 7.859,0 v -23.364 h 3.017 v 14.311 h 0.13 l 6.782,-7.01 h 3.537 l -7.333,7.399 7.658,8.664 h -3.894 l -6.815,-8.015 h -0.065 v 8.015 z m 16.478,0 v -16.063 h 2.888 v 2.661 c 0.876,-1.914 2.531,-2.985 4.575,-2.985 h 1.071 v 3.245 h -1.979 c -2.726,0 -3.57,0.876 -3.57,3.699 v 9.443 z m 11.594,-19.08 v -3.667 h 3.309 v 3.667 z m 0.194,19.08 v -16.063 h 2.986 v 16.063 z m 7.859,0 v -16.063 h 2.888 v 2.824 c 1.168,-2.012 3.18,-3.148 5.646,-3.148 3.473,0 5.679,2.174 5.679,5.549 v 10.838 h -2.985 v -9.313 c 0,-2.921 -1.298,-4.413 -3.797,-4.413 -2.791,0 -4.445,1.72 -4.445,4.543 v 9.183 z m 25.7,6.328 c -4.51,0 -7.009,-1.947 -7.366,-5.452 h 3.083 c 0.292,1.98 1.59,2.856 4.283,2.856 2.888,0 4.251,-1.233 4.251,-4.154 v -3.602 c -1.038,2.077 -3.115,3.375 -5.321,3.375 -3.894,0 -6.653,-3.115 -6.653,-7.561 v -0.973 c 0,-4.284 2.726,-7.204 6.75,-7.204 2.271,0 4.186,1.265 5.322,3.472 v -3.148 h 2.888 v 15.511 c 0,4.478 -2.856,6.88 -7.237,6.88 z m -0.194,-9.638 c 2.693,0 4.478,-1.817 4.478,-4.608 v -1.2 c 0,-2.791 -1.785,-4.608 -4.478,-4.608 -2.694,0 -4.478,1.817 -4.478,4.608 v 1.2 c 0,2.791 1.784,4.608 4.478,4.608 z m 18.529,3.634 c -4.542,0 -7.268,-2.303 -7.268,-6.165 h 2.953 c 0,2.401 1.59,3.732 4.38,3.732 2.369,0 3.732,-0.876 3.732,-2.369 0,-1.331 -1.168,-1.947 -2.823,-2.207 l -2.239,-0.357 c -3.634,-0.584 -5.257,-1.947 -5.257,-4.38 0,-3.018 2.499,-4.965 6.295,-4.965 3.927,0 6.62,2.142 6.685,5.419 h -2.985 c 0,-1.915 -1.428,-3.018 -3.829,-3.018 -2.142,0 -3.375,0.779 -3.375,2.207 0,1.168 0.779,1.752 2.628,2.044 l 2.726,0.422 c 3.44,0.519 5.095,2.012 5.095,4.478 0,3.115 -2.661,5.159 -6.718,5.159 z m 9.295,-7.495 v -2.564 h 9.215 v 2.564 z m -245.973,23.273 c -1.363,0 -1.882,0.487 -1.882,1.818 v 3.017 h 3.634 v 2.596 h -3.634 v 13.467 h -2.985 v -13.467 h -3.473 v -2.596 h 3.473 v -3.504 c 0,-2.693 1.427,-3.991 4.38,-3.991 h 2.239 v 2.66 z m 11.637,21.222 c -4.575,0 -7.787,-3.374 -7.787,-8.112 v -0.519 c 0,-4.77 3.212,-8.08 7.787,-8.08 4.576,0 7.756,3.342 7.756,8.08 v 0.519 c 0,4.738 -3.213,8.112 -7.756,8.112 z m 0,-2.66 c 2.824,0 4.706,-2.045 4.706,-5.095 v -1.233 c 0,-3.018 -1.915,-5.062 -4.706,-5.062 -2.823,0 -4.737,2.044 -4.737,5.062 v 1.233 c 0,3.05 1.882,5.095 4.737,5.095 z m 11.692,2.336 v -16.063 h 2.888 v 2.661 c 0.876,-1.914 2.531,-2.985 4.575,-2.985 h 1.071 v 3.245 h -1.979 c -2.726,0 -3.57,0.876 -3.57,3.699 v 9.443 z m 18.318,0.324 c -4.738,0 -7.788,-3.147 -7.788,-8.079 v -0.552 c 0,-4.673 3.213,-8.08 7.626,-8.08 4.932,0 8.047,3.732 7.625,9.118 h -12.103 v 0.357 c 0,2.921 1.784,4.705 4.672,4.705 2.207,0 3.667,-0.941 4.122,-2.693 h 3.147 c -0.519,3.05 -3.569,5.224 -7.301,5.224 z m -4.575,-9.962 h 8.826 v -0.097 c 0,-2.499 -1.752,-4.153 -4.413,-4.153 -2.596,0 -4.413,1.719 -4.413,4.153 z m 15.823,9.638 v -16.063 h 2.888 v 2.824 c 1.168,-2.012 3.18,-3.148 5.646,-3.148 3.472,0 5.678,2.174 5.678,5.549 v 10.838 h -2.985 v -9.313 c 0,-2.921 -1.298,-4.413 -3.796,-4.413 -2.791,0 -4.446,1.72 -4.446,4.543 v 9.183 z m 18.723,-19.08 v -3.667 h 3.31 v 3.667 z m 0.195,19.08 v -16.063 h 2.985 v 16.063 z m 7.859,0 v -16.063 h 2.888 v 2.824 c 1.168,-2.012 3.18,-3.148 5.646,-3.148 3.472,0 5.679,2.174 5.679,5.549 v 10.838 h -2.986 v -9.313 c 0,-2.921 -1.298,-4.413 -3.796,-4.413 -2.791,0 -4.446,1.72 -4.446,4.543 v 9.183 z m 25.7,6.328 c -4.51,0 -7.009,-1.947 -7.366,-5.452 h 3.083 c 0.292,1.98 1.59,2.856 4.283,2.856 2.888,0 4.251,-1.233 4.251,-4.154 v -3.602 c -1.038,2.077 -3.115,3.375 -5.322,3.375 -3.894,0 -6.652,-3.115 -6.652,-7.561 v -0.973 c 0,-4.284 2.726,-7.204 6.75,-7.204 2.271,0 4.186,1.265 5.321,3.472 v -3.148 h 2.888 v 15.511 c 0,4.478 -2.855,6.88 -7.236,6.88 z m -0.195,-9.638 c 2.694,0 4.478,-1.817 4.478,-4.608 v -1.2 c 0,-2.791 -1.784,-4.608 -4.478,-4.608 -2.693,0 -4.478,1.817 -4.478,4.608 v 1.2 c 0,2.791 1.785,4.608 4.478,4.608 z m 19.147,3.634 c -4.738,0 -7.788,-3.147 -7.788,-8.079 v -0.552 c 0,-4.673 3.212,-8.08 7.625,-8.08 4.933,0 8.048,3.732 7.626,9.118 h -12.104 v 0.357 c 0,2.921 1.785,4.705 4.673,4.705 2.207,0 3.667,-0.941 4.121,-2.693 h 3.148 c -0.519,3.05 -3.57,5.224 -7.301,5.224 z m -4.576,-9.962 h 8.827 v -0.097 c 0,-2.499 -1.753,-4.153 -4.414,-4.153 -2.596,0 -4.413,1.719 -4.413,4.153 z m 15.823,9.638 v -16.063 h 2.888 v 2.824 c 1.168,-2.012 3.18,-3.148 5.646,-3.148 3.473,0 5.679,2.174 5.679,5.549 v 10.838 h -2.985 v -9.313 c 0,-2.921 -1.298,-4.413 -3.797,-4.413 -2.79,0 -4.445,1.72 -4.445,4.543 v 9.183 z"
     fill="#181714"
     id="path7" />
</svg>
