<svg width="627" height="287" viewBox="0 0 627 287" fill="none" xmlns="http://www.w3.org/2000/svg">
<path d="M95.7781 91.5735V110.052C95.7781 120.913 104.583 129.718 115.444 129.718H133.922" stroke="#181714" stroke-width="28.8434"/>
<path d="M95.7781 143.843V162.321C95.7781 173.182 104.583 181.987 115.444 181.987H133.922" stroke="#181714" stroke-width="28.8434"/>
<path d="M156.935 196.111V177.633C156.935 166.772 165.74 157.967 176.601 157.967H195.079" stroke="#181714" stroke-width="28.8434"/>
<path d="M156.935 143.843V125.365C156.935 114.503 165.74 105.699 176.601 105.699H195.079" stroke="#181714" stroke-width="28.8434"/>
<path d="M218.087 196.111V177.633C218.087 166.772 226.892 157.967 237.753 157.967H256.231" stroke="#181714" stroke-width="28.8434"/>
<path d="M218.087 143.843V125.365C218.087 114.503 226.892 105.699 237.753 105.699H256.231" stroke="#181714" stroke-width="28.8434"/>
<path d="M297.299 152.241V132.382H290.874V129.591H306.872V132.382H300.447V152.241H297.299ZM308.438 152.241V136.178H311.326V138.839C312.202 136.925 313.857 135.854 315.901 135.854H316.972V139.099H314.993C312.267 139.099 311.423 139.975 311.423 142.798V152.241H308.438ZM324.294 152.565C321.049 152.565 318.907 150.716 318.907 147.893C318.907 145.427 320.465 144.031 324.164 143.188L326.598 142.636C328.869 142.117 329.518 141.662 329.518 140.624C329.518 139.196 328.285 138.385 326.208 138.385C323.969 138.385 322.606 139.423 322.541 141.435H319.589C319.686 138.125 322.477 135.854 326.306 135.854C330.2 135.854 332.504 137.866 332.504 141.305V152.241H329.713V149.418C329.096 151.235 326.76 152.565 324.294 152.565ZM324.975 150.034C327.701 150.034 329.583 148.509 329.583 146.238V142.798C329.031 143.869 328.058 144.388 326.955 144.68L324.878 145.232C322.671 145.816 321.893 146.465 321.893 147.795C321.893 149.288 322.931 150.034 324.975 150.034ZM343.734 131.343C342.371 131.343 341.852 131.83 341.852 133.161V136.178H345.486V138.774H341.852V152.241H338.866V138.774H335.394V136.178H338.866V132.674C338.866 129.981 340.294 128.683 343.247 128.683H345.486V131.343H343.734ZM348.33 133.161V129.494H351.64V133.161H348.33ZM348.524 152.241V136.178H351.51V152.241H348.524ZM356.383 152.241V128.877H359.401V143.188H359.531L366.313 136.178H369.85L362.516 143.577L370.174 152.241H366.28L359.466 144.226H359.401V152.241H356.383ZM372.862 152.241V128.877H375.879V143.188H376.009L382.791 136.178H386.328L378.995 143.577L386.653 152.241H382.759L375.944 144.226H375.879V152.241H372.862ZM395.862 131.343C394.499 131.343 393.98 131.83 393.98 133.161V136.178H397.615V138.774H393.98V152.241H390.995V138.774H387.523V136.178H390.995V132.674C390.995 129.981 392.423 128.683 395.376 128.683H397.615V131.343H395.862ZM407.5 152.565C402.924 152.565 399.712 149.191 399.712 144.453V143.934C399.712 139.164 402.924 135.854 407.5 135.854C412.075 135.854 415.255 139.196 415.255 143.934V144.453C415.255 149.191 412.043 152.565 407.5 152.565ZM407.5 149.905C410.323 149.905 412.205 147.86 412.205 144.81V143.577C412.205 140.559 410.29 138.515 407.5 138.515C404.677 138.515 402.762 140.559 402.762 143.577V144.81C402.762 147.86 404.644 149.905 407.5 149.905ZM419.191 152.241V136.178H422.079V138.839C422.955 136.925 424.61 135.854 426.654 135.854H427.725V139.099H425.746C423.02 139.099 422.176 139.975 422.176 142.798V152.241H419.191ZM436.956 152.565C432.413 152.565 429.687 150.262 429.687 146.4H432.64C432.64 148.801 434.23 150.132 437.021 150.132C439.39 150.132 440.753 149.256 440.753 147.763C440.753 146.432 439.585 145.816 437.93 145.556L435.691 145.199C432.056 144.615 430.434 143.252 430.434 140.819C430.434 137.801 432.932 135.854 436.729 135.854C440.655 135.854 443.349 137.996 443.414 141.273H440.428C440.428 139.358 439 138.255 436.599 138.255C434.458 138.255 433.224 139.034 433.224 140.462C433.224 141.63 434.003 142.214 435.853 142.506L438.579 142.928C442.018 143.447 443.673 144.94 443.673 147.406C443.673 150.521 441.012 152.565 436.956 152.565ZM447.548 133.161V129.494H450.858V133.161H447.548ZM447.743 152.241V136.178H450.728V152.241H447.743ZM455.602 152.241V128.877H458.619V143.188H458.749L465.531 136.178H469.068L461.735 143.577L469.393 152.241H465.499L458.684 144.226H458.619V152.241H455.602ZM472.08 152.241V136.178H474.968V138.839C475.844 136.925 477.499 135.854 479.543 135.854H480.614V139.099H478.635C475.909 139.099 475.065 139.975 475.065 142.798V152.241H472.08ZM483.674 133.161V129.494H486.983V133.161H483.674ZM483.868 152.241V136.178H486.854V152.241H483.868ZM491.727 152.241V136.178H494.615V139.002C495.783 136.99 497.795 135.854 500.261 135.854C503.734 135.854 505.94 138.028 505.94 141.403V152.241H502.955V142.928C502.955 140.007 501.657 138.515 499.158 138.515C496.367 138.515 494.713 140.235 494.713 143.058V152.241H491.727ZM517.427 158.569C512.917 158.569 510.418 156.622 510.061 153.117H513.144C513.436 155.097 514.734 155.973 517.427 155.973C520.315 155.973 521.678 154.74 521.678 151.819V148.217C520.64 150.294 518.563 151.592 516.357 151.592C512.463 151.592 509.704 148.477 509.704 144.031V143.058C509.704 138.774 512.43 135.854 516.454 135.854C518.725 135.854 520.64 137.119 521.776 139.326V136.178H524.664V151.689C524.664 156.167 521.808 158.569 517.427 158.569ZM517.233 148.931C519.926 148.931 521.711 147.114 521.711 144.323V143.123C521.711 140.332 519.926 138.515 517.233 138.515C514.539 138.515 512.755 140.332 512.755 143.123V144.323C512.755 147.114 514.539 148.931 517.233 148.931ZM535.762 152.565C531.22 152.565 528.494 150.262 528.494 146.4H531.447C531.447 148.801 533.037 150.132 535.827 150.132C538.196 150.132 539.559 149.256 539.559 147.763C539.559 146.432 538.391 145.816 536.736 145.556L534.497 145.199C530.863 144.615 529.24 143.252 529.24 140.819C529.24 137.801 531.739 135.854 535.535 135.854C539.462 135.854 542.155 137.996 542.22 141.273H539.235C539.235 139.358 537.807 138.255 535.406 138.255C533.264 138.255 532.031 139.034 532.031 140.462C532.031 141.63 532.81 142.214 534.659 142.506L537.385 142.928C540.825 143.447 542.48 144.94 542.48 147.406C542.48 150.521 539.819 152.565 535.762 152.565ZM545.057 145.07V142.506H554.272V145.07H545.057ZM299.084 168.343C297.721 168.343 297.202 168.83 297.202 170.161V173.178H300.836V175.774H297.202V189.241H294.217V175.774H290.744V173.178H294.217V169.674C294.217 166.981 295.644 165.683 298.597 165.683H300.836V168.343H299.084ZM310.721 189.565C306.146 189.565 302.934 186.191 302.934 181.453V180.934C302.934 176.164 306.146 172.854 310.721 172.854C315.297 172.854 318.477 176.196 318.477 180.934V181.453C318.477 186.191 315.264 189.565 310.721 189.565ZM310.721 186.905C313.545 186.905 315.427 184.86 315.427 181.81V180.577C315.427 177.559 313.512 175.515 310.721 175.515C307.898 175.515 305.984 177.559 305.984 180.577V181.81C305.984 184.86 307.866 186.905 310.721 186.905ZM322.413 189.241V173.178H325.301V175.839C326.177 173.925 327.832 172.854 329.876 172.854H330.947V176.099H328.968C326.242 176.099 325.398 176.975 325.398 179.798V189.241H322.413ZM340.731 189.565C335.993 189.565 332.943 186.418 332.943 181.486V180.934C332.943 176.261 336.156 172.854 340.569 172.854C345.501 172.854 348.616 176.586 348.194 181.972H336.091V182.329C336.091 185.25 337.875 187.034 340.763 187.034C342.97 187.034 344.43 186.093 344.885 184.341H348.032C347.513 187.391 344.463 189.565 340.731 189.565ZM336.156 179.603H344.982V179.506C344.982 177.007 343.23 175.353 340.569 175.353C337.973 175.353 336.156 177.072 336.156 179.506V179.603ZM351.979 189.241V173.178H354.867V176.002C356.035 173.99 358.047 172.854 360.513 172.854C363.985 172.854 366.191 175.028 366.191 178.403V189.241H363.206V179.928C363.206 177.007 361.908 175.515 359.41 175.515C356.619 175.515 354.964 177.235 354.964 180.058V189.241H351.979ZM370.702 170.161V166.494H374.012V170.161H370.702ZM370.897 189.241V173.178H373.882V189.241H370.897ZM378.756 189.241V173.178H381.644V176.002C382.812 173.99 384.824 172.854 387.29 172.854C390.762 172.854 392.969 175.028 392.969 178.403V189.241H389.983V179.928C389.983 177.007 388.685 175.515 386.187 175.515C383.396 175.515 381.741 177.235 381.741 180.058V189.241H378.756ZM404.456 195.569C399.946 195.569 397.447 193.622 397.09 190.117H400.173C400.465 192.097 401.763 192.973 404.456 192.973C407.344 192.973 408.707 191.74 408.707 188.819V185.217C407.669 187.294 405.592 188.592 403.385 188.592C399.491 188.592 396.733 185.477 396.733 181.031V180.058C396.733 175.774 399.459 172.854 403.483 172.854C405.754 172.854 407.669 174.119 408.804 176.326V173.178H411.692V188.689C411.692 193.167 408.837 195.569 404.456 195.569ZM404.261 185.931C406.955 185.931 408.739 184.114 408.739 181.323V180.123C408.739 177.332 406.955 175.515 404.261 175.515C401.568 175.515 399.783 177.332 399.783 180.123V181.323C399.783 184.114 401.568 185.931 404.261 185.931ZM423.408 189.565C418.67 189.565 415.62 186.418 415.62 181.486V180.934C415.62 176.261 418.832 172.854 423.245 172.854C428.178 172.854 431.293 176.586 430.871 181.972H418.767V182.329C418.767 185.25 420.552 187.034 423.44 187.034C425.647 187.034 427.107 186.093 427.561 184.341H430.709C430.19 187.391 427.139 189.565 423.408 189.565ZM418.832 179.603H427.659V179.506C427.659 177.007 425.906 175.353 423.245 175.353C420.649 175.353 418.832 177.072 418.832 179.506V179.603ZM434.655 189.241V173.178H437.543V176.002C438.711 173.99 440.723 172.854 443.189 172.854C446.662 172.854 448.868 175.028 448.868 178.403V189.241H445.883V179.928C445.883 177.007 444.585 175.515 442.086 175.515C439.296 175.515 437.641 177.235 437.641 180.058V189.241H434.655Z" fill="#181714"/>
</svg>
