<svg width="550" height="450" viewBox="0 0 550 450" fill="none" xmlns="http://www.w3.org/2000/svg">
<path fill-rule="evenodd" clip-rule="evenodd" d="M191.285 150.186V176.587C191.285 180.725 194.64 184.08 198.778 184.08H225.18V225.291H198.778C171.88 225.291 150.074 203.486 150.074 176.587V150.186H191.285Z" fill="#181714"/>
<path fill-rule="evenodd" clip-rule="evenodd" d="M191.285 224.867V251.269C191.285 255.407 194.64 258.761 198.778 258.761H225.18V299.973H198.778C171.88 299.973 150.074 278.167 150.074 251.269V224.867H191.285Z" fill="#181714"/>
<path fill-rule="evenodd" clip-rule="evenodd" d="M278.666 299.548V273.147C278.666 269.009 282.021 265.654 286.159 265.654H312.561V224.443H286.159C259.261 224.443 237.455 246.248 237.455 273.147V299.548H278.666Z" fill="#181714"/>
<path fill-rule="evenodd" clip-rule="evenodd" d="M278.666 224.867V198.466C278.666 194.328 282.021 190.973 286.159 190.973H312.561V149.762H286.159C259.261 149.762 237.455 171.567 237.455 198.466V224.867H278.666Z" fill="#181714"/>
<path fill-rule="evenodd" clip-rule="evenodd" d="M366.039 299.548V273.147C366.039 269.009 369.394 265.654 373.532 265.654H399.934V224.443H373.532C346.634 224.443 324.828 246.248 324.828 273.147V299.548H366.039Z" fill="#181714"/>
<path fill-rule="evenodd" clip-rule="evenodd" d="M366.039 224.867V198.466C366.039 194.328 369.394 190.973 373.532 190.973H399.934V149.762H373.532C346.634 149.762 324.828 171.567 324.828 198.466V224.867H366.039Z" fill="#181714"/>
</svg>
