<svg width="1227" height="252" viewBox="0 0 1227 252" fill="none" xmlns="http://www.w3.org/2000/svg">
<path d="M539.2 73.5436H525.2C523 80.0436 517.4 83.6435 510 83.6435C499 83.6435 492 75.9436 491 64.6436H539.4V61.2435C539 40.3435 526.9 27.5435 508.6 27.5435C490.3 27.5435 476.6 40.6436 476.6 61.9436C476.6 83.2436 490.1 95.7435 509.8 95.7435C529.5 95.7435 535.8 87.3436 539.1 73.4436L539.2 73.5436ZM508.7 39.6436C517.1 39.6436 522.8 45.2436 524.6 54.4436H491.6C493.8 45.2436 500.1 39.6436 508.6 39.6436H508.7ZM449.5 174.344L447.7 160.144H436.1V224.644H450.5V189.344L478 167.844L469.6 158.244L449.5 174.444V174.344ZM447 58.6436L474.5 37.1436L466.1 27.5435L446 43.7435L444.2 29.5435H432.6V94.0436H447V58.7435V58.6436ZM755.8 58.6436L783.3 37.1436L774.9 27.5435L754.8 43.7435L753 29.5435H741.4V94.0436H755.8V58.7435V58.6436ZM866.8 74.2435C866.8 87.0435 874.3 93.9436 888.3 93.9436H896.6V81.7435H889.3C883.9 81.7435 881.1 78.7435 881.1 73.2435V41.6436H897.8V29.4436H881.1V7.44356H866.7V29.4436H855.4V41.6436H866.7V74.2435H866.8ZM936.7 95.7435C951.9 95.7435 962.7 87.3436 966 73.4436H952C949.8 79.9436 944.2 83.5436 936.8 83.5436C925.8 83.5436 918.8 75.8435 917.8 64.5435H966.2V61.1436C965.8 40.2436 953.7 27.4436 935.4 27.4436C917.1 27.4436 903.4 40.5436 903.4 61.8436C903.4 83.1436 916.9 95.6435 936.6 95.6435L936.7 95.7435ZM935.5 39.6436C943.9 39.6436 949.6 45.2436 951.4 54.4436H918.4C920.6 45.2436 926.9 39.6436 935.4 39.6436H935.5ZM392 158.144C373.1 158.144 358.9 170.644 358.9 191.744C358.9 212.844 371.1 226.444 392 226.444C412.9 226.444 425 213.544 425 191.744C425 169.944 412.8 158.144 392 158.144ZM392 214.144C381.4 214.144 373.5 205.844 373.5 191.744C373.5 177.644 380.8 170.444 392 170.444C403.2 170.444 410.4 178.944 410.4 191.744C410.4 204.544 403.6 214.144 392 214.144ZM547.7 158.144C538.6 158.144 530.9 162.144 526.3 168.444V133.244H511.9V224.544H523.5L524.8 213.144C528.8 221.344 537.3 226.444 547.6 226.444C564.8 226.444 576.8 212.344 576.8 192.044C576.8 171.744 564.8 158.244 547.7 158.244V158.144ZM544.4 214.244C533.8 214.244 526.3 204.844 526.3 191.644C526.3 178.444 533.8 170.344 544.4 170.344C555 170.344 562 179.244 562 192.044C562 204.844 554.8 214.344 544.4 214.344V214.244ZM323.4 152.144V160.144H312.1V172.344H323.4V224.644H337.8V172.344H356.5V160.144H337.8V153.044C337.8 148.144 340.4 145.544 345 145.544H358V133.344H344C330.6 133.344 323.4 139.944 323.4 152.044V152.144ZM403.7 93.9436H418.1V29.4436H403.7V93.9436ZM391.4 50.8436C391.4 26.0436 373.8 8.74355 348.4 8.74355H317.7V93.9436H348.4C373.7 93.9436 391.4 76.3436 391.4 50.8436ZM332.4 21.9436H349.4C365.2 21.9436 376.3 34.2436 376.3 50.9436C376.3 67.6436 365.2 80.8436 349.4 80.8436H332.4V21.9436ZM410.9 20.8436C416.3 20.8436 420.1 16.7436 420.1 11.4436C420.1 6.14356 416.2 2.14355 410.9 2.14355C405.6 2.14355 401.7 6.14356 401.7 11.4436C401.7 16.7436 405.7 20.8436 410.9 20.8436ZM1043.6 224.644H1058V160.144H1043.6V224.644ZM1014.4 224.644H1028.8V133.344H1014.4V224.644ZM998.6 210.644V181.444C998.6 167.644 989 158.244 971.6 158.244C954.2 158.244 942.8 167.744 941.4 181.344H955.9C956.8 174.644 962.8 170.044 971.4 170.044C980 170.044 984.5 174.144 984.7 180.544C984.7 185.644 977.4 186.044 967.7 187.144C955.2 188.644 940.2 191.744 940.1 206.844C940.1 218.844 949.7 226.044 964.6 226.044C979.5 226.044 982.6 221.944 986.4 214.944C986.4 215.644 986.8 216.544 987 217.144C988.1 222.044 992.1 224.644 998.7 224.644H1005.5V213.444H1002C999.8 213.444 998.8 212.444 998.8 210.644H998.6ZM984.6 200.444C984.6 209.044 977.2 214.644 967.3 214.644C957.4 214.644 954.4 211.344 954.4 205.744C954.4 200.144 961.1 197.844 969.1 196.844C975.9 195.944 982.1 195.144 984.6 191.344V200.344V200.444ZM997.1 7.44356H982.7V29.4436H971.4V41.6436H982.7V74.2435C982.7 87.0435 990.2 93.9436 1004.2 93.9436H1012.5V81.7435H1005.2C999.8 81.7435 997 78.7435 997 73.2435V41.6436H1013.7V29.4436H997V7.44356H997.1ZM1050.8 132.844C1045.6 132.844 1041.6 136.844 1041.6 142.044C1041.6 147.244 1045.6 151.444 1050.8 151.444C1056 151.444 1060 147.344 1060 142.044C1060 136.744 1056.1 132.844 1050.8 132.844ZM1226.8 172.344V160.144H1210.1V138.144H1195.7V160.144H1184.4V172.344H1195.7V204.944C1195.7 217.744 1203.2 224.644 1217.2 224.644H1225.5V212.444H1218.2C1212.8 212.444 1210 209.444 1210 203.944V172.344H1226.8ZM1148.5 158.144C1130.5 158.144 1116.5 171.244 1116.5 192.544C1116.5 213.844 1130 226.344 1149.7 226.344C1169.4 226.344 1175.7 217.944 1179 204.044H1165C1162.8 210.544 1157.2 214.144 1149.8 214.144C1138.8 214.144 1131.8 206.444 1130.8 195.144H1179.2V191.744C1178.8 170.844 1166.7 158.044 1148.4 158.044L1148.5 158.144ZM1131.5 185.244C1133.7 176.044 1140 170.444 1148.5 170.444C1157 170.444 1162.6 176.044 1164.4 185.244H1131.4H1131.5ZM1094.1 138.144H1079.7V160.144H1068.4V172.344H1079.7V204.944C1079.7 217.744 1087.2 224.644 1101.2 224.644H1109.5V212.444H1102.2C1096.8 212.444 1094 209.444 1094 203.944V172.344H1110.7V160.144H1094V138.144H1094.1ZM778 170.144C774 162.944 765.8 158.244 755.7 158.244C738.5 158.244 726.1 171.744 726.1 191.144C726.1 210.544 738.5 223.744 755.8 223.744C773.1 223.744 772.2 219.844 776.4 213.644V222.744C776.4 232.444 770.4 239.344 759 239.344C747.6 239.344 742.9 234.444 742.9 228.344H728.5C728.5 242.244 740.9 250.944 758.9 250.944C776.9 250.944 790.5 239.744 790.5 222.744V160.244H779.1L777.9 170.244H778V170.144ZM758.7 211.644C748.2 211.644 741.1 203.244 741.1 191.044C741.1 178.844 748.3 170.344 758.7 170.344C769.1 170.344 776.5 178.744 776.5 190.944C776.5 203.144 769.2 211.644 758.7 211.644ZM702.5 170.144C698.5 162.944 690.3 158.244 680.2 158.244C663 158.244 650.6 171.744 650.6 191.144C650.6 210.544 663 223.744 680.3 223.744C697.6 223.744 696.7 219.844 700.9 213.644V222.744C700.9 232.444 694.9 239.344 683.5 239.344C672.1 239.344 667.4 234.444 667.4 228.344H653C653 242.244 665.4 250.944 683.4 250.944C701.4 250.944 715 239.744 715 222.744V160.244H703.6L702.4 170.244H702.5V170.144ZM683.1 211.644C672.6 211.644 665.5 203.244 665.5 191.044C665.5 178.844 672.7 170.344 683.1 170.344C693.5 170.344 700.9 178.744 700.9 190.944C700.9 203.144 693.6 211.644 683.1 211.644ZM657.2 81.7435H649.9C644.5 81.7435 641.7 78.7435 641.7 73.2435V41.6436H658.4V29.4436H641.7V7.44356H627.3V29.4436H616V41.6436H627.3V74.2435C627.3 87.0435 634.8 93.9436 648.8 93.9436H657.1V81.7435H657.2ZM697.3 27.5435C678.4 27.5435 664.2 40.0436 664.2 61.1436C664.2 82.2436 676.4 95.8436 697.3 95.8436C718.2 95.8436 730.3 82.9436 730.3 61.1436C730.3 39.3436 718.1 27.5435 697.3 27.5435ZM697.3 83.5436C686.7 83.5436 678.8 75.2436 678.8 61.1436C678.8 47.0436 686.1 39.8436 697.3 39.8436C708.5 39.8436 715.7 48.3436 715.7 61.1436C715.7 73.9436 708.9 83.5436 697.3 83.5436ZM613.7 209.644L595 160.144H579.5L605.1 224.644H607.8L598.7 248.044L612.3 251.244L648.1 160.244H633.1L613.8 209.744L613.7 209.644ZM613.4 93.9436L586.9 52.6436L610.3 29.4436H592.8L565.3 57.4436V2.64355H550.9V93.9436H565.3V74.3436L577 62.6436L596.8 93.9436H613.5H613.4ZM864.8 160.144H847.3L819.8 188.144V133.344H805.4V224.644H819.8V205.044L831.5 193.344L851.3 224.644H868L841.5 183.344L864.9 160.144H864.8ZM832.8 84.2435C832.8 84.9435 833.2 85.8436 833.4 86.4436C834.5 91.3436 838.5 93.9436 845.1 93.9436H851.9V82.7435H848.4C846.2 82.7435 845.2 81.7436 845.2 79.9436V50.7435C845.2 36.9435 835.6 27.5435 818.2 27.5435C800.8 27.5435 789.4 37.0436 788 50.6436H802.5C803.4 43.9436 809.4 39.3436 818 39.3436C826.6 39.3436 831.1 43.4436 831.3 49.8436C831.3 54.9436 824 55.3436 814.3 56.4436C801.8 57.9436 786.8 61.0435 786.7 76.1435C786.7 88.1435 796.3 95.3436 811.2 95.3436C826.1 95.3436 829.2 91.2435 833 84.2435H832.8ZM801.1 75.1435C801.1 68.3435 807.8 67.2435 815.8 66.2435C822.6 65.3435 828.8 64.5435 831.3 60.7435V69.7435C831.3 78.3435 823.9 83.9436 814 83.9436C804.1 83.9436 801.1 80.6436 801.1 75.0436V75.1435ZM902.6 207.744L883.7 160.144H868.1L895 224.644H910L936.9 160.144H921.3L902.6 207.744Z" fill="#003361"/>
<path d="M102.1 46.6438C125.1 37.6438 147.4 36.0438 168.6 41.8438C178.9 44.6438 186.5 48.6438 190.7 51.2438V8.74379C168.1 0.043787 132.4 -6.35621 88.6 10.7438C65.6 19.7438 43.3 21.3438 22.1 15.5438C11.8 12.7438 4.2 8.7438 0 6.1438V48.6438C12.3 53.3438 28.3 57.4438 47.5 57.4438C66.7 57.4438 82.1 54.5438 102.1 46.7438V46.6438ZM95.5 75.7438H95.3L0.0999908 120.544V161.644L95.4 116.844L190.7 161.644V120.544L95.5 75.7438ZM0 224.644H190.6V187.444H0V224.644Z" fill="#003361"/>
</svg>
