<svg width="191" height="225" viewBox="0 0 191 225" fill="none" xmlns="http://www.w3.org/2000/svg">
<path d="M102.1 46.6438C125.1 37.6438 147.4 36.0438 168.6 41.8438C178.9 44.6438 186.5 48.6438 190.7 51.2438V8.74379C168.1 0.043787 132.4 -6.35621 88.6 10.7438C65.6 19.7438 43.3 21.3438 22.1 15.5438C11.8 12.7438 4.2 8.7438 0 6.1438V48.6438C12.3 53.3438 28.3 57.4438 47.5 57.4438C66.7 57.4438 82.1 54.5438 102.1 46.7438V46.6438ZM95.5 75.7438H95.3L0.0999908 120.544V161.644L95.4 116.844L190.7 161.644V120.544L95.5 75.7438ZM0 224.644H190.6V187.444H0V224.644Z" fill="#003361"/>
</svg>
