<svg width="841" height="172" viewBox="0 0 841 172" fill="none" xmlns="http://www.w3.org/2000/svg">
<path d="M163.209 108.713C155.725 108.713 150.078 113.687 150.078 122.023C150.078 130.358 154.918 135.78 163.209 135.78C171.499 135.78 176.294 130.672 176.294 122.023C176.294 113.374 171.454 108.713 163.209 108.713ZM170.513 122.023C170.513 127.131 167.824 130.896 163.254 130.896C158.683 130.896 155.904 127.624 155.904 122.023C155.904 116.421 158.817 113.598 163.254 113.598C167.69 113.598 170.513 116.959 170.513 122.023ZM162.985 66.1849C162.985 56.3259 155.994 49.5142 145.955 49.5142H133.811V83.2589H145.955C155.994 83.2589 162.985 76.0439 162.985 66.1849ZM139.592 54.7126H146.359C152.633 54.7126 157.024 59.5973 157.024 66.1849C157.024 72.7725 152.633 78.0605 146.359 78.0605H139.592V54.7126ZM136.052 106.338V109.52H131.57V114.36H136.052V135.108H141.743V114.36H149.182V109.52H141.743V106.741C141.743 104.814 142.774 103.739 144.611 103.739H149.765V98.8988H144.208C138.92 98.8988 136.052 101.498 136.052 106.338ZM463.056 108.713C455.931 108.713 450.374 113.911 450.374 122.381C450.374 130.179 455.707 135.78 463.549 135.78C471.392 135.78 473.857 132.464 475.156 126.952H469.599C468.748 129.507 466.507 130.941 463.594 130.941C459.247 130.941 456.469 127.893 456.066 123.412H475.246V122.067C475.111 113.777 470.182 108.713 463.056 108.713ZM456.29 119.423C457.141 115.749 459.695 113.553 463.056 113.553C466.417 113.553 468.658 115.794 469.375 119.423H456.29ZM185.033 69.277L195.923 60.7624L192.606 56.9533L184.63 63.3616L183.913 57.7151H179.342V83.2589H185.033V69.277ZM221.601 75.1924H216.044C215.192 77.7468 212.952 79.1808 209.994 79.1808C205.647 79.1808 202.869 76.1335 202.465 71.6522H221.646V70.3077C221.511 62.0172 216.582 56.9533 209.456 56.9533C202.331 56.9533 196.774 62.1517 196.774 70.6214C196.774 78.419 202.107 84.0207 209.949 84.0207C217.792 84.0207 220.256 80.7045 221.556 75.1924H221.601ZM209.501 61.7483C212.817 61.7483 215.103 63.989 215.82 67.6189H202.734C203.586 63.9442 206.14 61.7483 209.501 61.7483ZM186.019 115.166L185.302 109.52H180.731V135.063H186.422V121.082L197.312 112.567L193.996 108.758L186.019 115.166ZM494.067 114.315V109.475H487.48V100.736H481.789V109.475H477.307V114.315H481.789V127.221C481.789 132.285 484.791 135.019 490.348 135.019H493.619V130.179H490.706C488.6 130.179 487.48 128.969 487.48 126.818V114.27H494.067V114.315ZM351.381 75.4613C351.381 80.5252 354.383 83.2589 359.896 83.2589H363.167V78.419H360.254C358.148 78.419 357.027 77.209 357.027 75.058V62.5102H363.615V57.6703H357.027V48.9317H351.336V57.6703H346.855V62.5102H351.336V75.4165L351.381 75.4613ZM379.121 84.0207C385.17 84.0207 389.428 80.7045 390.727 75.1924H385.17C384.319 77.7468 382.078 79.1808 379.121 79.1808C374.774 79.1808 371.995 76.1335 371.592 71.6522H390.772V70.3077C390.638 62.0172 385.708 56.9533 378.583 56.9533C371.457 56.9533 365.901 62.1517 365.901 70.6214C365.901 78.419 371.233 84.0207 379.076 84.0207H379.121ZM378.628 61.7483C381.944 61.7483 384.229 63.989 384.946 67.6189H371.861C372.712 63.9442 375.267 61.7483 378.628 61.7483ZM307.419 69.277L318.309 60.7624L314.992 56.9533L307.016 63.3616L306.299 57.7151H301.728V83.2589H307.419V69.277ZM167.869 83.2589H173.561V57.7151H167.869V83.2589ZM170.693 54.3093C172.799 54.3093 174.367 52.6512 174.367 50.5898C174.367 48.5283 172.799 46.915 170.693 46.915C168.586 46.915 167.018 48.4835 167.018 50.5898C167.018 52.696 168.542 54.3093 170.693 54.3093ZM421.514 135.063H427.206V109.52H421.514V135.063ZM409.908 135.063H415.599V98.8988H409.908V135.063ZM337.937 79.4049C337.982 79.7186 338.071 80.0323 338.161 80.2564C338.609 82.1833 340.178 83.2589 342.777 83.2589H345.466V78.8223H344.076C343.225 78.8223 342.822 78.419 342.822 77.702V66.1401C342.822 60.6728 338.699 56.9085 332.111 56.9085C325.524 56.9085 320.684 60.6728 320.146 66.0953H325.882C326.241 63.4513 328.705 61.6139 332.022 61.6139C335.338 61.6139 337.22 63.272 337.265 65.7816C337.22 67.7982 334.352 67.9326 330.498 68.3808C325.524 68.9633 319.608 70.2181 319.563 76.1783C319.519 80.9286 323.372 83.7966 329.243 83.7966C335.114 83.7966 336.368 82.1385 337.892 79.4049H337.937ZM325.344 75.8198C325.344 73.131 327.988 72.6829 331.17 72.2795C333.859 71.921 336.324 71.6073 337.31 70.1285V73.7136C337.31 77.1194 334.352 79.3601 330.453 79.3601C326.554 79.3601 325.344 78.0605 325.344 75.8646V75.8198ZM350.619 109.52H343.673L332.783 120.633V98.9436H327.092V135.108H332.783V127.355L337.399 122.74L345.242 135.153H351.874L341.343 118.796L350.619 109.564V109.52ZM316.247 113.463C314.679 110.64 311.407 108.758 307.419 108.758C300.607 108.758 295.678 114.18 295.678 121.799C295.678 129.417 300.607 134.705 307.464 134.705C314.32 134.705 313.962 133.181 315.62 130.716V134.346C315.62 138.2 313.245 140.889 308.718 140.889C304.192 140.889 302.355 138.962 302.355 136.542H296.664C296.664 142.054 301.593 145.505 308.718 145.505C315.844 145.505 321.266 141.068 321.266 134.302V109.52H316.74L316.247 113.463ZM308.539 129.91C304.372 129.91 301.548 126.638 301.548 121.754C301.548 116.869 304.416 113.553 308.539 113.553C312.662 113.553 315.575 116.869 315.575 121.709C315.575 126.549 312.662 129.91 308.539 129.91ZM403.051 48.9765H397.36V57.7151H392.878V62.555H397.36V75.4613C397.36 80.5252 400.362 83.2589 405.874 83.2589H409.146V78.419H406.233C404.127 78.419 403.006 77.209 403.006 75.058V62.5102H409.594V57.6703H403.006V48.9317L403.051 48.9765ZM365.587 128.341L358.103 109.475H351.919L362.584 135.019H368.5L379.165 109.475H372.981L365.542 128.341H365.587ZM268.341 78.4638H265.429C263.322 78.4638 262.202 77.2538 262.202 75.1028V62.555H268.79V57.7151H262.202V48.9765H256.511V57.7151H252.029V62.555H256.511V75.4613C256.511 80.5252 259.513 83.2589 265.025 83.2589H268.297V78.419L268.341 78.4638ZM441.501 100.781H435.81V109.52H431.328V114.36H435.81V127.266C435.81 132.33 438.812 135.063 444.324 135.063H447.596V130.224H444.683C442.577 130.224 441.456 129.014 441.456 126.863V114.315H448.044V109.475H441.456V100.736L441.501 100.781ZM224.962 108.713C221.332 108.713 218.329 110.281 216.492 112.791V98.854H210.801V135.019H215.372L215.909 130.492C217.523 133.719 220.884 135.736 224.917 135.736C231.729 135.736 236.479 129.999 236.479 122.067C236.479 114.135 231.729 108.668 224.962 108.668V108.713ZM230.653 122.157C230.653 127.355 227.875 130.985 223.662 130.985C219.45 130.985 216.492 127.266 216.492 122.023C216.492 116.779 219.539 113.598 223.662 113.598C227.785 113.598 230.653 117.138 230.653 122.202V122.157ZM251.088 129.148L243.649 109.52H237.51L247.638 135.063H248.713L245.083 144.34L250.461 145.595L264.622 109.52H258.706L251.043 129.148H251.088ZM250.999 83.2589L240.467 66.9019L249.744 57.6703H242.798L231.908 68.7841V47.0943H226.217V83.2589H231.908V75.5061L236.524 70.8903L244.366 83.3037H250.999V83.2589ZM284.205 56.9533C276.722 56.9533 271.075 61.9276 271.075 70.2629C271.075 78.5983 275.915 84.0207 284.205 84.0207C292.496 84.0207 297.291 78.912 297.291 70.2629C297.291 61.6139 292.451 56.9533 284.205 56.9533ZM284.205 79.136C279.993 79.136 276.856 75.8646 276.856 70.2629C276.856 64.6612 279.769 61.838 284.205 61.838C288.642 61.838 291.465 65.199 291.465 70.2629C291.465 75.3269 288.776 79.136 284.205 79.136ZM403.634 129.507V117.945C403.634 112.477 399.511 108.713 392.923 108.713C386.336 108.713 381.496 112.477 380.958 117.9H386.694C387.053 115.256 389.517 113.418 392.834 113.418C396.15 113.418 398.032 115.077 398.077 117.586C398.032 119.603 395.164 119.737 391.31 120.185C386.336 120.768 380.42 122.023 380.375 127.983C380.331 132.733 384.185 135.601 390.055 135.601C395.926 135.601 397.18 133.943 398.704 131.209C398.749 131.523 398.839 131.837 398.928 132.061C399.376 133.988 400.945 135.063 403.544 135.063H406.233V130.627H404.844C403.992 130.627 403.589 130.224 403.589 129.507H403.634ZM398.122 125.473C398.122 128.879 395.164 131.12 391.265 131.12C387.366 131.12 386.156 129.82 386.156 127.58C386.156 125.339 388.8 124.443 391.982 124.039C394.671 123.681 397.136 123.367 398.122 121.888V125.473ZM424.338 98.7196C422.276 98.7196 420.663 100.288 420.663 102.394C420.663 104.501 422.186 106.114 424.338 106.114C426.489 106.114 428.012 104.456 428.012 102.394C428.012 100.333 426.444 98.7196 424.338 98.7196ZM286.267 113.463C284.698 110.64 281.427 108.758 277.439 108.758C270.627 108.758 265.697 114.18 265.697 121.799C265.697 129.417 270.627 134.705 277.483 134.705C284.34 134.705 283.981 133.181 285.639 130.716V134.346C285.639 138.2 283.264 140.889 278.738 140.889C274.212 140.889 272.375 138.962 272.375 136.542H266.683C266.683 142.054 271.613 145.505 278.738 145.505C285.864 145.505 291.286 141.068 291.286 134.302V109.52H286.76L286.267 113.463ZM278.604 129.91C274.436 129.91 271.613 126.638 271.613 121.754C271.613 116.869 274.481 113.553 278.604 113.553C282.727 113.553 285.639 116.869 285.639 121.709C285.639 126.549 282.727 129.91 278.604 129.91Z" fill="#003045"/>
<path d="M45.6198 76.0443L7.88672 93.7904V110.103L45.6646 92.3116L83.4424 110.103V93.7904L45.7094 76.0443H45.6198ZM7.88672 135.064H83.4424V120.32H7.88672V135.064ZM42.9758 50.2764C33.8786 53.8167 25.0055 54.4889 16.6254 52.1586C12.5473 51.0383 9.54482 49.425 7.88672 48.4391V65.289C12.7266 67.1712 19.1349 68.7845 26.7084 68.7845C34.2819 68.7845 40.4214 67.6193 48.3534 64.5272C57.4506 60.9869 66.3236 60.3147 74.7038 62.645C78.7818 63.7653 81.7843 65.3786 83.4424 66.3645V49.5146C74.4797 46.064 60.3186 43.5096 42.9758 50.2764Z" fill="#003045"/>
</svg>
