<?xml version="1.0" encoding="UTF-8"?>
<svg xmlns="http://www.w3.org/2000/svg" version="1.1" viewBox="0 0 686.8 252.3">
  <defs>
    <style>
      .cls-1 {
        fill: #f76650;
      }
    </style>
  </defs>
  <!-- Generator: Adobe Illustrator 28.6.0, SVG Export Plug-In . SVG Version: 1.2.0 Build 709)  -->
  <g>
    <g id="Layer_1">
      <g>
        <path class="cls-1" d="M232,84.6v15c15.7,0,28.3,13.7,26.5,29.7-1.4,12.2-11.2,22.1-23.5,23.5-16.1,1.8-29.7-10.8-29.7-26.5h-15c0,23,18.7,41.7,41.7,41.7s41.7-18.7,41.7-41.7-18.7-41.7-41.7-41.7Z"/>
        <polygon class="cls-1" points="484.4 84.3 468.5 84.3 468.5 168 484.4 168 484.4 117.1 515.3 101.7 515.3 84.6 484.4 100.9 484.4 84.3"/>
        <path class="cls-1" d="M205.5,126.3h15c0-23.9-20.2-43.2-44.4-41.6-22.1,1.4-39,20.3-39,42.4v40.7h15v-40.9c0-14,10.6-26.1,24.6-27.2,15.6-1.2,28.7,11.2,28.7,26.6Z"/>
        <path class="cls-1" d="M409,84.5c-23,0-41.7,18.7-41.7,41.7s18.7,41.7,41.7,41.7,19.4-3.6,26.7-9.7v9.7h15v-42h0c-.2-22.8-18.8-41.3-41.7-41.3ZM409,152.1c-14.7,0-26.7-12-26.7-26.7s12-26.7,26.7-26.7,26.7,12,26.7,26.7-12,26.7-26.7,26.7Z"/>
        <rect class="cls-1" x="532.9" y="84.5" width="15.9" height="83.3"/>
        <polygon class="cls-1" points="321.5 148.8 296.8 84.6 279.2 84.6 312.4 167.7 329.9 167.7 362.8 84.6 345.1 84.6 321.5 148.8"/>
      </g>
    </g>
  </g>
</svg>