<?xml version="1.0" encoding="UTF-8"?>
<svg xmlns="http://www.w3.org/2000/svg" version="1.1" viewBox="0 0 16 16">
  <defs>
    <style>
      .cls-1 {
        fill: #ec6653;
      }

      .cls-2 {
        fill: #f8ecdb;
      }
    </style>
  </defs>
  <!-- Generator: Adobe Illustrator 28.6.0, SVG Export Plug-In . SVG Version: 1.2.0 Build 709)  -->
  <g>
    <g id="Layer_1">
      <rect class="cls-2" width="16" height="16"/>
      <g id="Layer_1-2" data-name="Layer_1">
        <path class="cls-1" d="M15.6,8c0-2.6-2.1-4.7-4.7-4.7v1.7c1.6,0,3,1.4,3,3s-1.3,3-3,3-3-1.4-3-3h-1.7c0,2.6,2.1,4.7,4.7,4.7s4.7-2.1,4.7-4.7h0ZM8,8h1.7c0-2.6-2.1-4.7-4.7-4.7S.4,5.4.4,8v4.8h1.7v-4.8c0-1.7,1.3-3,3-3s3,1.4,3,3h0Z"/>
      </g>
    </g>
  </g>
</svg>