<svg xmlns="http://www.w3.org/2000/svg" viewBox="0 0 859.52 198.76"><defs><style>.cls-1{fill:#361744;}</style></defs><g id="Layer_2" data-name="Layer 2"><g id="Layer_1-2" data-name="Layer 1"><path class="cls-1" d="M74.55,172.16a26.6,26.6,0,0,1,53.2,0v25.3H74.55Z"/><circle class="cls-1" cx="26.6" cy="26.6" r="26.6"/><circle class="cls-1" cx="26.6" cy="99.38" r="26.6"/><circle class="cls-1" cx="26.6" cy="172.16" r="26.6"/><circle class="cls-1" cx="100.6" cy="26.6" r="26.6"/><circle class="cls-1" cx="100.6" cy="99.38" r="26.6"/><circle class="cls-1" cx="174.61" cy="26.6" r="26.6"/><path class="cls-1" d="M148.29,99.38a26.6,26.6,0,1,1,53.19,0v98.08H148.29Z"/><path class="cls-1" d="M275,26.67h7.75v51.2h28.91v6.78H275Z"/><path class="cls-1" d="M335.38,85.54c-11.55,0-19.62-8.88-19.62-22s8.07-22,19.62-22S355,50.49,355,63.57,346.93,85.54,335.38,85.54Zm0-6.22c7.43,0,12.27-6.14,12.27-15.75s-4.84-15.82-12.27-15.82-12.27,6.13-12.27,15.82S328,79.32,335.38,79.32Z"/><path class="cls-1" d="M365.74,48.64H359.2V42.42h6.54V30.06h7.19V42.42h9.61v6.22h-9.61V73.43c0,4.44,2.18,5.25,5.89,5.25a18.08,18.08,0,0,0,4.61-.49v6.22a30.17,30.17,0,0,1-6.38.64c-7.19,0-11.31-2.42-11.31-10.49Z"/><path class="cls-1" d="M393.6,48.64h-6.54V42.42h6.54V30.06h7.19V42.42h9.61v6.22h-9.61V73.43c0,4.44,2.18,5.25,5.89,5.25a18,18,0,0,0,4.6-.49v6.22a30,30,0,0,1-6.38.64c-7.18,0-11.3-2.42-11.3-10.49Z"/><path class="cls-1" d="M417.18,63.57c0-12.59,8-22,19.46-22,11.79,0,18,9,18,20.67v2.43H424.12c.41,8.88,5.49,14.53,12.84,14.53,5.65,0,9.69-3.07,11-8.07l6.38,2.26c-2.58,7.51-9,12.11-17.36,12.11C425.25,85.54,417.18,76.58,417.18,63.57Zm7.35-4.44H447.3c-.16-6-3.39-11.3-10.74-11.3C430.42,47.83,425.82,52,424.53,59.13Z"/><path class="cls-1" d="M486,49.61a16.14,16.14,0,0,0-3.56-.33c-6.13,0-11.06,4.85-11.06,12.28V84.65h-7.27V42.42h7.27v7.19a12.38,12.38,0,0,1,11.71-7.51,27.53,27.53,0,0,1,2.91.16Z"/><path class="cls-1" d="M494.05,26.67H502v8.4h-7.92Zm7.59,58h-7.27V42.42h7.27Z"/><path class="cls-1" d="M512.22,57.84h22v6.54h-22Z"/><path class="cls-1" d="M579,85.54c-11.55,0-19.62-8.88-19.62-22s8.07-22,19.62-22,19.62,8.88,19.62,22S590.55,85.54,579,85.54Zm0-6.22c7.43,0,12.27-6.14,12.27-15.75S586.43,47.75,579,47.75s-12.27,6.13-12.27,15.82S571.57,79.32,579,79.32Z"/><path class="cls-1" d="M624.38,100.07c-9.29,0-16.07-4.28-18.41-12l6.78-2.58c1.38,5.41,5.74,8.56,11.63,8.56,7.43,0,12.36-3.8,12.36-12.6V76.66c-2.27,4.11-7,7-12.92,7-11.55,0-18.33-9.53-18.33-21.07s6.78-21,18.33-21c5.81,0,10.65,2.91,12.92,7V42.42H644V80.86C644,93.21,635.85,100.07,624.38,100.07ZM625.11,48c-7.67,0-12.36,5.73-12.36,14.62s4.69,14.69,12.36,14.69c6,0,11.71-4.52,11.71-13.81V62C636.82,52.51,631.16,48,625.11,48Z"/><path class="cls-1" d="M275.62,158.32a14.12,14.12,0,0,0,12.92,7.91c4.93,0,9.29-2.1,9.29-6.7s-4-5.25-11-6.7-14.21-3.07-14.21-11.71c0-7.51,6.54-12.76,15.5-12.76,7.59,0,13.81,3.72,16.31,8.72l-5.17,4.12a12.36,12.36,0,0,0-11.46-6.86c-4.85,0-8.08,2.42-8.08,6.21,0,4,3.72,4.69,9.61,6,7.27,1.7,15.59,3.15,15.59,12.35,0,8.08-7.35,13.41-16.4,13.41-7.67,0-15.34-3.31-18.57-9.85Z"/><path class="cls-1" d="M315.43,135.39h-6.54v-6.22h6.54V116.81h7.19v12.36h9.61v6.22h-9.61v24.79c0,4.44,2.18,5.25,5.9,5.25a18.06,18.06,0,0,0,4.6-.49v6.22a30.17,30.17,0,0,1-6.38.64c-7.19,0-11.31-2.42-11.31-10.49Z"/><path class="cls-1" d="M341.84,113.42h7.91v8.4h-7.91Zm7.59,58h-7.27V129.17h7.27Z"/><path class="cls-1" d="M380.36,119.16a19.63,19.63,0,0,0-3.15-.17c-4.28,0-6.62,1.86-6.62,7.27v2.91H380v6.22h-9.36v36h-7.27v-36h-6.38v-6.22h6.38v-3.39c0-8.24,4.52-13.25,13.16-13.25,1.45,0,2.26.08,3.88.17Z"/><path class="cls-1" d="M389.56,135.39H383v-6.22h6.54V116.81h7.19v12.36h9.61v6.22h-9.61v24.79c0,4.44,2.18,5.25,5.89,5.25a18,18,0,0,0,4.6-.49v6.22a30,30,0,0,1-6.37.64c-7.19,0-11.31-2.42-11.31-10.49Z"/><path class="cls-1" d="M413.14,150.32c0-12.59,8-22,19.46-22,11.79,0,18,9,18,20.67v2.43H420.08c.41,8.88,5.49,14.53,12.84,14.53,5.66,0,9.69-3.07,11-8.07l6.37,2.26c-2.58,7.51-9,12.11-17.36,12.11C421.21,172.29,413.14,163.33,413.14,150.32Zm7.35-4.44h22.77c-.16-6-3.39-11.3-10.74-11.3C426.38,134.58,421.78,138.7,420.49,145.88Z"/><path class="cls-1" d="M467.32,171.4h-7.27v-58h7.27Z"/><path class="cls-1" d="M480.81,158.32a14.11,14.11,0,0,0,12.92,7.91c4.92,0,9.28-2.1,9.28-6.7s-4-5.25-11-6.7-14.21-3.07-14.21-11.71c0-7.51,6.54-12.76,15.5-12.76,7.59,0,13.81,3.72,16.31,8.72l-5.16,4.12A12.37,12.37,0,0,0,493,134.34c-4.85,0-8.08,2.42-8.08,6.21,0,4,3.72,4.69,9.61,6,7.27,1.7,15.59,3.15,15.59,12.35,0,8.08-7.35,13.41-16.39,13.41-7.67,0-15.35-3.31-18.58-9.85Z"/><path class="cls-1" d="M516.58,150.32c0-12.59,8-22,19.46-22,11.79,0,18,9,18,20.67v2.43H523.52c.41,8.88,5.49,14.53,12.84,14.53,5.65,0,9.69-3.07,11-8.07l6.38,2.26c-2.58,7.51-9,12.11-17.36,12.11C524.65,172.29,516.58,163.33,516.58,150.32Zm7.35-4.44H546.7c-.16-6-3.39-11.3-10.74-11.3C529.82,134.58,525.22,138.7,523.93,145.88Z"/><path class="cls-1" d="M564.46,158.32a14.11,14.11,0,0,0,12.92,7.91c4.93,0,9.29-2.1,9.29-6.7s-4-5.25-11-6.7-14.22-3.07-14.22-11.71c0-7.51,6.55-12.76,15.51-12.76,7.59,0,13.81,3.72,16.31,8.72l-5.17,4.12a12.36,12.36,0,0,0-11.46-6.86c-4.85,0-8.08,2.42-8.08,6.21,0,4,3.72,4.69,9.61,6,7.27,1.7,15.58,3.15,15.58,12.35,0,8.08-7.34,13.41-16.39,13.41-7.67,0-15.34-3.31-18.57-9.85Z"/><path class="cls-1" d="M604.27,135.39h-6.54v-6.22h6.54V116.81h7.19v12.36h9.61v6.22h-9.61v24.79c0,4.44,2.18,5.25,5.89,5.25a18.08,18.08,0,0,0,4.61-.49v6.22a30.17,30.17,0,0,1-6.38.64c-7.19,0-11.31-2.42-11.31-10.49Z"/><path class="cls-1" d="M630.68,113.42h7.91v8.4h-7.91Zm7.59,58H631V129.17h7.27Z"/><path class="cls-1" d="M658.05,171.4h-7.27v-58h7.27Z"/><path class="cls-1" d="M671.53,158.32a14.12,14.12,0,0,0,12.92,7.91c4.93,0,9.29-2.1,9.29-6.7s-4-5.25-11-6.7-14.21-3.07-14.21-11.71c0-7.51,6.54-12.76,15.5-12.76,7.59,0,13.81,3.72,16.31,8.72l-5.17,4.12a12.36,12.36,0,0,0-11.46-6.86c-4.85,0-8.08,2.42-8.08,6.21,0,4,3.72,4.69,9.61,6,7.27,1.7,15.59,3.15,15.59,12.35,0,8.08-7.35,13.41-16.4,13.41-7.67,0-15.34-3.31-18.57-9.85Z"/><path class="cls-1" d="M712,186.42a18.84,18.84,0,0,1-4-.32v-6.3a13.68,13.68,0,0,0,3.48.4c3.14,0,4.84-1.13,6.54-5.33l2-5-15.66-40.7h7.67l11.87,32.3,11.71-32.3h7.59L725.07,176C722.65,182.38,719.34,186.42,712,186.42Z"/><path class="cls-1" d="M750.75,129.17H758v5.73a15,15,0,0,1,12.59-6.54c9,0,14,6.22,14,15.18V171.4H777.4V145.48c0-5.89-2.51-10.34-8.81-10.34A10.62,10.62,0,0,0,758,146.21V171.4h-7.27Z"/><path class="cls-1" d="M793.79,150.32c0-12.59,8-22,19.46-22,11.79,0,18,9,18,20.67v2.43H800.73c.41,8.88,5.49,14.53,12.84,14.53,5.65,0,9.69-3.07,11-8.07l6.38,2.26c-2.58,7.51-9,12.11-17.36,12.11C801.86,172.29,793.79,163.33,793.79,150.32Zm7.35-4.44h22.77c-.16-6-3.39-11.3-10.74-11.3C807,134.58,802.43,138.7,801.14,145.88Z"/><path class="cls-1" d="M841.83,135.39h-6.54v-6.22h6.54V116.81H849v12.36h9.61v6.22H849v24.79c0,4.44,2.18,5.25,5.9,5.25a18.06,18.06,0,0,0,4.6-.49v6.22a30.17,30.17,0,0,1-6.38.64c-7.19,0-11.31-2.42-11.31-10.49Z"/></g></g></svg>