<svg xmlns="http://www.w3.org/2000/svg" version="1.1" id="Layer_1" x="0" y="0" viewBox="0 0 28 36" xml:space="preserve"><style>.st0{fill:#022f51}</style><path class="st0" d="M14 35.9l-.7-.7C13 34.8 4.1 26 1.4 19.8.5 17.7.1 15.4.3 13.1s1-4.5 2.2-6.4c1.3-1.9 3-3.5 5-4.6C9.5 1 11.8.4 14 .4c2.3 0 4.5.6 6.5 1.7s3.7 2.7 5 4.6c1.3 1.9 2 4.1 2.2 6.4.2 2.3-.2 4.6-1.1 6.7-2.6 6.2-11.5 15-11.8 15.4l-.8.7zM3.2 19c2.2 4.9 8.7 11.9 10.9 14.1 2.2-2.2 8.7-9.2 10.9-14.1.8-1.8 1.1-3.7.9-5.7-.2-1.9-.8-3.8-1.9-5.5-1.1-1.6-2.5-3-4.3-3.9C17.9 3 16 2.5 14 2.5c-1.9 0-3.9.5-5.6 1.4-1.7.9-3.1 2.3-4.2 3.9s-1.7 3.5-1.9 5.5c-.2 1.9.1 3.9.9 5.7z"/><path class="st0" d="M14 19.6c-3.3 0-6-2.7-6-6s2.7-6 6-6 6 2.7 6 6c.1 3.3-2.6 6-6 6zm0-10.1c-2.2 0-4 1.8-4 4s1.8 4 4 4 4-1.8 4-4-1.7-4-4-4z"/></svg>
