<?xml version="1.0" encoding="UTF-8"?>
<svg id="Fjellinjen_logo" data-name="Fjellinjen logo" xmlns="http://www.w3.org/2000/svg" xmlns:xlink="http://www.w3.org/1999/xlink" version="1.1" viewBox="0 0 1761.5 667.8">
  <defs>
    <style>
      .cls-1 {
        clip-path: url(#clippath);
      }

      .cls-2 {
        fill: none;
      }

      .cls-2, .cls-3 {
        stroke-width: 0px;
      }

      .cls-3 {
        fill: #062f19;
      }
    </style>
    <clipPath id="clippath">
      <rect class="cls-2" y="0" width="1761.5" height="667.8"/>
    </clipPath>
  </defs>
  <g class="cls-1">
    <g>
      <path class="cls-3" d="M651.7,225.2c-11.2,0-20.1,8.9-20.1,20.1s8.9,20.1,20.1,20.1,20.1-8.9,20.1-20.1-8.9-20.1-20.1-20.1h0Z"/>
      <path class="cls-3" d="M633.9,415.4c0,13.2-9.7,17.3-22.2,17.3h-3.3v32.7c3.3.3,6.4.3,8.9.3,29.3,0,52.2-14,52.2-47.6v-131.8h-35.7v129.1h0Z"/>
      <path class="cls-3" d="M822.4,345.9c0-32.9-25.7-62.7-62.7-62.7s-64.7,31.3-64.7,68.8,28.3,71.1,67.2,71.1,48.9-17.3,58.1-31.1l-23.2-17.3c-8.7,13-21.9,19.1-34.6,19.1s-33.4-11.2-34.6-32.1h92.2c1.5-5.1,2.3-10.2,2.3-15.8h0ZM728.1,338.8c.8-14.8,13.8-28.8,31.8-28.8s30.1,12.7,30.8,28.8h-62.6Z"/>
      <path class="cls-3" d="M883.5,370.1v-139.3h-35.7v142.9c0,38,20.4,47.9,58.1,47.9h3.1v-31.8h-3.1c-17.6-.1-22.4-5.4-22.4-19.7h0Z"/>
      <path class="cls-3" d="M967.5,370.1v-139.3h-35.7v142.9c0,38,20.4,47.9,58.1,47.9h3.1v-31.8h-3.1c-17.5-.1-22.4-5.4-22.4-19.7h0Z"/>
      <path class="cls-3" d="M1033.8,225.2c-11.2,0-20.1,8.9-20.1,20.1s8.9,20.1,20.1,20.1,20.1-8.9,20.1-20.1-8.9-20.1-20.1-20.1h0Z"/>
      <rect class="cls-3" x="1015.9" y="286.3" width="35.7" height="133.7"/>
      <path class="cls-3" d="M1163.9,283.3c-22.2,0-35.9,12-42.8,25h-2v-21.9h-35.7v133.7h35.7v-73.9c0-23.2,14.5-32.9,29-32.9s24.5,8.2,24.5,30.6v76.2h35.7v-84.8c0-31.7-15.4-52-44.4-52h0Z"/>
      <path class="cls-3" d="M1262.2,225.2c-11.2,0-20.1,8.9-20.1,20.1s8.9,20.1,20.1,20.1,20.1-8.9,20.1-20.1-8.9-20.1-20.1-20.1h0Z"/>
      <path class="cls-3" d="M1244.4,415.4c0,13.2-9.7,17.3-22.2,17.3h-3.3v32.7c3.3.3,6.4.3,8.9.3,29.3,0,52.2-14,52.2-47.6v-131.8h-35.7v129.1h0Z"/>
      <path class="cls-3" d="M1432.9,345.9c0-32.9-25.7-62.7-62.7-62.7s-64.7,31.3-64.7,68.8,28.3,71.1,67.2,71.1,48.9-17.3,58.1-31.1l-23.2-17.3c-8.7,13-21.9,19.1-34.6,19.1s-33.4-11.2-34.6-32.1h92.2c1.5-5.1,2.3-10.2,2.3-15.8h0ZM1338.6,338.8c.8-14.8,13.8-28.8,31.8-28.8s30.1,12.7,30.8,28.8h-62.6Z"/>
      <path class="cls-3" d="M1538.8,283.3c-22.2,0-35.9,12-42.8,25h-2v-21.9h-35.7v133.7h35.7v-73.9c0-23.2,14.5-32.9,29-32.9s24.5,8.2,24.5,30.6v76.2h35.7v-84.8c0-31.7-15.3-52-44.4-52h0Z"/>
      <polygon class="cls-3" points="489.5 420 526.4 420 526.4 351 596.4 351 596.4 351 596.4 351 596.4 321.7 526.4 321.7 526.4 274.8 604.1 274.8 604.1 274.8 604.1 274.8 604.1 241.7 489.5 241.7 489.5 420"/>
      <rect class="cls-3" x="302.4" y="191.4" width="62.9" height="62.9" transform="translate(-59.8 301.3) rotate(-45)"/>
      <rect class="cls-3" x="246.9" y="279.4" width="62.9" height="220" transform="translate(-193.8 310.9) rotate(-45)"/>
      <rect class="cls-3" x="246.9" y="168.3" width="62.9" height="220" transform="translate(-115.2 278.3) rotate(-45)"/>
      <rect class="cls-3" x="191.4" y="413.5" width="62.9" height="62.9" transform="translate(-249.4 287.9) rotate(-45)"/>
    </g>
  </g>
</svg>