<?xml version="1.0" encoding="UTF-8"?>
<svg id="Layer_1" xmlns="http://www.w3.org/2000/svg" version="1.1" xmlns:xlink="http://www.w3.org/1999/xlink" viewBox="0 0 269.5 186">
  <!-- Generator: Adobe Illustrator 29.2.1, SVG Export Plug-In . SVG Version: 2.1.0 Build 116)  -->
  <path d="M127.7,148h-12.4c0-13.6-11.1-24.4-24.4-24.4v-12.4c20.4,0,36.9,16.5,36.9,36.9Z"/>
  <path d="M164.7,74.9c-20.4,0-36.9-16.5-36.9-36.9h12.4c0,13.6,11.1,24.4,24.4,24.4v12.4Z"/>
  <path d="M164.7,123.6h-12.4c0-16.1-9.5-19.6-26.2-24.4-15.7-4.7-35.3-10.3-35.3-36.7h12.4c0,16.3,9.5,19.8,26.2,24.6,15.7,4.5,35.3,10.1,35.3,36.5Z"/>
</svg>