<svg xmlns="http://www.w3.org/2000/svg" data-name="Layer 1" viewBox="0 0 22 36"><path d="M20.85 22a3.91 3.91 0 0 0-2.55-1.14A3.81 3.81 0 0 0 17 21l-3.55-3.55 4.27-4.27.62-.63-.61-.62-.64.62-4.27 4.27-.73-.73 4.27-4.27.62-.63.13-.13.28-.71.26-.73 2.54-1.43.53.54-1.43 2.53-.72.27-.72.28-.12.12.61.62 1.56-.57 1.92-3.4-1.44-1.53L17 9l-.57 1.56-.62.63-4.27 4.27L8.1 12a3.94 3.94 0 0 0-5-4.77 3.61 3.61 0 0 0-.85.39l.65.65 1.63 1.67.63.62-.63.63-.62.62-.63-.62L1.6 9.57 1 8.92a4.18 4.18 0 0 0-.4.86 3.93 3.93 0 0 0 4.77 5l2.75 2.75-.56.9a3.31 3.31 0 0 1-.6.69l-2 1.73-4.29 3.6L0 25l.63.62 2.67 2.7.62.63.59-.67 3.65-4.15 1.77-2.07a2.85 2.85 0 0 1 .61-.54l.92-.61 2.81 2.81a3.95 3.95 0 0 0 5 4.78 4.11 4.11 0 0 0 .85-.4l-.65-.65-1.64-1.64-.63-.63.63-.62.63-.62.62.62 1.65 1.65.65.65a4.45 4.45 0 0 0 .39-.86 3.93 3.93 0 0 0-.92-4zm-10.8-1.19a4.15 4.15 0 0 0-.8.71l-1.76 2.03-3.61 4.11-2.58-2.58 4.16-3.55 2-1.73a3.66 3.66 0 0 0 .77-.89l.45-.73 2.1 2.1zm11 4.45l-2-2-.62-.62-.63.62-1.28 1.29-.63.62.63.63 1.95 2a3 3 0 0 1-3.3-4.14.69.69 0 0 1 0-.13l-2.14-2.14-5.1-5.26-2.36-2.37a3.05 3.05 0 0 1-4.28-3.25l2 2 .63.63.62-.63 1.28-1.28.63-.63-.63-.62L3.83 8a3 3 0 0 1 3.25 4.27l.66.66 8.41 8.41.66.66h.1a3 3 0 0 1 1.34-.23 3 3 0 0 1 2 .89 3 3 0 0 1 .83 2.57z"/></svg>
