<svg xmlns="http://www.w3.org/2000/svg" id="Layer_1" data-name="Layer 1" viewBox="0 0 24 36"><defs><style>.cls-1{fill-rule:evenodd}</style></defs><path class="cls-1" d="M9.45 7.55a4.23 4.23 0 0 0-2.3-3.76 4.51 4.51 0 0 0-1-.35v4.43h-1.9V3.44a4.31 4.31 0 0 0-1 .35 4.22 4.22 0 0 0-.18 7.42v13.58a4.22 4.22 0 0 0 .18 7.42 4.31 4.31 0 0 0 1 .35v-4.43h2v4.43a4.51 4.51 0 0 0 1-.35 4.22 4.22 0 0 0 1.23-6.57 4.13 4.13 0 0 0-1.06-.85V11.21a4.2 4.2 0 0 0 2.03-3.66zm-3.08 4.06v13.78h.1a3.41 3.41 0 0 1 1.2.85 3.28 3.28 0 0 1-.52 4.83v-3.89H3.3v3.92a3.27 3.27 0 0 1 .64-5.66l.13-.06V10.62A3.28 3.28 0 0 1 3.3 4.9v3.92h3.85V4.9a3.28 3.28 0 0 1-.78 5.72v1zM22.94 31.61l-.38-5.93-.23-2.91a2.9 2.9 0 0 1 .05-.88l.54-2.7a.32.32 0 0 0-.31-.38H21.5V9.1l.75-1.62-1.13-4h-2.25l-1.13 4 .75 1.62v9.71h-1a.32.32 0 0 0-.31.39l.61 2.65a2.88 2.88 0 0 1 .07 1l-.23 2.86-.46 5.93-.08 1h6zm-4.87 0l.46-5.85.23-2.86a4.41 4.41 0 0 0-.09-1.26l-.43-1.88h1.2V8.91l-.33-.76-.35-.75.84-3h.81l.84 3-.35.75-.33.76v10.85h1.29l-.39 1.95a4 4 0 0 0-.07 1.14l.23 2.9.37 5.86z"/></svg>
