<svg xmlns="http://www.w3.org/2000/svg" data-name="Layer 1" viewBox="0 0 673.81 1007.68"><path d="M607.66 537.55l-27.41-16.58c32.21-53.33 53.7-92.35 58.58-146.72 8.25-59.18-2-121.71-27.27-168-24.17-50.52-66-98-112.38-127.88-52.39-31.09-94.77-43.91-150.64-45.47-52.29-4.91-123.74 14.78-175.03 47.6-28.14 18-49.24 36.61-68.41 60.24-16.07 19.83-26.53 33.34-36.35 53.59-7.1 12.67-21.5 43.56-28.48 76-8.48 39.49-10.39 76.08-5.34 103C43.38 437 66.88 476 84.05 504.48c3.13 5.2 6 10 8.51 14.42l-27.94 15.78c-2.36-4.2-5.09-8.71-8-13.62-17.58-29.15-44.12-73.2-53.32-142.64-7.3-38.92-1-84 5.65-114.83 7.78-36.13 23.42-69.87 31.44-84.12 10.83-22.43 22.83-37.92 39.84-58.91 21.41-26.42 44.86-47.11 76-67.07 48-30.72 126.66-58.95 194.24-52.57 60.78 1.64 107.51 15.76 165.55 50.13 51.63 33.23 97.83 85.63 124.06 140.56 28.51 52.17 39.79 120.36 30.6 186.3-5.85 65.03-34.9 113.13-63.02 159.64z"/><path d="M337.24 1007.68L60.53 527.34l27.79-16.02L337.21 943.4l248.86-432.42 27.82 16-276.65 480.7zM333.04 499.22c-85.7 0-155.41-69.73-155.41-155.43s69.71-155.43 155.41-155.43 155.43 69.73 155.43 155.43-69.71 155.43-155.43 155.43zm0-278.78a123.35 123.35 0 1 0 123.35 123.35 123.48 123.48 0 0 0-123.35-123.35z"/></svg>
