<svg xmlns="http://www.w3.org/2000/svg" data-name="Layer 1" viewBox="0 0 22 36"><path d="M21.72 18.29a2 2 0 0 0-.4-.68l-.1-.13a2 2 0 0 0-.9-.59h-.09a1.83 1.83 0 0 0-.66-.11h-.28a2 2 0 0 0-.72.13l-.27.1a1.85 1.85 0 0 0-.29.13 2.11 2.11 0 0 0-.79-1.07l-.22-.16a2.15 2.15 0 0 0-.81-.34l-.33-.05a2 2 0 0 0-.8 0h-.14a1.94 1.94 0 0 0-.73.33l-.19-.3a2.07 2.07 0 0 0-.48-.66l-.1-.09a2 2 0 0 0-.9-.47h-.11a2 2 0 0 0-1 0h-.18a2.12 2.12 0 0 0-.58.25l.07-5a2.15 2.15 0 0 0-.15-.8l-.05-.12a2.08 2.08 0 0 0-.32-.54l-.2-.2a2.15 2.15 0 0 0-.45-.4l-.09-.06a2.16 2.16 0 0 0-1.22-.34 2.08 2.08 0 0 0-.66.11l-.26.09a1.77 1.77 0 0 0-.53.27l-.1.07a2 2 0 0 0-.76 1l-.08.25a2.08 2.08 0 0 0-.11.66v9.7l-.81-1-.64-.62a1.82 1.82 0 0 0-.48-.34l-.32-.17a2.08 2.08 0 0 0-1-.23h-.15a2.06 2.06 0 0 0-1.07.3l-.27.23a2 2 0 0 0-.82 1 2.05 2.05 0 0 0-.1.48l-.06.6a2.2 2.2 0 0 0 .09.81l.16.49a2 2 0 0 0 .23.49L1 22l1.51 2.87.49 1.31 1.34 2.76.66 1.2.45.72.72.93.66.73.51.48a1.88 1.88 0 0 0 .53.37 3.11 3.11 0 0 0 1.35.42h6.89a2.08 2.08 0 0 0 1.19-.38l.19-.13.24-.2 1.08-1a2 2 0 0 0 .25-.26l1.32-1.61.69-1.11.44-.93a2.28 2.28 0 0 0 .18-.54l.14-.87a2 2 0 0 0 0-.34v-7.36a2.19 2.19 0 0 0-.11-.67zm-1.25 8.14v.11l-.15.86a.84.84 0 0 1 0 .17l-.41.86-.6 1L18 30.94l-.1.06-1.14 1-.07.06-.19.13a.64.64 0 0 1-.38.12H9.24a3.25 3.25 0 0 1-.78-.29.41.41 0 0 1-.14-.1l-.47-.44-.59-.66-.65-.83-1-1.77-1.33-2.61-.55-1.32-1.57-3-.49-.76a.56.56 0 0 1-.07-.16l-.16-.49a.57.57 0 0 1 0-.26l.05-.59v-.14a.58.58 0 0 1 .23-.28l.28-.14a.7.7 0 0 1 .34-.1h.17a.68.68 0 0 1 .31.08l.31.16a.91.91 0 0 1 .16.11l.59.57 1.5 1.79.14.14a1 1 0 0 0 1 .13 1 1 0 0 0 .56-.88V9.59a.78.78 0 0 1 0-.21l.08-.25a.73.73 0 0 1 .24-.33l.1-.07.17-.08.33-.09a1 1 0 0 1 .3 0 .69.69 0 0 1 .37.1l.09.06a.86.86 0 0 1 .14.13l.22.27a.59.59 0 0 1 .1.17v.12a.7.7 0 0 1 .05.25l-.1 6.85-.11.49 1.19.54 1-1.67.11-.07a.82.82 0 0 1 .19-.09h.18a.58.58 0 0 1 .32 0h.11a.73.73 0 0 1 .29.15l.09.09a.65.65 0 0 1 .16.21l.26.61A.64.64 0 0 1 13 17v.68a.77.77 0 0 0 1.5.28l.32-.81.09-.09a.53.53 0 0 1 .24-.11h.14a.7.7 0 0 1 .25 0l.33.06a.64.64 0 0 1 .26.1l.21.15a.63.63 0 0 1 .12.1.66.66 0 0 1 .17.44V19a.82.82 0 0 0 .46.74.8.8 0 0 0 .85-.08l.22-.19.28-.82a.57.57 0 0 1 .31-.33l.27-.1a.85.85 0 0 1 .23 0h.28a.52.52 0 0 1 .21 0h.1a.67.67 0 0 1 .28.19l.11.12a.68.68 0 0 1 .12.22v.1a.78.78 0 0 1 0 .21z"/><path d="M0 2.21v10.05h4.36v-1.41H1.4V3.62h19.2v7.23h-8.27v1.41H22V2.21H0z"/></svg>
