<svg xmlns="http://www.w3.org/2000/svg" viewBox="0 0 20 36" fill="none"><g clip-path="url(#clip0)"><path fill-rule="evenodd" clip-rule="evenodd" d="M8.845 8c-1.03 0-1.713.476-2.118 1.081a3.117 3.117 0 0 0-.466 1.21H0v18.343h17.69v-5.081h-1v4.081H1V15.546h15.69v3.426h1V10.29h-6.262a3.116 3.116 0 0 0-.466-1.21C10.557 8.476 9.875 8 8.845 8zm7.844 3.29v3.256H1v-3.255h6.218v-.5c0-.31.09-.778.34-1.154C7.793 9.288 8.174 9 8.846 9c.671 0 1.052.288 1.286.637a2.2 2.2 0 0 1 .34 1.154v.5h6.218zm-1.79 9.317v-.982l-2.946 1.637 2.946 1.636v-.982h5.235v-1.309h-5.236zM3.771 18.491h7.69v-1h-7.69v1zm6.872 3.27H3.772v-1h6.872v1zm-6.872 3.273h7.69v-1h-7.69v1z" fill="#000"/></g><defs><clipPath id="clip0"><path fill="#fff" d="M0 0h20v36H0z"/></clipPath></defs></svg>
