<svg xmlns="http://www.w3.org/2000/svg" data-name="Layer 1" viewBox="0 0 1008 1008"><path d="M669.58 1008H446.66c-8.72 0-22.53-4.33-41-12.87a56.43 56.43 0 0 1-15.38-10.62l-16.3-15.65L353 945.6l-23-29.76-14.29-22.65-21.38-38.57-43.33-88.8-17.28-41.45-49.11-93.3-15.11-23.25a60 60 0 0 1-6.77-14.35l-5-15.65a60 60 0 0 1-2.65-23.82l1.73-19.36a56.68 56.68 0 0 1 27-43.45l9-5.5a60.25 60.25 0 0 1 31.36-8.8h5.51a60.55 60.55 0 0 1 27.85 6.82l10.28 5.36a59.6 59.6 0 0 1 13.95 10l20.81 20 36.67 43.66V232.07a60.53 60.53 0 0 1 3.1-19.12l2.73-8.13a59.91 59.91 0 0 1 22.3-30.06l3.17-2.24a60.51 60.51 0 0 1 15.62-7.93l8.24-2.77a59.86 59.86 0 0 1 19.23-3.15h2.9a60.08 60.08 0 0 1 33.24 10l2.87 1.89a60.08 60.08 0 0 1 13.13 11.76l7.09 8.52a60 60 0 0 1 9.54 15.95l1.53 3.76a59.93 59.93 0 0 1 4.4 23.43l-2.29 172.45a23.1 23.1 0 0 1 2.32-1.75l6.62-4.41a59.37 59.37 0 0 1 17.85-8l5.69-1.5a60.92 60.92 0 0 1 29.37-.3l3.79.91a60.37 60.37 0 0 1 26.36 13.92l3 2.74a60 60 0 0 1 14.31 19.47l8.15 18.62 2.06-1.85a55.92 55.92 0 0 1 25.27-12.91l4.69-1a59.84 59.84 0 0 1 23.44-.45l10.54 1.88a59.93 59.93 0 0 1 23.83 9.83l7.07 4.93a59.44 59.44 0 0 1 10.19 8.93 60.33 60.33 0 0 1 15 31 56.67 56.67 0 0 1 16.46-9.63l8.61-3.23a60.12 60.12 0 0 1 21.12-3.81h9.2a60.18 60.18 0 0 1 19.21 3.14l3.17 1.06a60.38 60.38 0 0 1 26.12 17.43l3.49 4a60 60 0 0 1 11.61 20l1.11 3.17a60.91 60.91 0 0 1 3.34 19.81v238a61.23 61.23 0 0 1-.85 10l-4.72 28a60.86 60.86 0 0 1-5 15.84l-14.31 30.09-22.1 35.27-42.07 51.45a58.75 58.75 0 0 1-7.37 7.6l-17.19 14.8-18.12 17.45a57.76 57.76 0 0 1-7 5.76l-5.95 4.24a60 60 0 0 1-34.77 11.07zm-222.89-32.89h222.89a27.37 27.37 0 0 0 15.84-5.05l6-4.26a24.81 24.81 0 0 0 3.17-2.62l18.78-18 17.81-15.35a27.32 27.32 0 0 0 3.34-3.45l41-50 19.93-31.89 13.36-28.35a26.86 26.86 0 0 0 2.3-7.26l4.72-27.88a27.88 27.88 0 0 0 .38-4.56v-238a27.44 27.44 0 0 0-1.54-9l-1.09-3.13a27.18 27.18 0 0 0-5.29-9.12l-3.49-4a27.33 27.33 0 0 0-11.88-7.93l-3.13-1.05a27.18 27.18 0 0 0-8.74-1.43h-9.2a27 27 0 0 0-9.58 1.73l-8.56 3.2a24.13 24.13 0 0 0-3.43 1.61 23.19 23.19 0 0 0-10.51 12.84l-6.55 19.72a20.36 20.36 0 0 1-39.68-6.42v-39.37a27.51 27.51 0 0 0-7.17-18.5 28.19 28.19 0 0 0-4.63-4l-7.09-4.94a27.36 27.36 0 0 0-10.83-4.45l-10.56-1.89a26.67 26.67 0 0 0-10.64.21l-4.67 1a22.87 22.87 0 0 0-10.38 5.3l-4.16 3.71-10.7 27.68a18.91 18.91 0 0 1-36.55-6.83v-22a27.77 27.77 0 0 0-2-10.33l-8.58-19.78a27.26 27.26 0 0 0-6.49-8.84l-3-2.73a27.43 27.43 0 0 0-12-6.34l-3.79-.91a26.84 26.84 0 0 0-13.36.13l-5.68 1.49a26.45 26.45 0 0 0-8 3.56l-4.82 3.21-31.1 50.16-15-6a17.68 17.68 0 0 1-9.82-18.49l3-222.95a27.21 27.21 0 0 0-2-10.66l-1.52-3.74a27.28 27.28 0 0 0-4.34-7.28l-7.1-8.52a27.46 27.46 0 0 0-6-5.36l-2.86-1.89a27.35 27.35 0 0 0-15.12-4.55h-2.9A27.28 27.28 0 0 0 405 193l-8.26 2.79a27 27 0 0 0-7.11 3.6l-3.15 2.23a27.58 27.58 0 0 0-10.13 13.66l-2.73 8.14a27.29 27.29 0 0 0-1.4 8.67v351.75a25.22 25.22 0 0 1-41.41 19.33l-3-3-49.14-58.67L259 522.81a27 27 0 0 0-6.32-4.56l-10.29-5.35a27.36 27.36 0 0 0-12.66-3.11h-5.51a27.39 27.39 0 0 0-14.25 4l-9 5.48a24 24 0 0 0-10.08 12.4 23.54 23.54 0 0 0-1.29 5.86l-1.73 19.4a27.23 27.23 0 0 0 1.2 10.84l5 15.67a27 27 0 0 0 3.07 6.51L213 614.56l50.4 95.76L281 752.4l42.42 86.91 20.61 37.17L357 897.06l21.29 27.52L397.57 946 413 960.81a23.63 23.63 0 0 0 6.39 4.47c15.11 6.96 24.75 9.72 27.3 9.83zm175.44-501.45l-.13.11zm2-3.05v.05a.06.06 0 0 0 .01-.05zM457.22 451v.06zm49.42-19z"/><path d="M853.3 312.05H546.95v-32.89h273.46V32.89H187.59v246.27h101.67v32.89H154.7V0h698.6v312.05z"/></svg>
