<svg xmlns="http://www.w3.org/2000/svg" viewBox="0 0 34 34" fill="none"><path d="M9.282 14.665h-.916v-1.387h.916v-1.195c0-.861.239-1.495.716-1.902.465-.378 1.05-.567 1.753-.567h1.178v1.718H11.89c-.547-.017-.809.233-.785.75v1.196h1.823v1.387h-1.823v7.668H9.282v-7.668zM15.707 23.7c-1.408-1.687-2.113-3.506-2.113-5.456 0-1.954.705-3.771 2.114-5.45h.536c-.846 1.688-1.274 3.505-1.282 5.45.008 1.95.436 3.769 1.282 5.457h-.537zM16.748 15.542h1.636l1.347 2.198 1.355-2.198h1.636l-2.225 3.324 2.316 3.467h-1.63l-1.452-2.263-1.446 2.263H16.65l2.322-3.467-2.224-3.324zM23.762 12.794c1.409 1.679 2.113 3.496 2.113 5.45 0 1.95-.704 3.769-2.113 5.457h-.537c.838-1.688 1.267-3.507 1.29-5.457-.023-1.945-.452-3.762-1.29-5.45h.537z" fill="#000"/></svg>
