<svg xmlns="http://www.w3.org/2000/svg" viewBox="0 0 26 36"><style>.st0{fill:#022f51}</style><g id="Layer_1"><path class="st0" d="M25 28h-2v-9c0-.5-.4-1-1.2-1.4-.8-.4-2-.6-3.3-.6-2.2 0-4.5.7-4.5 2v8.9h-2V19c0-2.7 3.4-4 6.5-4s6.5 1.3 6.5 4v9zM18 12.9c-2.4 0-4.3-1.9-4.3-4.3s1.9-4.3 4.3-4.3 4.3 1.9 4.3 4.3-1.9 4.3-4.3 4.3zm0-6.7c-1.3 0-2.3 1-2.3 2.3 0 1.3 1 2.3 2.3 2.3 1.3 0 2.3-1 2.3-2.3.1-1.2-1-2.3-2.3-2.3zM2.8 28h-2v-9c0-1 .5-1.9 1.4-2.6 2-1.5 5.6-1.7 7.9-1.1l-.5 1.9c-2.2-.6-5-.2-6.2.7-.6.4-.6.9-.6 1V28zM7.2 12.9c-2.4 0-4.3-1.9-4.3-4.3s1.9-4.3 4.3-4.3 4.3 1.9 4.3 4.3-1.9 4.3-4.3 4.3zm0-6.7c-1.3 0-2.3 1-2.3 2.3 0 1.3 1 2.3 2.3 2.3 1.3 0 2.3-1 2.3-2.3 0-1.2-1-2.3-2.3-2.3z"/></g></svg>
