<svg xmlns="http://www.w3.org/2000/svg" viewBox="0 0 28 36"><style></style><path d="M13.9 26.9c-6.4 0-12.6-6.6-12.8-6.8l-.7-.8.7-.8c.3-.3 6.4-6.9 12.8-6.9s12.6 6.6 12.9 6.9l.7.8-.7.7c-.3.3-6.4 6.9-12.9 6.9zM3.6 19.3c1.8 1.6 6.1 5.3 10.3 5.3 4.3 0 8.6-3.7 10.4-5.3-1.8-1.7-6.2-5.4-10.4-5.4s-8.6 3.7-10.3 5.4zm10.3 4c-2.3 0-4.1-1.9-4.1-4.1 0-2.3 1.9-4.2 4.1-4.2s4.1 1.9 4.1 4.2c.1 2.2-1.8 4.1-4.1 4.1zm0-6c-1 0-1.9.8-1.9 1.9 0 1 .8 1.8 1.9 1.8 1 0 1.9-.8 1.9-1.8 0-1.1-.8-1.9-1.9-1.9z" fill="#022f51" id="Layer_1"/></svg>
