<svg xmlns="http://www.w3.org/2000/svg" width="175.157" height="69.28" viewBox="0 0 175.157 69.28">
  <g id="Group_6222" data-name="Group 6222" transform="translate(0.316 -12.314)">
    <g id="Group_6200" data-name="Group 6200" transform="translate(-0.316 12.314)">
      <path id="Path_29081" data-name="Path 29081" d="M322.352,97.079h0v0Z" transform="translate(-267.26 -28.854)" fill="#1a1818"/>
      <rect id="Rectangle_3684" data-name="Rectangle 3684" width="1.367" height="62.21" transform="translate(55.092 5.72)" fill="#1a1818"/>
      <path id="Path_29082" data-name="Path 29082" d="M52.352,34.291l-1.427,8.162,1.338,1.516,21.542.045,1.026-2.988-3.345-7.939Z" transform="translate(-42.222 -27.432)" fill="#ab0b1b"/>
      <line id="Line_1873" data-name="Line 1873" x2="38.801" y2="39.515" transform="translate(0.338 14.978)" fill="#3d77bc"/>
      <rect id="Rectangle_3685" data-name="Rectangle 3685" width="0.134" height="55.38" transform="matrix(0.714, -0.701, 0.701, 0.714, 0.291, 15.024)" fill="#1a1818"/>
      <path id="Path_29083" data-name="Path 29083" d="M.64,87.861S.614,117.723.8,122.471c.109,2.836,1.583,8.518,10.414,8.608,8.665.088,9.776,6.008,9.832,6.34v0c.056-.336,1.17-6.252,9.832-6.34,4.746-.048,7.366-1.712,8.792-3.681" transform="translate(-0.53 -72.845)" fill="#004d9b"/>
      <path id="Path_29084" data-name="Path 29084" d="M20.655,137.447l.038-.012h-.042c-.041-.258-1.134-6.2-9.766-6.289-3.871-.039-6.74-1.149-8.528-3.3a9.053,9.053,0,0,1-1.952-5.374C.225,117.779.249,88.16.25,87.861H.384c0,.3-.025,29.915.156,34.607.1,2.538,1.3,8.452,10.348,8.543,7.655.077,9.459,4.726,9.819,6.054l.017-.114.014.1c.368-1.345,2.186-5.963,9.815-6.04,4.073-.041,7.013-1.27,8.739-3.653l.108.078c-1.752,2.419-4.728,3.667-8.846,3.709-8.631.087-9.724,6.031-9.767,6.284l-.014,0,.013,0h-.044Z" transform="translate(-0.206 -72.845)" fill="#1a1818"/>
      <path id="Path_29085" data-name="Path 29085" d="M28.958,169.22H19.04v-2.375H17.083v2.392H15.01V166.85h-.034v-.021H13.287v.021h-.3v2.4H12L9.373,158.626l1.7-2.409V153.7l.206-.334-.485-.569-.586.033v1.555H9.822v-.853l.151-.385-.5-.535H8.4v1.689L7.23,154.3v-1.723l-.552.009h-.6v1.723H4.854v-1.689H3.784l-.5.535.151.385v.853H3.048v-1.555l-.585-.033-.485.569.206.334v2.514L3.9,158.626l-2.281,9.387-.3,1.241H.986l.036,6.193.067,1.248-.011.862.033,1.171.033,1.037.117,1.12.151.786.151.535.251.786.452,1.053,3.183-.571,31.515.029,1.2-.615,1.472-1.338.388-.7Z" transform="translate(-0.817 -126.499)" fill="#b38f21"/>
      <path id="Path_29086" data-name="Path 29086" d="M2.508,169.062l2.6-10.7-1.715-2.412v-2.517l-.222-.36.538-.631.682.039v1.552h.251v-.774l-.161-.412.55-.587H6.2v1.689H7.284v-1.723H8.6v1.723H9.609v-1.689h1.166l.55.587-.161.412v.774h.251V152.48l.682-.039.538.631-.222.36v2.516l-1.692,2.4,2.669,10.587-.141.007-2.672-10.621,1.7-2.416v-2.512l.19-.309-.432-.506-.489.028v1.559H11.03v-.932l.139-.357-.453-.484H9.742v1.689H8.466v-1.723H7.418v1.723H6.063v-1.689H5.089l-.453.484.14.357v.932H4.256v-1.559l-.489-.028-.432.506.191.309v2.512l1.726,2.427-.007.03L2.678,168.928l3.472-.011-.006-2.409h2.1l.033,2.408h1.891v-2.408h2.1l.028,2.5h-.134l-.026-2.369H10.3v2.408H8.141l-.033-2.408H6.278l.005,2.408Z" transform="translate(-2.079 -126.209)" fill="#1a1818"/>
      <path id="Path_29087" data-name="Path 29087" d="M1.736,264.216l-.042-.228-.1-.174-.12-.273-.354-1.2-.169-.825L.906,261.1l-.1-.565-.051-.861-.017-.6v-.989l.023-.771L.705,256.3l-.034-1.876-.03-4.626H.775l.03,4.626.034,1.872L.895,257.3l-.022.775v.985l.017.6.05.851.1.561.051.422.166.814.35,1.182.114.26.1.2.023.129,35.043-.16,1.1-.64,1.058-.994.573-.808-11.1-11.652H26.763v-.134h1.813l.02.021,11.2,11.753-.646.908-1.079,1.013-1.143.667h-.018Z" transform="translate(-0.531 -207.02)" fill="#1a1818"/>
      <rect id="Rectangle_3686" data-name="Rectangle 3686" width="2.283" height="0.134" transform="translate(24.316 42.674)" fill="#1a1818"/>
      <path id="Path_29088" data-name="Path 29088" d="M61.221,238.26H59.047v-.134h2.04V235.7h2.107v2.408h1.973v-2.391h2.091v2.375h5.87v.134h-6v-2.375H65.3v2.391H63.061v-2.408h-1.84Z" transform="translate(-48.955 -195.418)" fill="#1a1818"/>
      <rect id="Rectangle_3687" data-name="Rectangle 3687" width="0.323" height="1.098" transform="translate(5.651 27.143)" fill="#1a1818"/>
      <rect id="Rectangle_3688" data-name="Rectangle 3688" width="0.323" height="1.042" transform="translate(2.92 27.332)" fill="#1a1818"/>
      <rect id="Rectangle_3689" data-name="Rectangle 3689" width="0.245" height="0.986" transform="translate(1.582 27.6)" fill="#1a1818"/>
      <rect id="Rectangle_3690" data-name="Rectangle 3690" width="0.245" height="0.986" transform="translate(9.833 27.6)" fill="#1a1818"/>
      <rect id="Rectangle_3691" data-name="Rectangle 3691" width="0.324" height="1.042" transform="translate(8.395 27.332)" fill="#1a1818"/>
      <path id="Path_29089" data-name="Path 29089" d="M57.239,159.769h-.067l0-2.479.132-.27h.562v.067h-.52l-.11.225Z" transform="translate(-47.401 -130.185)" fill="#1a1818"/>
      <rect id="Rectangle_3692" data-name="Rectangle 3692" width="0.067" height="0.722" transform="matrix(0.734, -0.679, 0.679, 0.734, 9.412, 26.362)" fill="#1a1818"/>
      <path id="Path_29090" data-name="Path 29090" d="M7.635,159.769H7.568v-2.456l-.11-.225h-.52v-.067H7.5l.135.284Z" transform="translate(-5.753 -130.185)" fill="#1a1818"/>
      <rect id="Rectangle_3693" data-name="Rectangle 3693" width="0.722" height="0.067" transform="matrix(0.68, -0.733, 0.733, 0.68, 1.702, 26.847)" fill="#1a1818"/>
      <path id="Path_29091" data-name="Path 29091" d="M15.559,158.463h-.067V156l-.081-.223H14.5v-.067h.955l.1.284Z" transform="translate(-12.024 -129.102)" fill="#1a1818"/>
      <rect id="Rectangle_3694" data-name="Rectangle 3694" width="0.844" height="0.067" transform="translate(3.389 26.62) rotate(-38.775)" fill="#1a1818"/>
      <path id="Path_29092" data-name="Path 29092" d="M47.7,158.445h-.067l0-2.457.1-.273h.926v.067h-.879l-.081.223Z" transform="translate(-39.494 -129.103)" fill="#1a1818"/>
      <rect id="Rectangle_3695" data-name="Rectangle 3695" width="0.067" height="0.845" transform="translate(7.587 26.143) rotate(-51.168)" fill="#1a1818"/>
      <rect id="Rectangle_3696" data-name="Rectangle 3696" width="1.193" height="0.067" transform="translate(5.227 26.54)" fill="#1a1818"/>
      <rect id="Rectangle_3697" data-name="Rectangle 3697" width="1.193" height="0.067" transform="translate(5.227 26.941)" fill="#1a1818"/>
      <rect id="Rectangle_3698" data-name="Rectangle 3698" width="0.134" height="1.41" transform="translate(6.387 27.806)" fill="#1a1818"/>
      <rect id="Rectangle_3699" data-name="Rectangle 3699" width="0.134" height="1.41" transform="translate(5.205 27.817)" fill="#1a1818"/>
      <rect id="Rectangle_3700" data-name="Rectangle 3700" width="0.135" height="1.574" transform="translate(2.562 27.882)" fill="#1a1818"/>
      <rect id="Rectangle_3701" data-name="Rectangle 3701" width="0.137" height="1.575" transform="translate(8.952 27.867)" fill="#1a1818"/>
      <path id="Path_29093" data-name="Path 29093" d="M8.048,171.2l-.016-.065a18.683,18.683,0,0,1,8.9,0l-.019.064a18.617,18.617,0,0,0-8.869,0" transform="translate(-6.659 -141.449)" fill="#1a1818"/>
      <path id="Path_29094" data-name="Path 29094" d="M9.953,173.609l-.017-.065a14.98,14.98,0,0,1,8.232,0l-.023.063a14.917,14.917,0,0,0-8.192,0" transform="translate(-8.238 -143.424)" fill="#1a1818"/>
      <path id="Path_29095" data-name="Path 29095" d="M19.4,176.688c-.026-.012-2.675-1.207-7.588-.031l-.016-.065c4.938-1.183,7.605.023,7.632.036Z" transform="translate(-9.783 -145.98)" fill="#1a1818"/>
      <path id="Path_29096" data-name="Path 29096" d="M18.085,186.382l-.013-.066a12.072,12.072,0,0,1,5.55-.008l-.025.062a12.316,12.316,0,0,0-5.513.011" transform="translate(-14.983 -154.223)" fill="#1a1818"/>
      <path id="Path_29097" data-name="Path 29097" d="M20.426,162.884l-.048-.047.546-.555.048.047Z" transform="translate(-16.896 -134.548)" fill="#1a1818"/>
      <rect id="Rectangle_3702" data-name="Rectangle 3702" width="0.067" height="0.852" transform="matrix(0.715, -0.7, 0.7, 0.715, 7.556, 27.779)" fill="#1a1818"/>
      <rect id="Rectangle_3703" data-name="Rectangle 3703" width="0.641" height="0.067" transform="translate(1.823 28.348) rotate(-49.97)" fill="#1a1818"/>
      <rect id="Rectangle_3704" data-name="Rectangle 3704" width="0.067" height="0.641" transform="translate(9.372 27.899) rotate(-40.046)" fill="#1a1818"/>
      <path id="Path_29098" data-name="Path 29098" d="M39.367,165.245l-1.747-.1,0-.067,1.747.1Z" transform="translate(-31.191 -136.864)" fill="#1a1818"/>
      <rect id="Rectangle_3705" data-name="Rectangle 3705" width="1.753" height="0.067" transform="matrix(0.999, -0.051, 0.051, 0.999, 3.508, 28.313)" fill="#1a1818"/>
      <rect id="Rectangle_3706" data-name="Rectangle 3706" width="0.81" height="0.067" transform="translate(1.823 28.485) rotate(-6.308)" fill="#1a1818"/>
      <rect id="Rectangle_3707" data-name="Rectangle 3707" width="0.067" height="0.797" transform="matrix(0.112, -0.994, 0.994, 0.112, 9.003, 28.463)" fill="#1a1818"/>
      <path id="Path_29099" data-name="Path 29099" d="M41.9,180.253a6.175,6.175,0,0,1,.413-1.221c.1-.1.324-.1.244.207l-.338,1.052Z" transform="translate(-34.741 -148.387)" fill="#1a1818"/>
      <path id="Path_29100" data-name="Path 29100" d="M35.28,178.82a6.8,6.8,0,0,1,.341-1.448c.105-.125.372-.144.313.207l-.273,1.245Z" transform="translate(-29.25 -146.989)" fill="#1a1818"/>
      <path id="Path_29101" data-name="Path 29101" d="M29.451,178.818a7.376,7.376,0,0,0-.377-1.439c-.106-.128-.372-.138-.308.215l.3,1.238Z" transform="translate(-23.841 -146.996)" fill="#1a1818"/>
      <path id="Path_29102" data-name="Path 29102" d="M46.941,181.868a5.621,5.621,0,0,1,.428-1.03c.092-.083.272-.062.178.2l-.361.9Z" transform="translate(-38.918 -149.896)" fill="#1a1818"/>
      <path id="Path_29103" data-name="Path 29103" d="M23.083,180.419a6.574,6.574,0,0,0-.446-1.209c-.1-.1-.326-.087-.238.213l.367,1.042Z" transform="translate(-18.554 -148.535)" fill="#1a1818"/>
      <path id="Path_29104" data-name="Path 29104" d="M18.394,181.914a6.878,6.878,0,0,0-.377-1.05c-.075-.088-.26-.088-.187.188l.316.919Z" transform="translate(-14.769 -149.91)" fill="#1a1818"/>
      <path id="Path_29105" data-name="Path 29105" d="M99.912,239.905v-1.18s.2-.54.447,0c.009.05,0,1.18,0,1.18Z" transform="translate(-82.836 -197.727)" fill="#1a1818"/>
      <path id="Path_29106" data-name="Path 29106" d="M96.951,239.061l-2.089,0V235.8l2.089.005ZM95,238.922l1.822.005v-2.989L95,235.933Z" transform="translate(-78.649 -195.499)" fill="#1a1818"/>
      <path id="Path_29107" data-name="Path 29107" d="M76.021,239.905v-1.18s.2-.54.447,0c.009.05,0,1.18,0,1.18Z" transform="translate(-63.029 -197.727)" fill="#1a1818"/>
      <path id="Path_29108" data-name="Path 29108" d="M73.093,239.055h-2.1V235.8h2.1Zm-1.964-.134h1.83v-2.989h-1.83Z" transform="translate(-58.862 -195.499)" fill="#1a1818"/>
      <path id="Path_29109" data-name="Path 29109" d="M52.691,239.905v-1.18s.2-.54.447,0c.008.05,0,1.18,0,1.18Z" transform="translate(-43.686 -197.727)" fill="#1a1818"/>
      <path id="Path_29110" data-name="Path 29110" d="M49.452,239.055H47.346V235.8h2.106Zm-1.972-.134h1.838v-2.989H47.48Z" transform="translate(-39.254 -195.499)" fill="#1a1818"/>
      <path id="Path_29111" data-name="Path 29111" d="M28.946,239.905v-1.18s.2-.54.446,0c.009.05,0,1.18,0,1.18Z" transform="translate(-23.999 -197.727)" fill="#1a1818"/>
      <path id="Path_29112" data-name="Path 29112" d="M25.924,239.055H23.818V235.8h2.106Zm-1.972-.134H25.79v-2.989H23.952Z" transform="translate(-19.747 -195.499)" fill="#1a1818"/>
      <rect id="Rectangle_3708" data-name="Rectangle 3708" width="1.973" height="3.123" transform="translate(20.234 40.366)" fill="#b38f21"/>
      <path id="Path_29113" data-name="Path 29113" d="M120.106,239.055H118V235.8h2.107Zm-1.973-.134h1.839v-2.989h-1.839Z" transform="translate(-97.832 -195.499)" fill="#1a1818"/>
      <path id="Path_29114" data-name="Path 29114" d="M123.118,239.905v-1.18s.2-.54.447,0c.008.05,0,1.18,0,1.18Z" transform="translate(-102.076 -197.727)" fill="#1a1818"/>
      <rect id="Rectangle_3709" data-name="Rectangle 3709" width="1.973" height="3.123" transform="translate(24.226 40.366)" fill="#b38f21"/>
      <path id="Path_29115" data-name="Path 29115" d="M143.462,239.055h-2.106V235.8h2.106Zm-1.972-.134h1.838v-2.989H141.49Z" transform="translate(-117.197 -195.499)" fill="#1a1818"/>
      <path id="Path_29116" data-name="Path 29116" d="M146.475,239.905v-1.18s.2-.54.447,0c.008.05,0,1.18,0,1.18Z" transform="translate(-121.442 -197.727)" fill="#1a1818"/>
      <rect id="Rectangle_3710" data-name="Rectangle 3710" width="1.972" height="3.123" transform="translate(0.119 40.366)" fill="#b38f21"/>
      <path id="Path_29117" data-name="Path 29117" d="M2.413,239.055H.307V235.8H2.413Zm-1.972-.134H2.279v-2.989H.441Z" transform="translate(-0.255 -195.499)" fill="#1a1818"/>
      <path id="Path_29118" data-name="Path 29118" d="M5.432,239.905v-1.18s.2-.54.447,0c.009.05,0,1.18,0,1.18Z" transform="translate(-4.504 -197.727)" fill="#1a1818"/>
      <path id="Path_29119" data-name="Path 29119" d="M66.258,229.61l-2.434-.783.073-.122-3.772-3.772h-2.76l-.326-.493h-2.6v-1.221c-.36-.552-.761-.527-.761-.527V224.3H53.4v-4.4a.815.815,0,0,0-1.346,0v4.549H51.4v.109h-.636v-.376H51.4v-.736h-.633v-3.529a.8.8,0,0,0-1.338-.006v3.546H49.11v.725h.323v.379h-.726v-.529h-.456l.017-4.968,4.154-.267v-.223H48.262v-.423l1.215-.519h-1.2v-1.8l2.263-.217v-.056H48.274v-1.477h.5v-.162H48.24v-.7h-.29v.7h-.825v.162h.8v1.477H45.14v.09l2.787.178v1.806H46.634l.959.513v.424H43.044v.223l4.527.267-.089,2.1H46.367v.647l1.048.669-.075,1.556h-2.5v1.388h-.267l-.016,2.739-11.926-.264,1.312.61L35,229l-2.509.167a11.634,11.634,0,0,1-.914,3.813l.111.424,22.228.7,8.429-.18,3.211.749.469-.9.435-.937-.4-2.643Z" transform="translate(-26.184 -176.783)" fill="#292311"/>
      <path id="Path_29120" data-name="Path 29120" d="M67.009,287.964a.645.645,0,0,1-.214.027l-.31.561,4.206.092.686.082c-.156,0,.279-.228.167-.351.234-.145-.82-.263-.82-.263l-.3-1.514H68.651v-.4H68v.379h-.87s-.039.2-.081.362a.3.3,0,0,1,.174.117c-1.045-.016-3.907-.1-3.907-.1l-.033.412a19.07,19.07,0,0,0,3.721.6" transform="translate(-52.472 -237.283)" fill="#292311"/>
      <path id="Path_29121" data-name="Path 29121" d="M65.4,305.557l-3-.825-9.026.318L31.5,304.262l-.121-.46.005-.011a11.689,11.689,0,0,0,.911-3.8v-.03L34.7,299.8l-2.4-1.116.16,0,12.305.272,0,.067-12.146-.269,2.348,1.091-2.61.174a11.694,11.694,0,0,1-.91,3.785l.1.388,21.835.787,9.034-.318h0l2.953.813.422-.648.6-1.732.33-1.753-.659-.879-3.241-1.043-17.448-.388,0-.067,17.462.39,3.266,1.051.69.919-.337,1.787-.6,1.744Z" transform="translate(-26.013 -247.637)" fill="#fff"/>
      <path id="Path_29122" data-name="Path 29122" d="M115.045,320.336h-.021l-24.671-.247,0-.339,24.856.247Zm-24.624-.313,24.583.246.1-.205-24.682-.245Z" transform="translate(-74.911 -265.103)" fill="#fff"/>
      <path id="Path_29123" data-name="Path 29123" d="M129.961,310.665l-4.973-.051,0-.339,4.973.051Zm-4.905-.117,4.839.05,0-.2-4.839-.05Z" transform="translate(-103.627 -257.247)" fill="#fff"/>
      <path id="Path_29124" data-name="Path 29124" d="M129.561,304.85a.234.234,0,1,1,.234-.234.234.234,0,0,1-.234.234m0-.4a.167.167,0,1,0,.167.167.167.167,0,0,0-.167-.167" transform="translate(-107.224 -252.361)" fill="#fff"/>
      <path id="Path_29125" data-name="Path 29125" d="M207.182,307a.234.234,0,1,1,.234-.234.235.235,0,0,1-.234.234m0-.4a.167.167,0,1,0,.167.167.167.167,0,0,0-.167-.167" transform="translate(-171.579 -254.146)" fill="#fff"/>
      <path id="Path_29126" data-name="Path 29126" d="M215.01,307.262a.234.234,0,1,1,.234-.234.235.235,0,0,1-.234.234m0-.4a.167.167,0,1,0,.167.167.167.167,0,0,0-.167-.167" transform="translate(-178.069 -254.361)" fill="#fff"/>
      <path id="Path_29127" data-name="Path 29127" d="M164.578,305.7a.234.234,0,1,1,.234-.234.235.235,0,0,1-.234.234m0-.4a.167.167,0,1,0,.167.167.167.167,0,0,0-.167-.167" transform="translate(-136.257 -253.063)" fill="#fff"/>
      <path id="Path_29128" data-name="Path 29128" d="M172.505,305.959a.234.234,0,1,1,.234-.234.235.235,0,0,1-.234.234m0-.4a.167.167,0,1,0,.167.167.167.167,0,0,0-.167-.167" transform="translate(-142.829 -253.28)" fill="#fff"/>
      <path id="Path_29129" data-name="Path 29129" d="M180.432,306.089a.234.234,0,1,1,.234-.234.235.235,0,0,1-.234.234m0-.4a.167.167,0,1,0,.167.167.167.167,0,0,0-.167-.167" transform="translate(-149.401 -253.389)" fill="#fff"/>
      <path id="Path_29130" data-name="Path 29130" d="M56.736,302.7a.234.234,0,1,1,.234-.234.235.235,0,0,1-.234.234m0-.4a.167.167,0,1,0,.167.167.167.167,0,0,0-.167-.167" transform="translate(-46.845 -250.575)" fill="#fff"/>
      <path id="Path_29131" data-name="Path 29131" d="M64.663,303.089a.234.234,0,1,1,.234-.234.235.235,0,0,1-.234.234m0-.4a.167.167,0,1,0,.167.167.167.167,0,0,0-.167-.167" transform="translate(-53.418 -250.901)" fill="#fff"/>
      <path id="Path_29132" data-name="Path 29132" d="M72.589,303.089a.234.234,0,1,1,.234-.234.235.235,0,0,1-.234.234m0-.4a.167.167,0,1,0,.167.167.167.167,0,0,0-.167-.167" transform="translate(-59.989 -250.901)" fill="#fff"/>
      <path id="Path_29133" data-name="Path 29133" d="M121.619,304.653a.234.234,0,1,1,.234-.234.234.234,0,0,1-.234.234m0-.4a.167.167,0,1,0,.167.167.167.167,0,0,0-.167-.167" transform="translate(-100.64 -252.198)" fill="#fff"/>
      <path id="Path_29134" data-name="Path 29134" d="M137.471,305.046a.234.234,0,1,1,.234-.234.235.235,0,0,1-.234.234m0-.4a.167.167,0,1,0,.167.167.167.167,0,0,0-.167-.167" transform="translate(-113.782 -252.523)" fill="#fff"/>
      <path id="Path_29135" data-name="Path 29135" d="M105.335,298.187h-.067v-.74l-.439,0a1.186,1.186,0,0,0-1.074.024,1.1,1.1,0,0,0,.942.225l.036,0v.4h-.067v-.332c-.5.03-.841-.067-.987-.285l-.018-.028.028-.019a1.235,1.235,0,0,1,1.164-.05h.483Z" transform="translate(-85.945 -246.452)" fill="#fff"/>
      <path id="Path_29136" data-name="Path 29136" d="M104.288,303.034a1.2,1.2,0,0,1-.621-.174l-.034-.021.026-.03c.209-.241.423-.3.984-.281v-.333h.067v.4l-.035,0c-.578-.027-.763.036-.938.226a1.143,1.143,0,0,0,1.068.024l.008,0h.433V302.2h.067v.708h-.482a1.221,1.221,0,0,1-.541.125" transform="translate(-85.921 -250.548)" fill="#fff"/>
      <rect id="Rectangle_3711" data-name="Rectangle 3711" width="0.067" height="0.167" transform="translate(18.721 51.544)" fill="#fff"/>
      <path id="Path_29137" data-name="Path 29137" d="M96.822,301.05c0-.133.035-.221.108-.259.133-.071.339.056.385.086h1.71v.067H97.293l-.009-.006c-.059-.041-.232-.137-.324-.088-.049.026-.073.093-.072.2Z" transform="translate(-80.274 -249.366)" fill="#fff"/>
      <path id="Path_29138" data-name="Path 29138" d="M97.033,302.6a.207.207,0,0,1-.1-.024.272.272,0,0,1-.11-.265h.067c0,.108.024.177.075.205.093.052.264-.036.322-.074l.008-.005h1.73v.067h-1.71a.615.615,0,0,1-.28.095" transform="translate(-80.274 -250.642)" fill="#fff"/>
      <path id="Path_29139" data-name="Path 29139" d="M51.672,311.672l-.69-.372.359-.649.048-.4.486-.326.019.018c.012.011.3.282-.17.867-.084.126-.194.3-.239.372l.318.151.371-.6-.033-.433,0-.007a.328.328,0,0,1,.436-.169l.038.014-.021.035-.91,1.482Zm-.6-.4.574.31.121-.2-.379-.18.02-.032s.152-.244.261-.408c.365-.455.246-.692.2-.759l-.414.278-.049.392Zm1.137-.971.024.324.284-.462a.255.255,0,0,0-.308.138" transform="translate(-42.269 -256.953)" fill="#fff"/>
      <path id="Path_29140" data-name="Path 29140" d="M57.459,313.321l-.7-.347.012-.029s.532-1.247.682-1.6l.016-.037.033.022a.329.329,0,0,1,.115.453l-.011.011-.365.22-.278.653.307.172c.032-.077.111-.268.166-.412.2-.719.592-.642.608-.638l.026.006.015.585-.3.273Zm-.616-.379.585.289.3-.624.283-.257-.013-.5h-.007c-.09,0-.343.051-.5.6-.071.187-.181.449-.182.452l-.015.034-.366-.2-.091.213m.653-1.532-.213.5.279-.168a.256.256,0,0,0-.066-.331" transform="translate(-47.056 -258.104)" fill="#fff"/>
      <path id="Path_29141" data-name="Path 29141" d="M54.873,319.73a.22.22,0,0,1-.116-.036.232.232,0,0,1-.084-.291l.062.026a.169.169,0,0,0,.058.208c.051.032.122.054.216-.051l.136-.27.06.03-.143.281a.255.255,0,0,1-.188.1" transform="translate(-45.312 -264.743)" fill="#fff"/>
      <path id="Path_29142" data-name="Path 29142" d="M60.284,311.14a.218.218,0,0,0-.125-.061l.009-.066a.284.284,0,0,1,.168.086Z" transform="translate(-49.877 -257.859)" fill="#fff"/>
      <path id="Path_29143" data-name="Path 29143" d="M85.965,288.368l-4.3-.094.348-.63.024.005a.392.392,0,0,0,.068.005c.133,0,.36-.054.394-.419.045-.483-.118-.54-.206-.571l-.043-.016.008-.029c.041-.156.08-.358.08-.36l.005-.027h.864v-.379h.713v.4h1.767l.313,1.6-.035,0a1.373,1.373,0,0,0-.442.153.652.652,0,0,0,.4.21h.031Zm-4.186-.159,4.115.09v-.012a.788.788,0,0,1-.445-.26l-.027-.03.034-.021a1.413,1.413,0,0,1,.469-.177l-.289-1.478H83.856v-.4h-.58v.379H82.4c-.011.056-.039.19-.069.308.108.039.284.124.236.635-.041.433-.336.48-.461.48a.476.476,0,0,1-.056,0Z" transform="translate(-67.71 -236.999)" fill="#fff"/>
      <path id="Path_29144" data-name="Path 29144" d="M66.635,291.384a21.517,21.517,0,0,1-3.529-.62l-.028-.007.038-.472h.032c.029,0,2.891.085,3.916.1v.067c-.967-.014-3.567-.09-3.885-.1l-.029.352a17.807,17.807,0,0,0,3.692.6l.011.057a1.693,1.693,0,0,1-.218.023" transform="translate(-52.298 -240.674)" fill="#fff"/>
      <path id="Path_29145" data-name="Path 29145" d="M119.292,228.536l-.057-.034.062-.1-3.743-3.743H112.79l-.326-.493h-2.616v-1.245a.976.976,0,0,0-.694-.5v1.6h-.343V219.6a.933.933,0,0,0-.728-.332.843.843,0,0,0-.552.329v4.572h-.652v.109h-.7v-.443h.635v-.669h-.633v-3.55a.875.875,0,0,0-.641-.357h-.026a.9.9,0,0,0-.6.35v3.567h-.323v.658h.323v.446h-.793v-.53h-.456v-.034l.017-5,4.153-.267v-.158H103.67v-.479l1.085-.463h-1.074v-1.859l.03,0,2.15-.207h-2.181V213.74h.5v-.095h-.535v-.7h-.223v.7H102.6v.095h.8v1.544h-2.787v.025l2.787.178v1.871h-1.193l.859.459v.477H98.519v.158l4.528.268-.092,2.161h-1.114v.6l1.049.669v.02l-.077,1.587h-2.5v1.388h-.268l-.017,2.175h-.067l.017-2.241h.267v-1.388h2.5l.073-1.5-1.047-.668v-.7h1.117l.086-2.031-4.526-.267v-.288H103v-.37l-1.059-.566h1.393v-1.742l-2.787-.178v-.154h2.787v-1.41h-.8v-.229h.825v-.7h.357v.7h.535v.229h-.5v1.41h2.263v.12l-.03,0-2.233.214v1.732h1.334l-1.345.574v.368H107.9v.288l-4.154.268-.017,4.9h.456v.53h.659V223.9h-.323v-.792h.323v-3.523l.006-.009a.966.966,0,0,1,.663-.386.933.933,0,0,1,.728.389l.008.01V223.1h.633v.8h-.636v.31h.569V224.1h.652v-4.526l.006-.009a.906.906,0,0,1,.607-.366,1,1,0,0,1,.791.361l.01.01v4.379h.209v-1.6l.031,0c.017,0,.425-.02.791.542l.005.008v1.2H112.5l.326.493h2.755l.01.01,3.79,3.79Z" transform="translate(-81.626 -176.498)" fill="#fff"/>
      <rect id="Rectangle_3712" data-name="Rectangle 3712" width="0.109" height="2.166" transform="translate(6.261 48.894)" fill="#322a14"/>
      <path id="Path_29146" data-name="Path 29146" d="M36.617,288.12h-.176v-2.233h.176Zm-.109-.067h.042v-2.1h-.042Z" transform="translate(-30.213 -237.027)" fill="#fff"/>
      <path id="Path_29147" data-name="Path 29147" d="M37.352,225.291l-.645-1.131L51.876,210.1l.046.049L36.792,224.173l.618,1.085Z" transform="translate(-30.434 -174.19)" fill="#fff"/>
      <rect id="Rectangle_3713" data-name="Rectangle 3713" width="2.667" height="0.067" transform="translate(19.505 38.725) rotate(-33.651)" fill="#fff"/>
      <rect id="Rectangle_3714" data-name="Rectangle 3714" width="0.067" height="2.497" transform="matrix(0.777, -0.629, 0.629, 0.777, 19.465, 38.907)" fill="#fff"/>
      <rect id="Rectangle_3715" data-name="Rectangle 3715" width="2.769" height="0.067" transform="translate(18.222 41.731) rotate(-14.214)" fill="#fff"/>
      <rect id="Rectangle_3716" data-name="Rectangle 3716" width="0.067" height="1.454" transform="translate(22.063 44.488) rotate(-53.257)" fill="#fff"/>
      <path id="Path_29148" data-name="Path 29148" d="M109.4,248.027l-3.136-1.956.02-.032.081.016,3.07,1.915Z" transform="translate(-88.099 -203.989)" fill="#fff"/>
      <rect id="Rectangle_3717" data-name="Rectangle 3717" width="2.485" height="0.067" transform="translate(19.102 47.207) rotate(-64.879)" fill="#fff"/>
      <path id="Path_29149" data-name="Path 29149" d="M119.653,250.038l-.06-.029.913-1.932.06.029Z" transform="translate(-99.153 -205.68)" fill="#fff"/>
      <rect id="Rectangle_3718" data-name="Rectangle 3718" width="0.067" height="2.086" transform="translate(22.06 37.348) rotate(-46.792)" fill="#fff"/>
      <path id="Path_29150" data-name="Path 29150" d="M119.166,223.289l-.062-.026,1.357-3.184.062.026Z" transform="translate(-98.749 -182.466)" fill="#fff"/>
      <rect id="Rectangle_3719" data-name="Rectangle 3719" width="0.63" height="0.067" transform="translate(21.471 38.743) rotate(-67.11)" fill="#fff"/>
      <path id="Path_29151" data-name="Path 29151" d="M120.7,230.035l-.062-.026.772-1.813.062.026Z" transform="translate(-100.024 -189.195)" fill="#fff"/>
      <rect id="Rectangle_3720" data-name="Rectangle 3720" width="0.067" height="3.414" transform="matrix(0.931, -0.366, 0.366, 0.931, 22.058, 37.638)" fill="#fff"/>
      <rect id="Rectangle_3721" data-name="Rectangle 3721" width="0.067" height="0.637" transform="matrix(0.924, -0.384, 0.384, 0.924, 22.056, 38.181)" fill="#fff"/>
      <path id="Path_29152" data-name="Path 29152" d="M131.622,230.035l-.671-1.814.063-.023.671,1.814Z" transform="translate(-108.571 -189.197)" fill="#fff"/>
      <path id="Path_29153" data-name="Path 29153" d="M134.877,230.253l-2.389-.647.017-.064,2.261.613-1.091-2.8.062-.024Z" transform="translate(-109.845 -188.475)" fill="#fff"/>
      <rect id="Rectangle_3722" data-name="Rectangle 3722" width="0.067" height="1.699" transform="matrix(0.641, -0.767, 0.767, 0.641, 24.554, 46.143)" fill="#fff"/>
      <rect id="Rectangle_3723" data-name="Rectangle 3723" width="0.067" height="1.825" transform="matrix(0.77, -0.638, 0.638, 0.77, 22.058, 42.274)" fill="#fff"/>
      <path id="Path_29154" data-name="Path 29154" d="M147.406,270.727l-2.392-4.85-1.265-1.5.051-.043,1.27,1.5,2.4,4.857Z" transform="translate(-119.182 -219.159)" fill="#fff"/>
      <rect id="Rectangle_3724" data-name="Rectangle 3724" width="0.067" height="0.818" transform="translate(22.904 40.973) rotate(-12.997)" fill="#fff"/>
      <rect id="Rectangle_3725" data-name="Rectangle 3725" width="0.067" height="0.784" transform="translate(23.172 42.181) rotate(-18.04)" fill="#fff"/>
      <rect id="Rectangle_3726" data-name="Rectangle 3726" width="0.067" height="2.273" transform="translate(25.012 42.064) rotate(-21.291)" fill="#fff"/>
      <rect id="Rectangle_3727" data-name="Rectangle 3727" width="0.067" height="2.709" transform="matrix(0.881, -0.472, 0.472, 0.881, 24.56, 43.984)" fill="#fff"/>
      <rect id="Rectangle_3728" data-name="Rectangle 3728" width="0.067" height="10.46" transform="translate(22.046 43.378) rotate(-17.146)" fill="#fff"/>
      <path id="Path_29155" data-name="Path 29155" d="M153.505,255.443l-4.8-9.575.06-.03,4.8,9.575Z" transform="translate(-123.293 -203.822)" fill="#fff"/>
      <rect id="Rectangle_3729" data-name="Rectangle 3729" width="16.826" height="0.067" transform="translate(18.353 49.211)" fill="#fff"/>
      <rect id="Rectangle_3730" data-name="Rectangle 3730" width="0.067" height="3.858" transform="translate(25.186 47.639)" fill="#fff"/>
      <rect id="Rectangle_3731" data-name="Rectangle 3731" width="0.067" height="3.914" transform="translate(28.213 47.639)" fill="#fff"/>
      <rect id="Rectangle_3732" data-name="Rectangle 3732" width="0.067" height="3.98" transform="translate(30.504 47.639)" fill="#fff"/>
      <rect id="Rectangle_3733" data-name="Rectangle 3733" width="0.067" height="3.682" transform="translate(22.978 47.748)" fill="#fff"/>
      <rect id="Rectangle_3734" data-name="Rectangle 3734" width="0.12" height="1.472" transform="translate(6.221 47.427)" fill="#fff"/>
      <rect id="Rectangle_3735" data-name="Rectangle 3735" width="0.08" height="0.995" transform="translate(6.218 46.61)" fill="#fff"/>
      <rect id="Rectangle_3736" data-name="Rectangle 3736" width="0.385" height="0.201" transform="translate(6.01 46.552)" fill="#fff"/>
      <path id="Path_29156" data-name="Path 29156" d="M10.686,324.63c3.6-1.539,5.166-.57,7.672.425.255.1,1.16.7,4.556-.4s4.094-.549,6.226.355a7.127,7.127,0,0,0,5.806-.121c1.8-.679,2.61-1.136,6,.347,2.712,1.186,4.177.411,4.177.411s-1.042,4.165-8.054,5.142c-3.925-.007-9.255.441-11.15,6.6,0,0-.848-5.069-7.136-6.362-3.83-.394-10.065-.075-12.3-5.964-.043-.112.608,1.108,4.2-.43" transform="translate(-5.372 -268.482)" fill="#004d9b"/>
      <path id="Path_29157" data-name="Path 29157" d="M46.866,349.3a5.373,5.373,0,0,1-2.347-.585c-.344-.15-.634-.3-.914-.453-1.159-.614-2-1.057-4.828-.063-1.716.6-4.134,1.152-5.905.346l-.031-.014c-.021-.01-.061-.032-.116-.063a5.78,5.78,0,0,0-5.051-.537,25.785,25.785,0,0,1-2.529.852l-.033-.13a25.734,25.734,0,0,0,2.515-.848,5.91,5.91,0,0,1,5.164.546c.05.029.086.049.1.057l.032.014c1.73.788,4.112.244,5.806-.351,2.887-1.014,3.746-.559,4.934.071.278.148.566.3.905.448,1.224.535,2.489,1.089,5.931-.318a5.6,5.6,0,0,1,4.887-.15c.326.107.7.228,1.111.348.338.1.6.179.836.263l-.044.126c-.238-.083-.494-.163-.829-.261-.416-.121-.788-.242-1.115-.35a5.489,5.489,0,0,0-4.8.147,9.934,9.934,0,0,1-3.689.9" transform="translate(-20.819 -288.067)" fill="#fff"/>
      <path id="Path_29158" data-name="Path 29158" d="M107.583,372.2a6.148,6.148,0,0,0-6.257-.08l-.06-.12a6.266,6.266,0,0,1,6.38.082Z" transform="translate(-83.959 -307.734)" fill="#fff"/>
      <path id="Path_29159" data-name="Path 29159" d="M24.515,337.689l-.039-.284c-.007-.051-.771-5.064-6.938-6.333a10.681,10.681,0,0,0-2.3-.232c-3.129-.119-7.858-.3-10.352-6.11L5,324.673c.007.014.777,1.374,4.261-.117,3.246-1.389,4.834-.769,7.031.088.259.1.528.206.81.312,1,.377,1.681.446,4.385-.4,3.193-1,4.035-.64,5.88.154l.427.183a6.882,6.882,0,0,0,5.447-.035l.367-.123c2.672-.9,2.891-.971,6.174.426a5.454,5.454,0,0,0,3.878.427l.04-.013.045.034c.019.02.076.08-.066.446-.169.434-1.843,4.25-8.589,4.7-3.549.163-8.407.386-10.489,6.666ZM5.165,325.036c2.5,5.381,7.045,5.555,10.074,5.67a10.742,10.742,0,0,1,2.33.236c5.461,1.123,6.746,5.155,6.989,6.2,2.153-6.138,6.987-6.36,10.528-6.523,4.748-.316,6.951-2.348,7.842-3.531a3.806,3.806,0,0,0,.711-1.352,5.666,5.666,0,0,1-3.908-.452c-3.236-1.378-3.451-1.306-6.079-.422l-.367.123a7,7,0,0,1-5.542.031l-.428-.183c-1.813-.781-2.641-1.137-5.787-.149-2.744.861-3.438.789-4.472.4-.283-.106-.552-.211-.812-.313-2.249-.878-3.734-1.457-6.93-.09-2.542,1.087-3.686.7-4.152.357" transform="translate(-4.048 -268.409)" fill="#fff"/>
      <path id="Path_29160" data-name="Path 29160" d="M116.469,41.351v-.167h-.3V40.5H116v.688h-.39V40.5h-.167v.688h-.39V40.5h-.167v.688h-.39V40.5h-.167v.688h-.318v.167h.318v.523h-.318v.167h.318V42.8l.084.163.083-.163v-.755h.39V42.8l.084.163.084-.163v-.755h.39V42.8l.084.163.084-.163v-.755H116V42.8l.084.163.084-.163v-.755h.3v-.167h-.3v-.523Zm-1.97,0h.39v.523h-.39Zm.557,0h.39v.523h-.39Zm.947.523h-.39v-.523H116Z" transform="translate(-94.527 -33.575)" fill="#f0f5f4"/>
      <path id="Path_29161" data-name="Path 29161" d="M115.464,42.923l-.1-.193V41.99H115l0,.747-.1.186-.1-.192V41.99h-.363v.747l-.1.186-.1-.193V41.99h-.318V41.8h.318v-.5h-.318v-.194h.318v-.688h.194v.688h.363v-.688H115v.688h.363v-.688h.194v.688h.363v-.688h.194v.688h.3V41.3h-.3v.5h.3v.194h-.3l0,.747-.1.186-.1-.193V41.99h-.363v.747Zm-.627-.2.07.137.07-.137v-.765h.416v.765l.07.137.07-.137v-.765h.417v.765l.07.137.07-.137v-.765h.3v-.141h-.3v-.549h.3v-.14h-.3v-.688h-.14v.688h-.417v-.688h-.14v.688h-.416v-.688h-.14v.688h-.417v-.688h-.14v.688h-.318v.14h.318v.549h-.318v.141h.318v.765l.07.137.07-.137v-.765h.417Zm1.114-.905h-.417v-.549h.417Zm-.39-.027h.363v-.5h-.363Zm-.167.027h-.416v-.549h.416ZM115,41.8h.363v-.5H115Zm-.167.027h-.417v-.549h.417Zm-.39-.027h.363v-.5h-.363Z" transform="translate(-94.463 -33.511)" fill="#1a1818"/>
      <path id="Path_29162" data-name="Path 29162" d="M55.109,5l-.354.791-.485-.209.368-.811L54.011,4.5l-.376.828-.452-.192.385-.844-.6-.276L52.188,5.8l-.009.293-.469-.159-.242.769L51,6.5l.217-.736-.636-.192-.2.669-.51-.2.176-.711L49.386,5.2l-.134.619-.535-.167.142-.711L48.174,4.8l-.125.644-.7-.209.151-.677-.677-.125-.125.669-.661-.167.1-.686-.677-.109-.075.661-.644-.109.075-.719-.744-.084-.05.694-.677-.059L43.4,3.67l-.753-.059-.058.886-.418-.033.008-.845L43,3.168,43.332.877,42.4.743l-.151,1.07-.97-.134L41.35.617,40.372.559l-.067,1.02-.953-.05L39.36.358H37.838v1.2l-.987.042L36.818.517l-.978.067.067,1.1-.978.092L34.8.743l-.945.143.326,2.258.845.477V4.5l-.435.009-.042-.9-.744.05.042.895-.686.084L33.1,3.921l-.7.058.067.753-.644.1-.075-.711-.686.109.092.736-.627.151L30.4,4.422l-.686.151.134.7-.694.2L29.007,4.8l-.669.176.142.7-.535.167-.15-.644-.636.15.167.736-.51.167-.209-.677L26,5.769l.209.761-.5.209-.226-.8-.418.142-.042-.284-.778-1.748-.552.267.376.836-.468.2-.368-.819-.627.293.376.811-.477.234-.385-.836-.544.276.811,1.79.725.6,2.72,6.311-.4.134.8,1.9a32.727,32.727,0,0,1,24.686.045l.8-1.873-.4-.178,2.765-6.289.736-.669.847-1.829ZM39.862,11.831h-.318v.92H37.65l0-.92h-.326l-.008-3.9A1.553,1.553,0,0,1,39.862,8Z" transform="translate(-17.886 -0.297)" fill="#b38f21"/>
      <path id="Path_29163" data-name="Path 29163" d="M122.215,49.486h-1.026v-.134h.892v-.9h.29V44.625h.134v3.958h-.29Z" transform="translate(-100.477 -36.998)" fill="#1a1818"/>
      <path id="Path_29164" data-name="Path 29164" d="M104.047,12.809a25.691,25.691,0,0,0-8.8-.011l-.027-.131a25.848,25.848,0,0,1,8.852.01Z" transform="translate(-78.946 -10.189)" fill="#1a1818"/>
      <path id="Path_29165" data-name="Path 29165" d="M137.76,7.87c-.306-.046-.611-.085-.907-.117l-.037,0,.012-.133.026,0c.309.033.616.073.924.119Z" transform="translate(-113.433 -6.314)" fill="#1a1818"/>
      <path id="Path_29166" data-name="Path 29166" d="M126.707,7.047c-.305-.02-.608-.034-.9-.043l0-.134c.294.009.6.023.906.043Z" transform="translate(-104.305 -5.696)" fill="#1a1818"/>
      <path id="Path_29167" data-name="Path 29167" d="M111.322,7.049l-.009-.133c.312-.02.626-.034.933-.043l0,.134c-.3.009-.617.023-.928.043" transform="translate(-92.289 -5.697)" fill="#1a1818"/>
      <path id="Path_29168" data-name="Path 29168" d="M99.7,7.872l-.019-.132c.312-.045.635-.085.96-.118l.014.133c-.324.033-.645.073-.955.117" transform="translate(-82.645 -6.319)" fill="#1a1818"/>
      <path id="Path_29169" data-name="Path 29169" d="M151.563,30.937a34.179,34.179,0,0,0-9.717-2.164l.008-.133a34.321,34.321,0,0,1,9.762,2.174Z" transform="translate(-117.604 -23.745)" fill="#1a1818"/>
      <path id="Path_29170" data-name="Path 29170" d="M151.807,26.6a25.135,25.135,0,0,0-9.938-2.526v-.134a25.237,25.237,0,0,1,10,2.539Z" transform="translate(-117.622 -19.851)" fill="#1a1818"/>
      <path id="Path_29171" data-name="Path 29171" d="M42.3,26.744l-.058-.12a24.589,24.589,0,0,1,9.94-2.5l0,.134a24.412,24.412,0,0,0-9.88,2.49" transform="translate(-35.021 -19.998)" fill="#1a1818"/>
      <path id="Path_29172" data-name="Path 29172" d="M151.154,32.536a33.728,33.728,0,0,0-9.7-2.2l.009-.133a33.866,33.866,0,0,1,9.746,2.208Z" transform="translate(-117.279 -25.044)" fill="#1a1818"/>
      <path id="Path_29173" data-name="Path 29173" d="M96.932,15.646l-.029-.131a27.23,27.23,0,0,1,8.374-.023l-.017.133a27.078,27.078,0,0,0-8.328.021" transform="translate(-80.342 -12.604)" fill="#1a1818"/>
      <path id="Path_29174" data-name="Path 29174" d="M107.365,17.738a23.871,23.871,0,0,0-7.2,0l-.025-.131a23.994,23.994,0,0,1,7.242,0Z" transform="translate(-83.028 -14.372)" fill="#1a1818"/>
      <path id="Path_29175" data-name="Path 29175" d="M100.1,21.26l-.036-.129c.022-.006,2.291-.621,7.193-.03l-.016.133c-4.87-.588-7.118.02-7.14.026" transform="translate(-82.96 -17.282)" fill="#1a1818"/>
      <path id="Path_29176" data-name="Path 29176" d="M202.983,35.594a13.209,13.209,0,0,0-2.261-1.064l.044-.126a13.358,13.358,0,0,1,2.288,1.077Z" transform="translate(-166.417 -28.523)" fill="#1a1818"/>
      <path id="Path_29177" data-name="Path 29177" d="M202.36,38.536A10.259,10.259,0,0,0,200.4,37.6l.041-.127a10.391,10.391,0,0,1,1.988.954Z" transform="translate(-166.151 -31.064)" fill="#1a1818"/>
      <path id="Path_29178" data-name="Path 29178" d="M148.506,36.8a.268.268,0,1,1-.267-.268.267.267,0,0,1,.267.268" transform="translate(-122.682 -30.29)" fill="#1a1818"/>
      <path id="Path_29179" data-name="Path 29179" d="M161.619,38.759a.268.268,0,1,1-.268-.267.267.267,0,0,1,.268.267" transform="translate(-133.554 -31.913)" fill="#1a1818"/>
      <path id="Path_29180" data-name="Path 29180" d="M174.537,41.891a.268.268,0,1,1-.267-.268.268.268,0,0,1,.267.268" transform="translate(-144.264 -34.51)" fill="#1a1818"/>
      <path id="Path_29181" data-name="Path 29181" d="M185.008,44.728a.268.268,0,1,1-.267-.267.268.268,0,0,1,.267.267" transform="translate(-152.945 -36.862)" fill="#1a1818"/>
      <path id="Path_29182" data-name="Path 29182" d="M141.939,16.419h-.134v-.9l.824-.454.034-.279.133.016-.043.347-.815.449Z" transform="translate(-117.57 -12.261)" fill="#1a1818"/>
      <path id="Path_29183" data-name="Path 29183" d="M137.18,31.941l-.005-1.143.792-6.512.133.016-.791,6.5.006,1.134Z" transform="translate(-113.73 -20.136)" fill="#1a1818"/>
      <path id="Path_29184" data-name="Path 29184" d="M73.166,33.495l-.062-.025a33.364,33.364,0,0,0-17.35-2.022,29.648,29.648,0,0,0-7.417,2.008l-.056-.121a29.767,29.767,0,0,1,7.448-2.019,33.507,33.507,0,0,1,17.363,2l.711-1.758-.378-.16,2.8-6.372.693-.66.78-1.748-.413-.167-.354.793-.609-.262.368-.812-.5-.222-.376.827-.575-.245.385-.846-.469-.208-.467,1.061-.276.655-.015.946L72.832,28.3l-.125-.047,1.56-4.151.016-.95.281-.668.521-1.184.715.317-.384.844.328.14.377-.829.75.33-.368.811.362.156.353-.79.661.267-.857,1.908-.693.66L73.6,31.332l.374.158Z" transform="translate(-40.029 -17.664)" fill="#1a1818"/>
      <path id="Path_29185" data-name="Path 29185" d="M28.331,35.725l-.07-.114a13.34,13.34,0,0,1,2.288-1.077l.044.126a13.185,13.185,0,0,0-2.261,1.064" transform="translate(-23.431 -28.632)" fill="#1a1818"/>
      <path id="Path_29186" data-name="Path 29186" d="M30.42,38.666l-.07-.114a10.374,10.374,0,0,1,1.988-.954l.041.127a10.241,10.241,0,0,0-1.959.941" transform="translate(-25.163 -31.172)" fill="#1a1818"/>
      <path id="Path_29187" data-name="Path 29187" d="M25.95,33.542l-.8-1.972.383-.133-2.725-6.21-.708-.682-.324-.756-.5-1.067.625-.327.385.838.356-.175-.377-.812.749-.35.369.822.345-.148-.375-.834.673-.326.805,1.8.036,1,1.56,4.152-.125.047L24.74,24.232l-.036-1-.737-1.642-.432.209.378.839-.591.253-.367-.818-.505.236.376.81-.6.293-.384-.834-.387.2.444.953.319.745.708.681,2.789,6.355-.387.135.743,1.842Z" transform="translate(-17.645 -17.751)" fill="#1a1818"/>
      <path id="Path_29188" data-name="Path 29188" d="M114.84,46.031h-1.026v-.9h-.29V41.146l.015-.018a1.9,1.9,0,0,1,1.3-.67,1.7,1.7,0,0,1,1.307.708l-.1.087a1.594,1.594,0,0,0-1.192-.661h-.012a1.765,1.765,0,0,0-1.181.6v3.8h.29v.9h.892Z" transform="translate(-94.122 -33.543)" fill="#1a1818"/>
      <path id="Path_29189" data-name="Path 29189" d="M43.451,30.937l-.053-.123A34.321,34.321,0,0,1,53.16,28.64l.008.133a34.179,34.179,0,0,0-9.717,2.164" transform="translate(-35.981 -23.745)" fill="#1a1818"/>
      <path id="Path_29190" data-name="Path 29190" d="M44.132,32.5l-.055-.122A33.176,33.176,0,0,1,53.79,30.2l.008.134A33.023,33.023,0,0,0,44.132,32.5" transform="translate(-36.544 -25.043)" fill="#1a1818"/>
      <path id="Path_29191" data-name="Path 29191" d="M91.309,36.8a.268.268,0,1,0,.268-.268.268.268,0,0,0-.268.268" transform="translate(-75.704 -30.29)" fill="#1a1818"/>
      <path id="Path_29192" data-name="Path 29192" d="M78.2,38.759a.268.268,0,1,0,.268-.267.268.268,0,0,0-.268.267" transform="translate(-64.832 -31.913)" fill="#1a1818"/>
      <path id="Path_29193" data-name="Path 29193" d="M65.279,41.891a.268.268,0,1,0,.267-.268.267.267,0,0,0-.267.268" transform="translate(-54.122 -34.51)" fill="#1a1818"/>
      <path id="Path_29194" data-name="Path 29194" d="M54.807,44.728a.268.268,0,1,0,.268-.267.268.268,0,0,0-.268.267" transform="translate(-45.44 -36.862)" fill="#1a1818"/>
      <path id="Path_29195" data-name="Path 29195" d="M95.714,16.045H95.58v-.819l-.814-.448-.061-.422.132-.019.051.356.825.454Z" transform="translate(-78.52 -11.887)" fill="#1a1818"/>
      <path id="Path_29196" data-name="Path 29196" d="M100.762,31.908h-.134l.009-1.054-.811-6.55.133-.016.811,6.559Z" transform="translate(-82.765 -20.136)" fill="#1a1818"/>
      <path id="Path_29197" data-name="Path 29197" d="M33.131,51.642l-.794-1.967.38-.166-2.733-6.227.123-.054,2.786,6.35-.384.168.745,1.847Z" transform="translate(-24.86 -35.84)" fill="#1a1818"/>
      <path id="Path_29198" data-name="Path 29198" d="M118.109,2.23h-1.617V0h1.617ZM116.626,2.1h1.349V.134h-1.349Z" transform="translate(-96.583)" fill="#1a1818"/>
      <path id="Path_29199" data-name="Path 29199" d="M131.684,3.178l-1.1-.061.114-2.049,1.1.061Zm-.961-.187.835.046.1-1.781-.835-.046Z" transform="translate(-108.265 -0.887)" fill="#1a1818"/>
      <path id="Path_29200" data-name="Path 29200" d="M142.483,4.331l-1.051-.148.292-2.065,1.051.149Zm-.9-.262.786.111.255-1.8-.786-.111Z" transform="translate(-117.26 -1.755)" fill="#1a1818"/>
      <path id="Path_29201" data-name="Path 29201" d="M93.38,4.331l-.292-2.065,1.051-.149.292,2.065Zm-.141-1.951.254,1.8.786-.111-.255-1.8Z" transform="translate(-77.179 -1.755)" fill="#1a1818"/>
      <path id="Path_29202" data-name="Path 29202" d="M104.8,3.049,104.682,1l1.1-.061.114,2.048Zm.027-1.922.1,1.781.835-.046-.1-1.781Z" transform="translate(-86.791 -0.779)" fill="#1a1818"/>
      <path id="Path_29203" data-name="Path 29203" d="M145.132,19.954,145,19.946l.053-.856-.609-.037-.052.842-.133-.008.06-.976.877.054Z" transform="translate(-119.602 -15.68)" fill="#1a1818"/>
      <path id="Path_29204" data-name="Path 29204" d="M153.424,21.518l-.133-.011.055-.648-.575-.052-.053.589-.133-.012.065-.722.841.076Z" transform="translate(-126.507 -17.131)" fill="#1a1818"/>
      <path id="Path_29205" data-name="Path 29205" d="M161.223,22.891l-.132-.019.093-.658-.539-.076-.088.625-.132-.019.107-.758.8.113Z" transform="translate(-133.006 -18.229)" fill="#1a1818"/>
      <path id="Path_29206" data-name="Path 29206" d="M169.015,24.629l-.132-.025.118-.632-.535-.1-.1.557-.131-.025.129-.689.8.149Z" transform="translate(-139.48 -19.663)" fill="#1a1818"/>
      <path id="Path_29207" data-name="Path 29207" d="M177,26.858l-.131-.027L177,26.2l-.532-.111-.111.533-.131-.027.139-.664.795.166Z" transform="translate(-146.105 -21.499)" fill="#1a1818"/>
      <path id="Path_29208" data-name="Path 29208" d="M183.909,29.093l-.13-.03.144-.618-.512-.119-.136.585-.13-.03.167-.716.773.18Z" transform="translate(-151.843 -23.352)" fill="#1a1818"/>
      <path id="Path_29209" data-name="Path 29209" d="M190.514,31.382l-.128-.038.2-.665-.505-.148-.182.622-.128-.038.22-.751.762.223Z" transform="translate(-157.333 -25.176)" fill="#1a1818"/>
      <path id="Path_29210" data-name="Path 29210" d="M197.075,33.672l-.128-.038.078-.267L197,32.78l-.323-.095-.193.66-.128-.038.231-.788.543.159.031.7Z" transform="translate(-162.796 -26.962)" fill="#1a1818"/>
      <path id="Path_29211" data-name="Path 29211" d="M92.758,19.955l-.061-.989.876-.054.06.976L93.5,19.9l-.052-.842-.609.037.053.856Z" transform="translate(-76.854 -15.68)" fill="#1a1818"/>
      <path id="Path_29212" data-name="Path 29212" d="M84.622,21.568l-.075-.831.841-.076.072.8-.133.012-.06-.672-.575.052.063.7Z" transform="translate(-70.098 -17.131)" fill="#1a1818"/>
      <path id="Path_29213" data-name="Path 29213" d="M76.792,22.888l-.111-.787.8-.113.11.776-.132.019-.091-.643-.539.076.093.655Z" transform="translate(-63.576 -18.229)" fill="#1a1818"/>
      <path id="Path_29214" data-name="Path 29214" d="M68.927,24.646l-.146-.781.8-.149.138.738-.132.024-.113-.607-.535.1.121.649Z" transform="translate(-57.026 -19.663)" fill="#1a1818"/>
      <path id="Path_29215" data-name="Path 29215" d="M60.905,26.84l-.156-.744.794-.166.151.721-.131.027-.123-.59-.532.111.128.613Z" transform="translate(-50.367 -21.498)" fill="#1a1818"/>
      <path id="Path_29216" data-name="Path 29216" d="M53.975,29.132l-.184-.787.773-.18.165.705-.13.03-.134-.575-.512.119.153.657Z" transform="translate(-44.598 -23.352)" fill="#1a1818"/>
      <path id="Path_29217" data-name="Path 29217" d="M47.154,31.374l-.23-.785.762-.223.211.721-.128.038-.174-.592-.505.148.192.656Z" transform="translate(-38.904 -25.176)" fill="#1a1818"/>
      <path id="Path_29218" data-name="Path 29218" d="M42.139,33.35l-.195-.664-.321.094-.009.535-.134,0,.011-.634.544-.159.232.792Z" transform="translate(-34.391 -26.962)" fill="#1a1818"/>
      <path id="Path_29219" data-name="Path 29219" d="M201.249,45.005l-.46-.2.4-.908.46.2Zm-.372-.235.337.147.342-.785-.337-.147Z" transform="translate(-166.473 -36.395)" fill="#1a1818"/>
      <path id="Path_29220" data-name="Path 29220" d="M154.038,60.409l-.435-.023.045-.87.435.023Zm-.364-.086.3.016.038-.736-.3-.016Z" transform="translate(-127.351 -49.345)" fill="#1a1818"/>
      <path id="Path_29221" data-name="Path 29221" d="M37.5,45.071l-.4-.908.46-.2.4.908Zm-.308-.874.342.786.337-.147-.342-.786Z" transform="translate(-30.759 -36.448)" fill="#1a1818"/>
      <path id="Path_29222" data-name="Path 29222" d="M175.351,64.3l-.42-.115.23-.84.42.115Zm-.338-.162.291.08.194-.711-.291-.079Z" transform="translate(-145.034 -52.52)" fill="#1a1818"/>
      <path id="Path_29223" data-name="Path 29223" d="M86.2,60.311l-.045-.87.434-.023.045.87Zm.025-.806.038.736.3-.016-.038-.736Z" transform="translate(-71.426 -49.264)" fill="#1a1818"/>
      <path id="Path_29224" data-name="Path 29224" d="M64.061,64.2l-.229-.84.42-.115.229.84Zm-.147-.793.194.711.291-.08L64.2,63.33Z" transform="translate(-52.923 -52.438)" fill="#1a1818"/>
      <path id="Path_29225" data-name="Path 29225" d="M138.738,65.63H138.6v-1h-1.029v-.819h-.418v-1.1h.134v.962h.418v.819h1.029Z" transform="translate(-113.716 -51.993)" fill="#1a1818"/>
      <path id="Path_29226" data-name="Path 29226" d="M96.239,65.484H96.1V64.346h1.029v-.819h.418v-.962h.134v1.1h-.418v.819H96.239Z" transform="translate(-79.68 -51.872)" fill="#1a1818"/>
      <line id="Line_1874" data-name="Line 1874" x2="38.801" y2="39.514" transform="translate(0.363 15.021)" fill="#f0f5f4"/>
      <rect id="Rectangle_3737" data-name="Rectangle 3737" width="0.134" height="55.38" transform="translate(0.315 15.067) rotate(-44.478)" fill="#1a1818"/>
      <path id="Path_29227" data-name="Path 29227" d="M.79,87.758H41.6s.026,32.625-.156,37.811A11.516,11.516,0,0,1,40.9,128.7" transform="translate(-0.655 -72.76)" fill="#f0f5f4"/>
      <path id="Path_29228" data-name="Path 29228" d="M40.958,128.4l-.127-.042a11.488,11.488,0,0,0,.542-3.115c.177-5.013.158-36.077.156-37.742H.79v-.134l40.94,0v.065c0,.326-.042,32.685-.223,37.812a11.636,11.636,0,0,1-.549,3.152" transform="translate(-0.655 -72.435)" fill="#1a1818"/>
      <path id="Path_29229" data-name="Path 29229" d="M41.359,128.781a.134.134,0,0,1-.1-.04L1.38,88.123a.134.134,0,1,1,.191-.187l39.884,40.618a.134.134,0,0,1-.1.228" transform="translate(-1.112 -72.873)" fill="#1a1818"/>
      <path id="Path_29230" data-name="Path 29230" d="M20.408,141.69s0-.006,0-.016l.044-.006-.031,0-.015,0v0h0v-.006a7.84,7.84,0,0,0-1.657-3.486,8.3,8.3,0,0,0-2.914-2.253,12.285,12.285,0,0,0-5.128-1.058c-3.894-.043-6.781-1.263-8.583-3.626a10.528,10.528,0,0,1-1.964-5.9C-.023,120.214,0,87.886,0,87.56v-.2H.319l40.757.07v.134c0,.326.024,32.654-.156,37.778a10.775,10.775,0,0,1-1.644,5.447c-1.765,2.66-4.76,4.031-8.9,4.077a12.289,12.289,0,0,0-5.127,1.057,8.3,8.3,0,0,0-2.914,2.252,7.837,7.837,0,0,0-1.658,3.487v.01l-.012,0-.019,0,.031,0,0,.013-.116-.009Zm-20.139-54c0,2.286-.019,32.684.156,37.635a10.259,10.259,0,0,0,1.909,5.745c1.749,2.294,4.566,3.479,8.373,3.521a12.553,12.553,0,0,1,5.24,1.083A8.563,8.563,0,0,1,18.953,138a8.429,8.429,0,0,1,1.585,3.042A8.432,8.432,0,0,1,22.125,138a8.563,8.563,0,0,1,3.007-2.325,12.553,12.553,0,0,1,5.238-1.083c4.048-.045,6.969-1.376,8.683-3.958a10.5,10.5,0,0,0,1.6-5.308c.174-4.951.158-35.349.156-37.635Z" transform="translate(0 -72.427)" fill="#1a1818"/>
      <path id="Path_29231" data-name="Path 29231" d="M115.9,158.8a1.568,1.568,0,0,0-1.366-.265c-.251.017.167.418.3.5s-.451,0-.753-.117-.535,0-1.02.184a9.3,9.3,0,0,1,1.087.753c.229.149.452.218,1.087.117a4.3,4.3,0,0,0-.385.468s.521.282,1.14-.563,1.285-.29,1.285-.29h.987l1.054-.468-.034-.92-1.338-.084-.92.569-.766.281Z" transform="translate(-93.741 -131.097)" fill="#248332"/>
      <path id="Path_29232" data-name="Path 29232" d="M114.3,160.227a.571.571,0,0,1-.257-.054l-.066-.036.044-.062c.006-.009.125-.176.264-.338a1.242,1.242,0,0,1-.948-.153c-.1-.064-.2-.141-.3-.224a4.888,4.888,0,0,0-.78-.526l-.13-.069.28-.107c.394-.152.632-.244.926-.129a2.76,2.76,0,0,0,.565.136c-.135-.119-.31-.307-.279-.429a.132.132,0,0,1,.137-.1,1.63,1.63,0,0,1,1.408.275l.325.151.741-.272.926-.574,1.42.089.037,1.026-1.122.493h-1.012l-.019-.016a.773.773,0,0,0-.543-.164.963.963,0,0,0-.644.443,1.249,1.249,0,0,1-.968.637m-.119-.146c.155.036.534.038.979-.569a1.089,1.089,0,0,1,.738-.5.9.9,0,0,1,.624.18h.949l1-.444-.03-.814-1.256-.079-.9.557-.8.3-.4-.191a1.52,1.52,0,0,0-1.307-.248.106.106,0,0,0-.032.006,1.217,1.217,0,0,0,.355.374c.071.044.049.1.043.11-.069.138-.8-.085-.856-.108-.246-.1-.441-.02-.83.13l-.008,0a5.364,5.364,0,0,1,.673.468c.107.084.2.157.292.217.227.148.441.2,1.04.107l.2-.032-.146.145a3.84,3.84,0,0,0-.325.388" transform="translate(-92.958 -130.766)" fill="#1a1818"/>
      <path id="Path_29233" data-name="Path 29233" d="M144.159,110.9s.29-.513-.4-1.014c-.15-.151-.234.418-.234.468s-.2-1.221-1.79-.468a1.755,1.755,0,0,1,1.1.886.7.7,0,0,0-.485-.1,1.019,1.019,0,0,0,.708,1l.864,1.438.167.7.736.82.686-.485-.3-.753-1.187-1.622Z" transform="translate(-117.515 -90.911)" fill="#248332"/>
      <path id="Path_29234" data-name="Path 29234" d="M143.977,114.4l-.791-.893-.165-.692-.847-1.41a1.077,1.077,0,0,1-.728-1.074l.011-.042.042-.008a.715.715,0,0,1,.355.026,1.852,1.852,0,0,0-.984-.683l-.152-.054.146-.069a1.618,1.618,0,0,1,1.347-.158.936.936,0,0,1,.446.438c.031-.13.083-.269.165-.3a.126.126,0,0,1,.142.036c.657.48.454.994.413,1.082l-.123.838,1.179,1.615.321.8Zm-.665-.941.685.763.594-.42-.278-.7-1.2-1.638.14-.925c.011-.02.248-.471-.377-.928l-.016-.013a1.225,1.225,0,0,0-.112.428v.057l-.115.018-.02-.07a.86.86,0,0,0-.457-.571,1.372,1.372,0,0,0-1.087.092,1.685,1.685,0,0,1,.99.868l.076.2-.177-.121a.652.652,0,0,0-.388-.1.985.985,0,0,0,.673.882l.022.008.884,1.477Z" transform="translate(-116.668 -90.585)" fill="#1a1818"/>
      <path id="Path_29235" data-name="Path 29235" d="M190.686,118.341a2.234,2.234,0,0,0,1.165-.524c0-.167-.652-.251-.652-.251s.937-.218,1.2-1.723a12.74,12.74,0,0,0-1.609,1.131c-.03.024-.184.123-.18.09a2.363,2.363,0,0,0,.067-.92c-.284.234-.785.592-.767,1.026.017.385-.722,1.2-.722,1.2l-.769.619-.4.368-.385.7.334.3.334.167.6-.368.569-1.288.435-.368Z" transform="translate(-155.568 -96.045)" fill="#248332"/>
      <path id="Path_29236" data-name="Path 29236" d="M187.9,119.94l-.382-.194-.374-.336.424-.766.4-.368.772-.622c.193-.214.71-.851.7-1.143-.018-.427.4-.765.707-1.012l.162-.133.028.1a1.931,1.931,0,0,1-.04.829c.021-.013.039-.026.048-.033a12.743,12.743,0,0,1,1.5-1.062l.12-.073.128-.08-.026.148a2.2,2.2,0,0,1-1.029,1.684c.223.047.478.132.478.278v.032l-.025.02a2.31,2.31,0,0,1-1.2.538l-.754.157-.41.347-.571,1.293Zm-.3-.3.293.147.552-.338.578-1.293.464-.382.786-.163a2.173,2.173,0,0,0,1.086-.478,1.506,1.506,0,0,0-.579-.164l-.362-.046.356-.085c.035-.009.838-.215,1.124-1.521a12.65,12.65,0,0,0-1.472,1.047c-.042.034-.185.139-.252.1l-.039-.022,0-.05c0-.015.008-.045.017-.088a2.4,2.4,0,0,0,.072-.7c-.284.229-.671.542-.656.9.017.4-.662,1.161-.739,1.247l-.777.626-.39.358-.354.646Z" transform="translate(-155.161 -95.382)" fill="#1a1818"/>
      <path id="Path_29237" data-name="Path 29237" d="M195.477,170.212a2.229,2.229,0,0,1,.524,1.438c.234-.418.4-.457.2-.909a2.188,2.188,0,0,0,.8.6.865.865,0,0,1,.457.635,1.6,1.6,0,0,0-.519-2.141c.156-.084.116-.162.535-.151s-.344-.585-.814-.462c-.429.111-.736.173-.736.173l-1.126-.731-.769-.435-1.171-.033-.033.585.519.418.987.134Z" transform="translate(-159.868 -139.453)" fill="#248332"/>
      <path id="Path_29238" data-name="Path 29238" d="M197.068,171.89l-.013-.241a.8.8,0,0,0-.425-.582c-.141-.085-.234-.138-.3-.176a.954.954,0,0,1-.3-.225l-.018-.018a.6.6,0,0,1-.151.475c-.041.063-.089.136-.14.227l-.107.192-.018-.219a2.225,2.225,0,0,0-.5-1.393l-1.132-.863-.988-.134-.56-.451.039-.685,1.267.044.769.435,1.107.718c.083-.017.355-.075.706-.166a1.154,1.154,0,0,1,.967.346c.066.081.06.139.043.174-.026.052-.088.079-.181.075-.292-.008-.339.028-.4.077l-.007.005a1.693,1.693,0,0,1,.455,2.173Zm-1.4-1.769.247.238c.1.1.167.164.215.212a.846.846,0,0,0,.268.2c.066.038.16.092.3.177a1.02,1.02,0,0,1,.439.49,1.452,1.452,0,0,0-.569-1.881l-.1-.061.1-.056a.55.55,0,0,0,.081-.054c.092-.07.165-.113.488-.1a.216.216,0,0,0,.05,0,.508.508,0,0,0-.155-.143.965.965,0,0,0-.694-.184c-.426.11-.736.173-.74.174l-.027.005-1.149-.745-.751-.424-1.089-.031-.028.486.477.385.986.134,1.167.89a2.148,2.148,0,0,1,.524,1.283l.041-.063a.483.483,0,0,0,.053-.614Z" transform="translate(-159.534 -139.119)" fill="#1a1818"/>
      <path id="Path_29239" data-name="Path 29239" d="M158.922,186.754a1.509,1.509,0,0,0,.769-1.84c-.117-.335.167.234.485.3a1.488,1.488,0,0,0-.351-1.522l.033-1.388.218-1.054-.3-.819-.987.569.117,1.1-.084.819-.385.736a2.382,2.382,0,0,0-.552,1.238c.385-.05.5-.2.535-.251a2.679,2.679,0,0,0,.217,1.087,1.963,1.963,0,0,1,.284,1.02" transform="translate(-130.901 -149.595)" fill="#248332"/>
      <path id="Path_29240" data-name="Path 29240" d="M158.518,186.377l0-.1a1.911,1.911,0,0,0-.273-.981,1.942,1.942,0,0,1-.217-.973.988.988,0,0,1-.472.166l-.078.01,0-.078a2.419,2.419,0,0,1,.568-1.28l.37-.712.082-.807-.122-1.133,1.093-.63.335.912-.221,1.072-.031,1.342a1.567,1.567,0,0,1,.341,1.589l-.024.041-.047-.01a.82.82,0,0,1-.388-.262,1.563,1.563,0,0,1-.83,1.8Zm-.461-2.283.051.011c.053.016.054.052.056.174a1.949,1.949,0,0,0,.195.943,1.965,1.965,0,0,1,.293.953,1.478,1.478,0,0,0,.639-1.723c-.027-.074-.05-.14.008-.174s.093.01.161.088a1.092,1.092,0,0,0,.346.294,1.466,1.466,0,0,0-.355-1.387l-.029-.021.034-1.423.215-1.047-.267-.727-.88.507.113,1.061-.091.858-.385.736a2.473,2.473,0,0,0-.539,1.128.59.59,0,0,0,.408-.209Z" transform="translate(-130.567 -149.121)" fill="#1a1818"/>
      <path id="Path_29241" data-name="Path 29241" d="M136.274,113.4c.646.328,1.962,1.026.089,2.9-.558.468-1.228,1.023-.591,1.06.58.033.535-.424.736-.859a1.462,1.462,0,0,1,2.3-.613c.468.279.832.55.724,2.018a3.687,3.687,0,0,0,.557,2.765,1.841,1.841,0,0,1-.781,2.542,1.679,1.679,0,0,1-1.9-.535c-.379-.357-.6-.658-1-.379-.357.424.022.647.368.647a1.9,1.9,0,0,1,1.862,1.159c.379.892-.491,2.3-1.94,2.5a2.239,2.239,0,0,0-1.829,1.026,1.809,1.809,0,0,1-2.832.111c-.58-.557-.68-.9-.334-2.074.084-.285.323-.6.156-.937-.152-.3-.423-.1-.468.29a8.928,8.928,0,0,0-.045,1.2c-.067.669-.4,1.784-2.163,1.449-.468-.156-.87-.446-1.316-1.36a3.484,3.484,0,0,0-1.439-1.38,6.07,6.07,0,0,1-1.018-.6,1.766,1.766,0,0,1-.434-1.674,1.982,1.982,0,0,1,.507-.892c.288-.26.766-.417,1.939-.381.29.022,1.1-.129.613-.479-.434-.312-.613-.078-.892.078-.185.1-1.712.76-2.442-.312-.546-.8-.691-1.16-.2-1.784a5.939,5.939,0,0,0,1.695-2.453c.245-1.16.6-2.23,1.873-2.431.223-.067,1.392.16,1.617,1.728.083.578.245.725.524.814.17.054.747.078-.056-.9s-1.015-1.327-.524-2.353,1.974-.772,2.319-.468a2.551,2.551,0,0,0,2.542.513,3.113,3.113,0,0,1,1.784.067" transform="translate(-102.974 -93.313)" fill="#ab0b1b"/>
      <path id="Path_29242" data-name="Path 29242" d="M133.092,128.121a2.12,2.12,0,0,1-1.427-.656c-.586-.563-.711-.932-.353-2.142a2.248,2.248,0,0,1,.088-.231.762.762,0,0,0,.072-.657c-.023-.045-.071-.12-.133-.109-.083.015-.184.159-.209.376a7.676,7.676,0,0,0-.044,1.039v.158a1.729,1.729,0,0,1-.619,1.282,2.022,2.022,0,0,1-1.624.232c-.492-.163-.908-.462-1.363-1.4a3.464,3.464,0,0,0-1.411-1.351c-.05-.028-.122-.065-.2-.108a4.041,4.041,0,0,1-.829-.505,1.834,1.834,0,0,1-.451-1.735,2.051,2.051,0,0,1,.527-.927,2.787,2.787,0,0,1,1.985-.4c.225.016.65-.071.694-.191.015-.04-.03-.1-.122-.167a.488.488,0,0,0-.684,0c-.044.028-.089.057-.136.084-.017.009-1.719.858-2.53-.333-.548-.805-.72-1.2-.2-1.863.121-.154.279-.317.446-.49A4.088,4.088,0,0,0,125.8,116.1c.241-1.14.589-2.272,1.928-2.483a1.188,1.188,0,0,1,.8.222,2.094,2.094,0,0,1,.9,1.563c.078.541.216.676.478.76.082.026.216.03.257-.03.026-.038.075-.206-.384-.767-.811-.991-1.044-1.356-.533-2.424a1.337,1.337,0,0,1,.986-.734,1.958,1.958,0,0,1,1.438.245,2.406,2.406,0,0,0,2.363.521l.123-.023a3.128,3.128,0,0,1,1.826.073c.343.174.98.5,1.079,1.116.084.526-.244,1.162-.972,1.89l-.03.026c-.317.266-.846.711-.8.855.011.034.084.058.194.065.386.023.452-.184.553-.5a2.744,2.744,0,0,1,.119-.323,1.644,1.644,0,0,1,.927-.9,1.827,1.827,0,0,1,1.463.257c.528.314.865.629.759,2.081a3.641,3.641,0,0,0,.548,2.726,1.947,1.947,0,0,1,.115,1.629,1.62,1.62,0,0,1-.93,1.01,1.757,1.757,0,0,1-1.969-.554c-.038-.036-.079-.076-.119-.114-.334-.323-.5-.459-.789-.259-.078.1-.157.229-.1.341a.472.472,0,0,0,.428.189,1.987,1.987,0,0,1,1.921,1.2,1.556,1.556,0,0,1-.155,1.369,2.507,2.507,0,0,1-1.835,1.226c-1.072.193-1.224.368-1.525.716-.074.085-.158.182-.265.291a2.182,2.182,0,0,1-1.5.77m-1.742-3.929a.273.273,0,0,1,.241.184.876.876,0,0,1-.069.769,2.147,2.147,0,0,0-.083.216c-.343,1.161-.241,1.471.317,2.007a1.735,1.735,0,0,0,2.738-.11c.1-.106.187-.2.259-.285.312-.36.484-.558,1.605-.76a2.374,2.374,0,0,0,1.74-1.16,1.425,1.425,0,0,0,.151-1.246,1.822,1.822,0,0,0-1.791-1.119h0a.6.6,0,0,1-.555-.265c-.046-.1-.061-.264.13-.491l.013-.012c.4-.278.65-.037.965.268l.122.117a1.61,1.61,0,0,0,1.826.521,1.488,1.488,0,0,0,.85-.93,1.838,1.838,0,0,0-.1-1.516,3.744,3.744,0,0,1-.567-2.8c.109-1.479-.28-1.71-.692-1.956a1.7,1.7,0,0,0-1.355-.245,1.512,1.512,0,0,0-.847.829,2.652,2.652,0,0,0-.113.307c-.1.318-.2.618-.688.59-.066,0-.266-.015-.313-.156-.071-.215.286-.535.839-1l.026-.022c.693-.693,1.007-1.29.93-1.771-.087-.55-.663-.843-1.007-1.017a3.065,3.065,0,0,0-1.737-.062l-.126.024a2.519,2.519,0,0,1-2.477-.552,1.833,1.833,0,0,0-1.322-.214,1.219,1.219,0,0,0-.892.661c-.477,1-.271,1.32.516,2.282.376.459.5.762.392.927-.094.138-.308.114-.408.082-.3-.1-.483-.264-.57-.868a1.965,1.965,0,0,0-.837-1.469,1.078,1.078,0,0,0-.694-.2c-1.264.2-1.6,1.286-1.827,2.38a4.2,4.2,0,0,1-1.271,2c-.164.17-.32.331-.437.479-.471.6-.327.926.2,1.705.745,1.1,2.339.3,2.354.291.045-.025.088-.053.129-.079a.616.616,0,0,1,.834.005c.151.108.208.216.169.321-.084.231-.632.294-.827.279-1.264-.038-1.654.152-1.888.364a1.923,1.923,0,0,0-.486.858,1.7,1.7,0,0,0,.417,1.612,4.123,4.123,0,0,0,.794.479c.085.044.158.082.209.11a3.6,3.6,0,0,1,1.466,1.409c.435.892.825,1.175,1.277,1.326a1.891,1.891,0,0,0,1.51-.211,1.6,1.6,0,0,0,.565-1.182v-.151a7.884,7.884,0,0,1,.045-1.054c.03-.263.161-.465.318-.493a.2.2,0,0,1,.035,0" transform="translate(-102.647 -92.994)" fill="#1a1818"/>
      <path id="Path_29243" data-name="Path 29243" d="M147.165,134.164c.268.084.559.751-.045.379-.421-.26-1.427-1.338-1.973.167-.378,1.042.4,1,.368,1.472-.03.509-.383,1.452.446,1.991a1.048,1.048,0,0,0,1.26-.185,3.2,3.2,0,0,1,.6-.663c.038-.031.251-.013.206.162-.064.248-1.07.5-.937,1.505a1.185,1.185,0,0,0,1.372.9,1.881,1.881,0,0,1,1.539.334c.635.3,1.208-.226,1.271-1.07.028-.379.1-.368-.335-.937s.07-.563.162-.354c.067.153-.062,1.692,1.477,1.391.6-.268.76-.626.9-1.405a1.275,1.275,0,0,1,.535-.869c.145-.153.682-.688-.067-1.539-.185-.211-.424-.4-1.1-.2-.268.1-.836.335-.769,0s.067-.3.569-.268,1.554-.121,1.249-1.44c-.1-.421-.614-.567-.848-.667a2.029,2.029,0,0,1-.7-.9c-.2-.435-1.894-1.047-2.074.2-.1.7.087.855-.033,1.1-.062.128-.523.68-.268-.5.105-.486.468-1.1-.3-1.539a.917.917,0,0,0-1.372.234c-.242.361-.4.836-1.605.669-.358-.05-.908.58-.39,1.494.117.206.212.329.87.535" transform="translate(-120.254 -108.64)" fill="#ab0b1b"/>
      <path id="Path_29244" data-name="Path 29244" d="M150.031,140.047a.9.9,0,0,1-.387-.091c-.13-.061-.231-.116-.319-.163a1.522,1.522,0,0,0-1.184-.166,1.259,1.259,0,0,1-1.443-.952,1.328,1.328,0,0,1,.706-1.332c.112-.08.217-.156.23-.207s0-.06-.011-.066a.123.123,0,0,0-.1-.023,2.208,2.208,0,0,0-.445.474c-.041.057-.083.114-.135.176a1.115,1.115,0,0,1-1.348.2,1.537,1.537,0,0,1-.516-1.731c.018-.117.035-.227.04-.32.009-.146-.076-.234-.182-.345-.193-.2-.434-.452-.182-1.146a1.158,1.158,0,0,1,.662-.8c.427-.128.872.2,1.2.447.083.062.154.115.213.152.2.122.252.1.253.1a.171.171,0,0,0-.017-.087.506.506,0,0,0-.246-.271c-.681-.213-.784-.347-.908-.566a1.236,1.236,0,0,1-.06-1.306.571.571,0,0,1,.518-.287c1.046.145,1.262-.2,1.471-.532.023-.037.046-.073.07-.108a.98.98,0,0,1,1.46-.255c.686.388.528.927.4,1.36-.025.086-.05.171-.068.251-.128.589-.055.66-.052.663a.539.539,0,0,0,.194-.2.52.52,0,0,0,.021-.321,2.58,2.58,0,0,1,.006-.763.839.839,0,0,1,.75-.785,1.634,1.634,0,0,1,1.451.566,1.963,1.963,0,0,0,.668.87l.1.041c.259.1.692.272.785.673a1.251,1.251,0,0,1-.17,1.136,1.445,1.445,0,0,1-1.148.386l-.124-.009c-.325-.024-.325-.024-.375.223-.005.027-.008.062.009.076.084.071.462-.072.623-.133l.049-.018c.721-.213.986,0,1.177.219a1.08,1.08,0,0,1,.074,1.62,1.22,1.22,0,0,1-.106.1,1.1,1.1,0,0,0-.421.748c-.146.795-.309,1.173-.942,1.454a1.3,1.3,0,0,1-1.059-.151.936.936,0,0,1-.189-.188c0,.018,0,.036-.005.055,0,.038-.008.08-.012.128a1.366,1.366,0,0,1-.581,1.109.787.787,0,0,1-.4.108m-1.4-.586a1.329,1.329,0,0,1,.759.214c.086.046.186.1.314.16a.683.683,0,0,0,.661-.012,1.236,1.236,0,0,0,.515-1c0-.05.008-.093.012-.132.025-.242.029-.286-.333-.759-.167-.219-.223-.386-.167-.5a.181.181,0,0,1,.179-.1.308.308,0,0,1,.264.17.676.676,0,0,1,.029.177,1.441,1.441,0,0,0,.435,1.043,1.162,1.162,0,0,0,.939.132c.555-.249.707-.571.85-1.351a1.233,1.233,0,0,1,.466-.826,1.075,1.075,0,0,0,.086-.078c.161-.17.626-.66-.069-1.448-.179-.2-.393-.37-1.035-.181l-.044.017c-.323.123-.624.223-.757.11a.2.2,0,0,1-.053-.2c.07-.351.117-.359.516-.33l.123.009a1.314,1.314,0,0,0,1.038-.339,1.128,1.128,0,0,0,.142-1.019c-.077-.332-.454-.48-.7-.579l-.105-.042a2.082,2.082,0,0,1-.737-.936,1.532,1.532,0,0,0-1.311-.489.709.709,0,0,0-.636.672,2.45,2.45,0,0,0-.006.728.642.642,0,0,1-.033.4c-.021.042-.2.326-.36.271-.1-.033-.176-.156-.033-.816.018-.084.044-.171.07-.261.125-.428.255-.87-.339-1.206a.858.858,0,0,0-1.283.213c-.023.034-.045.069-.068.1-.221.352-.472.75-1.6.593a.452.452,0,0,0-.389.23,1.108,1.108,0,0,0,.066,1.165c.1.179.168.3.831.5a.624.624,0,0,1,.355.439.151.151,0,0,1-.059.16c-.078.051-.2.02-.4-.1-.064-.039-.138-.094-.223-.158-.3-.226-.715-.535-1.078-.426-.233.07-.427.311-.574.718-.224.616-.032.815.153,1.008a.572.572,0,0,1,.219.445c-.006.1-.023.212-.041.332-.08.528-.181,1.185.456,1.6a.978.978,0,0,0,1.173-.172c.05-.059.09-.114.129-.168a2.343,2.343,0,0,1,.476-.5.23.23,0,0,1,.236.011.188.188,0,0,1,.078.219c-.025.1-.133.175-.281.283a1.2,1.2,0,0,0-.653,1.2,1.117,1.117,0,0,0,1.3.846,4.811,4.811,0,0,1,.5-.033m1.932-1.99a.058.058,0,0,0-.053.023c-.021.042.006.16.154.354l.1.138c-.02-.111-.03-.211-.038-.287a1,1,0,0,0-.019-.137.173.173,0,0,0-.145-.09h0" transform="translate(-119.929 -108.306)" fill="#1a1818"/>
      <path id="Path_29245" data-name="Path 29245" d="M164.179,117.356a.724.724,0,0,0-.276-.532,1.087,1.087,0,0,0-1.017.013c-1.405.561-2.273.868-3.276-.257-.783-.877-1.453-.963-2.209-.27,0,0,.825-1.4,2.294.167.981,1.045,1.8.719,3.146.234a1.248,1.248,0,0,1,1.139,0,.608.608,0,0,1,.2.641" transform="translate(-130.499 -95.956)" fill="#1a1818"/>
      <path id="Path_29246" data-name="Path 29246" d="M204.733,138.548a.877.877,0,0,0,.274-.684,1.345,1.345,0,0,0-.58-.912c-.961-.747-1.194-1.883-.691-3.374a1.476,1.476,0,0,0-.022-1.4,1.068,1.068,0,0,0-.866-.3.959.959,0,0,1,.97.217,1.591,1.591,0,0,1,.045,1.522c-.482,1.432-.265,2.517.647,3.226a1.537,1.537,0,0,1,.631,1.008c.042.35-.408.693-.408.693" transform="translate(-168.181 -109.302)" fill="#1a1818"/>
      <path id="Path_29247" data-name="Path 29247" d="M172.206,184.377a3.405,3.405,0,0,1-.854-.312c1.182.4,1.384.089,1.789-.53.051-.078.1-.161.164-.248a2.093,2.093,0,0,1,2.18-1.055c.919.088,1.438-.1,1.723-.458a.989.989,0,0,0,.125-.859.875.875,0,0,1-.02.942,1.931,1.931,0,0,1-1.84.508,1.957,1.957,0,0,0-2.057,1c-.058.085-.112.167-.162.245-.292.446-.5.768-1.047.768" transform="translate(-142.067 -149.997)" fill="#1a1818"/>
      <path id="Path_29248" data-name="Path 29248" d="M136.17,175.246c-.424-.2-.632-.753-.777-1.581a1.815,1.815,0,0,0-1.8-1.728,1.365,1.365,0,0,1-1.391-1.5c.2,1.187.741,1.287,1.418,1.368a1.86,1.86,0,0,1,1.9,1.836c.139.788.331,1.291.706,1.484a1.017,1.017,0,0,0,.869-.033,1.062,1.062,0,0,1-.929.153" transform="translate(-109.607 -141.31)" fill="#1a1818"/>
      <path id="Path_29249" data-name="Path 29249" d="M128.084,129.037a1.387,1.387,0,0,1,.7-.9c1.282-.793,1.674-1.356,1.552-2.231-.1-.688-.162-1.63.259-2.011a.614.614,0,0,1,.628-.094.621.621,0,0,0-.531.186,2.651,2.651,0,0,0-.224,1.9c.147,1.056-.454,1.645-1.614,2.363a1.122,1.122,0,0,0-.428,1.709,1.059,1.059,0,0,1-.345-.92" transform="translate(-106.181 -102.601)" fill="#1a1818"/>
      <path id="Path_29250" data-name="Path 29250" d="M180.663,138.134a.766.766,0,0,0-.516-.93,3.535,3.535,0,0,0-.447-.154c-.482-.122-.543-.164-.66-.79a.749.749,0,0,0-.32-.512,1.205,1.205,0,0,0-.827-.131,1.049,1.049,0,0,1,.864.075.733.733,0,0,1,.349.555c.11.587.237.625.614.739a3.593,3.593,0,0,1,.453.156.735.735,0,0,1,.491.992" transform="translate(-147.49 -112.392)" fill="#1a1818"/>
      <path id="Path_29251" data-name="Path 29251" d="M185.781,161.815a.826.826,0,0,0,.571-.226.74.74,0,0,0,.153-.607c-.1-.877.3-1.107.425-1.183l.015-.009.033-.019c.16-.091.647-.367.6-.83a.368.368,0,0,0-.193-.285.32.32,0,0,1,.26.278c.054.506-.462.8-.631.895l-.032.018-.015.009c-.12.07-.486.284-.392,1.118a.8.8,0,0,1-.171.66.787.787,0,0,1-.62.18" transform="translate(-154.03 -131.541)" fill="#1a1818"/>
      <path id="Path_29252" data-name="Path 29252" d="M161.846,178.091a1.086,1.086,0,0,1-.7-.355,1.252,1.252,0,0,0-1.3-.161c-.038.013-.072.025-.1.035s-.058.02-.088.032a.574.574,0,0,1-.785-.417c.29.487.564.431.761.355.032-.013.063-.025.093-.034l.1-.034a1.312,1.312,0,0,1,1.368.172.907.907,0,0,0,.756.33.63.63,0,0,0,.4-.339.556.556,0,0,1-.384.4.521.521,0,0,1-.111.011" transform="translate(-131.714 -146.937)" fill="#1a1818"/>
      <path id="Path_29253" data-name="Path 29253" d="M148.522,154.136a.708.708,0,0,1,.118-.688c.522-.853.009-1.233-.013-1.249a1.178,1.178,0,0,1-.4-.757.756.756,0,0,1,.352-.584.765.765,0,0,0-.284.582,1.11,1.11,0,0,0,.373.706s.636.477.029,1.337a.606.606,0,0,0-.115.623c.135.267.564.307.569.308s-.477.022-.628-.277" transform="translate(-122.895 -125.076)" fill="#1a1818"/>
      <path id="Path_29254" data-name="Path 29254" d="M153.487,134.816a.915.915,0,0,1,.8-.176c.888.123,1.036-.439,1.1-.678a.645.645,0,0,1,.025-.082.634.634,0,0,1,.415-.415.883.883,0,0,1,.724.233.87.87,0,0,0-.7-.17.636.636,0,0,0-.373.378.646.646,0,0,0-.022.073c-.062.235-.115.858-1.173.727a.871.871,0,0,0-.74.157.674.674,0,0,0-.17.509.588.588,0,0,1,.122-.556" transform="translate(-127.134 -110.644)" fill="#1a1818"/>
      <path id="Path_29255" data-name="Path 29255" d="M178.686,145.529a4.178,4.178,0,0,0-.207.619c-.05.234-.111.608-.111.608a4.086,4.086,0,0,0-.862-.81s.27-.06.566-.138a3.585,3.585,0,0,0,.614-.279" transform="translate(-147.17 -120.657)" fill="#541613"/>
      <path id="Path_29256" data-name="Path 29256" d="M178.184,146.633l-.019-.024a4.1,4.1,0,0,0-.857-.806l-.034-.017.037-.008s.273-.061.565-.138a3.591,3.591,0,0,0,.61-.277l.035-.02-.016.037a4.194,4.194,0,0,0-.206.616c-.049.231-.11.6-.111.607Zm-.832-.837a4.144,4.144,0,0,1,.815.773c.015-.093.065-.385.106-.579a4.028,4.028,0,0,1,.192-.585,3.318,3.318,0,0,1-.582.261c-.231.061-.448.111-.531.13" transform="translate(-146.977 -120.502)" fill="#1a1818"/>
      <path id="Path_29257" data-name="Path 29257" d="M182.157,161a4.233,4.233,0,0,0-.652.016c-.237.032-.609.1-.609.1a4.1,4.1,0,0,0,.47-1.085s.148.234.321.486a3.583,3.583,0,0,0,.47.482" transform="translate(-149.98 -132.679)" fill="#541613"/>
      <path id="Path_29258" data-name="Path 29258" d="M180.734,160.943l.016-.026a4.11,4.11,0,0,0,.468-1.08l0-.037.02.032s.15.237.321.485a3.585,3.585,0,0,0,.467.48l.031.026-.04,0a4.247,4.247,0,0,0-.649.016c-.234.032-.6.1-.609.1Zm.505-1.067a4.152,4.152,0,0,1-.451,1.029c.093-.017.384-.07.58-.1a4.056,4.056,0,0,1,.615-.017,3.337,3.337,0,0,1-.442-.459c-.136-.2-.257-.384-.3-.456" transform="translate(-149.845 -132.488)" fill="#1a1818"/>
      <path id="Path_29259" data-name="Path 29259" d="M163.829,142.829a4.108,4.108,0,0,0,.509.392c.2.122.529.3.529.3a4.035,4.035,0,0,0-1.031.547s.032-.273.054-.574a3.573,3.573,0,0,0-.061-.663" transform="translate(-135.83 -118.419)" fill="#541613"/>
      <path id="Path_29260" data-name="Path 29260" d="M163.718,143.923l0-.037s.032-.276.054-.574a3.577,3.577,0,0,0-.061-.66l-.007-.039.03.027a4.1,4.1,0,0,0,.507.39c.2.12.525.3.529.3l.026.014-.028.01a4.037,4.037,0,0,0-1.027.544Zm.031-1.238a3.32,3.32,0,0,1,.054.629c-.018.235-.041.455-.05.539a4.1,4.1,0,0,1,.982-.515c-.082-.044-.337-.184-.5-.285a3.943,3.943,0,0,1-.482-.368" transform="translate(-135.73 -118.239)" fill="#1a1818"/>
      <path id="Path_29261" data-name="Path 29261" d="M154.641,157.629a4.165,4.165,0,0,0,.538-.368c.182-.156.456-.417.456-.417a4.088,4.088,0,0,0,.2,1.166s-.252-.116-.534-.232a3.6,3.6,0,0,0-.657-.149" transform="translate(-128.212 -130.038)" fill="#541613"/>
      <path id="Path_29262" data-name="Path 29262" d="M155.657,157.887l-.034-.016s-.255-.117-.534-.232a3.64,3.64,0,0,0-.654-.148l-.04-.005.035-.02a4.163,4.163,0,0,0,.536-.366c.179-.154.453-.414.455-.416l.022-.021v.031a4.1,4.1,0,0,0,.2,1.16Zm-1.179-.417a3.365,3.365,0,0,1,.621.144c.22.091.424.183.5.218a4.135,4.135,0,0,1-.182-1.108c-.069.065-.284.267-.434.4a4.026,4.026,0,0,1-.506.35" transform="translate(-128.008 -129.888)" fill="#1a1818"/>
      <path id="Path_29263" data-name="Path 29263" d="M167.347,170.362a4.207,4.207,0,0,0-.179-.627c-.091-.221-.252-.564-.252-.564a4.086,4.086,0,0,0,1.169.182s-.19.2-.389.433a3.615,3.615,0,0,0-.349.576" transform="translate(-138.389 -140.259)" fill="#541613"/>
      <path id="Path_29264" data-name="Path 29264" d="M167.219,170.3l-.008-.04a4.217,4.217,0,0,0-.178-.624c-.09-.219-.25-.56-.251-.563l-.013-.028.029.009a4.065,4.065,0,0,0,1.163.181l.037,0-.026.028s-.192.2-.389.433a3.617,3.617,0,0,0-.347.573Zm-.4-1.212c.04.086.164.354.239.537a4,4,0,0,1,.172.591,3.349,3.349,0,0,1,.333-.544c.156-.18.307-.345.365-.407a4.17,4.17,0,0,1-1.109-.177" transform="translate(-138.266 -140.152)" fill="#1a1818"/>
      <path id="Path_29265" data-name="Path 29265" d="M164.492,148.856a1.982,1.982,0,1,1-1.982-1.99,1.986,1.986,0,0,1,1.982,1.99" transform="translate(-133.093 -121.766)" fill="#eaa315"/>
      <path id="Path_29266" data-name="Path 29266" d="M162.186,150.588a2.057,2.057,0,1,1,2.049-2.057,2.055,2.055,0,0,1-2.049,2.057m0-3.981a1.923,1.923,0,1,0,1.915,1.923,1.921,1.921,0,0,0-1.915-1.923" transform="translate(-132.769 -121.44)" fill="#1a1818"/>
    </g>
    <g id="Group_6201" data-name="Group 6201" transform="translate(-701 -8494.521)">
      <path id="Path_29267" data-name="Path 29267" d="M402.25,168.486h6.328v-5.741H410.8v14.672h-2.217v-6.852H402.25v6.852h-2.217V162.744h2.217Z" transform="translate(370.019 8361.814)" fill="#1a1818"/>
      <path id="Path_29268" data-name="Path 29268" d="M445.143,169.369a7.2,7.2,0,0,1,2.273-5.325,7.479,7.479,0,0,1,5.437-2.222,7.676,7.676,0,0,1,7.634,7.63,7.227,7.227,0,0,1-2.263,5.372,7.755,7.755,0,0,1-10.591.245,7.212,7.212,0,0,1-2.49-5.7m2.235.023a5.311,5.311,0,0,0,1.631,4,5.427,5.427,0,0,0,7.653-.03,5.683,5.683,0,0,0,.018-7.863,5.178,5.178,0,0,0-3.856-1.593,5.41,5.41,0,0,0-5.446,5.487" transform="translate(338.452 8362.46)" fill="#1a1818"/>
      <path id="Path_29269" data-name="Path 29269" d="M510.487,171.165l4.54,6.251h-2.712l-4.189-6.007h-.4v6.007h-2.218V162.745h2.6a6.5,6.5,0,0,1,4.2,1.09,4.02,4.02,0,0,1,1.428,3.215,4.19,4.19,0,0,1-.892,2.679,4,4,0,0,1-2.355,1.437m-2.757-1.681h.7q3.145,0,3.145-2.406c0-1.5-1.025-2.254-3.057-2.254h-.79Z" transform="translate(296.206 8361.815)" fill="#1a1818"/>
      <path id="Path_29270" data-name="Path 29270" d="M544.442,164.824v12.593h-2.213V164.824h-3.376v-2.078H547.8v2.078Z" transform="translate(272.874 8361.815)" fill="#1a1818"/>
      <path id="Path_29271" data-name="Path 29271" d="M583.351,164.824h-5.88v3.527h5.709v2.081h-5.709v4.905h5.88v2.081h-8.1V162.745h8.1Z" transform="translate(247.402 8361.815)" fill="#1a1818"/>
      <path id="Path_29272" data-name="Path 29272" d="M611.917,175.085V159.414l10.707,11.2v-10.2h2.208v15.566l-10.7-11.166v10.272Z" transform="translate(221.745 8364.146)" fill="#1a1818"/>
      <path id="Path_29273" data-name="Path 29273" d="M402.25,246.394l5.709-5.854h2.961l-6.642,6.644,6.679,8.032h-2.97l-5.283-6.531-.453.457v6.074h-2.217V240.54h2.217Z" transform="translate(370.019 8307.376)" fill="#1a1818"/>
      <path id="Path_29274" data-name="Path 29274" d="M437.758,247.178a7.184,7.184,0,0,1,2.277-5.321,7.466,7.466,0,0,1,5.437-2.224,7.675,7.675,0,0,1,7.63,7.633,7.209,7.209,0,0,1-2.263,5.367,7.756,7.756,0,0,1-10.587.249,7.227,7.227,0,0,1-2.493-5.7m2.235.023a5.439,5.439,0,0,0,9.289,3.967,5.675,5.675,0,0,0,.013-7.861,5.166,5.166,0,0,0-3.856-1.6,5.426,5.426,0,0,0-5.446,5.492" transform="translate(343.62 8308.011)" fill="#1a1818"/>
      <path id="Path_29275" data-name="Path 29275" d="M496.436,252.648l3.085-15.778,5.04,11.406,5.219-11.406,2.776,15.778h-2.272l-1.414-8.859-4.347,9.533-4.216-9.543-1.58,8.868Z" transform="translate(302.557 8309.943)" fill="#1a1818"/>
      <path id="Path_29276" data-name="Path 29276" d="M558.763,252.648l3.089-15.778,5.035,11.406,5.224-11.406,2.772,15.778H572.61L571.2,243.79l-4.347,9.533-4.216-9.543-1.58,8.868Z" transform="translate(258.942 8309.943)" fill="#1a1818"/>
      <path id="Path_29277" data-name="Path 29277" d="M625.022,240.54v8.834a4.855,4.855,0,0,0,.618,2.762,3.3,3.3,0,0,0,5.2,0,4.781,4.781,0,0,0,.614-2.762V240.54h2.217v9.448a5.272,5.272,0,0,1-1.445,3.82,5.581,5.581,0,0,1-7.972,0,5.271,5.271,0,0,1-1.446-3.82V240.54Z" transform="translate(214.123 8307.374)" fill="#1a1818"/>
      <path id="Path_29278" data-name="Path 29278" d="M670.705,252.9V237.226l10.7,11.194v-10.2h2.217v15.568l-10.7-11.168V252.9Z" transform="translate(180.606 8309.693)" fill="#1a1818"/>
      <path id="Path_29279" data-name="Path 29279" d="M733.541,242.623h-5.884v3.527h5.714v2.08h-5.714v4.9h5.884v2.083h-8.1V240.54h8.1Z" transform="translate(142.3 8307.374)" fill="#1a1818"/>
    </g>
  </g>
</svg>
