<?xml version="1.0" encoding="UTF-8"?>
<svg id="Layer_1" xmlns="http://www.w3.org/2000/svg" version="1.1" viewBox="0 0 3000 456">
  <!-- Generator: Adobe Illustrator 29.1.0, SVG Export Plug-In . SVG Version: 2.1.0 Build 142)  -->
  <defs>
    <style>
      .st0 {
        fill: #2c7c8e;
      }
    </style>
  </defs>
  <g>
    <path class="st0" d="M759.7,280.01c0,32.17-23.92,44.27-64.34,44.27-16.5,0-36.02-1.1-53.9-4.12-1.37-7.7-1.37-19.8,0-27.5,20.07,2.75,36.85,3.85,53.62,3.85,17.87,0,32.45-2.75,32.45-21.17v-10.17c0-14.02-5.22-15.4-21.45-20.62l-36.02-11.82c-18.97-6.32-29.15-14.85-29.15-38.5v-17.6c0-32.45,26.95-44.27,65.99-44.27,17.32,0,32.17,1.1,51.15,5.22,1.65,7.42,1.65,18.97,0,26.4-19.52-3.3-33.27-4.4-50.32-4.4-19.8,0-34.65,2.75-34.65,21.17v8.8c0,12.1,5.5,14.57,21.72,20.07l36.02,12.1c19.25,6.6,28.87,13.47,28.87,39.05v19.25Z"/>
    <path class="st0" d="M802.03,338.85c-5.22,1.1-11,1.1-15.95,0l15.95-25.85c-9.35-7.15-14.57-17.6-14.57-33v-58.84c0-33.82,24.47-44.82,61.32-44.82,13.2,0,24.75,1.37,34.1,4.67l12.1-19.52c5.22-1.37,11.27-1.37,16.22,0l-15.95,26.12c9.35,6.87,14.85,17.87,14.85,33.55v58.84c0,32.72-24.47,44.27-61.32,44.27-13.47,0-25.3-1.65-34.65-4.95l-12.1,19.52ZM867.2,206.87c-5.22-2.47-11.55-3.02-18.42-3.02-15.95,0-29.42,2.75-29.42,23.92v45.1c0,3.85.27,7.15,1.1,9.9l46.75-75.89ZM878.2,227.76c0-4.12-.55-7.42-1.37-10.17l-47.02,75.89c5.22,2.47,11.82,3.02,18.97,3.02,15.95,0,29.42-2.75,29.42-23.65v-45.1Z"/>
    <path class="st0" d="M947.2,179.09c9.07-.82,18.42-.82,27.77,0l2.2,22.55h1.65c4.4-17.87,22-25.3,46.75-25.3,1.1,7.7,1.1,20.35,0,28.05-30.52,0-39.05,6.32-46.47,26.12v90.47c-8.25,1.37-23.92,1.37-31.9,0v-141.89Z"/>
    <path class="st0" d="M1163.6,260.49c-19.8,1.37-61.59,1.65-86.34.27v10.72c0,21.45,13.47,25.02,36.3,25.02,16.77,0,28.32-1.37,43.72-4.4,1.1,7.7,1.1,19.52,0,27.22-18.42,3.3-33.55,4.95-50.6,4.95-37.67,0-61.32-11.55-61.32-44.82v-57.74c0-34.65,25.02-45.37,59.94-45.37,38.77,0,58.29,17.05,58.29,53.9v30.25ZM1132.25,227.49c0-21.17-12.65-23.65-27.22-23.65s-27.77,2.47-27.77,23.65v12.92l25.57-1.65h29.42v-11.27Z"/>
    <path class="st0" d="M1366.5,280.01c0,32.17-23.92,44.27-64.34,44.27-16.5,0-36.02-1.1-53.9-4.12-1.37-7.7-1.37-19.8,0-27.5,20.07,2.75,36.85,3.85,53.62,3.85,17.87,0,32.45-2.75,32.45-21.17v-10.17c0-14.02-5.22-15.4-21.45-20.62l-36.02-11.82c-18.97-6.32-29.15-14.85-29.15-38.5v-17.6c0-32.45,26.95-44.27,65.99-44.27,17.32,0,32.17,1.1,51.15,5.22,1.65,7.42,1.65,18.97,0,26.4-19.52-3.3-33.27-4.4-50.32-4.4-19.8,0-34.65,2.75-34.65,21.17v8.8c0,12.1,5.5,14.57,21.72,20.07l36.02,12.1c19.25,6.6,28.87,13.47,28.87,39.05v19.25Z"/>
    <path class="st0" d="M1489.95,301.46h-1.65c-4.67,17.05-22,22.82-45.1,22.82-26.95,0-47.02-10.45-47.02-40.42v-103.67c8.25-1.1,23.92-1.1,31.9,0v89.64c0,23.37,12.37,26.67,27.5,26.67,20.35,0,27.22-5.22,32.45-21.17v-95.14c8.25-1.1,23.92-1.1,31.9,0v141.89c-7.42,1.1-20.35,1.1-27.77,0l-2.2-20.62Z"/>
    <path class="st0" d="M1653.54,230.79c0-23.92-12.1-26.95-27.77-26.95-20.35,0-26.95,4.95-32.45,21.45v95.69c-8.25,1.37-23.92,1.37-31.9,0v-141.89c7.42-1.1,20.35-1.1,27.77,0l2.2,20.35h1.65c4.67-17.05,22-23.1,45.37-23.1,26.67,0,47.02,10.45,47.02,40.42v104.22c-8.25,1.37-23.92,1.37-31.9,0v-90.19Z"/>
    <path class="st0" d="M1816.31,230.79c0-23.92-12.1-26.95-27.77-26.95-20.35,0-26.95,4.95-32.45,21.45v95.69c-8.25,1.37-23.92,1.37-31.9,0v-141.89c7.42-1.1,20.35-1.1,27.77,0l2.2,20.35h1.65c4.67-17.05,22-23.1,45.37-23.1,26.67,0,47.02,10.45,47.02,40.42v104.22c-8.25,1.37-23.92,1.37-31.9,0v-90.19Z"/>
    <path class="st0" d="M2067.62,230.79c0-24.2-11.82-26.95-26.67-26.95-19.25,0-26.4,4.67-31.62,20.62v96.52c-8.25,1.37-23.92,1.37-31.9,0v-90.19c0-23.92-11.82-26.95-26.95-26.95-19.52,0-26.4,4.95-31.62,21.45v95.69c-8.25,1.37-23.92,1.37-31.9,0v-141.89c7.42-1.1,20.35-1.1,27.77,0l2.2,20.35h1.65c4.67-17.05,22-23.1,44.55-23.1,20.07,0,36.57,6.32,43.17,23.1h2.47c4.95-17.05,22.27-23.1,44.55-23.1,26.4,0,46.2,10.45,46.2,40.42v104.22c-7.97,1.37-23.65,1.37-31.9,0v-90.19Z"/>
    <path class="st0" d="M2148.44,338.85c-5.22,1.1-11,1.1-15.95,0l15.95-25.85c-9.35-7.15-14.57-17.6-14.57-33v-58.84c0-33.82,24.47-44.82,61.32-44.82,13.2,0,24.75,1.37,34.1,4.67l12.1-19.52c5.22-1.37,11.27-1.37,16.22,0l-15.95,26.12c9.35,6.87,14.85,17.87,14.85,33.55v58.84c0,32.72-24.47,44.27-61.32,44.27-13.47,0-25.3-1.65-34.65-4.95l-12.1,19.52ZM2213.61,206.87c-5.22-2.47-11.55-3.02-18.42-3.02-15.95,0-29.42,2.75-29.42,23.92v45.1c0,3.85.27,7.15,1.1,9.9l46.75-75.89ZM2224.61,227.76c0-4.12-.55-7.42-1.37-10.17l-47.02,75.89c5.22,2.47,11.82,3.02,18.97,3.02,15.95,0,29.42-2.75,29.42-23.65v-45.1Z"/>
    <path class="st0" d="M2293.61,179.09c9.07-.82,18.42-.82,27.77,0l2.2,22.55h1.65c4.4-17.87,22-25.3,46.75-25.3,1.1,7.7,1.1,20.35,0,28.05-30.52,0-39.05,6.32-46.47,26.12v90.47c-8.25,1.37-23.92,1.37-31.9,0v-141.89Z"/>
    <path class="st0" d="M2510.01,260.49c-19.8,1.37-61.59,1.65-86.34.27v10.72c0,21.45,13.47,25.02,36.3,25.02,16.77,0,28.32-1.37,43.72-4.4,1.1,7.7,1.1,19.52,0,27.22-18.42,3.3-33.55,4.95-50.6,4.95-37.67,0-61.32-11.55-61.32-44.82v-57.74c0-34.65,25.02-45.37,59.94-45.37,38.77,0,58.29,17.05,58.29,53.9v30.25ZM2478.66,227.49c0-21.17-12.65-23.65-27.22-23.65s-27.77,2.47-27.77,23.65v12.92l25.57-1.65h29.42v-11.27Z"/>
    <path class="st0" d="M2603.2,136.2c9.62-1.1,23.1-1.1,32.45,0v184.78c-9.35,1.1-22.82,1.1-32.45,0v-184.78Z"/>
    <path class="st0" d="M2715.35,242.89l-14.02,1.37v76.72c-9.35,1.1-22.82,1.1-32.45,0v-184.78c9.62-1.1,23.1-1.1,32.45,0v78.92l16.77-1.65,48.4-77.27c10.72-1.1,24.47-1.1,34.92,0l-58.29,91.29,62.69,93.49c-10.72,1.1-26.95,1.1-37.67,0l-52.8-78.09Z"/>
    <path class="st0" d="M2863.55,162.87h-53.62c-1.1-7.42-1.1-18.97,0-26.67h139.41c1.1,7.7,1.1,19.25,0,26.67h-53.35v158.11c-9.35,1.1-22.82,1.1-32.45,0v-158.11Z"/>
  </g>
  <g>
    <path class="st0" d="M252.87,428.87c110.39,0,199.87-89.48,199.87-199.87,0-66.17-32.17-124.83-81.71-161.2l-16.57,18.17-34.75,21.45-17.47,19.7-27.22,16.05-17.09,17.82-10.23,21.58,16.31,11.11,15.85,12.95,16.21,9.07,32.29,18.75-24.37-7.98-28.98-9.04-18.61-12.95-19.43-10.09-9.64,5.94,10.02,8.65,12.82,14.95,9.81,17.89,20.58,23.21,10.43,13.09,7.98,11.98,12.54,13.3,8.02,9.28,10.03,7.98,20.43,4.04,20.07,2.96,33.02,12.11-34.01-5.91-19.46-.67-20.46-1.49-12.51-3.59-9.03,8.54-3.77,12.3-1.76,16.92-1.87-9.22-2.77-23.39,9.61-13.84-2.7-8.61-13.3-12.79-9.83-13.34-8.85-9.42-14.71-13.13-1.6,4.71-2.8,8.91-5.34,47.29-13.68,30.66-18.85,27.37-11.33,27.21,3.42-30.63,17.89-27.34,6.93-15.77,6.04-15.86.58-45.68,3.28-12.96.44-15.59-18.94-20.75-12.61-7.71-14.07,15.04-14.43,3.61-17.82,5.18-22.45,3.53-9.58,1.77,3.21,27.31,2.48,24.87,13.86,20.78,9.23,17.77-33.96-34.55-3.58-25.63-10.03-27.23-15.6,4.44-24.19-4.16-14.95-32.21-5.3-6.69c-.6,6.32-.92,12.73-.92,19.21,0,30.84,6.99,60.04,19.46,86.12l9.62,3.78,8.75,8.31,10.44,9.53,10.34,19.62-15.54-12.53-8.65-4.63-3.33-3.11c35.46,55.77,97.79,92.78,168.78,92.78Z"/>
    <path class="st0" d="M83.05,236.59l14.59,2.7,19.87-4.97,44.32-7.37,21.55-7.26,15.62-18.64-15.72-24.99,12.06-21.49-2.56-16.2-9.87-21.5-52.93,4.91-27.62,10.4-20.36-6.91c-4.7,7.73-8.89,15.81-12.52,24.19l11.64,11.34,12.17,15.21-27.3-17.96c-2.27,5.97-4.25,12.07-5.95,18.29l5.47,3.93,20.64,13.49,14.83,3.07,21.29,5.76-37.52-.62-27.63-13.46c-.65,3.18-1.23,6.39-1.73,9.62l11.12,7.55,16.56,30.91Z"/>
    <path class="st0" d="M125.89,112.54l49.95-10.15-12.22-33.68-19.37-7.5c-23.72,15.38-43.96,35.66-59.32,59.4l17.49,3.28,23.47-11.35Z"/>
    <path class="st0" d="M312.04,55.13l36.48,19.26,13.17-13.05c-22.15-14.4-47.33-24.54-74.37-29.24l1.26,3.88,23.47,19.15Z"/>
    <path class="st0" d="M185.99,93.97l14.18,34.18,7.97,27.9-.19.44-8.22,18.29,15.41,12.88,13.75-6,17.12-29.01,20.96-21.05,23.89-14.09,22.37-21.12,23.1-13.85-29.88-20.77-24.05-21.74-3.43-9.21c-8.53-1.11-17.23-1.69-26.06-1.69-25.78,0-50.42,4.88-73.05,13.77l-7.74,21.57,13.92,29.49Z"/>
    <path class="st0" d="M171.04,46.6c-6.82,3.06-13.43,6.51-19.82,10.29l13.39,3.28,6.43-13.57Z"/>
  </g>
</svg>