<?xml version="1.0" encoding="utf-8"?>
<!-- Generator: Adobe Illustrator 24.3.0, SVG Export Plug-In . SVG Version: 6.00 Build 0)  -->
<svg version="1.1" id="_x31_-linje_logo_Troms_og_Finnmark"
	 xmlns="http://www.w3.org/2000/svg" xmlns:xlink="http://www.w3.org/1999/xlink" x="0px" y="0px" viewBox="0 0 306.9 92.7"
	 style="enable-background:new 0 0 306.9 92.7;" xml:space="preserve">
<style type="text/css">
	.st0{fill:#020203;}
	.st1{fill:#FFFFFF;}
</style>
<g>
	<path class="st0" d="M72.8,45.1c0,0.8-0.3,1.5-0.9,1.9c-0.6,0.5-1.4,0.7-2.5,0.7s-1.9-0.2-2.6-0.5v-1.4c0.4,0.2,0.9,0.4,1.3,0.5
		c0.5,0.1,0.9,0.2,1.3,0.2c0.6,0,1-0.1,1.3-0.3c0.3-0.2,0.4-0.5,0.4-0.9c0-0.3-0.1-0.6-0.4-0.9s-0.8-0.5-1.6-0.9
		c-0.8-0.3-1.4-0.7-1.8-1.2s-0.5-1-0.5-1.6c0-0.8,0.3-1.4,0.8-1.8s1.3-0.7,2.2-0.7c0.9,0,1.8,0.2,2.7,0.6l-0.5,1.2
		c-0.8-0.3-1.6-0.5-2.2-0.5c-0.5,0-0.9,0.1-1.1,0.3s-0.4,0.5-0.4,0.8c0,0.2,0.1,0.4,0.2,0.6c0.1,0.2,0.3,0.3,0.5,0.5
		s0.7,0.4,1.3,0.6c0.7,0.3,1.2,0.5,1.5,0.8s0.6,0.5,0.7,0.8C72.7,44.4,72.8,44.7,72.8,45.1z"/>
	<path class="st0" d="M77,46.6c0.4,0,0.7-0.1,1.1-0.2v1.1c-0.2,0.1-0.4,0.1-0.6,0.2c-0.3,0-0.5,0.1-0.8,0.1c-1.4,0-2.1-0.7-2.1-2.2
		v-3.8h-1v-0.7l1-0.5l0.5-1.5H76v1.6h2v1.1h-2v3.8c0,0.4,0.1,0.6,0.3,0.8C76.5,46.5,76.7,46.6,77,46.6z"/>
	<path class="st0" d="M83.9,47.7l-0.3-1h-0.1c-0.3,0.4-0.7,0.7-1,0.9s-0.8,0.2-1.3,0.2c-0.7,0-1.2-0.2-1.6-0.6
		c-0.4-0.4-0.6-0.9-0.6-1.6c0-0.7,0.3-1.3,0.8-1.6c0.5-0.4,1.4-0.6,2.5-0.6l1.2,0V43c0-0.4-0.1-0.8-0.3-1c-0.2-0.2-0.5-0.3-1-0.3
		c-0.4,0-0.7,0.1-1,0.2c-0.3,0.1-0.6,0.2-1,0.4l-0.5-1.1c0.4-0.2,0.8-0.4,1.3-0.5s0.9-0.2,1.3-0.2c0.9,0,1.6,0.2,2,0.6
		c0.5,0.4,0.7,1,0.7,1.8v4.7H83.9z M81.7,46.6c0.5,0,1-0.2,1.3-0.5c0.3-0.3,0.5-0.7,0.5-1.3v-0.6l-0.9,0c-0.7,0-1.2,0.1-1.5,0.4
		c-0.3,0.2-0.5,0.5-0.5,1c0,0.3,0.1,0.6,0.3,0.7C81,46.6,81.3,46.6,81.7,46.6z"/>
	<path class="st0" d="M89.7,46.6c0.4,0,0.7-0.1,1.1-0.2v1.1c-0.2,0.1-0.4,0.1-0.6,0.2c-0.3,0-0.5,0.1-0.8,0.1
		c-1.4,0-2.1-0.7-2.1-2.2v-3.8h-1v-0.7l1-0.5l0.5-1.5h0.9v1.6h2v1.1h-2v3.8c0,0.4,0.1,0.6,0.3,0.8C89.1,46.5,89.4,46.6,89.7,46.6z"
		/>
	<path class="st0" d="M96.9,45.7c0,0.7-0.2,1.2-0.7,1.6s-1.2,0.5-2.1,0.5c-0.9,0-1.7-0.1-2.3-0.4v-1.3c0.8,0.4,1.6,0.6,2.3,0.6
		c0.9,0,1.4-0.3,1.4-0.8c0-0.2-0.1-0.3-0.2-0.4c-0.1-0.1-0.3-0.2-0.5-0.4s-0.6-0.3-1-0.4c-0.8-0.3-1.4-0.6-1.6-0.9
		c-0.3-0.3-0.4-0.7-0.4-1.2c0-0.6,0.2-1.1,0.7-1.4c0.5-0.3,1.1-0.5,2-0.5c0.8,0,1.6,0.2,2.3,0.5l-0.5,1.1c-0.8-0.3-1.4-0.5-1.9-0.5
		c-0.8,0-1.2,0.2-1.2,0.7c0,0.2,0.1,0.4,0.3,0.6c0.2,0.2,0.7,0.4,1.3,0.6c0.6,0.2,1,0.4,1.3,0.6s0.5,0.4,0.6,0.6
		S96.9,45.3,96.9,45.7z"/>
	<path class="st0" d="M102,41.8h-1.7v5.9h-1.5v-5.9h-1.2v-0.7l1.2-0.5v-0.5c0-0.8,0.2-1.4,0.6-1.8c0.4-0.4,1-0.6,1.8-0.6
		c0.5,0,1,0.1,1.5,0.3l-0.4,1.1c-0.4-0.1-0.7-0.2-1.1-0.2c-0.3,0-0.6,0.1-0.7,0.3c-0.2,0.2-0.2,0.5-0.2,0.9v0.5h1.7V41.8z"/>
	<path class="st0" d="M109.4,44.1c0,1.1-0.3,2-0.9,2.7s-1.4,1-2.5,1c-0.7,0-1.2-0.1-1.7-0.4s-0.9-0.7-1.2-1.3
		c-0.3-0.6-0.4-1.2-0.4-1.9c0-1.1,0.3-2,0.9-2.7c0.6-0.6,1.4-1,2.5-1c1,0,1.8,0.3,2.4,1C109.1,42.1,109.4,43,109.4,44.1z
		 M104.3,44.1c0,1.6,0.6,2.4,1.8,2.4c1.2,0,1.8-0.8,1.8-2.4c0-1.6-0.6-2.4-1.8-2.4c-0.6,0-1.1,0.2-1.4,0.6
		C104.5,42.8,104.3,43.4,104.3,44.1z"/>
	<path class="st0" d="M114.7,40.5c0.3,0,0.5,0,0.7,0.1l-0.1,1.4c-0.2-0.1-0.4-0.1-0.7-0.1c-0.6,0-1.1,0.2-1.5,0.6
		c-0.4,0.4-0.6,0.9-0.6,1.5v3.7h-1.5v-7h1.2l0.2,1.2h0.1c0.2-0.4,0.5-0.8,0.9-1C113.9,40.6,114.3,40.5,114.7,40.5z"/>
	<path class="st0" d="M118.4,47.7l-2.7-7h1.6l1.4,4.1c0.2,0.7,0.4,1.2,0.4,1.7h0.1c0-0.3,0.2-0.9,0.4-1.7l1.4-4.1h1.6l-2.7,7H118.4z
		"/>
	<path class="st0" d="M128.1,47.7l-0.3-1h-0.1c-0.3,0.4-0.7,0.7-1,0.9s-0.8,0.2-1.3,0.2c-0.7,0-1.2-0.2-1.6-0.6
		c-0.4-0.4-0.6-0.9-0.6-1.6c0-0.7,0.3-1.3,0.8-1.6c0.5-0.4,1.4-0.6,2.5-0.6l1.2,0V43c0-0.4-0.1-0.8-0.3-1c-0.2-0.2-0.5-0.3-1-0.3
		c-0.4,0-0.7,0.1-1,0.2c-0.3,0.1-0.6,0.2-1,0.4l-0.5-1.1c0.4-0.2,0.8-0.4,1.3-0.5s0.9-0.2,1.3-0.2c0.9,0,1.6,0.2,2,0.6
		c0.5,0.4,0.7,1,0.7,1.8v4.7H128.1z M125.9,46.6c0.5,0,1-0.2,1.3-0.5c0.3-0.3,0.5-0.7,0.5-1.3v-0.6l-0.9,0c-0.7,0-1.2,0.1-1.5,0.4
		c-0.3,0.2-0.5,0.5-0.5,1c0,0.3,0.1,0.6,0.3,0.7C125.2,46.6,125.5,46.6,125.9,46.6z"/>
	<path class="st0" d="M132.7,47.7h-1.5v-9.9h1.5V47.7z"/>
	<path class="st0" d="M137.5,46.6c0.4,0,0.7-0.1,1.1-0.2v1.1c-0.2,0.1-0.4,0.1-0.6,0.2c-0.3,0-0.5,0.1-0.8,0.1
		c-1.4,0-2.1-0.7-2.1-2.2v-3.8h-1v-0.7l1-0.5l0.5-1.5h0.9v1.6h2v1.1h-2v3.8c0,0.4,0.1,0.6,0.3,0.8C137,46.5,137.2,46.6,137.5,46.6z"
		/>
	<path class="st0" d="M143.1,47.8c-1.1,0-1.9-0.3-2.6-1c-0.6-0.6-0.9-1.5-0.9-2.6c0-1.1,0.3-2,0.9-2.7c0.6-0.7,1.4-1,2.4-1
		c0.9,0,1.7,0.3,2.2,0.8c0.5,0.6,0.8,1.3,0.8,2.3v0.8h-4.7c0,0.7,0.2,1.2,0.6,1.6s0.8,0.5,1.5,0.5c0.4,0,0.8,0,1.2-0.1
		c0.4-0.1,0.7-0.2,1.2-0.4v1.2c-0.4,0.2-0.7,0.3-1.1,0.4C144,47.7,143.5,47.8,143.1,47.8z M142.8,41.6c-0.5,0-0.9,0.2-1.1,0.5
		c-0.3,0.3-0.5,0.7-0.5,1.3h3.2c0-0.6-0.1-1-0.4-1.3C143.6,41.8,143.3,41.6,142.8,41.6z"/>
	<path class="st0" d="M151,40.5c0.3,0,0.5,0,0.7,0.1l-0.1,1.4c-0.2-0.1-0.4-0.1-0.7-0.1c-0.6,0-1.1,0.2-1.5,0.6
		c-0.4,0.4-0.6,0.9-0.6,1.5v3.7h-1.5v-7h1.2l0.2,1.2h0.1c0.2-0.4,0.5-0.8,0.9-1C150.2,40.6,150.6,40.5,151,40.5z"/>
	<path class="st0" d="M156.2,47.8c-1.1,0-1.9-0.3-2.6-1s-0.9-1.5-0.9-2.6c0-1.1,0.3-2,0.9-2.7c0.6-0.7,1.4-1,2.4-1
		c0.9,0,1.7,0.3,2.2,0.8c0.5,0.6,0.8,1.3,0.8,2.3v0.8h-4.7c0,0.7,0.2,1.2,0.6,1.6c0.3,0.4,0.8,0.5,1.5,0.5c0.4,0,0.8,0,1.2-0.1
		s0.7-0.2,1.2-0.4v1.2c-0.4,0.2-0.7,0.3-1.1,0.4C157.1,47.7,156.6,47.8,156.2,47.8z M155.9,41.6c-0.5,0-0.9,0.2-1.1,0.5
		c-0.3,0.3-0.5,0.7-0.5,1.3h3.2c0-0.6-0.1-1-0.4-1.3C156.7,41.8,156.4,41.6,155.9,41.6z"/>
	<path class="st0" d="M166.8,47.7h-1.5v-4.3c0-0.5-0.1-0.9-0.3-1.2c-0.2-0.3-0.6-0.4-1-0.4c-0.6,0-1.1,0.2-1.4,0.6s-0.4,1-0.4,1.9
		v3.5h-1.5v-7h1.2l0.2,0.9h0.1c0.2-0.3,0.5-0.6,0.9-0.8c0.4-0.2,0.8-0.3,1.3-0.3c1.7,0,2.5,0.9,2.5,2.6V47.7z"/>
</g>
<circle class="st0" cx="43.2" cy="42.9" r="16.3"/>
<g id="XMLID_226_">
	<path id="XMLID_227_" class="st1" d="M42.5,34.6c0,0-0.9-0.1-1.1-0.1c-0.2-0.1-0.5-0.2-0.5-0.3c0-0.1,0-0.3,0.2-0.2
		c0.2,0.1,0.3,0.2,0.7,0.2c0.2,0,0.4,0.1,0.5,0.1L42.5,34.6z M34.6,36c0.2-0.3,1.2-1.5,1.7-1.7c0.3-0.1,0.7-0.1,0.7-0.1v1.5
		c-0.1,0-0.3-0.1-0.5-0.1c-0.2,0-0.8,0.1-0.8,0.1L35.5,36c0.5-0.1,0.7,0.1,0.7,0.1c0,0.1,0.1,0.5,0.2,0.5c0.1,0.1,0.6,0.1,0.6,0.1
		l0,0.2c-0.3,0-0.8,0.3-0.9,0.4c-0.2,0.2-0.4,0.6-0.4,0.6l-0.1,0.3l0.1,0.1c0,0,0.2-0.3,0.3-0.3c0.2-0.2,0.4,0.1,0.5,0.1
		c0.1,0,0.2-0.1,0.3-0.2c0.1-0.1,0.1-0.1,0.1-0.1V43c-0.5-0.1-0.9,0.1-1,0.2c-0.1,0.1-0.2,0.3-0.2,0.3c0.1,0,0.5,0,0.6,0
		c0.1,0,0.3,0.5,0.3,0.6c0.1,0,0.3,0,0.3,0s0,0.6,0,0.6s-0.1,0.2-0.2,0.3c-0.1,0.2-0.3,0.8-0.3,0.8l0.1,0.2c0,0,0.1-0.2,0.1-0.3
		c0.1-0.2,0.2-0.2,0.2-0.2v1.6h0.5v-1.7c0,0,0.2,0.1,0.2,0.1c0.1-0.1,0.5-0.9,0.5-0.9c0.1,0,0.4,0.1,0.4,0.1l0.2,0.8H39l3.7-5.2
		l0.3,0.2l-1.5,2.1c0.2,0.3,0.4,0.5,0.5,0.7c0.2,0.5,0.3,1.2,0.3,1.2c0,0.1,0,0.1,0,0.1c-0.4,0.2-1.7,1.2-1.7,1.3
		c-0.2,0.1-0.6,0.5-0.7,0.6c-0.3,0.8-0.3,2.9-0.2,3.1c0,0.2,0.3,0.5,0.3,0.5s-0.1,0-0.2,0.1c-0.1,0.1-0.6,0.6-0.6,0.6
		c-0.3,0.4-1.4,1.4-1.4,1.4c-0.3,0-0.6-0.1-0.6-0.1c0,0,0-0.5,0-0.6c0-0.1,0-0.3-0.1-0.4c-0.1-0.2-0.3-0.5-0.3-0.5
		c0,0-0.5-0.4-0.5-0.4l-0.3,0c0,0,0.2,0.2,0.3,0.3c0.1,0.1,0,0.3,0,0.3c-0.1,0.1-0.2,0.3-0.2,0.4c0,0.1,0.5,0.6,0.5,0.6
		s-0.1,0.1-0.1,0.1c0,0-0.3-0.2-0.5-0.3c-0.2-0.1-0.2-0.1-0.2-0.1c-0.1,0-0.5,0.1-0.6,0.1c-0.1,0-0.5,0.4-0.5,0.4l0,0.3
		c0,0,0.1-0.1,0.2-0.1c0.1,0,0.2-0.1,0.4-0.1c0.1,0,0.1,0.1,0.1,0.1c0.1,0.2,0.2,0.3,0.3,0.4c0.1,0,0.8-0.1,0.8-0.1l0.1,0.1
		c-0.3,0.1-0.5,0.4-0.6,0.5c-0.1,0.1,0.2,0.5,0.2,0.5s0,0,0,0c0,0.2-0.5,0.4-0.5,0.4c0,0,0.2,0,0.2,0s0.1,0,0.1,0
		c0.2-0.1,0.4-0.1,0.5-0.2c0.2-0.2,0.4-0.4,0.4-0.4s0.1-0.4,0.1-0.4c0-0.2,0.2-0.1,0.5-0.1c0.2,0,0.2,0,0.2,0.1c0,0,0,0.1,0.1,0.2
		c0,0.1,0.1,0.4,0.1,0.4l0.1,0c0,0,0.6-0.8,0.7-0.8c0.1-0.1,2.4-1.7,2.4-1.7c0.2,0,0.3,0,0.5-0.1c0.3-0.2,0.6-0.5,0.6-0.5
		s0-0.4,0-0.5c0-0.4,0.1-0.5,0.2-0.7c0.1-0.2,0.4-0.5,0.5-0.7c0,0,0.1-0.1,0.1-0.1s-0.6-0.7-0.7-0.9c-0.2-0.3-0.2-0.6-0.1-0.8
		c0.5-1.7,0.8-2.8,0.8-2.9c0-0.1,0-0.7,0-0.7l0.4,0.3c0,0,0,0.3,0,0.6c0,0.2-0.3,1.4-0.4,1.6c-0.2,0.8-0.5,1.5-0.3,1.7
		c0.2,0.4,1.1,1.3,1.4,1.5c0.4,0.2,2.3,0.1,2.4,0.1c1.3,0.2,1.3,0.2,1.4,0.4c0.1,0.1,0.9,1,1.1,1.2c0.4,0.4,1,1.4,1,1.4l-0.5,0.1
		c-0.4-0.4-0.7-0.6-0.9-0.7c-0.4-0.2-0.8,0-1,0c-0.3,0-0.4,0.3-0.4,0.3c0.2,0,0.5,0,0.6,0.1c0.1,0.1,0.1,0.4,0.2,0.4
		c0.1,0.1,0.6,0.1,0.6,0.1v0.2c0,0,0,0,0,0c-0.1,0-0.6,0.1-0.8,0.1c-0.2,0.1-0.2,0.1-0.3,0.2c-0.1,0.1-0.4,0.7-0.4,0.7l0.1,0.2
		c0-0.1,0.5-0.4,0.5-0.4c0.1,0.2,0.3,0.2,0.4,0.2c0.3-0.1,0.7-0.6,0.7-0.6l0.2,0.1c0,0-0.2,0.3-0.2,0.3c-0.3,0.3-0.1,1-0.1,1
		c0.1,0,0.2,0.1,0.2,0.1c-0.1-0.2,0.2-0.6,0.2-0.6c0.2,0.1,0.4,0,0.5-0.1c0.2-0.1,0.2-0.9,0.2-0.9l0.9-0.2l1.1,0.2l0.1-0.2l-0.2-0.2
		c-0.3-0.5-0.4-0.6-0.5-0.8c-0.3-0.7-1.4-2.6-1.4-2.7c0,0,0-0.2,0-0.4c0-0.1-0.4-0.6-0.6-0.8c-0.2-0.2-0.6-0.2-0.6-0.2
		c-0.6-0.4-1.2-0.8-1.2-0.9c-0.2-0.3-1.1-1.2-1.3-1.4c-0.1-0.1-1-0.9-1-0.9l0.4-0.1c0,0,0.8,0.7,0.9,0.8c0.3,0.3,0.9,0.6,1.1,0.7
		c1.7,1.1,2.5,1.1,2.6,1.1c1.2,0.1,1.7-0.6,1.8-0.7c0.3-0.3,0.7-1.2,0-2.3c-0.2-0.3-1-1.4-1-1.4l1.6-0.9l0-0.2l-0.7,0.2
		c0,0-0.5-0.1-0.7-0.1c-0.2,0-0.2,0-0.2,0l-0.5,0.1l0-0.2l2.2-1.2l0-0.3c0,0-0.7,0.2-0.8,0.2c-0.1,0-0.6-0.1-0.8-0.1
		c-0.2,0-0.3,0-0.3,0L50,40.5l0-0.2l2.5-1.4l0.1-0.2l-0.8,0.2c0,0-0.7-0.2-0.7-0.1c0,0-0.5,0.1-0.5,0.1s-0.1,0-0.1,0
		c0-0.1,0.9-1.2,0.9-1.3c0.4-0.4,0.8-1.1,0.9-1.2c1-1.6,0.4-2.6,0.2-2.8c-0.8-1.3-2.2-1-2.4-1c-1.3,0.4-1.3,1.7-1.3,1.8
		c0,0.1,0,0.2-0.2,0.3c-0.3,0.3-0.9,1.5-0.9,1.5c0,0,0.2,0,0.3,0c0,0,0.5-0.5,0.6-0.6c0.1-0.1,0.1,0.1,0.1,0.2
		c-0.1,0.6-0.5,1.1-0.6,1.3c-0.4,0.6-1,1.9-1,1.9l0.3,0c0.5-0.8,2.1-1.8,2.2-1.9c0.3-0.3,0-1.4,0-1.4l0.3,0.1c0,0.1,0.1,0.4,0.2,0.7
		c0,0.2,0,0.7,0,0.7l0.2-0.2c0.1-0.1,0.5-1.4,0.2-2.2c-0.1-0.3-0.8-0.6-0.8-0.6c-0.1-0.4,0.2-0.8,0.3-0.9c1.1-0.8,1.9,0,2.2,0.5
		c0.6,1.2-0.6,2.6-0.9,2.8c-0.7,0.7-2.4,2.2-2.5,2.4c-1.2,1.4-0.7,2.2-0.5,2.6c0.3,0.5,1.8,1.9,2.1,2.2c0.5,0.4,0.9,1,1,1.2
		c0.4,1.4-1,1.6-1.6,1.5c-1.2-0.3-2.9-1.8-3.2-2c-1.1-0.7-1.4-0.5-1.4-0.7c-0.1-0.8-0.2-3.7-0.2-3.7c0-0.1,0.1,0,0.2,0
		c0.1,0.1,0.2,0.1,0.2,0c0-0.1,0-0.7,0-0.8c0.1-0.3,0.3-0.7,0.4-0.9c0.5-1.1,0.9-1.9,1-2.4c0.1-0.6,0-1.5,0-1.5
		c0.1-0.1,0.4-0.6,0.5-0.6c0-0.1,0-0.6,0-0.6c-0.1-0.1-0.3-0.1-0.3-0.1c0,0-0.1,0-0.1,0l0,0l0.8-1.2c-0.1,0-0.1-0.1-0.2,0
		c-0.2,0-0.4,0.2-0.4,0.2c-0.1-0.2-0.3-0.2-0.4-0.2c-0.4,0.1-0.3,0.4-0.3,0.4c0.1,0.3,0.4,0.2,0.5,0.2c0,0,0,0,0,0l-0.3,0.3
		l-1.1-0.2c0,0-0.1-0.3-0.1-0.3c0,0,0-0.1,0,0c0,0,0.2,0.1,0.2,0.1c0.2,0,0.3-0.2,0.3-0.3c0-0.4-0.4-0.4-0.4-0.4
		c0-0.3-0.2-0.3-0.3-0.3c-0.3,0-0.4,0.2-0.4,0.2c-0.1,0-0.1,0-0.1,0c-0.3-0.1-0.4,0.2-0.4,0.3c0.1,0.5,0.5,0.3,0.5,0.3l0,0l-0.2,0.3
		l-1.1-0.2L43.5,32l0,0c0,0,0.1,0.1,0.2,0.1c0.3,0.1,0.4-0.2,0.4-0.3c0-0.6-0.6-0.3-0.6-0.3c-0.3-0.3-0.4-0.2-0.4-0.2l0.3,1.4
		c0,0-0.8,0.8-0.8,0.9c0,0.1,0.1,0.6,0.1,0.6l0.3,0.5L42.7,35l1.5,0.2L44,35.7c0,0-1.7,0.4-2.1,0.6c-0.5,0.4-0.9,0.8-1.2,1.2
		c-0.2,0.2-0.6,2-1.1,2.9l0.9,0l-1.7,3.4l-0.2-0.1c0,0,0.1-0.8,0.1-0.9c0-0.1-0.1-0.6-0.1-0.6c-0.1-0.2-0.5-0.6-0.5-0.6l-0.3,0
		c0.1,0.1,0.2,0.4,0.2,0.6c0,0.2-0.1,0.2-0.2,0.3c-0.1,0.1-0.1,0.2-0.1,0.2l0.3,0.7l-0.2,0c-0.1-0.2-0.3-0.3-0.3-0.3v-5.9l0.4,0.2
		l-0.2,0.3l0.6,0.1l1.3,1.2l0.5-1.4l-1.4-0.7l-0.2-0.4l-0.4,0.1c0-0.1-0.1-0.2-0.1-0.2c0.2-0.2,0.5-0.6,0.6-0.7c0-0.2,0-0.3,0.1-0.5
		c0-0.2-0.1-0.6-0.1-0.6c-0.1-0.1-0.3-0.3-0.2-0.2c0.1,0.3-0.1,0.7-0.1,0.7s-0.1,0-0.2,0.1c-0.1,0-0.1,0.1-0.1,0.1l-0.1,0.7L37.5,36
		v-1.8h0.3V33h-0.3v-0.5h-0.5V33h-0.7c-1-0.2-2.4-1.4-2.6-1.6C33.5,34.1,34.6,36,34.6,36z M44.4,34.4l0.1,0.4l-1.4-0.2l-0.1-0.4
		L44.4,34.4z M43.1,33.6L43,33.3l0.5-0.5l2.8,0.5c0,0,0.1,0,0.1,0c0,0-0.5,0.3-0.5,0.3s-0.9-0.4-1.8-0.4c0,0,0.2,0.3-0.3,0.5
		c-0.1,0-0.5,0.1-0.5-0.3L43.1,33.6z M46.4,33.8c0.1,0,0.2-0.2,0.3-0.2c0.1,0,0.2,0.1,0.2,0.1c0,0.1,0,0.2,0,0.2
		c-0.1,0.2-0.3,0.4-0.3,0.4C46.5,33.9,46.4,33.8,46.4,33.8C46.3,33.8,46.3,33.8,46.4,33.8z M40.8,38.9c0,0,0.6-1.4,0.9-1.5
		c0.3-0.1,0.5-0.2,1.2-0.3l-0.1,0.4c0,0-0.8,0.2-0.9,0.3c-0.2,0.1-0.6,1.1-0.6,1.2L40.8,38.9z M37.5,44.4v-0.3c0,0,0.2,0,0.3,0
		c0,0,0.1,0,0.1,0c0,0,0,0.2,0,0.2L37.5,44.4z"/>
</g>
</svg>
