<?xml version="1.0" encoding="UTF-8"?>
<svg id="_x31_-linje_logo_Troms_og_Finnmark" xmlns="http://www.w3.org/2000/svg" version="1.1" viewBox="0 0 146 38">
  <!-- Generator: Adobe Illustrator 30.1.0, SVG Export Plug-In . SVG Version: 2.1.1 Build 136)  -->
  <defs>
    <style>
      .st0 {
        fill: #fff;
      }

      .st1 {
        fill: #020203;
      }
    </style>
  </defs>
  <g>
    <path class="st1" d="M48.9,21.2c0,.8-.3,1.5-.9,1.9-.6.5-1.4.7-2.5.7s-1.9-.2-2.6-.5v-1.4c.4.2.9.4,1.3.5.5.1.9.2,1.3.2.6,0,1-.1,1.3-.3s.4-.5.4-.9c0-.3-.1-.6-.4-.9s-.8-.5-1.6-.9c-.8-.3-1.4-.7-1.8-1.2s-.5-1-.5-1.6c0-.8.3-1.4.8-1.8s1.3-.7,2.2-.7,1.8.2,2.7.6l-.5,1.2c-.8-.3-1.6-.5-2.2-.5-.5,0-.9.1-1.1.3s-.4.5-.4.8c0,.2.1.4.2.6.1.2.3.3.5.5s.7.4,1.3.6c.7.3,1.2.5,1.5.8s.6.5.7.8c.2.5.3.8.3,1.2Z"/>
    <path class="st1" d="M53.1,22.7c.4,0,.7-.1,1.1-.2v1.1c-.2.1-.4.1-.6.2-.3,0-.5.1-.8.1-1.4,0-2.1-.7-2.1-2.2v-3.8h-1v-.7l1-.5.5-1.5h.9v1.6h2v1.1h-2v3.8c0,.4.1.6.3.8.2.1.4.2.7.2Z"/>
    <path class="st1" d="M60,23.8l-.3-1h-.1c-.3.4-.7.7-1,.9s-.8.2-1.3.2c-.7,0-1.2-.2-1.6-.6-.4-.4-.6-.9-.6-1.6s.3-1.3.8-1.6c.5-.4,1.4-.6,2.5-.6h1.2v-.4c0-.4-.1-.8-.3-1-.2-.2-.5-.3-1-.3-.4,0-.7.1-1,.2-.3.1-.6.2-1,.4l-.5-1.1c.4-.2.8-.4,1.3-.5s.9-.2,1.3-.2c.9,0,1.6.2,2,.6.5.4.7,1,.7,1.8v4.7h-1.1v.1ZM57.8,22.7c.5,0,1-.2,1.3-.5s.5-.7.5-1.3v-.6h-.9c-.7,0-1.2.1-1.5.4-.3.2-.5.5-.5,1,0,.3.1.6.3.7.1.3.4.3.8.3Z"/>
    <path class="st1" d="M65.8,22.7c.4,0,.7-.1,1.1-.2v1.1c-.2.1-.4.1-.6.2-.3,0-.5.1-.8.1-1.4,0-2.1-.7-2.1-2.2v-3.8h-1v-.7l1-.5.5-1.5h.9v1.6h2v1.1h-2v3.8c0,.4.1.6.3.8.1.1.4.2.7.2Z"/>
    <path class="st1" d="M73,21.8c0,.7-.2,1.2-.7,1.6s-1.2.5-2.1.5-1.7-.1-2.3-.4v-1.3c.8.4,1.6.6,2.3.6.9,0,1.4-.3,1.4-.8,0-.2-.1-.3-.2-.4-.1-.1-.3-.2-.5-.4s-.6-.3-1-.4c-.8-.3-1.4-.6-1.6-.9-.3-.3-.4-.7-.4-1.2,0-.6.2-1.1.7-1.4.5-.3,1.1-.5,2-.5.8,0,1.6.2,2.3.5l-.5,1.1c-.8-.3-1.4-.5-1.9-.5-.8,0-1.2.2-1.2.7,0,.2.1.4.3.6.2.2.7.4,1.3.6.6.2,1,.4,1.3.6s.5.4.6.6.2.4.2.8Z"/>
    <path class="st1" d="M78.1,17.9h-1.7v5.9h-1.5v-5.9h-1.2v-.7l1.2-.5v-.5c0-.8.2-1.4.6-1.8.4-.4,1-.6,1.8-.6.5,0,1,.1,1.5.3l-.4,1.1c-.4-.1-.7-.2-1.1-.2-.3,0-.6.1-.7.3-.2.2-.2.5-.2.9v.5h1.7s0,1.2,0,1.2Z"/>
    <path class="st1" d="M85.5,20.2c0,1.1-.3,2-.9,2.7s-1.4,1-2.5,1c-.7,0-1.2-.1-1.7-.4s-.9-.7-1.2-1.3c-.3-.6-.4-1.2-.4-1.9,0-1.1.3-2,.9-2.7.6-.6,1.4-1,2.5-1,1,0,1.8.3,2.4,1,.6.6.9,1.5.9,2.6ZM80.4,20.2c0,1.6.6,2.4,1.8,2.4s1.8-.8,1.8-2.4-.6-2.4-1.8-2.4c-.6,0-1.1.2-1.4.6-.2.5-.4,1.1-.4,1.8Z"/>
    <path class="st1" d="M90.8,16.6c.3,0,.5,0,.7.1l-.1,1.4c-.2-.1-.4-.1-.7-.1-.6,0-1.1.2-1.5.6-.4.4-.6.9-.6,1.5v3.7h-1.5v-7h1.2l.2,1.2h.1c.2-.4.5-.8.9-1,.5-.3.9-.4,1.3-.4Z"/>
    <path class="st1" d="M94.5,23.8l-2.7-7h1.6l1.4,4.1c.2.7.4,1.2.4,1.7h.1c0-.3.2-.9.4-1.7l1.4-4.1h1.6l-2.7,7h-1.5Z"/>
    <path class="st1" d="M104.2,23.8l-.3-1h-.1c-.3.4-.7.7-1,.9s-.8.2-1.3.2c-.7,0-1.2-.2-1.6-.6-.4-.4-.6-.9-.6-1.6s.3-1.3.8-1.6c.5-.4,1.4-.6,2.5-.6h1.2v-.4c0-.4-.1-.8-.3-1-.2-.2-.5-.3-1-.3-.4,0-.7.1-1,.2-.3.1-.6.2-1,.4l-.5-1.1c.4-.2.8-.4,1.3-.5s.9-.2,1.3-.2c.9,0,1.6.2,2,.6.5.4.7,1,.7,1.8v4.7h-1.1v.1ZM102,22.7c.5,0,1-.2,1.3-.5s.5-.7.5-1.3v-.6h-.9c-.7,0-1.2.1-1.5.4-.3.2-.5.5-.5,1,0,.3.1.6.3.7.1.3.4.3.8.3Z"/>
    <path class="st1" d="M108.8,23.8h-1.5v-9.9h1.5v9.9Z"/>
    <path class="st1" d="M113.6,22.7c.4,0,.7-.1,1.1-.2v1.1c-.2.1-.4.1-.6.2-.3,0-.5.1-.8.1-1.4,0-2.1-.7-2.1-2.2v-3.8h-1v-.7l1-.5.5-1.5h.9v1.6h2v1.1h-2v3.8c0,.4.1.6.3.8.2.1.4.2.7.2Z"/>
    <path class="st1" d="M119.2,23.9c-1.1,0-1.9-.3-2.6-1-.6-.6-.9-1.5-.9-2.6s.3-2,.9-2.7c.6-.7,1.4-1,2.4-1,.9,0,1.7.3,2.2.8.5.6.8,1.3.8,2.3v.8h-4.7c0,.7.2,1.2.6,1.6s.8.5,1.5.5c.4,0,.8,0,1.2-.1s.7-.2,1.2-.4v1.2c-.4.2-.7.3-1.1.4-.6.1-1.1.2-1.5.2ZM118.9,17.7c-.5,0-.9.2-1.1.5-.3.3-.5.7-.5,1.3h3.2c0-.6-.1-1-.4-1.3-.4-.3-.7-.5-1.2-.5Z"/>
    <path class="st1" d="M127.1,16.6c.3,0,.5,0,.7.1l-.1,1.4c-.2-.1-.4-.1-.7-.1-.6,0-1.1.2-1.5.6-.4.4-.6.9-.6,1.5v3.7h-1.5v-7h1.2l.2,1.2h.1c.2-.4.5-.8.9-1,.5-.3.9-.4,1.3-.4Z"/>
    <path class="st1" d="M132.3,23.9c-1.1,0-1.9-.3-2.6-1s-.9-1.5-.9-2.6.3-2,.9-2.7c.6-.7,1.4-1,2.4-1,.9,0,1.7.3,2.2.8.5.6.8,1.3.8,2.3v.8h-4.7c0,.7.2,1.2.6,1.6.3.4.8.5,1.5.5.4,0,.8,0,1.2-.1s.7-.2,1.2-.4v1.2c-.4.2-.7.3-1.1.4-.6.1-1.1.2-1.5.2ZM132,17.7c-.5,0-.9.2-1.1.5-.3.3-.5.7-.5,1.3h3.2c0-.6-.1-1-.4-1.3-.4-.3-.7-.5-1.2-.5Z"/>
    <path class="st1" d="M142.9,23.8h-1.5v-4.3c0-.5-.1-.9-.3-1.2s-.6-.4-1-.4c-.6,0-1.1.2-1.4.6s-.4,1-.4,1.9v3.5h-1.5v-7h1.2l.2.9h.1c.2-.3.5-.6.9-.8s.8-.3,1.3-.3c1.7,0,2.5.9,2.5,2.6v4.5h-.1Z"/>
  </g>
  <circle class="st1" cx="19.3" cy="19" r="16.3"/>
  <path class="st0" d="M18.6,10.7s-.9-.1-1.1-.1c-.2-.1-.5-.2-.5-.3s0-.3.2-.2.3.2.7.2c.2,0,.4.1.5.1l.2.3ZM10.7,12.1c.2-.3,1.2-1.5,1.7-1.7.3-.1.7-.1.7-.1v1.5c-.1,0-.3-.1-.5-.1s-.8.1-.8.1l-.2.3c.5-.1.7.1.7.1,0,.1.1.5.2.5.1.1.6.1.6.1v.2c-.3,0-.8.3-.9.4-.2.2-.4.6-.4.6l-.1.3.1.1s.2-.3.3-.3c.2-.2.4.1.5.1s.2-.1.3-.2l.1-.1v5.2c-.5-.1-.9.1-1,.2-.1.1-.2.3-.2.3h.6c.1,0,.3.5.3.6h.3v.6s-.1.2-.2.3c-.1.2-.3.8-.3.8l.1.2s.1-.2.1-.3c.1-.2.2-.2.2-.2v1.6h.5v-1.7l.2.1c.1-.1.5-.9.5-.9.1,0,.4.1.4.1l.2.8h.4l3.7-5.2.3.2-1.5,2.1c.2.3.4.5.5.7.2.5.3,1.2.3,1.2v.1c-.4.2-1.7,1.2-1.7,1.3-.2.1-.6.5-.7.6-.3.8-.3,2.9-.2,3.1,0,.2.3.5.3.5,0,0-.1,0-.2.1l-.6.6c-.3.4-1.4,1.4-1.4,1.4-.3,0-.6-.1-.6-.1v-.6c0-.1,0-.3-.1-.4-.1-.2-.3-.5-.3-.5l-.5-.4h-.3l.3.3c.1.1,0,.3,0,.3-.1.1-.2.3-.2.4s.5.6.5.6l-.1.1s-.3-.2-.5-.3l-.2-.1c-.1,0-.5.1-.6.1s-.5.4-.5.4v.3s.1-.1.2-.1.2-.1.4-.1c.1,0,.1.1.1.1.1.2.2.3.3.4.1,0,.8-.1.8-.1l.1.1c-.3.1-.5.4-.6.5s.2.5.2.5h0c0,.2-.5.4-.5.4h.3c.2-.1.4-.1.5-.2l.4-.4.1-.4c0-.2.2-.1.5-.1q.2,0,.2.1s0,.1.1.2c0,.1.1.4.1.4h.1s.6-.8.7-.8c.1-.1,2.4-1.7,2.4-1.7.2,0,.3,0,.5-.1.3-.2.6-.5.6-.5v-.5c0-.4.1-.5.2-.7.1-.2.4-.5.5-.7l.1-.1s-.6-.7-.7-.9c-.2-.3-.2-.6-.1-.8.5-1.7.8-2.8.8-2.9v-.7l.4.3v.6c0,.2-.3,1.4-.4,1.6-.2.8-.5,1.5-.3,1.7.2.4,1.1,1.3,1.4,1.5.4.2,2.3.1,2.4.1q1.3.2,1.4.4c.1.1.9,1,1.1,1.2.4.4,1,1.4,1,1.4l-.5.1c-.4-.4-.7-.6-.9-.7-.4-.2-.8,0-1,0-.3,0-.4.3-.4.3.2,0,.5,0,.6.1s.1.4.2.4c.1.1.6.1.6.1v.2h0c-.1,0-.6.1-.8.1q-.2.1-.3.2c-.1.1-.4.7-.4.7l.1.2c0-.1.5-.4.5-.4.1.2.3.2.4.2.3-.1.7-.6.7-.6l.2.1-.2.3c-.3.3-.1,1-.1,1,.1,0,.2.1.2.1-.1-.2.2-.6.2-.6.2.1.4,0,.5-.1.2-.1.2-.9.2-.9l.9-.2,1.1.2.1-.2-.2-.2c-.3-.5-.4-.6-.5-.8-.3-.7-1.4-2.6-1.4-2.7v-.4c0-.1-.4-.6-.6-.8-.2-.2-.6-.2-.6-.2-.6-.4-1.2-.8-1.2-.9-.2-.3-1.1-1.2-1.3-1.4-.1-.1-1-.9-1-.9l.4-.1s.8.7.9.8c.3.3.9.6,1.1.7,1.7,1.1,2.5,1.1,2.6,1.1,1.2.1,1.7-.6,1.8-.7.3-.3.7-1.2,0-2.3-.2-.3-1-1.4-1-1.4l1.6-.9v-.2l-.7.2s-.5-.1-.7-.1h-.2l-.5.1v-.2l2.2-1.2v-.3s-.7.2-.8.2-.6-.1-.8-.1h-.3l-.7.6v-.2l2.5-1.4.1-.2-.8.2s-.7-.2-.7-.1l-.5.1h-.1c0-.1.9-1.2.9-1.3.4-.4.8-1.1.9-1.2,1-1.6.4-2.6.2-2.8-.8-1.3-2.2-1-2.4-1-1.3.4-1.3,1.7-1.3,1.8s0,.2-.2.3c-.3.3-.9,1.5-.9,1.5h.3l.6-.6c.1-.1.1.1.1.2-.1.6-.5,1.1-.6,1.3-.4.6-1,1.9-1,1.9h.3c.5-.8,2.1-1.8,2.2-1.9.3-.3,0-1.4,0-1.4l.3.1c0,.1.1.4.2.7v.7l.2-.2c.1-.1.5-1.4.2-2.2-.1-.3-.8-.6-.8-.6-.1-.4.2-.8.3-.9,1.1-.8,1.9,0,2.2.5.6,1.2-.6,2.6-.9,2.8-.7.7-2.4,2.2-2.5,2.4-1.2,1.4-.7,2.2-.5,2.6.3.5,1.8,1.9,2.1,2.2.5.4.9,1,1,1.2.4,1.4-1,1.6-1.6,1.5-1.2-.3-2.9-1.8-3.2-2-1.1-.7-1.4-.5-1.4-.7-.1-.8-.2-3.7-.2-3.7,0-.1.1,0,.2,0,.1.1.2.1.2,0v-.8c.1-.3.3-.7.4-.9.5-1.1.9-1.9,1-2.4.1-.6,0-1.5,0-1.5.1-.1.4-.6.5-.6v-.6c-.1-.1-.3-.1-.3-.1h-.1l.8-1.2c-.1,0-.1-.1-.2,0-.2,0-.4.2-.4.2-.1-.2-.3-.2-.4-.2-.4.1-.3.4-.3.4.1.3.4.2.5.2h0l-.3.3-1.1-.2-.1-.3s0-.1,0,0l.2.1c.2,0,.3-.2.3-.3,0-.4-.4-.4-.4-.4,0-.3-.2-.3-.3-.3-.3,0-.4.2-.4.2h-.1c-.3-.1-.4.2-.4.3.1.5.5.3.5.3h0l-.2.3-1.1-.2v-.4h0s.1.1.2.1c.3.1.4-.2.4-.3,0-.6-.6-.3-.6-.3-.3-.3-.4-.2-.4-.2l.3,1.4s-.8.8-.8.9.1.6.1.6l.3.5-.3.3,1.5.2-.2.5s-1.7.4-2.1.6c-.5.4-.9.8-1.2,1.2-.2.2-.6,2-1.1,2.9h.9l-1.7,3.4-.2-.1s.1-.8.1-.9-.1-.6-.1-.6c-.1-.2-.5-.6-.5-.6h-.3c.1.1.2.4.2.6s-.1.2-.2.3c-.1.1-.1.2-.1.2l.3.7h-.2c-.1-.2-.3-.3-.3-.3v-5.9l.4.2-.2.3.6.1,1.3,1.2.5-1.4-1.4-.7-.2-.4-.4.1c0-.1-.1-.2-.1-.2.2-.2.5-.6.6-.7,0-.2,0-.3.1-.5,0-.2-.1-.6-.1-.6-.1-.1-.3-.3-.2-.2.1.3-.1.7-.1.7,0,0-.1,0-.2.1-.1,0-.1.1-.1.1l-.1.7h-.4s0-1.8,0-1.8h.3v-1.2h-.3v-.5h-.5v.5h-.7c-1-.2-2.4-1.4-2.6-1.6-.2,2.7.9,4.6.9,4.6ZM20.5,10.5l.1.4-1.4-.2-.1-.4,1.4.2ZM19.2,9.7l-.1-.3.5-.5,2.8.5h.1l-.5.3s-.9-.4-1.8-.4c0,0,.2.3-.3.5-.1,0-.5.1-.5-.3l-.2.2ZM22.5,9.9c.1,0,.2-.2.3-.2s.2.1.2.1v.2c-.1.2-.3.4-.3.4-.1-.4-.2-.5-.2-.5q-.1,0,0,0ZM16.9,15s.6-1.4.9-1.5c.3-.1.5-.2,1.2-.3l-.1.4s-.8.2-.9.3c-.2.1-.6,1.1-.6,1.2l-.5-.1ZM13.6,20.5v-.3h.4v.2l-.4.1Z"/>
</svg>