<?xml version="1.0" encoding="UTF-8"?>
<svg id="Layer_1" xmlns="http://www.w3.org/2000/svg" version="1.1" viewBox="0 0 121.89 121.89">
  <!-- Generator: Adobe Illustrator 30.1.0, SVG Export Plug-In . SVG Version: 2.1.1 Build 136)  -->
  <defs>
    <style>
      .st0 {
        stroke-width: .1px;
      }

      .st0, .st1, .st2 {
        fill: none;
        stroke: #01a0c6;
        stroke-miterlimit: 10;
      }

      .st1 {
        stroke-width: .13px;
      }

      .st3, .st4 {
        display: none;
      }

      .st3, .st5 {
        isolation: isolate;
      }

      .st6 {
        fill: #fff;
      }

      .st5 {
        fill: #01a0c6;
        font-family: OpenSans, 'Open Sans';
        font-size: 1.53px;
      }

      .st7 {
        fill: #020203;
      }

      .st2 {
        stroke-width: .06px;
      }
    </style>
  </defs>
  <g id="_x31_-linje_logo_Troms_og_Finnmark" class="st4">
    <rect class="st1" x="51.34" y="30.69" width="19.3" height="23.4"/>
    <g>
      <line class="st2" x1="51.44" y1="25.99" x2="70.74" y2="25.99"/>
      <line class="st2" x1="51.44" y1="21.39" x2="70.74" y2="21.39"/>
      <line class="st2" x1="51.44" y1="16.69" x2="70.74" y2="16.69"/>
      <line class="st2" x1="51.44" y1="11.99" x2="70.74" y2="11.99"/>
      <line class="st2" x1="51.44" y1="7.29" x2="70.74" y2="7.29"/>
      <line class="st2" x1="51.44" y1="2.59" x2="70.74" y2="2.59"/>
      <line class="st2" x1="51.44" y1="-2.11" x2="70.74" y2="-2.11"/>
    </g>
    <g>
      <line class="st2" x1="65.84" y1="54.19" x2="65.84" y2="30.69"/>
      <line class="st2" x1="61.04" y1="54.19" x2="61.04" y2="30.69"/>
      <line class="st2" x1="56.24" y1="54.19" x2="56.24" y2="30.69"/>
      <line class="st2" x1="51.34" y1="54.19" x2="51.34" y2="30.69"/>
      <line class="st2" x1="46.54" y1="54.19" x2="46.54" y2="30.69"/>
    </g>
    <g>
      <line class="st2" x1="46.54" y1="54.19" x2="46.54" y2="30.69"/>
      <line class="st2" x1="41.74" y1="54.19" x2="41.74" y2="30.69"/>
      <line class="st2" x1="36.94" y1="54.19" x2="36.94" y2="30.69"/>
      <line class="st2" x1="32.14" y1="54.19" x2="32.14" y2="30.69"/>
    </g>
    <g>
      <line class="st2" x1="27.24" y1="54.19" x2="27.24" y2="30.69"/>
      <line class="st2" x1="22.44" y1="54.19" x2="22.44" y2="30.69"/>
      <line class="st2" x1="17.64" y1="54.19" x2="17.64" y2="30.69"/>
    </g>
    <g>
      <line class="st2" x1="85.24" y1="53.99" x2="85.24" y2="30.69"/>
      <line class="st2" x1="80.44" y1="53.99" x2="80.44" y2="30.69"/>
      <line class="st2" x1="75.54" y1="53.99" x2="75.54" y2="30.69"/>
      <line class="st2" x1="12.74" y1="53.99" x2="12.74" y2="30.69"/>
      <line class="st2" x1="7.84" y1="53.99" x2="7.84" y2="30.69"/>
      <g>
        <line class="st2" x1="3.04" y1="53.99" x2="3.04" y2="30.69"/>
        <line class="st2" x1="-1.76" y1="53.99" x2="-1.76" y2="30.69"/>
      </g>
      <line class="st2" x1="-6.66" y1="53.99" x2="-6.66" y2="30.69"/>
      <g>
        <line class="st2" x1="-11.46" y1="53.99" x2="-11.46" y2="30.69"/>
        <line class="st2" x1="-16.26" y1="53.99" x2="-16.26" y2="30.69"/>
      </g>
      <line class="st0" x1="-21.06" y1="124.29" x2="-21.06" y2="-2.31"/>
      <line class="st2" x1="89.94" y1="53.99" x2="89.94" y2="30.69"/>
      <g>
        <line class="st2" x1="94.74" y1="53.99" x2="94.74" y2="30.69"/>
        <line class="st2" x1="99.64" y1="53.99" x2="99.64" y2="30.69"/>
        <line class="st2" x1="104.44" y1="53.99" x2="104.44" y2="30.69"/>
      </g>
      <line class="st2" x1="109.34" y1="53.99" x2="109.34" y2="30.69"/>
      <line class="st2" x1="114.14" y1="53.99" x2="114.14" y2="30.69"/>
      <g>
        <line class="st2" x1="119.04" y1="53.99" x2="119.04" y2="30.69"/>
        <line class="st2" x1="123.84" y1="53.99" x2="123.84" y2="30.69"/>
      </g>
      <line class="st2" x1="128.64" y1="53.99" x2="128.64" y2="30.69"/>
      <g>
        <line class="st2" x1="133.54" y1="53.99" x2="133.54" y2="30.69"/>
        <line class="st2" x1="138.34" y1="53.99" x2="138.34" y2="30.69"/>
      </g>
      <line class="st0" x1="143.14" y1="124.29" x2="143.14" y2="-2.31"/>
    </g>
    <line class="st2" x1="55.44" y1="42.39" x2="56.94" y2="42.39"/>
    <g class="st3">
      <text class="st5" transform="translate(56.09 14.86)"><tspan x="0" y="0">6/5 X</tspan></text>
    </g>
    <g class="st3">
      <text class="st5" transform="translate(-16.11 38.93)"><tspan x="0" y="0">15/5 X</tspan></text>
    </g>
    <g class="st3">
      <text class="st5" transform="translate(133.54 38.93)"><tspan x="0" y="0">15/5 X</tspan></text>
    </g>
    <g class="st3">
      <text class="st5" transform="translate(54.68 117.91)"><tspan x="0" y="0" xml:space="preserve">15/5  X</tspan></text>
    </g>
    <line class="st0" x1="61.04" y1="30.69" x2="61.04" y2="-3.31"/>
    <line class="st0" x1="61.04" y1="124.19" x2="61.04" y2="54.19"/>
    <g>
      <line class="st2" x1="51.44" y1="54.19" x2="70.74" y2="54.19"/>
      <line class="st2" x1="51.44" y1="49.49" x2="70.74" y2="49.49"/>
      <line class="st2" x1="51.44" y1="44.79" x2="70.74" y2="44.79"/>
      <line class="st2" x1="51.44" y1="40.09" x2="70.74" y2="40.09"/>
      <line class="st2" x1="51.44" y1="35.39" x2="70.74" y2="35.39"/>
      <line class="st2" x1="51.44" y1="30.69" x2="70.74" y2="30.69"/>
    </g>
    <line class="st2" x1="51.44" y1="77.59" x2="70.74" y2="77.59"/>
    <line class="st2" x1="51.44" y1="72.89" x2="70.74" y2="72.89"/>
    <line class="st2" x1="51.44" y1="68.19" x2="70.74" y2="68.19"/>
    <line class="st2" x1="51.44" y1="63.49" x2="70.74" y2="63.49"/>
    <line class="st2" x1="51.44" y1="58.79" x2="70.74" y2="58.79"/>
    <line class="st2" x1="51.44" y1="91.59" x2="70.74" y2="91.59"/>
    <line class="st2" x1="51.44" y1="86.99" x2="70.74" y2="86.99"/>
    <line class="st2" x1="51.44" y1="82.29" x2="70.74" y2="82.29"/>
    <line class="st2" x1="51.44" y1="105.59" x2="70.74" y2="105.59"/>
    <line class="st2" x1="51.44" y1="100.89" x2="70.74" y2="100.89"/>
    <line class="st2" x1="51.44" y1="96.19" x2="70.74" y2="96.19"/>
    <line class="st2" x1="51.44" y1="119.69" x2="70.74" y2="119.69"/>
    <line class="st2" x1="51.44" y1="114.99" x2="70.74" y2="114.99"/>
    <line class="st2" x1="51.44" y1="124.29" x2="70.74" y2="124.29"/>
    <line class="st2" x1="51.44" y1="110.29" x2="70.74" y2="110.29"/>
    <line class="st0" x1="-21.06" y1="42.29" x2="143.14" y2="42.29"/>
    <line class="st0" x1="-21.06" y1="-2.21" x2="143.14" y2="-2.21"/>
    <line class="st0" x1="-21.06" y1="124.29" x2="143.14" y2="124.29"/>
    <polyline class="st0" points="50.14 41.09 51.34 42.29 50.14 43.39"/>
    <polyline class="st0" points="141.94 41.09 143.14 42.29 141.94 43.39"/>
    <polyline class="st0" points="-19.96 43.39 -21.16 42.29 -19.96 41.09"/>
    <polyline class="st0" points="71.84 43.39 70.74 42.29 71.84 41.09"/>
    <polyline class="st0" points="62.24 123.09 61.04 124.19 59.94 123.09"/>
    <polyline class="st0" points="59.94 59.89 61.04 58.79 62.24 59.89"/>
    <polyline class="st0" points="59.94 -1.01 61.04 -2.21 62.24 -1.01"/>
    <polyline class="st0" points="62.24 24.99 61.04 26.09 59.94 24.99"/>
  </g>
  <circle class="st7" cx="61.04" cy="60.49" r="56.69"/>
  <path class="st6" d="M58.26,31.62s-3.13-.35-3.83-.35c-.7-.35-1.74-.7-1.74-1.04s0-1.04.7-.7,1.04.7,2.43.7c.7,0,1.39.35,1.74.35l.7,1.04ZM31.13,36.49c.7-1.04,4.17-5.22,5.91-5.91,1.04-.35,2.43-.35,2.43-.35v5.22c-.35,0-1.04-.35-1.74-.35s-3.13.35-3.13.35l-.7,1.04c1.74-.35,2.43.35,2.43.35,0,.35.35,1.74.7,1.74.35.35,2.09.35,2.09.35v.7c-1.04,0-2.78,1.04-3.13,1.39-.7.7-1.39,2.09-1.39,2.09v1.04l.35.35s.7-1.04,1.04-1.04c.7-.7,1.39.35,1.74.35s.7-.35,1.04-.7l.35-.35v17.74c-1.74-.35-3.13.35-3.48.7-.35.35-.7,1.04-.7,1.04h2.09c.35,0,1.04,1.74,1.04,2.09h1.04v2.09s-.35.7-.7,1.04c-.35.7-1.04,2.78-1.04,2.78l.35.7s.35-.7.35-1.04c.35-.7.7-.7.7-.7v5.56h1.74v-5.91l.7.35c.35-.35,1.74-3.13,1.74-3.13.35,0,1.39.35,1.39.35l.7,2.78h.35l12.87-18.09,1.04.7-5.22,7.3c.7,1.04,1.39,1.74,1.74,2.43.7,1.74,1.04,4.17,1.04,4.17v.35c-.35,1.04-4.87,4.52-5.22,4.52-.7.35-2.09,1.74-2.43,2.09-.7,3.13-.7,10.09-.7,11.13,0,.7,1.04,1.74,1.04,1.74,0,0-.35,0-.7.35l-2.09,2.09c-1.04,1.39-4.87,4.87-4.87,4.87-1.04,0-2.09-.35-2.09-.35v-2.09c0-.35,0-1.04-.35-1.39-.35-.7-1.04-1.74-1.04-1.74l-1.74-1.39h-1.04s.7.7,1.04,1.04c.35.35,0,1.04,0,1.04-.35.35-.7,1.04-.7,1.39s1.74,2.09,1.74,2.09l-.35.35s-1.04-.7-1.74-1.04c-.69.47-1.16.7-1.39.7-.35,0-1.74.35-2.09.35s-1.74,1.39-1.74,1.39v1.04s.35-.35.7-.35.7-.35,1.39-.35c.35,0,.35.35.35.35.35.7.7,1.04,1.04,1.39s2.78-.35,2.78-.35l.35.35c-1.04.35-1.74,1.39-2.09,1.74s.7,1.74.7,1.74h0c0,.7-1.74,1.39-1.74,1.39h1.04c.7-.35,1.39-.35,1.74-.7.7-.7,1.39-1.39,1.39-1.39l.35-1.39c0-.7.7-.35,1.74-.35.47,0,.7.12.7.35q0,.35.35.7c0,.35.35,1.39.35,1.39h.35s2.09-2.78,2.43-2.78c.35-.35,8.35-5.91,8.35-5.91.7,0,1.04,0,1.74-.35,1.04-.7,2.09-1.74,2.09-1.74v-1.74c0-1.39.35-1.74.7-2.43s1.39-1.74,1.74-2.43l.35-.35s-2.09-2.43-2.43-3.13c-.7-1.04-.7-2.09-.35-2.78,1.74-5.91,2.78-9.74,2.78-10.09v-2.43l1.39,1.04v2.09c0,.7-1.04,4.87-1.39,5.56-.7,2.78-1.74,5.22-1.04,5.91.7,1.39,3.83,4.52,4.87,5.22,1.39.7,8,.35,8.35.35,3.01.47,4.64.93,4.87,1.39.35.35,3.13,3.48,3.83,4.17,1.39,1.39,3.48,4.87,3.48,4.87l-1.74.35c-1.39-1.39-2.43-2.09-3.13-2.43-1.39-.7-2.78,0-3.48,0-1.04,0-1.39,1.04-1.39,1.04.7,0,1.74,0,2.09.35s.35,1.39.7,1.39c.35.35,2.09.35,2.09.35v.7h0c-.35,0-2.09.35-2.78.35-.47.23-.81.47-1.04.7-.35.35-1.39,2.43-1.39,2.43l.35.7c0-.35,1.74-1.39,1.74-1.39.35.7,1.04.7,1.39.7,1.04-.35,2.43-2.09,2.43-2.09l.7.35-.7,1.04c-1.04,1.04-.35,3.48-.35,3.48.35,0,.7.35.7.35-.35-.7.7-2.09.7-2.09.7.35,1.39,0,1.74-.35.7-.35.7-3.13.7-3.13l3.13-.7,3.83.7.35-.7-.7-.7c-1.04-1.74-1.39-2.09-1.74-2.78-1.04-2.43-4.87-9.04-4.87-9.39v-1.39c0-.35-1.39-2.09-2.09-2.78s-2.09-.7-2.09-.7c-2.09-1.39-4.17-2.78-4.17-3.13-.7-1.04-3.83-4.17-4.52-4.87-.35-.35-3.48-3.13-3.48-3.13l1.39-.35s2.78,2.43,3.13,2.78c1.04,1.04,3.13,2.09,3.83,2.43,5.91,3.83,8.7,3.83,9.04,3.83,4.17.35,5.91-2.09,6.26-2.43,1.04-1.04,2.43-4.17,0-8-.7-1.04-3.48-4.87-3.48-4.87l5.56-3.13v-.7l-2.43.7s-1.74-.35-2.43-.35h-.7l-1.74.35v-.7l7.65-4.17v-1.04s-2.43.7-2.78.7-2.09-.35-2.78-.35h-1.04l-1.74.35v-.7l8.7-4.87.35-.7-2.78.7s-2.43-.7-2.43-.35l-1.74.35h-.35c0-.35,3.13-4.17,3.13-4.52,1.39-1.39,2.78-3.83,3.13-4.17,3.48-5.56,1.39-9.04.7-9.74-2.78-4.52-7.65-3.48-8.35-3.48-4.52,1.39-4.52,5.91-4.52,6.26s0,.7-.7,1.04c-1.04,1.04-3.13,5.22-3.13,5.22h1.04l2.09-2.09c.35-.35.35.35.35.7-.35,2.09-1.74,3.83-2.09,4.52-1.39,2.09-3.48,6.61-3.48,6.61h1.04c1.74-2.78,7.3-6.26,7.65-6.61,1.04-1.04,0-4.87,0-4.87l1.04.35c0,.35.35,1.39.7,2.43v2.43l.7-.7c.35-.35,1.74-4.87.7-7.65-.35-1.04-2.78-2.09-2.78-2.09-.35-1.39.7-2.78,1.04-3.13,3.83-2.78,6.61,0,7.65,1.74,2.09,4.17-2.09,9.04-3.13,9.74-2.43,2.43-8.35,7.65-8.7,8.35-4.17,4.87-2.43,7.65-1.74,9.04,1.04,1.74,6.26,6.61,7.3,7.65,1.74,1.39,3.13,3.48,3.48,4.17,1.39,4.87-3.48,5.56-5.56,5.22-4.17-1.04-10.09-6.26-11.13-6.96-3.83-2.43-4.87-1.74-4.87-2.43-.35-2.78-.7-12.87-.7-12.87,0-.35.35,0,.7,0,.35.35.7.35.7,0v-2.78c.35-1.04,1.04-2.43,1.39-3.13,1.74-3.83,3.13-6.61,3.48-8.35.35-2.09,0-5.22,0-5.22.35-.35,1.39-2.09,1.74-2.09v-2.09c-.35-.35-1.04-.35-1.04-.35h-.35l2.78-4.17c-.35,0-.35-.35-.7,0-.7,0-1.39.7-1.39.7-.35-.7-1.04-.7-1.39-.7-1.39.35-1.04,1.39-1.04,1.39.35,1.04,1.39.7,1.74.7h0l-1.04,1.04-3.83-.7-.35-1.04s0-.35,0,0,.7.35.7.35c.7,0,1.04-.7,1.04-1.04,0-1.39-1.39-1.39-1.39-1.39,0-1.04-.7-1.04-1.04-1.04-1.04,0-1.39.7-1.39.7h-.35c-1.04-.35-1.39.7-1.39,1.04.35,1.74,1.74,1.04,1.74,1.04h0l-.7,1.04-3.83-.7-.35-1.04h0s.35.35.7.35c1.04.35,1.39-.7,1.39-1.04,0-2.09-2.09-1.04-2.09-1.04-1.04-1.04-1.39-.7-1.39-.7l1.04,4.87s-2.78,2.78-2.78,3.13.35,2.09.35,2.09l1.04,1.74-.7,1.39,5.22.7-.7,1.74s-5.91,1.39-7.3,2.09c-1.74,1.39-3.13,2.78-4.17,4.17-.7.7-2.09,6.96-3.83,10.09h3.13l-5.91,11.83-.7-.35s.35-2.78.35-3.13-.35-2.09-.35-2.09c-.35-.7-1.74-2.09-1.74-2.09h-1.04c.35.35.7,1.39.7,2.09s-.35.7-.7,1.04-.35.7-.35.7l1.04,2.43h-.7c-.35-.7-1.04-1.04-1.04-1.04v-20.52l1.39.7-.7,1.04,2.09.35,4.52,4.17,1.74-4.87-4.87-2.43v-.7l-1.39.35c0-.35-.35-.7-.35-.7.7-.7,1.74-2.09,2.09-2.43,0-.7,0-1.04.35-1.74,0-.7-.35-2.09-.35-2.09-.35-.35-1.04-1.04-.7-.7.35,1.04-.35,2.43-.35,2.43,0,0-.35,0-.7.35-.35,0-.35.35-.35.35l-1.74,2.43-.7-.7v-6.26h1.04v-4.17h-1.04v-1.74h-1.74v1.74h-2.43c-3.48-.7-8.35-4.87-9.04-5.56-.7,9.39,3.48,16,3.48,16v-.02ZM65.21,30.93l.35,1.39-4.87-.7-.35-1.39,4.87.7ZM60.69,28.14l-.35-1.04,1.74-1.74,9.74,1.74h.35l-1.74,1.04s-3.13-1.39-6.26-1.39c0,0,.7,1.04-1.04,1.74-.35,0-1.74.35-1.74-1.04l-.7.7h0ZM72.17,28.49c.35,0,.7-.7,1.04-.7s.7.35.7.35v.7c-.35.7-1.04,1.39-1.04,1.39-.35-1.04-1.04-1.39-.7-1.74-.35.35-.35,0,0,0ZM52.69,46.58s2.09-4.87,3.13-5.22,1.74-.7,4.17-1.04l-.35,1.39s-2.78.7-3.13,1.04c-.7.35-2.09,3.83-2.09,4.17l-1.74-.35h0ZM41.22,65.71v-1.04h1.39v.7l-1.39.35h0Z"/>
</svg>