<?xml version="1.0" encoding="UTF-8"?><svg id="Layer_1" xmlns="http://www.w3.org/2000/svg" viewBox="0 0 283.46 283.46"><defs><style>.cls-1{fill:#14406b;}</style></defs><path class="cls-1" d="M179.27,137.86s14.8-43.48,14.72-47.97c-.09-4.51-3.9-6.23-9.7-6.68-5.79-.43-14.11,1.03-15.61,2.09-.55-.86-2.46-1.88-4.9-1.88-13.25,0-23.25,3.26-23.25,3.26v-4.91c4.57-.62,8.09-4.54,8.09-9.27s-3.52-8.66-8.09-9.29v-8.07h7.98v-2.86h-7.98v-7.95h-2.61v7.96h-7.97v2.85h7.97v8.08c-4.54.64-8.04,4.54-8.04,9.27s3.5,8.62,8.04,9.26v4.91s-10-3.27-23.23-3.27c-2.46,0-4.36,1.03-4.9,1.89-1.51-1.06-9.81-2.52-15.62-2.09-5.79.44-9.6,2.17-9.7,6.68-.08,4.5,14.73,47.97,14.73,47.97h80.08ZM170.34,89.29c1.24-2.18,4.88-3.11,12.15-3.11,3.3,0,5.54.69,6.66,2.05.86,1.05,1.09,2.53.7,4.51-.7,3.51-3.62,11.95-3.65,12.04l.26.09s-5.19-1.29-6.16,1.56c-.98,2.86,4.16,7.36,3.05,8.47-.98.98-3.39-6.35-5.78-3.96-1.95,1.94-1.66,8.88-.52,10.01,1.33,1.32,4.29-2.61,4.87-3.32.58-.72,1.83-1.95,1.43,0-.39,1.95-1.93,9.25-10.78,9.25-6.06,0-7.84-.87-8.54-2.47-.7-1.64-.97-4.42-.29-6.2.69-1.77.99-1.29,1.26-.69.26.61,1.51,3.73,3.54,3.95,2.04.22,3.47-5.85,3.64-8.01.17-2.16-.83-4.12-3.69-1.42-2.85,2.68-3.15,2.55-3.41,2.64-.27.08-.78-.35-.04-1.13.72-.78,5.49-5.45,5.67-6.88.14-1.2-.45-2.7-4.28-2.69,1.12-4.68,3.37-13.69,3.93-14.68ZM146.88,111.75c-1.77-.79-4.33,1.43-5.29,2.34-.94.91-1.57-.03-1.41-.71.15-.64,4.1-5.87,4.1-6.82s-.1-2.36-3.8-2.68h.28c0-3.42.24-12.59,1.29-13.83,1.4-1.63,8.39-2.51,13.53-3.04,3.43-.36,6.1-.34,7.93.04,1.09.23,2.41.71,2.51,1.7.2,2.01-2.32,15-2.35,15.13l.27.05s-3.45-.22-3.71,1.58c-.26,1.72,2.6,7.82,2.6,7.82,0,0,.26,1-.3,1.13-.57.13-3.81-3.72-4.54-3.94-.73-.21-2.51-1.03-2.51,5.37,0,3.86,1.34,4.94,1.98,4.94,1.84,0,4.25-4.17,4.73-4.12.48.04-.18,2.39-.58,3.3-.39.91-2.16,4.49-4.22,5.98-1.64,1.16-4.31,1-7.44.99-3.05,0-6.01-.24-6.67-.57-1.34-.65-2.32-2.11-2.92-5.45-.62-3.33-.24-3.96.07-4.11.49-.24,2.61,3.21,3.22,3.76.81.7,2.84,1.82,3.65-.6.83-2.42,1.38-7.49-.39-8.27ZM112.46,88.75c.03-.34.21-.64.53-.9.76-.62,3.05-1.55,9.9-.85,5.14.53,12.14,1.42,13.52,3.04,1.07,1.24,1.31,10.4,1.31,13.83h.28c-3.71.32-3.81,1.74-3.81,2.68s3.95,6.18,4.1,6.82c.16.68-.46,1.63-1.41.71-.97-.91-3.51-3.12-5.29-2.34-1.77.78-1.21,5.86-.39,8.27.84,2.43,2.85,1.31,3.64.6.63-.55,2.74-4,3.25-3.76.3.15.67.78.07,4.11-.61,3.34-1.57,4.8-2.92,5.45-.67.33-3.62.57-6.69.57-3.11,0-5.8.17-7.43-.99-2.06-1.49-3.84-5.06-4.23-5.98-.39-.91-1.04-3.26-.56-3.3.47-.04,2.88,4.12,4.71,4.12.65,0,1.99-1.08,1.99-4.94,0-6.4-1.77-5.59-2.52-5.37-.74.22-3.98,4.07-4.54,3.94-.56-.13-.3-1.13-.3-1.13,0,0,2.85-6.1,2.6-7.82-.27-1.81-3.72-1.58-3.72-1.58l.27-.05c-.03-.13-2.54-13.13-2.34-15.13ZM95.13,117.62c-.39-1.95.84-.72,1.43,0,.58.72,3.52,4.64,4.86,3.32,1.13-1.13,1.44-8.07-.51-10.01-2.39-2.39-4.8,4.94-5.78,3.96-1.12-1.1,4.02-5.61,3.05-8.47-.97-2.86-6.18-1.56-6.18-1.56l.26-.09c-.03-.08-2.94-8.52-3.64-12.04-.4-1.98-.17-3.46.69-4.51,1.11-1.36,3.35-2.04,6.65-2.04,7.26,0,10.9.93,12.16,3.1.57.99,2.8,9.99,3.92,14.68-3.82,0-4.41,1.49-4.27,2.69.17,1.43,4.93,6.1,5.66,6.88.74.78.23,1.21-.04,1.13-.25-.09-.56.04-3.42-2.64-2.87-2.69-3.84-.74-3.68,1.42.18,2.17,1.6,8.23,3.64,8.01,2.03-.22,3.28-3.34,3.56-3.95.25-.6.55-1.08,1.23.69.69,1.78.42,4.56-.29,6.2-.69,1.6-2.47,2.47-8.53,2.47-8.84,0-10.39-7.3-10.78-9.25ZM153.52,147.71c-2.05-.05-.81,2.37-1.17,4.01-.37,1.64-3.22,1.12-3.22,1.12,3.84-.22,1.73-2.91,1.93-4.96.2-2.05,2.54-2.42,4.81-.17,2.22,2.2,3.98,1.34,3.98,1.34-3.25,1.83-4.56-1.3-6.33-1.34ZM155.2,156.87c-.6-2.49-3.32-1.25-4.49-.59-1.17.67-3.21,1.04-4.77-.05-1.56-1.09-1.82-3.16-1.4-4.43s.33-2.54-.31-3.16c0,0,1.47,1.09,1.37,2.67-.1,1.58-.24,3.73,2.48,3.68,2.72-.05,3.22-1.92,6.42-1.23,3.28.71,2.33,4.4,1.49,5.1-.77.64-2.17.91-2.97.6,0,0,2.79-.1,2.18-2.59ZM90.68,161.37c0,.48-.39.87-.87.87s-.87-.39-.87-.87.39-.87.87-.87.87.39.87.87ZM192.98,161.37c0,.48-.39.87-.87.87s-.87-.39-.87-.87.39-.87.87-.87.87.39.87.87ZM201.79,156.96c-1.14,2.93-4.09,7.06-4.66,6.55-1.58-1.38,6.35-9.7,5.34-10.37-1.68-.91-8.8,1.32-12.07,3.5-6.18,4.13-18.07,13.22-23.53,24.31l-.17.03c-1.37.21-3.05.61-4.27,1.66-.61.52-.88,1.01-1.07,1.74-.05.21-.15.52.12.79.22.1.23-.25.41-.39.53-.41,1.2-.43,1.63-.32.25.06.46.18.67.33,0,0,.67.43.46,1.17h0c-.12.35-.2.59-.2.59,0,0-.59,2.14-.95,3.42-.37,1.27-6.64,25.93,5.45,39.3,2.67,2.74,5.66,3.93,8.46,3.9,0,0,0,0,.01,0,.2.02,5.5.47,12.4-6.02.91-.86,1.72-1.66,2.42-2.48.72-.84,1.31-1.68,1.82-2.55.25-.42.51-.86.71-1.32.39-.88.78-1.85,1.07-2.81,1.36-5.16.04-8.84-.37-9.8-.04-.1-.19-.11-.25-.01-.27.47-.94,1.56-1.68,2.25-.97.9-1.91,1.78-2.39,2.85-1.02,2.27-2.74.6-4.41.96-1.67.35-6.63,1.43-6.82,4.79,0,.01,0,.02,0,.03,0,.06.04.27.15.52.04.1.17.11.23.03.4-.5,1.71-1.72,4.03.16.06.05.13.1.19.15.95.75,1.93,1.79,2.54,2.87.36.63.56,1.23.45,1.88-.78,4.52-8.64,4.31-8.64,4.31-1.44.01-3.14-.67-5.09-2.47-6.68-6.16-3.48-19.99,3.85-30.74.05-.07.14-.08.21-.03.17.15.32.28.44.46.24.38.42,1.02.19,1.65-.08.21-.42.33-.25.51.34.18.61-.01.79-.12.64-.4,1.02-.8,1.34-1.54.62-1.46.51-3.16.3-4.52,0-.04,0-.07.02-.1,1.01-1.41,15.23-19.49,17.3-23.79,1.21-2.51,3.74-5.57,4.72-10.56,0,0,0-.02,0-.02.02-1.06-.67-1.33-.9-.75ZM192.11,163.09c-.95,0-1.72-.77-1.72-1.73s.77-1.72,1.72-1.72,1.73.78,1.73,1.72-.77,1.73-1.73,1.73ZM119.5,182.64c-1.22-1.05-2.91-1.45-4.27-1.66l-.17-.03c-5.46-11.09-17.35-20.19-23.53-24.31-3.27-2.18-10.4-4.41-12.07-3.5-1.01.67,6.92,8.99,5.34,10.37-.57.5-3.52-3.63-4.66-6.55-.23-.58-.92-.31-.9.75,0,0,0,.02,0,.02.98,4.99,3.51,8.04,4.72,10.56,2.07,4.3,16.3,22.38,17.3,23.79.02.03.03.06.02.1-.21,1.36-.32,3.06.3,4.52.32.74.7,1.15,1.34,1.54.18.11.45.3.79.12.17-.18-.17-.3-.25-.51-.23-.63-.05-1.27.19-1.65.12-.18.27-.31.44-.46.06-.05.16-.04.21.03,7.33,10.75,10.54,24.58,3.85,30.74-1.95,1.8-3.65,2.48-5.09,2.47,0,0-7.87.21-8.64-4.31-.11-.65.09-1.25.45-1.88.61-1.07,1.59-2.11,2.54-2.87.06-.05.13-.1.19-.15,2.32-1.88,3.63-.66,4.03-.16.06.08.19.06.23-.03.11-.25.14-.47.15-.52,0-.01,0-.02,0-.03-.19-3.36-5.15-4.44-6.82-4.79-1.67-.35-3.39,1.32-4.41-.96-.48-1.07-1.42-1.95-2.39-2.85-.74-.69-1.41-1.77-1.68-2.25-.06-.1-.2-.09-.25.01-.41.96-1.73,4.64-.37,9.8.29.96.68,1.93,1.07,2.81.21.47.46.9.71,1.32.51.86,1.1,1.71,1.82,2.55.7.82,1.51,1.62,2.42,2.48,6.89,6.49,12.19,6.04,12.4,6.02,0,0,0,0,.01,0,2.79.03,5.79-1.16,8.46-3.9,12.09-13.37,5.82-38.03,5.45-39.3-.36-1.28-.95-3.42-.95-3.42,0,0-.08-.24-.2-.59h0c-.21-.75.46-1.18.46-1.18.21-.15.43-.27.67-.33.43-.11,1.1-.09,1.63.32.18.14.19.5.41.39.27-.27.17-.58.12-.79-.18-.73-.46-1.21-1.07-1.74ZM89.81,163.09c-.95,0-1.73-.77-1.73-1.73s.77-1.72,1.73-1.72,1.72.78,1.72,1.72-.77,1.73-1.72,1.73ZM149.56,170.28c1.47,3.65-.69,5.13-1.43,5.39-.1.04-.17.12-.23.22-.07.24-.15.54-.26.89-.24.87-.68,2.24-1.38,4.14-.47,2.14.62,3.36,2.91,8.84,3,7.17-3.13,18.27-3.13,18.27-2.12,4.83-3.57,11.08-3.76,16.02-.24,6.35.1,9.58,3.27,12.8,1.17,1.19,2.6,1.71,3.97,1.69,0,0,3-.16,4.73-1.53.26-.21.47-.32.67-.55.51-.57.8-1.21.98-2.1.22-1.11-.15-1.63-.78-2.32-.44-.49-.86-.92-1.53-1.19-1.23-.48-2.76-.68-4.01-.64-.43.01-.95.05-1.3.14-.12.03-.24.13-.38.17-.28.09-.52.15-.74.3-.37.25-.8.77-.83,1.44-.01.23.25.47.02.57-.38.03-.55-.25-.67-.43-.42-.62-.61-1.14-.61-1.95.02-1.61.82-3.14,1.57-4.31.09-.14.17-.3.27-.44.1-.13.24-.24.34-.37,0,0,.81-1.26,1.5-1.55,0,0,2.09-1.15,2.09-2.84s.1-1.96.26-2.67c.16-.7-.18-1.19-.23-1.85s-.01-1.36-.15-1.85c.02-.15.19-.29.28-.34l.3.09c.29.13.69.37,1.05.58.35.21.71.39.99.61.49.38.77.86,1.16,1.31.32.38.66.73.94,1.11.55.76,1,1.66,1.44,2.47.66,1.23,1.13,2.72,1.49,4.07.13.49.21.99.27,1.48.14.99.21,2.02.17,3.13-.04,1.08-.17,2.21-.34,3.45-.25,1.9-.9,3.79-1.76,5.14-2.64,4.18-5.99,4.84-5.99,4.84-8.31,1.76-16.49-5.27-19.1-13.34-1.41-4.35-2.95-8.56-3.42-15.85,0,0-1.03-16.02,2.21-23,2.71-5.84,4.82-7.73,4.5-10.47-.15-.7-.26-1.28-.34-1.77-.23-1.18-.34-1.89-.39-2.37-.02-.02-.04-.04-.07-.06-.76-.41-2.63-2.27-1.02-5.4.69-1.35.54-2.43-.1-2.84-.3-.19-.8-.22-.8-.22,0,0-.72-.1-1.64.54-.54.37-2.91,2.53-2.91,2.53-2.81,2.11-6.14,3.09-6.14,3.09,0,0-.99.2-1.39.09-.1-.03-.18-.1-.24-.19-.94-.57-2.76-2.14-3.32-2.81-.68-.82-2.1-2.68-2.74-3.45s-1.95-2.21-2.51-3.04c-.37-.46-.94-.56-1.29-.66-.35-.1-.72-.08-1.08-.15-.27-.05-.42-.03-.62-.11-.2-.08-.32-.27-.54-.48,0,0-.01,0-.02-.01-.17-.12-.42-.12-.63-.15-.45-.06-.85-.1-1.28-.19-.21-.05-.5-.07-.62-.23-.22-.28.04-.56.34-.64.28-.08.67-.02,1.03.01.22.02.51.08.75.08.06,0,.22,0,.24-.05.03-.08-.17-.34-.23-.45-.1-.19-.22-.31-.31-.43-.1-.14-.2-.29-.3-.42-.04-.05-.06-.09-.09-.14-.07-.15-.17-.3-.31-.39-.02-.01-.04-.03-.06-.04-.08-.07-.14-.17-.23-.24-.18-.15-.33-.1-.54-.14-.06-.01-.12-.03-.18-.06-.05-.02-.13-.07-.17-.07-.06,0-.13.06-.2.07-.1.01-.28-.03-.4-.05-.14-.02-.31-.07-.38-.19-.04-.08-.02-.2.04-.25.1-.07.28-.03.4-.04.15-.01.27-.03.39-.08-.13-.1-.29-.12-.43-.22-.15-.11-.32-.23-.45-.39-.1-.13-.25-.21-.41-.26-.07-.02-.13-.05-.19-.09-.27-.22-.13-.57.15-.49.02-.11.16-.07.23-.09.1.04.18.13.28.16.15.06.35.03.53.09.18.06.35.1.53.14.18.05.36.1.53.13.21.04.32.09.51.24.15.12.32.22.48.34.16.12.32.25.48.37.33.24.67.34.95.68.6.72,1.15,1.53,1.8,1.98.65.45,1.1.63,1.8.83h0c.4.04,1.09.66,1.43,1.16.42.61,3.72,3.62,4.61,4.24.61.42,2.32,1.47,3.31,2.11.45-.31,1.09-1.12,1.57-1.55.61-.55,2.53-2.15,3.11-2.61.57-.46,1.84-1.79,1.84-1.79,0,0,.68-.84,2.08-1.97.26-.21.54-.36.82-.48,1.14-.62,2.61-.44,3.68-.55,5.76-.6,4.79-3.14,4.2-3.79-.46-.51-1.32.15-2.24.55,0,0-.02,0-.02.01-.53.24-1.14.3-1.14.3-.14.02-.32-.03-.51-.13-.13-.07-.22-.14-.32-.25-.21-.23-.26-.42-.24-.81.01-.16,0-.22-.06-.33-.08-.15-.18-.21-.31-.22-.41-.04-.27-.47-.27-.47.01-.05.06-.13.09-.16.02-.01.03-.02.03-.03,0-.02-.09-.06-.14-.07-.09-.02-.14-.07-.2-.1-.18-.12-.02-.51-.02-.51.02-.1.03-.18.02-.24-.03-.13-.25-.15-.39-.17-.07-.01-.36-.07-.47-.13-.11-.06-.19-.14-.21-.24-.03-.1,0-.19.14-.45.18-.35.2-.41.35-.86.07-.22.11-.49.09-.68,0,0,0-.34-.09-.65,0-.01-.09-.28-.1-.3-.18-.35-.31-.84-.31-.84-.06-.31-.09-.55-.1-.81,0-.11,0-.27-.01-.36-.02-.27-.01-.58.02-.87l.08-.52s-.37.59-.83,1.37c-.46.78-1.94,2.82-3.19.49-1.24-2.3-.81-4.05-3.4-1.99,0,0,1.37-2.79,2.78-1.37,0,0,.44.46.78,1.4.34.94.83,2.2,1.82.34.77-1.45,1.37-4.46,7.83-4.46,2.33,0,3.75,1.2,4.83,2.46,1.67,1.93-.14,6.78-.11,8.24.06,2.62,2.84,5.07,3.85,5.81.78.66,4.22-.07,6.3,1.77,1.34,1.19,2.11,2.08,2.11,2.08,0,0,1.11,1.31,1.69,1.77.57.46,2.5,2.06,3.11,2.61.39.36.89.97,1.31,1.34.14.13.39.14.55.04.99-.64,2.39-1.53,2.98-1.93.89-.62,4.2-3.63,4.61-4.24.34-.5,1.03-1.12,1.43-1.16h0c.7-.21,1.14-.38,1.8-.83.65-.45,1.2-1.25,1.8-1.98.28-.34.63-.44.95-.68.16-.12.32-.25.48-.37.16-.12.34-.22.48-.34.18-.15.3-.21.51-.24.17-.03.35-.08.53-.13.17-.04.35-.08.53-.14.18-.06.38-.03.53-.09.1-.04.18-.12.28-.16.07.01.21-.02.23.09.29-.09.42.27.15.49-.05.04-.12.07-.19.09-.16.05-.3.13-.41.26-.13.16-.3.28-.45.39-.14.1-.3.12-.43.22.12.06.25.07.39.08.12,0,.3-.04.4.04.06.04.08.17.04.25-.07.12-.24.16-.38.19-.12.02-.31.06-.4.05-.07-.01-.14-.07-.2-.07-.04,0-.12.05-.17.07-.06.03-.11.05-.18.06-.21.05-.36,0-.54.14-.08.07-.14.17-.23.24-.02.02-.04.03-.06.04-.14.1-.24.24-.31.39-.02.05-.05.09-.09.14-.1.13-.19.28-.3.42-.09.12-.21.25-.31.43-.06.11-.26.36-.23.45.02.05.18.05.24.05.24,0,.53-.06.75-.08.36-.04.74-.1,1.03-.01.3.09.56.37.34.64-.12.16-.41.18-.62.23-.44.09-.83.13-1.28.19-.21.03-.46.03-.63.15,0,0-.02.01-.02.01-.22.21-.33.4-.54.48-.2.07-.35.05-.62.11-.36.07-.73.05-1.08.15-.35.1-.92.2-1.29.66-.56.83-1.86,2.27-2.51,3.04s-2.06,2.63-2.74,3.45c-.56.67-2.37,2.25-3.32,2.81-.06.1-.28.19-.38.22-.4.11-1.25-.12-1.25-.12,0,0-4.07-1.64-6.18-3.35-2.12-1.71-3.07-2.53-3.7-2.83-1.16-.55-2.47.66-1.48,3.09Z"/></svg>