<?xml version="1.0" encoding="UTF-8"?><svg id="Layer_1" xmlns="http://www.w3.org/2000/svg" viewBox="0 0 410.65 186.46"><defs><style>.cls-1{fill:#12406b;}</style></defs><path class="cls-1" d="M96.64,89.7s11.04-32.43,10.98-35.78c-.07-3.36-2.91-4.65-7.24-4.98-4.32-.32-10.52.77-11.64,1.56-.41-.64-1.83-1.4-3.65-1.4-9.88,0-17.34,2.43-17.34,2.43v-3.66c3.41-.46,6.03-3.38,6.03-6.91s-2.63-6.46-6.03-6.93v-6.02h5.95v-2.13h-5.95v-5.93h-1.95v5.94h-5.95v2.12h5.95v6.03c-3.39.48-6,3.39-6,6.92s2.61,6.43,6,6.91v3.67s-7.46-2.44-17.33-2.44c-1.84,0-3.25.77-3.66,1.41-1.12-.79-7.32-1.88-11.65-1.56-4.32.33-7.16,1.62-7.23,4.98-.06,3.35,10.99,35.78,10.99,35.78h59.73ZM89.99,53.47c.93-1.62,3.64-2.32,9.06-2.32,2.46,0,4.13.51,4.97,1.53.64.79.81,1.89.52,3.37-.52,2.62-2.7,8.91-2.73,8.98l.19.07s-3.87-.97-4.6,1.16c-.73,2.13,3.1,5.49,2.27,6.32-.73.73-2.53-4.74-4.31-2.95-1.45,1.45-1.24,6.62-.39,7.47.99.99,3.2-1.95,3.63-2.48.44-.53,1.36-1.45,1.07,0-.29,1.45-1.44,6.9-8.04,6.9-4.52,0-5.85-.65-6.37-1.84-.52-1.23-.72-3.29-.22-4.63.52-1.32.74-.96.94-.52.19.45,1.13,2.78,2.64,2.94,1.52.16,2.59-4.36,2.72-5.98.13-1.61-.62-3.07-2.75-1.06-2.13,2-2.35,1.9-2.55,1.97-.2.06-.58-.26-.03-.84.54-.58,4.09-4.07,4.23-5.13.1-.89-.34-2.01-3.2-2,.84-3.49,2.51-10.21,2.93-10.95ZM72.48,70.23c-1.32-.59-3.23,1.07-3.95,1.75-.7.68-1.17-.02-1.06-.53.11-.48,3.06-4.38,3.06-5.09s-.07-1.76-2.83-2h.21c0-2.55.18-9.39.96-10.31,1.05-1.21,6.26-1.87,10.09-2.27,2.56-.27,4.55-.26,5.91.03.81.17,1.8.53,1.87,1.27.15,1.5-1.73,11.19-1.75,11.29l.2.04s-2.57-.16-2.77,1.18c-.19,1.28,1.94,5.84,1.94,5.84,0,0,.19.75-.23.84-.42.1-2.84-2.78-3.39-2.94-.54-.16-1.88-.77-1.88,4.01,0,2.88,1,3.68,1.48,3.68,1.37,0,3.17-3.11,3.53-3.08.36.03-.13,1.79-.43,2.46-.29.68-1.61,3.35-3.15,4.46-1.22.87-3.21.75-5.55.74-2.27,0-4.48-.18-4.98-.43-1-.48-1.73-1.57-2.18-4.06-.46-2.48-.18-2.95.05-3.06.37-.18,1.95,2.4,2.4,2.81.61.52,2.12,1.36,2.72-.45.62-1.8,1.03-5.59-.29-6.17ZM46.81,53.07c.03-.26.15-.47.39-.67.56-.46,2.27-1.16,7.38-.63,3.83.4,9.05,1.06,10.09,2.27.8.93.98,7.76.98,10.31h.21c-2.77.24-2.84,1.29-2.84,2s2.95,4.61,3.05,5.09c.12.51-.34,1.22-1.05.53-.72-.68-2.62-2.33-3.95-1.75-1.32.58-.91,4.37-.29,6.17.62,1.81,2.13.97,2.72.45.47-.41,2.04-2.98,2.42-2.81.23.11.5.58.05,3.06-.45,2.49-1.17,3.58-2.18,4.06-.5.24-2.7.43-4.99.43-2.32,0-4.32.13-5.54-.74-1.54-1.11-2.86-3.78-3.16-4.46-.29-.68-.78-2.43-.42-2.46.35-.03,2.15,3.08,3.51,3.08.49,0,1.49-.8,1.49-3.68,0-4.78-1.32-4.17-1.88-4-.55.16-2.97,3.03-3.38,2.94-.42-.1-.23-.84-.23-.84,0,0,2.13-4.55,1.94-5.84-.2-1.35-2.78-1.18-2.78-1.18l.2-.04c-.02-.1-1.9-9.79-1.74-11.29ZM33.88,74.61c-.29-1.45.62-.53,1.07,0,.43.54,2.63,3.46,3.62,2.48.84-.84,1.08-6.02-.38-7.47-1.78-1.78-3.58,3.68-4.31,2.95-.83-.82,3-4.18,2.27-6.32-.73-2.13-4.61-1.16-4.61-1.16l.2-.07c-.02-.06-2.19-6.36-2.71-8.98-.3-1.48-.13-2.58.52-3.36.83-1.01,2.5-1.52,4.96-1.52,5.42,0,8.13.69,9.07,2.31.42.74,2.09,7.45,2.93,10.95-2.85,0-3.29,1.11-3.19,2,.12,1.06,3.68,4.55,4.22,5.13.56.58.17.9-.03.84-.19-.06-.42.03-2.55-1.97-2.14-2.01-2.87-.55-2.74,1.06.13,1.62,1.2,6.14,2.71,5.98,1.51-.16,2.45-2.49,2.65-2.94.19-.45.41-.8.92.52.52,1.33.31,3.4-.22,4.63-.52,1.19-1.84,1.84-6.36,1.84-6.6,0-7.75-5.45-8.04-6.9ZM77.44,97.05c-1.53-.04-.6,1.77-.87,2.99-.27,1.22-2.41.84-2.41.84,2.86-.16,1.29-2.17,1.44-3.7s1.89-1.81,3.59-.13c1.66,1.64,2.97,1,2.97,1-2.42,1.37-3.4-.97-4.72-1ZM78.69,103.88c-.45-1.86-2.48-.94-3.35-.44-.87.5-2.39.78-3.56-.04-1.17-.81-1.36-2.36-1.04-3.3s.24-1.89-.23-2.36c0,0,1.09.81,1.02,1.99-.07,1.18-.18,2.78,1.85,2.75,2.03-.04,2.4-1.43,4.79-.92,2.45.53,1.74,3.28,1.11,3.8-.57.47-1.62.68-2.21.44,0,0,2.08-.07,1.63-1.93ZM30.57,107.24c0,.36-.29.65-.65.65s-.65-.29-.65-.65.29-.65.65-.65.65.29.65.65ZM106.87,107.24c0,.36-.29.65-.65.65s-.65-.29-.65-.65.29-.65.65-.65.65.29.65.65ZM113.44,103.95c-.85,2.18-3.05,5.26-3.48,4.89-1.18-1.03,4.74-7.24,3.98-7.74-1.25-.68-6.57.98-9.01,2.61-4.61,3.08-13.48,9.86-17.55,18.14l-.12.02c-1.02.16-2.28.45-3.19,1.24-.46.39-.66.76-.8,1.3-.04.15-.11.39.09.59.17.08.17-.19.31-.29.4-.31.89-.32,1.22-.24.18.05.34.14.5.25,0,0,.5.32.34.88h0c-.09.26-.15.44-.15.44,0,0-.44,1.59-.71,2.55-.28.95-4.95,19.34,4.06,29.32,1.99,2.05,4.23,2.93,6.31,2.91,0,0,0,0,0,0,.15.01,4.11.35,9.25-4.49.68-.64,1.28-1.24,1.81-1.85.54-.63.98-1.26,1.36-1.9.19-.31.38-.64.53-.99.29-.66.58-1.38.8-2.1,1.01-3.85.03-6.59-.28-7.31-.03-.08-.14-.08-.18-.01-.2.35-.7,1.16-1.25,1.67-.72.67-1.43,1.33-1.79,2.13-.76,1.7-2.05.45-3.29.71-1.24.26-4.95,1.07-5.08,3.57,0,0,0,.01,0,.02,0,.04.03.2.11.39.03.07.13.08.17.02.3-.37,1.27-1.28,3,.12.05.04.1.07.14.11.71.56,1.44,1.34,1.89,2.14.27.47.42.92.33,1.4-.58,3.37-6.45,3.21-6.45,3.21-1.07,0-2.34-.5-3.8-1.84-4.99-4.6-2.59-14.91,2.88-22.93.03-.05.11-.06.15-.02.13.11.24.21.32.34.18.28.31.76.14,1.23-.06.16-.31.24-.19.38.25.13.45,0,.59-.09.47-.29.76-.6,1-1.15.46-1.09.38-2.36.22-3.37,0-.03,0-.05.02-.07.75-1.05,11.36-14.54,12.91-17.75.9-1.87,2.79-4.15,3.52-7.87,0,0,0-.01,0-.02.01-.79-.5-.99-.67-.56ZM106.22,108.52c-.71,0-1.28-.58-1.28-1.29s.57-1.28,1.28-1.28,1.29.58,1.29,1.28-.58,1.29-1.29,1.29ZM52.06,123.1c-.91-.78-2.17-1.08-3.19-1.24l-.12-.02c-4.07-8.28-12.94-15.06-17.55-18.14-2.44-1.63-7.76-3.29-9.01-2.61-.75.5,5.16,6.71,3.98,7.74-.43.38-2.63-2.7-3.48-4.89-.17-.43-.69-.23-.67.56,0,0,0,.01,0,.02.73,3.72,2.62,6,3.52,7.87,1.55,3.21,12.16,16.69,12.91,17.75.02.02.02.05.02.07-.15,1.01-.24,2.28.22,3.37.24.55.52.86,1,1.15.13.08.33.22.59.09.13-.14-.13-.22-.19-.38-.17-.47-.04-.95.14-1.23.09-.14.2-.23.32-.34.05-.04.12-.03.15.02,5.47,8.02,7.86,18.33,2.88,22.93-1.46,1.34-2.73,1.85-3.8,1.84,0,0-5.87.16-6.45-3.21-.08-.48.07-.94.33-1.4.46-.8,1.19-1.58,1.89-2.14.05-.04.1-.08.14-.11,1.73-1.4,2.71-.49,3-.12.05.06.14.05.17-.02.08-.19.11-.35.11-.39,0,0,0-.01,0-.02-.14-2.51-3.84-3.31-5.08-3.57-1.25-.26-2.53.98-3.29-.71-.36-.8-1.06-1.46-1.79-2.13-.55-.51-1.05-1.32-1.25-1.67-.04-.07-.15-.07-.18.01-.31.72-1.29,3.46-.28,7.31.21.72.51,1.44.8,2.1.15.35.34.67.53.99.38.64.82,1.27,1.36,1.9.52.61,1.13,1.21,1.81,1.85,5.14,4.84,9.1,4.51,9.25,4.49,0,0,0,0,0,0,2.08.02,4.32-.86,6.31-2.91,9.02-9.98,4.34-28.37,4.06-29.32-.27-.95-.71-2.55-.71-2.55,0,0-.06-.18-.15-.44h0c-.16-.56.34-.88.34-.88.16-.11.32-.2.5-.25.32-.08.82-.07,1.22.24.13.1.14.37.31.29.2-.2.13-.43.09-.59-.14-.54-.34-.91-.8-1.3ZM29.92,108.52c-.71,0-1.29-.58-1.29-1.29s.58-1.28,1.29-1.28,1.28.58,1.28,1.28-.57,1.29-1.28,1.29ZM74.48,113.88c1.1,2.73-.52,3.83-1.07,4.02-.08.03-.13.09-.17.16-.05.18-.11.4-.19.66-.18.65-.51,1.67-1.03,3.09-.35,1.6.46,2.51,2.17,6.6,2.24,5.34-2.33,13.63-2.33,13.63-1.58,3.61-2.66,8.26-2.81,11.95-.18,4.74.07,7.14,2.44,9.55.88.89,1.94,1.28,2.96,1.26,0,0,2.24-.12,3.53-1.14.19-.15.35-.24.5-.41.38-.43.6-.9.73-1.57.16-.83-.11-1.21-.58-1.73-.33-.36-.64-.69-1.14-.88-.91-.36-2.06-.51-2.99-.48-.32,0-.71.04-.97.1-.09.02-.18.09-.28.13-.21.07-.39.11-.55.22-.28.19-.59.57-.62,1.07,0,.17.19.35.02.42-.28.02-.41-.19-.5-.32-.32-.46-.46-.85-.45-1.45.01-1.2.61-2.34,1.17-3.21.07-.11.13-.22.2-.33.07-.1.18-.18.25-.28,0,0,.61-.94,1.12-1.16,0,0,1.56-.86,1.56-2.12s.07-1.46.2-1.99c.12-.52-.13-.89-.17-1.38s0-1.02-.11-1.38c.02-.11.15-.21.21-.25l.22.06c.21.1.51.27.78.43.26.15.53.29.74.46.36.28.58.64.87.98.24.28.49.54.7.83.41.56.75,1.23,1.07,1.84.49.91.84,2.03,1.11,3.03.1.37.15.74.2,1.1.1.74.16,1.51.13,2.33-.03.8-.13,1.64-.25,2.57-.19,1.42-.67,2.82-1.31,3.83-1.97,3.11-4.47,3.61-4.47,3.61-6.19,1.31-12.3-3.93-14.25-9.95-1.05-3.25-2.2-6.39-2.55-11.82,0,0-.77-11.95,1.65-17.15,2.02-4.36,3.6-5.77,3.36-7.81-.11-.52-.19-.96-.26-1.32-.17-.88-.26-1.41-.29-1.77-.01-.02-.03-.03-.05-.04-.57-.3-1.96-1.69-.76-4.03.52-1.01.41-1.81-.07-2.12-.22-.14-.6-.16-.6-.16,0,0-.53-.08-1.22.4-.4.28-2.17,1.89-2.17,1.89-2.1,1.57-4.58,2.31-4.58,2.31,0,0-.74.15-1.04.07-.07-.02-.13-.07-.18-.14-.7-.42-2.06-1.59-2.47-2.1-.51-.61-1.57-2-2.04-2.57s-1.45-1.65-1.87-2.27c-.28-.34-.7-.42-.96-.49-.26-.08-.53-.06-.81-.11-.2-.04-.31-.02-.46-.08-.15-.06-.24-.2-.4-.36,0,0-.01,0-.01,0-.12-.09-.32-.09-.47-.11-.34-.05-.63-.08-.96-.15-.16-.03-.37-.05-.46-.17-.16-.21.03-.41.25-.48.21-.06.5-.02.77,0,.17.02.38.06.56.06.05,0,.17,0,.18-.03.03-.06-.13-.25-.17-.33-.07-.14-.16-.23-.23-.32-.08-.1-.15-.21-.22-.31-.03-.03-.05-.07-.06-.1-.05-.11-.13-.22-.23-.29-.01,0-.03-.02-.04-.03-.06-.05-.11-.12-.17-.18-.13-.11-.24-.07-.4-.11-.05,0-.09-.03-.13-.04-.04-.02-.1-.05-.13-.05-.04,0-.1.04-.15.05-.07.01-.21-.02-.3-.04-.11-.02-.23-.05-.28-.14-.03-.06-.01-.15.03-.18.07-.06.21-.02.3-.03.11,0,.2-.02.29-.06-.1-.07-.22-.09-.32-.16-.11-.08-.24-.17-.33-.29-.08-.09-.19-.15-.3-.19-.05-.02-.1-.04-.14-.07-.2-.16-.1-.43.12-.36.02-.08.12-.06.17-.06.07.03.13.09.21.12.11.04.26.02.4.07.13.04.26.07.39.11.14.03.27.07.39.09.15.03.24.07.38.18.11.09.24.16.36.26.12.09.24.19.36.28.24.18.5.26.71.51.44.54.86,1.14,1.34,1.48.49.34.82.47,1.34.62h0c.29.03.82.49,1.07.86.31.46,2.77,2.7,3.44,3.16.46.32,1.73,1.1,2.47,1.57.34-.23.81-.83,1.17-1.16.46-.41,1.89-1.61,2.32-1.95.43-.34,1.37-1.33,1.37-1.33,0,0,.51-.63,1.55-1.47.19-.16.4-.27.61-.36.85-.46,1.94-.33,2.75-.41,4.29-.45,3.57-2.35,3.13-2.83-.35-.38-.99.11-1.67.41,0,0-.01,0-.02,0-.39.18-.85.23-.85.23-.11.01-.24-.02-.38-.1-.09-.05-.16-.1-.24-.19-.16-.17-.2-.32-.18-.61,0-.12,0-.17-.04-.24-.06-.11-.13-.16-.23-.16-.3-.03-.2-.35-.2-.35,0-.04.04-.1.07-.12.01,0,.02-.02.02-.02,0-.01-.06-.05-.1-.06-.07-.02-.1-.05-.15-.08-.14-.09-.01-.38-.01-.38.01-.08.03-.13.01-.18-.02-.1-.18-.11-.29-.13-.06-.01-.27-.05-.35-.09-.08-.04-.14-.11-.16-.18-.02-.08,0-.14.1-.34.13-.26.15-.3.26-.64.06-.16.08-.36.07-.51,0,0,0-.25-.07-.48,0,0-.07-.21-.07-.22-.14-.26-.23-.63-.23-.63-.05-.23-.07-.41-.07-.61,0-.08,0-.2,0-.27-.01-.2,0-.44.02-.65l.06-.39s-.28.44-.62,1.03c-.34.58-1.45,2.1-2.38.36-.93-1.72-.61-3.02-2.54-1.48,0,0,1.02-2.08,2.08-1.02,0,0,.33.34.58,1.04.26.7.62,1.64,1.36.26.58-1.08,1.02-3.33,5.84-3.33,1.74,0,2.79.89,3.6,1.83,1.25,1.44-.11,5.06-.08,6.15.04,1.95,2.12,3.79,2.87,4.33.58.49,3.15-.05,4.7,1.32,1,.88,1.57,1.55,1.57,1.55,0,0,.83.98,1.26,1.32.43.34,1.86,1.54,2.32,1.95.29.26.67.72.98,1,.1.09.29.11.41.03.74-.47,1.79-1.14,2.22-1.44.67-.46,3.13-2.71,3.44-3.16.25-.37.77-.83,1.07-.86h0c.52-.16.85-.28,1.34-.62.48-.33.9-.94,1.34-1.48.21-.25.47-.33.71-.51.12-.09.24-.19.36-.28.12-.09.25-.17.36-.26.14-.11.22-.15.38-.18.13-.02.26-.06.39-.09.13-.03.26-.06.39-.11.13-.04.28-.02.4-.07.08-.03.14-.09.21-.12.05,0,.16-.02.17.06.21-.06.31.2.12.36-.04.03-.09.05-.14.07-.12.04-.23.1-.3.19-.1.12-.22.21-.33.29-.1.07-.22.09-.32.16.09.04.18.05.29.06.09,0,.23-.03.3.03.04.03.06.13.03.18-.05.09-.18.12-.28.14-.09.01-.23.05-.3.04-.05,0-.11-.05-.15-.05-.03,0-.09.04-.13.05-.04.02-.09.03-.13.04-.16.03-.27,0-.4.11-.06.05-.11.12-.17.18-.01.01-.03.02-.04.03-.1.07-.18.18-.23.29-.02.03-.04.07-.06.1-.07.1-.15.21-.22.31-.07.09-.16.18-.23.32-.04.08-.2.27-.17.33.01.04.14.04.18.03.18,0,.39-.04.56-.06.26-.03.55-.07.77,0,.22.07.42.27.25.48-.09.12-.3.14-.46.17-.33.07-.62.1-.96.15-.15.02-.35.02-.47.11,0,0-.01,0-.01,0-.16.16-.25.3-.4.36-.15.06-.26.04-.46.08-.27.05-.54.04-.81.11-.26.08-.68.15-.96.49-.42.62-1.39,1.69-1.87,2.27s-1.54,1.96-2.04,2.57c-.42.5-1.77,1.67-2.47,2.1-.05.07-.21.14-.28.16-.3.08-.93-.09-.93-.09,0,0-3.03-1.22-4.61-2.5-1.58-1.28-2.29-1.89-2.76-2.11-.86-.41-1.84.49-1.11,2.31Z"/><polygon class="cls-1" points="130.63 124.68 133.9 124.68 133.9 112.93 140.53 112.93 140.53 110.07 133.9 110.07 133.9 103.13 141.53 103.13 141.53 100.2 130.63 100.2 130.63 124.68"/><rect class="cls-1" x="144.62" y="100.2" width="3.2" height="24.48"/><path class="cls-1" d="M157.42,109.69c-1.66-1.76-2.35-2.49-2.35-4.29,0-.69,0-2.78,2.44-2.78,1.75,0,2.28,1.02,2.41,1.87.06.39.07.61.12,2.33l.02.76h2.86v-.1c0-3.58,0-4.43-.71-5.59-.83-1.36-2.36-2.04-4.52-2.04-2.44,0-4.13.8-5.02,2.39-.72,1.27-.72,2.7-.72,3.39,0,2.14.44,3.67,2.81,6.12l3.3,3.37c1.37,1.4,2.21,2.35,2.21,4.22,0,2.71-2.26,2.92-2.96,2.92-2.32,0-2.76-1.75-2.82-2.79-.04-.44-.04-.71-.04-3.26v-.1h-3.09v2.79c0,1.47.2,3.59,1.93,4.93.43.37,1.7,1.23,4.12,1.23,1.4,0,5.99-.43,5.99-5.91,0-2.82-.89-4.06-2.92-6.23l-3.06-3.2Z"/><polygon class="cls-1" points="176.37 100.2 170.27 110.38 170.27 100.2 167.07 100.2 167.07 124.68 170.27 124.68 170.27 115.12 172.07 112.4 176.36 124.68 179.91 124.68 174.17 109.46 179.95 100.2 176.37 100.2"/><polygon class="cls-1" points="185.75 113.1 192.45 113.1 192.45 110.14 185.75 110.14 185.75 103.13 193.38 103.13 193.38 100.2 182.51 100.2 182.51 124.68 193.65 124.68 193.65 121.75 185.75 121.75 185.75 113.1"/><path class="cls-1" d="M208.57,111.17c.38-.97.59-2.53.59-4.27,0-6.19-3.37-6.71-6.53-6.71h-5.4v24.48h3.19v-10.62h2.34l4.13,10.62h3.42l-4.38-11c.67-.18,1.97-.58,2.64-2.51ZM205.92,107.25c0,1.2,0,3.01-1.12,3.77-.62.43-1.13.43-4.38.43v-8.28c3.02,0,3.66,0,4.35.43,1.15.71,1.15,2.34,1.15,3.66Z"/><rect class="cls-1" x="213.35" y="100.2" width="3.2" height="24.48"/><path class="cls-1" d="M226.28,100.2h-4.88v24.48h4.82c2.65,0,4.93,0,6.34-2.25.86-1.44.94-3.07.98-5.59.07-3.3.07-4.82.07-6.16,0-5.9-.1-7.18-1.26-8.62-1.48-1.87-3.71-1.87-6.06-1.87ZM229.11,103.69c1,.71,1.06,1.93,1.09,4.63.03,2.34.03,3.18.03,5.43,0,1.53-.04,4.72-.2,5.79-.33,2.09-1.62,2.25-3.54,2.25h-1.64v-18.59c2.92,0,3.56.02,4.27.49Z"/><polygon class="cls-1" points="238.45 100.2 238.24 100.2 238.24 124.68 238.45 124.68 241.44 124.68 241.65 124.68 241.65 100.2 241.44 100.2 238.45 100.2"/><path class="cls-1" d="M258.04,111.17c.38-.98.59-2.54.59-4.27,0-6.19-3.37-6.71-6.53-6.71h-5.61v24.48h3.41v-10.62h2.13l4.1,10.56.03.07h3.62l-4.38-11c.67-.18,1.97-.58,2.64-2.51ZM249.9,103.16c2.83,0,3.46.01,4.14.43,1.15.71,1.15,2.27,1.15,3.66,0,1.2,0,3.01-1.12,3.77-.6.42-1.1.43-4.17.43v-8.28Z"/><polygon class="cls-1" points="266.06 121.75 266.06 113.1 272.56 113.1 272.76 113.1 272.76 110.14 272.56 110.14 266.06 110.14 266.06 103.13 273.48 103.13 273.69 103.13 273.69 100.2 273.48 100.2 262.83 100.2 262.62 100.2 262.62 124.68 262.83 124.68 273.76 124.68 273.97 124.68 273.97 121.75 273.76 121.75 266.06 121.75"/><polygon class="cls-1" points="290.21 100.2 286.83 100.2 286.62 100.2 280.74 110.03 280.74 100.2 280.53 100.2 277.54 100.2 277.33 100.2 277.33 124.68 277.54 124.68 280.53 124.68 280.74 124.68 280.74 115.12 282.4 112.61 286.58 124.61 286.61 124.68 286.82 124.68 290.17 124.68 290.38 124.68 284.64 109.46 290.42 100.2 290.21 100.2"/><polygon class="cls-1" points="291.82 100.2 291.61 100.2 291.61 103.13 291.82 103.13 296.21 103.13 296.21 124.68 296.42 124.68 299.41 124.68 299.62 124.68 299.62 103.13 304.02 103.13 304.22 103.13 304.22 100.2 304.02 100.2 291.82 100.2"/><path class="cls-1" d="M312.31,99.82s-.06,0-.09,0c-.04,0-.08,0-.12,0-3.75,0-5.89,1.9-6.19,5.49-.1,1.33-.17,6.53-.17,7.95v.56c0,2.23,0,5.29.25,6.81.3,1.78,1.08,2.98,2.38,3.69,1.14.62,2.37.7,3.32.7.02,0,.03,0,.05,0,.06,0,.11,0,.16,0,5.02,0,5.87-3.25,6.05-6.42.1-1.77.2-4.56.2-6.5,0-.09,0-.24,0-.45.01-1.33.04-4.85-.14-6.65-.14-1.28-.57-5.17-5.71-5.17ZM309.3,117.85c0-.29,0-.57,0-.84-.04-1.54-.04-1.57-.04-3.23,0-5.87,0-6.22.07-7.42v-.05c.07-1.29.2-3.67,2.71-3.73,2.48.06,2.54,2.29,2.58,3.76v.05c.02.87.02,1.76.03,2.64,0,1.01.02,2.05.04,3.07.03,1.91-.03,4.38-.17,6.45v.09c-.11,1.52-.25,3.6-2.58,3.66-2.61-.06-2.62-2.29-2.63-4.46Z"/><path class="cls-1" d="M334.34,111.17c.38-.97.59-2.53.59-4.27,0-6.19-3.37-6.71-6.53-6.71h-5.61v24.48h3.41v-10.62h2.12l4.13,10.62h3.63l-4.37-11c.67-.18,1.97-.58,2.63-2.51ZM330.34,103.59c1.15.71,1.15,2.34,1.15,3.66,0,1.2,0,3.01-1.12,3.77-.6.42-1.11.43-4.16.43v-8.28c2.83,0,3.46.01,4.14.43Z"/><path class="cls-1" d="M346.19,100.2h-3.41l-5.24,24.35-.03.13h3.55l.83-4.67h5.25l.86,4.67h3.59l-5.39-24.4-.02-.08ZM344.45,105.95l2.14,11.23h-4.15l2.01-11.23Z"/><polygon class="cls-1" points="350.68 100.2 350.47 100.2 350.47 103.13 350.68 103.13 355.08 103.13 355.08 124.68 355.29 124.68 358.28 124.68 358.49 124.68 358.49 103.13 362.89 103.13 363.09 103.13 363.09 100.2 362.89 100.2 350.68 100.2"/><polygon class="cls-1" points="368.56 121.75 368.56 113.1 375.06 113.1 375.26 113.1 375.26 110.14 375.06 110.14 368.56 110.14 368.56 103.13 375.99 103.13 376.19 103.13 376.19 100.2 375.99 100.2 365.33 100.2 365.12 100.2 365.12 124.68 365.33 124.68 376.26 124.68 376.47 124.68 376.47 121.75 376.26 121.75 368.56 121.75"/><polygon class="cls-1" points="390.15 100.2 377.95 100.2 377.74 100.2 377.74 103.13 377.95 103.13 382.35 103.13 382.35 124.68 382.55 124.68 385.54 124.68 385.75 124.68 385.75 103.13 390.15 103.13 390.36 103.13 390.36 100.2 390.15 100.2"/></svg>