<svg width="24" height="24" viewBox="0 0 24 24" fill="none" xmlns="http://www.w3.org/2000/svg">
<path d="M13 5.25C13.8655 5.25 14.6808 5.65724 15.2002 6.34961L17.4688 9.375L20.6143 10.5547C21.2973 10.8108 21.75 11.4639 21.75 12.1934V13.7188C21.75 14.5217 21.2037 15.2221 20.4248 15.417L19.7451 15.5869C19.7486 15.6408 19.75 15.6952 19.75 15.75C19.75 17.1307 18.6307 18.25 17.25 18.25C15.8693 18.25 14.75 17.1307 14.75 15.75H9.75C9.75 17.1307 8.63071 18.25 7.25 18.25C5.86929 18.25 4.75 17.1307 4.75 15.75H4C3.0335 15.75 2.25 14.9665 2.25 14V11C2.25 10.1752 2.82092 9.4839 3.58887 9.29883L5.7998 6.34961C6.31916 5.65724 7.13448 5.25 8 5.25H13ZM7.25 14.75C6.69772 14.75 6.25 15.1977 6.25 15.75C6.25 16.3023 6.69772 16.75 7.25 16.75C7.80228 16.75 8.25 16.3023 8.25 15.75C8.25 15.1977 7.80228 14.75 7.25 14.75ZM17.25 14.75C16.6977 14.75 16.25 15.1977 16.25 15.75C16.25 16.3023 16.6977 16.75 17.25 16.75C17.8023 16.75 18.25 16.3023 18.25 15.75C18.25 15.1977 17.8023 14.75 17.25 14.75ZM3.99609 10.75C3.85997 10.7523 3.75 10.8633 3.75 11V14C3.75 14.1381 3.86193 14.25 4 14.25H5.25C5.70611 13.6428 6.43213 13.25 7.25 13.25C8.06787 13.25 8.79389 13.6428 9.25 14.25H15.25C15.7061 13.6428 16.4321 13.25 17.25 13.25C18.0353 13.25 18.736 13.6124 19.1943 14.1787L20.0605 13.9619C20.1718 13.9341 20.25 13.8335 20.25 13.7188V12.1934C20.25 12.0892 20.1854 11.9956 20.0879 11.959L16.8643 10.75H3.99609ZM8 6.75C7.60655 6.75 7.23607 6.93524 7 7.25L5.5 9.25H8.75V6.75H8ZM10.25 6.75V9.25H15.5L14 7.25C13.7639 6.93524 13.3934 6.75 13 6.75H10.25Z" fill="#111D46"/>
</svg>
