<svg width="24" height="24" viewBox="0 0 24 24" fill="none" xmlns="http://www.w3.org/2000/svg">
<path d="M13 16.75C13.9665 16.75 14.75 17.5335 14.75 18.5V20C14.75 20.4142 14.4142 20.75 14 20.75H4C3.58579 20.75 3.25 20.4142 3.25 20V18.5C3.25 17.5335 4.0335 16.75 5 16.75H13ZM11 3.25C11.1989 3.25 11.3896 3.32907 11.5303 3.46973L16.0303 7.96973C16.3232 8.26262 16.3232 8.73738 16.0303 9.03027L15.3232 9.7373C14.9951 10.0655 14.55 10.25 14.0859 10.25H13.4141C13.3478 10.25 13.2842 10.2764 13.2373 10.3232L12.3105 11.25L19.5303 18.4697C19.8232 18.7626 19.8232 19.2374 19.5303 19.5303C19.2374 19.8232 18.7626 19.8232 18.4697 19.5303L11.25 12.3105L10.3232 13.2373C10.2764 13.2842 10.25 13.3478 10.25 13.4141V14.0859C10.25 14.55 10.0655 14.9951 9.7373 15.3232L9.03027 16.0303C8.73738 16.3232 8.26262 16.3232 7.96973 16.0303L3.46973 11.5303C3.3286 11.3891 3.24948 11.1976 3.25 10.998C3.25052 10.7985 3.33079 10.6072 3.47266 10.4668L4.18066 9.7666C4.50829 9.44249 4.95027 9.26075 5.41113 9.26074H6.08496C6.15138 9.26073 6.21482 9.23356 6.26172 9.18652L9.17676 6.2627C9.22336 6.2159 9.24993 6.15295 9.25 6.08691V5.41406C9.25004 4.94999 9.43454 4.50491 9.7627 4.17676L10.4697 3.46973C10.6104 3.32907 10.8011 3.25 11 3.25ZM5 18.25C4.86193 18.25 4.75 18.3619 4.75 18.5V19.25H13.25V18.5C13.25 18.3619 13.1381 18.25 13 18.25H5ZM6.61719 10.6777C6.44675 10.7321 6.26719 10.7607 6.08496 10.7607H5.41113C5.34529 10.7607 5.28215 10.7867 5.23535 10.833L5.06348 11.0029L8.5 14.4395L8.67676 14.2627C8.72361 14.2158 8.74996 14.1522 8.75 14.0859V13.4141C8.75002 13.2349 8.77746 13.0585 8.83008 12.8906L6.61719 10.6777ZM7.81445 9.75391L9.75 11.6895L11.6895 9.75L9.75098 7.81152L7.81445 9.75391ZM10.8232 5.2373C10.7764 5.28415 10.75 5.34781 10.75 5.41406V6.08691C10.75 6.26577 10.7224 6.44176 10.6699 6.60938L12.8906 8.83008C13.0585 8.77746 13.2349 8.75002 13.4141 8.75H14.0859C14.1522 8.74996 14.2158 8.72361 14.2627 8.67676L14.4395 8.5L11 5.06055L10.8232 5.2373Z" fill="#111D46"/>
</svg>
