<svg width="24" height="24" viewBox="0 0 24 24" fill="none" xmlns="http://www.w3.org/2000/svg">
<path d="M9.99072 3.05103C11.0776 1.88807 12.9223 1.88813 14.0093 3.05103L14.7974 3.89478C15.0438 4.15844 15.3927 4.30247 15.7534 4.29028L16.9067 4.25122C18.4977 4.19745 19.8023 5.50206 19.7485 7.09302L19.7095 8.24731C19.6974 8.60778 19.8415 8.95607 20.105 9.20239L20.9487 9.99048C22.1117 11.0774 22.1117 12.9221 20.9487 14.009L20.105 14.7971C19.8413 15.0435 19.6973 15.3925 19.7095 15.7532L19.7485 16.9065C19.8023 18.4974 18.4977 19.8021 16.9067 19.7483L15.7534 19.7092C15.3927 19.697 15.0438 19.8411 14.7974 20.1047L14.0093 20.9485C12.9223 22.1115 11.0777 22.1115 9.99072 20.9485L9.20264 20.1047C8.95632 19.8413 8.60803 19.6972 8.24756 19.7092L7.09326 19.7483C5.50231 19.8021 4.1977 18.4974 4.25146 16.9065L4.29053 15.7532C4.30272 15.3925 4.15868 15.0435 3.89502 14.7971L3.05127 14.009C1.88837 12.9221 1.88831 11.0774 3.05127 9.99048L3.89502 9.20239C4.15858 8.95606 4.3026 8.60786 4.29053 8.24731L4.25146 7.09302C4.1977 5.50206 5.50231 4.19745 7.09326 4.25122L8.24756 4.29028C8.6081 4.30235 8.95631 4.15834 9.20264 3.89478L9.99072 3.05103ZM12.9136 4.07544C12.4196 3.54688 11.5815 3.54703 11.0874 4.07544L10.2983 4.91919C9.75628 5.49907 8.99011 5.81604 8.19678 5.78931L7.04248 5.75024C6.31932 5.72581 5.72605 6.31908 5.75049 7.04224L5.78955 8.19653C5.81628 8.98987 5.49932 9.75604 4.91943 10.2981L4.07568 11.0872C3.54728 11.5813 3.54713 12.4193 4.07568 12.9133L4.91943 13.7014C5.49949 14.2435 5.81637 15.0105 5.78955 15.804L5.75049 16.9573C5.72605 17.6804 6.31932 18.2737 7.04248 18.2493L8.19678 18.2102C8.99018 18.1835 9.75628 18.5013 10.2983 19.0813L11.0874 19.9241C11.5815 20.4527 12.4195 20.4527 12.9136 19.9241L13.7017 19.0813C14.2438 18.5012 15.0107 18.1834 15.8042 18.2102L16.9575 18.2493C17.6807 18.2737 18.274 17.6804 18.2495 16.9573L18.2104 15.804C18.1836 15.0105 18.5015 14.2435 19.0815 13.7014L19.9243 12.9133C20.4529 12.4193 20.4529 11.5812 19.9243 11.0872L19.0815 10.2981C18.5016 9.75603 18.1837 8.98993 18.2104 8.19653L18.2495 7.04224C18.274 6.31908 17.6807 5.72581 16.9575 5.75024L15.8042 5.78931C15.0107 5.81612 14.2438 5.49924 13.7017 4.91919L12.9136 4.07544Z" fill="#111D46"/>
</svg>
