<?xml version="1.0" encoding="utf-8"?>
<!-- Generator: Adobe Illustrator 26.3.1, SVG Export Plug-In . SVG Version: 6.00 Build 0)  -->
<svg version="1.1" id="a" xmlns="http://www.w3.org/2000/svg" xmlns:xlink="http://www.w3.org/1999/xlink" x="0px" y="0px"
	 viewBox="0 0 699.4 154" style="enable-background:new 0 0 699.4 154;" xml:space="preserve">
<style type="text/css">
	.st0{fill:#00A1E0;}
	.st1{fill:#9ADFF3;}
	.st2{fill:#03477F;}
	.st3{enable-background:new    ;}
</style>
<g>
	<path d="M295.3,42.1l0.1,31.1H288l-0.1-31.1h-4.2v-4.9h4.2v-5.6c0-5.3,3.1-10.2,10-10.2h4.6V27h-3.2c-2.8,0-4,1.6-4,4.3v6h7.3v4.9
		L295.3,42.1L295.3,42.1z"/>
	<path d="M344.9,42l0.1,31.1h-7.4L337.5,42h-4.2v-4.9h4.2v-5.6c0-5.3,3.2-10.2,10-10.2h4.6v5.6h-3.2c-2.8,0-4,1.6-4,4.3v6h7.3V42
		H344.9L344.9,42z"/>
	<path d="M402.9,58.5V73h-7.4V58.5v-5.7v-5.6c0-5.3,3.2-10.2,10-10.2h4.6v5.6h-3.2c-2.8,0-4,1.6-4,4.3v5.2V58.5L402.9,58.5z"/>
	<path d="M370,73.5c-4.5,0-7.6-1.2-9.8-3.5c-1.9-1.9-2.9-4.8-2.9-7.9c0-6.1,4.2-10.6,12.6-10.6h9.7v-2.6c0-4.6-2.3-6.9-8-6.9
		c-4.1,0-6,1-8,3.6l-4.9-4.6c3.5-4,7.1-5.3,13.2-5.3c10.1,0,15.1,4.2,15.1,12.6v23.9C387.1,72.2,378,73.5,370,73.5 M379.7,66.8v-7
		v-3.1h-4.1h-4.5c-4.3,0-6.6,2-6.6,5.3s2.2,5.2,6.8,5.2C375.8,67.1,379.7,66.8,379.7,66.8"/>
	<path d="M454.6,73.3c-6,0-11.1-1-15.4-5.2l4.8-4.8c3,3,7,3.8,10.6,3.8c4.5,0,8-1.6,8-5.1c0-2.5-1.4-4.1-4.9-4.3l-5.9-0.5
		c-6.9-0.6-10.9-3.7-10.9-10.1c0-7.2,6.1-11.2,13.8-11.2c5.5,0,10.2,1.1,13.6,4.1l-4.6,4.7c-2.3-2-5.6-2.7-9-2.7
		c-4.4,0-6.6,2-6.6,4.7c0,2.2,1.2,3.8,5.1,4.2l5.8,0.5c6.9,0.5,10.9,3.8,11,10.3C469.9,69.3,463.4,73.3,454.6,73.3"/>
	<rect x="502.4" y="36.8" transform="matrix(1 -1.919850e-03 1.919850e-03 1 -0.1044 0.9717)" width="7.4" height="36.1"/>
	<path d="M530,72.8c-7,0-10.1-4.7-10.1-10.1l-0.1-41.4h7.4l0.1,41.7c0,2.8,1,4.3,4,4.3h1.4v5.6L530,72.8L530,72.8z"/>
	<path d="M226.2,73.4c-7,0-10.1-4.7-10.1-10.1L216,21.9h7.4l0.1,41.7c0,2.8,1,4.3,4,4.3H242v5.6L226.2,73.4L226.2,73.4z"/>
	<path d="M553.3,73.2c-6,0-11.1-1-15.4-5.2l4.8-4.8c3,3,6.9,3.8,10.6,3.8c4.5,0,8-1.6,8-5.1c0-2.5-1.4-4.1-4.9-4.3l-5.9-0.5
		c-6.9-0.6-10.8-3.7-10.9-10.1c0-7.2,6.1-11.2,13.8-11.2c5.5,0,10.2,1.1,13.6,4.1l-4.6,4.7c-2.3-2-5.6-2.7-9.1-2.7
		c-4.4,0-6.6,2-6.6,4.7c0,2.2,1.2,3.8,5.1,4.2l5.8,0.5c6.9,0.5,10.9,3.8,10.9,10.3C568.5,69.2,562,73.2,553.3,73.2"/>
	<path d="M651.7,56.3c0,6.3,3.3,10.3,9.3,10.2c4.1,0,6.3-1.2,8.9-3.8l4.7,4.4c-3.8,3.8-7.3,5.7-13.7,5.7c-9.2,0-16.5-4.8-16.5-18.8
		c0-11.9,6.1-18.8,15.5-18.8c9.8,0,15.6,7.2,15.6,17.6v3.3L651.7,56.3L651.7,56.3z M667.1,46.2c-1.2-2.8-3.8-4.6-7.2-4.6
		c-3.5,0-6.2,1.9-7.3,4.6c-0.7,1.7-0.9,2.8-0.9,5h16.5C668.1,48.9,667.9,47.8,667.1,46.2"/>
	<path d="M325,67.6c-3,0-4-1.4-4-4.3V42h7.1v-4.9H321v-9.7h-7.4v9.7h-4.2V42h4.2v21c0,5.4,3.1,10.1,10.1,10.1h4.6v-5.6L325,67.6
		L325,67.6z"/>
	<path d="M430.8,67.4c-3,0-4-1.4-4-4.3V41.8h7.1v-4.9h-7.1v-9.7h-7.4v9.7h-4.2v4.9h4.2v21c0,5.4,3.1,10.1,10.1,10.1h4.6v-5.6
		L430.8,67.4L430.8,67.4z"/>
	<path d="M490.5,67.3c-3,0-4-1.4-4-4.3V41.7h7.1v-4.9h-7.1v-9.7h-7.4v9.7h-4.2v4.9h4.2v21c0,5.4,3.1,10.1,10.1,10.1h4.6v-5.6
		L490.5,67.3L490.5,67.3z"/>
	<path d="M696.1,66.9c-3,0-4-1.4-4-4.3V41h7.1v-4.6h-7.1v-9.7h-7.4v9.7h-4.2V41h4.2v21.3c0,5.4,3.1,10.1,10.1,10.1h4.6v-5.6
		C699.4,66.9,696.1,66.9,696.1,66.9z"/>
	<path d="M262.1,73.7c-12.4,0-14.9-7.6-15-12.7L247,37.3h7.7c0,0-0.1,18.8,0,22c0,3.2,0.6,8.5,7.3,8.5c6.7,0,7.3-5.3,7.3-8.5
		s-0.1-22-0.1-22h7.7V61C277,66,274.5,73.7,262.1,73.7"/>
	<path d="M624.3,35.5c12.4,0,15,7.6,15,12.7v24.4h-7.7V49.9c0-3.2-0.6-8.5-7.3-8.5s-7.2,5.3-7.2,8.5v22.7h-7.7V48.2
		C609.4,43.1,611.8,35.5,624.3,35.5"/>
	<path d="M588.8,78.5c-0.7,2-1.6,3.4-2.6,4.5c-2,2-4.6,2.6-7.4,2.6h-2.9v-6.5h1.8c3,0,4.1-0.9,5.2-3.8l1.6-4.3l-12.7-34.3h7.7
		l8.7,25.4l8.3-25.4h7.8L588.8,78.5L588.8,78.5z"/>
	<path d="M510.3,25.2c0-2.4-1.9-4.3-4.3-4.3s-4.3,1.9-4.3,4.3s2,4.3,4.3,4.3C508.4,29.6,510.3,27.6,510.3,25.2"/>
</g>
<g>
	<path class="st0" d="M156.8,26.9c-23.2,9.1-45.2,19.3-71.5,45.3c-0.4,0.3-0.9,0.5-1.4,0.5C42.4,73.3,2.7,78.6,0.1,89.9
		c-2.2,9.8,21.3,16.9,28.2,18.6c-0.6-1.3-1.2-2.7-1.7-4.1c-5.5-1.7-21-7.6-18.8-13c2.4-6,23.4-6.6,32.3-6.6l0,0c1.1,0,2.2,0,3.3,0.1
		c0.1,0,0.2,0,0.3,0c0.7,0,1.3,0.1,1.9,0c45,0.1,87.5,16.9,115.8,35.3c6-8.4,10.3-18.2,12.5-28.9C178.8,67.5,171.7,43.9,156.8,26.9
		L156.8,26.9z"/>
	<path class="st1" d="M142.4,13.8c-7.7-5.4-16.6-9.4-26.3-11.7c-5-1.2-10.1-1.9-15-2.1C65.5-1.3,32.7,22,24,57.1
		c-0.4,1.7-0.7,3.3-1,4.9c0,0,0.1,0,0.1-0.1C56.4,36,104.2,18.9,142.4,13.8z"/>
	<path class="st2" d="M71.4,105L71.4,105c-0.4,0-0.7,0.2-1,0.6c-7.1,9.9-13.6,21.2-18.7,32.2c8.6,7,19.9,12.5,32.6,14.8
		c24.4,4.5,43-2.6,57.9-12.6c-19.5-14.8-38.1-25.6-70.4-35C71.6,105,71.5,105,71.4,105L71.4,105z"/>
</g>
<g class="st3">
	<path d="M226,121.6c-1.5,0-2.8-0.3-3.8-0.9s-1.9-1.4-2.5-2.4s-1.1-2.1-1.4-3.3c-0.3-1.2-0.4-2.4-0.4-3.7c0-1.2,0.2-2.4,0.5-3.6
		s0.8-2.3,1.4-3.3s1.5-1.8,2.6-2.4c1-0.6,2.3-0.9,3.8-0.9c1.2,0,2.3,0.2,3.2,0.6s1.6,0.9,2.1,1.4c0.6,0.6,1,1.2,1.3,1.8l-2.6,1.3
		c-0.3-0.5-0.6-0.9-1-1.3s-0.8-0.6-1.3-0.8c-0.5-0.2-1.1-0.3-1.8-0.3c-1,0-1.8,0.2-2.5,0.7s-1.2,1.1-1.6,1.8s-0.7,1.6-0.9,2.4
		c-0.2,0.9-0.3,1.8-0.3,2.6c0,0.9,0.1,1.8,0.3,2.7c0.2,0.9,0.5,1.7,0.9,2.4s1,1.3,1.6,1.7c0.7,0.4,1.5,0.6,2.4,0.6
		c1,0,1.8-0.2,2.5-0.7c0.6-0.5,1.2-1.1,1.6-1.8l2.6,1c-0.4,0.8-0.9,1.5-1.5,2.2c-0.6,0.6-1.3,1.2-2.2,1.5
		C228.2,121.4,227.2,121.6,226,121.6z"/>
</g>
<g class="st3">
	<path d="M236.6,121.2v-19.8h2.9v19.8H236.6z"/>
</g>
<g class="st3">
	<path d="M249.9,121.2l-6.9-19.8h3.1l4.6,13.9c0.1,0.2,0.2,0.5,0.3,0.8s0.2,0.6,0.3,0.9c0.1-0.3,0.1-0.6,0.2-0.9
		c0.1-0.3,0.2-0.6,0.3-0.8l4.5-13.9h3.1l-6.8,19.8H249.9z"/>
</g>
<g class="st3">
	<path d="M263,121.2v-19.8h2.9v19.8H263z"/>
</g>
<g class="st3">
	<path d="M271,121.2v-19.8h2.9v17h9.7v2.8H271z"/>
</g>
<g class="st3">
	<path d="M290.6,121.2l7.2-19.8h2.7l7.2,19.8h-3l-1.7-4.6h-7.8l-1.6,4.6H290.6z M296.2,114.1h6l-2.4-6.7c-0.1-0.2-0.1-0.4-0.2-0.6
		s-0.2-0.5-0.2-0.7c-0.1-0.2-0.1-0.4-0.2-0.6c0,0.2-0.1,0.4-0.2,0.6s-0.1,0.5-0.2,0.7s-0.1,0.4-0.2,0.6L296.2,114.1z"/>
</g>
<g class="st3">
	<path d="M314.4,121.2l-6.9-19.8h3.1l4.6,13.9c0.1,0.2,0.2,0.5,0.3,0.8c0.1,0.3,0.2,0.6,0.3,0.9c0.1-0.3,0.1-0.6,0.2-0.9
		s0.2-0.6,0.3-0.8l4.5-13.9h3.1l-6.8,19.8H314.4z"/>
</g>
<g class="st3">
	<path d="M327.5,121.2v-19.8h2.9v19.8H327.5z"/>
</g>
<g class="st3">
	<path d="M333.8,121.2l7.2-19.8h2.7l7.2,19.8h-3l-1.7-4.6h-7.8l-1.6,4.6H333.8z M339.3,114.1h6l-2.4-6.7c-0.1-0.2-0.1-0.4-0.2-0.6
		s-0.2-0.5-0.2-0.7c-0.1-0.2-0.1-0.4-0.2-0.6c0,0.2-0.1,0.4-0.2,0.6s-0.1,0.5-0.2,0.7s-0.1,0.4-0.2,0.6L339.3,114.1z"/>
</g>
<g class="st3">
	<path d="M355.8,121.2v-17.1h-5.5v-2.7h14v2.7h-5.6v17.1H355.8z"/>
</g>
<g class="st3">
	<path d="M368.2,121.2v-19.8h2.9v19.8H368.2z"/>
	<path d="M383.8,121.6c-1.6,0-2.9-0.3-4-0.9s-2-1.4-2.6-2.4s-1.1-2.1-1.4-3.3c-0.3-1.2-0.5-2.4-0.5-3.7c0-1.2,0.2-2.4,0.5-3.7
		c0.3-1.2,0.8-2.3,1.4-3.3s1.5-1.8,2.6-2.4s2.4-0.9,4-0.9s2.9,0.3,4,0.9s2,1.4,2.6,2.4s1.1,2.1,1.4,3.3c0.3,1.2,0.4,2.4,0.4,3.7
		c0,1.2-0.1,2.4-0.4,3.7c-0.3,1.2-0.8,2.3-1.4,3.3s-1.5,1.8-2.6,2.4C386.7,121.3,385.4,121.6,383.8,121.6z M383.8,118.9
		c1,0,1.9-0.2,2.6-0.7s1.3-1.1,1.7-1.8c0.4-0.7,0.7-1.6,0.9-2.4c0.2-0.9,0.3-1.7,0.3-2.6s-0.1-1.8-0.3-2.7c-0.2-0.9-0.5-1.7-0.9-2.4
		c-0.4-0.7-1-1.3-1.7-1.8c-0.7-0.4-1.6-0.7-2.6-0.7s-1.9,0.2-2.6,0.7s-1.3,1.1-1.7,1.8c-0.4,0.8-0.7,1.6-0.9,2.4
		c-0.2,0.9-0.3,1.7-0.3,2.6s0.1,1.8,0.3,2.7c0.2,0.9,0.5,1.7,0.9,2.4c0.4,0.7,1,1.3,1.7,1.7C381.9,118.6,382.8,118.9,383.8,118.9z"
		/>
</g>
<g class="st3">
	<path d="M396.6,121.2v-19.8h2.8l8.4,13.3c0.1,0.2,0.3,0.4,0.4,0.7s0.3,0.5,0.4,0.8c0-0.2,0-0.5,0-0.8s0-0.5,0-0.7v-13.3h2.9v19.8
		h-2.7l-8.6-13.3c-0.1-0.2-0.2-0.4-0.4-0.7s-0.3-0.5-0.4-0.7c0,0.2,0,0.5,0.1,0.7c0,0.3,0,0.5,0,0.7v13.3H396.6z"/>
</g>
<g class="st3">
	<path d="M419.9,121.2l7.2-19.8h2.7l7.2,19.8h-3l-1.7-4.6h-7.8l-1.6,4.6H419.9z M425.5,114.1h6l-2.4-6.7c-0.1-0.2-0.1-0.4-0.2-0.6
		s-0.2-0.5-0.2-0.7c-0.1-0.2-0.1-0.4-0.2-0.6c0,0.2-0.1,0.4-0.2,0.6s-0.1,0.5-0.2,0.7s-0.1,0.4-0.2,0.6L425.5,114.1z"/>
</g>
<g class="st3">
	<path d="M448.1,121.6c-1.6,0-3-0.3-4.1-0.9s-1.9-1.5-2.5-2.7s-0.8-2.6-0.8-4.3v-12.3h2.9v12.3c0,1.7,0.4,2.9,1.1,3.8
		s1.9,1.3,3.4,1.3c1,0,1.8-0.2,2.5-0.6s1.2-0.9,1.5-1.7c0.3-0.8,0.5-1.7,0.5-2.9v-12.3h2.9v12.3c0,1.3-0.2,2.5-0.5,3.5
		s-0.8,1.8-1.5,2.4c-0.6,0.7-1.4,1.1-2.3,1.5C450.3,121.4,449.2,121.6,448.1,121.6z"/>
</g>
<g class="st3">
	<path d="M464.9,121.2v-17.1h-5.5v-2.7h14v2.7h-5.6v17.1H464.9z"/>
</g>
<g class="st3">
	<path d="M477.2,121.2v-19.8h2.9v8.2h9v-8.2h2.9v19.8h-2.9v-8.9h-9v8.9H477.2z"/>
	<path d="M504.7,121.6c-1.6,0-2.9-0.3-4-0.9s-2-1.4-2.6-2.4s-1.1-2.1-1.4-3.3c-0.3-1.2-0.5-2.4-0.5-3.7c0-1.2,0.2-2.4,0.5-3.7
		c0.3-1.2,0.8-2.3,1.4-3.3s1.5-1.8,2.6-2.4s2.4-0.9,4-0.9s2.9,0.3,4,0.9s2,1.4,2.6,2.4s1.1,2.1,1.4,3.3c0.3,1.2,0.4,2.4,0.4,3.7
		c0,1.2-0.1,2.4-0.4,3.7c-0.3,1.2-0.8,2.3-1.4,3.3s-1.5,1.8-2.6,2.4C507.6,121.3,506.3,121.6,504.7,121.6z M504.7,118.9
		c1,0,1.9-0.2,2.6-0.7s1.3-1.1,1.7-1.8c0.4-0.7,0.7-1.6,0.9-2.4c0.2-0.9,0.3-1.7,0.3-2.6s-0.1-1.8-0.3-2.7c-0.2-0.9-0.5-1.7-0.9-2.4
		c-0.4-0.7-1-1.3-1.7-1.8c-0.7-0.4-1.6-0.7-2.6-0.7s-1.9,0.2-2.6,0.7s-1.3,1.1-1.7,1.8c-0.4,0.8-0.7,1.6-0.9,2.4
		c-0.2,0.9-0.3,1.7-0.3,2.6s0.1,1.8,0.3,2.7c0.2,0.9,0.5,1.7,0.9,2.4c0.4,0.7,1,1.3,1.7,1.7C502.8,118.6,503.7,118.9,504.7,118.9z"
		/>
</g>
<g class="st3">
	<path d="M517.5,121.2v-19.8h8.2c1.6,0,2.9,0.3,3.8,0.8c0.9,0.6,1.6,1.3,2,2.2s0.6,1.8,0.6,2.8c0,0.8-0.2,1.5-0.5,2.3
		s-0.8,1.4-1.4,2s-1.5,1-2.5,1.3l4.1,8.4h-3.2l-4-8.2h-4.3v8.2C520.3,121.2,517.5,121.2,517.5,121.2z M520.4,110.4h5.4
		c0.8,0,1.5-0.2,2-0.5s0.8-0.7,1.1-1.2c0.2-0.5,0.3-1,0.3-1.5s-0.1-1-0.3-1.4c-0.2-0.5-0.5-0.9-1-1.2c-0.5-0.3-1.2-0.5-2.1-0.5h-5.4
		V110.4z"/>
</g>
<g class="st3">
	<path d="M536.6,121.2v-19.8h2.9v19.8H536.6z"/>
</g>
<g class="st3">
	<path d="M548.9,121.2v-17.1h-5.5v-2.7h14v2.7h-5.6v17.1H548.9z"/>
</g>
<g class="st3">
	<path d="M566.3,121.2v-7.8l-6.9-12h3.2l5.1,9.2l5.1-9.2h3.2l-6.9,12v7.8H566.3z"/>
</g>
<g class="st3">
	<path d="M585.2,121.2v-19.8h2.8l8.4,13.3c0.1,0.2,0.3,0.4,0.4,0.7s0.3,0.5,0.4,0.8c0-0.2,0-0.5,0-0.8s0-0.5,0-0.7v-13.3h2.9v19.8
		h-2.7l-8.6-13.3c-0.1-0.2-0.2-0.4-0.4-0.7s-0.3-0.5-0.4-0.7c0,0.2,0,0.5,0.1,0.7c0,0.3,0,0.5,0,0.7v13.3H585.2z"/>
	<path d="M612.9,121.6c-1.6,0-2.9-0.3-4-0.9s-2-1.4-2.6-2.4s-1.1-2.1-1.4-3.3c-0.3-1.2-0.5-2.4-0.5-3.7c0-1.2,0.2-2.4,0.5-3.7
		c0.3-1.2,0.8-2.3,1.4-3.3s1.5-1.8,2.6-2.4s2.4-0.9,4-0.9s2.9,0.3,4,0.9s2,1.4,2.6,2.4s1.1,2.1,1.4,3.3c0.3,1.2,0.4,2.4,0.4,3.7
		c0,1.2-0.1,2.4-0.4,3.7c-0.3,1.2-0.8,2.3-1.4,3.3s-1.5,1.8-2.6,2.4C615.8,121.3,614.5,121.6,612.9,121.6z M612.9,118.9
		c1,0,1.9-0.2,2.6-0.7c0.7-0.5,1.3-1.1,1.7-1.8c0.4-0.7,0.7-1.6,0.9-2.4c0.2-0.9,0.3-1.7,0.3-2.6s-0.1-1.8-0.3-2.7
		c-0.2-0.9-0.5-1.7-0.9-2.4c-0.4-0.7-1-1.3-1.7-1.8c-0.7-0.4-1.6-0.7-2.6-0.7s-1.9,0.2-2.6,0.7c-0.7,0.5-1.3,1.1-1.7,1.8
		c-0.4,0.8-0.7,1.6-0.9,2.4c-0.2,0.9-0.3,1.7-0.3,2.6s0.1,1.8,0.3,2.7c0.2,0.9,0.5,1.7,0.9,2.4c0.4,0.7,1,1.3,1.7,1.7
		C611,118.6,611.9,118.9,612.9,118.9z"/>
</g>
<g class="st3">
	<path d="M625.7,121.2v-19.8h8.2c1.6,0,2.9,0.3,3.8,0.8c0.9,0.6,1.6,1.3,2,2.2s0.6,1.8,0.6,2.8c0,0.8-0.2,1.5-0.5,2.3
		s-0.8,1.4-1.4,2c-0.6,0.6-1.5,1-2.5,1.3l4.1,8.4h-3.2l-4-8.2h-4.3v8.2C628.5,121.2,625.7,121.2,625.7,121.2z M628.6,110.4h5.4
		c0.8,0,1.5-0.2,2-0.5s0.8-0.7,1.1-1.2c0.2-0.5,0.3-1,0.3-1.5s-0.1-1-0.3-1.4c-0.2-0.5-0.5-0.9-1-1.2c-0.5-0.3-1.2-0.5-2.1-0.5h-5.4
		V110.4z"/>
</g>
<g class="st3">
	<path d="M647.3,121.2l-4.1-19.8h3l2.3,12.3c0.1,0.4,0.1,0.7,0.2,1s0.1,0.6,0.1,0.9c0.1-0.3,0.1-0.6,0.2-0.9c0.1-0.3,0.2-0.7,0.3-1
		l3.3-12.3h2.3l3.3,12.3c0.1,0.4,0.2,0.7,0.2,1c0.1,0.3,0.1,0.6,0.2,0.8c0-0.3,0.1-0.6,0.1-0.8c0.1-0.3,0.1-0.6,0.2-1l2.5-12.3h2.9
		l-4.3,19.8h-2.4l-3.6-13c-0.1-0.3-0.2-0.6-0.2-0.9c-0.1-0.3-0.1-0.6-0.2-0.8c0,0.3-0.1,0.6-0.2,0.8c-0.1,0.3-0.1,0.6-0.2,0.9
		l-3.6,13H647.3z"/>
</g>
<g class="st3">
	<path d="M665.7,121.2l7.2-19.8h2.7l7.2,19.8h-3l-1.7-4.6h-7.8l-1.6,4.6H665.7z M671.2,114.1h6l-2.4-6.7c-0.1-0.2-0.1-0.4-0.2-0.6
		c-0.1-0.2-0.2-0.5-0.2-0.7c-0.1-0.2-0.1-0.4-0.2-0.6c0,0.2-0.1,0.4-0.2,0.6c-0.1,0.2-0.1,0.5-0.2,0.7c-0.1,0.2-0.1,0.4-0.2,0.6
		L671.2,114.1z"/>
</g>
<g class="st3">
	<path d="M689.2,121.2v-7.8l-6.9-12h3.2l5.1,9.2l5.1-9.2h3.2l-6.9,12v7.8H689.2z"/>
</g>
</svg>
