<?xml version="1.0" encoding="UTF-8"?>
<svg id="Layer_1" data-name="Layer 1" xmlns="http://www.w3.org/2000/svg" viewBox="0 0 117 117">
  <defs>
    <style>
      .cls-1 {
        fill: #780017;
      }

      .cls-1, .cls-2, .cls-3 {
        stroke-width: 0px;
      }

      .cls-2 {
        fill: #ab001d;
      }

      .cls-3 {
        fill: #fff;
      }
    </style>
  </defs>
  <circle class="cls-2" cx="58.5" cy="58.5" r="58.5"/>
  <path class="cls-1" d="m117,58.5c0-17.56-7.75-33.3-20-44.02-23.92,14.94-59.92,56.8-72.81,91.4,9.64,6.99,21.49,11.13,34.31,11.13,32.31,0,58.5-26.19,58.5-58.5Z"/>
  <path class="cls-3" d="m100.01,55.54c4.03-2.24,6.07-4.92,6.07-8,0-11.05-26.08-13.98-35.83-14.69l-3.78-6.55c-1.66-2.88-4.64-4.6-7.96-4.6h0c-3.32,0-6.3,1.72-7.96,4.6h0l-3.78,6.55c-9.08.65-17.33,2.06-23.43,4.03-8.23,2.65-12.4,6.24-12.4,10.66,0,2.64,1.5,4.98,4.46,7,4.07,3.06,10.3,4.86,15.38,6l-7.52,13.03c-1.66,2.88-1.66,6.31,0,9.19,1.66,2.88,4.64,4.6,7.96,4.6h54.59c3.32,0,6.3-1.72,7.96-4.6,1.66-2.88,1.66-6.32,0-9.19l-7.56-13.09c1.96-.45,3.91-.95,5.84-1.51,2.82-.96,5.47-1.9,7.96-3.43Zm-82.39-7.98c.35-1.7,8.08-5.87,25.05-7.64l-7.87,13.63c-6.77-.99-13.8-2.67-16.99-5.6-.1-.14-.16-.27-.19-.39Zm72.42,4.46c-2.59.61-5.21,1.11-7.84,1.53l-7.87-13.63c17.94,1.84,24.76,6.19,25.06,7.6-.06.29-.32.64-.78,1.03-2.27,1.8-5.76,2.67-8.56,3.48Zm-32.81-21.86c.37-.64.96-.74,1.28-.74h0c.32,0,.9.1,1.27.74l14.09,24.41c-8.76.79-17.64.74-26.38.28-1.21-.09-2.69-.2-4.32-.34l14.06-24.35h0Zm29.85,47.28c.37.64.16,1.2,0,1.47-.16.28-.53.74-1.27.74H31.2c-.74,0-1.12-.46-1.28-.74s-.37-.83,0-1.47l8.9-15.42c13.02,1.78,26.35,2.02,39.35.02l8.89,15.4Z"/>
</svg>