<?xml version="1.0" encoding="UTF-8"?>
<svg id="Layer_1" data-name="Layer 1" xmlns="http://www.w3.org/2000/svg" viewBox="0 0 411.36 80.43">
  <defs>
    <style>
      .cls-1 {
        fill: #ab001d;
        stroke-width: 0px;
      }
    </style>
  </defs>
  <path class="cls-1" d="m179.21,58.3c1.26,0,2.06-.18,2.06-.18v7.71s-1.26.18-3.05.18c-5.83,0-17.39-1.79-17.39-16.94v-21.81h-5.92v-6.99h6.18V7.82h8.43v12.44h10.94v6.99h-10.94v20.82c0,9.05,6.37,10.22,9.68,10.22Zm28.23-39.09c-10.4,0-16.94,5.38-16.94,5.38l3.59,6.37s5.65-4.39,12.64-4.39c5.74,0,9.95,2.51,9.95,9.95v.81h-1.97c-7.62,0-27.34.63-27.34,15.6,0,9.05,7.62,13.81,15.42,13.81,10.85,0,14.52-8.96,14.52-8.96h.18s-.18,1.52-.18,3.59v4.3h8.07v-28.69c0-11.48-6.45-17.75-17.93-17.75Zm9.32,26.09c0,6.72-4.75,14.43-12.1,14.43-5.65,0-8.52-3.59-8.52-7.26,0-8.16,11.84-8.61,18.38-8.61h2.24v1.43Zm39.95,13c1.26,0,2.06-.18,2.06-.18v7.71s-1.26.18-3.05.18c-5.83,0-17.39-1.79-17.39-16.94v-21.81h-5.92v-6.99h6.18V7.82h8.43v12.44h10.94v6.99h-10.94v20.82c0,9.05,6.37,10.22,9.68,10.22Zm34.48-39.09c-11.39,0-15.24,8.25-15.24,8.25h-.18s.18-1.52.18-3.32v-3.85h-7.98v60.14h8.7v-17.2c0-2.33-.18-3.94-.18-3.94h.18s3.94,7.44,13.89,7.44c11.83,0,20.53-9.32,20.53-23.76s-7.71-23.76-19.9-23.76Zm-1.97,40.07c-8.34,0-12.82-8.07-12.82-16.14,0-11.56,6.28-16.32,13.09-16.32,7.53,0,12.82,6.37,12.82,16.23s-5.92,16.23-13.09,16.23Zm51.48-40.07c-12.91,0-22.68,9.33-22.68,23.76,0,13.45,9.77,23.76,24.03,23.76,10.85,0,17.57-6.45,17.57-6.45l-3.59-6.37s-5.65,5.29-13.45,5.29-15.15-5.02-15.6-14.97h33.08s.27-2.6.27-3.77c0-11.74-6.81-21.25-19.63-21.25Zm-13.45,18.47c1.25-7.44,6.63-11.56,13.27-11.56,5.83,0,10.67,3.77,10.94,11.56h-24.2ZM402.67,5.46v17.87c0,1.71.18,3.05.18,3.05h-.18s-3.5-7.17-13.99-7.17c-12.01,0-20.53,9.33-20.53,23.76s7.71,23.76,19.99,23.76c11.21,0,14.88-8.43,14.88-8.43h.18s-.09,1.26-.09,3.05v4.3h8.25V5.46h-8.7Zm-12.82,53.73c-7.53,0-12.82-6.37-12.82-16.23s5.92-16.23,13.09-16.23c8.61,0,12.82,8.07,12.82,16.14,0,11.56-6.37,16.32-13.09,16.32Zm-240.68-8.96c0,9.89-7.76,16.79-18.86,16.79-12.42,0-19.55-7.73-19.62-7.81l-.17-.18,5-6.69.25.25c.06.06,6.23,6.21,14.7,6.21,4.88,0,9.81-2.57,9.81-8.32s-5.9-8.17-12.14-10.89c-7.59-3.31-16.2-7.07-16.2-17.04s8.25-16.63,19.2-16.63,16.73,5.92,16.79,5.98l.16.16-4.02,7.33-.28-.26c-.05-.05-5.39-4.97-12.64-4.97-5.78,0-10.31,3.62-10.31,8.24,0,5.17,5.38,7.44,11.62,10.06,7.84,3.3,16.73,7.04,16.73,17.79Z"/>
  <path class="cls-1" d="m89.08,33.85c4.03-2.24,6.07-4.92,6.07-8,0-11.05-26.08-13.98-35.83-14.69l-3.78-6.55C53.87,1.72,50.9,0,47.57,0h0C44.25,0,41.27,1.72,39.61,4.6h0l-3.78,6.55c-9.08.65-17.33,2.06-23.43,4.03C4.17,17.84,0,21.42,0,25.84c0,2.64,1.5,4.98,4.46,7,4.07,3.06,10.3,4.86,15.38,6l-7.52,13.03c-1.66,2.88-1.66,6.31,0,9.19,1.66,2.88,4.64,4.6,7.96,4.6h54.59c3.32,0,6.3-1.72,7.96-4.6,1.66-2.88,1.66-6.32,0-9.19l-7.56-13.09c1.96-.45,3.91-.95,5.84-1.51,2.82-.96,5.47-1.9,7.96-3.43ZM6.69,25.86c.35-1.7,8.08-5.87,25.05-7.64l-7.87,13.63c-6.77-.99-13.8-2.67-16.99-5.6-.1-.14-.16-.27-.19-.39Zm72.42,4.46c-2.59.61-5.21,1.11-7.84,1.53l-7.87-13.63c17.94,1.84,24.76,6.19,25.06,7.6-.06.29-.32.64-.78,1.03-2.27,1.8-5.76,2.67-8.56,3.48ZM46.3,8.46c.37-.64.96-.74,1.28-.74h0c.32,0,.9.1,1.27.74l14.09,24.41c-8.76.79-17.64.74-26.38.28-1.21-.09-2.69-.2-4.32-.34l14.06-24.35h0Zm29.85,47.28c.37.64.16,1.2,0,1.47-.16.28-.53.74-1.27.74H20.28c-.74,0-1.12-.46-1.28-.74s-.37-.83,0-1.47l8.9-15.42c13.02,1.78,26.35,2.02,39.35.02l8.89,15.4Z"/>
</svg>