<?xml version="1.0" encoding="utf-8"?>
<svg version="1.1" id="Layer_1" xmlns="http://www.w3.org/2000/svg" xmlns:xlink="http://www.w3.org/1999/xlink" x="0px" y="0px"
	 viewBox="0 0 3274.8 837.5" style="enable-background:new 0 0 3274.8 837.5;" xml:space="preserve">
<style type="text/css">
	.st0{fill:#1D1D1B;}
</style>
<path class="st0" d="M644.9,658.7c43.7-130.6-74.5-173.9-120.8-164.5c128.9,56.3,64.8,200.2,5.3,203.1c13.5-23.7,19.6-44,21.2-66.9
	c5.1-72.4-39.8-122-99.1-124.1c-59.3-2.1-91.3,35.2-94.5,88c-1.9,31.5,14.7,68.4,53.3,95.5c-15.6,8.6-75.3,20.2-112.9-22.5
	c4.5-22,31.9-157.8,33-163.7c19.8-4.4,33.1-19.8,33.1-19.8H196.7c0,0-8.7,8-8.8,20.8c4,0.2,29.3,2,30,2c0.7,0,4.5,2.3,4.5,6.2
	c-4.8-0.3-29.5-1.6-33.9-2.1c2.9,9.9,10.4,15.5,10.4,15.5l56.7,9.4l0.2,21.2l-89.6,97.6l11.8,43.1l-57.2-41l-8.3-18.7l-33-8.3
	l-25.2,26.5l33.3,9.2c0,0,1.3,0.2,1.7-0.9c1.5-3.7,5.5-5.9,9.5-5c3.9,0.9,6.5,4.3,6.5,8.1c0,0.2-0.2,1.2,0.6,2
	c10.8,10.6,86.6,84.7,86.6,84.7l-97.7,17.5l-11.6-12.6H51.4l-17.2,32.6h33c0,0,1.4,0,1.9-1.5c1.1-3.8,4.3-6.7,8.4-6.7
	s7.5,2.8,8.5,6.7c0.2,1.5,1.8,1.5,1.8,1.5h155c0.4,0,1.4-0.2,1.8-1.5c1.1-3.8,4.3-6.7,8.4-6.7c4.1,0,7.5,2.8,8.4,6.7
	c0.2,1.2,1.3,1.4,1.7,1.5h102.6c74.5,0,133.2-45.6,155.7-76.7c114.6,0,93,72,72.1,88.5C689.9,791.9,693.6,675.6,644.9,658.7
	 M269.5,503.7c0,1.1-1.1,1-1.1,1l-15.9-1.1c0,0-1.2-0.1-1.2-1.3c0.3-4.5,5-7.6,9.7-7.3C265.6,495.3,269.8,499.1,269.5,503.7
	 M469.9,617.8c-5,25.2-17.9,41.3-30.5,54.4c-24.2-19-32.5-47.4-32-61.5c1-29.3,20-39.9,32.6-39.9S476.3,585.1,469.9,617.8"/>
<path class="st0" d="M576,291.5c-0.1,0-0.2,0-0.3,0h0c-0.1,0-0.2,0-0.3-0.1c0,0-0.1,0-0.1,0c-0.2,0-0.4,0-0.5-0.1c0,0-0.1,0-0.1,0
	c-0.4-0.1-1-0.1-1.6-0.2c0,0-0.1,0-0.1,0c-0.3,0-0.6-0.1-1-0.1c-0.3,0-0.7-0.1-1-0.1c-0.1,0-0.1,0-0.2,0c-0.4,0-0.7-0.1-1.1-0.1
	c-0.1,0-0.1,0-0.2,0c-0.4,0-0.8,0-1.2-0.1c0,0-0.1,0-0.1,0c-0.4,0-0.9,0-1.3-0.1c-0.1,0-0.2,0-0.3,0c-0.4,0-0.9-0.1-1.3-0.1h0
	c-0.4,0-0.9,0-1.4-0.1c-0.1,0-0.2,0-0.4,0c-0.4,0-0.9,0-1.4,0h-0.2c-0.4,0-0.9,0-1.3,0h-3.5c-0.2,0-0.5,0-0.7,0c-0.2,0-0.3,0-0.5,0
	c-0.3,0-0.5,0-0.8,0c-0.1,0-0.3,0-0.4,0c-0.4,0-0.8,0-1.2,0c-0.2,0-0.3,0-0.5,0c-0.3,0-0.5,0-0.8,0c-0.2,0-0.3,0-0.5,0
	c-0.2,0-0.5,0-0.7,0.1c-0.2,0-0.3,0-0.5,0c-0.2,0-0.5,0-0.8,0.1c-0.1,0-0.3,0-0.4,0c-0.3,0-0.6,0.1-1,0.1c-0.1,0-0.2,0-0.2,0
	c-0.4,0.1-0.8,0.1-1.1,0.2c-0.2,0-0.3,0-0.4,0.1c-0.2,0-0.5,0.1-0.7,0.1c-0.2,0-0.3,0-0.5,0.1c-0.2,0-0.5,0.1-0.7,0.1
	c-0.1,0-0.3,0.1-0.5,0.1c-0.2,0.1-0.5,0.1-0.7,0.2c-0.1,0-0.2,0.1-0.3,0.1c-0.3,0.1-0.7,0.2-1,0.3c-0.1,0-0.1,0-0.2,0.1
	c-0.3,0.1-0.5,0.2-0.8,0.3c-0.1,0-0.2,0.1-0.3,0.1c-0.2,0.1-0.4,0.2-0.6,0.2c-0.1,0-0.2,0.1-0.3,0.2c-0.2,0.1-0.4,0.2-0.5,0.3
	c-0.1,0-0.2,0.1-0.3,0.2c-0.2,0.1-0.4,0.2-0.6,0.3c0,0-0.1,0.1-0.2,0.1c-0.3,0.2-0.5,0.3-0.8,0.5c0,0-0.1,0.1-0.1,0.1
	c-0.2,0.1-0.3,0.3-0.5,0.4c-0.1,0.1-0.2,0.2-0.2,0.2c-0.1,0.1-0.3,0.2-0.4,0.4c-0.1,0.1-0.1,0.1-0.2,0.2c-0.1,0.1-0.2,0.3-0.3,0.4
	c-0.1,0.1-0.1,0.2-0.2,0.2c-0.1,0.2-0.2,0.3-0.3,0.5c0,0.1-0.1,0.1-0.1,0.2c-0.1,0.2-0.2,0.5-0.3,0.7c0,0.1-0.1,0.1-0.1,0.2
	c-0.1,0.2-0.1,0.4-0.2,0.6c0,0.1,0,0.2,0,0.3c0,0.2-0.1,0.3-0.1,0.5c0,0.1,0,0.2,0,0.3c0,0.2,0,0.4,0,0.6c0,0.1,0,0.2,0,0.3
	c0,0.2,0,0.5,0,0.8c0,0.1,0,0.1,0,0.2c0,0.3,0.1,0.6,0.2,1c0,0.1,0.1,0.2,0.1,0.3c0.1,0.2,0.1,0.5,0.2,0.7c0,0.1,0.1,0.3,0.1,0.4
	c0.1,0.2,0.2,0.5,0.3,0.7c0.1,0.1,0.1,0.3,0.2,0.4c0.1,0.2,0.2,0.5,0.4,0.8c0.1,0.1,0.1,0.2,0.2,0.4c0.2,0.4,0.5,0.8,0.7,1.2
	c14.2,22.8,15.7,30,14.1,30.1h-0.4c-0.2,0-0.4,0-0.6,0c0,0-0.1,0-0.2,0c-0.2,0-0.4-0.1-0.5-0.1c0,0-0.1,0-0.1,0
	c-0.2-0.1-0.4-0.2-0.6-0.2c0,0-0.1,0-0.1-0.1c-0.2-0.1-0.4-0.2-0.5-0.3c0,0-0.1,0-0.1,0c-0.2-0.1-0.4-0.3-0.6-0.4
	c0,0-0.1-0.1-0.2-0.1c-0.2-0.1-0.4-0.3-0.5-0.4c0,0-0.1,0-0.1-0.1c-0.2-0.2-0.4-0.3-0.6-0.5c0,0-0.1-0.1-0.2-0.2
	c-0.2-0.2-0.4-0.3-0.5-0.5c0,0-0.1-0.1-0.1-0.1c-0.2-0.2-0.4-0.4-0.6-0.7c0,0-0.1-0.1-0.1-0.2c-0.2-0.2-0.4-0.4-0.5-0.6
	c0,0-0.1,0-0.1-0.1c-0.2-0.2-0.4-0.5-0.7-0.8c0-0.1-0.1-0.1-0.2-0.2c-0.2-0.2-0.4-0.5-0.5-0.7c0,0-0.1-0.1-0.1-0.1
	c-0.2-0.3-0.4-0.5-0.6-0.8c-0.1-0.1-0.1-0.2-0.2-0.3c-0.2-0.2-0.3-0.4-0.5-0.7c0,0-0.1-0.1-0.1-0.2c-0.2-0.2-0.4-0.5-0.6-0.8
	c-0.1-0.1-0.2-0.3-0.3-0.4c-0.1-0.1-0.2-0.3-0.3-0.4c-0.8-1-1.5-2.1-2.3-3.1c0,0-0.1-0.1-0.1-0.1c-0.5-0.6-0.8-1.2-1.3-1.7
	c0-0.1-0.1-0.1-0.1-0.2c-0.4-0.5-0.8-1-1.3-1.5c0,0-0.1-0.1-0.1-0.1c-0.2-0.2-0.4-0.5-0.6-0.7c0,0,0,0,0,0c-0.2-0.2-0.4-0.5-0.6-0.6
	c0,0-0.1-0.1-0.2-0.1c-0.2-0.2-0.4-0.4-0.6-0.6l0,0c-0.2-0.2-0.4-0.3-0.6-0.5c0,0-0.1-0.1-0.1-0.1c-0.2-0.1-0.4-0.3-0.6-0.4
	c-0.1-0.1-0.1-0.1,0,0c-0.2-0.1-0.4-0.2-0.6-0.3c0,0-0.1,0-0.1-0.1c-0.2-0.1-0.3-0.2-0.5-0.2l0,0c-0.2-0.1-0.4-0.1-0.5-0.2
	c-0.1,0-0.1,0-0.2,0c-0.2,0-0.3,0-0.5,0H529c-0.1,0-0.2,0-0.3,0c0,0-0.1,0-0.1,0c-0.1,0-0.2,0-0.3,0c0,0-0.1,0-0.1,0.1
	c-0.1,0-0.2,0.1-0.2,0.1c-0.1,0-0.1,0-0.1,0.1c-0.1,0.1-0.2,0.1-0.2,0.1c0,0-0.1,0.1-0.1,0.1c-0.1,0-0.2,0.1-0.2,0.1
	c0,0-0.1,0.1-0.2,0.1c-0.1,0.1-0.1,0.1-0.2,0.2c0,0.1-0.1,0.1-0.2,0.2c-0.1,0-0.2,0.1-0.2,0.2c-0.1,0-0.1,0.1-0.2,0.2
	c0,0.1-0.1,0.2-0.2,0.2c-0.1,0.1-0.1,0.1-0.2,0.2c-0.1,0.1-0.1,0.2-0.2,0.3c0,0.1-0.1,0.2-0.1,0.2c-0.1,0.1-0.1,0.2-0.2,0.3
	c0,0.1-0.1,0.2-0.2,0.3c-0.1,0.1-0.1,0.2-0.2,0.4c0,0.1-0.1,0.2-0.1,0.3c-0.1,0.1-0.1,0.3-0.2,0.4c0,0.1-0.1,0.2-0.1,0.3
	c-0.1,0.2-0.1,0.3-0.2,0.5c0,0.1-0.1,0.2-0.1,0.3c-0.1,0.2-0.2,0.4-0.2,0.6c0,0.1-0.1,0.2-0.1,0.3c-0.1,0.3-0.2,0.7-0.3,1
	c0,0,0,0,0,0.1v0c0,0.1,0,0.2-0.1,0.3c0,0,0,0,0,0c0,0.2-0.1,0.3-0.2,0.5v0c-0.1,0.5-0.2,1-0.3,1.7c0,0,0,0,0,0
	c-0.3,1.5-0.7,3.3-1.1,5.5v0c-0.3,1.6-0.6,3.5-0.9,5.3l0,0c-0.1,0.7-0.2,1.3-0.3,1.9v0c-0.3,2-0.5,4-0.7,6v0.1c-0.2,2-0.3,4-0.4,6
	v0.1c0,0.6,0,1.2-0.1,1.8v0.1c0,1.2,0,2.4,0.1,3.5v0.1c0,0.5,0.1,1.1,0.1,1.6c0,0.1,0,0.1,0,0.2c0.1,0.5,0.2,1,0.2,1.5v0.1
	c0.2,1,0.4,1.8,0.7,2.6c0,0.1,0,0.1,0.1,0.2c0.1,0.4,0.3,0.7,0.5,1c0,0,0,0.1,0.1,0.1c0.2,0.3,0.3,0.6,0.5,0.9c0,0,0,0,0,0
	c0.2,0.3,0.4,0.5,0.6,0.7c0,0,0,0,0.1,0.1c0.2,0.2,0.5,0.4,0.7,0.5c0,0,0.1,0,0.1,0.1c0.2,0.2,0.5,0.2,0.8,0.3c0.1,0,0.1,0,0.2,0
	c0.3,0.1,0.6,0.1,1,0.1c0.2,0,0.5,0,0.7,0c0.1,0,0.1,0,0.2,0c0.2,0,0.3-0.1,0.5-0.1c0.1,0,0.2-0.1,0.3-0.1c0.2,0,0.3-0.1,0.5-0.2
	c0.1,0,0.2-0.1,0.3-0.1c0.2-0.1,0.4-0.1,0.5-0.2c0.1-0.1,0.2-0.1,0.4-0.2c0.2-0.1,0.4-0.2,0.6-0.3c0.1-0.1,0.3-0.2,0.4-0.2
	c0.2-0.1,0.4-0.3,0.6-0.4c0.1-0.1,0.3-0.2,0.4-0.3c0.2-0.2,0.5-0.3,0.7-0.5c0.1-0.1,0.2-0.2,0.3-0.3c0.4-0.3,0.7-0.6,1.1-0.9
	c7-5.8,8.6-11.5,13.3-12.6c0.1,0,0.1,0,0.2,0c0,0,0,0,0.1,0c0,0,0.1,0,0.1,0c0,0,0.1,0,0.1,0.1c0,0,0,0,0.1,0.1c0,0,0,0,0.1,0.1
	c0,0,0,0.1,0,0.1c0,0,0,0.1,0,0.1c0,0,0,0.1,0.1,0.2c0,0,0,0.1,0,0.1v0.2c0,0,0,0.1,0,0.2c0,0.1,0,0.2,0,0.2c0,0.1,0,0.1,0,0.2
	c0,0.1,0,0.2-0.1,0.3c0,0.1,0,0.1,0,0.2c0,0.1,0,0.2,0,0.4c0,0.1,0,0.1,0,0.2c0,0.1-0.1,0.3-0.1,0.4c0,0.1,0,0.1,0,0.2
	c0,0.2,0,0.3-0.1,0.5c0,0,0,0.1-0.1,0.2c0,0.2-0.1,0.3-0.1,0.5c0,0,0,0.1-0.1,0.1c0,0.2-0.1,0.4-0.1,0.6c0,0.1,0,0.1-0.1,0.2
	c-0.1,0.2-0.1,0.5-0.2,0.7c0,0,0,0.1,0,0.1c-0.1,0.2-0.2,0.5-0.2,0.7c0,0,0,0.1-0.1,0.1c-0.1,0.2-0.2,0.5-0.3,0.8c0,0,0,0.1-0.1,0.1
	c-0.1,0.3-0.2,0.5-0.3,0.8c0,0.1,0,0.1-0.1,0.1c-0.1,0.3-0.2,0.6-0.3,0.8c0,0,0,0.1,0,0.1c-0.1,0.3-0.2,0.6-0.4,0.9
	c0,0,0,0.1-0.1,0.1c-0.1,0.3-0.3,0.6-0.4,0.9c0,0.1,0,0.1-0.1,0.1c-0.2,0.3-0.3,0.6-0.5,1c0,0,0,0.1,0,0.1c-0.2,0.3-0.3,0.7-0.5,1
	c0,0,0,0.1-0.1,0.1c-0.2,0.3-0.3,0.7-0.5,1c0,0,0,0.1,0,0.1c-0.2,0.3-0.3,0.7-0.5,1c0,0,0,0.1-0.1,0.1c-0.2,0.3-0.4,0.7-0.5,1
	c0,0-0.1,0.1-0.1,0.2c-0.2,0.3-0.4,0.7-0.6,1c0,0,0,0.1-0.1,0.1c-0.2,0.3-0.4,0.7-0.7,1c0,0,0,0.1-0.1,0.1c-0.2,0.4-0.4,0.7-0.6,1.1
	c0,0,0,0.1-0.1,0.2c-0.2,0.3-0.4,0.7-0.7,1c0,0.1-0.1,0.1-0.1,0.2c-0.2,0.3-0.5,0.7-0.7,1c0,0.1-0.1,0.1-0.1,0.2
	c-0.2,0.4-0.5,0.7-0.7,1.1c-0.1,0-0.1,0.1-0.2,0.2c-0.2,0.3-0.5,0.7-0.7,1c0,0.1-0.1,0.1-0.2,0.2c-0.2,0.4-0.5,0.7-0.7,1
	c0,0.1-0.1,0.1-0.2,0.2c-0.3,0.3-0.5,0.7-0.8,1c-0.1,0.1-0.1,0.1-0.2,0.2c-0.3,0.3-0.5,0.7-0.8,1c-0.1,0.1-0.1,0.1-0.2,0.2
	c-0.3,0.3-0.5,0.7-0.8,1c0,0.1-0.1,0.2-0.1,0.2c-0.3,0.3-0.6,0.7-0.8,1c-0.1,0.1-0.1,0.1-0.2,0.2c-0.3,0.3-0.5,0.7-0.8,1
	c-0.1,0.1-0.1,0.2-0.2,0.2c-0.3,0.3-0.6,0.6-0.8,1c-0.1,0.1-0.1,0.2-0.2,0.2c-0.3,0.3-0.6,0.6-0.9,0.9c-0.1,0.1-0.2,0.1-0.2,0.2
	c-0.3,0.3-0.6,0.6-0.9,1c-0.1,0.1-0.1,0.2-0.2,0.2c-0.3,0.3-0.7,0.6-1,0.9c-0.1,0.1-0.1,0.2-0.2,0.2c-0.3,0.3-0.6,0.6-1,0.9
	c-0.1,0.1-0.1,0.1-0.2,0.2c-0.4,0.3-0.7,0.6-1,0.9c-0.1,0.1-0.1,0.1-0.2,0.2c-0.3,0.3-0.7,0.6-1.1,0.9c-0.1,0.1-0.1,0.1-0.2,0.2
	c-0.4,0.3-0.8,0.6-1.1,0.9c-0.1,0-0.1,0.1-0.1,0.1c-0.4,0.3-0.9,0.6-1.3,1c0,0,0,0,0,0c-1.8,1.3-3.7,2.5-5.6,3.5
	c-0.1,0-0.2,0.1-0.3,0.1c-0.4,0.2-0.8,0.4-1.2,0.7c-0.2,0.1-0.3,0.2-0.5,0.2c-0.3,0.2-0.7,0.3-1,0.5c-0.2,0.1-0.4,0.2-0.6,0.3
	c-0.3,0.2-0.6,0.3-1,0.4c-0.2,0.1-0.4,0.2-0.7,0.3c-0.3,0.1-0.6,0.2-0.9,0.3c-0.2,0.1-0.5,0.2-0.7,0.3c-0.3,0.1-0.5,0.2-0.8,0.3
	c-0.3,0.1-0.5,0.2-0.7,0.2c-0.3,0.1-0.6,0.2-0.9,0.3c-0.2,0.1-0.5,0.2-0.8,0.2c-0.3,0.1-0.6,0.1-0.8,0.2c-0.3,0.1-0.5,0.1-0.8,0.2
	c-0.3,0.1-0.6,0.1-0.9,0.2c-0.3,0.1-0.5,0.1-0.8,0.2c-0.3,0.1-0.6,0.1-0.9,0.2c-0.3,0-0.6,0.1-0.8,0.1c-0.3,0-0.6,0.1-0.9,0.1
	c-0.3,0-0.6,0.1-0.9,0.1c-0.3,0-0.6,0-0.9,0.1c-0.3,0-0.6,0-0.9,0c-0.3,0-0.6,0-0.9,0.1c-0.3,0-0.6,0-0.9,0c-0.4,0-0.7,0-1.1,0
	c-5.4,0-34-14.5-24.2-51.5c0.1-0.3,0.2-0.7,0.2-1v0c0.1-0.3,0.1-0.6,0.2-0.8c0.1-0.3,0.1-0.6,0.2-0.8v0c0.1-0.2,0.1-0.5,0.2-0.7
	c0,0,0,0,0-0.1c0.1-0.2,0.1-0.4,0.2-0.6c0,0,0,0,0,0c0.1-0.2,0.2-0.3,0.2-0.4c0,0,0,0,0,0c0.1-0.1,0.2-0.2,0.3-0.3c0,0,0,0,0,0
	c0.1-0.1,0.2-0.1,0.3-0.1c0,0,0.1,0,0.1,0c0,0,0.1,0,0.1,0c0,0,0.1,0,0.1,0c0,0,0,0,0.1,0c0,0,0.1,0,0.1,0c0.1,0,0.1,0,0.1,0.1
	c0,0,0.1,0.1,0.1,0.1c0,0,0.1,0.1,0.1,0.1c0.1,0,0.1,0.1,0.2,0.1c0.1,0,0.1,0.1,0.2,0.1c0.1,0,0.1,0.1,0.2,0.1c0,0,0.1,0.1,0.2,0.2
	c0,0,0.1,0.1,0.2,0.2c0.1,0.1,0.2,0.1,0.2,0.2c0.1,0.1,0.2,0.2,0.2,0.2c0.1,0.1,0.2,0.2,0.3,0.2c0.1,0.1,0.1,0.2,0.2,0.2
	c0.1,0.1,0.2,0.2,0.2,0.3c0.1,0.1,0.1,0.2,0.2,0.3c0.1,0.1,0.2,0.2,0.3,0.3c0.1,0.1,0.2,0.2,0.3,0.3c0.1,0.1,0.2,0.2,0.3,0.4
	c0.1,0.1,0.2,0.2,0.3,0.3c0.1,0.1,0.2,0.2,0.3,0.4c0.1,0.1,0.2,0.2,0.3,0.4c0.1,0.1,0.2,0.3,0.4,0.4c0.1,0.1,0.2,0.3,0.3,0.4
	c0.1,0.2,0.2,0.3,0.4,0.5c0.1,0.2,0.2,0.4,0.4,0.5c0.1,0.2,0.2,0.3,0.3,0.4c0.3,0.3,0.5,0.7,0.8,1.1c0,0,0,0.1,0.1,0.1
	c0,0,0,0,0,0.1c0,0,0,0.1,0.1,0.1c0,0,0,0.1,0,0.1c0,0,0,0.1,0,0.1c0,0,0,0.1,0.1,0.1c0,0,0,0.1,0,0.1c0.2,0.3,0.4,0.8,0.7,1.2
	c0.2,0.3,0.2,0.3,0,0c0.1,0.1,0.1,0.3,0.2,0.4c0,0,0,0,0,0c0.1,0.1,0.2,0.3,0.2,0.4c0,0,0,0,0,0.1c0.1,0.2,0.2,0.3,0.2,0.5h0
	c0.2,0.3,0.4,0.7,0.6,1.1c0,0,0,0.1,0.1,0.1c0.1,0.1,0.2,0.3,0.3,0.4c0,0,0.1,0.1,0.1,0.2c0.1,0.1,0.2,0.3,0.2,0.4
	c0,0.1,0.1,0.1,0.1,0.2c0.1,0.1,0.2,0.3,0.2,0.4c0,0,0.1,0.1,0.1,0.1c0.1,0.2,0.3,0.3,0.4,0.5c0.1,0.1,0.1,0.1,0,0
	c0.1,0.2,0.3,0.4,0.4,0.5c0,0,0,0.1,0.1,0.1c0.1,0.1,0.2,0.3,0.3,0.4c0,0.1,0.1,0.1,0.1,0.2c0.1,0.1,0.2,0.2,0.3,0.4
	c0,0.1,0.1,0.1,0.1,0.2c0.1,0.1,0.2,0.2,0.3,0.3c0,0,0.1,0.1,0.1,0.2c0.1,0.1,0.2,0.3,0.3,0.4c0.1,0,0.1,0.1,0.1,0.1
	c0.1,0.2,0.3,0.3,0.5,0.5c0,0,0,0,0.1,0.1c0.1,0.1,0.2,0.2,0.4,0.3c0.1,0.1,0.1,0.1,0.2,0.2c0.1,0.1,0.2,0.2,0.3,0.3
	c0,0,0.1,0.1,0.2,0.2c0.1,0.1,0.2,0.2,0.3,0.3c0.1,0,0.1,0.1,0.2,0.1c0.1,0.1,0.2,0.2,0.3,0.2c0.1,0,0.1,0.1,0.2,0.1
	c0.2,0.1,0.3,0.2,0.5,0.3c0,0,0,0,0,0c0.2,0.1,0.3,0.2,0.5,0.3c0.1,0,0.1,0,0.2,0.1c0.1,0,0.2,0.1,0.4,0.1c0.1,0,0.1,0.1,0.2,0.1
	c0.1,0,0.2,0.1,0.3,0.1c0,0,0.1,0,0.2,0.1c0.1,0,0.2,0,0.3,0c0,0,0.1,0,0.2,0c0.1,0,0.3,0,0.4,0h0.2c0.1,0,0.2,0,0.3,0
	c0,0,0.1,0,0.2,0c0.1,0,0.2,0,0.3-0.1c0.1,0,0.1,0,0.2,0c0.1,0,0.2,0,0.3-0.1c0,0,0.1,0,0.1,0c0.2-0.1,0.3-0.1,0.5-0.2c0,0,0,0,0,0
	c0.1-0.1,0.3-0.1,0.4-0.2c0,0,0.1-0.1,0.1-0.1c0.1-0.1,0.2-0.1,0.3-0.2c0,0,0.1-0.1,0.2-0.1c0.1-0.1,0.2-0.2,0.3-0.2
	c0,0,0.1-0.1,0.2-0.1c0.1-0.1,0.2-0.2,0.4-0.3c0,0,0-0.1,0.1-0.1c0.2-0.2,0.3-0.3,0.5-0.5c0,0,0.1-0.1,0.1-0.1
	c0.1-0.1,0.2-0.3,0.3-0.4c0-0.1,0.1-0.1,0.2-0.2c0.1-0.1,0.2-0.3,0.3-0.4c0-0.1,0.1-0.1,0.2-0.2c0.1-0.2,0.2-0.3,0.3-0.5
	c0-0.1,0.1-0.1,0.2-0.2c0.2-0.2,0.3-0.5,0.4-0.8c0,0,0-0.1,0.1-0.1c0.1-0.2,0.3-0.5,0.4-0.7c0.1-0.1,0.1-0.2,0.2-0.3
	c0.1-0.2,0.2-0.4,0.3-0.6c0.1-0.1,0.1-0.2,0.2-0.3c0.1-0.2,0.2-0.5,0.3-0.7c0-0.1,0.1-0.2,0.1-0.3c0.2-0.3,0.3-0.7,0.4-1
	c0,0,0-0.1,0-0.1c0.1-0.4,0.3-0.8,0.4-1.2c0-0.1,0.1-0.2,0.1-0.4c0.1-0.3,0.2-0.6,0.3-0.9c0-0.2,0.1-0.3,0.2-0.5
	c0.1-0.3,0.2-0.6,0.3-0.9c0-0.2,0.1-0.3,0.2-0.5c0.1-0.3,0.2-0.7,0.3-1.1c0-0.1,0.1-0.3,0.1-0.4c0.1-0.5,0.3-1,0.4-1.5
	c0-0.1,0.1-0.2,0.1-0.3c0.1-0.4,0.2-0.9,0.3-1.3c0.1-0.2,0.1-0.4,0.2-0.6c0.1-0.4,0.2-0.8,0.3-1.2c0-0.2,0.1-0.4,0.1-0.7
	c0.1-0.4,0.2-0.8,0.3-1.3c0.1-0.2,0.1-0.4,0.1-0.6c0.1-0.7,0.3-1.3,0.4-2c0,0,0-0.1,0.1-0.3c0,0,0,0,0,0c0-0.1,0-0.2,0-0.3
	c0,0,0,0,0,0c0-0.1,0.1-0.2,0.1-0.4c0,0,0,0,0-0.1c0-0.1,0.1-0.3,0.1-0.5v0c0-0.2,0.1-0.4,0.1-0.6c0,0,0-0.1,0-0.1
	c0-0.2,0.1-0.4,0.1-0.7v-0.1c0-0.2,0.1-0.5,0.1-0.7c0,0,0-0.1,0-0.1c0.1-0.2,0.1-0.5,0.2-0.8c0,0,0-0.1,0-0.1
	c0.1-0.3,0.1-0.5,0.2-0.8c0,0,0,0,0-0.1c0-0.3,0.1-0.6,0.1-0.9c0-0.1,0-0.1,0-0.2c0.1-0.3,0.1-0.6,0.1-1c0-0.3,0.1-0.7,0.2-1v-0.2
	c0-0.3,0.1-0.7,0.1-1c0,0,0-0.1,0-0.1c0-0.3,0-0.7,0.1-1c0,0,0,0,0-0.1c0-0.3,0.1-0.7,0.1-1c0,0,0-0.1,0-0.2c0-0.7,0.1-1.4,0.1-2.1
	v-1.3c0-0.3,0-0.6,0-1v-0.1c0-0.3,0-0.7-0.1-1c0,0,0-0.1,0-0.2c-0.1-0.6-0.2-1.2-0.2-1.8c0,0,0-0.1,0-0.2c-0.1-0.3-0.1-0.5-0.2-0.8
	c0,0,0-0.1,0-0.1c-0.1-0.2-0.1-0.5-0.2-0.7c-0.1,0-0.1-0.1-0.1-0.1c-0.1-0.2-0.2-0.4-0.3-0.7c0,0,0-0.1,0-0.1
	c-0.1-0.2-0.2-0.4-0.3-0.6h0c-0.1-0.2-0.3-0.4-0.4-0.5c0,0-0.1-0.1-0.1-0.1c-0.2-0.2-0.3-0.3-0.5-0.4c0,0,0,0-0.1,0
	c-0.1-0.1-0.3-0.2-0.5-0.3c0,0,0,0-0.1,0c-0.2-0.1-0.4-0.1-0.6-0.2c0,0-0.1,0-0.1,0c-0.2,0-0.4-0.1-0.6-0.1c0,0,0,0,0,0h0
	c-0.2,0-0.5,0-0.8,0.1c-0.1,0-0.1,0-0.2,0c-0.3,0-0.5,0.1-0.8,0.2c0,0-0.1,0-0.1,0c-0.3,0.1-0.6,0.2-0.8,0.3c-0.1,0-0.1,0-0.2,0.1
	c-0.3,0.1-0.7,0.3-1,0.5c-0.1,0-0.2,0.1-0.2,0.1c-0.3,0.2-0.7,0.4-1.1,0.7c-0.1,0-0.1,0.1-0.1,0.1c-0.4,0.2-0.7,0.5-1.1,0.8
	c-0.1,0-0.2,0.1-0.2,0.2c-0.4,0.3-0.8,0.7-1.3,1c-0.1,0.1-0.2,0.2-0.3,0.2c-0.5,0.4-0.9,0.8-1.4,1.3c0,0,0,0-0.1,0.1l0,0
	c-0.1,0.1-0.3,0.3-0.5,0.5l0,0c-0.1,0.1-0.2,0.2-0.4,0.4c0,0,0,0-0.1,0c-0.1,0.1-0.3,0.3-0.5,0.5c0,0,0,0-0.1,0
	c-0.1,0.2-0.3,0.3-0.5,0.5c0,0-0.1,0.1-0.1,0.1c-0.4,0.4-0.9,0.8-1.4,1.3c0,0-0.1,0-0.1,0.1c-0.2,0.2-0.5,0.5-0.7,0.7c0,0,0,0,0,0.1
	c-0.3,0.3-0.6,0.5-0.9,0.8h0c-0.2,0.3-0.5,0.5-0.8,0.8c0,0-0.1,0.1-0.1,0.1c-0.6,0.5-1.2,1-1.8,1.5c0,0-0.1,0.1-0.1,0.1
	c-0.3,0.2-0.5,0.5-0.8,0.7c0,0,0,0,0,0c-0.3,0.2-0.6,0.5-0.8,0.7c0,0-0.1,0.1-0.1,0.1c-0.3,0.2-0.5,0.4-0.7,0.6c0,0-0.1,0.1-0.1,0.1
	c-0.3,0.2-0.5,0.4-0.8,0.6c0,0,0,0-0.1,0c-0.2,0.2-0.5,0.3-0.7,0.5c-0.1,0-0.1,0-0.2,0.1c-0.2,0.2-0.5,0.3-0.7,0.4l0,0
	c-0.2,0.1-0.4,0.2-0.6,0.3c-0.1,0-0.1,0-0.2,0.1c-0.1,0.1-0.3,0.1-0.4,0.2c0,0-0.1,0-0.1,0c-0.2,0.1-0.3,0.1-0.4,0.1
	c0,0-0.1,0-0.1,0c-0.1,0-0.2,0-0.3,0h0c-0.1,0-0.2-0.1-0.2-0.1c0,0,0,0,0,0c-0.1-0.1-0.1-0.1-0.1-0.3c0,0,0,0,0,0c0-0.1,0-0.2,0-0.4
	v0c0-0.2,0-0.4,0.1-0.6c0,0,0-0.1,0-0.1c0.1-0.2,0.2-0.5,0.3-0.8c0,0,0-0.1,0-0.1c0.1-0.3,0.2-0.6,0.4-0.9c0,0,0-0.1,0-0.1
	c0.2-0.3,0.3-0.7,0.6-1.2c0-0.1,0.1-0.2,0.1-0.2c0.2-0.4,0.5-0.8,0.7-1.3c0.1-0.1,0.1-0.2,0.2-0.3c0.2-0.5,0.5-1,0.9-1.6
	c12.1-20.4,39.7-37.9-2.9-38h-1.2c-0.4,0-0.7,0-1.1,0c-0.3,0-0.6,0-0.8,0c-0.3,0-0.7,0-1,0c-0.2,0-0.5,0-0.8,0c-0.3,0-0.7,0-1,0
	c-0.3,0-0.5,0-0.8,0.1c-0.3,0-0.6,0-0.9,0c-0.3,0-0.5,0-0.8,0.1c-0.3,0-0.6,0-0.8,0.1c-0.2,0-0.5,0-0.7,0.1c-0.3,0-0.5,0-0.8,0.1
	c-0.3,0-0.5,0.1-0.7,0.1c-0.2,0-0.5,0-0.7,0.1c-0.2,0-0.4,0.1-0.6,0.1c-0.2,0-0.5,0.1-0.7,0.1c-0.2,0-0.4,0.1-0.6,0.1
	c-0.2,0-0.5,0.1-0.6,0.1c-0.2,0-0.4,0.1-0.6,0.1c-0.2,0.1-0.4,0.1-0.6,0.1c-0.2,0-0.4,0.1-0.5,0.1c-0.2,0-0.3,0.1-0.5,0.1
	c-0.2,0.1-0.3,0.1-0.5,0.2c-0.2,0-0.3,0.1-0.5,0.1c-0.2,0.1-0.3,0.1-0.5,0.2c-0.2,0-0.3,0.1-0.5,0.1c-0.1,0.1-0.3,0.1-0.4,0.2
	c-0.2,0.1-0.3,0.1-0.5,0.2c-0.1,0.1-0.2,0.1-0.4,0.2c-0.1,0-0.2,0.1-0.4,0.2c-0.1,0.1-0.2,0.1-0.4,0.2c-0.1,0-0.2,0.1-0.4,0.2
	c-0.1,0.1-0.2,0.2-0.3,0.2c-0.1,0-0.2,0.1-0.3,0.2c-0.1,0.1-0.2,0.1-0.3,0.2c-0.1,0.1-0.2,0.1-0.3,0.2c-0.1,0.1-0.2,0.2-0.3,0.2
	c-0.1,0.1-0.2,0.1-0.2,0.2c-0.1,0.1-0.2,0.2-0.3,0.2c-0.1,0.1-0.2,0.2-0.2,0.2c-0.1,0.1-0.1,0.2-0.2,0.3c-0.1,0.1-0.1,0.1-0.2,0.2
	c0,0.1-0.1,0.2-0.2,0.3c0,0.1-0.1,0.2-0.2,0.2c-0.1,0.1-0.1,0.2-0.2,0.3c0,0.1-0.1,0.2-0.1,0.3c-0.1,0.1-0.1,0.2-0.1,0.3
	c0,0.1-0.1,0.2-0.1,0.2c0,0.1-0.1,0.2-0.1,0.3c0,0.1-0.1,0.2-0.1,0.3c0,0.1-0.1,0.2-0.1,0.3c0,0.1-0.1,0.2-0.1,0.3
	c0,0.1,0,0.2-0.1,0.3c0,0.1,0,0.2,0,0.2c0,0.1,0,0.2,0,0.3c0,0.1,0,0.2,0,0.3v0.3c0,0.1,0,0.2,0,0.3c0,0.1,0,0.2,0,0.4v0.2
	c0,0.1,0,0.3,0,0.4c0,0.1,0,0.2,0,0.3c0,0.1,0,0.3,0.1,0.4c0,0.1,0,0.2,0,0.3c0,0.1,0,0.3,0.1,0.4c0,0.1,0.1,0.2,0.1,0.3
	c0,0.1,0.1,0.3,0.1,0.4c0,0.1,0,0.2,0.1,0.3c0,0.1,0.1,0.3,0.1,0.4c0,0.1,0.1,0.2,0.1,0.3c0,0.1,0.1,0.3,0.1,0.4
	c0,0.1,0.1,0.2,0.1,0.3c0,0.2,0.1,0.3,0.2,0.5c0,0.1,0,0.2,0.1,0.3c0,0.2,0.1,0.3,0.2,0.5c0,0.1,0.1,0.2,0.1,0.3
	c0.1,0.2,0.1,0.3,0.2,0.5c0,0.1,0.1,0.2,0.1,0.2c0.1,0.2,0.2,0.3,0.2,0.5c0,0,0.1,0.1,0.1,0.2c0.1,0.2,0.2,0.4,0.3,0.5
	c0,0.1,0.1,0.1,0.1,0.2c0.1,0.2,0.2,0.4,0.2,0.6c0,0.1,0.1,0.1,0.1,0.2c0.1,0.2,0.2,0.4,0.3,0.6c0,0.1,0.1,0.2,0.1,0.2
	c0.1,0.2,0.2,0.4,0.3,0.6c0,0.1,0.1,0.1,0.1,0.2c0.1,0.2,0.3,0.5,0.3,0.7c0,0,0,0.1,0.1,0.1c0.1,0.2,0.3,0.5,0.4,0.7
	c0,0,0,0.1,0,0.1c1,1.9,2.1,3.8,3.1,5.8c0,0,0.1,0.1,0.1,0.2c0.1,0.2,0.3,0.5,0.4,0.7c0,0.1,0.1,0.1,0.1,0.2
	c0.1,0.2,0.2,0.4,0.3,0.7c0,0.1,0.1,0.2,0.1,0.2c0.1,0.2,0.2,0.4,0.3,0.6c0.1,0,0.1,0.1,0.1,0.2c0.1,0.2,0.2,0.4,0.3,0.6
	c0.1,0.1,0.1,0.2,0.2,0.3c0.1,0.2,0.2,0.4,0.3,0.5c0.1,0.1,0.1,0.3,0.2,0.4c0.1,0.2,0.1,0.3,0.2,0.4c0,0.1,0.1,0.3,0.2,0.4
	c0.1,0.2,0.2,0.3,0.2,0.5c0.1,0.1,0.1,0.2,0.2,0.4c0.1,0.2,0.1,0.3,0.2,0.5c0.1,0.2,0.1,0.4,0.2,0.6c0,0.1,0.1,0.2,0.1,0.3
	c0,0.2,0.1,0.3,0.2,0.5c0.2,0.4,0.3,0.8,0.5,1.2c0.1,0.5,0.3,0.9,0.4,1.3c0,0.1,0,0.2,0.1,0.4c0.1,0.2,0.1,0.5,0.2,0.7
	c0,0.1,0.1,0.2,0.1,0.3c0,0.2,0.1,0.4,0.1,0.6c0,0.1,0,0.2,0,0.3c0,0.2,0,0.4,0,0.6c0,0,0,0,0,0.1c0,0.2,0,0.4,0,0.5
	c0,0,0,0.1,0,0.1c0,0.1,0,0.2-0.1,0.3c0,0-0.1,0.1-0.1,0.1c0,0-0.1,0.1-0.2,0.1c0,0,0,0-0.1,0.1c-0.1,0-0.2,0-0.2,0c0,0,0,0-0.1,0
	c-0.1,0-0.3,0-0.4-0.1c0,0-0.1,0-0.1,0c-0.1,0-0.2-0.1-0.4-0.2c0,0-0.1,0-0.1-0.1c-0.2-0.1-0.4-0.2-0.6-0.4c0,0,0,0-0.1,0
	c-0.2-0.1-0.4-0.3-0.6-0.5c-0.1,0-0.1-0.1-0.2-0.1c-0.2-0.2-0.4-0.3-0.6-0.5c0,0-0.1-0.1-0.1-0.1c-0.2-0.2-0.5-0.5-0.8-0.7
	c0,0-0.1-0.1-0.2-0.2c-0.3-0.2-0.5-0.4-0.7-0.7c-0.1-0.1-0.1-0.1-0.2-0.2c-0.6-0.6-1.2-1.2-1.8-1.8c-0.1,0-0.1-0.1-0.2-0.1
	c-0.3-0.3-0.6-0.6-0.9-0.9c0,0,0,0,0,0c-0.4-0.4-0.9-0.9-1.3-1.3c-0.2-0.2-0.4-0.4-0.6-0.6c-0.1-0.1-0.2-0.3-0.4-0.4
	c-0.2-0.3-0.5-0.5-0.7-0.7c-0.1-0.1-0.2-0.2-0.2-0.3c-0.3-0.3-0.7-0.6-1-0.9c-0.1-0.1-0.2-0.2-0.2-0.2c-0.2-0.2-0.5-0.5-0.7-0.7
	c-0.1-0.1-0.2-0.2-0.3-0.3c-0.3-0.3-0.6-0.6-1-0.9c0,0,0,0,0,0c0,0,0-0.1-0.1-0.1h0c0-0.1-0.1-0.1-0.1-0.2l0,0
	c0-0.1-0.1-0.2-0.2-0.3h0c-0.1-0.1-0.2-0.2-0.3-0.3c0,0,0,0,0,0c-0.1-0.1-0.2-0.2-0.3-0.3c0,0,0,0,0,0c-0.1-0.1-0.2-0.2-0.3-0.3
	c0,0,0,0,0,0c-0.1-0.1-0.3-0.2-0.4-0.4c0,0,0,0,0,0c-0.1-0.1-0.2-0.2-0.4-0.3c0,0,0,0,0,0c-0.2-0.1-0.3-0.2-0.4-0.3c0,0,0,0,0,0
	c-0.2-0.1-0.3-0.2-0.5-0.3c0,0,0,0,0,0c-0.2-0.1-0.3-0.2-0.5-0.3c0,0,0,0,0,0c-0.2-0.1-0.3-0.2-0.5-0.2c-0.1,0-0.1,0,0,0
	c-0.2-0.1-0.4-0.2-0.6-0.2l0,0c-0.4-0.1-0.8-0.2-1.2-0.2h0c-0.1,0-0.2,0-0.3,0H439c-0.1,0-0.2,0-0.3,0c0,0,0,0-0.1,0
	c-0.1,0-0.2,0-0.3,0.1c0,0-0.1,0-0.2,0c-0.1,0-0.1,0-0.2,0c0,0-0.1,0-0.1,0.1c-0.1,0-0.1,0-0.2,0.1c-0.1,0-0.1,0-0.2,0.1
	c0,0-0.1,0.1-0.2,0.1c-0.1,0-0.1,0.1-0.2,0.1c0,0-0.1,0.1-0.2,0.1c-0.1,0-0.1,0.1-0.2,0.1c-0.1,0-0.1,0.1-0.2,0.1
	c-0.1,0-0.1,0.1-0.2,0.1c-0.1,0-0.1,0.1-0.2,0.2c-0.1,0-0.1,0.1-0.2,0.2s-0.1,0.1-0.2,0.2c-0.1,0.1-0.1,0.1-0.2,0.2
	c0,0.1-0.1,0.1-0.2,0.2c0,0.1-0.1,0.1-0.2,0.2c0,0.1-0.1,0.1-0.2,0.2c-0.1,0.1-0.1,0.2-0.2,0.2c-0.1,0.1-0.1,0.2-0.2,0.2
	c0,0.1-0.1,0.2-0.2,0.3c-0.1,0.1-0.1,0.2-0.2,0.3c0,0.1-0.1,0.2-0.2,0.3c-0.1,0.1-0.1,0.2-0.2,0.3c-0.1,0.1-0.1,0.2-0.2,0.3
	c0,0.1-0.1,0.2-0.2,0.3c-0.1,0.1-0.1,0.2-0.2,0.3c-0.1,0.1-0.1,0.2-0.2,0.3c-0.1,0.1-0.1,0.3-0.2,0.4c-0.1,0.1-0.1,0.3-0.2,0.4
	c0,0.2-0.1,0.3-0.2,0.4c0,0.1-0.1,0.3-0.1,0.4c-0.1,0.1-0.1,0.3-0.2,0.4c-0.1,0.1-0.1,0.3-0.2,0.4c0,0.2-0.1,0.3-0.1,0.5
	c0,0.1-0.1,0.3-0.2,0.5c-0.1,0.2-0.1,0.3-0.2,0.5c-0.1,0.2-0.1,0.3-0.2,0.5c-0.1,0.2-0.1,0.3-0.2,0.5c-0.1,0.2-0.1,0.3-0.2,0.5
	c0,0.2-0.1,0.4-0.2,0.6c-0.1,0.2-0.1,0.4-0.2,0.6c-0.1,0.2-0.1,0.4-0.1,0.6c0,0.2-0.1,0.4-0.2,0.6c0,0.2-0.1,0.4-0.1,0.6
	c0,0.2-0.1,0.4-0.1,0.7s-0.1,0.4-0.1,0.7c-0.1,0.2-0.1,0.5-0.2,0.7c-0.1,0.2-0.1,0.5-0.1,0.7c-0.1,0.2-0.1,0.5-0.1,0.8
	c0,0.2-0.1,0.5-0.1,0.7c-0.1,0.3-0.1,0.6-0.2,0.8c0,0.2-0.1,0.5-0.1,0.7c-0.1,0.3-0.1,0.6-0.2,0.9c0,0.2-0.1,0.5-0.1,0.7
	c0,0.3-0.1,0.8-0.2,1.1c0,0.2-0.1,0.4-0.1,0.6c-0.1,0.6-0.2,1.2-0.2,1.8c-0.2,1.1-0.3,2.2-0.4,3.2c0,0.1,0,0.2,0,0.3
	c-0.1,1-0.2,1.9-0.3,2.8c0,0.1,0,0.3,0,0.4c-0.1,0.9-0.1,1.7-0.2,2.5c0,0.2,0,0.3,0,0.5c0,0.8-0.1,1.5-0.1,2.3c0,0.1,0,0.3,0,0.4
	c0,0.7,0,1.4,0,2.1v0.3c0,0.7,0,1.3,0,2v0.2c0,0.6,0.1,1.2,0.1,1.7c0,0,0,0.1,0,0.2c0,0.5,0.1,1,0.2,1.5c0,0.1,0,0.2,0,0.2
	c0.1,0.5,0.2,0.9,0.3,1.3c0,0.1,0,0.2,0.1,0.2c0.1,0.4,0.2,0.8,0.3,1.1c0,0.1,0,0.1,0.1,0.2c0.1,0.3,0.2,0.7,0.3,1
	c0,0.1,0,0.1,0.1,0.2c0.2,0.3,0.3,0.6,0.4,0.8c0,0,0,0.1,0.1,0.1c0.1,0.2,0.3,0.5,0.5,0.7c0,0,0,0,0,0c0.2,0.2,0.3,0.4,0.5,0.5
	c0,0,0,0,0.1,0.1c0.2,0.2,0.4,0.3,0.6,0.4c0,0,0,0,0.1,0.1c0.2,0.1,0.4,0.2,0.6,0.2c0,0,0.1,0,0.1,0c0.2,0,0.5,0.1,0.6,0.1
	c0.1,0,0.1,0,0.1,0h0.2c0.1,0,0.2,0,0.3,0c0.1,0,0.2,0,0.3,0c0.2,0,0.3-0.1,0.5-0.1c0.1,0,0.2,0,0.3-0.1c0.2-0.1,0.4-0.1,0.5-0.2
	c0.1,0,0.2-0.1,0.3-0.1c0.2-0.1,0.5-0.2,0.8-0.3c0,0,0,0,0.1,0c0.3-0.2,0.6-0.3,0.9-0.5c0.1-0.1,0.2-0.1,0.3-0.2
	c0.2-0.1,0.4-0.3,0.6-0.4c0.1-0.1,0.2-0.2,0.3-0.3c0.2-0.1,0.4-0.3,0.6-0.4c0.1-0.1,0.3-0.2,0.4-0.3c0.2-0.2,0.4-0.3,0.6-0.5
	c0.2-0.1,0.3-0.2,0.4-0.4c0.2-0.2,0.4-0.3,0.6-0.5c0.2-0.1,0.3-0.3,0.4-0.4c0.2-0.2,0.4-0.4,0.6-0.5c0.2-0.1,0.3-0.3,0.5-0.4
	c0.2-0.2,0.4-0.4,0.5-0.6c0.1-0.2,0.3-0.3,0.5-0.5c0.2-0.2,0.4-0.4,0.6-0.6c0.1-0.2,0.3-0.3,0.4-0.5c0.2-0.2,0.4-0.5,0.6-0.7
	c0.1-0.1,0.3-0.3,0.4-0.5c0.2-0.2,0.5-0.5,0.7-0.7c0.1-0.1,0.2-0.3,0.3-0.4c0.4-0.4,0.7-0.8,1-1.2c0.4-0.5,0.7-0.9,1.1-1.3
	c0.1-0.1,0.1-0.1,0.1-0.2c0.3-0.4,0.6-0.7,0.9-1c0.1-0.1,0.2-0.2,0.2-0.3c0.2-0.3,0.5-0.5,0.7-0.8c0.1-0.1,0.2-0.3,0.3-0.4
	c0.2-0.2,0.4-0.5,0.5-0.7c0.1-0.1,0.2-0.2,0.3-0.3c0.2-0.2,0.3-0.4,0.5-0.6c0.1-0.1,0.2-0.2,0.3-0.3c0.1-0.2,0.3-0.4,0.4-0.5
	c0.1-0.1,0.2-0.2,0.3-0.3c0.1-0.2,0.3-0.3,0.4-0.5c0.1-0.1,0.2-0.2,0.2-0.3c0.2-0.2,0.3-0.3,0.4-0.4c0.1-0.1,0.2-0.2,0.2-0.2
	c0.2-0.2,0.3-0.3,0.4-0.4c0,0,0.1-0.1,0.2-0.2c0.2-0.2,0.3-0.3,0.5-0.5c0-0.1,0.1-0.1,0.1-0.2c0.1-0.1,0.2-0.2,0.3-0.2
	c0.1-0.1,0.1-0.1,0.2-0.2c0.1-0.1,0.1-0.1,0.2-0.2c0,0,0.1-0.1,0.2-0.1c0,0,0.1-0.1,0.2-0.2c0.1,0,0.1-0.1,0.2-0.1s0.1-0.1,0.1-0.1
	c0,0,0.1,0,0.1-0.1c0,0,0.1,0,0.2-0.1c0,0,0.1,0,0.1,0c0,0,0.1,0,0.1,0h0.1c0.1,0,0.2,0,0.2,0.1c0,0,0,0,0,0c0.1,0,0.2,0.1,0.2,0.2
	c0,0,0,0,0,0c0.1,0.1,0.1,0.2,0.2,0.4v0c0,0.2,0.1,0.3,0.1,0.5c0,0,0,0,0,0.1c0,0.2,0,0.4,0,0.7c0,0,0,0.1,0,0.1c0,0.2,0,0.5,0,0.8
	v0.2c0,0.3,0,0.6,0,0.9c0,0.1,0,0.2,0,0.3c0,0.3,0,0.7,0,1c0,0.9-0.1,1.8-0.2,2.8c0,0.3-0.1,0.6-0.1,0.9c-0.1,0.6-0.2,1.2-0.3,1.8
	c0,0.4-0.1,0.7-0.2,1.1c-0.1,0.5-0.2,1-0.4,1.6c-0.1,0.4-0.2,0.8-0.3,1.2c-0.2,0.5-0.3,1-0.4,1.5c-0.1,0.4-0.3,0.8-0.4,1.2
	c-0.2,0.5-0.3,0.9-0.5,1.4c-0.2,0.4-0.4,0.8-0.5,1.2c-0.2,0.5-0.4,0.9-0.6,1.3c-0.2,0.4-0.4,0.8-0.6,1.2c-0.2,0.4-0.4,0.9-0.7,1.3
	c-0.2,0.4-0.5,0.8-0.7,1.2c-0.2,0.4-0.5,0.8-0.7,1.2c-0.2,0.4-0.5,0.8-0.8,1.2c-0.2,0.4-0.5,0.8-0.8,1.2c-0.3,0.4-0.5,0.8-0.8,1.2
	c-0.3,0.4-0.5,0.8-0.8,1.2c-0.3,0.4-0.6,0.7-0.8,1.1c-0.3,0.4-0.6,0.7-0.9,1.1c-0.3,0.4-0.6,0.7-0.9,1.1c-0.3,0.4-0.6,0.7-0.9,1.1
	c-0.3,0.4-0.6,0.7-1,1c-0.3,0.4-0.7,0.7-1,1.1c-0.3,0.3-0.7,0.7-1,1c-0.3,0.3-0.7,0.7-1,1c-0.3,0.3-0.7,0.7-1,1
	c-0.3,0.3-0.7,0.7-1,1c-0.4,0.3-0.7,0.6-1,1c-0.4,0.3-0.7,0.6-1.1,0.9c-0.3,0.3-0.7,0.6-1.1,0.9c-0.4,0.3-0.7,0.6-1.1,0.9
	c-0.4,0.3-0.7,0.6-1.1,0.8c-0.4,0.3-0.7,0.6-1.1,0.9c-0.3,0.3-0.7,0.5-1.1,0.8c-0.4,0.3-0.7,0.5-1.1,0.8c-0.3,0.3-0.7,0.5-1.1,0.8
	c-0.4,0.2-0.8,0.5-1.1,0.8c-0.4,0.2-0.7,0.5-1.1,0.7c-0.4,0.2-0.8,0.5-1.1,0.7c-0.4,0.2-0.7,0.4-1.1,0.7c-0.4,0.2-0.7,0.4-1.1,0.7
	c-0.4,0.2-0.7,0.4-1.1,0.6c-0.4,0.2-0.8,0.4-1.1,0.6c-0.4,0.2-0.7,0.3-1.1,0.5c-0.3,0.2-0.7,0.4-1.1,0.5c-0.3,0.2-0.7,0.3-1,0.5
	c-0.4,0.2-0.7,0.3-1.1,0.5c-0.3,0.2-0.7,0.3-1,0.4c-0.3,0.1-0.7,0.3-1,0.4c-0.3,0.1-0.7,0.2-1,0.4c-0.3,0.1-0.7,0.2-1,0.3
	c-0.3,0.1-0.6,0.2-0.9,0.3c-0.3,0.1-0.7,0.2-1,0.3c-0.3,0.1-0.6,0.2-0.9,0.2c-0.3,0.1-0.6,0.2-0.9,0.2c-0.3,0.1-0.6,0.1-0.8,0.2
	c-0.3,0-0.6,0.1-0.9,0.2c-0.3,0-0.5,0.1-0.8,0.1c-0.3,0-0.5,0.1-0.8,0.1c-0.3,0-0.5,0-0.8,0c-0.3,0-0.6,0-0.9,0
	c-6.4-0.1-39.6-16.1-38.8-49.8c0-0.5,0-1,0.1-1.4c0-0.2,0-0.3,0-0.4c0-0.3,0-0.5,0.1-0.8c0-0.1,0-0.3,0.1-0.4c0-0.2,0.1-0.4,0.1-0.6
	c0-0.1,0.1-0.2,0.1-0.3c0-0.2,0.1-0.3,0.2-0.4c0-0.1,0.1-0.2,0.1-0.3c0.1-0.1,0.2-0.2,0.2-0.3c0.1-0.1,0.1-0.1,0.2-0.2
	c0.1-0.1,0.2-0.2,0.3-0.2c0,0,0.1-0.1,0.2-0.1c0.1-0.1,0.2-0.1,0.3-0.1c0.1,0,0.1,0,0.2-0.1c0.1,0,0.2,0,0.3,0c0.1,0,0.1,0,0.2,0
	c0.2,0,0.5,0,0.7,0.1c0,0,0.1,0,0.2,0.1c0.2,0.1,0.4,0.2,0.6,0.3c0.1,0,0.1,0.1,0.2,0.1c0.3,0.1,0.5,0.3,0.8,0.5
	c0.1,0,0.1,0.1,0.2,0.1c0.2,0.1,0.5,0.3,0.7,0.5c0.1,0.1,0.2,0.1,0.2,0.2c0.3,0.2,0.5,0.5,0.8,0.7c0,0,0.1,0,0.1,0.1
	c0.3,0.3,0.5,0.5,0.8,0.8c0.1,0.1,0.1,0.1,0.2,0.2c0.3,0.3,0.6,0.6,0.8,0.9l0,0c0.3,0.3,0.6,0.7,0.9,1c0.1,0.1,0.1,0.2,0.2,0.2
	c0.2,0.3,0.5,0.6,0.7,0.9c0,0,0.1,0.1,0.1,0.1c0.3,0.3,0.5,0.7,0.8,1c0,0.1,0.1,0.1,0.1,0.2c0.2,0.3,0.5,0.6,0.7,0.9
	c0,0,0,0,0.1,0.1c0.3,0.4,0.7,0.9,1,1.2c0.1,0.1,0.2,0.2,0.2,0.3c0.1,0.1,0.2,0.3,0.3,0.4c0.2,0.2,0.4,0.4,0.5,0.6
	c0,0,0.1,0.1,0.1,0.1c0.1,0.2,0.3,0.3,0.4,0.5c0,0,0.1,0.1,0.1,0.1c0.1,0.2,0.3,0.3,0.3,0.4c0.3,0.2,0.6,0.6,1,1.1
	c0.1,0.1,0.2,0.2,0.3,0.3c0,0,0.1,0.1,0.1,0.1c0.1,0.1,0.3,0.3,0.4,0.4c0,0,0.1,0.1,0.1,0.1c0.1,0.1,0.3,0.3,0.4,0.4
	c0,0,0.1,0.1,0.1,0.1c0.2,0.2,0.3,0.3,0.5,0.5c0,0,0,0,0.1,0.1c0.2,0.2,0.3,0.3,0.5,0.5c0,0,0,0.1,0.1,0.1c0.2,0.2,0.3,0.3,0.5,0.4
	c0,0,0.1,0,0.1,0.1c0.2,0.2,0.4,0.3,0.5,0.4c0,0,0.1,0,0.1,0.1c0.2,0.1,0.3,0.3,0.6,0.4c0,0,0.1,0,0.1,0.1c0.2,0.1,0.4,0.2,0.6,0.3
	c0,0,0.1,0,0.1,0.1c0.2,0.1,0.4,0.2,0.6,0.3c0,0,0.1,0,0.1,0c0.2,0.1,0.4,0.2,0.6,0.2c0,0,0.1,0,0.1,0c0.2,0.1,0.4,0.1,0.6,0.1
	c0,0,0,0,0.1,0c0.2,0,0.4,0,0.6,0h0.4c0,0,0.1,0,0.2,0c0.1,0,0.1,0,0.2,0c0,0,0.1,0,0.2,0c0.1,0,0.1,0,0.2,0c0.1,0,0.1,0,0.2,0
	c0.1,0,0.1,0,0.2-0.1s0.1,0,0.2-0.1c0.1,0,0.1,0,0.2-0.1c0.1,0,0.1,0,0.2-0.1c0,0,0.1-0.1,0.2-0.1c0.1,0,0.1-0.1,0.2-0.1
	c0.1,0,0.1-0.1,0.2-0.1c0,0,0.1-0.1,0.2-0.1c0.1,0,0.1-0.1,0.2-0.1c0.1-0.1,0.1-0.1,0.2-0.2c0,0,0.1-0.1,0.2-0.2
	c0,0,0.1-0.1,0.2-0.2c0,0,0.1-0.1,0.2-0.2c0-0.1,0.1-0.1,0.2-0.2c0.1-0.1,0.1-0.1,0.2-0.2c0-0.1,0.1-0.2,0.2-0.2
	c0.1-0.1,0.1-0.2,0.2-0.3c0-0.1,0.1-0.2,0.2-0.2c0.1-0.1,0.1-0.2,0.2-0.3c0.1-0.1,0.1-0.2,0.2-0.3s0.1-0.2,0.2-0.3
	c0-0.1,0.1-0.2,0.1-0.3c0.1-0.1,0.1-0.2,0.2-0.3c0-0.1,0.1-0.2,0.2-0.3c0-0.1,0.1-0.2,0.1-0.4c0.1-0.1,0.1-0.2,0.1-0.3
	c0.1-0.1,0.1-0.3,0.2-0.4c0-0.1,0.1-0.3,0.1-0.4c0-0.1,0.1-0.3,0.1-0.4c0-0.1,0.1-0.3,0.1-0.4c0-0.2,0.1-0.3,0.1-0.5
	c0.1-0.2,0.1-0.3,0.1-0.4c0-0.2,0.1-0.3,0.1-0.5c0-0.2,0.1-0.3,0.1-0.5c0.1-0.2,0.1-0.4,0.1-0.5c0-0.2,0.1-0.3,0.1-0.5
	c0.1-0.2,0.1-0.4,0.1-0.6c0-0.2,0.1-0.3,0.1-0.5c0-0.2,0.1-0.4,0.1-0.6c0-0.2,0.1-0.3,0.1-0.5c0-0.2,0.1-0.5,0.1-0.7
	c0-0.2,0.1-0.4,0.1-0.5c0-0.2,0.1-0.5,0.1-0.7c0-0.2,0-0.4,0.1-0.6c0-0.2,0-0.5,0.1-0.8c0-0.2,0-0.4,0.1-0.6c0-0.3,0.1-0.6,0.1-0.9
	c0-0.2,0-0.4,0.1-0.6c0-0.3,0-0.7,0.1-1c0-0.2,0-0.4,0-0.5c0-0.3,0.1-0.7,0.1-1.1c0-0.2,0-0.3,0-0.5c0-0.4,0.1-0.8,0.1-1.2
	c0-0.2,0-0.3,0-0.5c0-0.4,0-0.8,0.1-1.2c0-0.2,0-0.4,0-0.5c0-0.6,0.1-1.2,0.1-1.9c0-0.6,0-1.2,0-1.8c0-0.2,0-0.3,0-0.5v-3.4
	c0-0.3,0-0.6,0-1c0-0.2,0-0.4,0-0.6c0-0.3,0-0.6,0-0.8c0-0.2,0-0.4,0-0.6c0-0.2,0-0.5,0-0.8c0-0.2,0-0.4,0-0.6c0-0.2,0-0.5,0-0.7
	c0-0.2,0-0.4,0-0.5c0-0.2-0.1-0.5-0.1-0.7c0-0.2,0-0.4-0.1-0.5c0-0.2,0-0.4-0.1-0.6c0-0.2,0-0.3-0.1-0.5c0-0.2,0-0.4-0.1-0.6
	c0-0.2,0-0.3,0-0.5c0-0.2-0.1-0.4-0.1-0.5c0-0.2,0-0.3-0.1-0.5c0-0.2,0-0.3-0.1-0.5c0-0.1-0.1-0.3-0.1-0.4c-0.1-0.2-0.1-0.3-0.1-0.5
	c0-0.1-0.1-0.3-0.1-0.4c0-0.2-0.1-0.3-0.1-0.4c-0.1-0.2-0.1-0.5-0.2-0.7c0-0.1-0.1-0.3-0.1-0.4c-0.1-0.1-0.1-0.2-0.1-0.4
	c0-0.1-0.1-0.2-0.1-0.3c0-0.1-0.1-0.2-0.1-0.3c0-0.1-0.1-0.2-0.1-0.3c0-0.1-0.1-0.2-0.1-0.3c-0.1-0.1-0.1-0.2-0.1-0.3
	c0-0.1-0.1-0.2-0.1-0.3c-0.1-0.1-0.1-0.2-0.1-0.2c0-0.1-0.1-0.2-0.2-0.3c0-0.1-0.1-0.1-0.1-0.2c-0.1-0.1-0.1-0.2-0.2-0.2
	c0-0.1-0.1-0.1-0.1-0.2c-0.1-0.1-0.1-0.1-0.2-0.2c0,0-0.1-0.1-0.2-0.2c0-0.1-0.1-0.1-0.2-0.2c0-0.1-0.1-0.1-0.1-0.2
	c-0.1,0-0.1-0.1-0.2-0.2c-0.1-0.1-0.1-0.1-0.2-0.1c0,0-0.1-0.1-0.2-0.1c0,0-0.1-0.1-0.2-0.1c-0.1,0-0.1-0.1-0.2-0.1
	c0,0-0.1,0-0.2-0.1c-0.1,0-0.1-0.1-0.2-0.1c-0.1,0-0.1-0.1-0.2-0.1c0,0-0.1,0-0.2-0.1c-0.1,0-0.1,0-0.2,0c-0.1,0-0.1,0-0.2,0
	c-0.1,0-0.3-0.1-0.4-0.1c0,0-0.1,0-0.1,0c-0.1,0-0.2,0-0.2,0c-0.3,0-0.6,0-0.8,0.1h0c-0.3,0-0.5,0.1-0.8,0.2c0,0-0.1,0-0.1,0
	c-0.2,0.1-0.5,0.2-0.8,0.3c0,0-0.1,0-0.1,0c-0.3,0.1-0.5,0.3-0.8,0.4c0,0-0.1,0-0.1,0.1c-0.3,0.2-0.5,0.3-0.8,0.5c0,0-0.1,0-0.1,0.1
	c-0.3,0.2-0.5,0.4-0.8,0.6c-0.1,0-0.1,0.1-0.1,0.1c-0.3,0.2-0.5,0.4-0.8,0.7c0,0-0.1,0.1-0.1,0.1c-0.3,0.2-0.5,0.5-0.8,0.8
	c0,0,0,0,0,0.1c-0.3,0.2-0.5,0.5-0.8,0.8c0,0-0.1,0-0.1,0.1c-0.3,0.3-0.5,0.5-0.8,0.8c0,0-0.1,0.1-0.1,0.1c-0.2,0.3-0.5,0.5-0.7,0.8
	c0,0-0.1,0.1-0.1,0.1c-0.2,0.2-0.4,0.5-0.7,0.7c0,0.1-0.1,0.1-0.1,0.1c-0.2,0.3-0.4,0.5-0.6,0.8c0,0-0.1,0-0.1,0.1
	c-0.2,0.2-0.4,0.5-0.6,0.7c0,0,0,0-0.1,0.1c-0.2,0.2-0.3,0.5-0.5,0.7c-0.2,0.2-0.4,0.5-0.6,0.7c-0.2,0.2-0.4,0.5-0.6,0.8
	c-0.1,0.1-0.1,0.1-0.2,0.2c-0.2,0.2-0.3,0.4-0.5,0.6c-0.1,0.1-0.1,0.2-0.2,0.2c-0.2,0.3-0.5,0.5-0.7,0.8c0,0,0,0,0,0
	c-0.2,0.2-0.4,0.5-0.7,0.8c-0.1,0.1-0.1,0.2-0.2,0.3c-0.2,0.2-0.3,0.4-0.5,0.6c-0.1,0.1-0.2,0.2-0.2,0.3c-0.3,0.3-0.5,0.5-0.7,0.8
	c0,0-0.1,0.1-0.1,0.1c-0.3,0.3-0.5,0.5-0.7,0.8c-0.1,0.1-0.2,0.2-0.2,0.3c-0.2,0.2-0.4,0.4-0.6,0.6c-0.1,0.1-0.2,0.2-0.2,0.2
	c-0.2,0.3-0.5,0.5-0.7,0.8c0,0-0.1,0-0.1,0.1c-0.2,0.2-0.4,0.4-0.7,0.6c0,0.1-0.1,0.2-0.2,0.2c-0.2,0.1-0.3,0.3-0.5,0.4
	c-0.1,0.1-0.1,0.1-0.2,0.2c-0.2,0.2-0.4,0.4-0.6,0.5c0,0,0,0-0.1,0c-0.2,0.1-0.4,0.3-0.5,0.4c0,0-0.1,0.1-0.2,0.1
	c-0.1,0.1-0.3,0.2-0.4,0.2c-0.1,0-0.1,0.1-0.2,0.1c-0.2,0.1-0.3,0.2-0.5,0.2h0c-0.1,0-0.2,0.1-0.3,0.1c-0.1,0-0.1,0-0.2,0h0
	c0,0-0.1,0-0.2-0.1c0,0,0,0,0,0c-0.1,0-0.1-0.1-0.2-0.2c-0.1-0.1-0.1-0.2-0.1-0.3c0,0,0,0,0-0.1c0-0.3,0-0.6,0-0.9c0,0,0-0.1,0-0.1
	c0-0.4,0.1-0.8,0.3-1.4c0-0.1,0-0.1,0-0.2c0.2-0.5,0.3-1.2,0.6-1.9c0-0.1,0.1-0.2,0.1-0.3c0.1-0.4,0.3-0.7,0.4-1.2
	c5.4-14.7,46.4-42.9-8-42.9s-13.4,28.2-8,42.9c0.1,0.4,0.2,0.8,0.4,1.2c0,0.1,0.1,0.2,0.1,0.3c0.2,0.7,0.4,1.3,0.6,1.9
	c0,0.1,0,0.1,0.1,0.2c0.1,0.5,0.2,1,0.3,1.4c0,0,0,0.1,0,0.1c0,0.4,0,0.7,0,0.9c0,0,0,0,0,0.1c0,0.1,0,0.2-0.1,0.3
	c-0.1,0.1-0.1,0.1-0.2,0.2c0,0,0,0,0,0c0,0-0.1,0.1-0.2,0.1h0c-0.1,0-0.1,0-0.2,0c-0.1,0-0.2,0-0.3-0.1h0c-0.1,0-0.3-0.1-0.5-0.2
	c-0.1,0-0.1-0.1-0.2-0.1c-0.1-0.1-0.2-0.2-0.4-0.2c0,0-0.1-0.1-0.2-0.1c-0.2-0.1-0.3-0.3-0.5-0.4c0,0,0,0-0.1,0
	c-0.2-0.2-0.4-0.3-0.6-0.5c-0.1-0.1-0.1-0.1-0.2-0.2c-0.1-0.1-0.3-0.3-0.5-0.4c-0.1-0.1-0.1-0.2-0.2-0.2c-0.2-0.2-0.4-0.4-0.6-0.7
	c0,0,0,0-0.1-0.1c-0.3-0.2-0.5-0.5-0.7-0.8c-0.1-0.1-0.2-0.2-0.3-0.2c-0.2-0.2-0.4-0.4-0.6-0.6c-0.1-0.1-0.1-0.2-0.2-0.3
	c-0.2-0.2-0.4-0.5-0.7-0.8c-0.1,0-0.1-0.1-0.1-0.1c-0.2-0.3-0.5-0.5-0.7-0.8c-0.1-0.1-0.1-0.2-0.2-0.3c-0.2-0.2-0.4-0.4-0.5-0.6
	c-0.1-0.1-0.2-0.2-0.2-0.3c-0.2-0.3-0.5-0.5-0.7-0.8c0,0,0,0,0,0c-0.2-0.3-0.5-0.5-0.7-0.8c-0.1-0.1-0.1-0.2-0.2-0.2
	c-0.1-0.2-0.3-0.4-0.5-0.6c-0.1-0.1-0.1-0.2-0.2-0.2c-0.2-0.3-0.4-0.5-0.6-0.8c-0.2-0.2-0.4-0.5-0.6-0.7c-0.2-0.2-0.4-0.5-0.5-0.7
	c0,0,0,0,0-0.1c-0.2-0.2-0.4-0.5-0.6-0.7c0,0,0-0.1-0.1-0.1c-0.2-0.2-0.4-0.5-0.6-0.8c0,0-0.1-0.1-0.1-0.1c-0.2-0.2-0.4-0.5-0.7-0.7
	c0,0-0.1-0.1-0.1-0.1c-0.2-0.3-0.5-0.5-0.7-0.8c0,0,0-0.1-0.1-0.1c-0.3-0.2-0.5-0.5-0.8-0.8c0,0,0,0,0-0.1c-0.3-0.3-0.6-0.6-0.8-0.8
	c0,0,0,0,0-0.1c-0.3-0.3-0.5-0.5-0.8-0.8c0,0-0.1,0-0.1-0.1c-0.2-0.2-0.5-0.5-0.8-0.7c0,0-0.1-0.1-0.1-0.1c-0.3-0.2-0.5-0.4-0.8-0.6
	c0,0-0.1-0.1-0.1-0.1c-0.2-0.2-0.5-0.4-0.8-0.5c0,0,0-0.1-0.1-0.1c-0.3-0.2-0.5-0.3-0.8-0.4c0,0-0.1,0-0.1,0
	c-0.3-0.1-0.5-0.2-0.8-0.3c0,0,0,0-0.1,0c-0.3-0.1-0.6-0.2-0.8-0.2h0c-0.3-0.1-0.5-0.1-0.8-0.1l0,0c-0.1,0-0.2,0-0.2,0
	c0,0-0.1,0-0.1,0c-0.1,0-0.2,0-0.4,0.1c0,0-0.1,0-0.2,0c-0.1,0-0.2,0-0.2,0c-0.1,0-0.1,0-0.2,0.1s-0.1,0-0.2,0.1c0,0-0.1,0-0.2,0.1
	c0,0-0.1,0-0.2,0.1c-0.1,0-0.1,0.1-0.2,0.1c0,0-0.1,0.1-0.1,0.1c-0.1,0-0.1,0.1-0.2,0.1c0,0-0.1,0.1-0.2,0.1c0,0-0.1,0.1-0.2,0.2
	c-0.1,0-0.1,0.1-0.2,0.2c-0.1,0-0.1,0.1-0.2,0.2c-0.1,0.1-0.1,0.1-0.1,0.2c0,0.1-0.1,0.2-0.2,0.2c0,0.1-0.1,0.1-0.1,0.2
	c-0.1,0.1-0.1,0.1-0.2,0.2c0,0.1-0.1,0.1-0.1,0.2c0,0.1-0.1,0.2-0.2,0.3c0,0.1-0.1,0.2-0.1,0.2c0,0.1-0.1,0.2-0.1,0.3
	c0,0.1-0.1,0.2-0.1,0.3c0,0.1-0.1,0.2-0.2,0.3c0,0.1-0.1,0.2-0.1,0.3c-0.1,0.1-0.1,0.2-0.1,0.3c0,0.1-0.1,0.2-0.1,0.3
	c0,0.1-0.1,0.2-0.1,0.4c0,0.1,0,0.2-0.1,0.4c0,0.2-0.1,0.5-0.2,0.7c0,0.1-0.1,0.3-0.1,0.4c0,0.1-0.1,0.3-0.1,0.4
	c0,0.2,0,0.3-0.1,0.5c0,0.1,0,0.3-0.1,0.4c0,0.2-0.1,0.3-0.1,0.5c0,0.2,0,0.3-0.1,0.5c0,0.2,0,0.4-0.1,0.5c0,0.1-0.1,0.3-0.1,0.5
	c0,0.2,0,0.4-0.1,0.6c0,0.2,0,0.4-0.1,0.5c0,0.2,0,0.4,0,0.6c0,0.2,0,0.3-0.1,0.5c0,0.2,0,0.4,0,0.7c0,0.2,0,0.4-0.1,0.5
	c0,0.2,0,0.5,0,0.7c0,0.2,0,0.4,0,0.6c0,0.2,0,0.5,0,0.8c0,0.2,0,0.4,0,0.6c0,0.3,0,0.6,0,0.8c0,0.2,0,0.4,0,0.6c0,0.3,0,0.6,0,1
	v2.2c0,0.4,0,0.8,0,1.2v0.5c0,0.6,0,1.2,0,1.8c0,0.7,0.1,1.3,0.1,1.9c0,0.2,0,0.4,0,0.5c0,0.4,0,0.8,0,1.2c0,0.2,0,0.3,0,0.5
	c0,0.4,0,0.8,0.1,1.2c0,0.2,0,0.3,0,0.5c0,0.4,0.1,0.7,0.1,1.1c0,0.2,0,0.4,0.1,0.5c0,0.3,0.1,0.7,0.1,1c0,0.2,0,0.4,0.1,0.6
	c0,0.3,0,0.6,0.1,0.9c0,0.2,0,0.4,0.1,0.6c0,0.3,0.1,0.5,0.1,0.8c0,0.2,0.1,0.4,0.1,0.6c0,0.2,0.1,0.5,0.1,0.7c0,0.2,0,0.4,0.1,0.5
	c0,0.2,0.1,0.5,0.1,0.7c0,0.2,0.1,0.3,0.1,0.5c0,0.2,0.1,0.4,0.1,0.6c0,0.2,0.1,0.3,0.1,0.5c0,0.2,0.1,0.4,0.1,0.6
	c0,0.2,0,0.3,0.1,0.5c0,0.2,0.1,0.4,0.1,0.5c0,0.2,0.1,0.3,0.1,0.5c0,0.2,0.1,0.3,0.2,0.5c0,0.2,0.1,0.3,0.1,0.4
	c0,0.2,0.1,0.3,0.1,0.5c0,0.1,0,0.3,0.1,0.4c0.1,0.1,0.1,0.3,0.2,0.4c0,0.1,0.1,0.2,0.1,0.4c0,0.1,0.1,0.3,0.2,0.4
	c0,0.1,0.1,0.2,0.1,0.3c0,0.1,0.1,0.2,0.2,0.4c0,0.1,0.1,0.2,0.1,0.3c0,0.1,0.1,0.2,0.1,0.3c0.1,0.1,0.1,0.2,0.2,0.3
	c0,0.1,0.1,0.2,0.2,0.3c0,0.1,0.1,0.2,0.2,0.3c0,0.1,0.1,0.2,0.2,0.3c0,0.1,0.1,0.2,0.2,0.2c0.1,0.1,0.1,0.2,0.2,0.3
	c0,0.1,0.1,0.1,0.2,0.2c0.1,0.1,0.1,0.1,0.2,0.2c0.1,0.1,0.1,0.1,0.2,0.2c0.1,0.1,0.1,0.1,0.2,0.2c0,0.1,0.1,0.1,0.2,0.2
	c0,0.1,0.1,0.1,0.2,0.2c0,0.1,0.1,0.1,0.2,0.2c0.1,0,0.1,0.1,0.2,0.1s0.1,0.1,0.2,0.1c0.1,0,0.1,0.1,0.2,0.1c0,0,0.1,0.1,0.2,0.1
	c0,0,0.1,0.1,0.2,0.1c0.1,0,0.1,0,0.2,0.1c0.1,0,0.1,0,0.2,0.1c0.1,0,0.1,0.1,0.2,0.1c0,0,0.1,0,0.2,0.1c0.1,0,0.1,0,0.2,0
	c0.1,0,0.1,0,0.2,0c0.1,0,0.1,0,0.2,0c0.1,0,0.1,0,0.2,0c0,0,0.1,0,0.2,0h0.4c0.2,0,0.4,0,0.6,0c0,0,0.1,0,0.1,0
	c0.2,0,0.4-0.1,0.6-0.1c0.1,0,0.1,0,0.1,0c0.2-0.1,0.4-0.1,0.6-0.2c0,0,0.1,0,0.1,0c0.2-0.1,0.4-0.2,0.6-0.3c0,0,0,0,0.1-0.1
	c0.2-0.1,0.4-0.2,0.6-0.3c0,0,0.1,0,0.1-0.1c0.2-0.1,0.4-0.3,0.5-0.4c0,0,0.1,0,0.1-0.1c0.2-0.1,0.4-0.3,0.5-0.4c0,0,0.1,0,0.1-0.1
	c0.1-0.2,0.3-0.3,0.5-0.4c0,0,0.1-0.1,0.1-0.1c0.2-0.2,0.3-0.3,0.5-0.5c0,0,0,0,0.1-0.1c0.2-0.2,0.3-0.3,0.5-0.5c0,0,0.1,0,0.1-0.1
	c0.2-0.1,0.3-0.3,0.4-0.4c0,0,0.1-0.1,0.1-0.1c0.1-0.1,0.3-0.2,0.4-0.4c0,0,0.1-0.1,0.1-0.1c0.1-0.1,0.2-0.2,0.2-0.3
	c0.5-0.5,0.8-0.8,1-1.1c0.1-0.1,0.2-0.2,0.3-0.4c0,0,0.1-0.1,0.1-0.1c0.1-0.1,0.2-0.3,0.4-0.5c0,0,0.1-0.1,0.1-0.1
	c0.2-0.2,0.3-0.4,0.5-0.6c0.1-0.1,0.2-0.2,0.3-0.4c0.1-0.1,0.2-0.2,0.2-0.3c0.3-0.4,0.6-0.8,1-1.2c0,0,0,0,0-0.1
	c0.2-0.3,0.5-0.6,0.7-0.9c0-0.1,0.1-0.1,0.2-0.2c0.3-0.3,0.5-0.7,0.8-1c0,0,0.1-0.1,0.1-0.1c0.2-0.3,0.5-0.6,0.7-0.9
	c0.1-0.1,0.1-0.2,0.2-0.2c0.3-0.3,0.6-0.7,0.9-1l0,0c0.3-0.3,0.6-0.6,0.8-0.9c0.1-0.1,0.2-0.1,0.2-0.2c0.3-0.3,0.5-0.5,0.8-0.8
	c0,0,0.1-0.1,0.1-0.1c0.3-0.3,0.6-0.5,0.8-0.7c0.1-0.1,0.1-0.1,0.2-0.2c0.2-0.2,0.5-0.4,0.7-0.5c0.1,0,0.1-0.1,0.2-0.1
	c0.3-0.2,0.5-0.3,0.8-0.5c0.1,0,0.1,0,0.2-0.1c0.2-0.1,0.4-0.2,0.6-0.3c0.1,0,0.1,0,0.2-0.1c0.2,0,0.5-0.1,0.7-0.1
	c0.1,0,0.1,0,0.2,0c0.1,0,0.2,0,0.3,0c0.1,0,0.1,0.1,0.2,0.1c0.1,0,0.2,0.1,0.3,0.1c0.1,0,0.1,0.1,0.2,0.1c0.1,0.1,0.2,0.1,0.3,0.2
	c0.1,0.1,0.1,0.1,0.2,0.2c0.1,0.1,0.1,0.2,0.2,0.3c0,0.1,0.1,0.2,0.1,0.3c0.1,0.1,0.1,0.3,0.2,0.4c0.1,0.1,0.1,0.2,0.1,0.3
	c0.1,0.2,0.1,0.4,0.2,0.6c0,0.1,0,0.2,0.1,0.4c0,0.3,0.1,0.5,0.1,0.8c0,0.1,0.1,0.2,0.1,0.4c0,0.4,0.1,0.9,0.1,1.4
	c0.7,33.8-32.4,49.7-38.9,49.8c-0.3,0-0.6,0-0.9,0c-0.2,0-0.5,0-0.7,0c-0.3,0-0.5-0.1-0.8-0.1c-0.3,0-0.5-0.1-0.8-0.1
	c-0.3,0-0.6-0.1-0.9-0.2c-0.3,0-0.5-0.1-0.9-0.2c-0.3-0.1-0.6-0.1-0.9-0.2c-0.3-0.1-0.6-0.2-0.9-0.2c-0.3-0.1-0.7-0.2-1-0.3
	c-0.3-0.1-0.7-0.2-1-0.3c-0.3-0.1-0.7-0.2-1-0.3c-0.3-0.1-0.7-0.2-1-0.4c-0.3-0.1-0.7-0.3-1-0.4c-0.3-0.1-0.7-0.3-1-0.4
	c-0.4-0.2-0.7-0.3-1.1-0.5c-0.3-0.2-0.7-0.3-1-0.5c-0.4-0.2-0.7-0.4-1.1-0.5c-0.4-0.2-0.7-0.3-1.1-0.5c-0.4-0.2-0.8-0.4-1.1-0.6
	c-0.3-0.2-0.7-0.4-1.1-0.6c-0.3-0.2-0.7-0.5-1.1-0.7c-0.4-0.2-0.7-0.4-1.1-0.7c-0.4-0.2-0.8-0.5-1.1-0.7c-0.4-0.2-0.7-0.5-1.1-0.7
	c-0.3-0.2-0.8-0.5-1.1-0.8c-0.4-0.3-0.7-0.5-1.1-0.8c-0.3-0.3-0.7-0.5-1.1-0.8c-0.4-0.3-0.7-0.5-1.1-0.8c-0.4-0.3-0.7-0.6-1.1-0.9
	c-0.3-0.3-0.7-0.5-1-0.8c-0.4-0.3-0.7-0.6-1.1-0.9c-0.4-0.3-0.7-0.6-1.1-0.9c-0.4-0.3-0.7-0.6-1.1-0.9c-0.3-0.3-0.7-0.6-1-1
	c-0.3-0.3-0.7-0.7-1-1c-0.3-0.3-0.7-0.7-1-1c-0.3-0.3-0.7-0.7-1-1c-0.4-0.3-0.7-0.7-1-1c-0.3-0.3-0.7-0.7-1-1.1
	c-0.3-0.3-0.7-0.7-1-1c-0.3-0.3-0.6-0.7-0.9-1.1c-0.3-0.4-0.6-0.7-0.9-1.1c-0.3-0.4-0.6-0.8-0.9-1.1c-0.3-0.4-0.6-0.8-0.8-1.1
	c-0.3-0.4-0.6-0.8-0.8-1.2c-0.3-0.4-0.5-0.8-0.8-1.2c-0.2-0.4-0.5-0.8-0.7-1.2s-0.5-0.8-0.7-1.2c-0.3-0.4-0.5-0.8-0.7-1.2
	c-0.3-0.4-0.5-0.8-0.7-1.2c-0.2-0.4-0.4-0.9-0.7-1.3c-0.2-0.4-0.4-0.8-0.6-1.2c-0.2-0.4-0.4-0.9-0.6-1.3c-0.2-0.4-0.4-0.8-0.5-1.2
	c-0.2-0.5-0.3-0.9-0.5-1.4c-0.2-0.4-0.3-0.8-0.4-1.2c-0.2-0.5-0.3-1-0.4-1.5c-0.1-0.4-0.2-0.8-0.3-1.2c-0.2-0.5-0.2-1-0.4-1.6
	c-0.1-0.4-0.2-0.7-0.2-1.1c-0.1-0.6-0.2-1.2-0.3-1.8c0-0.3-0.1-0.6-0.1-0.9c-0.1-0.9-0.2-1.8-0.2-2.8c0-0.3,0-0.7,0-1
	c0-0.1,0-0.2,0-0.3c0-0.3,0-0.6,0-0.9c0,0,0-0.1,0-0.2v-0.9c0-0.2,0-0.5,0-0.7v-0.1c0-0.2,0-0.4,0.1-0.5v0c0-0.2,0.1-0.3,0.1-0.4
	c0,0,0,0,0,0c0-0.1,0.1-0.2,0.2-0.2c0,0,0,0,0,0c0.1,0,0.2-0.1,0.3-0.1h0.1c0,0,0.1,0,0.1,0c0,0,0.1,0,0.1,0c0,0,0.1,0,0.2,0.1
	c0,0,0.1,0,0.1,0.1c0,0,0.1,0.1,0.2,0.1c0,0,0.1,0.1,0.1,0.1c0,0.1,0.1,0.1,0.2,0.2c0,0,0.1,0.1,0.1,0.1c0.1,0.1,0.2,0.1,0.2,0.2
	c0,0,0.1,0.1,0.1,0.2c0.1,0.1,0.2,0.2,0.3,0.2c0,0.1,0.1,0.1,0.2,0.2c0.2,0.2,0.3,0.3,0.5,0.5c0,0.1,0.1,0.1,0.2,0.2
	c0.1,0.1,0.2,0.3,0.4,0.4c0.1,0.1,0.2,0.2,0.2,0.2c0.1,0.1,0.3,0.3,0.4,0.4c0.1,0.1,0.2,0.2,0.2,0.3c0.2,0.2,0.3,0.3,0.4,0.5
	c0.1,0.1,0.2,0.2,0.3,0.3c0.2,0.2,0.3,0.3,0.4,0.5c0.1,0.1,0.2,0.2,0.3,0.3c0.1,0.2,0.3,0.4,0.5,0.6c0.1,0.1,0.2,0.2,0.3,0.3
	c0.2,0.2,0.4,0.5,0.6,0.7c0.1,0.1,0.2,0.2,0.3,0.4c0.2,0.3,0.4,0.5,0.7,0.8c0.1,0.1,0.1,0.2,0.2,0.3c0.3,0.3,0.6,0.7,0.9,1
	c0,0.1,0.1,0.1,0.1,0.2c0.3,0.4,0.7,0.9,1.1,1.3c0.3,0.4,0.7,0.8,1,1.2c0.1,0.1,0.2,0.3,0.4,0.4c0.2,0.2,0.4,0.5,0.7,0.7
	c0.1,0.2,0.3,0.3,0.4,0.5c0.2,0.2,0.4,0.5,0.6,0.7c0.1,0.2,0.3,0.3,0.4,0.5c0.2,0.2,0.4,0.4,0.6,0.6c0.1,0.2,0.3,0.3,0.4,0.5
	c0.2,0.2,0.4,0.4,0.6,0.6c0.1,0.1,0.3,0.3,0.4,0.4c0.2,0.2,0.4,0.4,0.6,0.5c0.2,0.1,0.3,0.3,0.4,0.4c0.2,0.2,0.4,0.3,0.6,0.5
	c0.1,0.1,0.3,0.2,0.4,0.4c0.2,0.2,0.4,0.3,0.6,0.5c0.1,0.1,0.3,0.2,0.4,0.3c0.2,0.2,0.4,0.3,0.6,0.4c0.1,0.1,0.2,0.2,0.3,0.3
	c0.2,0.2,0.4,0.3,0.6,0.4c0.1,0.1,0.2,0.1,0.3,0.2c0.3,0.2,0.6,0.3,0.9,0.5c0,0,0.1,0,0.1,0c0.3,0.1,0.5,0.3,0.8,0.3
	c0.1,0,0.2,0.1,0.3,0.1c0.2,0.1,0.4,0.1,0.5,0.2c0.1,0,0.2,0,0.3,0.1c0.2,0,0.3,0.1,0.5,0.1c0.1,0,0.2,0,0.3,0c0.1,0,0.2,0,0.3,0
	h0.2c0.1,0,0.1,0,0.1,0c0.2,0,0.4-0.1,0.7-0.1c0,0,0.1,0,0.1,0c0.2,0,0.4-0.1,0.6-0.2c0,0,0,0,0.1-0.1c0.2-0.1,0.4-0.2,0.6-0.4
	c0,0,0,0,0-0.1c0.2-0.2,0.4-0.3,0.6-0.5c0,0,0,0,0,0c0.2-0.2,0.3-0.4,0.5-0.7c0,0,0-0.1,0-0.1c0.2-0.2,0.3-0.5,0.4-0.8
	c0-0.1,0.1-0.1,0.1-0.2c0.2-0.3,0.2-0.6,0.4-1c0-0.1,0-0.1,0-0.2c0.1-0.3,0.2-0.7,0.3-1.1c0,0,0-0.1,0.1-0.2
	c0.1-0.4,0.2-0.8,0.2-1.3c0-0.1,0-0.2,0-0.2c0-0.5,0.1-1,0.2-1.5v-0.2c0-0.5,0.1-1.1,0.1-1.7v-0.2c0-0.6,0-1.3,0-2v-0.3
	c0-0.7,0-1.4,0-2.1v-0.4c0-0.7-0.1-1.5-0.1-2.3c0-0.2,0-0.3,0-0.5c0-0.8-0.1-1.6-0.2-2.5c0-0.1,0-0.3,0-0.4
	c-0.1-0.9-0.2-1.8-0.3-2.8c0-0.1,0-0.2,0-0.3c-0.1-1-0.2-2.1-0.4-3.2c0-0.6-0.1-1.2-0.2-1.8c0-0.2-0.1-0.4-0.1-0.6
	c-0.1-0.4-0.1-0.8-0.2-1.1c-0.1-0.2-0.1-0.5-0.1-0.7c0-0.3-0.1-0.6-0.1-0.9c0-0.2-0.1-0.5-0.1-0.7c0-0.3-0.1-0.6-0.1-0.8
	c0-0.2-0.1-0.5-0.1-0.7c-0.1-0.2-0.1-0.5-0.2-0.8c0-0.2-0.1-0.5-0.1-0.7c0-0.2-0.1-0.5-0.1-0.7c-0.1-0.2-0.1-0.4-0.1-0.7
	c-0.1-0.2-0.1-0.4-0.2-0.7c0-0.2-0.1-0.4-0.1-0.6c0-0.2-0.1-0.4-0.2-0.6c0-0.2-0.1-0.4-0.2-0.6c-0.1-0.2-0.1-0.4-0.2-0.6
	c0-0.2-0.1-0.4-0.1-0.6c-0.1-0.2-0.1-0.4-0.2-0.5c0-0.2-0.1-0.4-0.1-0.5c-0.1-0.2-0.1-0.3-0.2-0.5c-0.1-0.2-0.1-0.3-0.1-0.5
	c-0.1-0.2-0.1-0.3-0.2-0.5c0-0.2-0.1-0.3-0.2-0.5c0-0.2-0.1-0.3-0.2-0.4c-0.1-0.1-0.1-0.3-0.2-0.4s-0.1-0.3-0.2-0.4
	c0-0.1-0.1-0.2-0.2-0.4c0-0.1-0.1-0.2-0.2-0.4c-0.1-0.1-0.1-0.2-0.2-0.4c-0.1-0.1-0.1-0.2-0.2-0.3c0-0.1-0.1-0.2-0.2-0.3
	c-0.1-0.1-0.1-0.2-0.2-0.3c0-0.1-0.1-0.2-0.2-0.3c-0.1-0.1-0.1-0.2-0.2-0.3c-0.1-0.1-0.1-0.2-0.2-0.3c-0.1-0.1-0.1-0.2-0.2-0.3
	c-0.1-0.1-0.1-0.2-0.2-0.3c0-0.1-0.1-0.2-0.2-0.2c-0.1-0.1-0.1-0.2-0.2-0.2c0-0.1-0.1-0.1-0.2-0.2c-0.1-0.1-0.1-0.2-0.2-0.2
	c-0.1-0.1-0.1-0.1-0.2-0.2c0-0.1-0.1-0.1-0.2-0.2c0-0.1-0.1-0.1-0.2-0.2c-0.1-0.1-0.1-0.1-0.2-0.2c0,0-0.1-0.1-0.2-0.2
	c0,0-0.1-0.1-0.2-0.1c-0.1-0.1-0.1-0.1-0.2-0.1c-0.1,0-0.1-0.1-0.2-0.1c-0.1,0-0.1-0.1-0.2-0.1c0,0-0.1-0.1-0.2-0.1
	c-0.1,0-0.1-0.1-0.2-0.1c-0.1,0-0.1-0.1-0.2-0.1c0,0-0.1-0.1-0.2-0.1c-0.1,0-0.1,0-0.2-0.1c-0.1,0-0.1,0-0.2,0c-0.1,0-0.1,0-0.1,0
	c-0.1,0-0.2-0.1-0.3-0.1c0,0,0,0,0,0c-0.1,0-0.2,0-0.3,0h-0.1c-0.1,0-0.2,0-0.3,0l0,0c-0.4,0-0.8,0.1-1.2,0.2h0
	c-0.2,0-0.4,0.1-0.6,0.2c0,0,0,0,0,0c-0.2,0.1-0.4,0.2-0.6,0.2c0,0,0,0,0,0c-0.2,0.1-0.3,0.2-0.5,0.3c0,0,0,0,0,0
	c-0.2,0.1-0.3,0.2-0.5,0.3c-0.1,0.1-0.1,0.1,0,0c-0.2,0.1-0.3,0.2-0.5,0.3c0,0,0,0,0,0c-0.1,0.1-0.3,0.2-0.4,0.3c0,0,0,0,0,0
	c-0.2,0.1-0.3,0.2-0.4,0.4c0,0,0,0-0.1,0c-0.1,0.1-0.2,0.2-0.3,0.3c0,0,0,0,0,0c-0.1,0.1-0.2,0.2-0.3,0.3c0,0,0,0,0,0
	c-0.1,0.1-0.2,0.2-0.2,0.3c0,0.1-0.1,0.1,0,0c-0.1,0.1-0.1,0.2-0.2,0.3l0,0c-0.1,0.1-0.1,0.1-0.2,0.2h0c0,0.1,0,0.1-0.1,0.1
	c0,0,0,0,0,0c-0.3,0.3-0.6,0.6-1,0.9c-0.1,0.1-0.2,0.2-0.3,0.3c-0.3,0.2-0.5,0.5-0.8,0.7c-0.1,0.1-0.2,0.2-0.2,0.2
	c-0.3,0.3-0.6,0.6-1,0.9c-0.1,0.1-0.2,0.2-0.2,0.3c-0.3,0.2-0.5,0.5-0.7,0.7c-0.2,0.1-0.3,0.2-0.4,0.4c-0.2,0.2-0.4,0.4-0.6,0.6
	c-0.5,0.5-0.9,0.9-1.3,1.3c0,0,0,0,0,0c-0.3,0.3-0.6,0.6-0.9,0.9c0,0-0.1,0.1-0.2,0.1c-0.7,0.6-1.2,1.2-1.8,1.8
	c-0.1,0-0.1,0.1-0.2,0.2c-0.2,0.2-0.5,0.5-0.7,0.7c0,0-0.1,0.1-0.1,0.2c-0.3,0.2-0.5,0.5-0.8,0.7c0,0-0.1,0.1-0.1,0.1
	c-0.2,0.2-0.4,0.3-0.6,0.5c0,0-0.1,0.1-0.2,0.1c-0.2,0.2-0.4,0.3-0.6,0.5c0,0,0,0,0,0c-0.2,0.1-0.4,0.3-0.6,0.4c0,0-0.1,0-0.1,0.1
	c-0.2,0.1-0.3,0.1-0.4,0.2c-0.1,0-0.1,0-0.1,0c-0.1,0-0.3,0.1-0.4,0.1c0,0-0.1,0-0.1,0c-0.1,0-0.2,0-0.3,0c0,0,0,0-0.1-0.1
	c0,0-0.1-0.1-0.1-0.1c0,0,0-0.1-0.1-0.1c0-0.1,0-0.2-0.1-0.3c0,0,0-0.1,0-0.1c0-0.1,0-0.3,0-0.5v-0.1c0-0.2,0.1-0.4,0.1-0.6
	c0-0.1,0-0.2,0-0.3c0-0.2,0.1-0.4,0.1-0.6c0-0.1,0.1-0.2,0.1-0.3c0-0.2,0.1-0.5,0.2-0.7c0.1-0.1,0.1-0.2,0.1-0.4
	c0.1-0.4,0.2-0.8,0.4-1.3c0.1-0.4,0.2-0.8,0.4-1.2c0.1-0.2,0.1-0.3,0.2-0.5c0-0.1,0.1-0.2,0.1-0.3c0.1-0.2,0.2-0.4,0.2-0.6
	c0.1-0.2,0.1-0.3,0.2-0.5c0-0.1,0.1-0.3,0.2-0.4c0.1-0.2,0.1-0.3,0.2-0.5c0-0.1,0.1-0.3,0.2-0.4c0-0.1,0.1-0.3,0.2-0.4
	c0.1-0.1,0.1-0.3,0.2-0.4c0.1-0.2,0.2-0.4,0.3-0.5c0-0.1,0.1-0.2,0.1-0.3c0.1-0.2,0.2-0.4,0.3-0.6c0-0.1,0.1-0.2,0.1-0.2
	c0.1-0.2,0.2-0.4,0.3-0.6c0-0.1,0.1-0.2,0.1-0.2c0.1-0.2,0.2-0.4,0.3-0.7c0-0.1,0-0.1,0.1-0.2c0.1-0.2,0.2-0.5,0.4-0.7
	c0-0.1,0-0.1,0.1-0.2c1.1-2,2.1-4,3.1-5.8c0,0,0-0.1,0-0.1c0.1-0.2,0.3-0.5,0.4-0.7c0,0,0-0.1,0-0.1c0.1-0.2,0.2-0.5,0.3-0.7
	c0-0.1,0.1-0.1,0.1-0.2c0.1-0.2,0.2-0.4,0.3-0.6c0-0.1,0.1-0.2,0.1-0.2c0.1-0.2,0.2-0.4,0.3-0.6c0-0.1,0.1-0.1,0.1-0.2
	c0.1-0.2,0.2-0.4,0.3-0.6c0-0.1,0.1-0.1,0.1-0.2c0.1-0.2,0.2-0.4,0.3-0.5c0-0.1,0-0.2,0.1-0.2c0.1-0.2,0.2-0.4,0.2-0.5
	c0.1-0.1,0.1-0.2,0.2-0.2c0.1-0.2,0.1-0.3,0.2-0.5c0-0.1,0.1-0.2,0.1-0.3c0.1-0.2,0.2-0.3,0.2-0.5c0-0.1,0.1-0.2,0.1-0.3
	c0.1-0.2,0.1-0.3,0.2-0.5c0-0.1,0-0.2,0.1-0.3c0-0.2,0.1-0.3,0.2-0.4c0-0.1,0-0.2,0.1-0.3c0-0.1,0.1-0.3,0.1-0.4
	c0-0.1,0.1-0.2,0.1-0.3c0-0.1,0.1-0.3,0.1-0.4c0-0.1,0-0.2,0-0.3c0-0.1,0.1-0.3,0.1-0.4c0-0.1,0-0.2,0-0.3c0-0.1,0-0.3,0.1-0.4v-0.3
	c0-0.1,0-0.2,0-0.4c0-0.1,0-0.2,0-0.2V300c0-0.1,0-0.2,0-0.3c0-0.1,0-0.2,0-0.3c0-0.1,0-0.2,0-0.3c0-0.1,0-0.2-0.1-0.2
	c0-0.1,0-0.2,0-0.3c0-0.1,0-0.2-0.1-0.3c0-0.1,0-0.2-0.1-0.3c0-0.1-0.1-0.2-0.1-0.3c0-0.1-0.1-0.2-0.1-0.3c0-0.1-0.1-0.1-0.1-0.2
	c-0.1-0.1-0.1-0.2-0.2-0.3c0-0.1-0.1-0.2-0.1-0.3c-0.1-0.1-0.1-0.2-0.2-0.3c0-0.1-0.1-0.1-0.2-0.2c-0.1-0.1-0.1-0.2-0.2-0.3
	c-0.1-0.1-0.1-0.2-0.2-0.2c-0.1-0.1-0.2-0.2-0.2-0.3c-0.1-0.1-0.1-0.1-0.2-0.2c-0.1-0.1-0.2-0.2-0.3-0.2c-0.1-0.1-0.2-0.1-0.2-0.2
	c-0.1-0.1-0.2-0.2-0.3-0.2c-0.1-0.1-0.2-0.1-0.3-0.2c-0.1-0.1-0.2-0.1-0.3-0.2c-0.1-0.1-0.2-0.1-0.3-0.2c-0.1-0.1-0.2-0.2-0.3-0.2
	c-0.1,0-0.2-0.1-0.4-0.2c-0.1-0.1-0.2-0.1-0.4-0.2c-0.1-0.1-0.2-0.1-0.4-0.2c-0.1-0.1-0.3-0.1-0.4-0.2c-0.1,0-0.3-0.1-0.4-0.2
	c-0.1,0-0.3-0.1-0.4-0.2c-0.2,0-0.3-0.1-0.5-0.1c-0.1-0.1-0.3-0.1-0.5-0.2c-0.2,0-0.3-0.1-0.5-0.1c-0.2-0.1-0.3-0.1-0.5-0.2
	c-0.2,0-0.4-0.1-0.5-0.1s-0.3-0.1-0.5-0.1c-0.2,0-0.4-0.1-0.6-0.1c-0.2,0-0.4-0.1-0.6-0.1c-0.2,0-0.4-0.1-0.6-0.1
	c-0.2,0-0.4-0.1-0.6-0.1c-0.2,0-0.5-0.1-0.7-0.1c-0.2,0-0.4-0.1-0.6-0.1c-0.2,0-0.5-0.1-0.7-0.1c-0.2,0-0.5-0.1-0.7-0.1
	c-0.2,0-0.5,0-0.8-0.1c-0.2,0-0.5,0-0.7-0.1c-0.3,0-0.5,0-0.8-0.1c-0.3,0-0.5,0-0.8-0.1c-0.3,0-0.6,0-0.9,0c-0.2,0-0.5,0-0.8-0.1
	c-0.3,0-0.6,0-1,0c-0.2,0-0.5,0-0.8,0c-0.3,0-0.7,0-1,0c-0.3,0-0.6,0-0.8,0c-0.3,0-0.7,0-1,0h-1.2c-42.6,0.2-14.9,17.7-2.8,38
	c0.3,0.6,0.6,1.1,0.9,1.6c0,0.1,0.1,0.2,0.1,0.3c0.3,0.5,0.5,0.9,0.7,1.3c0,0.1,0.1,0.2,0.1,0.2c0.2,0.4,0.4,0.8,0.5,1.2
	c0,0,0,0,0,0.1c0.2,0.3,0.3,0.6,0.4,0.9c0,0,0,0.1,0.1,0.1c0.1,0.3,0.2,0.5,0.3,0.8c0,0,0,0.1,0,0.1c0.1,0.2,0.1,0.4,0.1,0.6v0
	c0,0.2,0,0.3,0,0.4c0,0,0,0,0,0c0,0.1-0.1,0.2-0.2,0.3c0,0,0,0,0,0c-0.1,0.1-0.2,0.1-0.2,0.1h0c-0.1,0-0.2,0-0.3,0c0,0-0.1,0-0.1,0
	c-0.1,0-0.3-0.1-0.4-0.1c0,0-0.1,0-0.1,0c-0.2-0.1-0.3-0.1-0.4-0.2c0,0-0.1,0-0.2-0.1c-0.2-0.1-0.4-0.2-0.6-0.3l0,0
	c-0.2-0.1-0.4-0.3-0.7-0.4c0,0-0.1-0.1-0.1-0.1c-0.2-0.2-0.5-0.3-0.7-0.5c0,0,0,0-0.1,0c-0.3-0.2-0.5-0.4-0.8-0.6
	c0,0-0.1-0.1-0.1-0.1c-0.2-0.2-0.5-0.4-0.7-0.6c0,0-0.1-0.1-0.1-0.1c-0.3-0.2-0.6-0.5-0.9-0.7c0,0,0,0-0.1,0
	c-0.3-0.2-0.5-0.4-0.8-0.7c0,0-0.1-0.1-0.1-0.1c-0.6-0.5-1.2-1-1.7-1.5c0,0-0.1-0.1-0.1-0.1c-0.3-0.2-0.5-0.5-0.8-0.7h0
	c-0.3-0.3-0.6-0.5-0.8-0.8c0,0-0.1,0-0.1-0.1c-0.2-0.2-0.5-0.4-0.7-0.7c0,0,0,0-0.1-0.1c-0.5-0.5-1-0.9-1.4-1.3c0,0-0.1-0.1-0.1-0.1
	c-0.2-0.2-0.4-0.3-0.5-0.5c0,0,0,0,0,0c-0.2-0.2-0.3-0.3-0.5-0.5c0,0-0.1,0-0.1,0c-0.1-0.1-0.3-0.3-0.4-0.4c0,0,0,0,0,0
	c-0.3-0.2-0.4-0.4-0.5-0.5h0c0-0.1,0-0.1,0-0.1c-0.5-0.5-1-0.9-1.4-1.3c-0.1-0.1-0.2-0.2-0.3-0.2c-0.4-0.4-0.9-0.7-1.3-1
	c-0.1,0-0.2-0.1-0.2-0.2c-0.4-0.3-0.8-0.6-1.1-0.8c0,0-0.1,0-0.1-0.1c-0.4-0.2-0.8-0.5-1.1-0.7c-0.1,0-0.1-0.1-0.2-0.1
	c-0.3-0.2-0.7-0.4-1-0.5c-0.1,0-0.1,0-0.2-0.1c-0.3-0.1-0.5-0.2-0.8-0.3c0,0-0.1,0-0.1,0c-0.3-0.1-0.6-0.2-0.8-0.2c0,0-0.1,0-0.2,0
	c-0.3,0-0.5-0.1-0.8-0.1c0,0,0,0,0,0c0,0,0,0,0,0c-0.2,0-0.5,0-0.6,0.1c-0.1,0-0.1,0-0.1,0c-0.2,0-0.4,0.1-0.6,0.2c0,0-0.1,0-0.1,0
	c-0.1,0.1-0.3,0.2-0.5,0.3c0,0,0,0,0,0c-0.2,0.1-0.3,0.3-0.5,0.4c0,0,0,0-0.1,0.1c-0.1,0.1-0.3,0.3-0.4,0.5c0,0,0,0,0,0
	c-0.1,0.2-0.2,0.4-0.3,0.6c0,0,0,0.1-0.1,0.1c-0.1,0.2-0.2,0.4-0.3,0.7c0,0,0,0.1,0,0.1c-0.1,0.2-0.1,0.4-0.2,0.7c0,0,0,0.1,0,0.1
	c-0.1,0.3-0.1,0.5-0.2,0.8c0,0,0,0.1,0,0.2c-0.1,0.6-0.2,1.2-0.3,1.8c0,0,0,0.1,0,0.2c0,0.3,0,0.6-0.1,1v0.1c0,0.3,0,0.6,0,1v0.1
	c0,0.3,0,0.7,0,1v0.2c0,0.7,0,1.4,0.1,2.1c0,0.1,0,0.1,0,0.2c0,0.3,0,0.7,0.1,1v0.1c0,0.3,0.1,0.7,0.1,1c0,0,0,0.1,0,0.1
	c0,0.3,0.1,0.7,0.1,1c0,0.1,0,0.1,0,0.2c0.1,0.3,0.1,0.7,0.1,1c0.1,0.3,0.1,0.7,0.1,1c0,0.1,0,0.1,0,0.2c0,0.3,0.1,0.6,0.1,0.9
	c0,0,0,0,0,0.1c0,0.3,0.1,0.6,0.1,0.8c0,0,0,0.1,0,0.1c0,0.3,0.1,0.6,0.1,0.8c0,0.1,0,0.1,0,0.1c0,0.3,0.1,0.5,0.1,0.7v0.1
	c0.1,0.2,0.1,0.5,0.1,0.7c0,0,0,0.1,0,0.1c0,0.2,0.1,0.4,0.1,0.6c0,0,0,0,0,0c0,0.2,0.1,0.3,0.1,0.5c0,0,0,0.1,0,0.1
	c0,0.1,0,0.3,0.1,0.4v0c0,0.1,0,0.2,0.1,0.3v0c0,0.2,0,0.3,0,0.3c0.2,0.7,0.3,1.3,0.4,2c0,0.2,0.1,0.4,0.1,0.6
	c0.1,0.5,0.2,0.9,0.3,1.3c0,0.2,0.1,0.5,0.1,0.7c0.1,0.4,0.2,0.8,0.3,1.2c0,0.2,0.1,0.4,0.1,0.6c0.1,0.4,0.2,0.9,0.3,1.3
	c0,0.1,0.1,0.2,0.1,0.3c0.1,0.5,0.3,1,0.4,1.5c0,0.1,0.1,0.3,0.1,0.4c0.1,0.4,0.2,0.7,0.3,1.1c0.1,0.2,0.1,0.3,0.1,0.5
	c0.1,0.3,0.2,0.6,0.3,0.9c0,0.2,0.1,0.3,0.1,0.5c0.1,0.3,0.2,0.6,0.3,0.9c0.1,0.1,0.1,0.2,0.1,0.4c0.1,0.4,0.3,0.8,0.5,1.2
	c0,0,0,0.1,0,0.1c0.1,0.3,0.3,0.7,0.4,1c0,0.1,0.1,0.2,0.1,0.3c0.1,0.2,0.2,0.5,0.3,0.7c0,0.1,0.1,0.2,0.1,0.3
	c0.1,0.2,0.2,0.4,0.3,0.6c0.1,0.1,0.1,0.2,0.1,0.3c0.1,0.2,0.2,0.5,0.4,0.7c0,0,0,0.1,0.1,0.1c0.2,0.3,0.3,0.5,0.4,0.8
	c0.1,0.1,0.1,0.1,0.1,0.2c0.1,0.2,0.2,0.3,0.3,0.5c0.1,0.1,0.1,0.2,0.2,0.2c0.1,0.2,0.2,0.3,0.3,0.4c0,0.1,0.1,0.1,0.1,0.2
	c0.1,0.1,0.2,0.3,0.3,0.4c0.1,0,0.1,0.1,0.1,0.1c0.2,0.2,0.3,0.3,0.5,0.5c0,0,0.1,0,0.1,0.1c0.1,0.1,0.2,0.2,0.4,0.3
	c0,0,0.1,0.1,0.1,0.1c0.1,0.1,0.2,0.2,0.3,0.2c0,0,0.1,0.1,0.1,0.1c0.1,0.1,0.2,0.1,0.3,0.2c0.1,0,0.1,0.1,0.2,0.1
	c0.1,0.1,0.3,0.2,0.4,0.2c0,0,0,0,0,0c0.1,0.1,0.3,0.1,0.4,0.2c0.1,0,0.1,0,0.1,0c0.1,0,0.2,0.1,0.3,0.1c0,0,0.1,0,0.1,0
	c0.1,0,0.2,0,0.3,0.1c0,0,0.1,0,0.2,0c0.1,0,0.2,0,0.3,0h0.3c0.1,0,0.3,0,0.4,0c0.1,0,0.1,0,0.2,0c0.1,0,0.2,0,0.3,0
	c0.1,0,0.1,0,0.2-0.1c0.1,0,0.2-0.1,0.3-0.1c0,0,0.1,0,0.2-0.1c0.1,0,0.2-0.1,0.3-0.1c0,0,0.1,0,0.1-0.1c0.2-0.1,0.3-0.2,0.5-0.3
	c0,0,0,0,0,0c0.1-0.1,0.3-0.2,0.5-0.3c0,0,0.1-0.1,0.2-0.1c0.1-0.1,0.2-0.1,0.3-0.2c0.1,0,0.1-0.1,0.2-0.1c0.1-0.1,0.2-0.2,0.3-0.3
	c0,0,0.1-0.1,0.2-0.2c0.1-0.1,0.2-0.2,0.3-0.3c0.1,0,0.1-0.1,0.2-0.2c0.1-0.1,0.2-0.2,0.4-0.3c0,0,0.1,0,0.1-0.1
	c0.1-0.2,0.3-0.3,0.4-0.5c0.1,0,0.1-0.1,0.1-0.1c0.1-0.1,0.2-0.2,0.3-0.4c0.1,0,0.1-0.1,0.2-0.2c0.1-0.1,0.2-0.2,0.3-0.3
	c0.1-0.1,0.1-0.1,0.1-0.2c0.1-0.1,0.2-0.2,0.3-0.4c0,0,0.1-0.1,0.1-0.2c0.1-0.1,0.2-0.3,0.3-0.4c0,0,0-0.1,0.1-0.1
	c0.2-0.2,0.3-0.4,0.4-0.5c0,0,0,0,0,0c0.1-0.2,0.2-0.3,0.3-0.5c0,0,0.1-0.1,0.1-0.1c0.1-0.1,0.2-0.3,0.3-0.4c0-0.1,0.1-0.1,0.1-0.2
	c0.1-0.1,0.2-0.2,0.3-0.4c0,0,0-0.1,0.1-0.2c0.1-0.2,0.2-0.3,0.3-0.4c0,0,0-0.1,0-0.1c0.2-0.4,0.4-0.7,0.6-1.1l0,0
	c0.1-0.2,0.2-0.3,0.2-0.5c0,0,0,0,0.1-0.1c0.1-0.2,0.1-0.3,0.2-0.4c0,0,0,0,0,0c0.1-0.1,0.2-0.3,0.2-0.4c0,0,0,0,0,0
	c0.2-0.5,0.5-0.9,0.6-1.2c0,0,0.1-0.1,0.1-0.1c0,0,0-0.1,0-0.1c0,0,0-0.1,0.1-0.1c0,0,0-0.1,0-0.1c0,0,0-0.1,0-0.1c0,0,0,0,0.1-0.1
	c0,0,0-0.1,0.1-0.1c0.3-0.4,0.5-0.7,0.8-1.1c0.1-0.2,0.2-0.3,0.3-0.4c0.1-0.2,0.3-0.4,0.4-0.5c0.1-0.2,0.2-0.3,0.4-0.5
	c0.1-0.1,0.2-0.3,0.3-0.4c0.1-0.2,0.2-0.3,0.3-0.4c0.1-0.1,0.2-0.3,0.3-0.4c0.1-0.1,0.2-0.3,0.3-0.4c0.1-0.1,0.2-0.2,0.3-0.3
	c0.1-0.1,0.2-0.2,0.3-0.4c0.1-0.1,0.2-0.2,0.3-0.3c0.1-0.1,0.2-0.2,0.3-0.3c0.1-0.1,0.2-0.2,0.3-0.3c0.1-0.1,0.1-0.2,0.2-0.3
	c0.1-0.1,0.1-0.2,0.2-0.2c0.1-0.1,0.2-0.2,0.2-0.2c0,0,0.1-0.1,0.2-0.2c0.1-0.1,0.1-0.1,0.2-0.2c0,0,0.1-0.1,0.2-0.2
	c0.1-0.1,0.2-0.1,0.2-0.2c0.1,0,0.1-0.1,0.2-0.1c0,0,0.1-0.1,0.2-0.1c0,0,0.1-0.1,0.2-0.1c0,0,0.1-0.1,0.1-0.1c0.1,0,0.1,0,0.2-0.1
	c0,0,0.1,0,0.1-0.1c0,0,0.1,0,0.1,0c0.1,0,0.1,0,0.1,0c0,0,0.1,0,0.1,0c0.1,0,0.1,0,0.1,0c0,0,0,0,0,0c0.1,0,0.2,0,0.4,0.1
	c0,0,0,0,0,0c0.1,0.1,0.2,0.2,0.3,0.3c0,0,0,0,0,0c0.1,0.1,0.2,0.3,0.2,0.4c0,0,0,0,0,0c0.1,0.2,0.1,0.4,0.2,0.6v0.1
	c0.1,0.2,0.1,0.4,0.2,0.7c0,0,0,0,0,0c0,0.3,0.1,0.5,0.2,0.8c0.1,0.3,0.1,0.6,0.2,0.8c0,0,0,0,0,0c0.1,0.3,0.2,0.7,0.2,1
	c9.8,37-18.8,51.5-24.2,51.5c-0.4,0-0.7,0-1.1,0c-0.3,0-0.6,0-0.9,0c-0.3,0-0.6,0-0.9-0.1c-0.3,0-0.6,0-0.9,0
	c-0.3,0-0.6-0.1-0.9-0.1c-0.3,0-0.6-0.1-0.9-0.1c-0.3,0-0.6-0.1-0.9-0.1c-0.3,0-0.6-0.1-0.8-0.1c-0.3,0-0.6-0.1-0.9-0.2
	c-0.3-0.1-0.6-0.1-0.8-0.2s-0.6-0.1-0.8-0.2c-0.3-0.1-0.5-0.1-0.8-0.2s-0.5-0.2-0.8-0.2c-0.3-0.1-0.5-0.1-0.8-0.2
	c-0.3-0.1-0.6-0.2-0.8-0.3s-0.5-0.2-0.8-0.2c-0.3-0.1-0.6-0.2-0.9-0.3c-0.2-0.1-0.5-0.2-0.7-0.3c-0.3-0.1-0.6-0.2-0.9-0.3
	c-0.2-0.1-0.5-0.2-0.7-0.3c-0.3-0.1-0.6-0.3-1-0.4c-0.2-0.1-0.4-0.2-0.6-0.3c-0.3-0.2-0.7-0.3-1-0.5c-0.2-0.1-0.3-0.2-0.5-0.2
	c-0.4-0.2-0.8-0.4-1.2-0.7c-0.1,0-0.1-0.1-0.2-0.1c-1.9-1.1-3.8-2.3-5.6-3.5c0,0,0,0-0.1,0c-0.4-0.3-0.8-0.6-1.2-1
	c0,0-0.1-0.1-0.2-0.1c-0.4-0.3-0.8-0.6-1.1-0.9c-0.1-0.1-0.1-0.1-0.2-0.2c-0.4-0.3-0.7-0.6-1.1-0.9c-0.1-0.1-0.1-0.1-0.2-0.2
	c-0.4-0.3-0.7-0.6-1-0.9c-0.1-0.1-0.2-0.1-0.2-0.2c-0.3-0.3-0.6-0.6-1-0.9c-0.1-0.1-0.1-0.1-0.2-0.2c-0.3-0.3-0.6-0.6-0.9-0.9
	c-0.1-0.1-0.2-0.1-0.2-0.2c-0.3-0.3-0.6-0.6-0.9-1c-0.1-0.1-0.1-0.2-0.2-0.2c-0.3-0.3-0.6-0.6-0.9-0.9c-0.1-0.1-0.2-0.2-0.2-0.2
	c-0.3-0.3-0.6-0.6-0.9-1c-0.1-0.1-0.1-0.1-0.2-0.2c-0.3-0.3-0.6-0.7-0.9-1c-0.1-0.1-0.1-0.1-0.2-0.2c-0.3-0.3-0.6-0.7-0.8-1
	c-0.1-0.1-0.1-0.1-0.2-0.2c-0.3-0.3-0.6-0.7-0.8-1c0-0.1-0.1-0.1-0.2-0.2c-0.3-0.3-0.5-0.7-0.8-1c-0.1-0.1-0.1-0.1-0.2-0.2
	c-0.3-0.3-0.5-0.7-0.8-1c0-0.1-0.1-0.1-0.2-0.2c-0.3-0.3-0.5-0.7-0.7-1c0,0-0.1-0.1-0.1-0.2c-0.2-0.3-0.5-0.7-0.7-1
	c-0.1,0-0.1-0.1-0.1-0.2c-0.2-0.3-0.5-0.7-0.7-1.1c0,0-0.1-0.1-0.1-0.2c-0.2-0.3-0.5-0.7-0.7-1c0-0.1-0.1-0.1-0.1-0.2
	c-0.2-0.3-0.4-0.7-0.6-1c0,0-0.1-0.1-0.1-0.2c-0.2-0.3-0.4-0.7-0.6-1.1c0,0-0.1-0.1-0.1-0.1c-0.2-0.3-0.4-0.7-0.6-1
	c0,0-0.1-0.1-0.1-0.1c-0.2-0.4-0.4-0.7-0.6-1c0-0.1,0-0.1-0.1-0.2c-0.2-0.3-0.4-0.7-0.5-1c0,0-0.1-0.1-0.1-0.1
	c-0.2-0.3-0.4-0.7-0.5-1c0,0,0-0.1-0.1-0.1c-0.2-0.3-0.4-0.7-0.5-1c0,0-0.1-0.1-0.1-0.1c-0.1-0.3-0.3-0.7-0.5-1c0,0,0-0.1,0-0.1
	c-0.2-0.3-0.3-0.7-0.5-1c0,0,0-0.1,0-0.1c-0.1-0.3-0.3-0.6-0.4-0.9c0-0.1,0-0.1-0.1-0.1c-0.1-0.3-0.2-0.6-0.4-0.9c0,0,0-0.1-0.1-0.1
	c-0.1-0.3-0.2-0.6-0.3-0.8c0,0,0-0.1,0-0.1c-0.1-0.3-0.2-0.5-0.3-0.8c0,0,0-0.1,0-0.1c-0.1-0.2-0.2-0.5-0.3-0.8c0,0,0-0.1,0-0.1
	c-0.1-0.2-0.2-0.5-0.2-0.7c0-0.1,0-0.1,0-0.1c-0.1-0.2-0.2-0.5-0.2-0.7c0,0,0-0.1,0-0.2c0-0.2-0.1-0.4-0.2-0.6c0,0,0-0.1,0-0.1
	c0-0.2-0.1-0.4-0.1-0.5c0-0.1,0-0.1,0-0.2c0-0.2-0.1-0.3-0.1-0.5c0,0,0-0.1,0-0.2c0-0.2-0.1-0.3-0.1-0.4c0,0,0-0.1,0-0.2
	c0-0.1,0-0.2-0.1-0.4c0,0,0-0.1,0-0.2c0-0.1,0-0.2,0-0.3v-0.2c0-0.1,0-0.2,0-0.2v-0.2c0-0.1,0-0.1,0-0.2c0,0,0-0.1,0-0.1
	c0-0.1,0-0.1,0-0.2c0-0.1,0-0.1,0-0.1c0,0,0-0.1,0.1-0.1c0,0,0,0,0-0.1c0,0,0.1-0.1,0.1-0.1c0,0,0,0,0.1-0.1c0,0,0,0,0.1,0
	c0,0,0.1,0,0.1,0c0,0,0.1,0,0.2,0c4.7,1.1,6.2,6.8,13.2,12.6c0.4,0.3,0.8,0.6,1.1,0.9c0.1,0.1,0.2,0.2,0.4,0.3
	c0.2,0.2,0.5,0.3,0.7,0.5c0.1,0.1,0.3,0.2,0.4,0.3c0.2,0.1,0.4,0.3,0.6,0.4c0.1,0.1,0.2,0.1,0.4,0.2c0.2,0.1,0.4,0.2,0.6,0.3
	c0.1,0.1,0.2,0.1,0.4,0.2c0.2,0.1,0.3,0.2,0.5,0.2c0.1,0,0.3,0.1,0.4,0.1c0.2,0.1,0.3,0.1,0.5,0.2c0.1,0,0.2,0.1,0.3,0.1
	c0.2,0,0.4,0.1,0.5,0.1c0.1,0,0.1,0,0.2,0c0.3,0,0.5,0,0.7,0h0c0.3,0,0.6,0,0.9-0.1c0,0,0.1,0,0.2,0c0.2-0.1,0.5-0.2,0.8-0.3
	c0.1,0,0.1,0,0.1-0.1c0.3-0.1,0.5-0.3,0.7-0.5c0,0,0.1,0,0.1-0.1c0.2-0.2,0.4-0.5,0.6-0.7c0,0,0,0,0,0c0.2-0.3,0.4-0.6,0.5-0.9
	c0,0,0-0.1,0.1-0.1c0.2-0.3,0.3-0.7,0.4-1c0,0,0-0.1,0.1-0.2c0.3-0.8,0.5-1.6,0.6-2.6c0,0,0-0.1,0.1-0.1c0.1-0.5,0.1-1,0.2-1.5
	c0-0.1,0-0.1,0-0.2c0-0.5,0.1-1,0.1-1.6c0,0,0-0.1,0-0.1c0.1-1.1,0.1-2.3,0.1-3.5v-0.1c0-0.6,0-1.2,0-1.8V352
	c-0.1-1.9-0.2-3.9-0.4-6c0,0,0,0,0-0.1c-0.2-2-0.4-4-0.7-6v0c-0.1-0.6-0.2-1.3-0.3-1.9l0,0c-0.3-1.9-0.6-3.7-0.9-5.4c0,0,0,0,0,0
	c-0.4-2.2-0.8-4.1-1.1-5.5c0,0,0,0,0-0.1c-0.1-0.7-0.3-1.3-0.4-1.7v0c0-0.2-0.1-0.4-0.1-0.5c0,0,0,0,0,0c0-0.1,0-0.2-0.1-0.3l0,0
	c0-0.1,0-0.1,0-0.1c-0.1-0.3-0.2-0.7-0.3-1c0-0.1-0.1-0.2-0.1-0.3c-0.1-0.2-0.1-0.4-0.2-0.6c0-0.1-0.1-0.2-0.1-0.3
	c-0.1-0.2-0.1-0.3-0.2-0.5c0-0.1-0.1-0.2-0.1-0.3c-0.1-0.2-0.1-0.3-0.2-0.4c-0.1-0.1-0.1-0.2-0.2-0.3c0-0.1-0.1-0.2-0.2-0.4
	c0-0.1-0.1-0.2-0.1-0.3c-0.1-0.1-0.1-0.2-0.2-0.3c0-0.1-0.1-0.2-0.1-0.2c0-0.1-0.1-0.2-0.2-0.3c0-0.1-0.1-0.2-0.1-0.2
	c0-0.1-0.1-0.2-0.2-0.2c0-0.1-0.1-0.1-0.2-0.2c-0.1-0.1-0.1-0.2-0.2-0.2c0-0.1-0.1-0.1-0.1-0.2c-0.1-0.1-0.1-0.1-0.2-0.2
	c-0.1,0-0.1-0.1-0.1-0.1c-0.1-0.1-0.1-0.1-0.2-0.1c-0.1,0-0.1-0.1-0.2-0.1c-0.1,0-0.1-0.1-0.2-0.1c-0.1,0-0.1,0-0.2-0.1
	c-0.1,0-0.1-0.1-0.2-0.1c-0.1,0-0.1,0-0.1-0.1c-0.1,0-0.1,0-0.2,0c-0.1,0-0.1,0-0.1,0c-0.1,0-0.2,0-0.3,0h-0.1c-0.2,0-0.3,0-0.5,0
	c0,0-0.1,0-0.1,0c-0.2,0-0.4,0.1-0.5,0.2c0,0,0,0,0,0c-0.2,0.1-0.4,0.1-0.5,0.2c-0.1,0-0.1,0-0.1,0.1c-0.2,0.1-0.4,0.2-0.6,0.3
	c0,0,0,0,0,0c-0.2,0.1-0.4,0.2-0.6,0.4c0,0-0.1,0.1-0.1,0.1c-0.2,0.2-0.4,0.3-0.6,0.5h0c-0.2,0.2-0.4,0.4-0.6,0.6
	c0,0-0.1,0.1-0.1,0.1c-0.2,0.2-0.4,0.4-0.6,0.6l0,0c-0.2,0.2-0.4,0.4-0.6,0.7c-0.1,0-0.1,0.1-0.1,0.1c-0.4,0.5-0.8,1-1.3,1.5
	c0,0.1-0.1,0.1-0.1,0.2c-0.4,0.5-0.9,1.1-1.3,1.7c0,0-0.1,0.1-0.1,0.1c-0.8,1-1.5,2.1-2.3,3.1c-0.1,0.1-0.2,0.2-0.3,0.4
	c-0.1,0.1-0.2,0.2-0.3,0.4c-0.2,0.3-0.4,0.5-0.6,0.8c0,0.1-0.1,0.1-0.1,0.2c-0.1,0.2-0.3,0.5-0.5,0.7c-0.1,0.1-0.1,0.2-0.2,0.3
	c-0.2,0.2-0.4,0.5-0.6,0.8c0,0-0.1,0.1-0.1,0.1c-0.2,0.2-0.4,0.5-0.5,0.7c-0.1,0.1-0.1,0.1-0.2,0.2c-0.2,0.3-0.4,0.5-0.6,0.8
	c0,0-0.1,0.1-0.1,0.1c-0.2,0.2-0.4,0.4-0.5,0.6c-0.1,0-0.1,0.1-0.2,0.2c-0.2,0.2-0.4,0.4-0.6,0.7c0,0-0.1,0.1-0.1,0.1
	c-0.2,0.2-0.4,0.4-0.6,0.5c-0.1,0.1-0.1,0.1-0.2,0.2c-0.2,0.2-0.4,0.4-0.6,0.5c0,0-0.1,0.1-0.1,0.1c-0.2,0.2-0.4,0.3-0.5,0.4
	c0,0-0.1,0.1-0.1,0.1c-0.2,0.1-0.4,0.3-0.6,0.4c0,0-0.1,0-0.1,0c-0.2,0.1-0.4,0.2-0.5,0.3c0,0-0.1,0-0.1,0.1
	c-0.2,0.1-0.4,0.2-0.6,0.2c0,0-0.1,0-0.1,0c-0.2,0.1-0.3,0.1-0.5,0.1c0,0-0.1,0-0.1,0c-0.2,0-0.4,0-0.6,0H169
	c-1.5-0.2-0.1-7.3,14.1-30.1c0.3-0.4,0.5-0.8,0.7-1.2c0.1-0.1,0.1-0.2,0.2-0.4c0.1-0.3,0.3-0.5,0.4-0.8c0.1-0.1,0.1-0.3,0.2-0.4
	c0.1-0.2,0.2-0.5,0.3-0.7c0.1-0.1,0.1-0.2,0.2-0.4c0.1-0.2,0.1-0.5,0.2-0.7c0.1-0.1,0.1-0.2,0.1-0.3c0.1-0.3,0.1-0.7,0.2-1
	c0,0,0-0.1,0-0.2c0-0.2,0.1-0.5,0.1-0.8v-0.9c0-0.1,0-0.2,0-0.3c0-0.2-0.1-0.3-0.1-0.5c0-0.1,0-0.2,0-0.3c-0.1-0.2-0.1-0.4-0.2-0.6
	c0-0.1,0-0.1-0.1-0.2c-0.1-0.2-0.2-0.5-0.3-0.7c0-0.1-0.1-0.1-0.1-0.2c-0.1-0.2-0.2-0.3-0.3-0.5c-0.1-0.1-0.1-0.2-0.2-0.2
	c-0.1-0.1-0.2-0.3-0.3-0.4c-0.1-0.1-0.1-0.2-0.2-0.2c-0.1-0.1-0.2-0.2-0.4-0.4c-0.1,0-0.1-0.1-0.2-0.2c-0.1-0.1-0.3-0.3-0.5-0.4
	c0,0-0.1-0.1-0.1-0.1c-0.2-0.2-0.4-0.3-0.7-0.5c-0.1,0-0.1-0.1-0.2-0.1c-0.2-0.1-0.4-0.2-0.5-0.3c-0.1-0.1-0.2-0.1-0.3-0.2
	c-0.2-0.1-0.4-0.2-0.5-0.3c-0.1,0-0.2-0.1-0.3-0.2c-0.2-0.1-0.4-0.2-0.6-0.2c-0.1,0-0.2-0.1-0.3-0.1c-0.3-0.1-0.5-0.2-0.8-0.3
	c0,0-0.1,0-0.2-0.1c-0.3-0.1-0.6-0.2-1-0.3c-0.1,0-0.2-0.1-0.4-0.1c-0.2-0.1-0.5-0.1-0.7-0.2c-0.1,0-0.3-0.1-0.4-0.1
	c-0.2,0-0.4-0.1-0.7-0.1c-0.1,0-0.3-0.1-0.4-0.1c-0.2,0-0.5-0.1-0.7-0.1c-0.1,0-0.3-0.1-0.4-0.1c-0.4-0.1-0.7-0.1-1.1-0.2
	c0,0-0.1,0-0.2,0c-0.3,0-0.6-0.1-1-0.1c-0.2,0-0.3,0-0.5,0c-0.2,0-0.5,0-0.7-0.1c-0.2,0-0.4,0-0.5,0c-0.2,0-0.5,0-0.7-0.1
	c-0.2,0-0.3,0-0.5,0c-0.3,0-0.5,0-0.8,0c-0.2,0-0.3,0-0.5,0c-0.4,0-0.8,0-1.2,0c-0.1,0-0.3,0-0.4,0c-0.3,0-0.6,0-0.8,0
	c-0.2,0-0.4,0-0.5,0c-0.2,0-0.5,0-0.7,0h-3.5c-0.5,0-0.9,0-1.3,0h-0.2c-0.5,0-1,0-1.4,0c-0.1,0-0.2,0-0.4,0c-0.5,0-0.9,0.1-1.4,0.1
	h0c-0.5,0-0.9,0-1.4,0.1c-0.1,0-0.2,0-0.2,0c-0.4,0-0.9,0.1-1.3,0.1c0,0-0.1,0-0.1,0c-0.4,0-0.8,0.1-1.1,0.1c0,0-0.1,0-0.2,0
	c-0.4,0-0.8,0.1-1.1,0.1c-0.1,0-0.1,0-0.2,0c-0.4,0-0.7,0.1-1,0.1l0,0c-0.4,0-0.7,0-1,0.1c-0.1,0-0.1,0-0.1,0
	c-0.6,0.1-1.1,0.1-1.6,0.2c0,0,0,0-0.1,0c-0.2,0-0.4,0-0.5,0.1c0,0-0.1,0-0.1,0c-0.1,0-0.2,0-0.3,0.1h-0.1c-0.1,0-0.2,0-0.3,0
	c0,0,0,0,0,0c0,0-0.1,0-0.1,0l41.1,151.9h349.8l41.1-151.9c0,0,0,0-0.1,0c0,0,0,0,0,0"/>
<path class="st0" d="M350.4,129.9c3.2-0.6,6.4-1,9.7-1s6.5,0.4,9.7,1V89.2h36.7V69.8h-36.7V34.2h-19.4v35.6h-36.7v19.4h36.7V129.9z"
	/>
<path class="st0" d="M547.6,220.7c0,0-37.8-2.4-53,15.2c-8.1-12.6-20.9-15.2-57.9-15.2s-44.2,2.4-51.7,8.9
	c-5.7,5-11.7,11.5-13.6,14.4c0.9-2,2.7-7.7-2.8-11.8c-2.7-2-4.5-3.7-5.7-5.1c23.6-1.5,42.3-21.4,42.3-46c0-22.1-15.2-40.6-35.4-45.1
	c-3.1-0.7-6.4-1.1-9.7-1.1s-6.5,0.4-9.7,1.1c-20.2,4.6-35.4,23.1-35.4,45.1c0,24.5,18.8,44.5,42.4,46c-1.2,1.5-3,3.2-5.7,5.1
	c-5.5,4.1-3.8,9.8-2.8,11.8c-2-2.9-8-9.5-13.7-14.4c-7.5-6.5-14.8-8.9-51.8-8.9s-49.9,2.6-58,15.2c-15.2-17.6-53-15.2-53-15.2
	c-53.1,0-41,25.8-41,25.8l6.2,22.7h0l4.5,16.6c0.4-0.1,0.7-0.2,1.1-0.3c0.3-0.1,7.3-1,15.6-1.2l-4.1-15.1h-0.1l-5-18.4
	c-1.9-6.8-2.6-9.3,37-11.5c39.6-2.2,40.1,12.6,40.1,12.6l7.2,33c3.6-0.5,7.8-0.8,12.8-0.8h0.5c1.5,0,2.9,0,4.2,0.1l-3.2-15h0
	l-1.3-6.2c-2.1-10.5-7.6-22.1,37.7-21.7c61.8,0.6,65.7,16,65.7,19.5v24.9c3.3-0.3,5.6-0.5,9.7-0.5s6.5,0.2,9.7,0.5v-24.9
	c0-3.5,3.8-18.9,65.5-19.5c45.3-0.4,39.8,11.2,37.7,21.7l-1.3,6.2h0.1l-3.2,15c1.4,0,2.8-0.1,4.2-0.1h0.5c5,0,9.2,0.3,12.8,0.8
	l3.4-15.7l3.7-17.3c0,0,0.5-14.9,40.1-12.6c39.6,2.2,39,4.7,37.1,11.5l-5,18.4h0l-4.1,15.1c8.3,0.2,15.3,1.2,15.6,1.2
	c0.4,0,0.7,0.1,1.1,0.3l4.5-16.6l6.2-22.7C588.8,246.6,600.7,220.7,547.6,220.7"/>
<g>
	<path class="st0" d="M871.5,596c-16.9,0-34.6-3.8-46.3-8.7v-23.5c13.8,4.1,32,8.2,46.7,8.2c20.2,0,23.6-4.2,23.6-18.5
		c0-16.5-0.4-17.8-27.1-23.6c-35.8-8-40.7-14.9-40.7-46.2c0-26.9,12.2-40.2,49.8-40.2c12.9,0,31.1,2,43.2,4.8v24.3
		c-10.3-2.8-29.8-5.1-42.7-5.1c-18.9,0-22.2,4-22.2,16.9c0,16.9,0.4,17.3,26,23.6c39.8,9.6,41.8,16,41.8,45.6
		C923.5,581.5,915.3,596,871.5,596L871.5,596z"/>
	<g>
		<path class="st0" d="M1069.5,550.3c0,24.7-14.2,45.6-56,45.6s-56-20.9-56-45.6V489c0-24.7,14.2-45.6,56-45.6s56,20.9,56,45.6
			V550.3z M985.4,548.8c0,14,7.1,22.5,28,22.5s28-8.5,28-22.5v-58.3c0-14-7.1-22.5-28-22.5s-28,8.5-28,22.5V548.8z"/>
		<path class="st0" d="M1133.9,593.7h-28V445.6h28V593.7L1133.9,593.7z M1168.9,518.8l49.8,74.9h-32.2l-48.5-74.9l45.8-73.2h31.8
			L1168.9,518.8L1168.9,518.8z"/>
		<path class="st0" d="M1277.4,593.7h-28V445.6h28V593.7L1277.4,593.7z M1312.3,518.8l49.8,74.9h-32.2l-48.5-74.9l45.8-73.2h31.8
			L1312.3,518.8L1312.3,518.8z"/>
		<path class="st0" d="M1394.1,445.6h90.7v24.7h-62.7v35.8h57.8v24.7h-57.8V569h62.7v24.7h-90.7V445.6L1394.1,445.6z"/>
		<path class="st0" d="M1553.3,569h60.9v24.7h-88.9V445.6h28L1553.3,569L1553.3,569z"/>
		<path class="st0" d="M1704.3,445.6c36.5,0,49.1,18.5,49.1,39.8v68.5c0,21.1-12.7,39.8-49.1,39.8h-55.2V445.6L1704.3,445.6
			L1704.3,445.6z M1677.2,569h24.2c18.9,0,24-7.6,24-21.8v-55.2c0-14.2-5.1-21.8-24-21.8h-24.2V569z"/>
		<path class="st0" d="M1822.6,593.7h-28V445.6h28V593.7L1822.6,593.7z"/>
		<path class="st0" d="M1951.3,593.7l-34-48.9h-26.7v48.9h-28V445.6h60.7c34.5,0,47.1,14,47.1,40V505c0,17.8-6.7,30.2-22.2,35.8
			l36.7,52.9L1951.3,593.7L1951.3,593.7z M1922.2,470.3h-31.6v50.3h31.6c15.3,0,20.2-5.6,20.2-18v-14.7
			C1942.5,475.4,1937.1,470.3,1922.2,470.3L1922.2,470.3z"/>
		<path class="st0" d="M2018.1,445.6h90.7v24.7h-62.7v35.8h57.8v24.7h-57.8V569h62.7v24.7h-90.7V445.6L2018.1,445.6z"/>
		<path class="st0" d="M2181,593.7h-28V445.6h28V593.7L2181,593.7z M2216,518.8l49.8,74.9h-32.2l-48.5-74.9l45.8-73.2h31.8
			L2216,518.8L2216,518.8z"/>
		<path class="st0" d="M2328.9,470.3h-41.4v-24.7h110.7v24.7h-41.4v123.4h-28L2328.9,470.3L2328.9,470.3z"/>
		<path class="st0" d="M2538.4,550.3c0,24.7-14.2,45.6-56,45.6s-56-20.9-56-45.6V489c0-24.7,14.2-45.6,56-45.6s56,20.9,56,45.6
			V550.3z M2454.3,548.8c0,14,7.1,22.5,28,22.5s28-8.5,28-22.5v-58.3c0-14-7.1-22.5-28-22.5s-28,8.5-28,22.5V548.8z"/>
		<path class="st0" d="M2663.6,593.7l-34-48.9h-26.7v48.9h-28V445.6h60.7c34.5,0,47.1,14,47.1,40V505c0,17.8-6.7,30.2-22.2,35.8
			l36.7,52.9L2663.6,593.7L2663.6,593.7z M2634.4,470.3h-31.6v50.3h31.6c15.3,0,20.2-5.6,20.2-18v-14.7
			C2654.7,475.4,2649.3,470.3,2634.4,470.3L2634.4,470.3z"/>
		<path class="st0" d="M2813.4,563h-54.9l-9.3,30.7h-29.4l46.7-148.1h39.1l46.7,148.1H2823L2813.4,563L2813.4,563z M2765.4,538.8
			h40.9l-20.2-70L2765.4,538.8L2765.4,538.8z"/>
		<path class="st0" d="M2902.6,470.3h-41.4v-24.7H2972v24.7h-41.4v123.4h-28L2902.6,470.3L2902.6,470.3z"/>
		<path class="st0" d="M3005.6,445.6h90.7v24.7h-62.7v35.8h57.8v24.7h-57.8V569h62.7v24.7h-90.7V445.6L3005.6,445.6z"/>
		<path class="st0" d="M3171.2,470.3h-41.4v-24.7h110.7v24.7h-41.4v123.4h-28L3171.2,470.3L3171.2,470.3z"/>
	</g>
</g>
</svg>
