<svg xmlns="http://www.w3.org/2000/svg" width="205" height="70" viewBox="0 0 205 70">
    <g fill="none" fill-rule="nonzero">
        <path fill="#003057" d="M.232.073h59.663c0 29.759-1.227 42.3-29.777 69.632C1.464 42.377.232 29.768.232.073"/>
        <path fill="#C8C9C7" d="M48.555 31.75c-.078-.105-1.878-2.618-3.378-4.155-1.495-1.536-3.195-2.29-4.604-2.063-2.473-1.21-4.568-1.36-6.246-.432-1.745.96-2.982 3.064-3.7 6.282v-7.277c-.009-.937.146-1.646.187-1.787 0-.004 0-.004-.005-.009.577-2.359 1.618-4.095 3-4.859 1.114-.614 2.391-.577 3.81.105l.008.054c.023.114.332 1.205 3.555 4.21 1.377 1.286 2.359 1.995 3.186 2.286.6.213.891.159 1.105.063.204-.09.318-.204.318-.204-.355-.332-3.186-3.687-3.718-4.519.99.36 2.109.8 3.063.941l.269.041c1.468.218 2.322-.277 2.359-.295l.463-.273-.463-.273c-.114-.068-2.778-1.627-4.778-2.422-1.963-.782-3.804-.791-5-.041-1.627-.814-3.15-.873-4.445-.16-1.255.692-2.246 2.092-2.9 3.982.49-3.777 1.577-5.831 2.377-7.309.15-.04 1.246-.427 4.11-3.659 1.25-1.409 1.936-2.409 2.204-3.24.195-.605.136-.896.036-1.105-.095-.2-.209-.314-.209-.314-.323.364-3.604 3.277-4.423 3.837.332-1 .746-2.128.86-3.087l.031-.268c.178-1.473-.336-2.314-.359-2.35l-.286-.46-.26.474c-.063.113-1.554 2.818-2.295 4.836-.74 2.01-.69 3.873.123 5.045-.918 1.7-2.218 4.128-2.61 8.973-.385-2.163-1.017-4.013-1.904-5.518-.927-1.582-1.95-2.49-2.731-3.04.1-1.41-.778-3.024-2.387-4.387-1.64-1.387-4.273-3.005-4.382-3.073l-.459-.282-.022.537c0 .04-.037 1.027.85 2.222l.159.218c.572.778 1.486 1.555 2.272 2.26-.986-.082-5.277-1-5.736-1.155 0 0-.04.155-.027.377.013.232.104.514.577.941.645.591 1.736 1.123 3.518 1.732 4.168 1.427 5.277 1.186 5.387 1.155l.054-.014c.723.527 1.632 1.368 2.464 2.786.872 1.487 1.495 3.328 1.868 5.491.045.332.09.796.095 1.314v3.704c-.645-2.65-1.79-5.036-3.572-6.109-1.641-.99-3.582-.768-5.769.66-1.386-.469-3.227.068-4.945 1.454-1.673 1.35-3.764 3.623-3.85 3.718l-.364.396.523.127c.041.009 1.005.227 2.341-.41l.245-.117c.873-.414 1.81-1.164 2.65-1.8-.268.954-1.981 4.99-2.227 5.413 0 0 .141.073.364.1.227.027.523-.009 1.036-.386.705-.523 1.432-1.491 2.373-3.123 1.814-3.159 2.109-4.482 2.154-4.909 1.996-1.3 3.741-1.518 5.182-.65 1.841 1.11 2.814 3.695 3.31 5.664.254 1.013.436 2.109.55 3.213v4.887c-.273-.669-.642-1.105-1.1-1.314-.742-.332-1.66-.045-2.737.855-1.418-.373-3.218.295-4.832 1.804-1.573 1.464-3.49 3.886-3.573 3.986l-.336.423.532.087c.04.004 1.018.154 2.304-.578l.237-.132c.84-.477 1.718-1.29 2.513-1.986-.195.973-1.618 5.123-1.827 5.56 0 0 .146.058.373.072.232.014.523-.046 1.004-.46.664-.567 1.323-1.59 2.141-3.286 1.573-3.259 1.778-4.6 1.791-5.04.66-.555 1.528-1.096 2.187-.8.518.236 1.118 1.072 1.327 3.568v21.25c.368.095.736.1 1.104 0V38.045c.378-3.318 1.291-5.304 2.555-5.509 1.132-.181 2.54 1.091 3.586 3.178l-.018.04c-.054.105-.509 1.141.068 5.51.246 1.868.55 3.04 1.005 3.79.327.546.586.691.809.75.214.06.377.046.377.046-.063-.482-.113-4.868.005-5.855.536.91 1.118 1.96 1.768 2.673l.182.2c.995 1.1 1.968 1.264 2.009 1.273l.532.082-.187-.505c-.045-.123-1.113-3.023-2.145-4.904-1.018-1.85-2.432-3.032-3.832-3.21-1.177-2.413-2.823-3.84-4.24-3.613-.833.136-1.81.84-2.469 3.077v-.009c.468-5.1 1.8-8.282 3.968-9.477 1.46-.805 3.31-.691 5.505.332-.023.35.04 1.654 1.545 5.195.737 1.732 1.341 2.786 1.977 3.386.464.437.75.51.982.51.223 0 .373-.055.373-.055-.19-.45-1.41-4.664-1.56-5.64.76.73 1.6 1.59 2.415 2.108l.227.146c1.25.795 2.236.695 2.277.69l.536-.063-.34-.441z"/>
        <g fill="#000">
            <path d="M79.91 22.99l.045 10.128H76.84l.045-17.059 12.191 11.027-.022-10.568h3.113l-.045 17.21zM100.432 33.445c-3.418 0-6.073-2.609-6.073-5.895 0-3.31 2.655-5.964 6.136-5.964a5.954 5.954 0 0 1 6.01 5.964c0 3.245-2.678 5.895-6.073 5.895zm3.045-5.895c0-2.127-1.359-3.64-2.982-3.64-1.8 0-3.136 1.513-3.136 3.704 0 2.081 1.468 3.595 3.046 3.595 1.845 0 3.072-1.468 3.072-3.659zM108.632 33.118V21.914h2.85v1.777c.263-.568 1.14-2.082 2.454-2.082 1.01 0 1.555.286 2.019.55l-.987 2.696c-.35-.241-.832-.569-1.536-.569-1.273 0-1.95 1.537-1.95 2.655v6.182h-2.85v-.005zM124.66 15.14h2.872v16.946c-1.577.964-3.332 1.36-4.932 1.36-3.16 0-6.182-1.996-6.182-5.787 0-3.573 2.432-6.073 5.877-6.073.791 0 1.669.196 2.369.66V15.14h-.005zm0 9.692c-.505-.527-1.446-.855-2.283-.855-1.8 0-2.936 1.514-2.936 3.682 0 2.082 1.468 3.441 3.159 3.441.614 0 1.423-.086 2.06-.482v-5.786zM130.268 33.118V21.914h2.85v1.777c.264-.568 1.141-2.082 2.455-2.082 1.009 0 1.554.286 2.018.55l-.986 2.696c-.35-.241-.832-.569-1.537-.569-1.273 0-1.95 1.537-1.95 2.655v6.182h-2.85v-.005zM149.06 32.064c-.592.504-2.3 1.381-4.8 1.381-3.705 0-6.205-2.3-6.205-5.895 0-3.418 2.5-5.964 5.986-5.964 3.64 0 5.436 2.764 5.436 5.919V28.6h-8.527c.305 2.082 2.19 2.564 3.945 2.564 1.71 0 2.919-.7 3.332-1.096l.832 1.996zm-2.455-5.61c-.023-1.422-.987-2.631-2.546-2.631-1.645 0-2.782.986-3.114 2.632h5.66zM157.218 33.118V16.541h9.691v2.804h-6.577v3.682h5.327v2.828h-5.327v7.254h-3.114zM173.377 33.445c-3.418 0-6.072-2.609-6.072-5.895 0-3.31 2.654-5.964 6.136-5.964a5.954 5.954 0 0 1 6.009 5.964c0 3.245-2.677 5.895-6.073 5.895zm3.046-5.895c0-2.127-1.36-3.64-2.982-3.64-1.8 0-3.136 1.513-3.136 3.704 0 2.081 1.468 3.595 3.045 3.595 1.845 0 3.073-1.468 3.073-3.659zM181.577 33.118V15.141h2.873v17.977zM187.21 33.118V15.141h2.872v17.977zM198.282 33.445c-3.418 0-6.073-2.609-6.073-5.895 0-3.31 2.655-5.964 6.136-5.964 3.423 0 6.01 2.719 6.01 5.964 0 3.245-2.673 5.895-6.073 5.895zm3.05-5.895c0-2.127-1.36-3.64-2.982-3.64-1.8 0-3.136 1.513-3.136 3.704 0 2.081 1.468 3.595 3.045 3.595 1.846 0 3.073-1.468 3.073-3.659zM82.31 53.273l-4.265-4.191v4.19h-1.159V38.892h1.16v9.418l3.331-3.473h1.455l-3.718 3.773 4.718 4.664h-1.523zM88.414 53.5c-2.528 0-4.51-1.932-4.51-4.436 0-2.51 1.982-4.455 4.528-4.455 2.527 0 4.473 2 4.473 4.455-.005 2.472-1.969 4.436-4.491 4.436zm3.259-4.436c0-1.982-1.51-3.437-3.282-3.437-1.946 0-3.296 1.455-3.296 3.491 0 1.964 1.578 3.368 3.282 3.368 1.964 0 3.296-1.368 3.296-3.422zM105.882 53.273v-5.51c0-1.508-.682-2.068-1.896-2.068-1.086 0-2.05.719-2.454 1.141.036.264.054.51.054.773v5.664h-1.159v-5.528c0-1.527-.7-2.054-1.927-2.054-1.055 0-2 .7-2.368 1.104v6.473h-1.16v-8.436h1.16v.895c.454-.404 1.473-1.122 2.804-1.122 1.228 0 1.914.631 2.3 1.3.632-.546 1.791-1.3 3.123-1.3 1.632 0 2.682.945 2.682 3.05v5.613h-1.16v.005zM120.51 53.273v-5.51c0-1.508-.683-2.068-1.896-2.068-1.087 0-2.05.719-2.455 1.141.036.264.055.51.055.773v5.664h-1.16v-5.528c0-1.527-.7-2.054-1.931-2.054-1.055 0-2 .7-2.368 1.104v6.473h-1.16v-8.436h1.16v.895c.454-.404 1.472-1.122 2.804-1.122 1.227 0 1.914.631 2.3 1.3.632-.546 1.791-1.3 3.123-1.3 1.632 0 2.682.945 2.682 3.05v5.613h-1.155v.005zM130.105 44.836h1.159v7.491c-.86.791-2 1.178-3.541 1.178-2.087 0-3.56-1.087-3.56-3.246v-5.418h1.16V50c0 1.736 1 2.49 2.454 2.49 1.173 0 1.914-.367 2.332-.667v-6.987h-.004zM139.773 53.273V48.29c0-1.81-.596-2.596-2.246-2.596-1.19 0-2.14.719-2.509 1.123v6.455h-1.159v-8.437h1.16v.896c.472-.423 1.422-1.123 2.84-1.123 1.964 0 3.068.964 3.068 3.141v5.527h-1.154v-.004zM150.805 52.1c-.56.773-1.841 1.405-3.51 1.405-2.509 0-4.35-1.773-4.35-4.405 0-2.632 1.7-4.49 4.3-4.49 2.614 0 3.805 2.067 3.805 4.208v.314h-6.927c0 2.086 1.368 3.368 3.422 3.368 1.455 0 2.332-.668 2.719-1.105l.54.705zm-.95-3.895c-.141-1.405-1.019-2.596-2.669-2.596-1.472 0-2.79.896-3.018 2.596h5.687z"/>
        </g>
    </g>
</svg>
